<svg xmlns="http://www.w3.org/2000/svg" xmlns:xlink="http://www.w3.org/1999/xlink" contentStyleType="text/css" data-diagram-type="CLASS" height="187.5px" preserveAspectRatio="none" style="width:327px;height:187px;background:#FFFFFF;" version="1.1" viewBox="0 0 327 187" width="327.6042px" zoomAndPan="magnify"><?plantuml 1.2026.3?><defs/><g><!--cluster Business Partner Relation and References--><g class="cluster" data-qualified-name="Business Partner Relation and References" data-source-line="4" id="ent0002"><path d="M4.4271,3.125 L161.0387,3.125 A1.9531,1.9531 0 0 1 162.3408,4.4271 L165.9866,14.8376 L318.4896,14.8376 A1.3021,1.3021 0 0 1 319.7917,16.1397 L319.7917,178.8594 A1.3021,1.3021 0 0 1 318.4896,180.1615 L4.4271,180.1615 A1.3021,1.3021 0 0 1 3.125,178.8594 L3.125,4.4271 A1.3021,1.3021 0 0 1 4.4271,3.125" fill="none" style="stroke:#000000;stroke-width:0.7813;"/><line style="stroke:#000000;stroke-width:0.7813;" x1="3.125" x2="165.9866" y1="14.8376" y2="14.8376"/><text fill="#000000" font-family="sans-serif" font-size="7.2917" font-weight="700" lengthAdjust="spacing" textLength="156.0908" x="5.2083" y="11.2162">Business Partner Relation and References</text></g><!--class BusinessPartner--><g class="entity" data-qualified-name="Business Partner Relation and References.BusinessPartner" data-source-line="5" id="ent0003"><rect fill="#F1F1F1" height="38.0086" rx="1.3021" ry="1.3021" style="stroke:#181818;stroke-width:0.2604;" width="72.5718" x="11.6302" y="29.9427"/><ellipse cx="19.4427" cy="38.276" fill="#ADD1B2" rx="5.7292" ry="5.7292" style="stroke:#181818;stroke-width:0.5208;"/><path d="M21.3251,41.6615 L17.3044,41.6615 L17.3044,35.2067 L21.3251,35.2067 L21.3251,36.3308 L18.5798,36.3308 L18.5798,37.7229 L21.0657,37.7229 L21.0657,38.847 L18.5798,38.847 L18.5798,40.5374 L21.3251,40.5374 Z " fill="#000000"/><text fill="#000000" font-family="sans-serif" font-size="7.2917" lengthAdjust="spacing" textLength="55.9052" x="26.7344" y="41.0318">BusinessPartner</text><line style="stroke:#181818;stroke-width:0.2604;" x1="12.151" x2="83.6812" y1="46.6094" y2="46.6094"/><text fill="#000000" font-family="sans-serif" font-size="7.2917" lengthAdjust="spacing" textLength="36.4192" x="14.7552" y="55.7423">ExternalID</text><text fill="#000000" font-family="sans-serif" font-size="7.2917" lengthAdjust="spacing" textLength="6.9214" x="14.7552" y="64.3299">...</text></g><!--class BusinessPartnerRelation--><g class="entity" data-qualified-name="Business Partner Relation and References.BusinessPartnerRelation" data-source-line="10" id="ent0004"><rect fill="#F1F1F1" height="55.1839" rx="1.3021" ry="1.3021" style="stroke:#181818;stroke-width:0.2604;" width="101.2187" x="210.3281" y="21.3542"/><ellipse cx="218.1406" cy="29.6875" fill="#ADD1B2" rx="5.7292" ry="5.7292" style="stroke:#181818;stroke-width:0.5208;"/><path d="M220.0231,33.0729 L216.0024,33.0729 L216.0024,26.6182 L220.0231,26.6182 L220.0231,27.7423 L217.2777,27.7423 L217.2777,29.1344 L219.7637,29.1344 L219.7637,30.2584 L217.2777,30.2584 L217.2777,31.9489 L220.0231,31.9489 Z " fill="#000000"/><text fill="#000000" font-family="sans-serif" font-size="7.2917" lengthAdjust="spacing" textLength="84.552" x="225.4323" y="32.4432">BusinessPartnerRelation</text><line style="stroke:#181818;stroke-width:0.2604;" x1="210.849" x2="311.026" y1="38.0208" y2="38.0208"/><text fill="#000000" font-family="sans-serif" font-size="7.2917" lengthAdjust="spacing" textLength="36.4192" x="213.4531" y="47.1537">ExternalID</text><text fill="#000000" font-family="sans-serif" font-size="7.2917" lengthAdjust="spacing" textLength="43.5969" x="213.4531" y="55.7414">ReasonCode</text><text fill="#000000" font-family="sans-serif" font-size="7.2917" lengthAdjust="spacing" textLength="35.2549" x="213.4531" y="64.329">CreatedAt</text><text fill="#000000" font-family="sans-serif" font-size="7.2917" lengthAdjust="spacing" textLength="37.3947" x="213.4531" y="72.9167">UpdatedAt</text></g><!--class ValidityPeriod--><g class="entity" data-qualified-name="Business Partner Relation and References.ValidityPeriod" data-source-line="17" id="ent0005"><rect fill="#F1F1F1" height="38.0086" rx="1.3021" ry="1.3021" style="stroke:#181818;stroke-width:0.2604;" width="65.1627" x="109.6042" y="125.2344"/><ellipse cx="117.4167" cy="133.5677" fill="#ADD1B2" rx="5.7292" ry="5.7292" style="stroke:#181818;stroke-width:0.5208;"/><path d="M118.7048,136.7672 Q118.4021,136.9229 118.0692,137.0007 Q117.7363,137.0785 117.3689,137.0785 Q116.0632,137.0785 115.3758,136.2182 Q114.6884,135.3578 114.6884,133.7322 Q114.6884,132.1024 115.3758,131.242 Q116.0632,130.3817 117.3689,130.3817 Q117.7363,130.3817 118.0736,130.4595 Q118.4108,130.5373 118.7048,130.693 L118.7048,132.111 Q118.3762,131.8084 118.0671,131.6679 Q117.758,131.5274 117.4294,131.5274 Q116.729,131.5274 116.3723,132.0829 Q116.0157,132.6384 116.0157,133.7322 Q116.0157,134.8217 116.3723,135.3773 Q116.729,135.9328 117.4294,135.9328 Q117.758,135.9328 118.0671,135.7923 Q118.3762,135.6518 118.7048,135.3492 Z " fill="#000000"/><text fill="#000000" font-family="sans-serif" font-size="7.2917" lengthAdjust="spacing" textLength="48.496" x="124.7083" y="136.3234">ValidityPeriod</text><line style="stroke:#181818;stroke-width:0.2604;" x1="110.125" x2="174.246" y1="141.901" y2="141.901"/><text fill="#000000" font-family="sans-serif" font-size="7.2917" lengthAdjust="spacing" textLength="35.7783" x="112.7292" y="151.0339">ValidFrom</text><text fill="#000000" font-family="sans-serif" font-size="7.2917" lengthAdjust="spacing" textLength="26.6886" x="112.7292" y="159.6216">ValidTo</text></g><!--class BusinessPartnerRelationType--><g class="entity" data-qualified-name="Business Partner Relation and References.BusinessPartnerRelationType" data-source-line="22" id="ent0006"><rect fill="#F1F1F1" height="55.1839" rx="1.3021" ry="1.3021" style="stroke:#181818;stroke-width:0.2604;" width="118.2907" x="192.9375" y="116.6458"/><ellipse cx="200.75" cy="124.9792" fill="#EB937F" rx="5.7292" ry="5.7292" style="stroke:#181818;stroke-width:0.5208;"/><path d="M202.6324,128.3646 L198.6117,128.3646 L198.6117,121.9099 L202.6324,121.9099 L202.6324,123.0339 L199.8871,123.0339 L199.8871,124.426 L202.373,124.426 L202.373,125.5501 L199.8871,125.5501 L199.8871,127.2405 L202.6324,127.2405 Z " fill="#000000"/><text fill="#000000" font-family="sans-serif" font-size="7.2917" lengthAdjust="spacing" textLength="101.624" x="208.0417" y="127.7349">BusinessPartnerRelationType</text><line style="stroke:#181818;stroke-width:0.2604;" x1="193.4583" x2="310.7074" y1="133.3125" y2="133.3125"/><text fill="#000000" font-family="sans-serif" font-size="7.2917" lengthAdjust="spacing" textLength="99.2599" x="196.0625" y="142.4454">IsAlternativeHeadquarterFor</text><text fill="#000000" font-family="sans-serif" font-size="7.2917" lengthAdjust="spacing" textLength="45.8791" x="196.0625" y="151.033">IsManagedBy</text><text fill="#000000" font-family="sans-serif" font-size="7.2917" lengthAdjust="spacing" textLength="38.2813" x="196.0625" y="159.6207">IsOwnedBy</text><text fill="#000000" font-family="sans-serif" font-size="7.2917" lengthAdjust="spacing" textLength="45.605" x="196.0625" y="168.2083">IsReplacedBy</text></g><!--reverse link BusinessPartner to BusinessPartnerRelation--><g class="link" data-entity-1="ent0003" data-entity-2="ent0004" data-link-type="dependency" data-source-line="29" id="lnk8"><path codeLine="29" d="M87.4167,48.9479 C122.0573,48.9479 171.3854,48.9479 210.1458,48.9479" fill="none" id="BusinessPartner-backto-BusinessPartnerRelation" style="stroke:#181818;stroke-width:0.5208;"/><polygon fill="#181818" points="84.2917,48.9479,88.9792,51.0313,86.8958,48.9479,88.9792,46.8646,84.2917,48.9479" style="stroke:#181818;stroke-width:0.5208;"/><text fill="#000000" font-family="sans-serif" font-size="6.7708" lengthAdjust="spacing" textLength="107.7482" x="93.6198" y="45.5981">BusinessPartnerSourceExternalID</text><text fill="#000000" font-family="sans-serif" font-size="6.7708" lengthAdjust="spacing" textLength="4.2814" x="88.2637" y="47.287">1</text><text fill="#000000" font-family="sans-serif" font-size="6.7708" lengthAdjust="spacing" textLength="3.2631" x="202.8544" y="47.3767">*</text></g><!--reverse link BusinessPartner to BusinessPartnerRelation--><g class="link" data-entity-1="ent0003" data-entity-2="ent0004" data-link-type="dependency" data-source-line="30" id="lnk10"><path codeLine="30" d="M87.3283,58.5748 C90.396,59.1112 90.3854,59.026 93.3594,59.3646 C117.1667,62.0573 177.3021,61.4271 201.1719,59.3646 C204.1094,59.1094 207.1198,58.7865 210.151,58.4115" fill="none" id="BusinessPartner-backto-BusinessPartnerRelation-1" style="stroke:#181818;stroke-width:0.5208;"/><polygon fill="#181818" points="84.25,58.0365,88.5086,60.8961,86.8152,58.485,89.2263,56.7917,84.25,58.0365" style="stroke:#181818;stroke-width:0.5208;"/><text fill="#000000" font-family="sans-serif" font-size="6.7708" lengthAdjust="spacing" textLength="107.0473" x="93.8802" y="57.5773">BusinessPartnerTargetExternalID</text><text fill="#000000" font-family="sans-serif" font-size="6.7708" lengthAdjust="spacing" textLength="4.2814" x="88.4582" y="57.3457">1</text><text fill="#000000" font-family="sans-serif" font-size="6.7708" lengthAdjust="spacing" textLength="3.2631" x="202.86" y="57.5944">*</text></g><!--link BusinessPartnerRelation to BusinessPartnerRelationType--><g class="link" data-entity-1="ent0004" data-entity-2="ent0006" data-link-type="aggregation" data-source-line="31" id="lnk11"><path codeLine="31" d="M258.375,76.7292 C257.2031,89.2344 256.3961,97.7981 255.2242,110.2929" fill="none" id="BusinessPartnerRelation-to-BusinessPartnerRelationType" style="stroke:#181818;stroke-width:0.5208;"/><polygon fill="none" points="254.6406,116.5156,257.0067,113.5988,255.2242,110.2929,252.8582,113.2097,254.6406,116.5156" style="stroke:#181818;stroke-width:0.5208;"/><text fill="#000000" font-family="sans-serif" font-size="6.7708" lengthAdjust="spacing" textLength="15.8526" x="257.2969" y="99.2335">Type</text><text fill="#000000" font-family="sans-serif" font-size="6.7708" lengthAdjust="spacing" textLength="3.2631" x="254.7303" y="87.3457">*</text><text fill="#000000" font-family="sans-serif" font-size="6.7708" lengthAdjust="spacing" textLength="4.2814" x="250.5454" y="111.0099">1</text></g><!--link BusinessPartnerRelation to ValidityPeriod--><g class="link" data-entity-1="ent0004" data-entity-2="ent0005" data-link-type="composition" data-source-line="32" id="lnk12"><path codeLine="32" d="M217.7979,80.4631 C211.0011,85.5047 209.0521,87.0677 202.6042,92.1667 C189.25,102.7292 177.0763,113.0425 165.6128,123.0165" fill="none" id="BusinessPartnerRelation-ValidityPeriod" style="stroke:#181818;stroke-width:0.5208;"/><polygon fill="#181818" points="222.8177,76.7396,219.0667,76.9281,217.7979,80.4631,221.549,80.2746,222.8177,76.7396" style="stroke:#181818;stroke-width:0.5208;"/><polygon fill="#181818" points="163.2552,125.0677,168.159,123.5626,165.2198,123.3584,165.4241,120.4192,163.2552,125.0677" style="stroke:#181818;stroke-width:0.5208;"/><text fill="#000000" font-family="sans-serif" font-size="6.7708" lengthAdjust="spacing" textLength="48.4835" x="203.125" y="99.2335">ValidityPeriods</text><text fill="#000000" font-family="sans-serif" font-size="6.7708" lengthAdjust="spacing" textLength="4.2814" x="213.7583" y="87.1589">1</text><text fill="#000000" font-family="sans-serif" font-size="6.7708" lengthAdjust="spacing" textLength="3.2631" x="163.6172" y="119.705">*</text></g><?plantuml-src hP6nJiCm48RtFCN9OwL4CB1agDGMAZeWgX3OJ_7HMdLiOpj0X7Xt72jjQMWG0vFrdNtVNVwudL06BTR0ZO2hYoGnMErmGy3cZHEAd8CrMg_8Ga4IlT0AKF40psH9LUGOV2G0fBpmBUoRzZtT5S3DkoUhKAwk8sPP5ixFPBJjCEbiUq7ej5feJX4Nbj0Jd_b8ZuOVA4we98PlU48fU9Yq9YiqxxsnkBIwFbAfZvirzTXUPMkeTwpSJCRjl7YbMqB-qeItP9VQzlTtg4AUVDxsVF-clb51HcBL5-BWiIpOX44gqocmI_OZvtnOUT2DhUWakVyHbsWtvFykvga-9pw9CeVk-CqK19EWcaRdu6VcWu9BGevRmGbgyjkE8uov-qTV?></g></svg>