<svg xmlns="http://www.w3.org/2000/svg" xmlns:xlink="http://www.w3.org/1999/xlink" contentStyleType="text/css" data-diagram-type="CLASS" height="247.9167px" preserveAspectRatio="none" style="width:436px;height:247px;background:#FFFFFF;" version="1.1" viewBox="0 0 436 247" width="436.4583px" zoomAndPan="magnify"><?plantuml 1.2026.3?><defs/><g><!--cluster Business Partner Script Variant--><g class="cluster" data-qualified-name="Business Partner Script Variant" data-source-line="4" id="ent0002"><path d="M4.4271,3.125 L121.3618,3.125 A1.9531,1.9531 0 0 1 122.6639,4.4271 L126.3097,14.8376 L427.3438,14.8376 A1.3021,1.3021 0 0 1 428.6458,16.1397 L428.6458,238.9688 A1.3021,1.3021 0 0 1 427.3438,240.2708 L4.4271,240.2708 A1.3021,1.3021 0 0 1 3.125,238.9688 L3.125,4.4271 A1.3021,1.3021 0 0 1 4.4271,3.125" fill="none" style="stroke:#000000;stroke-width:0.7813;"/><line style="stroke:#000000;stroke-width:0.7813;" x1="3.125" x2="126.3097" y1="14.8376" y2="14.8376"/><text fill="#000000" font-family="sans-serif" font-size="7.2917" font-weight="700" lengthAdjust="spacing" textLength="116.4139" x="5.2083" y="11.2162">Business Partner Script Variant</text></g><!--class BusinessPartnerScriptVariant--><g class="entity" data-qualified-name="Business Partner Script Variant.BusinessPartnerScriptVariant" data-source-line="5" id="ent0003"><rect fill="#F1F1F1" height="38.0086" rx="1.3021" ry="1.3021" style="stroke:#181818;stroke-width:0.2604;" width="117.8065" x="147.8698" y="21.3542"/><ellipse cx="155.6823" cy="29.6875" fill="#ADD1B2" rx="5.7292" ry="5.7292" style="stroke:#181818;stroke-width:0.5208;"/><path d="M156.9704,32.887 Q156.6678,33.0427 156.3349,33.1205 Q156.002,33.1983 155.6345,33.1983 Q154.3288,33.1983 153.6414,32.338 Q152.954,31.4776 152.954,29.852 Q152.954,28.2221 153.6414,27.3618 Q154.3288,26.5015 155.6345,26.5015 Q156.002,26.5015 156.3392,26.5793 Q156.6764,26.6571 156.9704,26.8127 L156.9704,28.2308 Q156.6418,27.9282 156.3327,27.7877 Q156.0236,27.6471 155.695,27.6471 Q154.9946,27.6471 154.638,28.2027 Q154.2813,28.7582 154.2813,29.852 Q154.2813,30.9415 154.638,31.4971 Q154.9946,32.0526 155.695,32.0526 Q156.0236,32.0526 156.3327,31.9121 Q156.6418,31.7716 156.9704,31.469 Z " fill="#000000"/><text fill="#000000" font-family="sans-serif" font-size="7.2917" lengthAdjust="spacing" textLength="101.1398" x="162.974" y="32.4432">BusinessPartnerScriptVariant</text><line style="stroke:#181818;stroke-width:0.2604;" x1="148.3906" x2="265.1555" y1="38.0208" y2="38.0208"/><text fill="#000000" font-family="sans-serif" font-size="7.2917" lengthAdjust="spacing" textLength="38.2456" x="150.9948" y="47.1537">ScriptCode</text><text fill="#000000" font-family="sans-serif" font-size="7.2917" lengthAdjust="spacing" textLength="37.7686" x="150.9948" y="55.7414">NameParts</text></g><!--class LegalEntityScriptVariant--><g class="entity" data-qualified-name="Business Partner Script Variant.LegalEntityScriptVariant" data-source-line="10" id="ent0004"><rect fill="#F1F1F1" height="38.0086" rx="1.3021" ry="1.3021" style="stroke:#181818;stroke-width:0.2604;" width="100.382" x="320.1198" y="21.3542"/><ellipse cx="327.9323" cy="29.6875" fill="#ADD1B2" rx="5.7292" ry="5.7292" style="stroke:#181818;stroke-width:0.5208;"/><path d="M329.2204,32.887 Q328.9178,33.0427 328.5849,33.1205 Q328.252,33.1983 327.8845,33.1983 Q326.5788,33.1983 325.8914,32.338 Q325.204,31.4776 325.204,29.852 Q325.204,28.2221 325.8914,27.3618 Q326.5788,26.5015 327.8845,26.5015 Q328.252,26.5015 328.5892,26.5793 Q328.9264,26.6571 329.2204,26.8127 L329.2204,28.2308 Q328.8918,27.9282 328.5827,27.7877 Q328.2736,27.6471 327.945,27.6471 Q327.2446,27.6471 326.888,28.2027 Q326.5313,28.7582 326.5313,29.852 Q326.5313,30.9415 326.888,31.4971 Q327.2446,32.0526 327.945,32.0526 Q328.2736,32.0526 328.5827,31.9121 Q328.8918,31.7716 329.2204,31.469 Z " fill="#000000"/><text fill="#000000" font-family="sans-serif" font-size="7.2917" lengthAdjust="spacing" textLength="83.7153" x="335.224" y="32.4432">LegalEntityScriptVariant</text><line style="stroke:#181818;stroke-width:0.2604;" x1="320.6406" x2="419.9809" y1="38.0208" y2="38.0208"/><text fill="#000000" font-family="sans-serif" font-size="7.2917" lengthAdjust="spacing" textLength="38.915" x="323.2448" y="47.1537">LegalName</text><text fill="#000000" font-family="sans-serif" font-size="7.2917" lengthAdjust="spacing" textLength="38.9257" x="323.2448" y="55.7414">ShortName</text></g><!--class SiteScriptVariant--><g class="entity" data-qualified-name="Business Partner Script Variant.SiteScriptVariant" data-source-line="15" id="ent0005"><rect fill="#F1F1F1" height="29.421" rx="1.3021" ry="1.3021" style="stroke:#181818;stroke-width:0.2604;" width="74.7259" x="294.9271" y="150.9896"/><ellipse cx="302.7396" cy="159.3229" fill="#ADD1B2" rx="5.7292" ry="5.7292" style="stroke:#181818;stroke-width:0.5208;"/><path d="M304.0277,162.5224 Q303.725,162.6781 303.3922,162.7559 Q303.0593,162.8337 302.6918,162.8337 Q301.3861,162.8337 300.6987,161.9734 Q300.0113,161.113 300.0113,159.4875 Q300.0113,157.8576 300.6987,156.9972 Q301.3861,156.1369 302.6918,156.1369 Q303.0593,156.1369 303.3965,156.2147 Q303.7337,156.2925 304.0277,156.4482 L304.0277,157.8662 Q303.6991,157.5636 303.39,157.4231 Q303.0809,157.2826 302.7523,157.2826 Q302.0519,157.2826 301.6952,157.8381 Q301.3386,158.3937 301.3386,159.4875 Q301.3386,160.5769 301.6952,161.1325 Q302.0519,161.688 302.7523,161.688 Q303.0809,161.688 303.39,161.5475 Q303.6991,161.407 304.0277,161.1044 Z " fill="#000000"/><text fill="#000000" font-family="sans-serif" font-size="7.2917" lengthAdjust="spacing" textLength="58.0592" x="310.0313" y="162.0787">SiteScriptVariant</text><line style="stroke:#181818;stroke-width:0.2604;" x1="295.4479" x2="369.1321" y1="167.6563" y2="167.6563"/><text fill="#000000" font-family="sans-serif" font-size="7.2917" lengthAdjust="spacing" textLength="20.2835" x="298.0521" y="176.7891">Name</text></g><!--class AddressScriptVariant--><g class="entity" data-qualified-name="Business Partner Script Variant.AddressScriptVariant" data-source-line="19" id="ent0006"><rect fill="#F1F1F1" height="29.421" rx="1.3021" ry="1.3021" style="stroke:#181818;stroke-width:0.2604;" width="90.5909" x="11.474" y="25.6458"/><ellipse cx="19.2865" cy="33.9792" fill="#ADD1B2" rx="5.7292" ry="5.7292" style="stroke:#181818;stroke-width:0.5208;"/><path d="M20.5746,37.1787 Q20.2719,37.3343 19.939,37.4121 Q19.6061,37.49 19.2386,37.49 Q17.933,37.49 17.2456,36.6296 Q16.5582,35.7693 16.5582,34.1437 Q16.5582,32.5138 17.2456,31.6535 Q17.933,30.7931 19.2386,30.7931 Q19.6061,30.7931 19.9433,30.871 Q20.2806,30.9488 20.5746,31.1044 L20.5746,32.5225 Q20.246,32.2198 19.9369,32.0793 Q19.6277,31.9388 19.2992,31.9388 Q18.5988,31.9388 18.2421,32.4944 Q17.8854,33.0499 17.8854,34.1437 Q17.8854,35.2332 18.2421,35.7887 Q18.5988,36.3443 19.2992,36.3443 Q19.6277,36.3443 19.9369,36.2038 Q20.246,36.0633 20.5746,35.7606 Z " fill="#000000"/><text fill="#000000" font-family="sans-serif" font-size="7.2917" lengthAdjust="spacing" textLength="73.9243" x="26.5781" y="36.7349">AddressScriptVariant</text><line style="stroke:#181818;stroke-width:0.2604;" x1="11.9948" x2="101.544" y1="42.3125" y2="42.3125"/><text fill="#000000" font-family="sans-serif" font-size="7.2917" lengthAdjust="spacing" textLength="20.2835" x="14.599" y="51.4454">Name</text></g><!--class PhysicalAddressScriptVariant--><g class="entity" data-qualified-name="Business Partner Script Variant.PhysicalAddressScriptVariant" data-source-line="23" id="ent0007"><rect fill="#F1F1F1" height="132.4727" rx="1.3021" ry="1.3021" style="stroke:#181818;stroke-width:0.2604;" width="118.6503" x="11.5104" y="99.4635"/><ellipse cx="19.3229" cy="107.7969" fill="#ADD1B2" rx="5.7292" ry="5.7292" style="stroke:#181818;stroke-width:0.5208;"/><path d="M20.611,110.9964 Q20.3084,111.152 19.9755,111.2298 Q19.6426,111.3077 19.2751,111.3077 Q17.9695,111.3077 17.2821,110.4473 Q16.5946,109.587 16.5946,107.9614 Q16.5946,106.3315 17.2821,105.4712 Q17.9695,104.6108 19.2751,104.6108 Q19.6426,104.6108 19.9798,104.6887 Q20.317,104.7665 20.611,104.9221 L20.611,106.3402 Q20.2824,106.0375 19.9733,105.897 Q19.6642,105.7565 19.3356,105.7565 Q18.6353,105.7565 18.2786,106.3121 Q17.9219,106.8676 17.9219,107.9614 Q17.9219,109.0509 18.2786,109.6064 Q18.6353,110.162 19.3356,110.162 Q19.6642,110.162 19.9733,110.0215 Q20.2824,109.881 20.611,109.5783 Z " fill="#000000"/><text fill="#000000" font-family="sans-serif" font-size="7.2917" lengthAdjust="spacing" textLength="101.9836" x="26.6146" y="110.5526">PhysicalAddressScriptVariant</text><line style="stroke:#181818;stroke-width:0.2604;" x1="12.0313" x2="129.6399" y1="116.1302" y2="116.1302"/><text fill="#000000" font-family="sans-serif" font-size="7.2917" lengthAdjust="spacing" textLength="39.2639" x="14.6354" y="125.2631">PostalCode</text><text fill="#000000" font-family="sans-serif" font-size="7.2917" lengthAdjust="spacing" textLength="13.6897" x="14.6354" y="133.8507">City</text><text fill="#000000" font-family="sans-serif" font-size="7.2917" lengthAdjust="spacing" textLength="25.5671" x="14.6354" y="142.4384">District</text><text fill="#000000" font-family="sans-serif" font-size="7.2917" lengthAdjust="spacing" textLength="61.1104" x="14.6354" y="151.026">StreetNamePrefix</text><text fill="#000000" font-family="sans-serif" font-size="7.2917" lengthAdjust="spacing" textLength="97.4014" x="14.6354" y="159.6137">StreetAdditionalNamePrefix</text><text fill="#000000" font-family="sans-serif" font-size="7.2917" lengthAdjust="spacing" textLength="40.7735" x="14.6354" y="168.2013">StreetName</text><text fill="#000000" font-family="sans-serif" font-size="7.2917" lengthAdjust="spacing" textLength="61.1674" x="14.6354" y="176.789">StreetNameSuffix</text><text fill="#000000" font-family="sans-serif" font-size="7.2917" lengthAdjust="spacing" textLength="97.4584" x="14.6354" y="185.3766">StreetAdditionalNameSuffix</text><text fill="#000000" font-family="sans-serif" font-size="7.2917" lengthAdjust="spacing" textLength="28.7038" x="14.6354" y="193.9643">Building</text><text fill="#000000" font-family="sans-serif" font-size="7.2917" lengthAdjust="spacing" textLength="17.9586" x="14.6354" y="202.5519">Floor</text><text fill="#000000" font-family="sans-serif" font-size="7.2917" lengthAdjust="spacing" textLength="17.4032" x="14.6354" y="211.1396">Door</text><text fill="#000000" font-family="sans-serif" font-size="7.2917" lengthAdjust="spacing" textLength="72.5464" x="14.6354" y="219.7272">CompanyPostalCode</text><text fill="#000000" font-family="sans-serif" font-size="7.2917" lengthAdjust="spacing" textLength="50.885" x="14.6354" y="228.3149">IndustrialZone</text></g><!--class AlternativeAddressScriptVariant--><g class="entity" data-qualified-name="Business Partner Script Variant.AlternativeAddressScriptVariant" data-source-line="39" id="ent0008"><rect fill="#F1F1F1" height="55.1839" rx="1.3021" ry="1.3021" style="stroke:#181818;stroke-width:0.2604;" width="128.7262" x="148.1354" y="138.1094"/><ellipse cx="155.9479" cy="146.4427" fill="#ADD1B2" rx="5.7292" ry="5.7292" style="stroke:#181818;stroke-width:0.5208;"/><path d="M157.236,149.6422 Q156.9334,149.7979 156.6005,149.8757 Q156.2676,149.9535 155.9001,149.9535 Q154.5945,149.9535 153.9071,149.0932 Q153.2196,148.2328 153.2196,146.6072 Q153.2196,144.9774 153.9071,144.117 Q154.5945,143.2567 155.9001,143.2567 Q156.2676,143.2567 156.6048,143.3345 Q156.942,143.4123 157.236,143.568 L157.236,144.986 Q156.9074,144.6834 156.5983,144.5429 Q156.2892,144.4024 155.9606,144.4024 Q155.2603,144.4024 154.9036,144.9579 Q154.5469,145.5134 154.5469,146.6072 Q154.5469,147.6967 154.9036,148.2523 Q155.2603,148.8078 155.9606,148.8078 Q156.2892,148.8078 156.5983,148.6673 Q156.9074,148.5268 157.236,148.2242 Z " fill="#000000"/><text fill="#000000" font-family="sans-serif" font-size="7.2917" lengthAdjust="spacing" textLength="112.0595" x="163.2396" y="149.1984">AlternativeAddressScriptVariant</text><line style="stroke:#181818;stroke-width:0.2604;" x1="148.6563" x2="276.3408" y1="154.776" y2="154.776"/><text fill="#000000" font-family="sans-serif" font-size="7.2917" lengthAdjust="spacing" textLength="39.2639" x="151.2604" y="163.9089">PostalCode</text><text fill="#000000" font-family="sans-serif" font-size="7.2917" lengthAdjust="spacing" textLength="13.6897" x="151.2604" y="172.4966">City</text><text fill="#000000" font-family="sans-serif" font-size="7.2917" lengthAdjust="spacing" textLength="83.2881" x="151.2604" y="181.0842">DeliveryServiceQualifier</text><text fill="#000000" font-family="sans-serif" font-size="7.2917" lengthAdjust="spacing" textLength="81.3761" x="151.2604" y="189.6719">DeliveryServiceNumber</text></g><!--link BusinessPartnerScriptVariant to LegalEntityScriptVariant--><g class="link" data-entity-1="ent0003" data-entity-2="ent0004" data-link-type="dependency" data-source-line="46" id="lnk9"><path codeLine="46" d="M265.8125,40.3542 C283.5156,40.3542 299.6406,40.3542 316.7344,40.3542" fill="none" id="BusinessPartnerScriptVariant-to-LegalEntityScriptVariant" style="stroke:#181818;stroke-width:0.5208;"/><polygon fill="#181818" points="319.8594,40.3542,315.1719,38.2708,317.2552,40.3542,315.1719,42.4375,319.8594,40.3542" style="stroke:#181818;stroke-width:0.5208;"/><text fill="#000000" font-family="sans-serif" font-size="6.7708" lengthAdjust="spacing" textLength="35.732" x="275.1875" y="37.0044">LegalEntity</text><text fill="#000000" font-family="sans-serif" font-size="6.7708" lengthAdjust="spacing" textLength="4.2814" x="269.923" y="38.8304">1</text><text fill="#000000" font-family="sans-serif" font-size="6.7708" lengthAdjust="spacing" textLength="4.2814" x="311.6749" y="38.7945">1</text></g><!--link BusinessPartnerScriptVariant to SiteScriptVariant--><g class="link" data-entity-1="ent0003" data-entity-2="ent0005" data-link-type="dependency" data-source-line="47" id="lnk10"><path codeLine="47" d="M236.5781,59.5781 C252.2344,70.1979 271.1771,84.3646 285.9375,99.4635 C301.4063,115.2917 313.8717,134.0347 322.3561,148.0556" fill="none" id="BusinessPartnerScriptVariant-to-SiteScriptVariant" style="stroke:#181818;stroke-width:0.5208;"/><polygon fill="#181818" points="323.974,150.7292,323.3296,145.6402,322.6257,148.5012,319.7648,147.7973,323.974,150.7292" style="stroke:#181818;stroke-width:0.5208;"/><text fill="#000000" font-family="sans-serif" font-size="6.7708" lengthAdjust="spacing" textLength="11.9085" x="268.5781" y="82.0512">Site</text><text fill="#000000" font-family="sans-serif" font-size="6.7708" lengthAdjust="spacing" textLength="4.2814" x="237.186" y="70.1128">1</text><text fill="#000000" font-family="sans-serif" font-size="6.7708" lengthAdjust="spacing" textLength="4.2814" x="317.545" y="145.351">1</text></g><!--reverse link AddressScriptVariant to BusinessPartnerScriptVariant--><g class="link" data-entity-1="ent0006" data-entity-2="ent0003" data-link-type="dependency" data-source-line="48" id="lnk12"><path codeLine="48" d="M105.3073,40.3542 C119.6198,40.3542 132.5208,40.3542 147.6458,40.3542" fill="none" id="AddressScriptVariant-backto-BusinessPartnerScriptVariant" style="stroke:#181818;stroke-width:0.5208;"/><polygon fill="#181818" points="102.1823,40.3542,106.8698,42.4375,104.7865,40.3542,106.8698,38.2708,102.1823,40.3542" style="stroke:#181818;stroke-width:0.5208;"/><text fill="#000000" font-family="sans-serif" font-size="6.7708" lengthAdjust="spacing" textLength="26.6403" x="111.6875" y="37.0044">Address</text><text fill="#000000" font-family="sans-serif" font-size="6.7708" lengthAdjust="spacing" textLength="4.2814" x="106.2689" y="38.7588">1</text><text fill="#000000" font-family="sans-serif" font-size="6.7708" lengthAdjust="spacing" textLength="4.2814" x="139.3704" y="38.8304">1</text></g><!--link AddressScriptVariant to PhysicalAddressScriptVariant--><g class="link" data-entity-1="ent0006" data-entity-2="ent0007" data-link-type="dependency" data-source-line="50" id="lnk13"><path codeLine="50" d="M58.3854,55.1354 C59.6406,66.2656 61.1378,79.4834 63.0284,96.1709" fill="none" id="AddressScriptVariant-to-PhysicalAddressScriptVariant" style="stroke:#181818;stroke-width:0.5208;"/><polygon fill="#181818" points="63.3802,99.276,64.9226,94.3838,63.087,96.6884,60.7824,94.8529,63.3802,99.276" style="stroke:#181818;stroke-width:0.5208;"/><text fill="#000000" font-family="sans-serif" font-size="6.7708" lengthAdjust="spacing" textLength="52.6955" x="61.8385" y="82.0512">PhysicalAddress</text><text fill="#000000" font-family="sans-serif" font-size="6.7708" lengthAdjust="spacing" textLength="4.2814" x="54.1291" y="65.7865">1</text><text fill="#000000" font-family="sans-serif" font-size="6.7708" lengthAdjust="spacing" textLength="4.2814" x="58.6654" y="93.9483">1</text></g><!--link AddressScriptVariant to AlternativeAddressScriptVariant--><g class="link" data-entity-1="ent0006" data-entity-2="ent0008" data-link-type="dependency" data-source-line="51" id="lnk14"><path codeLine="51" d="M87.0208,55.276 C97.599,60.8542 109.3125,67.6615 119.2708,74.9844 C144.6667,93.6667 168.0305,116.6146 185.9263,135.6355" fill="none" id="AddressScriptVariant-to-AlternativeAddressScriptVariant" style="stroke:#181818;stroke-width:0.5208;"/><polygon fill="#181818" points="188.0677,137.9115,186.373,133.0699,186.2832,136.0148,183.3383,135.9251,188.0677,137.9115" style="stroke:#181818;stroke-width:0.5208;"/><text fill="#000000" font-family="sans-serif" font-size="6.7708" lengthAdjust="spacing" textLength="62.0516" x="130.9219" y="82.0512">AlternativeAddress</text><text fill="#000000" font-family="sans-serif" font-size="6.7708" lengthAdjust="spacing" textLength="4.2814" x="88.6757" y="65.7216">1</text><text fill="#000000" font-family="sans-serif" font-size="6.7708" lengthAdjust="spacing" textLength="12.8474" x="171.659" y="132.5943">0..1</text></g><?plantuml-src dLB1JiCm3BttAwBUDy61Imz8R824XAQYIXoucSPRhQL9vQGJ5UBVITDkbArq4pVRx_dbsR7Tagw0eHIo8d5p5KKLv5lOe8WNjIMDreeKs6baaULCbHElm0JQnU8p4Y9Nu1bxQi_iY3qlq4JVl3GIGxg24bkszTbNT11wnWse1-t8DMCY0MvREyd2iEkpWKP63iUQJvbtKh9tVHavBHfBEQY9fjHO1-emuz9F4O9xieufTvrhnuZ1Tigufez1qKkJ8wEx6K_Wdy4FQLQlfoG6yA8c9KblGlAeZE7EsZvOch82tHoDyAHbtNe7zMRqyVQKGzRWQ8V_sGagtyXDXhoZ75zgKBGcv35mLPVl0GclJnvRV1sB6SzkG_3dDIL3w299sKkU7bSIQXU9g5vaT5t9ljpEEChuPMJo79DZ-BparNpUEZlpfya88_A_Kf14KQ8hZBJV?></g></svg>