<?xml version="1.0" encoding="us-ascii" standalone="no"?><svg xmlns="http://www.w3.org/2000/svg" xmlns:xlink="http://www.w3.org/1999/xlink" contentStyleType="text/css" height="161.9792px" preserveAspectRatio="none" style="width:314px;height:161px;background:#FFFFFF;" version="1.1" viewBox="0 0 314 161" width="314.0625px" zoomAndPan="magnify"><defs/><g><!--cluster Business Partner Relation and References--><g id="cluster_Business Partner Relation and References"><path d="M4.4271,3.125 L160.6771,3.125 A1.9531,1.9531 0 0 1 161.9792,4.4271 L165.625,15.4215 L309.1146,15.4215 A1.3021,1.3021 0 0 1 310.4167,16.7236 L310.4167,157.0313 A1.3021,1.3021 0 0 1 309.1146,158.3333 L4.4271,158.3333 A1.3021,1.3021 0 0 1 3.125,157.0313 L3.125,4.4271 A1.3021,1.3021 0 0 1 4.4271,3.125 " fill="none" style="stroke:#000000;stroke-width:0.78125;"/><line style="stroke:#000000;stroke-width:0.78125;" x1="3.125" x2="165.625" y1="15.4215" y2="15.4215"/><text fill="#000000" font-family="sans-serif" font-size="7.2917" font-weight="bold" lengthAdjust="spacing" textLength="155.7292" x="5.2083" y="11.736">Business Partner Relation and References</text></g><!--class BusinessPartner--><g id="elem_BusinessPartner"><rect codeLine="5" fill="#F1F1F1" height="39.1764" id="BusinessPartner" rx="1.3021" ry="1.3021" style="stroke:#181818;stroke-width:0.2604166666666667;" width="70.8333" x="11.4583" y="26.5625"/><ellipse cx="19.2708" cy="34.8958" fill="#ADD1B2" rx="5.7292" ry="5.7292" style="stroke:#181818;stroke-width:0.5208333333333334;"/><path d="M18.6768,35.3109 L18.6768,36.613 L20.931,36.613 L20.931,36.1328 Q20.931,35.8154 21.0531,35.6771 Q21.1833,35.5387 21.3786,35.5387 Q21.5739,35.5387 21.696,35.6771 Q21.818,35.8154 21.818,36.1328 L21.818,37.5 L17.6514,37.5 Q17.3258,37.5 17.1875,37.3779 Q17.0573,37.2559 17.0573,37.0524 Q17.0573,36.8571 17.1956,36.735 Q17.334,36.613 17.6514,36.613 L17.7897,36.613 L17.7897,33.1462 L17.6514,33.1462 Q17.3258,33.1462 17.1875,33.0241 Q17.0573,32.902 17.0573,32.6986 Q17.0573,32.5033 17.1875,32.3812 Q17.3258,32.2591 17.6514,32.2591 L21.6227,32.2591 L21.6227,33.61 Q21.6227,33.9274 21.5007,34.0658 Q21.3867,34.196 21.1833,34.196 Q20.988,34.196 20.8659,34.0658 Q20.7438,33.9274 20.7438,33.61 L20.7438,33.1462 L18.6768,33.1462 L18.6768,34.4238 L19.4499,34.4238 Q19.4499,34.082 19.515,33.9844 Q19.6533,33.7728 19.8975,33.7728 Q20.0928,33.7728 20.2148,33.9111 Q20.3369,34.0413 20.3369,34.3587 L20.3369,35.3841 Q20.3369,35.6689 20.2718,35.7666 Q20.1335,35.9701 19.8975,35.9701 Q19.6533,35.9701 19.515,35.7585 Q19.4499,35.6608 19.4499,35.3109 L18.6768,35.3109 Z " fill="#000000"/><text fill="#000000" font-family="sans-serif" font-size="7.2917" lengthAdjust="spacing" textLength="54.1667" x="26.5625" y="37.8794">BusinessPartner</text><line style="stroke:#181818;stroke-width:0.2604166666666667;" x1="11.9792" x2="81.7708" y1="43.2292" y2="43.2292"/><text fill="#000000" font-family="sans-serif" font-size="7.2917" lengthAdjust="spacing" textLength="33.3333" x="14.5833" y="52.8819">ExternalID</text><text fill="#000000" font-family="sans-serif" font-size="7.2917" lengthAdjust="spacing" textLength="6.25" x="14.5833" y="62.0534">...</text></g><!--class BusinessPartnerRelation--><g id="elem_BusinessPartnerRelation"><rect codeLine="10" fill="#F1F1F1" height="48.348" id="BusinessPartnerRelation" rx="1.3021" ry="1.3021" style="stroke:#181818;stroke-width:0.2604166666666667;" width="97.9167" x="204.1667" y="21.875"/><ellipse cx="211.9792" cy="30.2083" fill="#ADD1B2" rx="5.7292" ry="5.7292" style="stroke:#181818;stroke-width:0.5208333333333334;"/><path d="M211.3851,30.6234 L211.3851,31.9255 L213.6393,31.9255 L213.6393,31.4453 Q213.6393,31.1279 213.7614,30.9896 Q213.8916,30.8512 214.0869,30.8512 Q214.2822,30.8512 214.4043,30.9896 Q214.5264,31.1279 214.5264,31.4453 L214.5264,32.8125 L210.3597,32.8125 Q210.0342,32.8125 209.8958,32.6904 Q209.7656,32.5684 209.7656,32.3649 Q209.7656,32.1696 209.904,32.0475 Q210.0423,31.9255 210.3597,31.9255 L210.498,31.9255 L210.498,28.4587 L210.3597,28.4587 Q210.0342,28.4587 209.8958,28.3366 Q209.7656,28.2145 209.7656,28.0111 Q209.7656,27.8158 209.8958,27.6937 Q210.0342,27.5716 210.3597,27.5716 L214.3311,27.5716 L214.3311,28.9225 Q214.3311,29.2399 214.209,29.3783 Q214.0951,29.5085 213.8916,29.5085 Q213.6963,29.5085 213.5742,29.3783 Q213.4521,29.2399 213.4521,28.9225 L213.4521,28.4587 L211.3851,28.4587 L211.3851,29.7363 L212.1582,29.7363 Q212.1582,29.3945 212.2233,29.2969 Q212.3617,29.0853 212.6058,29.0853 Q212.8011,29.0853 212.9232,29.2236 Q213.0452,29.3538 213.0452,29.6712 L213.0452,30.6966 Q213.0452,30.9814 212.9801,31.0791 Q212.8418,31.2826 212.6058,31.2826 Q212.3617,31.2826 212.2233,31.071 Q212.1582,30.9733 212.1582,30.6234 L211.3851,30.6234 Z " fill="#000000"/><text fill="#000000" font-family="sans-serif" font-size="7.2917" lengthAdjust="spacing" textLength="81.25" x="219.2708" y="33.1919">BusinessPartnerRelation</text><line style="stroke:#181818;stroke-width:0.2604166666666667;" x1="204.6875" x2="301.5625" y1="38.5417" y2="38.5417"/><text fill="#000000" font-family="sans-serif" font-size="7.2917" lengthAdjust="spacing" textLength="33.3333" x="207.2917" y="48.1944">ExternalID</text><text fill="#000000" font-family="sans-serif" font-size="7.2917" lengthAdjust="spacing" textLength="33.3333" x="207.2917" y="57.3659">CreatedAt</text><text fill="#000000" font-family="sans-serif" font-size="7.2917" lengthAdjust="spacing" textLength="34.375" x="207.2917" y="66.5375">UpdatedAt</text></g><!--class BusinessPartnerRelationType--><g id="elem_BusinessPartnerRelationType"><rect codeLine="39" fill="#F1F1F1" height="39.1764" id="BusinessPartnerRelationType" rx="1.3021" ry="1.3021" style="stroke:#181818;stroke-width:0.2604166666666667;" width="114.5833" x="187.5" y="110.9375"/><ellipse cx="195.3125" cy="119.2708" fill="#EB937F" rx="5.7292" ry="5.7292" style="stroke:#181818;stroke-width:0.5208333333333334;"/><path d="M194.7184,119.6859 L194.7184,120.988 L196.9727,120.988 L196.9727,120.5078 Q196.9727,120.1904 197.0947,120.0521 Q197.2249,119.9137 197.4202,119.9137 Q197.6156,119.9137 197.7376,120.0521 Q197.8597,120.1904 197.8597,120.5078 L197.8597,121.875 L193.693,121.875 Q193.3675,121.875 193.2292,121.7529 Q193.099,121.6309 193.099,121.4274 Q193.099,121.2321 193.2373,121.11 Q193.3757,120.988 193.693,120.988 L193.8314,120.988 L193.8314,117.5212 L193.693,117.5212 Q193.3675,117.5212 193.2292,117.3991 Q193.099,117.277 193.099,117.0736 Q193.099,116.8783 193.2292,116.7562 Q193.3675,116.6341 193.693,116.6341 L197.6644,116.6341 L197.6644,117.985 Q197.6644,118.3024 197.5423,118.4408 Q197.4284,118.571 197.2249,118.571 Q197.0296,118.571 196.9076,118.4408 Q196.7855,118.3024 196.7855,117.985 L196.7855,117.5212 L194.7184,117.5212 L194.7184,118.7988 L195.4915,118.7988 Q195.4915,118.457 195.5566,118.3594 Q195.695,118.1478 195.9391,118.1478 Q196.1344,118.1478 196.2565,118.2861 Q196.3786,118.4163 196.3786,118.7337 L196.3786,119.7591 Q196.3786,120.0439 196.3135,120.1416 Q196.1751,120.3451 195.9391,120.3451 Q195.695,120.3451 195.5566,120.1335 Q195.4915,120.0358 195.4915,119.6859 L194.7184,119.6859 Z " fill="#000000"/><text fill="#000000" font-family="sans-serif" font-size="7.2917" lengthAdjust="spacing" textLength="97.9167" x="202.6042" y="122.2544">BusinessPartnerRelationType</text><line style="stroke:#181818;stroke-width:0.2604166666666667;" x1="188.0208" x2="301.5625" y1="127.6042" y2="127.6042"/><text fill="#000000" font-family="sans-serif" font-size="7.2917" lengthAdjust="spacing" textLength="92.7083" x="190.625" y="137.2569">IsAlternativeHeadquarterFor</text><text fill="#000000" font-family="sans-serif" font-size="7.2917" lengthAdjust="spacing" textLength="44.2708" x="190.625" y="146.4284">IsManagedBy</text></g><!--reverse link BusinessPartner to BusinessPartnerRelation--><g id="link_BusinessPartner_BusinessPartnerRelation"><path codeLine="46" d="M85.4531,46.0938 C119.0313,46.0938 166.6094,46.0938 204.0573,46.0938 " fill="none" id="BusinessPartner-backto-BusinessPartnerRelation" style="stroke:#181818;stroke-width:0.5208333333333334;"/><polygon fill="#181818" points="82.3281,46.0938,87.0156,48.1771,84.9323,46.0938,87.0156,44.0104,82.3281,46.0938" style="stroke:#181818;stroke-width:0.5208333333333334;"/><text fill="#000000" font-family="sans-serif" font-size="6.7708" lengthAdjust="spacing" textLength="102.6042" x="91.9271" y="42.7058">BusinessPartnerSourceExternalID</text><text fill="#000000" font-family="sans-serif" font-size="6.7708" lengthAdjust="spacing" textLength="3.6458" x="86.4052" y="44.3372">1</text><text fill="#000000" font-family="sans-serif" font-size="6.7708" lengthAdjust="spacing" textLength="2.6042" x="197.4393" y="44.468">*</text></g><!--reverse link BusinessPartner to BusinessPartnerRelation--><g id="link_BusinessPartner_BusinessPartnerRelation"><path codeLine="47" d="M85.5814,56.0266 C89.0084,56.6725 89.375,56.6406 92.7083,57.0313 C115.0104,59.6563 171.3906,59.0729 193.75,57.0313 C197.1406,56.724 200.6302,56.3125 204.1354,55.8385 " fill="none" id="BusinessPartner-backto-BusinessPartnerRelation-1" style="stroke:#181818;stroke-width:0.5208333333333334;"/><polygon fill="#181818" points="82.5104,55.4479,86.731,58.3633,85.0695,55.9302,87.5026,54.2687,82.5104,55.4479" style="stroke:#181818;stroke-width:0.5208333333333334;"/><text fill="#000000" font-family="sans-serif" font-size="6.7708" lengthAdjust="spacing" textLength="100" x="93.2292" y="55.2058">BusinessPartnerTargetExternalID</text><text fill="#000000" font-family="sans-serif" font-size="6.7708" lengthAdjust="spacing" textLength="3.6458" x="86.3733" y="54.6818">1</text><text fill="#000000" font-family="sans-serif" font-size="6.7708" lengthAdjust="spacing" textLength="2.6042" x="197.3665" y="55.0071">*</text></g><!--link BusinessPartnerRelation to BusinessPartnerRelationType--><g id="link_BusinessPartnerRelation_BusinessPartnerRelationType"><path codeLine="48" d="M250.7396,70.4948 C249.4583,83.2865 248.5224,92.6143 247.3245,104.6039 " fill="none" id="BusinessPartnerRelation-to-BusinessPartnerRelationType" style="stroke:#181818;stroke-width:0.5208333333333334;"/><polygon fill="none" points="246.7031,110.8229,249.0868,107.9205,247.3245,104.6039,244.9408,107.5063,246.7031,110.8229" style="stroke:#181818;stroke-width:0.5208333333333334;"/><text fill="#000000" font-family="sans-serif" font-size="6.7708" lengthAdjust="spacing" textLength="14.5833" x="249.4792" y="93.487">Type</text><text fill="#000000" font-family="sans-serif" font-size="6.7708" lengthAdjust="spacing" textLength="2.6042" x="247.6399" y="81.3806">*</text><text fill="#000000" font-family="sans-serif" font-size="6.7708" lengthAdjust="spacing" textLength="3.6458" x="243.0731" y="105.2828">1</text></g><!--SRC=[hLDDJ-D03BtdLrYvH49g10SkFI2L5aGFGDLcsRCtuvOHqvam7zMM5VyTPvgKifjqU-3al3px-MDizo9rXHRN82e9b-T9Kc7vWYk2z3eugSavcA7rcYpCIQ6NHWDgmM19bdH9BeK_2G1fB_qMsg0sfgO0RdvxiXhLT19XdkTitvFUi7scpl2n9VGaHZwY7vNOeoYPmOFnu3nNYLR8DnAm9H-9KY7tqvDiuLadPinOzWcL5BVMh0znOI9gqf0EwwDYnRRw51oDY-dJJGEc3mVm1BaveMl6KOVFgL9OafW4AioeV0tIoTgjYxudkoBRnImggH-Noovg8ZVa-6M2fIvwZ7P3Zy5tSJChDrpp6_OLDDLSAwfP-ALaoVd9IhtgSlnfZLvDq6D3xjOcQnUdVrhxkVEWtKZ5vV7SqHsXU0tiI_RMsCXdxD4clTus8VUe-G9Qd1siQz-UfcSf3DJW2jABz9yR6FxzPs62BUdBLd-FS87yrlvqOJ4mNS9VvZY4sjI3_x_KUPxtgpKxF8JTHt9KacNEMFCgYXyzs254wux8xHnFwVZpR9ks-TMVfI1Oatysmkr0NzMDqmS0]--></g></svg>