<svg width="4032" height="2159" xmlns="http://www.w3.org/2000/svg" xmlns:xlink="http://www.w3.org/1999/xlink" xml:space="preserve" overflow="hidden"><defs><clipPath id="clip0"><rect x="145" y="68" width="4032" height="2159"/></clipPath><clipPath id="clip1"><rect x="146" y="177" width="733" height="540"/></clipPath><clipPath id="clip2"><rect x="878" y="-54" width="367" height="1079"/></clipPath><clipPath id="clip3"><rect x="878" y="-54" width="367" height="1079"/></clipPath><clipPath id="clip4"><rect x="1244" y="-54" width="367" height="1079"/></clipPath><clipPath id="clip5"><rect x="1244" y="-54" width="367" height="1079"/></clipPath><clipPath id="clip6"><rect x="1610" y="-54" width="367" height="1079"/></clipPath><clipPath id="clip7"><rect x="1610" y="-54" width="367" height="1079"/></clipPath><clipPath id="clip8"><rect x="1976" y="177" width="733" height="540"/></clipPath><clipPath id="clip9"><rect x="2708" y="177" width="733" height="540"/></clipPath><clipPath id="clip10"><rect x="3440" y="177" width="733" height="540"/></clipPath><clipPath id="clip11"><rect x="146" y="355" width="392" height="540"/></clipPath><clipPath id="clip12"><rect x="537" y="355" width="342" height="540"/></clipPath><clipPath id="clip13"><rect x="878" y="355" width="367" height="540"/></clipPath><clipPath id="clip14"><rect x="1244" y="355" width="367" height="540"/></clipPath><clipPath id="clip15"><rect x="1610" y="355" width="367" height="540"/></clipPath><clipPath id="clip16"><rect x="1976" y="355" width="367" height="540"/></clipPath><clipPath id="clip17"><rect x="1976" y="355" width="367" height="540"/></clipPath><clipPath id="clip18"><rect x="2342" y="355" width="367" height="540"/></clipPath><clipPath id="clip19"><rect x="2708" y="355" width="367" height="540"/></clipPath><clipPath id="clip20"><rect x="2708" y="355" width="367" height="540"/></clipPath><clipPath id="clip21"><rect x="3074" y="355" width="367" height="540"/></clipPath><clipPath id="clip22"><rect x="3440" y="355" width="367" height="540"/></clipPath><clipPath id="clip23"><rect x="3806" y="355" width="367" height="540"/></clipPath><clipPath id="clip24"><rect x="146" y="456" width="392" height="540"/></clipPath><clipPath id="clip25"><rect x="537" y="456" width="342" height="540"/></clipPath><clipPath id="clip26"><rect x="878" y="456" width="367" height="540"/></clipPath><clipPath id="clip27"><rect x="1244" y="456" width="367" height="540"/></clipPath><clipPath id="clip28"><rect x="1610" y="456" width="367" height="540"/></clipPath><clipPath id="clip29"><rect x="1976" y="456" width="367" height="540"/></clipPath><clipPath id="clip30"><rect x="2342" y="456" width="367" height="540"/></clipPath><clipPath id="clip31"><rect x="2708" y="456" width="367" height="540"/></clipPath><clipPath id="clip32"><rect x="3074" y="456" width="367" height="540"/></clipPath><clipPath id="clip33"><rect x="3440" y="456" width="367" height="540"/></clipPath><clipPath id="clip34"><rect x="3806" y="456" width="367" height="540"/></clipPath><clipPath id="clip35"><rect x="146" y="681" width="392" height="540"/></clipPath><clipPath id="clip36"><rect x="537" y="681" width="342" height="540"/></clipPath><clipPath id="clip37"><rect x="878" y="681" width="367" height="540"/></clipPath><clipPath id="clip38"><rect x="1244" y="681" width="367" height="540"/></clipPath><clipPath id="clip39"><rect x="1610" y="681" width="367" height="540"/></clipPath><clipPath id="clip40"><rect x="1976" y="681" width="367" height="540"/></clipPath><clipPath id="clip41"><rect x="2342" y="681" width="367" height="540"/></clipPath><clipPath id="clip42"><rect x="2708" y="681" width="367" height="540"/></clipPath><clipPath id="clip43"><rect x="3074" y="681" width="367" height="540"/></clipPath><clipPath id="clip44"><rect x="3440" y="681" width="367" height="540"/></clipPath><clipPath id="clip45"><rect x="3806" y="681" width="367" height="540"/></clipPath><clipPath id="clip46"><rect x="146" y="905" width="392" height="540"/></clipPath><clipPath id="clip47"><rect x="537" y="905" width="342" height="540"/></clipPath><clipPath id="clip48"><rect x="878" y="905" width="367" height="540"/></clipPath><clipPath id="clip49"><rect x="1244" y="905" width="367" height="540"/></clipPath><clipPath id="clip50"><rect x="1610" y="905" width="367" height="540"/></clipPath><clipPath id="clip51"><rect x="1976" y="905" width="367" height="540"/></clipPath><clipPath id="clip52"><rect x="2342" y="905" width="367" height="540"/></clipPath><clipPath id="clip53"><rect x="2708" y="905" width="367" height="540"/></clipPath><clipPath id="clip54"><rect x="3074" y="905" width="367" height="540"/></clipPath><clipPath id="clip55"><rect x="3440" y="905" width="367" height="540"/></clipPath><clipPath id="clip56"><rect x="3806" y="905" width="367" height="540"/></clipPath><clipPath id="clip57"><rect x="146" y="1129" width="392" height="540"/></clipPath><clipPath id="clip58"><rect x="537" y="1129" width="342" height="540"/></clipPath><clipPath id="clip59"><rect x="878" y="1129" width="367" height="540"/></clipPath><clipPath id="clip60"><rect x="1244" y="1129" width="367" height="540"/></clipPath><clipPath id="clip61"><rect x="1610" y="1129" width="367" height="540"/></clipPath><clipPath id="clip62"><rect x="1976" y="1129" width="367" height="540"/></clipPath><clipPath id="clip63"><rect x="2342" y="1129" width="367" height="540"/></clipPath><clipPath id="clip64"><rect x="2708" y="1129" width="367" height="540"/></clipPath><clipPath id="clip65"><rect x="3074" y="1129" width="367" height="540"/></clipPath><clipPath id="clip66"><rect x="3440" y="1129" width="367" height="540"/></clipPath><clipPath id="clip67"><rect x="3806" y="1129" width="367" height="540"/></clipPath><clipPath id="clip68"><rect x="146" y="1404" width="392" height="540"/></clipPath><clipPath id="clip69"><rect x="146" y="1274" width="392" height="1079"/></clipPath><clipPath id="clip70"><rect x="146" y="1274" width="392" height="1079"/></clipPath><clipPath id="clip71"><rect x="537" y="1505" width="342" height="540"/></clipPath><clipPath id="clip72"><rect x="878" y="1505" width="367" height="540"/></clipPath><clipPath id="clip73"><rect x="1244" y="1505" width="367" height="540"/></clipPath><clipPath id="clip74"><rect x="1610" y="1505" width="367" height="540"/></clipPath><clipPath id="clip75"><rect x="1976" y="1505" width="367" height="540"/></clipPath><clipPath id="clip76"><rect x="2342" y="1505" width="367" height="540"/></clipPath><clipPath id="clip77"><rect x="2708" y="1505" width="367" height="540"/></clipPath><clipPath id="clip78"><rect x="3074" y="1505" width="367" height="540"/></clipPath><clipPath id="clip79"><rect x="3440" y="1505" width="367" height="540"/></clipPath><clipPath id="clip80"><rect x="3806" y="1505" width="367" height="540"/></clipPath><clipPath id="clip81"><rect x="146" y="1729" width="392" height="540"/></clipPath><clipPath id="clip82"><rect x="537" y="1729" width="342" height="540"/></clipPath><clipPath id="clip83"><rect x="878" y="1729" width="367" height="540"/></clipPath><clipPath id="clip84"><rect x="1244" y="1729" width="367" height="540"/></clipPath><clipPath id="clip85"><rect x="1610" y="1729" width="367" height="540"/></clipPath><clipPath id="clip86"><rect x="1976" y="1729" width="367" height="540"/></clipPath><clipPath id="clip87"><rect x="2342" y="1729" width="367" height="540"/></clipPath><clipPath id="clip88"><rect x="2708" y="1729" width="367" height="540"/></clipPath><clipPath id="clip89"><rect x="3074" y="1729" width="367" height="540"/></clipPath><clipPath id="clip90"><rect x="3440" y="1729" width="367" height="540"/></clipPath><clipPath id="clip91"><rect x="3806" y="1729" width="367" height="540"/></clipPath></defs><g clip-path="url(#clip0)" transform="translate(-145 -68)"><path d="M146.776 70.177 817.745 70.177 817.745 239.302 146.776 239.302Z" fill="#FFAB00" fill-rule="evenodd"/><path d="M146.776 239.302 817.745 239.302 817.745 402.239 146.776 402.239Z" fill="#FFAB00" fill-rule="evenodd"/><path d="M817.745 68.4584 817.745 403.958" stroke="#C1C7D0" stroke-width="3.4375" stroke-linejoin="round" stroke-miterlimit="10" fill="none" fill-rule="evenodd"/><path d="M1488.71 68.4584 1488.71 403.958" stroke="#C1C7D0" stroke-width="3.4375" stroke-linejoin="round" stroke-miterlimit="10" fill="none" fill-rule="evenodd"/><path d="M145.058 239.302 2161.4 239.302" stroke="#C1C7D0" stroke-width="3.4375" stroke-linejoin="round" stroke-miterlimit="10" fill="none" fill-rule="evenodd"/><path d="M146.776 68.4584 146.776 403.958" stroke="#C1C7D0" stroke-width="3.4375" stroke-linejoin="round" stroke-miterlimit="10" fill="none" fill-rule="evenodd"/><path d="M2159.68 68.4584 2159.68 403.958" stroke="#C1C7D0" stroke-width="3.4375" stroke-linejoin="round" stroke-miterlimit="10" fill="none" fill-rule="evenodd"/><path d="M145.058 70.177 2161.4 70.177" stroke="#C1C7D0" stroke-width="3.4375" stroke-linejoin="round" stroke-miterlimit="10" fill="none" fill-rule="evenodd"/><path d="M145.058 402.239 2161.4 402.239" stroke="#C1C7D0" stroke-width="3.4375" stroke-linejoin="round" stroke-miterlimit="10" fill="none" fill-rule="evenodd"/><text font-family="Calibri,Calibri_MSFontService,sans-serif" font-weight="400" font-size="50" transform="matrix(1 0 0 1 181.151 142)">Normal </text><text font-family="Calibri,Calibri_MSFontService,sans-serif" font-weight="400" font-size="50" transform="matrix(1 0 0 1 345.006 142)">Consumption</text><text font-family="Calibri,Calibri_MSFontService,sans-serif" font-weight="400" font-size="50" transform="matrix(1 0 0 1 181.151 203)">Customer</text><text font-family="Calibri,Calibri_MSFontService,sans-serif" font-weight="400" font-size="50" transform="matrix(1 0 0 1 852.12 142)">1000</text><text font-family="Calibri,Calibri_MSFontService,sans-serif" font-weight="400" font-size="50" transform="matrix(1 0 0 1 1523.09 142)">100%</text><text font-family="Calibri,Calibri_MSFontService,sans-serif" font-weight="400" font-size="50" transform="matrix(1 0 0 1 181.151 311)">Production</text><text font-family="Calibri,Calibri_MSFontService,sans-serif" font-weight="400" font-size="50" transform="matrix(1 0 0 1 417.193 311)">Output Supplier</text><text font-family="Calibri,Calibri_MSFontService,sans-serif" font-weight="400" font-size="50" transform="matrix(1 0 0 1 852.12 311)">1200</text><text font-family="Calibri,Calibri_MSFontService,sans-serif" font-weight="400" font-size="50" transform="matrix(1 0 0 1 1523.09 311)">100%</text><path d="M146.776 396.052 878.742 396.052 878.742 574.361 146.776 574.361Z" fill="#FFAB00" fill-rule="evenodd"/><path d="M878.742 396.052 1244.73 396.052 1244.73 574.361 878.742 574.361Z" fill="#FFAB00" fill-rule="evenodd"/><path d="M1244.73 396.052 1610.71 396.052 1610.71 574.361 1244.73 574.361Z" fill="#FFAB00" fill-rule="evenodd"/><path d="M1610.71 396.052 1976.69 396.052 1976.69 574.361 1610.71 574.361Z" fill="#FFAB00" fill-rule="evenodd"/><path d="M1976.69 396.052 2708.66 396.052 2708.66 574.361 1976.69 574.361Z" fill="#FFAB00" fill-rule="evenodd"/><path d="M2708.66 396.052 3440.62 396.052 3440.62 574.361 2708.66 574.361Z" fill="#FFAB00" fill-rule="evenodd"/><path d="M3440.62 396.052 4172.59 396.052 4172.59 574.361 3440.62 574.361Z" fill="#FFAB00" fill-rule="evenodd"/><path d="M146.776 574.361 537.327 574.361 537.327 675.67 146.776 675.67Z" fill="#FFAB00" fill-rule="evenodd"/><path d="M537.327 574.361 878.742 574.361 878.742 675.67 537.327 675.67Z" fill="#FFAB00" fill-rule="evenodd"/><path d="M878.742 574.361 1244.73 574.361 1244.73 675.67 878.742 675.67Z" fill="#FFAB00" fill-rule="evenodd"/><path d="M1244.73 574.361 1610.71 574.361 1610.71 675.67 1244.73 675.67Z" fill="#FFAB00" fill-rule="evenodd"/><path d="M1610.71 574.361 1976.69 574.361 1976.69 675.67 1610.71 675.67Z" fill="#FFAB00" fill-rule="evenodd"/><path d="M1976.69 574.361 2342.68 574.361 2342.68 675.67 1976.69 675.67Z" fill="#FFAB00" fill-rule="evenodd"/><path d="M2342.68 574.361 2708.66 574.361 2708.66 675.67 2342.68 675.67Z" fill="#FFAB00" fill-rule="evenodd"/><path d="M2708.66 574.361 3074.64 574.361 3074.64 675.67 2708.66 675.67Z" fill="#FFAB00" fill-rule="evenodd"/><path d="M3074.64 574.361 3440.62 574.361 3440.62 675.67 3074.64 675.67Z" fill="#FFAB00" fill-rule="evenodd"/><path d="M3440.62 574.361 3806.61 574.361 3806.61 675.67 3440.62 675.67Z" fill="#FFAB00" fill-rule="evenodd"/><path d="M3806.61 574.361 4172.59 574.361 4172.59 675.67 3806.61 675.67Z" fill="#FFAB00" fill-rule="evenodd"/><path d="M146.776 675.67 537.327 675.67 537.327 900.008 146.776 900.008Z" fill="#FFAB00" fill-rule="evenodd"/><path d="M146.776 900.008 537.327 900.008 537.327 1124.35 146.776 1124.35Z" fill="#FFAB00" fill-rule="evenodd"/><path d="M3074.64 900.008 3440.62 900.008 3440.62 1124.35 3074.64 1124.35Z" fill="#FFBDAD" fill-rule="evenodd"/><path d="M146.776 1124.35 537.327 1124.35 537.327 1348.68 146.776 1348.68Z" fill="#FFAB00" fill-rule="evenodd"/><path d="M537.327 1124.35 878.742 1124.35 878.742 1348.68 537.327 1348.68Z" fill="#FFFFFF" fill-rule="evenodd"/><path d="M878.742 1124.35 1244.73 1124.35 1244.73 1348.68 878.742 1348.68Z" fill="#FFFFFF" fill-rule="evenodd"/><path d="M1244.73 1124.35 1610.71 1124.35 1610.71 1348.68 1244.73 1348.68Z" fill="#FFFFFF" fill-rule="evenodd"/><path d="M1610.71 1124.35 1976.69 1124.35 1976.69 1348.68 1610.71 1348.68Z" fill="#FFFFFF" fill-rule="evenodd"/><path d="M1976.69 1124.35 2342.68 1124.35 2342.68 1348.68 1976.69 1348.68Z" fill="#FFFFFF" fill-rule="evenodd"/><path d="M2342.68 1124.35 2708.66 1124.35 2708.66 1348.68 2342.68 1348.68Z" fill="#FFFFFF" fill-rule="evenodd"/><path d="M2708.66 1124.35 3074.64 1124.35 3074.64 1348.68 2708.66 1348.68Z" fill="#FFFFFF" fill-rule="evenodd"/><path d="M3074.64 1124.35 3440.62 1124.35 3440.62 1348.68 3074.64 1348.68Z" fill="#FFFFFF" fill-rule="evenodd"/><path d="M3440.62 1124.35 3806.61 1124.35 3806.61 1348.68 3440.62 1348.68Z" fill="#FFFFFF" fill-rule="evenodd"/><path d="M3806.61 1124.35 4172.59 1124.35 4172.59 1348.68 3806.61 1348.68Z" fill="#FFFFFF" fill-rule="evenodd"/><path d="M146.776 1348.68 537.327 1348.68 537.327 1623.03 146.776 1623.03Z" fill="#FFAB00" fill-rule="evenodd"/><path d="M537.327 1348.68 878.742 1348.68 878.742 1623.03 537.327 1623.03Z" fill="#EAE6FF" fill-rule="evenodd"/><path d="M878.742 1348.68 1244.73 1348.68 1244.73 1623.03 878.742 1623.03Z" fill="#EAE6FF" fill-rule="evenodd"/><path d="M1244.73 1348.68 1610.71 1348.68 1610.71 1623.03 1244.73 1623.03Z" fill="#EAE6FF" fill-rule="evenodd"/><path d="M1610.71 1348.68 1976.69 1348.68 1976.69 1623.03 1610.71 1623.03Z" fill="#EAE6FF" fill-rule="evenodd"/><path d="M2342.68 1348.68 2708.66 1348.68 2708.66 1623.03 2342.68 1623.03Z" fill="#EAE6FF" fill-rule="evenodd"/><path d="M3074.64 1348.68 3440.62 1348.68 3440.62 1623.03 3074.64 1623.03Z" fill="#EAE6FF" fill-rule="evenodd"/><path d="M3806.61 1348.68 4172.59 1348.68 4172.59 1623.03 3806.61 1623.03Z" fill="#EAE6FF" fill-rule="evenodd"/><path d="M146.776 1623.03 537.327 1623.03 537.327 1724.34 146.776 1724.34Z" fill="#FFAB00" fill-rule="evenodd"/><path d="M537.327 1623.03 878.742 1623.03 878.742 1724.34 537.327 1724.34Z" fill="#FFAB00" fill-rule="evenodd"/><path d="M878.742 1623.03 1244.73 1623.03 1244.73 1724.34 878.742 1724.34Z" fill="#FFAB00" fill-rule="evenodd"/><path d="M1244.73 1623.03 1610.71 1623.03 1610.71 1724.34 1244.73 1724.34Z" fill="#FFAB00" fill-rule="evenodd"/><path d="M1610.71 1623.03 1976.69 1623.03 1976.69 1724.34 1610.71 1724.34Z" fill="#FFAB00" fill-rule="evenodd"/><path d="M1976.69 1623.03 2342.68 1623.03 2342.68 1724.34 1976.69 1724.34Z" fill="#FFAB00" fill-rule="evenodd"/><path d="M2342.68 1623.03 2708.66 1623.03 2708.66 1724.34 2342.68 1724.34Z" fill="#FFAB00" fill-rule="evenodd"/><path d="M2708.66 1623.03 3074.64 1623.03 3074.64 1724.34 2708.66 1724.34Z" fill="#FFAB00" fill-rule="evenodd"/><path d="M3074.64 1623.03 3440.62 1623.03 3440.62 1724.34 3074.64 1724.34Z" fill="#FFAB00" fill-rule="evenodd"/><path d="M3440.62 1623.03 3806.61 1623.03 3806.61 1724.34 3440.62 1724.34Z" fill="#FFAB00" fill-rule="evenodd"/><path d="M3806.61 1623.03 4172.59 1623.03 4172.59 1724.34 3806.61 1724.34Z" fill="#FFAB00" fill-rule="evenodd"/><path d="M146.776 1724.34 537.327 1724.34 537.327 1948.68 146.776 1948.68Z" fill="#FFAB00" fill-rule="evenodd"/><path d="M537.327 1724.34 878.742 1724.34 878.742 1948.68 537.327 1948.68Z" fill="#FFFFFF" fill-rule="evenodd"/><path d="M878.742 1724.34 1244.73 1724.34 1244.73 1948.68 878.742 1948.68Z" fill="#FFFFFF" fill-rule="evenodd"/><path d="M1244.73 1724.34 1610.71 1724.34 1610.71 1948.68 1244.73 1948.68Z" fill="#FFFFFF" fill-rule="evenodd"/><path d="M1610.71 1724.34 1976.69 1724.34 1976.69 1948.68 1610.71 1948.68Z" fill="#FFFFFF" fill-rule="evenodd"/><path d="M1976.69 1724.34 2342.68 1724.34 2342.68 1948.68 1976.69 1948.68Z" fill="#FFFFFF" fill-rule="evenodd"/><path d="M2342.68 1724.34 2708.66 1724.34 2708.66 1948.68 2342.68 1948.68Z" fill="#FFFFFF" fill-rule="evenodd"/><path d="M2708.66 1724.34 3074.64 1724.34 3074.64 1948.68 2708.66 1948.68Z" fill="#FFFFFF" fill-rule="evenodd"/><path d="M3074.64 1724.34 3440.62 1724.34 3440.62 1948.68 3074.64 1948.68Z" fill="#FFFFFF" fill-rule="evenodd"/><path d="M3440.62 1724.34 3806.61 1724.34 3806.61 1948.68 3440.62 1948.68Z" fill="#FFFFFF" fill-rule="evenodd"/><path d="M3806.61 1724.34 4172.59 1724.34 4172.59 1948.68 3806.61 1948.68Z" fill="#FFFFFF" fill-rule="evenodd"/><path d="M146.776 1948.68 537.327 1948.68 537.327 2223.02 146.776 2223.02Z" fill="#FFAB00" fill-rule="evenodd"/><path d="M537.327 1948.68 878.742 1948.68 878.742 2223.02 537.327 2223.02Z" fill="#EAE6FF" fill-rule="evenodd"/><path d="M878.742 1948.68 1244.73 1948.68 1244.73 2223.02 878.742 2223.02Z" fill="#EAE6FF" fill-rule="evenodd"/><path d="M1244.73 1948.68 1610.71 1948.68 1610.71 2223.02 1244.73 2223.02Z" fill="#EAE6FF" fill-rule="evenodd"/><path d="M1610.71 1948.68 1976.69 1948.68 1976.69 2223.02 1610.71 2223.02Z" fill="#EAE6FF" fill-rule="evenodd"/><path d="M2342.68 1948.68 2708.66 1948.68 2708.66 2223.02 2342.68 2223.02Z" fill="#EAE6FF" fill-rule="evenodd"/><path d="M3074.64 1948.68 3440.62 1948.68 3440.62 2223.02 3074.64 2223.02Z" fill="#EAE6FF" fill-rule="evenodd"/><path d="M3806.61 1948.68 4172.59 1948.68 4172.59 2223.02 3806.61 2223.02Z" fill="#EAE6FF" fill-rule="evenodd"/><path d="M537.327 572.643 537.327 2224.74" stroke="#C1C7D0" stroke-width="3.4375" stroke-linejoin="round" stroke-miterlimit="10" fill="none" fill-rule="evenodd"/><path d="M878.742 394.334 878.742 2224.74" stroke="#C1C7D0" stroke-width="3.4375" stroke-linejoin="round" stroke-miterlimit="10" fill="none" fill-rule="evenodd"/><path d="M1244.73 394.334 1244.73 2224.74" stroke="#C1C7D0" stroke-width="3.4375" stroke-linejoin="round" stroke-miterlimit="10" fill="none" fill-rule="evenodd"/><path d="M1610.71 394.334 1610.71 2224.74" stroke="#C1C7D0" stroke-width="3.4375" stroke-linejoin="round" stroke-miterlimit="10" fill="none" fill-rule="evenodd"/><path d="M1976.69 394.334 1976.69 2224.74" stroke="#C1C7D0" stroke-width="3.4375" stroke-linejoin="round" stroke-miterlimit="10" fill="none" fill-rule="evenodd"/><path d="M2342.68 572.643 2342.68 2224.74" stroke="#C1C7D0" stroke-width="3.4375" stroke-linejoin="round" stroke-miterlimit="10" fill="none" fill-rule="evenodd"/><path d="M2708.66 394.334 2708.66 2224.74" stroke="#C1C7D0" stroke-width="3.4375" stroke-linejoin="round" stroke-miterlimit="10" fill="none" fill-rule="evenodd"/><path d="M3074.64 572.643 3074.64 2224.74" stroke="#C1C7D0" stroke-width="3.4375" stroke-linejoin="round" stroke-miterlimit="10" fill="none" fill-rule="evenodd"/><path d="M3440.62 394.334 3440.62 2224.74" stroke="#C1C7D0" stroke-width="3.4375" stroke-linejoin="round" stroke-miterlimit="10" fill="none" fill-rule="evenodd"/><path d="M3806.61 572.643 3806.61 2224.74" stroke="#C1C7D0" stroke-width="3.4375" stroke-linejoin="round" stroke-miterlimit="10" fill="none" fill-rule="evenodd"/><path d="M145.057 574.361 4174.31 574.361" stroke="#C1C7D0" stroke-width="3.4375" stroke-linejoin="round" stroke-miterlimit="10" fill="none" fill-rule="evenodd"/><path d="M145.057 675.67 4174.31 675.67" stroke="#C1C7D0" stroke-width="3.4375" stroke-linejoin="round" stroke-miterlimit="10" fill="none" fill-rule="evenodd"/><path d="M145.057 900.008 4174.31 900.008" stroke="#C1C7D0" stroke-width="3.4375" stroke-linejoin="round" stroke-miterlimit="10" fill="none" fill-rule="evenodd"/><path d="M145.057 1124.35 4174.31 1124.35" stroke="#C1C7D0" stroke-width="3.4375" stroke-linejoin="round" stroke-miterlimit="10" fill="none" fill-rule="evenodd"/><path d="M145.057 1348.68 4174.31 1348.68" stroke="#C1C7D0" stroke-width="3.4375" stroke-linejoin="round" stroke-miterlimit="10" fill="none" fill-rule="evenodd"/><path d="M145.057 1623.03 4174.31 1623.03" stroke="#C1C7D0" stroke-width="3.4375" stroke-linejoin="round" stroke-miterlimit="10" fill="none" fill-rule="evenodd"/><path d="M145.057 1724.34 4174.31 1724.34" stroke="#C1C7D0" stroke-width="3.4375" stroke-linejoin="round" stroke-miterlimit="10" fill="none" fill-rule="evenodd"/><path d="M145.057 1948.68 4174.31 1948.68" stroke="#C1C7D0" stroke-width="3.4375" stroke-linejoin="round" stroke-miterlimit="10" fill="none" fill-rule="evenodd"/><path d="M146.776 394.334 146.776 2224.74" stroke="#C1C7D0" stroke-width="3.4375" stroke-linejoin="round" stroke-miterlimit="10" fill="none" fill-rule="evenodd"/><path d="M4172.59 394.334 4172.59 2224.74" stroke="#C1C7D0" stroke-width="3.4375" stroke-linejoin="round" stroke-miterlimit="10" fill="none" fill-rule="evenodd"/><path d="M145.057 396.052 4174.31 396.052" stroke="#C1C7D0" stroke-width="3.4375" stroke-linejoin="round" stroke-miterlimit="10" fill="none" fill-rule="evenodd"/><path d="M145.057 2223.02 4174.31 2223.02" stroke="#C1C7D0" stroke-width="3.4375" stroke-linejoin="round" stroke-miterlimit="10" fill="none" fill-rule="evenodd"/><g clip-path="url(#clip1)"><text font-family="Calibri,Calibri_MSFontService,sans-serif" font-weight="400" font-size="64" transform="matrix(1 0 0 1 164.14 469)">Situation</text></g><g clip-path="url(#clip2)"><text font-family="Calibri,Calibri_MSFontService,sans-serif" font-weight="400" font-size="64" transform="matrix(1 0 0 1 896.106 469)">Prod</text></g><text font-family="Calibri,Calibri_MSFontService,sans-serif" font-weight="400" font-size="64" transform="matrix(1 0 0 1 1032.57 469)">Sup</text><g clip-path="url(#clip3)"><text font-family="Calibri,Calibri_MSFontService,sans-serif" font-weight="400" font-size="64" transform="matrix(1 0 0 1 896.106 546)">100%</text></g><g clip-path="url(#clip4)"><text font-family="Calibri,Calibri_MSFontService,sans-serif" font-weight="400" font-size="64" transform="matrix(1 0 0 1 1262.09 469)">Prod Sup </text></g><g clip-path="url(#clip5)"><text font-family="Calibri,Calibri_MSFontService,sans-serif" font-weight="400" font-size="64" transform="matrix(1 0 0 1 1262.09 546)">100%</text></g><g clip-path="url(#clip6)"><text font-family="Calibri,Calibri_MSFontService,sans-serif" font-weight="400" font-size="64" transform="matrix(1 0 0 1 1628.07 469)">Prod</text></g><text font-family="Calibri,Calibri_MSFontService,sans-serif" font-weight="400" font-size="64" transform="matrix(1 0 0 1 1764.54 469)">Sup</text><g clip-path="url(#clip7)"><text font-family="Calibri,Calibri_MSFontService,sans-serif" font-weight="400" font-size="64" transform="matrix(1 0 0 1 1628.07 546)">100%</text></g><g clip-path="url(#clip8)"><text font-family="Calibri,Calibri_MSFontService,sans-serif" font-weight="400" font-size="64" transform="matrix(1 0 0 1 1994.06 469)">Shortage</text></g><text font-family="Calibri,Calibri_MSFontService,sans-serif" font-weight="400" font-size="64" transform="matrix(1 0 0 1 2241.39 469)">Sup</text><text font-family="Calibri,Calibri_MSFontService,sans-serif" font-weight="400" font-size="64" transform="matrix(1 0 0 1 2352.54 469)">prod</text><text font-family="Calibri,Calibri_MSFontService,sans-serif" font-weight="400" font-size="64" transform="matrix(1 0 0 1 2489.58 469)">0%</text><g clip-path="url(#clip9)"><text font-family="Calibri,Calibri_MSFontService,sans-serif" font-weight="400" font-size="64" transform="matrix(1 0 0 1 2726.02 469)">Prod</text></g><text font-family="Calibri,Calibri_MSFontService,sans-serif" font-weight="400" font-size="64" transform="matrix(1 0 0 1 2862.49 469)">Sup</text><text font-family="Calibri,Calibri_MSFontService,sans-serif" font-weight="400" font-size="64" transform="matrix(1 0 0 1 2973.64 469)">100%</text><g clip-path="url(#clip10)"><text font-family="Calibri,Calibri_MSFontService,sans-serif" font-weight="400" font-size="64" transform="matrix(1 0 0 1 3457.99 469)">Prod</text></g><text font-family="Calibri,Calibri_MSFontService,sans-serif" font-weight="400" font-size="64" transform="matrix(1 0 0 1 3594.46 469)">Sup</text><text font-family="Calibri,Calibri_MSFontService,sans-serif" font-weight="400" font-size="64" transform="matrix(1 0 0 1 3705.6 469)">100%</text><g clip-path="url(#clip11)"><text font-family="Calibri,Calibri_MSFontService,sans-serif" font-weight="400" font-size="64" transform="matrix(1 0 0 1 164.14 648)">Customer</text></g><g clip-path="url(#clip12)"><text font-family="Calibri,Calibri_MSFontService,sans-serif" font-weight="400" font-size="64" transform="matrix(1 0 0 1 554.69 648)">Day 1</text></g><g clip-path="url(#clip13)"><text font-family="Calibri,Calibri_MSFontService,sans-serif" font-weight="400" font-size="64" transform="matrix(1 0 0 1 896.106 648)">Day 2</text></g><g clip-path="url(#clip14)"><text font-family="Calibri,Calibri_MSFontService,sans-serif" font-weight="400" font-size="64" transform="matrix(1 0 0 1 1262.09 648)">Day 3</text></g><g clip-path="url(#clip15)"><text font-family="Calibri,Calibri_MSFontService,sans-serif" font-weight="400" font-size="64" transform="matrix(1 0 0 1 1628.07 648)">Day 4</text></g><g clip-path="url(#clip16)"><text font-family="Calibri,Calibri_MSFontService,sans-serif" font-weight="700" font-size="64" transform="matrix(1 0 0 1 1994.06 648)">Day 5</text></g><text font-family="Calibri,Calibri_MSFontService,sans-serif" font-weight="700" font-size="64" transform="matrix(1 0 0 1 2156.74 648)">-</text><g clip-path="url(#clip17)"><text font-family="Calibri,Calibri_MSFontService,sans-serif" font-weight="700" font-size="64" transform="matrix(1 0 0 1 2190.54 648)">Plan</text></g><g clip-path="url(#clip18)"><text font-family="Calibri,Calibri_MSFontService,sans-serif" font-weight="700" font-size="64" transform="matrix(1 0 0 1 2360.04 648)">Day 5 </text></g><text font-family="Calibri,Calibri_MSFontService,sans-serif" font-weight="700" font-size="64" transform="matrix(1 0 0 1 2522.72 648)">-</text><text font-family="Calibri,Calibri_MSFontService,sans-serif" font-weight="700" font-size="64" transform="matrix(1 0 0 1 2556.53 648)">Is</text><g clip-path="url(#clip19)"><text font-family="Calibri,Calibri_MSFontService,sans-serif" font-weight="700" font-size="64" transform="matrix(1 0 0 1 2726.02 648)">Day 6 </text></g><text font-family="Calibri,Calibri_MSFontService,sans-serif" font-weight="700" font-size="64" transform="matrix(1 0 0 1 2888.71 648)">-</text><g clip-path="url(#clip20)"><text font-family="Calibri,Calibri_MSFontService,sans-serif" font-weight="700" font-size="64" transform="matrix(1 0 0 1 2922.51 648)">Plan</text></g><g clip-path="url(#clip21)"><text font-family="Calibri,Calibri_MSFontService,sans-serif" font-weight="700" font-size="64" transform="matrix(1 0 0 1 3092 648)">Day 6 </text></g><text font-family="Calibri,Calibri_MSFontService,sans-serif" font-weight="700" font-size="64" transform="matrix(1 0 0 1 3254.69 648)">-</text><text font-family="Calibri,Calibri_MSFontService,sans-serif" font-weight="700" font-size="64" transform="matrix(1 0 0 1 3288.49 648)">Is</text><g clip-path="url(#clip22)"><text font-family="Calibri,Calibri_MSFontService,sans-serif" font-weight="400" font-size="64" transform="matrix(1 0 0 1 3457.99 648)">Day 7 Plan</text></g><g clip-path="url(#clip23)"><text font-family="Calibri,Calibri_MSFontService,sans-serif" font-weight="400" font-size="64" transform="matrix(1 0 0 1 3823.97 648)">Day 7 Is</text></g><g clip-path="url(#clip24)"><text font-family="Calibri,Calibri_MSFontService,sans-serif" font-weight="400" font-size="64" transform="matrix(1 0 0 1 164.14 749)">Call off </text></g><g clip-path="url(#clip25)"><text font-family="Calibri,Calibri_MSFontService,sans-serif" font-weight="400" font-size="64" transform="matrix(1 0 0 1 554.69 749)">1200</text></g><g clip-path="url(#clip26)"><text font-family="Calibri,Calibri_MSFontService,sans-serif" font-weight="400" font-size="64" transform="matrix(1 0 0 1 896.106 749)">1000</text></g><g clip-path="url(#clip27)"><text font-family="Calibri,Calibri_MSFontService,sans-serif" font-weight="400" font-size="64" transform="matrix(1 0 0 1 1262.09 749)">1200</text></g><g clip-path="url(#clip28)"><text font-family="Calibri,Calibri_MSFontService,sans-serif" font-weight="400" font-size="64" transform="matrix(1 0 0 1 1628.07 749)">1000</text></g><g clip-path="url(#clip29)"><text font-family="Calibri,Calibri_MSFontService,sans-serif" font-weight="400" font-size="64" transform="matrix(1 0 0 1 1994.06 749)">1200</text></g><g clip-path="url(#clip30)"><text font-family="Calibri,Calibri_MSFontService,sans-serif" font-weight="400" font-size="64" transform="matrix(1 0 0 1 2360.04 749)">1200</text></g><g clip-path="url(#clip31)"><text font-family="Calibri,Calibri_MSFontService,sans-serif" font-weight="400" font-size="64" transform="matrix(1 0 0 1 2726.02 749)">1000</text></g><g clip-path="url(#clip32)"><text font-family="Calibri,Calibri_MSFontService,sans-serif" font-weight="400" font-size="64" transform="matrix(1 0 0 1 3092 749)">1000</text></g><g clip-path="url(#clip33)"><text font-family="Calibri,Calibri_MSFontService,sans-serif" font-weight="400" font-size="64" transform="matrix(1 0 0 1 3457.99 749)">1200</text></g><g clip-path="url(#clip34)"><text font-family="Calibri,Calibri_MSFontService,sans-serif" font-weight="400" font-size="64" transform="matrix(1 0 0 1 3823.97 749)">1200</text></g><g clip-path="url(#clip35)"><text font-family="Calibri,Calibri_MSFontService,sans-serif" font-weight="400" font-size="64" transform="matrix(1 0 0 1 164.14 973)">Delivery</text></g><g clip-path="url(#clip36)"><text font-family="Calibri,Calibri_MSFontService,sans-serif" font-weight="400" font-size="64" transform="matrix(1 0 0 1 554.69 973)">1200</text></g><g clip-path="url(#clip37)"><text font-family="Calibri,Calibri_MSFontService,sans-serif" font-weight="400" font-size="64" transform="matrix(1 0 0 1 896.106 973)">1000</text></g><g clip-path="url(#clip38)"><text font-family="Calibri,Calibri_MSFontService,sans-serif" font-weight="400" font-size="64" transform="matrix(1 0 0 1 1262.09 973)">1200</text></g><g clip-path="url(#clip39)"><text font-family="Calibri,Calibri_MSFontService,sans-serif" font-weight="400" font-size="64" transform="matrix(1 0 0 1 1628.07 973)">1000</text></g><g clip-path="url(#clip40)"><text font-family="Calibri,Calibri_MSFontService,sans-serif" font-weight="400" font-size="64" transform="matrix(1 0 0 1 1994.06 973)">1200</text></g><g clip-path="url(#clip41)"><text font-family="Calibri,Calibri_MSFontService,sans-serif" font-weight="400" font-size="64" transform="matrix(1 0 0 1 2360.04 973)">1200</text></g><g clip-path="url(#clip42)"><text font-family="Calibri,Calibri_MSFontService,sans-serif" font-weight="400" font-size="64" transform="matrix(1 0 0 1 2726.02 973)">1000</text></g><g clip-path="url(#clip43)"><text font-family="Calibri,Calibri_MSFontService,sans-serif" font-weight="400" font-size="64" transform="matrix(1 0 0 1 3092 973)">400**</text></g><g clip-path="url(#clip44)"><text font-family="Calibri,Calibri_MSFontService,sans-serif" font-weight="400" font-size="64" transform="matrix(1 0 0 1 3457.99 973)">1200</text></g><g clip-path="url(#clip45)"><text font-family="Calibri,Calibri_MSFontService,sans-serif" font-weight="400" font-size="64" transform="matrix(1 0 0 1 3823.97 973)">1200</text></g><g clip-path="url(#clip46)"><text font-family="Calibri,Calibri_MSFontService,sans-serif" font-weight="400" font-size="64" transform="matrix(1 0 0 1 164.14 1198)">Consumption</text></g><g clip-path="url(#clip47)"><text font-family="Calibri,Calibri_MSFontService,sans-serif" font-weight="400" font-size="64" transform="matrix(1 0 0 1 554.69 1198)">1000</text></g><g clip-path="url(#clip48)"><text font-family="Calibri,Calibri_MSFontService,sans-serif" font-weight="400" font-size="64" transform="matrix(1 0 0 1 896.106 1198)">1000</text></g><g clip-path="url(#clip49)"><text font-family="Calibri,Calibri_MSFontService,sans-serif" font-weight="400" font-size="64" transform="matrix(1 0 0 1 1262.09 1198)">1000</text></g><g clip-path="url(#clip50)"><text font-family="Calibri,Calibri_MSFontService,sans-serif" font-weight="400" font-size="64" transform="matrix(1 0 0 1 1628.07 1198)">1000</text></g><g clip-path="url(#clip51)"><text font-family="Calibri,Calibri_MSFontService,sans-serif" font-weight="400" font-size="64" transform="matrix(1 0 0 1 1994.06 1198)">1000</text></g><g clip-path="url(#clip52)"><text font-family="Calibri,Calibri_MSFontService,sans-serif" font-weight="400" font-size="64" transform="matrix(1 0 0 1 2360.04 1198)">1000</text></g><g clip-path="url(#clip53)"><text font-family="Calibri,Calibri_MSFontService,sans-serif" font-weight="400" font-size="64" transform="matrix(1 0 0 1 2726.02 1198)">1000</text></g><g clip-path="url(#clip54)"><text font-family="Calibri,Calibri_MSFontService,sans-serif" font-weight="400" font-size="64" transform="matrix(1 0 0 1 3092 1198)">1000</text></g><g clip-path="url(#clip55)"><text font-family="Calibri,Calibri_MSFontService,sans-serif" font-weight="400" font-size="64" transform="matrix(1 0 0 1 3457.99 1198)">1000</text></g><g clip-path="url(#clip56)"><text font-family="Calibri,Calibri_MSFontService,sans-serif" font-weight="400" font-size="64" transform="matrix(1 0 0 1 3823.97 1198)">1000</text></g><g clip-path="url(#clip57)"><text font-family="Calibri,Calibri_MSFontService,sans-serif" font-weight="400" font-size="64" transform="matrix(1 0 0 1 164.14 1422)">Item Stock</text></g><g clip-path="url(#clip58)"><text font-family="Calibri,Calibri_MSFontService,sans-serif" font-weight="400" font-size="64" transform="matrix(1 0 0 1 554.69 1422)">200</text></g><g clip-path="url(#clip59)"><text font-family="Calibri,Calibri_MSFontService,sans-serif" font-weight="400" font-size="64" transform="matrix(1 0 0 1 896.106 1422)">200</text></g><g clip-path="url(#clip60)"><text font-family="Calibri,Calibri_MSFontService,sans-serif" font-weight="400" font-size="64" transform="matrix(1 0 0 1 1262.09 1422)">400</text></g><g clip-path="url(#clip61)"><text font-family="Calibri,Calibri_MSFontService,sans-serif" font-weight="400" font-size="64" transform="matrix(1 0 0 1 1628.07 1422)">400</text></g><g clip-path="url(#clip62)"><text font-family="Calibri,Calibri_MSFontService,sans-serif" font-weight="400" font-size="64" transform="matrix(1 0 0 1 1994.06 1422)">600</text></g><g clip-path="url(#clip63)"><text font-family="Calibri,Calibri_MSFontService,sans-serif" font-weight="400" font-size="64" transform="matrix(1 0 0 1 2360.04 1422)">600</text></g><g clip-path="url(#clip64)"><text font-family="Calibri,Calibri_MSFontService,sans-serif" font-weight="400" font-size="64" transform="matrix(1 0 0 1 2726.02 1422)">600</text></g><g clip-path="url(#clip65)"><text font-family="Calibri,Calibri_MSFontService,sans-serif" font-weight="400" font-size="64" transform="matrix(1 0 0 1 3092 1422)">0</text></g><g clip-path="url(#clip66)"><text font-family="Calibri,Calibri_MSFontService,sans-serif" font-weight="400" font-size="64" transform="matrix(1 0 0 1 3457.99 1422)">800</text></g><g clip-path="url(#clip67)"><text font-family="Calibri,Calibri_MSFontService,sans-serif" font-weight="400" font-size="64" transform="matrix(1 0 0 1 3823.97 1422)">200</text></g><g clip-path="url(#clip68)"><text font-family="Calibri,Calibri_MSFontService,sans-serif" font-weight="400" font-size="64" transform="matrix(1 0 0 1 164.14 1696)">Supplier</text></g><g clip-path="url(#clip69)"><text font-family="Calibri,Calibri_MSFontService,sans-serif" font-weight="400" font-size="64" transform="matrix(1 0 0 1 164.14 1797)">Production</text></g><g clip-path="url(#clip70)"><text font-family="Calibri,Calibri_MSFontService,sans-serif" font-weight="400" font-size="64" transform="matrix(1 0 0 1 164.14 1874)">Output</text></g><g clip-path="url(#clip71)"><text font-family="Calibri,Calibri_MSFontService,sans-serif" font-weight="400" font-size="64" transform="matrix(1 0 0 1 554.69 1797)">1200</text></g><g clip-path="url(#clip72)"><text font-family="Calibri,Calibri_MSFontService,sans-serif" font-weight="400" font-size="64" transform="matrix(1 0 0 1 896.106 1797)">1200</text></g><g clip-path="url(#clip73)"><text font-family="Calibri,Calibri_MSFontService,sans-serif" font-weight="400" font-size="64" transform="matrix(1 0 0 1 1262.09 1797)">1200</text></g><g clip-path="url(#clip74)"><text font-family="Calibri,Calibri_MSFontService,sans-serif" font-weight="400" font-size="64" transform="matrix(1 0 0 1 1628.07 1797)">1200</text></g><g clip-path="url(#clip75)"><text font-family="Calibri,Calibri_MSFontService,sans-serif" font-weight="400" font-size="64" transform="matrix(1 0 0 1 1994.06 1797)">1200</text></g><g clip-path="url(#clip76)"><text font-family="Calibri,Calibri_MSFontService,sans-serif" font-weight="400" font-size="64" transform="matrix(1 0 0 1 2360.04 1797)">0</text></g><g clip-path="url(#clip77)"><text font-family="Calibri,Calibri_MSFontService,sans-serif" font-weight="400" font-size="64" transform="matrix(1 0 0 1 2726.02 1797)">1200</text></g><g clip-path="url(#clip78)"><text font-family="Calibri,Calibri_MSFontService,sans-serif" font-weight="400" font-size="64" transform="matrix(1 0 0 1 3092 1797)">1200</text></g><g clip-path="url(#clip79)"><text font-family="Calibri,Calibri_MSFontService,sans-serif" font-weight="400" font-size="64" transform="matrix(1 0 0 1 3457.99 1797)">1200</text></g><g clip-path="url(#clip80)"><text font-family="Calibri,Calibri_MSFontService,sans-serif" font-weight="400" font-size="64" transform="matrix(1 0 0 1 3823.97 1797)">1200</text></g><g clip-path="url(#clip81)"><text font-family="Calibri,Calibri_MSFontService,sans-serif" font-weight="400" font-size="64" transform="matrix(1 0 0 1 164.14 2022)">Item Stock </text></g><g clip-path="url(#clip82)"><text font-family="Calibri,Calibri_MSFontService,sans-serif" font-weight="400" font-size="64" transform="matrix(1 0 0 1 554.69 2022)">0</text></g><g clip-path="url(#clip83)"><text font-family="Calibri,Calibri_MSFontService,sans-serif" font-weight="400" font-size="64" transform="matrix(1 0 0 1 896.106 2022)">200</text></g><g clip-path="url(#clip84)"><text font-family="Calibri,Calibri_MSFontService,sans-serif" font-weight="400" font-size="64" transform="matrix(1 0 0 1 1262.09 2022)">200</text></g><g clip-path="url(#clip85)"><text font-family="Calibri,Calibri_MSFontService,sans-serif" font-weight="400" font-size="64" transform="matrix(1 0 0 1 1628.07 2022)">400</text></g><g clip-path="url(#clip86)"><text font-family="Calibri,Calibri_MSFontService,sans-serif" font-weight="400" font-size="64" transform="matrix(1 0 0 1 1994.06 2022)">400</text></g><g clip-path="url(#clip87)"><text font-family="Calibri,Calibri_MSFontService,sans-serif" font-weight="400" font-size="64" transform="matrix(1 0 0 1 2360.04 2022)">400</text></g><g clip-path="url(#clip88)"><text font-family="Calibri,Calibri_MSFontService,sans-serif" font-weight="400" font-size="64" transform="matrix(1 0 0 1 2726.02 2022)">400</text></g><g clip-path="url(#clip89)"><text font-family="Calibri,Calibri_MSFontService,sans-serif" font-weight="400" font-size="64" transform="matrix(1 0 0 1 3092 2022)">0</text></g><g clip-path="url(#clip90)"><text font-family="Calibri,Calibri_MSFontService,sans-serif" font-weight="400" font-size="64" transform="matrix(1 0 0 1 3457.99 2022)">600</text></g><g clip-path="url(#clip91)"><text font-family="Calibri,Calibri_MSFontService,sans-serif" font-weight="400" font-size="64" transform="matrix(1 0 0 1 3823.97 2022)">0</text></g><path d="M2159.68 70.1773 4172.59 70.1773 4172.59 233.115 2159.68 233.115Z" fill="#FFBDAD" fill-rule="evenodd"/><path d="M2159.68 233.115 4172.59 233.115 4172.59 396.052 2159.68 396.052Z" fill="#EAE6FF" fill-rule="evenodd"/><path d="M2157.96 233.115 4174.31 233.115" stroke="#C1C7D0" stroke-width="3.4375" stroke-linejoin="round" stroke-miterlimit="10" fill="none" fill-rule="evenodd"/><path d="M2159.68 68.4588 2159.68 397.771" stroke="#C1C7D0" stroke-width="3.4375" stroke-linejoin="round" stroke-miterlimit="10" fill="none" fill-rule="evenodd"/><path d="M4172.59 68.4588 4172.59 397.771" stroke="#C1C7D0" stroke-width="3.4375" stroke-linejoin="round" stroke-miterlimit="10" fill="none" fill-rule="evenodd"/><path d="M2157.96 70.1773 4174.31 70.1773" stroke="#C1C7D0" stroke-width="3.4375" stroke-linejoin="round" stroke-miterlimit="10" fill="none" fill-rule="evenodd"/><path d="M2157.96 396.052 4174.31 396.052" stroke="#C1C7D0" stroke-width="3.4375" stroke-linejoin="round" stroke-miterlimit="10" fill="none" fill-rule="evenodd"/><text font-family="Calibri,Calibri_MSFontService,sans-serif" font-weight="700" font-size="55" transform="matrix(1 0 0 1 2194.06 146)">**Shortage situation Delivery quantity remained below plan</text><text font-family="Calibri,Calibri_MSFontService,sans-serif" font-weight="700" font-size="55" transform="matrix(1 0 0 1 2194.06 309)">Transferable information from item stock per day</text><path d="M672.854 1736.33 673.042 1705.07 673.73 1673.93 674.793 1642.86 676.231 1611.97 678.044 1581.33 680.233 1551 682.797 1521.05 685.735 1491.47 688.925 1462.46 692.489 1433.94 696.303 1406.05 700.431 1378.85 704.871 1352.33 709.562 1326.69 714.44 1301.86 719.57 1277.9 724.949 1254.94 730.518 1233.05 736.274 1212.21 742.22 1192.55 748.355 1174.09 754.618 1156.93 761.009 1141.14 767.527 1126.66 770.856 1120 774.183 1113.72 777.574 1107.76 780.908 1102.22 784.372 1097.06 787.774 1092.33 791.248 1087.98 794.728 1084.05 798.221 1080.56 801.784 1077.51 805.296 1074.89 808.897 1072.7 812.511 1071.02 816.132 1069.79 819.776 1069.01 823.371 1068.76 837.387 1068.13 837.299 1068.14 851.174 1066.45 851.081 1066.47 864.706 1063.65 864.624 1063.67 877.999 1059.86 877.921 1059.89 890.796 1055.2 890.716 1055.23 903.028 1049.67 902.956 1049.71 914.643 1043.39 914.57 1043.44 925.507 1036.44 925.437 1036.49 935.499 1028.92 935.419 1028.99 944.482 1020.8 944.41 1020.87 952.347 1012.31 952.274 1012.4 959.086 1003.4 959.012 1003.51 964.45 994.258 964.343 994.5 966.373 987.949 968.562 988.628 966.493 995.305 960.954 1004.73 954.067 1013.83 946.056 1022.47 936.917 1030.72 926.779 1038.34 915.77 1045.39 904.009 1051.74 891.62 1057.34 878.666 1062.05 865.211 1065.89 851.498 1068.72 837.532 1070.42 823.489 1071.05 823.519 1071.04 820.019 1071.29 820.178 1071.27 816.678 1072.02 816.806 1071.99 813.306 1073.17 813.42 1073.13 809.92 1074.75 810.032 1074.69 806.532 1076.82 806.622 1076.76 803.185 1079.32 803.246 1079.27 799.746 1082.27 799.81 1082.21 796.373 1085.65 796.42 1085.6 792.982 1089.47 793.021 1089.43 789.584 1093.74 789.617 1093.7 786.242 1098.38 786.264 1098.35 782.827 1103.48 782.857 1103.43 779.544 1108.93 779.559 1108.91 776.184 1114.84 776.2 1114.81 772.888 1121.06 772.9 1121.04 769.587 1127.66 769.607 1127.62 763.107 1142.06 763.125 1142.02 756.75 1157.77 756.764 1157.73 750.514 1174.86 750.525 1174.83 744.4 1193.26 744.409 1193.23 738.472 1212.86 738.48 1212.83 732.73 1233.64 732.736 1233.62 727.173 1255.5 727.178 1255.48 721.803 1278.41 721.808 1278.39 716.683 1302.33 716.687 1302.31 711.812 1327.12 711.815 1327.11 707.127 1352.73 707.13 1352.72 702.693 1379.22 702.695 1379.2 698.57 1406.39 698.573 1406.37 694.76 1434.24 694.762 1434.23 691.2 1462.73 691.202 1462.71 688.014 1491.71 688.015 1491.7 685.078 1521.26 685.079 1521.25 682.517 1551.19 682.518 1551.17 680.331 1581.48 680.331 1581.47 678.519 1612.09 678.52 1612.08 677.082 1642.95 677.083 1642.94 676.02 1674 676.021 1673.99 675.333 1705.11 675.333 1705.1 675.146 1736.35ZM953.028 989.549 972.796 966 979.774 995.944Z" fill="#4472C4"/><path d="M1002.85 1741.33 1003.04 1710.07 1003.73 1678.93 1004.79 1647.86 1006.23 1616.97 1008.04 1586.33 1010.23 1556 1012.8 1526.05 1015.74 1496.47 1018.92 1467.46 1022.49 1438.94 1026.3 1411.05 1030.43 1383.85 1034.87 1357.33 1039.56 1331.69 1044.44 1306.86 1049.57 1282.9 1054.95 1259.94 1060.52 1238.05 1066.27 1217.21 1072.22 1197.55 1078.36 1179.09 1084.62 1161.93 1091.01 1146.14 1097.53 1131.66 1100.86 1125 1104.18 1118.72 1107.57 1112.76 1110.91 1107.22 1114.37 1102.06 1117.77 1097.33 1121.25 1092.98 1124.73 1089.05 1128.22 1085.56 1131.78 1082.51 1135.3 1079.89 1138.9 1077.7 1142.51 1076.02 1146.13 1074.8 1149.78 1074.01 1153.37 1073.76 1167.39 1073.13 1167.3 1073.14 1181.17 1071.45 1181.08 1071.47 1194.71 1068.65 1194.62 1068.67 1208 1064.86 1207.92 1064.89 1220.8 1060.2 1220.72 1060.23 1233.03 1054.67 1232.96 1054.71 1244.64 1048.39 1244.57 1048.44 1255.51 1041.44 1255.44 1041.49 1265.5 1033.92 1265.42 1033.99 1274.48 1025.8 1274.41 1025.87 1282.35 1017.31 1282.27 1017.4 1289.09 1008.4 1289.01 1008.51 1294.45 999.258 1294.34 999.5 1296.37 992.949 1298.56 993.628 1296.49 1000.31 1290.95 1009.73 1284.07 1018.83 1276.06 1027.47 1266.92 1035.72 1256.78 1043.34 1245.77 1050.39 1234.01 1056.74 1221.62 1062.34 1208.67 1067.05 1195.21 1070.89 1181.5 1073.72 1167.53 1075.42 1153.49 1076.05 1153.52 1076.04 1150.02 1076.29 1150.18 1076.27 1146.68 1077.02 1146.81 1076.99 1143.31 1078.17 1143.42 1078.13 1139.92 1079.75 1140.03 1079.69 1136.53 1081.82 1136.62 1081.76 1133.18 1084.32 1133.25 1084.27 1129.75 1087.27 1129.81 1087.21 1126.37 1090.65 1126.42 1090.6 1122.98 1094.47 1123.02 1094.43 1119.58 1098.74 1119.62 1098.7 1116.24 1103.38 1116.26 1103.35 1112.83 1108.48 1112.86 1108.43 1109.54 1113.93 1109.56 1113.91 1106.18 1119.84 1106.2 1119.81 1102.89 1126.06 1102.9 1126.04 1099.59 1132.66 1099.61 1132.62 1093.11 1147.06 1093.12 1147.02 1086.75 1162.77 1086.76 1162.73 1080.51 1179.86 1080.53 1179.83 1074.4 1198.26 1074.41 1198.23 1068.47 1217.86 1068.48 1217.83 1062.73 1238.64 1062.74 1238.62 1057.17 1260.5 1057.18 1260.48 1051.8 1283.41 1051.81 1283.39 1046.68 1307.33 1046.69 1307.31 1041.81 1332.12 1041.81 1332.11 1037.13 1357.73 1037.13 1357.72 1032.69 1384.22 1032.7 1384.2 1028.57 1411.39 1028.57 1411.37 1024.76 1439.24 1024.76 1439.23 1021.2 1467.73 1021.2 1467.71 1018.01 1496.71 1018.02 1496.7 1015.08 1526.26 1015.08 1526.25 1012.52 1556.19 1012.52 1556.17 1010.33 1586.48 1010.33 1586.47 1008.52 1617.09 1008.52 1617.08 1007.08 1647.95 1007.08 1647.94 1006.02 1679 1006.02 1678.99 1005.33 1710.11 1005.33 1710.1 1005.15 1741.35ZM1283.03 994.549 1302.8 971 1309.77 1000.94Z" fill="#4472C4"/><path d="M1348.85 1741.33 1349.04 1710.07 1349.73 1678.93 1350.79 1647.86 1352.23 1616.97 1354.04 1586.33 1356.23 1556 1358.8 1526.05 1361.74 1496.47 1364.92 1467.46 1368.49 1438.94 1372.3 1411.05 1376.43 1383.85 1380.87 1357.33 1385.56 1331.69 1390.44 1306.86 1395.57 1282.9 1400.95 1259.94 1406.52 1238.05 1412.27 1217.21 1418.22 1197.55 1424.36 1179.09 1430.62 1161.93 1437.01 1146.14 1443.53 1131.66 1446.86 1125 1450.18 1118.72 1453.57 1112.76 1456.91 1107.22 1460.37 1102.06 1463.77 1097.33 1467.25 1092.98 1470.73 1089.05 1474.22 1085.56 1477.78 1082.51 1481.3 1079.89 1484.9 1077.7 1488.51 1076.02 1492.13 1074.8 1495.78 1074.01 1499.37 1073.76 1513.39 1073.13 1513.3 1073.14 1527.17 1071.45 1527.08 1071.47 1540.71 1068.65 1540.62 1068.67 1554 1064.86 1553.92 1064.89 1566.8 1060.2 1566.72 1060.23 1579.03 1054.67 1578.96 1054.71 1590.64 1048.39 1590.57 1048.44 1601.51 1041.44 1601.44 1041.49 1611.5 1033.92 1611.42 1033.99 1620.48 1025.8 1620.41 1025.87 1628.35 1017.31 1628.27 1017.4 1635.09 1008.4 1635.01 1008.51 1640.45 999.258 1640.34 999.5 1642.37 992.949 1644.56 993.628 1642.49 1000.31 1636.95 1009.73 1630.07 1018.83 1622.06 1027.47 1612.92 1035.72 1602.78 1043.34 1591.77 1050.39 1580.01 1056.74 1567.62 1062.34 1554.67 1067.05 1541.21 1070.89 1527.5 1073.72 1513.53 1075.42 1499.49 1076.05 1499.52 1076.04 1496.02 1076.29 1496.18 1076.27 1492.68 1077.02 1492.81 1076.99 1489.31 1078.17 1489.42 1078.13 1485.92 1079.75 1486.03 1079.69 1482.53 1081.82 1482.62 1081.76 1479.18 1084.32 1479.25 1084.27 1475.75 1087.27 1475.81 1087.21 1472.37 1090.65 1472.42 1090.6 1468.98 1094.47 1469.02 1094.43 1465.58 1098.74 1465.62 1098.7 1462.24 1103.38 1462.26 1103.35 1458.83 1108.48 1458.86 1108.43 1455.54 1113.93 1455.56 1113.91 1452.18 1119.84 1452.2 1119.81 1448.89 1126.06 1448.9 1126.04 1445.59 1132.66 1445.61 1132.62 1439.11 1147.06 1439.12 1147.02 1432.75 1162.77 1432.76 1162.73 1426.51 1179.86 1426.52 1179.83 1420.4 1198.26 1420.41 1198.23 1414.47 1217.86 1414.48 1217.83 1408.73 1238.64 1408.74 1238.62 1403.17 1260.5 1403.18 1260.48 1397.8 1283.41 1397.81 1283.39 1392.68 1307.33 1392.69 1307.31 1387.81 1332.12 1387.81 1332.11 1383.13 1357.73 1383.13 1357.72 1378.69 1384.22 1378.7 1384.2 1374.57 1411.39 1374.57 1411.37 1370.76 1439.24 1370.76 1439.23 1367.2 1467.73 1367.2 1467.71 1364.01 1496.71 1364.02 1496.7 1361.08 1526.26 1361.08 1526.25 1358.52 1556.19 1358.52 1556.17 1356.33 1586.48 1356.33 1586.47 1354.52 1617.09 1354.52 1617.08 1353.08 1647.95 1353.08 1647.94 1352.02 1679 1352.02 1678.99 1351.33 1710.11 1351.33 1710.1 1351.15 1741.35ZM1629.03 994.549 1648.8 971 1655.77 1000.94Z" fill="#4472C4"/><path d="M1742.85 1743.48 1743.35 1709.72 1744.79 1676 1747.11 1642.47 1750.36 1609.06 1754.43 1575.97 1759.31 1543.19 1765 1510.79 1771.5 1478.88 1778.64 1447.48 1786.58 1416.7 1795.15 1386.55 1804.35 1357.14 1814.17 1328.49 1824.56 1300.71 1835.51 1273.86 1846.96 1248.02 1858.91 1223.24 1871.31 1199.51 1884.14 1177.04 1897.42 1155.75 1911.01 1135.83 1924.97 1117.3 1932.06 1108.52 1939.2 1100.18 1946.47 1092.16 1953.75 1084.57 1961.15 1077.36 1968.55 1070.58 1976.02 1064.18 1983.55 1058.21 1991.15 1052.63 1998.76 1047.53 2006.43 1042.88 2014.16 1038.67 2021.9 1034.89 2029.71 1031.62 2037.46 1028.85 2045.33 1026.52 2053.15 1024.69 2061.04 1023.43 2068.86 1022.61 2076.73 1022.36 2107.86 1022.04 2107.84 1022.04 2138.78 1021.17 2138.76 1021.17 2169.2 1019.73 2169.18 1019.73 2198.87 1017.86 2198.84 1017.86 2227.53 1015.48 2227.51 1015.49 2255.01 1012.67 2254.99 1012.68 2268.24 1011.11 2268.23 1011.11 2281.04 1009.49 2281.03 1009.49 2293.4 1007.74 2293.39 1007.74 2305.33 1005.93 2305.31 1005.93 2316.75 1004.06 2316.74 1004.06 2327.68 1002.12 2327.66 1002.13 2338.03 1000.13 2338.01 1000.13 2347.82 998.006 2347.8 998.009 2356.99 995.884 2356.97 995.891 2365.53 993.703 2365.5 993.711 2373.44 991.461 2373.4 991.474 2380.52 989.161 2380.49 989.171 2386.99 986.859 2386.69 987.017 2390.67 984.074 2392.03 985.916 2387.92 988.961 2381.24 991.336 2374.08 993.66 2366.11 995.92 2357.52 998.114 2348.31 1000.24 2338.48 1002.37 2328.08 1004.38 2317.13 1006.32 2305.68 1008.2 2293.73 1010.01 2281.34 1011.76 2268.51 1013.39 2255.25 1014.95 2227.73 1017.77 2199.02 1020.14 2169.31 1022.02 2138.86 1023.46 2107.9 1024.33 2076.76 1024.65 2076.79 1024.65 2068.97 1024.9 2069.06 1024.89 2061.31 1025.7 2061.37 1025.69 2053.56 1026.94 2053.64 1026.93 2045.89 1028.74 2045.95 1028.72 2038.14 1031.04 2038.2 1031.02 2030.51 1033.77 2030.57 1033.75 2022.82 1037 2022.88 1036.97 2015.19 1040.72 2015.24 1040.69 2007.55 1044.88 2007.59 1044.86 1999.97 1049.48 2000.01 1049.45 1992.45 1054.52 1992.49 1054.49 1984.93 1060.05 1984.96 1060.02 1977.46 1065.96 1977.5 1065.93 1970.06 1072.31 1970.09 1072.28 1962.71 1079.03 1962.74 1079.01 1955.36 1086.2 1955.39 1086.17 1948.14 1093.73 1948.16 1093.71 1940.91 1101.71 1940.93 1101.68 1933.81 1110 1933.83 1109.97 1926.77 1118.72 1926.79 1118.69 1912.85 1137.19 1912.88 1137.15 1899.32 1157.02 1899.35 1156.98 1886.1 1178.23 1886.12 1178.19 1873.31 1200.63 1873.33 1200.59 1860.95 1224.28 1860.97 1224.25 1849.03 1249 1849.05 1248.97 1837.61 1274.78 1837.62 1274.75 1826.69 1301.56 1826.7 1301.53 1816.32 1329.28 1816.33 1329.25 1806.52 1357.87 1806.53 1357.84 1797.34 1387.22 1797.35 1387.19 1788.79 1417.31 1788.8 1417.29 1780.86 1448.04 1780.87 1448 1773.74 1479.38 1773.75 1479.35 1767.25 1511.23 1767.25 1511.2 1761.57 1543.57 1761.57 1543.54 1756.7 1576.29 1756.7 1576.27 1752.64 1609.33 1752.64 1609.3 1749.39 1642.67 1749.39 1642.64 1747.08 1676.14 1747.08 1676.11 1745.64 1709.8 1745.65 1709.77 1745.15 1743.52ZM2379.32 976.905 2409.5 971 2396.12 998.682Z" fill="#4472C4"/><path d="M2408.85 1966.14 2409.35 1923.13 2410.92 1880.16 2413.48 1837.39 2416.98 1794.86 2421.36 1752.71 2426.68 1710.93 2432.87 1669.66 2439.87 1629.01 2447.69 1588.99 2456.2 1549.77 2465.51 1511.37 2475.46 1473.91 2486.09 1437.38 2497.41 1402.04 2509.24 1367.83 2521.68 1334.86 2534.63 1303.27 2541.27 1288 2548.09 1273.11 2554.97 1258.53 2561.98 1244.45 2569.11 1230.68 2576.31 1217.35 2583.63 1204.45 2591.08 1191.93 2598.6 1179.91 2606.17 1168.33 2613.88 1157.18 2621.65 1146.53 2629.48 1136.32 2637.44 1126.67 2645.4 1117.45 2653.42 1108.8 2661.58 1100.64 2669.74 1093.05 2677.96 1086.02 2686.19 1079.49 2694.54 1073.52 2702.84 1068.17 2711.28 1063.39 2719.71 1059.24 2728.15 1055.65 2736.66 1052.75 2745.11 1050.41 2753.7 1048.77 2762.22 1047.76 2770.72 1047.45 2804.48 1046.95 2804.46 1046.95 2838.02 1045.63 2837.99 1045.64 2870.93 1043.57 2870.9 1043.58 2903.09 1040.7 2903.06 1040.7 2934.25 1037.2 2934.22 1037.21 2949.29 1035.21 2949.27 1035.21 2964.02 1033.08 2964.01 1033.08 2978.32 1030.83 2978.3 1030.84 2992.18 1028.4 2992.16 1028.4 3005.6 1025.84 3005.58 1025.84 3018.52 1023.16 3018.5 1023.16 3030.94 1020.41 3030.92 1020.42 3042.73 1017.54 3042.71 1017.55 3054.02 1014.55 3054 1014.55 3064.62 1011.49 3064.59 1011.5 3074.53 1008.31 3074.5 1008.32 3083.81 1005.07 3083.77 1005.09 3092.27 1001.77 3092.23 1001.79 3100.05 998.415 3100 998.438 3107 995.001 3106.94 995.032 3113.12 991.532 3112.82 991.78 3116.11 987.982 3117.84 989.481 3114.42 993.429 3108.04 997.043 3100.98 1000.51 3093.12 1003.9 3084.58 1007.23 3075.24 1010.49 3065.27 1013.69 3054.62 1016.76 3043.28 1019.76 3031.45 1022.65 3018.99 1025.4 3006.04 1028.09 2992.58 1030.66 2978.69 1033.1 2964.36 1035.35 2949.59 1037.48 2934.51 1039.48 2903.3 1042.98 2871.09 1045.86 2838.12 1047.92 2804.53 1049.24 2770.77 1049.74 2770.79 1049.74 2762.36 1050.05 2762.45 1050.04 2754.01 1051.04 2754.09 1051.03 2745.59 1052.65 2745.68 1052.63 2737.31 1054.95 2737.37 1054.93 2728.93 1057.8 2729.01 1057.77 2720.64 1061.33 2720.69 1061.31 2712.32 1065.43 2712.38 1065.4 2704 1070.15 2704.06 1070.12 2695.81 1075.43 2695.85 1075.4 2687.54 1081.34 2687.59 1081.3 2679.4 1087.8 2679.43 1087.78 2671.24 1094.78 2671.28 1094.74 2663.16 1102.31 2663.19 1102.28 2655.06 1110.4 2655.09 1110.37 2647.09 1119 2647.12 1118.97 2639.18 1128.15 2639.2 1128.13 2631.26 1137.76 2631.28 1137.73 2623.47 1147.91 2623.49 1147.89 2615.74 1158.52 2615.76 1158.49 2608.07 1169.62 2608.08 1169.59 2600.52 1181.16 2600.53 1181.14 2593.03 1193.14 2593.05 1193.12 2585.61 1205.62 2585.62 1205.6 2578.31 1218.47 2578.32 1218.45 2571.13 1231.76 2571.14 1231.74 2564.02 1245.49 2564.03 1245.48 2557.03 1259.54 2557.04 1259.52 2550.16 1274.08 2550.17 1274.07 2543.35 1288.94 2543.36 1288.92 2536.74 1304.17 2536.75 1304.15 2523.81 1335.71 2523.82 1335.68 2511.38 1368.62 2511.4 1368.59 2499.58 1402.78 2499.59 1402.75 2488.28 1438.07 2488.29 1438.04 2477.66 1474.54 2477.67 1474.51 2467.73 1511.95 2467.74 1511.92 2458.43 1550.3 2458.43 1550.27 2449.93 1589.46 2449.94 1589.44 2442.12 1629.44 2442.13 1629.41 2435.13 1670.04 2435.13 1670.01 2428.95 1711.26 2428.95 1711.24 2423.64 1752.99 2423.64 1752.96 2419.26 1795.09 2419.27 1795.06 2415.77 1837.56 2415.77 1837.54 2413.21 1880.29 2413.21 1880.26 2411.65 1923.2 2411.65 1923.17 2411.15 1966.17ZM3103.43 983.567 3131.49 971 3124.71 1000.99Z" fill="#4472C4"/><path d="M0.0277543-1.1455 28.4282-0.457381 56.6659 1.48357 84.4643 4.61402 111.575 8.80903 137.813 14.069 162.919 20.2675 175.014 23.7142 186.728 27.3472 198.066 31.1683 208.971 35.1168 219.44 39.317 229.471 43.6427 238.945 48.0973 247.921 52.7425 256.333 57.5135 264.188 62.3519 271.425 67.3234 278.04 72.4263 283.973 77.6019 289.221 82.9138 293.72 88.2359 297.536 93.6429 300.539 99.1377 302.72 104.653 304.072 110.256 304.517 115.783 304.955 121.221 304.926 121.044 306.239 126.481 306.191 126.329 308.316 131.704 308.255 131.576 311.193 136.951 311.129 136.847 314.816 142.159 314.745 142.067 319.245 147.317 319.19 147.257 324.378 152.507 324.316 152.449 330.191 157.574 330.137 157.53 336.7 162.593 336.649 162.556 343.836 167.493 343.788 167.462 351.601 172.274 351.565 172.253 359.94 177.003 359.902 176.982 368.839 181.607 368.8 181.588 378.238 186.026 378.204 186.01 388.204 190.323 388.177 190.312 398.614 194.499 398.578 194.485 409.453 198.423 409.428 198.414 420.741 202.227 420.714 202.218 432.402 205.843 432.376 205.836 444.439 209.273 444.4 209.263 469.462 215.45 469.413 215.439 495.6 220.689 495.55 220.68 522.613 224.868 522.566 224.861 550.254 227.986 550.204 227.982 578.391 229.919 578.34 229.917 583.809 230.048 583.754 232.339 578.259 232.207 550.021 230.266 522.286 227.136 495.175 222.941 468.937 217.681 443.831 211.483 431.736 208.036 420.022 204.403 408.684 200.582 397.779 196.633 387.31 192.433 377.279 188.107 367.805 183.653 358.829 179.008 350.417 174.236 342.562 169.398 335.325 164.427 328.71 159.324 322.777 154.148 317.531 148.839 312.967 143.514 309.211 138.103 306.21 132.612 304.03 127.097 302.678 121.494 302.233 115.967 301.795 110.529 301.824 110.706 300.511 105.269 300.559 105.421 298.434 100.046 298.495 100.174 295.557 94.7995 295.626 94.9108 291.876 89.5983 291.937 89.6772 287.5 84.4272 287.56 84.4929 282.372 79.2429 282.434 79.301 276.559 74.176 276.613 74.2197 270.05 69.1572 270.101 69.1945 262.914 64.257 262.962 64.2881 255.149 59.4756 255.185 59.4967 246.81 54.7467 246.848 54.7676 237.911 50.1426 237.95 50.1619 228.512 45.7244 228.546 45.7397 218.546 41.4272 218.573 41.4384 208.136 37.2509 208.172 37.2649 197.297 33.3274 197.322 33.3358 186.009 29.5233 186.036 29.5319 174.348 25.9069 174.373 25.9145 162.311 22.477 162.35 22.4874 137.288 16.2999 137.337 16.311 111.15 11.061 111.2 11.0699 84.1373 6.88236 84.1843 6.88864 56.4343 3.76364 56.4839 3.76814 28.2964 1.83064 28.3472 1.833-0.0277543 1.1455ZM579.529 217.338 606.692 231.743 578.87 244.83Z" fill="#4472C4" transform="matrix(1 0 0 -1 2477 1401.74)"/><path d="M3182.85 1736.48 3183.35 1702.72 3184.79 1669 3187.11 1635.47 3190.36 1602.06 3194.43 1568.97 3199.31 1536.19 3205 1503.79 3211.51 1471.88 3218.64 1440.48 3226.58 1409.7 3235.15 1379.55 3244.35 1350.14 3254.17 1321.49 3264.56 1293.71 3275.51 1266.86 3286.96 1241.02 3298.91 1216.24 3311.31 1192.51 3324.14 1170.04 3337.42 1148.75 3351.01 1128.83 3364.97 1110.3 3372.06 1101.52 3379.2 1093.18 3386.47 1085.16 3393.75 1077.57 3401.15 1070.36 3408.55 1063.58 3416.02 1057.18 3423.55 1051.21 3431.15 1045.63 3438.76 1040.53 3446.43 1035.88 3454.16 1031.67 3461.9 1027.89 3469.71 1024.62 3477.46 1021.85 3485.33 1019.52 3493.15 1017.69 3501.04 1016.43 3508.86 1015.61 3516.73 1015.36 3547.86 1015.04 3547.84 1015.04 3578.78 1014.17 3578.76 1014.17 3609.2 1012.73 3609.18 1012.73 3638.87 1010.86 3638.84 1010.86 3667.53 1008.48 3667.51 1008.49 3695.01 1005.67 3694.99 1005.68 3708.24 1004.11 3708.23 1004.11 3721.04 1002.49 3721.03 1002.49 3733.4 1000.74 3733.39 1000.74 3745.33 998.93 3745.31 998.932 3756.75 997.057 3756.74 997.06 3767.68 995.122 3767.66 995.126 3778.03 993.126 3778.01 993.131 3787.82 991.006 3787.8 991.009 3796.99 988.884 3796.97 988.891 3805.53 986.703 3805.5 986.711 3813.44 984.461 3813.4 984.473 3820.52 982.161 3820.49 982.171 3826.99 979.859 3826.69 980.017 3830.67 977.074 3832.03 978.915 3827.92 981.961 3821.24 984.336 3814.08 986.66 3806.11 988.92 3797.52 991.114 3788.31 993.244 3778.48 995.373 3768.08 997.377 3757.13 999.318 3745.68 1001.2 3733.73 1003.01 3721.34 1004.76 3708.51 1006.39 3695.25 1007.95 3667.73 1010.77 3639.02 1013.14 3609.31 1015.02 3578.86 1016.46 3547.9 1017.33 3516.76 1017.65 3516.79 1017.65 3508.97 1017.9 3509.06 1017.89 3501.31 1018.7 3501.37 1018.69 3493.56 1019.94 3493.64 1019.93 3485.89 1021.74 3485.95 1021.72 3478.14 1024.04 3478.2 1024.02 3470.51 1026.77 3470.57 1026.74 3462.82 1029.99 3462.88 1029.97 3455.19 1033.72 3455.24 1033.69 3447.55 1037.88 3447.59 1037.86 3439.97 1042.48 3440.01 1042.45 3432.45 1047.52 3432.49 1047.49 3424.93 1053.05 3424.96 1053.02 3417.46 1058.96 3417.5 1058.93 3410.06 1065.31 3410.09 1065.28 3402.71 1072.03 3402.74 1072.01 3395.36 1079.2 3395.39 1079.17 3388.14 1086.73 3388.16 1086.71 3380.91 1094.71 3380.93 1094.68 3373.81 1103 3373.83 1102.97 3366.77 1111.72 3366.79 1111.69 3352.85 1130.19 3352.88 1130.15 3339.32 1150.02 3339.35 1149.98 3326.1 1171.23 3326.12 1171.19 3313.31 1193.63 3313.33 1193.59 3300.95 1217.28 3300.97 1217.25 3289.03 1242 3289.05 1241.96 3277.61 1267.78 3277.62 1267.75 3266.69 1294.56 3266.7 1294.53 3256.32 1322.28 3256.33 1322.25 3246.52 1350.87 3246.53 1350.84 3237.34 1380.22 3237.35 1380.19 3228.79 1410.31 3228.8 1410.29 3220.86 1441.04 3220.87 1441 3213.74 1472.38 3213.75 1472.35 3207.25 1504.23 3207.25 1504.2 3201.57 1536.57 3201.57 1536.54 3196.7 1569.29 3196.7 1569.27 3192.64 1602.33 3192.64 1602.3 3189.39 1635.67 3189.39 1635.64 3187.08 1669.14 3187.08 1669.11 3185.65 1702.8 3185.65 1702.77 3185.15 1736.52ZM3819.32 969.905 3849.5 964 3836.12 991.682Z" fill="#4472C4"/></g></svg>