<svg xmlns="http://www.w3.org/2000/svg" width="1315" height="1279" preserveAspectRatio="none" style="width:1315px;height:1279px;background:#fff"><path fill="#DDD" d="M1 6h663v1267.774H1z" style="stroke:#181818;stroke-width:.5"/><text x="306.5" y="18.067" font-family="sans-serif" font-size="13" font-weight="bold" textLength="52">Sender</text><path fill="#DDD" d="M817 6h492v1267.774H817z" style="stroke:#181818;stroke-width:.5"/><text x="1031" y="18.067" font-family="sans-serif" font-size="13" font-weight="bold" textLength="64">Receiver</text><path fill="#FFF" d="M94 338.756h10v28H94zm283 155.532h10v727.189h-10z" style="stroke:#181818;stroke-width:1"/><path fill="#FFF" d="M382 622.819h10v28h-10zm251-66.266h10v29.133h-10zm0 208.93h10v29.133h-10zm0 58.266h10v29.133h-10zm0 58.265h10v309.863h-10zm102.5-479.125h10v62.266h-10zM838 257.358h10v29.133h-10zm0 686.922h10v217.997h-10zm368 62.265h10v126.131h-10z" style="stroke:#181818;stroke-width:1"/><path d="M99 56.43v1183.047M382 56.43v1183.047M638 56.43v1183.047M740 56.43v1183.047M843 56.43v1183.047M1211 56.43v1183.047" style="stroke:#181818;stroke-width:.5;stroke-dasharray:5,5"/><rect width="188" height="30.297" x="5" y="25.133" fill="#E2E2F0" rx="2.5" ry="2.5" style="stroke:#181818;stroke-width:.5"/><text x="12" y="45.128" font-family="sans-serif" font-size="14" textLength="174">Some (Traceability) App</text><rect width="188" height="30.297" x="5" y="1238.477" fill="#E2E2F0" rx="2.5" ry="2.5" style="stroke:#181818;stroke-width:.5"/><text x="12" y="1258.472" font-family="sans-serif" font-size="14" textLength="174">Some (Traceability) App</text><rect width="196" height="30.297" x="284" y="25.133" fill="#E2E2F0" rx="2.5" ry="2.5" style="stroke:#181818;stroke-width:.5"/><text x="291" y="45.128" font-family="sans-serif" font-size="14" textLength="182">Notification EDC Adapter</text><rect width="196" height="30.297" x="284" y="1238.477" fill="#E2E2F0" rx="2.5" ry="2.5" style="stroke:#181818;stroke-width:.5"/><text x="291" y="1258.472" font-family="sans-serif" font-size="14" textLength="182">Notification EDC Adapter</text><rect width="44" height="30.297" x="616" y="25.133" fill="#E2E2F0" rx="2.5" ry="2.5" style="stroke:#181818;stroke-width:.5"/><text x="623" y="45.128" font-family="sans-serif" font-size="14" textLength="30">EDC</text><rect width="44" height="30.297" x="616" y="1238.477" fill="#E2E2F0" rx="2.5" ry="2.5" style="stroke:#181818;stroke-width:.5"/><text x="623" y="1258.472" font-family="sans-serif" font-size="14" textLength="30">EDC</text><rect width="141" height="30.297" x="670" y="25.133" fill="#E2E2F0" rx="2.5" ry="2.5" style="stroke:#181818;stroke-width:.5"/><text x="677" y="45.128" font-family="sans-serif" font-size="14" textLength="127">Discovery Service</text><rect width="141" height="30.297" x="670" y="1238.477" fill="#E2E2F0" rx="2.5" ry="2.5" style="stroke:#181818;stroke-width:.5"/><text x="677" y="1258.472" font-family="sans-serif" font-size="14" textLength="127">Discovery Service</text><rect width="44" height="30.297" x="821" y="25.133" fill="#E2E2F0" rx="2.5" ry="2.5" style="stroke:#181818;stroke-width:.5"/><text x="828" y="45.128" font-family="sans-serif" font-size="14" textLength="30">EDC</text><rect width="44" height="30.297" x="821" y="1238.477" fill="#E2E2F0" rx="2.5" ry="2.5" style="stroke:#181818;stroke-width:.5"/><text x="828" y="1258.472" font-family="sans-serif" font-size="14" textLength="30">EDC</text><rect width="188" height="30.297" x="1117" y="25.133" fill="#E2E2F0" rx="2.5" ry="2.5" style="stroke:#181818;stroke-width:.5"/><text x="1124" y="45.128" font-family="sans-serif" font-size="14" textLength="174">Some (Traceability) App</text><rect width="188" height="30.297" x="1117" y="1238.477" fill="#E2E2F0" rx="2.5" ry="2.5" style="stroke:#181818;stroke-width:.5"/><text x="1124" y="1258.472" font-family="sans-serif" font-size="14" textLength="174">Some (Traceability) App</text><path fill="#FFF" d="M94 338.756h10v28H94zm283 155.532h10v727.189h-10z" style="stroke:#181818;stroke-width:1"/><path fill="#FFF" d="M382 622.819h10v28h-10zm251-66.266h10v29.133h-10zm0 208.93h10v29.133h-10zm0 58.266h10v29.133h-10zm0 58.265h10v309.863h-10zm102.5-479.125h10v62.266h-10zM838 257.358h10v29.133h-10zm0 686.922h10v217.997h-10zm368 62.265h10v126.131h-10z" style="stroke:#181818;stroke-width:1"/><path fill="#FEFFDD" d="M387 71.43h227v129H387z" style="stroke:#181818;stroke-width:.5"/><text x="391" y="87.497" font-family="sans-serif" font-size="13" textLength="213">Not mandatory as the interaction</text><text x="391" y="102.629" font-family="sans-serif" font-size="13" textLength="219">with the EDC can be implemented</text><text x="391" y="117.762" font-family="sans-serif" font-size="13" textLength="187">also in the (Traceability) App.</text><text x="391" y="132.895" font-family="sans-serif" font-size="13" textLength="4"> </text><text x="391" y="148.028" font-family="sans-serif" font-size="13" textLength="202">However, a similar functionality</text><text x="391" y="163.161" font-family="sans-serif" font-size="13" textLength="126">(e.g., fetch catalog)</text><text x="391" y="178.293" font-family="sans-serif" font-size="13" textLength="178">- as shown below - must be</text><text x="391" y="193.426" font-family="sans-serif" font-size="13" textLength="60">provided.</text><path fill="#181818" d="m859 253.358-10 4 10 4-4-4z" style="stroke:#181818;stroke-width:1"/><path d="M853 257.358h357" style="stroke:#181818;stroke-width:1"/><text x="865" y="236.925" font-family="sans-serif" font-size="13" font-weight="bold" textLength="31">[01]</text><text x="900" y="221.559" font-family="sans-serif" font-size="13" textLength="136">Create EDC Asset for</text><text x="900" y="236.692" font-family="sans-serif" font-size="13" textLength="191">&quot;Quality Investigation Update&quot;</text><text x="900" y="252.292" font-family="sans-serif" font-size="13" textLength="27">with</text><text x="931" y="251.796" font-family="monospace" font-size="13" textLength="88">DataAddress</text><text x="1023" y="252.292" font-family="sans-serif" font-size="13" textLength="15">as</text><text x="1042" y="251.796" font-family="monospace" font-size="13" textLength="72">HTTP POST</text><text x="1118" y="252.292" font-family="sans-serif" font-size="13" textLength="56">endpoint</text><path fill="#181818" d="m1199 282.49 10 4-10 4 4-4z" style="stroke:#181818;stroke-width:1"/><path d="M843 286.491h362" style="stroke:#181818;stroke-width:1;stroke-dasharray:2,2"/><text x="850" y="281.425" font-family="sans-serif" font-size="13" font-weight="bold" textLength="31">[02]</text><text x="885" y="281.425" font-family="sans-serif" font-size="13" textLength="18">OK</text><path d="M104 330.756h42m0 0v13m-41 0h41" style="stroke:#181818;stroke-width:1"/><path fill="#181818" d="m115 339.756-10 4 10 4-4-4z" style="stroke:#181818;stroke-width:1"/><text x="111" y="318.124" font-family="sans-serif" font-size="13" font-weight="bold" textLength="30">[03]</text><text x="145" y="310.558" font-family="sans-serif" font-size="13" textLength="125">Change Notification</text><text x="145" y="325.69" font-family="sans-serif" font-size="13" textLength="235">(e.g., Status according Status Model)</text><path fill="#181818" d="m723.5 398.89 10 4-10 4 4-4z" style="stroke:#181818;stroke-width:1"/><path d="M99 402.889h630.5" style="stroke:#181818;stroke-width:1"/><text x="106" y="397.823" font-family="sans-serif" font-size="13" font-weight="bold" textLength="31">[04]</text><text x="141" y="397.823" font-family="sans-serif" font-size="13" textLength="142">Resolve EDC Endpoint</text><path fill="#FEFFDD" d="M104 415.889h397v23H104z" style="stroke:#181818;stroke-width:.5"/><text x="108" y="431.956" font-family="sans-serif" font-size="13" textLength="389">BPN of supply chain partner (as given in existing notification)</text><path fill="#181818" d="m110 461.155-10 4 10 4-4-4z" style="stroke:#181818;stroke-width:1"/><path d="M104 465.155h635.5" style="stroke:#181818;stroke-width:1;stroke-dasharray:2,2"/><text x="116" y="460.089" font-family="sans-serif" font-size="13" font-weight="bold" textLength="31">[05]</text><text x="151" y="460.089" font-family="sans-serif" font-size="13" textLength="18">OK</text><path fill="#181818" d="m365 490.288 10 4-10 4 4-4z" style="stroke:#181818;stroke-width:1"/><path d="M99 494.288h272" style="stroke:#181818;stroke-width:1"/><text x="106" y="489.222" font-family="sans-serif" font-size="13" font-weight="bold" textLength="31">[06]</text><text x="141" y="489.222" font-family="sans-serif" font-size="13" textLength="108">Send Notification</text><text x="253" y="489.222" font-family="sans-serif" font-size="13" font-weight="bold" textLength="54">Update</text><path fill="#FEFFDD" d="M104 507.288h192v23H104z" style="stroke:#181818;stroke-width:.5"/><text x="108" y="523.354" font-family="sans-serif" font-size="13" textLength="184">Payload as described above.</text><path fill="#181818" d="m621 552.553 10 4-10 4 4-4z" style="stroke:#181818;stroke-width:1"/><path d="M387 556.553h240" style="stroke:#181818;stroke-width:1"/><text x="394" y="551.487" font-family="sans-serif" font-size="13" font-weight="bold" textLength="31">[07]</text><text x="429" y="551.487" font-family="sans-serif" font-size="13" textLength="88">Fetch Catalog</text><path fill="#181818" d="m649 581.686-10 4 10 4-4-4zm182 0 10 4-10 4 4-4z" style="stroke:#181818;stroke-width:1"/><path d="M643 585.686h194" style="stroke:#181818;stroke-width:1;stroke-dasharray:2,2"/><text x="655" y="580.62" font-family="sans-serif" font-size="13" font-weight="bold" textLength="31">[08]</text><text x="690" y="580.62" font-family="sans-serif" font-size="13" textLength="88">Fetch Catalog</text><path d="M392 614.819h42m0 0v13m-41 0h41" style="stroke:#181818;stroke-width:1"/><path fill="#181818" d="m403 623.819-10 4 10 4-4-4z" style="stroke:#181818;stroke-width:1"/><text x="399" y="609.753" font-family="sans-serif" font-size="13" font-weight="bold" textLength="31">[09]</text><text x="434" y="609.753" font-family="sans-serif" font-size="13" textLength="156">Find and Select Contract</text><path fill="#FEFFDD" d="M392 670.819h340v68H392z" style="stroke:#181818;stroke-width:.5"/><text x="396" y="686.886" font-family="sans-serif" font-size="13" textLength="228">Find the correct contract offer with:</text><text x="396" y="702.019" font-family="sans-serif" font-size="13" textLength="4"> </text><text x="396" y="717.151" font-family="sans-serif" font-size="13" textLength="332">&quot;asset:prop:notificationtype&quot;: &quot;qualityinvestigation&quot;,</text><text x="396" y="732.284" font-family="sans-serif" font-size="13" textLength="269">&quot;asset:prop:notificationmethod&quot;: &quot;update&quot;</text><path fill="#181818" d="m621 761.483 10 4-10 4 4-4z" style="stroke:#181818;stroke-width:1"/><path d="M387 765.483h240" style="stroke:#181818;stroke-width:1"/><text x="394" y="760.417" font-family="sans-serif" font-size="13" font-weight="bold" textLength="31">[10]</text><text x="429" y="760.417" font-family="sans-serif" font-size="13" textLength="192">Intiatiate Contract Negotiation</text><path fill="#181818" d="m649 790.616-10 4 10 4-4-4zm182 0 10 4-10 4 4-4z" style="stroke:#181818;stroke-width:1"/><path d="M643 794.616h194" style="stroke:#181818;stroke-width:1;stroke-dasharray:2,2"/><text x="655" y="789.55" font-family="sans-serif" font-size="13" font-weight="bold" textLength="30">[11]</text><text x="689" y="789.55" font-family="sans-serif" font-size="13" textLength="132">Contract Negotiation</text><path fill="#181818" d="m621 819.749 10 4-10 4 4-4z" style="stroke:#181818;stroke-width:1"/><path d="M387 823.749h240" style="stroke:#181818;stroke-width:1"/><text x="394" y="818.683" font-family="sans-serif" font-size="13" font-weight="bold" textLength="30">[12]</text><text x="428" y="818.683" font-family="sans-serif" font-size="13" textLength="141">Inititate Data Transfer</text><path fill="#181818" d="m649 848.881-10 4 10 4-4-4zm182 0 10 4-10 4 4-4z" style="stroke:#181818;stroke-width:1"/><path d="M643 852.881h194" style="stroke:#181818;stroke-width:1;stroke-dasharray:2,2"/><text x="655" y="847.815" font-family="sans-serif" font-size="13" font-weight="bold" textLength="29">[13]</text><text x="688" y="847.815" font-family="sans-serif" font-size="13" textLength="113">Establish Channel</text><path fill="#181818" d="m621 878.014 10 4-10 4 4-4z" style="stroke:#181818;stroke-width:1"/><path d="M387 882.014h240" style="stroke:#181818;stroke-width:1"/><text x="394" y="876.948" font-family="sans-serif" font-size="13" font-weight="bold" textLength="30">[14]</text><text x="428" y="876.948" font-family="sans-serif" font-size="13" textLength="95">POST /public/...</text><path fill="#FEFFDD" d="M392 895.014h192v23H392z" style="stroke:#181818;stroke-width:.5"/><text x="396" y="911.081" font-family="sans-serif" font-size="13" textLength="184">Payload as described above.</text><path fill="#181818" d="m826 940.28 10 4-10 4 4-4z" style="stroke:#181818;stroke-width:1"/><path d="M643 944.28h189" style="stroke:#181818;stroke-width:1"/><text x="650" y="939.214" font-family="sans-serif" font-size="13" font-weight="bold" textLength="30">[15]</text><text x="684" y="939.214" font-family="sans-serif" font-size="13" textLength="95">POST /public/...</text><path fill="#FEFFDD" d="M648 957.28h192v23H648z" style="stroke:#181818;stroke-width:.5"/><text x="652" y="973.347" font-family="sans-serif" font-size="13" textLength="184">Payload as described above.</text><path fill="#181818" d="m1194 1002.545 10 4-10 4 4-4z" style="stroke:#181818;stroke-width:1"/><path d="M848 1006.545h352" style="stroke:#181818;stroke-width:1"/><text x="855" y="1001.479" font-family="sans-serif" font-size="13" font-weight="bold" textLength="30">[16]</text><text x="889" y="1001.479" font-family="sans-serif" font-size="13" textLength="305">POST /notifications/qualityinvestigations/update</text><path fill="#FEFFDD" d="M853 1019.545h192v23H853z" style="stroke:#181818;stroke-width:.5"/><text x="857" y="1035.612" font-family="sans-serif" font-size="13" textLength="184">Payload as described above.</text><path fill="#FEFFDD" d="M853 1052.678h309v53H853z" style="stroke:#181818;stroke-width:.5"/><text x="857" y="1068.745" font-family="sans-serif" font-size="13" textLength="278">The http path depends on the DataAddress</text><text x="857" y="1083.878" font-family="sans-serif" font-size="13" textLength="301">in the EDC Data Asset. Thus, it depends on the</text><text x="857" y="1099.011" font-family="sans-serif" font-size="13" textLength="78">(Trace) app.</text><path fill="#181818" d="m859 1128.677-10 4 10 4-4-4z" style="stroke:#181818;stroke-width:1"/><path d="M853 1132.677h357" style="stroke:#181818;stroke-width:1;stroke-dasharray:2,2"/><text x="865" y="1127.377" font-family="sans-serif" font-size="13" font-weight="bold" textLength="30">[17]</text><text x="899" y="1127.115" font-family="monospace" font-size="13" textLength="24">200</text><text x="927" y="1127.611" font-family="sans-serif" font-size="13" textLength="18">OK</text><path fill="#181818" d="m654 1158.277-10 4 10 4-4-4z" style="stroke:#181818;stroke-width:1"/><path d="M648 1162.277h194" style="stroke:#181818;stroke-width:1;stroke-dasharray:2,2"/><text x="660" y="1156.977" font-family="sans-serif" font-size="13" font-weight="bold" textLength="30">[18]</text><text x="694" y="1156.715" font-family="monospace" font-size="13" textLength="24">200</text><text x="722" y="1157.211" font-family="sans-serif" font-size="13" textLength="18">OK</text><path fill="#181818" d="m398 1187.877-10 4 10 4-4-4z" style="stroke:#181818;stroke-width:1"/><path d="M392 1191.877h245" style="stroke:#181818;stroke-width:1;stroke-dasharray:2,2"/><text x="404" y="1186.577" font-family="sans-serif" font-size="13" font-weight="bold" textLength="30">[19]</text><text x="438" y="1186.315" font-family="monospace" font-size="13" textLength="24">200</text><text x="466" y="1186.811" font-family="sans-serif" font-size="13" textLength="18">OK</text><path fill="#181818" d="m110 1217.477-10 4 10 4-4-4z" style="stroke:#181818;stroke-width:1"/><path d="M104 1221.477h277" style="stroke:#181818;stroke-width:1;stroke-dasharray:2,2"/><text x="116" y="1216.177" font-family="sans-serif" font-size="13" font-weight="bold" textLength="31">[20]</text><text x="151" y="1215.915" font-family="monospace" font-size="13" textLength="24">200</text><text x="179" y="1216.411" font-family="sans-serif" font-size="13" textLength="18">OK</text></svg>