<svg xmlns="http://www.w3.org/2000/svg" width="1355" height="1583" preserveAspectRatio="none" style="width:1355px;height:1583px;background:#fff"><path fill="#DDD" d="M1 6h701v1571.703H1z" style="stroke:#181818;stroke-width:.5"/><text x="325.5" y="18.067" font-family="sans-serif" font-size="13" font-weight="bold" textLength="52">Sender</text><path fill="#DDD" d="M855 6h494v1571.703H855z" style="stroke:#181818;stroke-width:.5"/><text x="1070" y="18.067" font-family="sans-serif" font-size="13" font-weight="bold" textLength="64">Receiver</text><path fill="#FFF" d="M94 323.623h10v28H94zm0 72.133h10v28H94zm0 87.266h10v28H94zm0 178.664h10v28H94zm0 858.72h10v14H94zm323-794.587h10v742.322h-10z" style="stroke:#181818;stroke-width:1"/><path fill="#FFF" d="M422 854.35h10v28h-10zm249-66.266h10v29.133h-10zm0 224.063h10v29.133h-10zm0 58.265h10v29.133h-10zm0 58.266h10v309.863h-10zm102.5-581.523h10v62.266h-10zM876 257.358h10v29.133h-10zm0 933.586h10v217.997h-10zm370 62.265h10v126.131h-10z" style="stroke:#181818;stroke-width:1"/><path d="M99 56.43v1486.976M422 56.43v1486.976M676 56.43v1486.976M778 56.43v1486.976M881 56.43v1486.976M1251 56.43v1486.976" style="stroke:#181818;stroke-width:.5;stroke-dasharray:5,5"/><rect width="188" height="30.297" x="5" y="25.133" fill="#E2E2F0" rx="2.5" ry="2.5" style="stroke:#181818;stroke-width:.5"/><text x="12" y="45.128" font-family="sans-serif" font-size="14" textLength="174">Some (Traceability) App</text><rect width="188" height="30.297" x="5" y="1542.406" fill="#E2E2F0" rx="2.5" ry="2.5" style="stroke:#181818;stroke-width:.5"/><text x="12" y="1562.401" font-family="sans-serif" font-size="14" textLength="174">Some (Traceability) App</text><rect width="196" height="30.297" x="324" y="25.133" fill="#E2E2F0" rx="2.5" ry="2.5" style="stroke:#181818;stroke-width:.5"/><text x="331" y="45.128" font-family="sans-serif" font-size="14" textLength="182">Notification EDC Adapter</text><rect width="196" height="30.297" x="324" y="1542.406" fill="#E2E2F0" rx="2.5" ry="2.5" style="stroke:#181818;stroke-width:.5"/><text x="331" y="1562.401" font-family="sans-serif" font-size="14" textLength="182">Notification EDC Adapter</text><rect width="44" height="30.297" x="654" y="25.133" fill="#E2E2F0" rx="2.5" ry="2.5" style="stroke:#181818;stroke-width:.5"/><text x="661" y="45.128" font-family="sans-serif" font-size="14" textLength="30">EDC</text><rect width="44" height="30.297" x="654" y="1542.406" fill="#E2E2F0" rx="2.5" ry="2.5" style="stroke:#181818;stroke-width:.5"/><text x="661" y="1562.401" font-family="sans-serif" font-size="14" textLength="30">EDC</text><rect width="141" height="30.297" x="708" y="25.133" fill="#E2E2F0" rx="2.5" ry="2.5" style="stroke:#181818;stroke-width:.5"/><text x="715" y="45.128" font-family="sans-serif" font-size="14" textLength="127">Discovery Service</text><rect width="141" height="30.297" x="708" y="1542.406" fill="#E2E2F0" rx="2.5" ry="2.5" style="stroke:#181818;stroke-width:.5"/><text x="715" y="1562.401" font-family="sans-serif" font-size="14" textLength="127">Discovery Service</text><rect width="44" height="30.297" x="859" y="25.133" fill="#E2E2F0" rx="2.5" ry="2.5" style="stroke:#181818;stroke-width:.5"/><text x="866" y="45.128" font-family="sans-serif" font-size="14" textLength="30">EDC</text><rect width="44" height="30.297" x="859" y="1542.406" fill="#E2E2F0" rx="2.5" ry="2.5" style="stroke:#181818;stroke-width:.5"/><text x="866" y="1562.401" font-family="sans-serif" font-size="14" textLength="30">EDC</text><rect width="188" height="30.297" x="1157" y="25.133" fill="#E2E2F0" rx="2.5" ry="2.5" style="stroke:#181818;stroke-width:.5"/><text x="1164" y="45.128" font-family="sans-serif" font-size="14" textLength="174">Some (Traceability) App</text><rect width="188" height="30.297" x="1157" y="1542.406" fill="#E2E2F0" rx="2.5" ry="2.5" style="stroke:#181818;stroke-width:.5"/><text x="1164" y="1562.401" font-family="sans-serif" font-size="14" textLength="174">Some (Traceability) App</text><path fill="#FFF" d="M94 323.623h10v28H94zm0 72.133h10v28H94zm0 87.266h10v28H94zm0 178.664h10v28H94zm0 858.72h10v14H94zm323-794.587h10v742.322h-10z" style="stroke:#181818;stroke-width:1"/><path fill="#FFF" d="M422 854.35h10v28h-10zm249-66.266h10v29.133h-10zm0 224.063h10v29.133h-10zm0 58.265h10v29.133h-10zm0 58.266h10v309.863h-10zm102.5-581.523h10v62.266h-10zM876 257.358h10v29.133h-10zm0 933.586h10v217.997h-10zm370 62.265h10v126.131h-10z" style="stroke:#181818;stroke-width:1"/><path fill="#FEFFDD" d="M427 71.43h227v129H427z" style="stroke:#181818;stroke-width:.5"/><text x="431" y="87.497" font-family="sans-serif" font-size="13" textLength="213">Not mandatory as the interaction</text><text x="431" y="102.629" font-family="sans-serif" font-size="13" textLength="219">with the EDC can be implemented</text><text x="431" y="117.762" font-family="sans-serif" font-size="13" textLength="187">also in the (Traceability) App.</text><text x="431" y="132.895" font-family="sans-serif" font-size="13" textLength="4"> </text><text x="431" y="148.028" font-family="sans-serif" font-size="13" textLength="202">However, a similar functionality</text><text x="431" y="163.161" font-family="sans-serif" font-size="13" textLength="126">(e.g., fetch catalog)</text><text x="431" y="178.293" font-family="sans-serif" font-size="13" textLength="178">- as shown below - must be</text><text x="431" y="193.426" font-family="sans-serif" font-size="13" textLength="60">provided.</text><path fill="#181818" d="m897 253.358-10 4 10 4-4-4z" style="stroke:#181818;stroke-width:1"/><path d="M891 257.358h359" style="stroke:#181818;stroke-width:1"/><text x="903" y="236.925" font-family="sans-serif" font-size="13" font-weight="bold" textLength="31">[01]</text><text x="938" y="221.559" font-family="sans-serif" font-size="13" textLength="136">Create EDC Asset for</text><text x="938" y="236.692" font-family="sans-serif" font-size="13" textLength="193">&quot;Quality Investigation Receipt&quot;</text><text x="938" y="252.292" font-family="sans-serif" font-size="13" textLength="27">with</text><text x="969" y="251.796" font-family="monospace" font-size="13" textLength="88">DataAddress</text><text x="1061" y="252.292" font-family="sans-serif" font-size="13" textLength="15">as</text><text x="1080" y="251.796" font-family="monospace" font-size="13" textLength="72">HTTP POST</text><text x="1156" y="252.292" font-family="sans-serif" font-size="13" textLength="56">endpoint</text><path fill="#181818" d="m1239 282.49 10 4-10 4 4-4z" style="stroke:#181818;stroke-width:1"/><path d="M881 286.491h364" style="stroke:#181818;stroke-width:1;stroke-dasharray:2,2"/><text x="888" y="281.425" font-family="sans-serif" font-size="13" font-weight="bold" textLength="31">[02]</text><text x="923" y="281.425" font-family="sans-serif" font-size="13" textLength="18">OK</text><path d="M104 315.623h42m0 0v13m-41 0h41" style="stroke:#181818;stroke-width:1"/><path fill="#181818" d="m115 324.624-10 4 10 4-4-4z" style="stroke:#181818;stroke-width:1"/><text x="111" y="310.558" font-family="sans-serif" font-size="13" font-weight="bold" textLength="30">[03]</text><text x="145" y="310.558" font-family="sans-serif" font-size="13" textLength="223">Identify Suspect Part(s) / Batch(es)</text><path d="M104 387.756h42m0 0v13m-41 0h41" style="stroke:#181818;stroke-width:1"/><path fill="#181818" d="m115 396.756-10 4 10 4-4-4z" style="stroke:#181818;stroke-width:1"/><text x="111" y="382.69" font-family="sans-serif" font-size="13" font-weight="bold" textLength="31">[04]</text><text x="146" y="382.69" font-family="sans-serif" font-size="13" textLength="274">Identify BPN for Suspect Part(s) / Batch(es)</text><path d="M104 475.022h42m0 0v13m-41 0h41" style="stroke:#181818;stroke-width:1"/><path fill="#181818" d="m115 484.022-10 4 10 4-4-4z" style="stroke:#181818;stroke-width:1"/><text x="111" y="462.39" font-family="sans-serif" font-size="13" font-weight="bold" textLength="31">[05]</text><text x="146" y="454.823" font-family="sans-serif" font-size="13" textLength="119">Create Notification</text><text x="146" y="469.956" font-family="sans-serif" font-size="13" textLength="125">Status := CREATED</text><path fill="#181818" d="m761.5 543.155 10 4-10 4 4-4z" style="stroke:#181818;stroke-width:1"/><path d="M99 547.155h668.5" style="stroke:#181818;stroke-width:1"/><text x="106" y="542.089" font-family="sans-serif" font-size="13" font-weight="bold" textLength="31">[06]</text><text x="141" y="542.089" font-family="sans-serif" font-size="13" textLength="142">Resolve EDC Endpoint</text><path fill="#FEFFDD" d="M104 560.155h217v23H104z" style="stroke:#181818;stroke-width:.5"/><text x="108" y="576.222" font-family="sans-serif" font-size="13" textLength="209">BPN of supect part(s) / batch(es)</text><path fill="#181818" d="m110 605.42-10 4 10 4-4-4z" style="stroke:#181818;stroke-width:1"/><path d="M104 609.42h673.5" style="stroke:#181818;stroke-width:1;stroke-dasharray:2,2"/><text x="116" y="604.354" font-family="sans-serif" font-size="13" font-weight="bold" textLength="31">[07]</text><text x="151" y="604.354" font-family="sans-serif" font-size="13" textLength="18">OK</text><path d="M104 653.686h42m0 0v13m-41 0h41" style="stroke:#181818;stroke-width:1"/><path fill="#181818" d="m115 662.686-10 4 10 4-4-4z" style="stroke:#181818;stroke-width:1"/><text x="111" y="641.054" font-family="sans-serif" font-size="13" font-weight="bold" textLength="31">[08]</text><text x="146" y="633.487" font-family="sans-serif" font-size="13" textLength="167">Update Notification Status</text><text x="146" y="648.62" font-family="sans-serif" font-size="13" textLength="97">Status := SENT</text><path fill="#181818" d="m405 721.819 10 4-10 4 4-4z" style="stroke:#181818;stroke-width:1"/><path d="M99 725.819h312" style="stroke:#181818;stroke-width:1"/><text x="106" y="720.753" font-family="sans-serif" font-size="13" font-weight="bold" textLength="31">[09]</text><text x="141" y="720.753" font-family="sans-serif" font-size="13" textLength="108">Send Notification</text><text x="253" y="720.753" font-family="sans-serif" font-size="13" font-weight="bold" textLength="57">Receipt</text><path fill="#FEFFDD" d="M104 738.819h192v23H104z" style="stroke:#181818;stroke-width:.5"/><text x="108" y="754.886" font-family="sans-serif" font-size="13" textLength="184">Payload as described above.</text><path fill="#181818" d="m659 784.084 10 4-10 4 4-4z" style="stroke:#181818;stroke-width:1"/><path d="M427 788.084h238" style="stroke:#181818;stroke-width:1"/><text x="434" y="783.019" font-family="sans-serif" font-size="13" font-weight="bold" textLength="31">[10]</text><text x="469" y="783.019" font-family="sans-serif" font-size="13" textLength="88">Fetch Catalog</text><path fill="#181818" d="m687 813.217-10 4 10 4-4-4zm182 0 10 4-10 4 4-4z" style="stroke:#181818;stroke-width:1"/><path d="M681 817.217h194" style="stroke:#181818;stroke-width:1;stroke-dasharray:2,2"/><text x="693" y="812.151" font-family="sans-serif" font-size="13" font-weight="bold" textLength="30">[11]</text><text x="727" y="812.151" font-family="sans-serif" font-size="13" textLength="88">Fetch Catalog</text><path d="M432 846.35h42m0 0v13m-41 0h41" style="stroke:#181818;stroke-width:1"/><path fill="#181818" d="m443 855.35-10 4 10 4-4-4z" style="stroke:#181818;stroke-width:1"/><text x="439" y="841.284" font-family="sans-serif" font-size="13" font-weight="bold" textLength="30">[12]</text><text x="473" y="841.284" font-family="sans-serif" font-size="13" textLength="156">Find and Select Contract</text><path fill="#FEFFDD" d="M432 902.35h389v83H432z" style="stroke:#181818;stroke-width:.5"/><text x="436" y="918.417" font-family="sans-serif" font-size="13" textLength="228">Find the correct contract offer with:</text><text x="436" y="933.55" font-family="sans-serif" font-size="13" textLength="4"> </text><text x="436" y="948.683" font-family="sans-serif" font-size="13" textLength="82">&quot;dct:type&quot;: {</text><text x="460" y="963.815" font-family="sans-serif" font-size="13" textLength="357">&quot;@id&quot;: &quot;cx-taxo:ReceiveQualityInvestigationNotification&quot;</text><text x="452" y="978.948" font-family="sans-serif" font-size="13" textLength="14">}&quot;</text><path fill="#181818" d="m659 1008.147 10 4-10 4 4-4z" style="stroke:#181818;stroke-width:1"/><path d="M427 1012.147h238" style="stroke:#181818;stroke-width:1"/><text x="434" y="1007.081" font-family="sans-serif" font-size="13" font-weight="bold" textLength="29">[13]</text><text x="467" y="1007.081" font-family="sans-serif" font-size="13" textLength="192">Intiatiate Contract Negotiation</text><path fill="#181818" d="m687 1037.28-10 4 10 4-4-4zm182 0 10 4-10 4 4-4z" style="stroke:#181818;stroke-width:1"/><path d="M681 1041.28h194" style="stroke:#181818;stroke-width:1;stroke-dasharray:2,2"/><text x="693" y="1036.214" font-family="sans-serif" font-size="13" font-weight="bold" textLength="30">[14]</text><text x="727" y="1036.214" font-family="sans-serif" font-size="13" textLength="132">Contract Negotiation</text><path fill="#181818" d="m659 1066.413 10 4-10 4 4-4z" style="stroke:#181818;stroke-width:1"/><path d="M427 1070.412h238" style="stroke:#181818;stroke-width:1"/><text x="434" y="1065.347" font-family="sans-serif" font-size="13" font-weight="bold" textLength="30">[15]</text><text x="468" y="1065.347" font-family="sans-serif" font-size="13" textLength="141">Inititate Data Transfer</text><path fill="#181818" d="m687 1095.545-10 4 10 4-4-4zm182 0 10 4-10 4 4-4z" style="stroke:#181818;stroke-width:1"/><path d="M681 1099.545h194" style="stroke:#181818;stroke-width:1;stroke-dasharray:2,2"/><text x="693" y="1094.479" font-family="sans-serif" font-size="13" font-weight="bold" textLength="30">[16]</text><text x="727" y="1094.479" font-family="sans-serif" font-size="13" textLength="113">Establish Channel</text><path fill="#181818" d="m659 1124.678 10 4-10 4 4-4z" style="stroke:#181818;stroke-width:1"/><path d="M427 1128.678h238" style="stroke:#181818;stroke-width:1"/><text x="434" y="1123.612" font-family="sans-serif" font-size="13" font-weight="bold" textLength="30">[17]</text><text x="468" y="1123.612" font-family="sans-serif" font-size="13" textLength="95">POST /public/...</text><path fill="#FEFFDD" d="M432 1141.678h192v23H432z" style="stroke:#181818;stroke-width:.5"/><text x="436" y="1157.745" font-family="sans-serif" font-size="13" textLength="184">Payload as described above.</text><path fill="#181818" d="m864 1186.944 10 4-10 4 4-4z" style="stroke:#181818;stroke-width:1"/><path d="M681 1190.944h189" style="stroke:#181818;stroke-width:1"/><text x="688" y="1185.878" font-family="sans-serif" font-size="13" font-weight="bold" textLength="30">[18]</text><text x="722" y="1185.878" font-family="sans-serif" font-size="13" textLength="95">POST /public/...</text><path fill="#FEFFDD" d="M686 1203.944h192v23H686z" style="stroke:#181818;stroke-width:.5"/><text x="690" y="1220.011" font-family="sans-serif" font-size="13" textLength="184">Payload as described above.</text><path fill="#181818" d="m1234 1249.21 10 4-10 4 4-4z" style="stroke:#181818;stroke-width:1"/><path d="M886 1253.209h354" style="stroke:#181818;stroke-width:1"/><text x="893" y="1248.143" font-family="sans-serif" font-size="13" font-weight="bold" textLength="30">[19]</text><text x="927" y="1248.143" font-family="sans-serif" font-size="13" textLength="307">POST /notifications/qualityinvestigations/receive</text><path fill="#FEFFDD" d="M891 1266.209h192v23H891z" style="stroke:#181818;stroke-width:.5"/><text x="895" y="1282.276" font-family="sans-serif" font-size="13" textLength="184">Payload as described above.</text><path fill="#FEFFDD" d="M891 1299.342h309v53H891z" style="stroke:#181818;stroke-width:.5"/><text x="895" y="1315.409" font-family="sans-serif" font-size="13" textLength="278">The http path depends on the DataAddress</text><text x="895" y="1330.542" font-family="sans-serif" font-size="13" textLength="301">in the EDC Data Asset. Thus, it depends on the</text><text x="895" y="1345.675" font-family="sans-serif" font-size="13" textLength="78">(Trace) app.</text><path fill="#181818" d="m897 1375.34-10 4 10 4-4-4z" style="stroke:#181818;stroke-width:1"/><path d="M891 1379.341h359" style="stroke:#181818;stroke-width:1;stroke-dasharray:2,2"/><text x="903" y="1374.041" font-family="sans-serif" font-size="13" font-weight="bold" textLength="31">[20]</text><text x="938" y="1373.779" font-family="monospace" font-size="13" textLength="24">201</text><text x="966" y="1374.275" font-family="sans-serif" font-size="13" textLength="18">OK</text><path fill="#181818" d="m692 1404.94-10 4 10 4-4-4z" style="stroke:#181818;stroke-width:1"/><path d="M686 1408.941h194" style="stroke:#181818;stroke-width:1;stroke-dasharray:2,2"/><text x="698" y="1403.641" font-family="sans-serif" font-size="13" font-weight="bold" textLength="30">[21]</text><text x="732" y="1403.379" font-family="monospace" font-size="13" textLength="24">201</text><text x="760" y="1403.875" font-family="sans-serif" font-size="13" textLength="18">OK</text><path fill="#181818" d="m438 1434.54-10 4 10 4-4-4z" style="stroke:#181818;stroke-width:1"/><path d="M432 1438.541h243" style="stroke:#181818;stroke-width:1;stroke-dasharray:2,2"/><text x="444" y="1433.241" font-family="sans-serif" font-size="13" font-weight="bold" textLength="30">[22]</text><text x="478" y="1432.979" font-family="monospace" font-size="13" textLength="24">201</text><text x="506" y="1433.475" font-family="sans-serif" font-size="13" textLength="18">OK</text><path fill="#181818" d="m110 1464.14-10 4 10 4-4-4z" style="stroke:#181818;stroke-width:1"/><path d="M104 1468.141h317" style="stroke:#181818;stroke-width:1;stroke-dasharray:2,2"/><text x="116" y="1462.841" font-family="sans-serif" font-size="13" font-weight="bold" textLength="29">[23]</text><text x="149" y="1462.579" font-family="monospace" font-size="13" textLength="24">201</text><text x="177" y="1463.075" font-family="sans-serif" font-size="13" textLength="18">OK</text><path d="M99 1507.406h47m0 0v13m-41 0h41" style="stroke:#181818;stroke-width:1"/><path fill="#181818" d="m115 1516.406-10 4 10 4-4-4z" style="stroke:#181818;stroke-width:1"/><text x="111" y="1494.774" font-family="sans-serif" font-size="13" font-weight="bold" textLength="30">[24]</text><text x="145" y="1487.208" font-family="sans-serif" font-size="13" textLength="167">Update Notification Status</text><text x="145" y="1502.34" font-family="sans-serif" font-size="13" textLength="128">Status := RECEIVED</text></svg>