<svg width="2344" height="1724" xmlns="http://www.w3.org/2000/svg" xmlns:xlink="http://www.w3.org/1999/xlink" xml:space="preserve" overflow="hidden"><g transform="translate(-539 -213)"><rect x="556.5" y="890.5" width="362" height="218" stroke="#000000" stroke-width="3.4375" stroke-linejoin="round" stroke-miterlimit="10" fill="none"/><rect x="1046.5" y="718.5" width="362" height="218" stroke="#000000" stroke-width="3.4375" stroke-linejoin="round" stroke-miterlimit="10" fill="none"/><rect x="1046.5" y="1065.5" width="362" height="219" stroke="#000000" stroke-width="3.4375" stroke-linejoin="round" stroke-miterlimit="10" fill="none"/><rect x="2026.5" y="1108.5" width="362" height="219" stroke="#000000" stroke-width="3.4375" stroke-linejoin="round" stroke-miterlimit="10" fill="none"/><rect x="1536.5" y="881.5" width="362" height="219" stroke="#000000" stroke-width="3.4375" stroke-linejoin="round" stroke-miterlimit="10" fill="none"/><rect x="2516" y="1105" width="362" height="219" stroke="#FF0000" stroke-width="10.3125" stroke-linejoin="round" stroke-miterlimit="10" fill="none"/><rect x="1536.5" y="1333.5" width="362" height="218" stroke="#000000" stroke-width="3.4375" stroke-linejoin="round" stroke-miterlimit="10" fill="none"/><rect x="1046.5" y="1333.5" width="362" height="218" stroke="#000000" stroke-width="3.4375" stroke-linejoin="round" stroke-miterlimit="10" fill="none"/><text font-family="Calibri,Calibri_MSFontService,sans-serif" font-weight="400" font-size="83" transform="matrix(1 0 0 1 649.23 315)">OEM</text><text font-family="Calibri,Calibri_MSFontService,sans-serif" font-weight="400" font-size="83" transform="matrix(1 0 0 1 1139.23 315)">Tier1</text><text font-family="Calibri,Calibri_MSFontService,sans-serif" font-weight="400" font-size="83" transform="matrix(1 0 0 1 1629.23 315)">Tier2</text><text font-family="Calibri,Calibri_MSFontService,sans-serif" font-weight="400" font-size="83" transform="matrix(1 0 0 1 2119.23 316)">Tier3</text><text font-family="Calibri,Calibri_MSFontService,sans-serif" font-weight="400" font-size="83" transform="matrix(1 0 0 1 2607.8 315)">Tier4</text><path d="M0.076788-3.43664 105.023-1.09174 104.869 5.78155-0.076788 3.43664ZM100.671-11.504 127.857 2.85682 100.057 15.9891Z" transform="matrix(-1 0 0 1 2516.36 1215.5)"/><path d="M2023.38 1213.65 1906.98 1012.06 1912.94 1008.63 2029.33 1210.21ZM1900.34 1021.19 1898.5 990.5 1924.16 1007.44Z"/><path d="M2.98634-1.7024 119.494 202.675 113.521 206.08-2.98634 1.7024ZM126.183 193.586 127.857 224.286 102.292 207.205Z" transform="matrix(-1 0 0 1 2026.36 1218.5)"/><path d="M9.70275e-06-3.4375 104.941-3.4372 104.941 3.4378-9.70275e-06 3.4375ZM100.357-13.7497 127.857 0.000360892 100.357 13.7503Z" transform="matrix(-1 0 0 1 1536.36 1442.5)"/><path d="M1533.65 993.188 1419.9 847.672 1425.32 843.438 1539.07 988.955ZM1414.6 857.634 1408.5 827.5 1436.27 840.698Z"/><path d="M2.82253-1.96207 117.599 163.15 111.954 167.074-2.82253 1.96207ZM123.451 153.5 127.857 183.928 100.871 169.196Z" transform="matrix(-1 0 0 1 1536.36 990.5)"/><path d="M1044 1444.71 932.803 1339.73 937.523 1334.73 1048.72 1439.71ZM929.057 1350.38 918.5 1321.5 947.935 1330.38Z"/><rect x="556.5" y="1212.5" width="362" height="218" stroke="#000000" stroke-width="3.4375" stroke-linejoin="round" stroke-miterlimit="10" fill="none"/><path d="M1043.58 1176.88 929.224 1020.04 934.779 1015.99 1049.13 1172.83ZM923.591 1029.82 918.5 999.5 945.812 1013.62Z"/><path d="M2.75959-2.04965 116.953 151.696 111.433 155.796-2.75959 2.04965ZM122.498 141.868 127.857 172.143 100.422 158.265Z" transform="matrix(-1 0 0 1 1046.36 827.5)"/><path d="M2.59206-2.25779 115.397 127.249 110.213 131.764-2.59206 2.25779ZM120.163 117.019 127.857 146.787 99.4267 135.082Z" transform="matrix(-1 0 0 1 1046.36 1174.5)"/><g><g><g><path d="M2440.17 1127.48 2462.65 1127.48 2462.65 1130.94 2440.17 1130.94Z" fill="#FF0000"/><path d="M2440.17 1134.4 2462.65 1134.4 2462.65 1137.85 2440.17 1137.85Z" fill="#FF0000"/><path d="M2440.17 1141.31 2462.65 1141.31 2462.65 1144.77 2440.17 1144.77Z" fill="#FF0000"/><path d="M2481.76 1177.28 2464.47 1160.85 2481.76 1144.43 2481.76 1177.28ZM2425.74 1179.35 2442.85 1163.19 2444.06 1162.06C2448.73 1157.65 2456.08 1157.65 2460.75 1162.06L2461.96 1163.19 2478.99 1179.35 2425.74 1179.35ZM2422.97 1144.34 2440.26 1160.77 2422.97 1177.19 2422.97 1144.34ZM2435.07 1122.29 2469.66 1122.29 2469.66 1151.08 2461.88 1158.52C2456.26 1154.19 2448.47 1154.19 2442.85 1158.52L2435.07 1151.08 2435.07 1122.29ZM2474.84 1124.63 2474.84 1117.1 2462.74 1117.1 2452.36 1108.46 2441.99 1117.1 2429.89 1117.1 2429.89 1124.71 2417.78 1136.21 2417.78 1184.54 2486.95 1184.54 2486.95 1136.21 2474.84 1124.63Z" fill="#FF0000"/></g></g></g><g><g><g><path d="M1992.17 972.479 2014.65 972.479 2014.65 975.938 1992.17 975.938Z" fill="#FF0000"/><path d="M1992.17 979.396 2014.65 979.396 2014.65 982.854 1992.17 982.854Z" fill="#FF0000"/><path d="M1992.17 986.313 2014.65 986.313 2014.65 989.771 1992.17 989.771Z" fill="#FF0000"/><path d="M2033.76 1022.28 2016.47 1005.85 2033.76 989.425 2033.76 1022.28ZM1977.74 1024.35 1994.85 1008.19 1996.06 1007.06C2000.73 1002.65 2008.08 1002.65 2012.75 1007.06L2013.96 1008.19 2030.99 1024.35 1977.74 1024.35ZM1974.97 989.339 1992.26 1005.77 1974.97 1022.19 1974.97 989.339ZM1987.07 967.292 2021.66 967.292 2021.66 996.082 2013.88 1003.52C2008.26 999.195 2000.47 999.195 1994.85 1003.52L1987.07 996.082 1987.07 967.292ZM2026.84 969.626 2026.84 962.104 2014.74 962.104 2004.36 953.458 1993.99 962.104 1981.89 962.104 1981.89 969.713 1969.78 981.212 1969.78 1029.54 2038.95 1029.54 2038.95 981.212 2026.84 969.626Z" fill="#FF0000"/></g></g></g><g><g><g><path d="M1474.17 806.479 1496.65 806.479 1496.65 809.938 1474.17 809.938Z" fill="#FF0000"/><path d="M1474.17 813.396 1496.65 813.396 1496.65 816.854 1474.17 816.854Z" fill="#FF0000"/><path d="M1474.17 820.313 1496.65 820.313 1496.65 823.771 1474.17 823.771Z" fill="#FF0000"/><path d="M1515.76 856.279 1498.47 839.852 1515.76 823.425 1515.76 856.279ZM1459.74 858.354 1476.85 842.186 1478.06 841.062C1482.73 836.653 1490.08 836.653 1494.75 841.062L1495.96 842.186 1512.99 858.354 1459.74 858.354ZM1456.97 823.339 1474.26 839.766 1456.97 856.193 1456.97 823.339ZM1469.07 801.292 1503.66 801.292 1503.66 830.082 1495.88 837.518C1490.26 833.195 1482.47 833.195 1476.85 837.518L1469.07 830.082 1469.07 801.292ZM1508.84 803.626 1508.84 796.104 1496.74 796.104 1486.36 787.458 1475.99 796.104 1463.89 796.104 1463.89 803.713 1451.78 815.212 1451.78 863.542 1520.95 863.542 1520.95 815.212 1508.84 803.626Z" fill="#FF0000"/></g></g></g><g><g><g><path d="M30.1739 22.4791 52.653 22.4791 52.653 25.9374 30.1739 25.9374Z" fill="#FF0000" transform="matrix(1 0 0 1 930 785)"/><path d="M30.1739 29.3958 52.653 29.3958 52.653 32.8541 30.1739 32.8541Z" fill="#FF0000" transform="matrix(1 0 0 1 930 785)"/><path d="M30.1739 36.3124 52.653 36.3124 52.653 39.7708 30.1739 39.7708Z" fill="#FF0000" transform="matrix(1 0 0 1 930 785)"/><path d="M71.7603 72.279 54.4686 55.852 71.7603 39.4249 71.7603 72.279ZM15.7354 74.354 32.8541 58.1863 34.0645 57.0624C38.7333 52.653 46.0822 52.653 50.7509 57.0624L51.9614 58.1863 68.9936 74.354 15.7354 74.354ZM12.9687 39.3385 30.2604 55.7655 12.9687 72.1926 12.9687 39.3385ZM25.0729 17.2916 59.6561 17.2916 59.6561 46.0822 51.8749 53.5176C46.2551 49.1947 38.4739 49.1947 32.8541 53.5176L25.0729 46.0822 25.0729 17.2916ZM64.8436 19.626 64.8436 12.1041 52.7395 12.1041 42.3645 3.45833 31.9895 12.1041 19.8854 12.1041 19.8854 19.7125 7.78123 31.2114 7.78123 79.5415 76.9478 79.5415 76.9478 31.2114 64.8436 19.626Z" fill="#FF0000" transform="matrix(1 0 0 1 930 785)"/></g></g></g><g><g><g><path d="M29.8103 22.2083 52.0186 22.2083 52.0186 25.6249 29.8103 25.6249Z" fill="#FF0000" transform="matrix(1 0 0 1 566 1592)"/><path d="M29.8103 29.0416 52.0186 29.0416 52.0186 32.4583 29.8103 32.4583Z" fill="#FF0000" transform="matrix(1 0 0 1 566 1592)"/><path d="M29.8103 35.8749 52.0186 35.8749 52.0186 39.2916 29.8103 39.2916Z" fill="#FF0000" transform="matrix(1 0 0 1 566 1592)"/><path d="M70.8957 71.4082 53.8124 55.179 70.8957 38.9499 70.8957 71.4082ZM15.5458 73.4582 32.4583 57.4853 33.6541 56.3749C38.2666 52.0186 45.527 52.0186 50.1395 56.3749L51.3353 57.4853 68.1623 73.4582 15.5458 73.4582ZM12.8125 38.8645 29.8958 55.0936 12.8125 71.3227 12.8125 38.8645ZM24.7708 17.0833 58.9374 17.0833 58.9374 45.527 51.2499 52.8728C45.6978 48.602 38.0103 48.602 32.4583 52.8728L24.7708 45.527 24.7708 17.0833ZM64.0623 19.3895 64.0623 11.9583 52.104 11.9583 41.8541 3.41666 31.6041 11.9583 19.6458 11.9583 19.6458 19.475 7.68748 30.8353 7.68748 78.5831 76.0207 78.5831 76.0207 30.8353 64.0623 19.3895Z" fill="#FF0000" transform="matrix(1 0 0 1 566 1592)"/></g></g></g><text font-family="Calibri,Calibri_MSFontService,sans-serif" font-weight="400" font-size="46" transform="matrix(1 0 0 1 683.746 1645)">Notification</text><g><g><g><path d="M1992.17 1411.48 2014.65 1411.48 2014.65 1414.94 1992.17 1414.94Z" fill="#FF0000"/><path d="M1992.17 1418.4 2014.65 1418.4 2014.65 1421.85 1992.17 1421.85Z" fill="#FF0000"/><path d="M1992.17 1425.31 2014.65 1425.31 2014.65 1428.77 1992.17 1428.77Z" fill="#FF0000"/><path d="M2033.76 1461.28 2016.47 1444.85 2033.76 1428.43 2033.76 1461.28ZM1977.74 1463.35 1994.85 1447.19 1996.06 1446.06C2000.73 1441.65 2008.08 1441.65 2012.75 1446.06L2013.96 1447.19 2030.99 1463.35 1977.74 1463.35ZM1974.97 1428.34 1992.26 1444.77 1974.97 1461.19 1974.97 1428.34ZM1987.07 1406.29 2021.66 1406.29 2021.66 1435.08 2013.88 1442.52C2008.26 1438.19 2000.47 1438.19 1994.85 1442.52L1987.07 1435.08 1987.07 1406.29ZM2026.84 1408.63 2026.84 1401.1 2014.74 1401.1 2004.36 1392.46 1993.99 1401.1 1981.89 1401.1 1981.89 1408.71 1969.78 1420.21 1969.78 1468.54 2038.95 1468.54 2038.95 1420.21 2026.84 1408.63Z" fill="#FF0000"/></g></g></g><rect x="563" y="1841" width="75.9999" height="79.9998" stroke="#FF0000" stroke-width="10.3125" stroke-linejoin="round" stroke-miterlimit="10" fill="none"/><text font-family="Calibri,Calibri_MSFontService,sans-serif" font-weight="400" font-size="46" transform="matrix(1 0 0 1 679.195 1897)">Notification</text><text font-family="Calibri,Calibri_MSFontService,sans-serif" font-weight="400" font-size="46" transform="matrix(1 0 0 1 908.362 1897)">Source </text><path d="M1.79286e-05-3.4375 46.2783-3.43726 46.2783 3.43774-1.79286e-05 3.4375ZM41.695-13.7498 69.195 0.000360892 41.6949 13.7502Z" transform="matrix(-1 0 0 1 636.695 1773.5)"/><text font-family="Calibri,Calibri_MSFontService,sans-serif" font-weight="400" font-size="46" transform="matrix(1 0 0 1 682.395 1776)">Notification</text><text font-family="Calibri,Calibri_MSFontService,sans-serif" font-weight="400" font-size="46" transform="matrix(1 0 0 1 911.562 1776)">direction</text><path d="M2349.5 731.5 2426.5 731.5 2426.5 731.5 2542 731.5 2811.5 731.5 2811.5 916.416 2811.5 916.416 2811.5 995.666 2811.5 1048.5 2542 1048.5 2484.25 1088.13 2426.5 1048.5 2349.5 1048.5 2349.5 995.666 2349.5 916.416 2349.5 916.416Z" stroke="#172C51" stroke-width="4.58333" stroke-miterlimit="8" fill="#FFFFFF" fill-rule="evenodd"/><text font-family="Calibri,Calibri_MSFontService,sans-serif" font-weight="400" font-size="32" transform="matrix(1 0 0 1 2361.75 781)">Message ID: 1</text><text font-family="Calibri,Calibri_MSFontService,sans-serif" font-weight="400" font-size="32" transform="matrix(1 0 0 1 2361.75 820)">Notification</text><text font-family="Calibri,Calibri_MSFontService,sans-serif" font-weight="400" font-size="32" transform="matrix(1 0 0 1 2523.89 820)">ID: 10</text><text font-family="Calibri,Calibri_MSFontService,sans-serif" font-weight="400" font-size="32" transform="matrix(1 0 0 1 2361.75 858)">Recipient</text><text font-family="Calibri,Calibri_MSFontService,sans-serif" font-weight="400" font-size="32" transform="matrix(1 0 0 1 2483.78 858)">: BPNL2</text><text font-family="Calibri,Calibri_MSFontService,sans-serif" font-weight="400" font-size="32" transform="matrix(1 0 0 1 2361.75 897)">Sender: BPNL1</text><text font-family="Calibri,Calibri_MSFontService,sans-serif" font-weight="400" font-size="32" transform="matrix(1 0 0 1 2361.75 935)">Root </text><text font-family="Calibri,Calibri_MSFontService,sans-serif" font-weight="400" font-size="32" transform="matrix(1 0 0 1 2431.65 935)">Cause</text><text font-family="Calibri,Calibri_MSFontService,sans-serif" font-weight="400" font-size="32" transform="matrix(1 0 0 1 2509.56 935)">: </text><text font-family="Calibri,Calibri_MSFontService,sans-serif" font-weight="400" font-size="32" transform="matrix(1 0 0 1 2525.61 935)">natural</text><text font-family="Calibri,Calibri_MSFontService,sans-serif" font-weight="400" font-size="32" transform="matrix(1 0 0 1 2627.01 935)">disaster</text><text font-family="Calibri,Calibri_MSFontService,sans-serif" font-weight="400" font-size="32" transform="matrix(1 0 0 1 2361.75 974)">Effect</text><text font-family="Calibri,Calibri_MSFontService,sans-serif" font-weight="400" font-size="32" transform="matrix(1 0 0 1 2437.38 974)">: </text><text font-family="Calibri,Calibri_MSFontService,sans-serif" font-weight="400" font-size="32" transform="matrix(1 0 0 1 2453.42 974)">Capacity</text><text font-family="Calibri,Calibri_MSFontService,sans-serif" font-weight="400" font-size="32" transform="matrix(1 0 0 1 2572.01 974)">decrease</text><text font-family="Calibri,Calibri_MSFontService,sans-serif" font-weight="400" font-size="32" transform="matrix(1 0 0 1 2361.75 1012)">Text: </text><text font-family="Calibri,Calibri_MSFontService,sans-serif" font-weight="400" font-size="32" transform="matrix(1 0 0 1 2433.94 1012)">Earthquake</text><text font-family="Calibri,Calibri_MSFontService,sans-serif" font-weight="400" font-size="32" transform="matrix(1 0 0 1 2590.35 1012)">in Country A</text><path d="M1842.5 524.5 1919.5 524.5 1919.5 524.5 2035 524.5 2304.5 524.5 2304.5 709.417 2304.5 709.417 2304.5 788.667 2304.5 841.5 2035 841.5 1977.25 881.125 1919.5 841.5 1842.5 841.5 1842.5 788.667 1842.5 709.417 1842.5 709.417Z" stroke="#172C51" stroke-width="4.58333" stroke-miterlimit="8" fill="#FFFFFF" fill-rule="evenodd"/><text font-family="Calibri,Calibri_MSFontService,sans-serif" font-weight="400" font-size="32" transform="matrix(1 0 0 1 1854.68 574)">Message ID: 3</text><text font-family="Calibri,Calibri_MSFontService,sans-serif" font-weight="400" font-size="32" transform="matrix(1 0 0 1 1854.68 613)">Notification</text><text font-family="Calibri,Calibri_MSFontService,sans-serif" font-weight="400" font-size="32" transform="matrix(1 0 0 1 2016.82 613)">ID: 20</text><text font-family="Calibri,Calibri_MSFontService,sans-serif" font-weight="400" font-size="32" transform="matrix(1 0 0 1 1854.68 651)">Recipient</text><text font-family="Calibri,Calibri_MSFontService,sans-serif" font-weight="400" font-size="32" transform="matrix(1 0 0 1 1976.72 651)">: BPNL3</text><text font-family="Calibri,Calibri_MSFontService,sans-serif" font-weight="400" font-size="32" transform="matrix(1 0 0 1 1854.68 690)">Sender: BPNL2</text><text font-family="Calibri,Calibri_MSFontService,sans-serif" font-weight="400" font-size="32" transform="matrix(1 0 0 1 1854.68 728)">Related</text><text font-family="Calibri,Calibri_MSFontService,sans-serif" font-weight="400" font-size="32" transform="matrix(1 0 0 1 1961.82 728)">Notification</text><text font-family="Calibri,Calibri_MSFontService,sans-serif" font-weight="400" font-size="32" transform="matrix(1 0 0 1 2123.96 728)">ID: 10</text><text font-family="Calibri,Calibri_MSFontService,sans-serif" font-weight="400" font-size="32" transform="matrix(1 0 0 1 1854.68 767)">Root </text><text font-family="Calibri,Calibri_MSFontService,sans-serif" font-weight="400" font-size="32" transform="matrix(1 0 0 1 1924.58 767)">Cause</text><text font-family="Calibri,Calibri_MSFontService,sans-serif" font-weight="400" font-size="32" transform="matrix(1 0 0 1 2002.5 767)">: Other</text><text font-family="Calibri,Calibri_MSFontService,sans-serif" font-weight="400" font-size="32" transform="matrix(1 0 0 1 1854.68 805)">Effect</text><text font-family="Calibri,Calibri_MSFontService,sans-serif" font-weight="400" font-size="32" transform="matrix(1 0 0 1 1930.31 805)">: </text><text font-family="Calibri,Calibri_MSFontService,sans-serif" font-weight="400" font-size="32" transform="matrix(1 0 0 1 1946.35 805)">Capacity</text><text font-family="Calibri,Calibri_MSFontService,sans-serif" font-weight="400" font-size="32" transform="matrix(1 0 0 1 2064.94 805)">decrease</text><path d="M1341.5 370.5 1418.67 370.5 1418.67 370.5 1534.42 370.5 1804.5 370.5 1804.5 555.417 1804.5 555.417 1804.5 634.667 1804.5 687.5 1534.42 687.5 1476.54 727.125 1418.67 687.5 1341.5 687.5 1341.5 634.667 1341.5 555.417 1341.5 555.417Z" stroke="#172C51" stroke-width="4.58333" stroke-miterlimit="8" fill="#FFFFFF" fill-rule="evenodd"/><text font-family="Calibri,Calibri_MSFontService,sans-serif" font-weight="400" font-size="32" transform="matrix(1 0 0 1 1354.14 419)">Message ID: 4</text><text font-family="Calibri,Calibri_MSFontService,sans-serif" font-weight="400" font-size="32" transform="matrix(1 0 0 1 1354.14 458)">Notification</text><text font-family="Calibri,Calibri_MSFontService,sans-serif" font-weight="400" font-size="32" transform="matrix(1 0 0 1 1516.28 458)">ID: 30</text><text font-family="Calibri,Calibri_MSFontService,sans-serif" font-weight="400" font-size="32" transform="matrix(1 0 0 1 1354.14 496)">Recipient</text><text font-family="Calibri,Calibri_MSFontService,sans-serif" font-weight="400" font-size="32" transform="matrix(1 0 0 1 1476.17 496)">: BPNL5</text><text font-family="Calibri,Calibri_MSFontService,sans-serif" font-weight="400" font-size="32" transform="matrix(1 0 0 1 1354.14 535)">Sender: BPNL3</text><text font-family="Calibri,Calibri_MSFontService,sans-serif" font-weight="400" font-size="32" transform="matrix(1 0 0 1 1354.14 573)">Related</text><text font-family="Calibri,Calibri_MSFontService,sans-serif" font-weight="400" font-size="32" transform="matrix(1 0 0 1 1461.28 573)">Notification</text><text font-family="Calibri,Calibri_MSFontService,sans-serif" font-weight="400" font-size="32" transform="matrix(1 0 0 1 1623.41 573)">ID: 20</text><text font-family="Calibri,Calibri_MSFontService,sans-serif" font-weight="400" font-size="32" transform="matrix(1 0 0 1 1354.14 612)">Source </text><text font-family="Calibri,Calibri_MSFontService,sans-serif" font-weight="400" font-size="32" transform="matrix(1 0 0 1 1451.54 612)">Notification</text><text font-family="Calibri,Calibri_MSFontService,sans-serif" font-weight="400" font-size="32" transform="matrix(1 0 0 1 1613.67 612)">ID: 10</text><text font-family="Calibri,Calibri_MSFontService,sans-serif" font-weight="400" font-size="32" transform="matrix(1 0 0 1 1354.14 650)">Effect</text><text font-family="Calibri,Calibri_MSFontService,sans-serif" font-weight="400" font-size="32" transform="matrix(1 0 0 1 1429.77 650)">: </text><text font-family="Calibri,Calibri_MSFontService,sans-serif" font-weight="400" font-size="32" transform="matrix(1 0 0 1 1445.81 650)">Capacity</text><text font-family="Calibri,Calibri_MSFontService,sans-serif" font-weight="400" font-size="32" transform="matrix(1 0 0 1 1564.4 650)">decrease</text><path d="M836.5 369.5 913.5 369.5 913.5 369.5 1029 369.5 1298.5 369.5 1298.5 554.417 1298.5 554.417 1298.5 633.667 1298.5 686.5 1029 686.5 971.251 726.125 913.5 686.5 836.5 686.5 836.5 633.667 836.5 554.417 836.5 554.417Z" stroke="#172C51" stroke-width="4.58333" stroke-miterlimit="8" fill="#FFFFFF" fill-rule="evenodd"/><text font-family="Calibri,Calibri_MSFontService,sans-serif" font-weight="400" font-size="32" transform="matrix(1 0 0 1 848.539 419)">Message ID: 5</text><text font-family="Calibri,Calibri_MSFontService,sans-serif" font-weight="400" font-size="32" transform="matrix(1 0 0 1 848.539 458)">Notification</text><text font-family="Calibri,Calibri_MSFontService,sans-serif" font-weight="400" font-size="32" transform="matrix(1 0 0 1 1010.67 458)">ID: 40</text><text font-family="Calibri,Calibri_MSFontService,sans-serif" font-weight="400" font-size="32" transform="matrix(1 0 0 1 848.539 496)">Recipient</text><text font-family="Calibri,Calibri_MSFontService,sans-serif" font-weight="400" font-size="32" transform="matrix(1 0 0 1 970.571 496)">: BPNL6</text><text font-family="Calibri,Calibri_MSFontService,sans-serif" font-weight="400" font-size="32" transform="matrix(1 0 0 1 848.539 535)">Sender: BPNL5</text><text font-family="Calibri,Calibri_MSFontService,sans-serif" font-weight="400" font-size="32" transform="matrix(1 0 0 1 848.539 573)">Related</text><text font-family="Calibri,Calibri_MSFontService,sans-serif" font-weight="400" font-size="32" transform="matrix(1 0 0 1 955.675 573)">Notification</text><text font-family="Calibri,Calibri_MSFontService,sans-serif" font-weight="400" font-size="32" transform="matrix(1 0 0 1 1117.81 573)">ID: 30</text><text font-family="Calibri,Calibri_MSFontService,sans-serif" font-weight="400" font-size="32" transform="matrix(1 0 0 1 848.539 612)">Source </text><text font-family="Calibri,Calibri_MSFontService,sans-serif" font-weight="400" font-size="32" transform="matrix(1 0 0 1 945.935 612)">Notification</text><text font-family="Calibri,Calibri_MSFontService,sans-serif" font-weight="400" font-size="32" transform="matrix(1 0 0 1 1108.07 612)">ID: 10</text><text font-family="Calibri,Calibri_MSFontService,sans-serif" font-weight="400" font-size="32" transform="matrix(1 0 0 1 848.539 650)">Effect</text><text font-family="Calibri,Calibri_MSFontService,sans-serif" font-weight="400" font-size="32" transform="matrix(1 0 0 1 924.164 650)">: </text><text font-family="Calibri,Calibri_MSFontService,sans-serif" font-weight="400" font-size="32" transform="matrix(1 0 0 1 940.206 650)">Capacity</text><text font-family="Calibri,Calibri_MSFontService,sans-serif" font-weight="400" font-size="32" transform="matrix(1 0 0 1 1058.8 650)">decrease</text><path d="M1879.5 1564.5 1956.83 1564.5 2010 1523.69 2072.83 1564.5 2343.5 1564.5 2343.5 1617.33 2343.5 1617.33 2343.5 1696.58 2343.5 1881.49 2072.83 1881.49 1956.83 1881.49 1956.83 1881.49 1879.5 1881.49 1879.5 1696.58 1879.5 1617.33 1879.5 1617.33Z" stroke="#172C51" stroke-width="4.58333" stroke-miterlimit="8" fill="#FFFFFF" fill-rule="evenodd"/><text font-family="Calibri,Calibri_MSFontService,sans-serif" font-weight="400" font-size="32" transform="matrix(1 0 0 1 1892.24 1614)">Message ID: 2</text><text font-family="Calibri,Calibri_MSFontService,sans-serif" font-weight="400" font-size="32" transform="matrix(1 0 0 1 1892.24 1653)">Notification</text><text font-family="Calibri,Calibri_MSFontService,sans-serif" font-weight="400" font-size="32" transform="matrix(1 0 0 1 2054.37 1653)">ID: 20</text><text font-family="Calibri,Calibri_MSFontService,sans-serif" font-weight="400" font-size="32" transform="matrix(1 0 0 1 1892.24 1691)">Recipient</text><text font-family="Calibri,Calibri_MSFontService,sans-serif" font-weight="400" font-size="32" transform="matrix(1 0 0 1 2014.27 1691)">: BPNL4</text><text font-family="Calibri,Calibri_MSFontService,sans-serif" font-weight="400" font-size="32" transform="matrix(1 0 0 1 1892.24 1730)">Sender: BPNL2</text><text font-family="Calibri,Calibri_MSFontService,sans-serif" font-weight="400" font-size="32" transform="matrix(1 0 0 1 1892.24 1768)">Related</text><text font-family="Calibri,Calibri_MSFontService,sans-serif" font-weight="400" font-size="32" transform="matrix(1 0 0 1 1999.37 1768)">Notification</text><text font-family="Calibri,Calibri_MSFontService,sans-serif" font-weight="400" font-size="32" transform="matrix(1 0 0 1 2161.51 1768)">ID: 10</text><text font-family="Calibri,Calibri_MSFontService,sans-serif" font-weight="400" font-size="32" transform="matrix(1 0 0 1 1892.24 1807)">Root </text><text font-family="Calibri,Calibri_MSFontService,sans-serif" font-weight="400" font-size="32" transform="matrix(1 0 0 1 1962.13 1807)">Cause</text><text font-family="Calibri,Calibri_MSFontService,sans-serif" font-weight="400" font-size="32" transform="matrix(1 0 0 1 2040.05 1807)">: Other</text><text font-family="Calibri,Calibri_MSFontService,sans-serif" font-weight="400" font-size="32" transform="matrix(1 0 0 1 1892.24 1845)">Effect</text><text font-family="Calibri,Calibri_MSFontService,sans-serif" font-weight="400" font-size="32" transform="matrix(1 0 0 1 1967.86 1845)">: </text><text font-family="Calibri,Calibri_MSFontService,sans-serif" font-weight="400" font-size="32" transform="matrix(1 0 0 1 1983.9 1845)">Capacity</text><text font-family="Calibri,Calibri_MSFontService,sans-serif" font-weight="400" font-size="32" transform="matrix(1 0 0 1 2102.5 1845)">decrease</text></g></svg>