<svg xmlns="http://www.w3.org/2000/svg" xmlns:xlink="http://www.w3.org/1999/xlink" contentStyleType="text/css" data-diagram-type="CLASS" height="529.6875px" preserveAspectRatio="none" style="width:404px;height:529px;background:#FFFFFF;" version="1.1" viewBox="0 0 404 529" width="404.1667px" zoomAndPan="magnify"><?plantuml 1.2026.6?><defs/><g><!--cluster Business Parter (Additional Address) w/ Multiple Sites--><g class="cluster" data-qualified-name="Business Parter .Additional Address. w. Multiple Sites" data-source-line="4" id="ent0001"><path d="M4.4271,3.125 L209.1502,3.125 A1.9531,1.9531 0 0 1 210.4523,4.4271 L214.0981,14.8376 L395.0521,14.8376 A1.3021,1.3021 0 0 1 396.3542,16.1397 L396.3542,520.6198 A1.3021,1.3021 0 0 1 395.0521,521.9219 L4.4271,521.9219 A1.3021,1.3021 0 0 1 3.125,520.6198 L3.125,4.4271 A1.3021,1.3021 0 0 1 4.4271,3.125" fill="none" style="stroke:#000000;stroke-width:0.7813;"/><line style="stroke:#000000;stroke-width:0.7813;" x1="3.125" x2="214.0981" y1="14.8376" y2="14.8376"/><text fill="#000000" font-family="sans-serif" font-size="7.2917" font-weight="700" lengthAdjust="spacing" textLength="204.2023" x="5.2083" y="11.2162">Business Parter (Additional Address) w/ Multiple Sites</text></g><g class="entity" data-qualified-name="Business Parter .Additional Address. w. Multiple Sites.LegalEntity" data-source-line="5" id="ent0002"><rect fill="#F1F1F1" height="32.0129" rx="1.3021" ry="1.3021" style="stroke:#181818;stroke-width:0.2604;" width="208.1451" x="179.7813" y="60"/><text fill="#000000" font-family="sans-serif" font-size="7.2917" lengthAdjust="spacing" textLength="38.4806" x="264.6135" y="68.0912">LegalEntity</text><line style="stroke:#181818;stroke-width:0.2604;" x1="180.3021" x2="387.4056" y1="70.671" y2="70.671"/><text fill="#000000" font-family="sans-serif" font-size="7.2917" lengthAdjust="spacing" textLength="201.8951" x="182.9063" y="79.8039">LegalName = "Dr. Ing. h.c. F. Porsche Aktiengesellschaft"</text><text fill="#000000" font-family="sans-serif" font-size="7.2917" lengthAdjust="spacing" textLength="94.9234" x="182.9063" y="88.3915">ShortName = "Porsche AG"</text></g><g class="entity" data-qualified-name="Business Parter .Additional Address. w. Multiple Sites.Address1" data-source-line="10" id="ent0003"><rect fill="#F1F1F1" height="66.3635" rx="1.3021" ry="1.3021" style="stroke:#181818;stroke-width:0.2604;" width="87.7614" x="271.224" y="170.7604"/><text fill="#000000" font-family="sans-serif" font-size="7.2917" lengthAdjust="spacing" textLength="33.3003" x="298.4545" y="178.8516">Address1</text><line style="stroke:#181818;stroke-width:0.2604;" x1="271.7448" x2="358.4646" y1="181.4314" y2="181.4314"/><text fill="#000000" font-family="sans-serif" font-size="7.2917" lengthAdjust="spacing" textLength="36.1415" x="274.349" y="190.5643">Name = ""</text><text fill="#000000" font-family="sans-serif" font-size="7.2917" lengthAdjust="spacing" textLength="53.3666" x="274.349" y="199.1519">Country = "DE"</text><text fill="#000000" font-family="sans-serif" font-size="7.2917" lengthAdjust="spacing" textLength="60.466" x="274.349" y="207.7396">City = "Stuttgart"</text><text fill="#000000" font-family="sans-serif" font-size="7.2917" lengthAdjust="spacing" textLength="78.1754" x="274.349" y="216.3272">PostalCode = "70435"</text><text fill="#000000" font-family="sans-serif" font-size="7.2917" lengthAdjust="spacing" textLength="81.5114" x="274.349" y="224.9149">Street = "Porscheplatz"</text><text fill="#000000" font-family="sans-serif" font-size="7.2917" lengthAdjust="spacing" textLength="70.9656" x="274.349" y="233.5025">HouseNumber = "1"</text></g><g class="entity" data-qualified-name="Business Parter .Additional Address. w. Multiple Sites.Address2" data-source-line="19" id="ent0004"><rect fill="#F1F1F1" height="66.3635" rx="1.3021" ry="1.3021" style="stroke:#181818;stroke-width:0.2604;" width="115.2761" x="52.2552" y="277.2292"/><text fill="#000000" font-family="sans-serif" font-size="7.2917" lengthAdjust="spacing" textLength="33.3003" x="93.2431" y="285.3204">Address2</text><line style="stroke:#181818;stroke-width:0.2604;" x1="52.776" x2="167.0105" y1="287.9001" y2="287.9001"/><text fill="#000000" font-family="sans-serif" font-size="7.2917" lengthAdjust="spacing" textLength="103.8066" x="55.3802" y="297.033">Name = "Pforte (Lieferanten)"</text><text fill="#000000" font-family="sans-serif" font-size="7.2917" lengthAdjust="spacing" textLength="53.3666" x="55.3802" y="305.6207">Country = "DE"</text><text fill="#000000" font-family="sans-serif" font-size="7.2917" lengthAdjust="spacing" textLength="60.466" x="55.3802" y="314.2083">City = "Stuttgart"</text><text fill="#000000" font-family="sans-serif" font-size="7.2917" lengthAdjust="spacing" textLength="78.1754" x="55.3802" y="322.796">PostalCode = "70435"</text><text fill="#000000" font-family="sans-serif" font-size="7.2917" lengthAdjust="spacing" textLength="109.0261" x="55.3802" y="331.3836">Street = "Schwieberdinger Str."</text><text fill="#000000" font-family="sans-serif" font-size="7.2917" lengthAdjust="spacing" textLength="80.187" x="55.3802" y="339.9713">HouseNumber = "130"</text></g><g class="entity" data-qualified-name="Business Parter .Additional Address. w. Multiple Sites.Address3" data-source-line="28" id="ent0005"><rect fill="#F1F1F1" height="66.3635" rx="1.3021" ry="1.3021" style="stroke:#181818;stroke-width:0.2604;" width="92.009" x="188.8906" y="277.2292"/><text fill="#000000" font-family="sans-serif" font-size="7.2917" lengthAdjust="spacing" textLength="33.3003" x="218.245" y="285.3204">Address3</text><line style="stroke:#181818;stroke-width:0.2604;" x1="189.4115" x2="280.3788" y1="287.9001" y2="287.9001"/><text fill="#000000" font-family="sans-serif" font-size="7.2917" lengthAdjust="spacing" textLength="78.891" x="192.0156" y="297.033">Name = "Hauptpforte"</text><text fill="#000000" font-family="sans-serif" font-size="7.2917" lengthAdjust="spacing" textLength="53.3666" x="192.0156" y="305.6207">Country = "DE"</text><text fill="#000000" font-family="sans-serif" font-size="7.2917" lengthAdjust="spacing" textLength="60.466" x="192.0156" y="314.2083">City = "Stuttgart"</text><text fill="#000000" font-family="sans-serif" font-size="7.2917" lengthAdjust="spacing" textLength="78.1754" x="192.0156" y="322.796">PostalCode = "70435"</text><text fill="#000000" font-family="sans-serif" font-size="7.2917" lengthAdjust="spacing" textLength="85.759" x="192.0156" y="331.3836">Street = "Porschestra&#223;e"</text><text fill="#000000" font-family="sans-serif" font-size="7.2917" lengthAdjust="spacing" textLength="75.5763" x="192.0156" y="339.9713">HouseNumber = "42"</text></g><g class="entity" data-qualified-name="Business Parter .Additional Address. w. Multiple Sites.Address4" data-source-line="37" id="ent0006"><rect fill="#F1F1F1" height="66.3635" rx="1.3021" ry="1.3021" style="stroke:#181818;stroke-width:0.2604;" width="115.2761" x="40.7969" y="447.224"/><text fill="#000000" font-family="sans-serif" font-size="7.2917" lengthAdjust="spacing" textLength="33.3003" x="81.7848" y="455.3152">Address4</text><line style="stroke:#181818;stroke-width:0.2604;" x1="41.3177" x2="155.5521" y1="457.8949" y2="457.8949"/><text fill="#000000" font-family="sans-serif" font-size="7.2917" lengthAdjust="spacing" textLength="85.0433" x="43.9219" y="467.0278">Name = "Werkseinfahrt"</text><text fill="#000000" font-family="sans-serif" font-size="7.2917" lengthAdjust="spacing" textLength="53.3666" x="43.9219" y="475.6155">Country = "DE"</text><text fill="#000000" font-family="sans-serif" font-size="7.2917" lengthAdjust="spacing" textLength="60.466" x="43.9219" y="484.2031">City = "Stuttgart"</text><text fill="#000000" font-family="sans-serif" font-size="7.2917" lengthAdjust="spacing" textLength="78.1754" x="43.9219" y="492.7908">PostalCode = "70435"</text><text fill="#000000" font-family="sans-serif" font-size="7.2917" lengthAdjust="spacing" textLength="109.0261" x="43.9219" y="501.3784">Street = "Schwieberdinger Str."</text><text fill="#000000" font-family="sans-serif" font-size="7.2917" lengthAdjust="spacing" textLength="80.187" x="43.9219" y="509.9661">HouseNumber = "100"</text></g><g class="entity" data-qualified-name="Business Parter .Additional Address. w. Multiple Sites.Site1" data-source-line="46" id="ent0007"><rect fill="#F1F1F1" height="23.4253" rx="1.3021" ry="1.3021" style="stroke:#181818;stroke-width:0.2604;" width="149.5733" x="103.3385" y="192.2292"/><text fill="#000000" font-family="sans-serif" font-size="7.2917" lengthAdjust="spacing" textLength="17.4352" x="169.4076" y="200.3204">Site1</text><line style="stroke:#181818;stroke-width:0.2604;" x1="103.8594" x2="252.391" y1="202.9001" y2="202.9001"/><text fill="#000000" font-family="sans-serif" font-size="7.2917" lengthAdjust="spacing" textLength="143.3233" x="106.4635" y="212.033">Name = "Porsche Zuffenhausen, Werk 2"</text></g><g class="entity" data-qualified-name="Business Parter .Additional Address. w. Multiple Sites.Site2" data-source-line="50" id="ent0008"><rect fill="#F1F1F1" height="23.4253" rx="1.3021" ry="1.3021" style="stroke:#181818;stroke-width:0.2604;" width="149.5733" x="35.1094" y="383.6979"/><text fill="#000000" font-family="sans-serif" font-size="7.2917" lengthAdjust="spacing" textLength="17.4352" x="101.1784" y="391.7891">Site2</text><line style="stroke:#181818;stroke-width:0.2604;" x1="35.6302" x2="184.1618" y1="394.3689" y2="394.3689"/><text fill="#000000" font-family="sans-serif" font-size="7.2917" lengthAdjust="spacing" textLength="143.3233" x="38.2344" y="403.5018">Name = "Porsche Zuffenhausen, Werk 5"</text></g><g class="entity" data-qualified-name="Business Parter .Additional Address. w. Multiple Sites.BusinessPartner" data-source-line="54" id="ent0009"><rect fill="#F1F1F1" height="109.3018" rx="1.3021" ry="1.3021" style="stroke:#181818;stroke-width:0.2604;" width="132.8501" x="11.6979" y="21.3542"/><text fill="#000000" font-family="sans-serif" font-size="7.2917" lengthAdjust="spacing" textLength="55.9052" x="50.1704" y="29.4454">BusinessPartner</text><line style="stroke:#181818;stroke-width:0.2604;" x1="12.2188" x2="144.0272" y1="32.0251" y2="32.0251"/><text fill="#000000" font-family="sans-serif" font-size="7.2917" lengthAdjust="spacing" textLength="126.6001" x="14.8229" y="41.158">AddressType = "AdditionalAddress"</text><text fill="#000000" font-family="sans-serif" font-size="7.2917" lengthAdjust="spacing" textLength="50.5503" x="14.8229" y="49.7457">NameParts = [</text><text fill="#000000" font-family="sans-serif" font-size="7.2917" lengthAdjust="spacing" textLength="87.8382" x="14.8229" y="58.3333">"Dr. Ing. h.c. F. Porsche",</text><text fill="#000000" font-family="sans-serif" font-size="7.2917" lengthAdjust="spacing" textLength="72.4859" x="14.8229" y="66.921">"Aktiengesellschaft",</text><text fill="#000000" font-family="sans-serif" font-size="7.2917" lengthAdjust="spacing" textLength="88.1658" x="14.8229" y="75.5086">"Porsche Zuffenhausen,",</text><text fill="#000000" font-family="sans-serif" font-size="7.2917" lengthAdjust="spacing" textLength="104.5614" x="14.8229" y="84.0963">"Werk 2, Pforte (Lieferanten)"]</text><text fill="#000000" font-family="sans-serif" font-size="7.2917" lengthAdjust="spacing" textLength="53.3666" x="14.8229" y="92.6839">Country = "DE"</text><text fill="#000000" font-family="sans-serif" font-size="7.2917" lengthAdjust="spacing" textLength="60.466" x="14.8229" y="101.2716">City = "Stuttgart"</text><text fill="#000000" font-family="sans-serif" font-size="7.2917" lengthAdjust="spacing" textLength="78.1754" x="14.8229" y="109.8592">PostalCode = "70435"</text><text fill="#000000" font-family="sans-serif" font-size="7.2917" lengthAdjust="spacing" textLength="109.0261" x="14.8229" y="118.4469">Street = "Schwieberdinger Str."</text><text fill="#000000" font-family="sans-serif" font-size="7.2917" lengthAdjust="spacing" textLength="80.187" x="14.8229" y="127.0345">HouseNumber = "130"</text></g><!--link BusinessPartner to LegalEntity--><g class="link" data-entity-1="ent0009" data-entity-2="ent0002" data-link-type="dependency" data-source-line="68" id="lnk10"><path codeLine="68" d="M144.776,76.0052 C155.9271,76.0052 165.125,76.0052 176.9479,76.0052" fill="none" id="BusinessPartner-to-LegalEntity" style="stroke:#181818;stroke-width:0.5208;"/><polygon fill="#181818" points="179.5521,76.0052,174.8646,73.9219,176.9479,76.0052,174.8646,78.0885,179.5521,76.0052" style="stroke:#181818;stroke-width:0.5208;stroke-linejoin:miter;stroke-miterlimit:10;"/><text fill="#000000" font-family="sans-serif" font-size="6.7708" lengthAdjust="spacing" textLength="16.2493" x="154.0938" y="72.6554">BPNL</text></g><!--link BusinessPartner to Site1--><g class="link" data-entity-1="ent0009" data-entity-2="ent0007" data-link-type="dependency" data-source-line="69" id="lnk11"><path codeLine="69" d="M120.9688,130.8906 C138.9948,153.7656 156.6693,176.1995 167.5964,190.0641" fill="none" id="BusinessPartner-to-Site1" style="stroke:#181818;stroke-width:0.5208;"/><polygon fill="#181818" points="169.2083,192.1094,167.943,187.1383,167.5964,190.0641,164.6706,189.7174,169.2083,192.1094" style="stroke:#181818;stroke-width:0.5208;stroke-linejoin:miter;stroke-miterlimit:10;"/><text fill="#000000" font-family="sans-serif" font-size="6.7708" lengthAdjust="spacing" textLength="16.2857" x="140.5417" y="153.3481">BPNS</text></g><!--link BusinessPartner to Site2--><g class="link" data-entity-1="ent0009" data-entity-2="ent0008" data-link-type="dependency" data-source-line="70" id="lnk12"><path codeLine="70" d="M51.6823,130.849 C36.8021,167.2344 22.0313,216.5521 26.5625,261.6042 C30.2865,298.599 23.5469,312.0417 43.2292,343.5938 C54.0521,360.9375 70.7352,373.3208 85.6623,382.1905" fill="none" id="BusinessPartner-to-Site2" style="stroke:#181818;stroke-width:0.5208;stroke-dasharray:3.6458,3.6458;"/><polygon fill="#181818" points="87.901,383.5208,84.9355,379.3353,85.6623,382.1905,82.8071,382.9173,87.901,383.5208" style="stroke:#181818;stroke-width:0.5208;stroke-linejoin:miter;stroke-miterlimit:10;"/><text fill="#000000" font-family="sans-serif" font-size="6.7708" lengthAdjust="spacing" textLength="49.0588" x="27.0833" y="259.8169">AdditionalSites</text></g><!--link BusinessPartner to Address2--><g class="link" data-entity-1="ent0009" data-entity-2="ent0004" data-link-type="dependency" data-source-line="71" id="lnk13"><path codeLine="71" d="M71.2865,130.875 C68.849,162.2813 68.349,202.3438 76.0417,237.125 C79.0677,250.7969 83.7765,262.6143 89.7921,274.7601" fill="none" id="BusinessPartner-to-Address2" style="stroke:#181818;stroke-width:0.5208;"/><polygon fill="#181818" points="90.9479,277.0938,90.7344,271.9686,89.7921,274.7601,87.0006,273.8179,90.9479,277.0938" style="stroke:#181818;stroke-width:0.5208;stroke-linejoin:miter;stroke-miterlimit:10;"/><text fill="#000000" font-family="sans-serif" font-size="6.7708" lengthAdjust="spacing" textLength="17.3106" x="76.5625" y="206.5825">BPNA</text></g><!--link LegalEntity to Address1--><g class="link" data-entity-1="ent0002" data-entity-2="ent0003" data-link-type="dependency" data-source-line="72" id="lnk14"><path codeLine="72" d="M274.4583,92.224 C266.0313,108.4531 256.25,134.276 265.1042,155.1354 C267.4375,160.6354 269.1163,163.7762 272.9236,168.5522" fill="none" id="LegalEntity-to-Address1" style="stroke:#181818;stroke-width:0.5208;stroke-dasharray:3.6458,3.6458;"/><polygon fill="#181818" points="274.5469,170.5885,273.254,165.6245,272.9236,168.5522,269.9959,168.2218,274.5469,170.5885" style="stroke:#181818;stroke-width:0.5208;stroke-linejoin:miter;stroke-miterlimit:10;"/><text fill="#000000" font-family="sans-serif" font-size="6.7708" lengthAdjust="spacing" textLength="43.941" x="265.625" y="153.3481">LegalAddress</text></g><!--reverse link LegalEntity to Address1--><g class="link" data-entity-1="ent0002" data-entity-2="ent0003" data-link-type="dependency" data-source-line="75" id="lnk18"><path codeLine="75" d="M293.0702,94.6001 C299.7525,108.4335 307.6823,126.9688 311.9792,146.2813 C313.7031,154.0417 314.6563,162.5313 315.151,170.5365" fill="none" id="LegalEntity-backto-Address1" style="stroke:#181818;stroke-width:0.5208;"/><polygon fill="#181818" points="291.9375,92.2552,292.1005,97.3822,293.0702,94.6001,295.8523,95.5699,291.9375,92.2552" style="stroke:#181818;stroke-width:0.5208;stroke-linejoin:miter;stroke-miterlimit:10;"/><text fill="#000000" font-family="sans-serif" font-size="6.7708" lengthAdjust="spacing" textLength="16.2493" x="313.9323" y="153.3481">BPNL</text></g><!--link Site1 to Address3--><g class="link" data-entity-1="ent0007" data-entity-2="ent0005" data-link-type="dependency" data-source-line="73" id="lnk15"><path codeLine="73" d="M170.651,215.7708 C163.7708,227.7292 155.7188,246.8646 163.5417,261.6042 C166.7865,267.7135 174.8254,274.2808 186.5493,282.0048" fill="none" id="Site1-to-Address3" style="stroke:#181818;stroke-width:0.5208;stroke-dasharray:3.6458,3.6458;"/><polygon fill="#181818" points="188.724,283.4375,185.9558,279.1189,186.5493,282.0048,183.6634,282.5984,188.724,283.4375" style="stroke:#181818;stroke-width:0.5208;stroke-linejoin:miter;stroke-miterlimit:10;"/><text fill="#000000" font-family="sans-serif" font-size="6.7708" lengthAdjust="spacing" textLength="54.2791" x="164.0625" y="259.8169">SiteMainAddress</text></g><!--reverse link Site1 to Address3--><g class="link" data-entity-1="ent0007" data-entity-2="ent0005" data-link-type="dependency" data-source-line="78" id="lnk23"><path codeLine="78" d="M193.0885,217.6971 C202.6667,226.7701 213.3542,238.474 220.8333,252.75 C224.7448,260.2135 227.599,268.8021 229.6667,277.0156" fill="none" id="Site1-backto-Address3" style="stroke:#181818;stroke-width:0.5208;"/><polygon fill="#181818" points="191.1979,215.9063,193.1683,220.6423,193.0885,217.6971,196.0337,217.6174,191.1979,215.9063" style="stroke:#181818;stroke-width:0.5208;stroke-linejoin:miter;stroke-miterlimit:10;"/><text fill="#000000" font-family="sans-serif" font-size="6.7708" lengthAdjust="spacing" textLength="16.2857" x="225.2969" y="259.8169">BPNS</text></g><!--link Site2 to Address4--><g class="link" data-entity-1="ent0008" data-entity-2="ent0006" data-link-type="dependency" data-source-line="74" id="lnk16"><path codeLine="74" d="M67.7031,407.3073 C60.6875,411.0885 54.3073,416.099 50,422.7448 C44.6615,430.9844 45.1644,437.2172 50.6749,444.8995" fill="none" id="Site2-to-Address4" style="stroke:#181818;stroke-width:0.5208;stroke-dasharray:3.6458,3.6458;"/><polygon fill="#181818" points="52.1927,447.0156,51.1535,441.9924,50.6749,444.8995,47.7677,444.4209,52.1927,447.0156" style="stroke:#181818;stroke-width:0.5208;stroke-linejoin:miter;stroke-miterlimit:10;"/><text fill="#000000" font-family="sans-serif" font-size="6.7708" lengthAdjust="spacing" textLength="54.2791" x="50.5208" y="429.8116">SiteMainAddress</text></g><!--reverse link Site2 to Address4--><g class="link" data-entity-1="ent0008" data-entity-2="ent0006" data-link-type="dependency" data-source-line="79" id="lnk25"><path codeLine="79" d="M109.2283,409.9646 C108.8325,416.9802 108.3229,423.5313 107.2917,431.599 C106.6563,436.5885 105.8385,441.8438 104.9635,446.974" fill="none" id="Site2-backto-Address4" style="stroke:#181818;stroke-width:0.5208;"/><polygon fill="#181818" points="109.375,407.3646,107.0309,411.9273,109.2283,409.9646,111.191,412.162,109.375,407.3646" style="stroke:#181818;stroke-width:0.5208;stroke-linejoin:miter;stroke-miterlimit:10;"/><text fill="#000000" font-family="sans-serif" font-size="6.7708" lengthAdjust="spacing" textLength="16.2857" x="108.7656" y="429.8116">BPNS</text></g><!--reverse link Site1 to Address2--><g class="link" data-entity-1="ent0007" data-entity-2="ent0004" data-link-type="dependency" data-source-line="76" id="lnk20"><path codeLine="76" d="M166.2525,217.8576 C158.065,227.3524 148.2344,239.4375 139.5833,252.75 C134.6198,260.3854 129.8073,268.9531 125.5521,277.0833" fill="none" id="Site1-backto-Address2" style="stroke:#181818;stroke-width:0.5208;"/><polygon fill="#181818" points="167.9531,215.8854,163.3142,218.0748,166.2525,217.8576,166.4697,220.7959,167.9531,215.8854" style="stroke:#181818;stroke-width:0.5208;stroke-linejoin:miter;stroke-miterlimit:10;"/><text fill="#000000" font-family="sans-serif" font-size="6.7708" lengthAdjust="spacing" textLength="16.2857" x="140.1042" y="259.8169">BPNS</text></g><!--link Address2 to Site2--><g class="link" data-entity-1="ent0004" data-entity-2="ent0008" data-link-type="dependency" data-source-line="77" id="lnk21"><path codeLine="77" d="M109.8958,343.6302 C109.8958,357.7188 109.8958,370.6719 109.8958,380.9115" fill="none" id="Address2-to-Site2" style="stroke:#181818;stroke-width:0.5208;stroke-dasharray:3.6458,3.6458;"/><polygon fill="#181818" points="109.8958,383.5156,111.9792,378.8281,109.8958,380.9115,107.8125,378.8281,109.8958,383.5156" style="stroke:#181818;stroke-width:0.5208;stroke-linejoin:miter;stroke-miterlimit:10;"/><text fill="#000000" font-family="sans-serif" font-size="6.7708" lengthAdjust="spacing" textLength="49.0588" x="110.4167" y="366.2856">AdditionalSites</text></g><!--reverse link LegalEntity to Site1--><g class="link" data-entity-1="ent0002" data-entity-2="ent0007" data-link-type="dependency" data-source-line="80" id="lnk27"><path codeLine="80" d="M269.2237,94.0841 C247.6612,119.9643 206.599,169.2448 187.6042,192.0417" fill="none" id="LegalEntity-backto-Site1" style="stroke:#181818;stroke-width:0.5208;"/><polygon fill="#181818" points="270.8906,92.0833,266.2895,94.3511,269.2237,94.0841,269.4907,97.0182,270.8906,92.0833" style="stroke:#181818;stroke-width:0.5208;stroke-linejoin:miter;stroke-miterlimit:10;"/><text fill="#000000" font-family="sans-serif" font-size="6.7708" lengthAdjust="spacing" textLength="16.2493" x="225.1823" y="153.3481">BPNL</text></g><!--reverse link LegalEntity to Site2--><g class="link" data-entity-1="ent0002" data-entity-2="ent0008" data-link-type="dependency" data-source-line="81" id="lnk29"><path codeLine="81" d="M306.8939,93.8273 C327.5084,110.6241 355.6042,137.7344 368.2292,170.7604 C378.7604,198.3125 377.4115,209.0938 368.2292,237.125 C349.9583,292.901 338.2917,310.0885 290.1042,343.5938 C259.125,365.1302 219.2188,377.6823 184.8385,384.9688" fill="none" id="LegalEntity-backto-Site2" style="stroke:#181818;stroke-width:0.5208;"/><polygon fill="#181818" points="304.875,92.1823,307.193,96.7583,306.8939,93.8273,309.8249,93.5282,304.875,92.1823" style="stroke:#181818;stroke-width:0.5208;stroke-linejoin:miter;stroke-miterlimit:10;"/><text fill="#000000" font-family="sans-serif" font-size="6.7708" lengthAdjust="spacing" textLength="16.2493" x="363.4219" y="259.8169">BPNL</text></g><?plantuml-src pPJFQjj04CRlUef1fmHirP5j2eOQd3Hj2eunk518w64ZZQIjvPNO7H7SacVfm_J5kjhLdrYLGY-XlMdd-sRsjwETLNikSYRP0SASmtpYE3aBzYn6S2yBnGKg1Lic2IMShSAG4yy4Iq5_IYsTm-CRk2rIudcAiEE4oeKV3a3sy0q3WZN6BBqMnEbemc0Z6tP0U0VkU-d19n5xa7Y11nyys6PI1Gd2QaySHOmAqrG7M4IkoTubcQGwkp5_BCKdfzssehkezgmJR8shh10aZsR_wofKykdrZWgYM9_MXhUP8fPUPQ79VZkPJUSL1ab4UiQGfuo-M-qcAnHkYiE3xfWsN0om-HssRQHFXd2svXYXP89GdBy2xov87Zbgjf3hzifIyVgvfvC1ycc7_8OLEUK6__KQh4YoNp-n5tNc3v3EEgHVKEuLSX6nf2RuHysT_D7SSdQwzxM-u7T55A58cAuXHb2U0lo-VF_ly-VT_7hOoraNcj9MgXhv-PYRWkq3K0bkir-PfxJdtaHWUBRTKUte6V96wqLlPTk34VHEpTV_P6owBHtByVBaHLp0vNQp7dBQ6s4yknwFvoshdxw0zh-O9tYeOlFqcA8h1qvelD1RjY_dmchLMbijpdFJL9lAw2tZujJdd_XclRvcft4nr9Q6rrWw_MZ4bnlHiBvGOzQAVYjQxp2TjG_fJyvl?></g></svg>