<svg xmlns="http://www.w3.org/2000/svg" xmlns:xlink="http://www.w3.org/1999/xlink" contentStyleType="text/css" data-diagram-type="CLASS" height="180.2083px" preserveAspectRatio="none" style="width:254px;height:180px;background:#FFFFFF;" version="1.1" viewBox="0 0 254 180" width="254.6875px" zoomAndPan="magnify"><?plantuml 1.2026.6?><defs/><g><!--cluster Address and References--><g class="cluster" data-qualified-name="Address and References" data-source-line="4" id="ent0001"><path d="M4.4271,3.125 L95.7769,3.125 A1.9531,1.9531 0 0 1 97.079,4.4271 L100.7248,14.8376 L225.2604,14.8376 A1.3021,1.3021 0 0 1 226.5625,16.1397 L226.5625,171.6042 A1.3021,1.3021 0 0 1 225.2604,172.9063 L4.4271,172.9063 A1.3021,1.3021 0 0 1 3.125,171.6042 L3.125,4.4271 A1.3021,1.3021 0 0 1 4.4271,3.125" fill="none" style="stroke:#000000;stroke-width:0.7813;"/><line style="stroke:#000000;stroke-width:0.7813;" x1="3.125" x2="100.7248" y1="14.8376" y2="14.8376"/><text fill="#000000" font-family="sans-serif" font-size="7.2917" font-weight="700" lengthAdjust="spacing" textLength="90.829" x="5.2083" y="11.2162">Address and References</text></g><!--class LegalEntity--><g class="entity" data-qualified-name="Address and References.LegalEntity" data-source-line="5" id="ent0002"><rect fill="#F1F1F1" height="16.6667" rx="1.3021" ry="1.3021" style="stroke:#181818;stroke-width:0.2604;" width="55.1473" x="150.5521" y="21.3542"/><ellipse cx="158.3646" cy="29.6875" fill="#ADD1B2" rx="5.7292" ry="5.7292" style="stroke:#181818;stroke-width:0.5208;"/><path d="M160.247,33.0729 L156.2263,33.0729 L156.2263,26.6182 L160.247,26.6182 L160.247,27.7423 L157.5017,27.7423 L157.5017,29.1344 L159.9876,29.1344 L159.9876,30.2584 L157.5017,30.2584 L157.5017,31.9489 L160.247,31.9489 Z " fill="#000000"/><text fill="#000000" font-family="sans-serif" font-size="7.2917" lengthAdjust="spacing" textLength="38.4806" x="165.6563" y="32.4432">LegalEntity</text></g><!--class Site--><g class="entity" data-qualified-name="Address and References.Site" data-source-line="7" id="ent0003"><rect fill="#F1F1F1" height="16.6667" rx="1.3021" ry="1.3021" style="stroke:#181818;stroke-width:0.2604;" width="29.4912" x="33.6927" y="21.3542"/><ellipse cx="41.5052" cy="29.6875" fill="#ADD1B2" rx="5.7292" ry="5.7292" style="stroke:#181818;stroke-width:0.5208;"/><path d="M43.3876,33.0729 L39.3669,33.0729 L39.3669,26.6182 L43.3876,26.6182 L43.3876,27.7423 L40.6423,27.7423 L40.6423,29.1344 L43.1282,29.1344 L43.1282,30.2584 L40.6423,30.2584 L40.6423,31.9489 L43.3876,31.9489 Z " fill="#000000"/><text fill="#000000" font-family="sans-serif" font-size="7.2917" lengthAdjust="spacing" textLength="12.8245" x="48.7969" y="32.4432">Site</text></g><!--class Address--><g class="entity" data-qualified-name="Address and References.Address" data-source-line="9" id="ent0004"><rect fill="#F1F1F1" height="38.0086" rx="1.3021" ry="1.3021" style="stroke:#181818;stroke-width:0.2604;" width="45.3562" x="91.3854" y="78.125"/><ellipse cx="99.1979" cy="86.4583" fill="#ADD1B2" rx="5.7292" ry="5.7292" style="stroke:#181818;stroke-width:0.5208;"/><path d="M101.0803,89.8438 L97.0597,89.8438 L97.0597,83.389 L101.0803,83.389 L101.0803,84.5131 L98.335,84.5131 L98.335,85.9052 L100.8209,85.9052 L100.8209,87.0293 L98.335,87.0293 L98.335,88.7197 L101.0803,88.7197 Z " fill="#000000"/><text fill="#000000" font-family="sans-serif" font-size="7.2917" lengthAdjust="spacing" textLength="28.6896" x="106.4896" y="89.2141">Address</text><line style="stroke:#181818;stroke-width:0.2604;" x1="91.9063" x2="136.2208" y1="94.7917" y2="94.7917"/><text fill="#000000" font-family="sans-serif" font-size="7.2917" lengthAdjust="spacing" textLength="18.6422" x="94.5104" y="103.9246">BPNA</text><text fill="#000000" font-family="sans-serif" font-size="7.2917" lengthAdjust="spacing" textLength="6.9214" x="94.5104" y="112.5122">...</text></g><!--class LegalAddress--><g class="entity" data-qualified-name="Address and References.LegalAddress" data-source-line="14" id="ent0005"><rect fill="#F1F1F1" height="16.6667" rx="1.3021" ry="1.3021" style="stroke:#181818;stroke-width:0.2604;" width="63.9877" x="128.9427" y="147.9063"/><ellipse cx="136.7552" cy="156.2396" fill="#ADD1B2" rx="5.7292" ry="5.7292" style="stroke:#181818;stroke-width:0.5208;"/><path d="M138.0433,159.4391 Q137.7407,159.5947 137.4078,159.6726 Q137.0749,159.7504 136.7074,159.7504 Q135.4018,159.7504 134.7143,158.89 Q134.0269,158.0297 134.0269,156.4041 Q134.0269,154.7742 134.7143,153.9139 Q135.4018,153.0535 136.7074,153.0535 Q137.0749,153.0535 137.4121,153.1314 Q137.7493,153.2092 138.0433,153.3648 L138.0433,154.7829 Q137.7147,154.4802 137.4056,154.3397 Q137.0965,154.1992 136.7679,154.1992 Q136.0675,154.1992 135.7109,154.7548 Q135.3542,155.3103 135.3542,156.4041 Q135.3542,157.4936 135.7109,158.0491 Q136.0675,158.6047 136.7679,158.6047 Q137.0965,158.6047 137.4056,158.4642 Q137.7147,158.3237 138.0433,158.021 Z " fill="#000000"/><text fill="#000000" font-family="sans-serif" font-size="7.2917" lengthAdjust="spacing" textLength="47.3211" x="144.0469" y="158.9953">LegalAddress</text></g><!--class MainAddress--><g class="entity" data-qualified-name="Address and References.MainAddress" data-source-line="16" id="ent0006"><rect fill="#F1F1F1" height="16.6667" rx="1.3021" ry="1.3021" style="stroke:#181818;stroke-width:0.2604;" width="62.2965" x="24.0625" y="147.9063"/><ellipse cx="31.875" cy="156.2396" fill="#ADD1B2" rx="5.7292" ry="5.7292" style="stroke:#181818;stroke-width:0.5208;"/><path d="M33.1631,159.4391 Q32.8605,159.5947 32.5276,159.6726 Q32.1947,159.7504 31.8272,159.7504 Q30.5215,159.7504 29.8341,158.89 Q29.1467,158.0297 29.1467,156.4041 Q29.1467,154.7742 29.8341,153.9139 Q30.5215,153.0535 31.8272,153.0535 Q32.1947,153.0535 32.5319,153.1314 Q32.8691,153.2092 33.1631,153.3648 L33.1631,154.7829 Q32.8345,154.4802 32.5254,154.3397 Q32.2163,154.1992 31.8877,154.1992 Q31.1873,154.1992 30.8307,154.7548 Q30.474,155.3103 30.474,156.4041 Q30.474,157.4936 30.8307,158.0491 Q31.1873,158.6047 31.8877,158.6047 Q32.2163,158.6047 32.5254,158.4642 Q32.8345,158.3237 33.1631,158.021 Z " fill="#000000"/><text fill="#000000" font-family="sans-serif" font-size="7.2917" lengthAdjust="spacing" textLength="45.6299" x="39.1667" y="158.9953">MainAddress</text></g><!--reverse link LegalEntity to Address--><g class="link" data-entity-1="ent0002" data-entity-2="ent0004" data-link-type="aggregation" data-source-line="18" id="lnk8"><path codeLine="18" d="M166.0563,42.7167 C156.6397,52.4771 144.7604,64.7917 132.1406,77.875" fill="none" id="LegalEntity-backto-Address" style="stroke:#181818;stroke-width:0.5208;"/><polygon fill="none" points="170.3958,38.2188,166.7268,39.0212,166.0563,42.7167,169.7254,41.9142,170.3958,38.2188" style="stroke:#181818;stroke-width:0.5208;stroke-linejoin:miter;stroke-miterlimit:10;"/><text fill="#000000" font-family="sans-serif" font-size="6.7708" lengthAdjust="spacing" textLength="48.3711" x="154.2344" y="60.7127">LegalEntityBPN</text><text fill="#000000" font-family="sans-serif" font-size="6.7708" lengthAdjust="spacing" textLength="4.2814" x="163.1195" y="48.755">1</text><text fill="#000000" font-family="sans-serif" font-size="6.7708" lengthAdjust="spacing" textLength="11.8291" x="122.9148" y="72.4975">1..*</text></g><!--reverse link Site to Address--><g class="link" data-entity-1="ent0003" data-entity-2="ent0004" data-link-type="aggregation" data-source-line="19" id="lnk10"><path codeLine="19" d="M44.0435,44.3078 C42.1841,51.2453 42.4115,55.2292 46.875,62.5 C47.2083,63.0417 71.9271,75.5104 91.2813,85.2188" fill="none" id="Site-backto-Address" style="stroke:#181818;stroke-width:0.5208;"/><polygon fill="none" points="45.6615,38.2708,42.8401,40.75,44.0435,44.3078,46.8648,41.8286,45.6615,38.2708" style="stroke:#181818;stroke-width:0.5208;stroke-linejoin:miter;stroke-miterlimit:10;"/><text fill="#000000" font-family="sans-serif" font-size="6.7708" lengthAdjust="spacing" textLength="24.5476" x="47.3958" y="60.7127">SiteBPN</text><text fill="#000000" font-family="sans-serif" font-size="6.7708" lengthAdjust="spacing" textLength="12.8474" x="30.4502" y="48.6666">0..1</text><text fill="#000000" font-family="sans-serif" font-size="6.7708" lengthAdjust="spacing" textLength="11.8291" x="75.3085" y="81.4444">1..*</text></g><!--reverse link Site to Address--><g class="link" data-entity-1="ent0003" data-entity-2="ent0004" data-link-type="aggregation" data-source-line="20" id="lnk12"><path codeLine="20" d="M62.4878,42.3742 C67.5346,46.8065 69.1146,48.3438 74.4792,53.6458 C82.3438,61.4167 90.6823,70.3594 97.6719,78.0677" fill="none" id="Site-backto-Address-1" style="stroke:#181818;stroke-width:0.5208;"/><polygon fill="none" points="57.7917,38.25,58.765,41.8775,62.4878,42.3742,61.5145,38.7467,57.7917,38.25" style="stroke:#181818;stroke-width:0.5208;stroke-linejoin:miter;stroke-miterlimit:10;"/><text fill="#000000" font-family="sans-serif" font-size="6.7708" lengthAdjust="spacing" textLength="49.0588" x="82.8438" y="60.7127">AdditionalSites</text><text fill="#000000" font-family="sans-serif" font-size="6.7708" lengthAdjust="spacing" textLength="3.2631" x="57.172" y="48.7962">*</text><text fill="#000000" font-family="sans-serif" font-size="6.7708" lengthAdjust="spacing" textLength="3.2631" x="91.2493" y="72.5814">*</text></g><!--link LegalEntity to LegalAddress--><g class="link" data-entity-1="ent0002" data-entity-2="ent0005" data-link-type="dependency" data-source-line="22" id="lnk13"><path codeLine="22" d="M192.6458,38.2604 C198.1354,42.1302 203.7708,47.3177 206.7708,53.6458 C208.4583,57.2031 207.6615,58.6667 206.7708,62.5 C198.8854,96.401 178.2836,130.0054 167.9138,145.5523" fill="none" id="LegalEntity-to-LegalAddress" style="stroke:#181818;stroke-width:0.5208;"/><polygon fill="#181818" points="166.4688,147.7188,170.803,144.9751,167.9138,145.5523,167.3366,142.6631,166.4688,147.7188" style="stroke:#181818;stroke-width:0.5208;stroke-linejoin:miter;stroke-miterlimit:10;"/><text fill="#000000" font-family="sans-serif" font-size="6.7708" lengthAdjust="spacing" textLength="43.941" x="202.7083" y="99.77">LegalAddress</text><text fill="#000000" font-family="sans-serif" font-size="6.7708" lengthAdjust="spacing" textLength="4.2814" x="192.4617" y="48.8099">1</text><text fill="#000000" font-family="sans-serif" font-size="6.7708" lengthAdjust="spacing" textLength="4.2814" x="163.4635" y="142.3626">1</text></g><!--reverse link Address to LegalAddress--><g class="link" data-entity-1="ent0004" data-entity-2="ent0005" data-link-type="extension" data-source-line="23" id="lnk15"><path codeLine="23" d="M135.0411,123.6374 C143.6088,134.2468 147.9896,139.6823 154.4948,147.7344" fill="none" id="Address-backto-LegalAddress" style="stroke:#181818;stroke-width:0.5208;"/><polygon fill="none" points="129.151,116.3438,132.6099,125.6008,137.4723,121.6741,129.151,116.3438" style="stroke:#181818;stroke-width:0.5208;stroke-linejoin:miter;stroke-miterlimit:10;"/></g><!--link Site to MainAddress--><g class="link" data-entity-1="ent0003" data-entity-2="ent0006" data-link-type="dependency" data-source-line="25" id="lnk16"><path codeLine="25" d="M44.9792,38.0729 C43.1771,42.5469 41.1406,48.3073 40.1042,53.6458 C34.8021,80.9115 33.7188,88.8802 39.0625,116.1354 C41.3073,127.5677 45.6891,137.5435 49.6578,145.3455" fill="none" id="Site-to-MainAddress" style="stroke:#181818;stroke-width:0.5208;"/><polygon fill="#181818" points="50.8385,147.6667,50.5702,142.5441,49.6578,145.3455,46.8564,144.4332,50.8385,147.6667" style="stroke:#181818;stroke-width:0.5208;stroke-linejoin:miter;stroke-miterlimit:10;"/><text fill="#000000" font-family="sans-serif" font-size="6.7708" lengthAdjust="spacing" textLength="42.3706" x="39.5833" y="99.77">MainAddress</text><text fill="#000000" font-family="sans-serif" font-size="6.7708" lengthAdjust="spacing" textLength="4.2814" x="44.5424" y="48.7173">1</text><text fill="#000000" font-family="sans-serif" font-size="6.7708" lengthAdjust="spacing" textLength="4.2814" x="44.5525" y="142.2933">1</text></g><!--reverse link Address to MainAddress--><g class="link" data-entity-1="ent0004" data-entity-2="ent0006" data-link-type="extension" data-source-line="26" id="lnk18"><path codeLine="26" d="M88.442,122.9291 C77.692,133.5385 71.4635,139.6823 63.2969,147.7344" fill="none" id="Address-backto-MainAddress" style="stroke:#181818;stroke-width:0.5208;"/><polygon fill="none" points="95.1146,116.3438,86.2468,120.7049,90.6371,125.1533,95.1146,116.3438" style="stroke:#181818;stroke-width:0.5208;stroke-linejoin:miter;stroke-miterlimit:10;"/></g><?plantuml-src TL2nhi8m3Dpx5LP6f4QyWQK34aXiy8JW2qnZ8A9DgoOCYCU_FoSba22nfFQTVNUrlMZJuu0jg5x3R5eKFTONF168XL83MGje5EpeI0EPcgo0Um50ncbtWpMTi5cDzVt1-9lQQqUVM5Jq2W3BxUyY559A_ZuAVke6cG-oh-64sA0sEHuxyIFbH41vBJkkHPQiIZjs_ROsbP8tVV0gl1-Zhxd9ECIwp6cdEuED1wmFb1hx86KvVmUAMbNMngt8iilVFFfwpU2MYgLtgB8EmhrJ95VZevsr8cZ9dJjbnoPpRwazqF1aKg6CI7yp8qBM9_8F?></g></svg>