<?xml version="1.0" encoding="UTF-8" standalone="no"?>
<!DOCTYPE svg PUBLIC "-//W3C//DTD SVG 1.1//EN" "http://www.w3.org/Graphics/SVG/1.1/DTD/svg11.dtd">
<!-- Generated by Microsoft Visio, SVG Export End-to-End_Encryption.svg Page-1 -->
<svg xmlns="http://www.w3.org/2000/svg" xmlns:xlink="http://www.w3.org/1999/xlink" xmlns:ev="http://www.w3.org/2001/xml-events"
		width="14.5695in" height="4.53798in" viewBox="0 0 1049 326.734" xml:space="preserve" color-interpolation-filters="sRGB"
		class="st17">
	<style type="text/css">
	<![CDATA[
		.st1 {fill:#ffffff;stroke:none;stroke-linecap:round;stroke-linejoin:round;stroke-width:0.75}
		.st2 {fill:#d8d8d8;stroke:#000000;stroke-linecap:round;stroke-linejoin:round;stroke-width:0.75}
		.st3 {fill:#000000;font-family:Calibri;font-size:0.666664em}
		.st4 {fill:#000000;stroke:none;stroke-linecap:round;stroke-linejoin:round;stroke-width:6.375}
		.st5 {font-size:1em}
		.st6 {fill:#d8d8d8;stroke:#000000;stroke-dasharray:5.25,3.75;stroke-linecap:round;stroke-linejoin:round;stroke-width:0.75}
		.st7 {fill:#000000;font-family:Calibri;font-size:1.00001em}
		.st8 {fill:#ffffff;stroke:#000000;stroke-linecap:round;stroke-linejoin:round;stroke-width:0.75}
		.st9 {fill:#ffffff;stroke:#000000;stroke-linecap:round;stroke-linejoin:round;stroke-width:0.24}
		.st10 {fill:#000000;font-family:Calibri;font-size:0.833336em}
		.st11 {stroke:#000000;stroke-linecap:round;stroke-linejoin:round;stroke-width:0.75}
		.st12 {stroke:#000000;stroke-dasharray:0.75,1.5;stroke-linecap:round;stroke-linejoin:round;stroke-width:0.75}
		.st13 {marker-end:url(#mrkr13-81);stroke:#000000;stroke-linecap:round;stroke-linejoin:round;stroke-width:0.75}
		.st14 {fill:#000000;fill-opacity:1;stroke:#000000;stroke-opacity:1;stroke-width:0.22935779816514}
		.st15 {fill:#ffffff;stroke:none;stroke-linecap:butt;stroke-width:7.2}
		.st16 {fill:none;stroke:none;stroke-linecap:round;stroke-linejoin:round;stroke-width:0.75}
		.st17 {fill:none;fill-rule:evenodd;font-size:12px;overflow:visible;stroke-linecap:square;stroke-miterlimit:3}
	]]>
	</style>

	<defs id="Markers">
		<g id="lend13">
			<path d="M 3 1 L 0 0 L 3 -1 L 3 1 " style="stroke:none"/>
		</g>
		<marker id="mrkr13-81" class="st14" refX="-13.08" orient="auto" markerUnits="strokeWidth" overflow="visible">
			<use xlink:href="#lend13" transform="scale(-4.36,-4.36) "/>
		</marker>
	</defs>
	<g>
		<title>Page-1</title>
		<g id="shape1042-1" transform="translate(0.375,-0.375)">
			<title>Sheet.1042</title>
			<rect x="0" y="0.750005" width="1048.25" height="325.984" class="st1"/>
		</g>
		<g id="shape1007-3" transform="translate(467.525,-198.233)">
			<title>Sheet.1007</title>
			<desc>TLS encrypted HTTP Request</desc>
			<rect x="0" y="227.522" width="113.386" height="99.2126" class="st2"/>
			<text x="10.27" y="238.72" class="st3">TLS encrypted HTTP Request</text>		</g>
		<g id="group1000-6" transform="translate(510.044,-244.721)">
			<title>Envelope</title>
			<desc>Encrypted Secret (HTTP payload)</desc>
			<g id="shape1001-7">
				<title>Sheet.1001</title>
				<path d="M19.31 316.42 L26.22 323.53 L26.22 309.5 L19.31 316.42 ZM10.06 317.44 L3.15 324.55 L25.23 324.55 L18.35
							 317.44 L15.7 320.1 C15.27 320.5 14.74 320.72 14.21 320.72 C13.68 320.72 13.15 320.5 12.72 320.1 L10.06
							 317.44 ZM9.04 316.42 L2.13 309.46 L2.13 323.56 L9.04 316.42 ZM14.67 319.04 L25.19 308.51 L3.19 308.51
							 L13.68 319.04 C13.96 319.34 14.39 319.34 14.67 319.04 ZM0 306.32 L28.35 306.32 L28.35 326.73 L0 326.73
							 L0 306.32 Z" class="st4"/>
			</g>
			<g id="shape1000-9">
				<text x="-13.46" y="337.94" class="st3">Encrypted Secret <tspan x="-10.49" dy="1.2em" class="st5">(HTTP payload)</tspan></text>			</g>
		</g>
		<g id="shape1002-12" transform="translate(609.257,-28.1545)">
			<title>Sheet.1002</title>
			<desc>Data Consumer</desc>
			<path d="M0 326.73 L411.02 326.73 L411.02 170.83 L0 170.83 L0 326.73 Z" class="st6"/>
			<text x="167.82" y="185.63" class="st7">Data Consumer</text>		</g>
		<g id="shape1003-15" transform="translate(28.1545,-28.1545)">
			<title>Sheet.1003</title>
			<desc>Data Provider</desc>
			<path d="M0 326.73 L411.02 326.73 L411.02 170.83 L0 170.83 L0 326.73 Z" class="st6"/>
			<text x="172.03" y="185.63" class="st7">Data Provider</text>		</g>
		<g id="shape1004-18" transform="translate(339.966,-42.3278)">
			<title>Sheet.1004</title>
			<desc>Catena-X Connector</desc>
			<rect x="0" y="213.348" width="85.0394" height="113.386" class="st8"/>
			<text x="20.47" y="228.15" class="st7">Catena-X <tspan x="17.06" dy="1.2em" class="st5">Connector </tspan></text>		</g>
		<g id="shape1005-22" transform="translate(623.43,-42.3278)">
			<title>Sheet.1005</title>
			<desc>Catena-X Connector</desc>
			<rect x="0" y="213.348" width="85.0394" height="113.386" class="st8"/>
			<text x="20.47" y="228.15" class="st7">Catena-X <tspan x="17.06" dy="1.2em" class="st5">Connector</tspan></text>		</g>
		<g id="shape1006-26" transform="translate(623.43,-99.0207) scale(-1,1)">
			<title>Simple Arrow.1007</title>
			<desc>HTTPS</desc>
			<path d="M0 326.73 L11.34 315.4 L11.34 321.06 L198.43 321.06 L198.43 326.73 L198.43 332.4 L11.34 332.4 L11.34 338.07
						 L0 326.73 Z" class="st9"/>
			<text x="-112.08" y="329.73" transform="scale(-1,1)" class="st10">HTTPS</text>		</g>
		<g id="shape1008-29" transform="translate(467.525,-283.273)">
			<title>Sheet.1008</title>
			<path d="M0 326.73 L113.39 326.73" class="st11"/>
		</g>
		<g id="shape1009-32" transform="translate(517.131,-198.233)">
			<title>Dynamic connector.1017</title>
			<path d="M7.09 326.73 L7.09 420.28" class="st12"/>
		</g>
		<g id="shape1010-35" transform="translate(750.989,-99.0207) scale(-1,1)">
			<title>Simple Arrow.1032</title>
			<path d="M0 326.73 L11.34 315.4 L11.34 321.06 L42.52 321.06 L42.52 326.73 L42.52 332.4 L11.34 332.4 L11.34 338.07 L0
						 326.73 Z" class="st9"/>
		</g>
		<g id="group1011-37" transform="translate(226.58,-63.5876)">
			<title>Cloud.1033</title>
			<g id="shape1012-38" transform="translate(0,-15.1187)">
				<title>Sheet.1012</title>
				<path d="M61.14 297.17 C60.76 293.83 57.72 291.21 53.98 291.21 C52.91 291.21 51.91 291.43 51.01 291.8 C49.25 288.52
							 45.6 286.11 38.77 286.3 C29.89 286.55 19.38 290.55 17.26 297.64 C14.73 298.12 13.1 299.5 12.13 301.32
							 C11.74 301.28 11.34 301.26 10.93 301.26 C5.08 301.26 0.59 305.53 0.33 310.78 C0 317.58 5.08 320.3 10.93
							 320.3 C11.76 320.3 12.57 320.21 13.35 320.04 C14.57 320.83 16.15 321.32 17.89 321.32 C19.49 321.32 20.97
							 320.9 22.14 320.21 C24.39 324.04 29.02 326.73 34.36 326.42 C39.97 326.09 43.34 324.9 45.33 323.05 C45.46
							 323.03 45.57 323.03 45.7 323.02 C51.98 322.21 54.74 320.59 55.63 317.91 C55.79 317.91 55.96 317.92 56.13
							 317.92 C64.27 317.92 70.87 315.54 70.87 307.21 C70.87 302.58 66.8 298.67 61.14 297.17 Z" class="st8"/>
			</g>
		</g>
		<g id="shape1013-40" transform="translate(42.3278,-42.3278)">
			<title>Sheet.1013</title>
			<desc>Source System</desc>
			<rect x="0" y="213.348" width="141.732" height="113.386" class="st8"/>
			<text x="35.21" y="228.15" class="st7">Source System</text>		</g>
		<g id="shape1014-43" transform="translate(226.58,-99.0207) scale(-1,1)">
			<title>Simple Arrow.1043</title>
			<path d="M0 326.73 L11.34 315.4 L11.34 321.06 L42.52 321.06 L42.52 326.73 L42.52 332.4 L11.34 332.4 L11.34 338.07 L0
						 326.73 Z" class="st9"/>
		</g>
		<g id="shape1015-45" transform="translate(339.966,-99.0207) scale(-1,1)">
			<title>Simple Arrow.1044</title>
			<path d="M0 326.73 L11.34 315.4 L11.34 321.06 L42.52 321.06 L42.52 326.73 L42.52 332.4 L11.34 332.4 L11.34 338.07 L0
						 326.73 Z" class="st9"/>
		</g>
		<g id="group1016-47" transform="translate(750.989,-63.5876)">
			<title>Cloud.1045</title>
			<g id="shape1017-48" transform="translate(0,-15.1187)">
				<title>Sheet.1017</title>
				<path d="M61.14 297.17 C60.76 293.83 57.72 291.21 53.98 291.21 C52.91 291.21 51.91 291.43 51.01 291.8 C49.25 288.52
							 45.6 286.11 38.77 286.3 C29.89 286.55 19.38 290.55 17.26 297.64 C14.73 298.12 13.1 299.5 12.13 301.32
							 C11.74 301.28 11.34 301.26 10.93 301.26 C5.08 301.26 0.59 305.53 0.33 310.78 C0 317.58 5.08 320.3 10.93
							 320.3 C11.76 320.3 12.57 320.21 13.35 320.04 C14.57 320.83 16.15 321.32 17.89 321.32 C19.49 321.32 20.97
							 320.9 22.14 320.21 C24.39 324.04 29.02 326.73 34.36 326.42 C39.97 326.09 43.34 324.9 45.33 323.05 C45.46
							 323.03 45.57 323.03 45.7 323.02 C51.98 322.21 54.74 320.59 55.63 317.91 C55.79 317.91 55.96 317.92 56.13
							 317.92 C64.27 317.92 70.87 315.54 70.87 307.21 C70.87 302.58 66.8 298.67 61.14 297.17 Z" class="st8"/>
			</g>
		</g>
		<g id="shape1018-50" transform="translate(864.375,-42.3278)">
			<title>Sheet.1018</title>
			<desc>Destination System</desc>
			<rect x="0" y="213.348" width="141.732" height="113.386" class="st8"/>
			<text x="23.76" y="228.15" class="st7">Destination System</text>		</g>
		<g id="shape1019-53" transform="translate(864.375,-99.0207) rotate(2.40319E-06) scale(-1,1)">
			<title>Simple Arrow.1055</title>
			<path d="M0 326.73 L11.34 315.4 L11.34 321.06 L42.52 321.06 L42.52 326.73 L42.52 332.4 L11.34 332.4 L11.34 338.07 L0
						 326.73 Z" class="st9"/>
		</g>
		<g id="group1020-55" transform="translate(368.312,-88.816)">
			<title>Envelope.1056</title>
			<desc>Encrypted Secret</desc>
			<g id="shape1021-56">
				<title>Sheet.1021</title>
				<path d="M19.31 316.42 L26.22 323.53 L26.22 309.5 L19.31 316.42 ZM10.06 317.44 L3.15 324.55 L25.23 324.55 L18.35
							 317.44 L15.7 320.1 C15.27 320.5 14.74 320.72 14.21 320.72 C13.68 320.72 13.15 320.5 12.72 320.1 L10.06
							 317.44 ZM9.04 316.42 L2.13 309.46 L2.13 323.56 L9.04 316.42 ZM14.67 319.04 L25.19 308.51 L3.19 308.51
							 L13.68 319.04 C13.96 319.34 14.39 319.34 14.67 319.04 ZM0 306.32 L28.35 306.32 L28.35 326.73 L0 326.73
							 L0 306.32 Z" class="st4"/>
			</g>
			<g id="shape1020-58">
				<text x="-13.46" y="337.94" class="st3">Encrypted Secret</text>			</g>
		</g>
		<g id="group1022-60" transform="translate(651.777,-88.816)">
			<title>Envelope.1058</title>
			<desc>Encrypted Secret</desc>
			<g id="shape1023-61">
				<title>Sheet.1023</title>
				<path d="M19.31 316.42 L26.22 323.53 L26.22 309.5 L19.31 316.42 ZM10.06 317.44 L3.15 324.55 L25.23 324.55 L18.35
							 317.44 L15.7 320.1 C15.27 320.5 14.74 320.72 14.21 320.72 C13.68 320.72 13.15 320.5 12.72 320.1 L10.06
							 317.44 ZM9.04 316.42 L2.13 309.46 L2.13 323.56 L9.04 316.42 ZM14.67 319.04 L25.19 308.51 L3.19 308.51
							 L13.68 319.04 C13.96 319.34 14.39 319.34 14.67 319.04 ZM0 306.32 L28.35 306.32 L28.35 326.73 L0 326.73
							 L0 306.32 Z" class="st4"/>
			</g>
			<g id="shape1022-63">
				<text x="-13.46" y="337.94" class="st3">Encrypted Secret</text>			</g>
		</g>
		<g id="group1024-65" transform="translate(56.501,-83.615)">
			<title>Open envelope</title>
			<desc>Plaintext Secret</desc>
			<g id="shape1025-66" transform="translate(9.17717,-21.708)">
				<title>Sheet.1025</title>
				<rect x="0" y="325.334" width="9.2126" height="1.40052" class="st4"/>
			</g>
			<g id="shape1026-68" transform="translate(9.17717,-18.907)">
				<title>Sheet.1026</title>
				<rect x="0" y="325.334" width="9.2126" height="1.40052" class="st4"/>
			</g>
			<g id="shape1027-70" transform="translate(9.17717,-16.1059)">
				<title>Sheet.1027</title>
				<rect x="0" y="325.334" width="9.2126" height="1.40052" class="st4"/>
			</g>
			<g id="shape1028-72">
				<title>Sheet.1028</title>
				<path d="M23.39 302.47 L28.35 307.16 L28.35 326.73 L0 326.73 L0 307.16 L4.96 302.51 L4.96 299.42 L9.92 299.42 L14.17
							 295.92 L18.43 299.42 L23.39 299.42 L23.39 302.47 ZM7.09 301.52 L7.09 313.18 L10.28 316.2 C12.58 314.44
							 15.77 314.44 18.07 316.2 L21.26 313.18 L21.26 301.52 L7.09 301.52 ZM2.13 310.45 L2.13 323.76 L9.21 317.11
							 L2.13 310.45 ZM3.26 324.63 L25.09 324.63 L18.11 318.09 L17.61 317.63 C15.7 315.85 12.69 315.85 10.77
							 317.63 L10.28 318.09 L3.26 324.63 ZM26.22 323.79 L26.22 310.49 L19.13 317.14 L26.22 323.79 Z"
						class="st4"/>
			</g>
			<g id="shape1024-74">
				<text x="-11.3" y="337.94" class="st3">Plaintext Secret</text>			</g>
		</g>
		<g id="shape1029-76" transform="translate(84.8475,-91.9341)">
			<title>Dynamic connector.1060</title>
			<desc>encrypt</desc>
			<path d="M0 319.65 L46.88 319.65" class="st13"/>
			<rect x="15.9169" y="314.848" width="24.859" height="9.59985" class="st15"/>
			<text x="15.92" y="322.05" class="st3">encrypt</text>		</g>
		<g id="group1030-84" transform="translate(141.54,-88.8159)">
			<title>Envelope.1061</title>
			<desc>Encrypted Secret</desc>
			<g id="shape1031-85">
				<title>Sheet.1031</title>
				<path d="M19.31 316.42 L26.22 323.53 L26.22 309.5 L19.31 316.42 ZM10.06 317.44 L3.15 324.55 L25.23 324.55 L18.35
							 317.44 L15.7 320.1 C15.27 320.5 14.74 320.72 14.21 320.72 C13.68 320.72 13.15 320.5 12.72 320.1 L10.06
							 317.44 ZM9.04 316.42 L2.13 309.46 L2.13 323.56 L9.04 316.42 ZM14.67 319.04 L25.19 308.51 L3.19 308.51
							 L13.68 319.04 C13.96 319.34 14.39 319.34 14.67 319.04 ZM0 306.32 L28.35 306.32 L28.35 326.73 L0 326.73
							 L0 306.32 Z" class="st4"/>
			</g>
			<g id="shape1030-87">
				<text x="-13.46" y="337.94" class="st3">Encrypted Secret</text>			</g>
		</g>
		<g id="group1032-89" transform="translate(991.934,-83.615) scale(-1,1)">
			<title>Open envelope.1063</title>
			<desc>Plaintext Secret</desc>
			<g id="shape1033-90" transform="translate(9.17717,-21.708)">
				<title>Sheet.1033</title>
				<rect x="0" y="325.334" width="9.2126" height="1.40052" class="st4"/>
			</g>
			<g id="shape1034-92" transform="translate(9.17717,-18.907)">
				<title>Sheet.1034</title>
				<rect x="0" y="325.334" width="9.2126" height="1.40052" class="st4"/>
			</g>
			<g id="shape1035-94" transform="translate(9.17717,-16.1059)">
				<title>Sheet.1035</title>
				<rect x="0" y="325.334" width="9.2126" height="1.40052" class="st4"/>
			</g>
			<g id="shape1036-96">
				<title>Sheet.1036</title>
				<path d="M23.39 302.47 L28.35 307.16 L28.35 326.73 L0 326.73 L0 307.16 L4.96 302.51 L4.96 299.42 L9.92 299.42 L14.17
							 295.92 L18.43 299.42 L23.39 299.42 L23.39 302.47 ZM7.09 301.52 L7.09 313.18 L10.28 316.2 C12.58 314.44
							 15.77 314.44 18.07 316.2 L21.26 313.18 L21.26 301.52 L7.09 301.52 ZM2.13 310.45 L2.13 323.76 L9.21 317.11
							 L2.13 310.45 ZM3.26 324.63 L25.09 324.63 L18.11 318.09 L17.61 317.63 C15.7 315.85 12.69 315.85 10.77
							 317.63 L10.28 318.09 L3.26 324.63 ZM26.22 323.79 L26.22 310.49 L19.13 317.14 L26.22 323.79 Z"
						class="st4"/>
			</g>
			<g id="shape1032-98">
				<text x="-39.64" y="337.94" transform="scale(-1,1)" class="st3">Plaintext Secret</text>			</g>
		</g>
		<g id="shape1037-100" transform="translate(906.895,-91.9341)">
			<title>Dynamic connector.1068</title>
			<desc>decrypt</desc>
			<path d="M0 319.65 L46.88 319.65" class="st13"/>
			<rect x="15.9169" y="314.848" width="24.859" height="9.59985" class="st15"/>
			<text x="15.92" y="322.05" class="st3">decrypt</text>		</g>
		<g id="group1038-107" transform="translate(906.895,-88.8159) scale(-1,1)">
			<title>Envelope.1069</title>
			<desc>Encrypted Secret</desc>
			<g id="shape1039-108">
				<title>Sheet.1039</title>
				<path d="M19.31 316.42 L26.22 323.53 L26.22 309.5 L19.31 316.42 ZM10.06 317.44 L3.15 324.55 L25.23 324.55 L18.35
							 317.44 L15.7 320.1 C15.27 320.5 14.74 320.72 14.21 320.72 C13.68 320.72 13.15 320.5 12.72 320.1 L10.06
							 317.44 ZM9.04 316.42 L2.13 309.46 L2.13 323.56 L9.04 316.42 ZM14.67 319.04 L25.19 308.51 L3.19 308.51
							 L13.68 319.04 C13.96 319.34 14.39 319.34 14.67 319.04 ZM0 306.32 L28.35 306.32 L28.35 326.73 L0 326.73
							 L0 306.32 Z" class="st4"/>
			</g>
			<g id="shape1038-110">
				<text x="-41.81" y="337.94" transform="scale(-1,1)" class="st3">Encrypted Secret</text>			</g>
		</g>
		<g id="shape1040-112" transform="translate(186.152,-56.501)">
			<title>Sheet.1040</title>
			<desc>Intermediate Systems</desc>
			<rect x="0" y="306.734" width="152" height="20" class="st16"/>
			<text x="31.63" y="319.73" class="st10">Intermediate Systems</text>		</g>
		<g id="shape1041-115" transform="translate(710.561,-56.501)">
			<title>Sheet.1041</title>
			<desc>Intermediate Systems</desc>
			<rect x="0" y="306.734" width="152" height="20" class="st16"/>
			<text x="31.63" y="319.73" class="st10">Intermediate Systems</text>		</g>
	</g>
</svg>
