<?xml version="1.0" encoding="us-ascii" standalone="no"?><svg xmlns="http://www.w3.org/2000/svg" xmlns:xlink="http://www.w3.org/1999/xlink" contentStyleType="text/css" height="207.8125px" preserveAspectRatio="none" style="width:294px;height:207px;background:#FFFFFF;" version="1.1" viewBox="0 0 294 207" width="294.7917px" zoomAndPan="magnify"><defs/><g><!--cluster Identifier Type and References--><g id="cluster_Identifier Type and References"><path d="M4.4271,3.125 L117.9688,3.125 A1.9531,1.9531 0 0 1 119.2708,4.4271 L122.9167,15.4215 L289.8438,15.4215 A1.3021,1.3021 0 0 1 291.1458,16.7236 L291.1458,202.8646 A1.3021,1.3021 0 0 1 289.8438,204.1667 L4.4271,204.1667 A1.3021,1.3021 0 0 1 3.125,202.8646 L3.125,4.4271 A1.3021,1.3021 0 0 1 4.4271,3.125 " fill="none" style="stroke:#000000;stroke-width:0.78125;"/><line style="stroke:#000000;stroke-width:0.78125;" x1="3.125" x2="122.9167" y1="15.4215" y2="15.4215"/><text fill="#000000" font-family="sans-serif" font-size="7.2917" font-weight="bold" lengthAdjust="spacing" textLength="113.0208" x="5.2083" y="11.736">Identifier Type and References</text></g><!--class IdentifierType--><g id="elem_IdentifierType"><rect codeLine="6" fill="#F1F1F1" height="75.8626" id="IdentifierType" rx="1.3021" ry="1.3021" style="stroke:#181818;stroke-width:0.2604166666666667;" width="93.2292" x="11.7188" y="21.875"/><ellipse cx="33.8281" cy="30.2083" fill="#ADD1B2" rx="5.7292" ry="5.7292" style="stroke:#181818;stroke-width:0.5208333333333334;"/><path d="M33.234,30.6234 L33.234,31.9255 L35.4883,31.9255 L35.4883,31.4453 Q35.4883,31.1279 35.6104,30.9896 Q35.7406,30.8512 35.9359,30.8512 Q36.1312,30.8512 36.2533,30.9896 Q36.3753,31.1279 36.3753,31.4453 L36.3753,32.8125 L32.2087,32.8125 Q31.8831,32.8125 31.7448,32.6904 Q31.6146,32.5684 31.6146,32.3649 Q31.6146,32.1696 31.7529,32.0475 Q31.8913,31.9255 32.2087,31.9255 L32.347,31.9255 L32.347,28.4587 L32.2087,28.4587 Q31.8831,28.4587 31.7448,28.3366 Q31.6146,28.2145 31.6146,28.0111 Q31.6146,27.8158 31.7448,27.6937 Q31.8831,27.5716 32.2087,27.5716 L36.18,27.5716 L36.18,28.9225 Q36.18,29.2399 36.0579,29.3783 Q35.944,29.5085 35.7406,29.5085 Q35.5452,29.5085 35.4232,29.3783 Q35.3011,29.2399 35.3011,28.9225 L35.3011,28.4587 L33.234,28.4587 L33.234,29.7363 L34.0072,29.7363 Q34.0072,29.3945 34.0723,29.2969 Q34.2106,29.0853 34.4548,29.0853 Q34.6501,29.0853 34.7721,29.2236 Q34.8942,29.3538 34.8942,29.6712 L34.8942,30.6966 Q34.8942,30.9814 34.8291,31.0791 Q34.6908,31.2826 34.4548,31.2826 Q34.2106,31.2826 34.0723,31.071 Q34.0072,30.9733 34.0072,30.6234 L33.234,30.6234 Z " fill="#000000"/><text fill="#000000" font-family="sans-serif" font-size="7.2917" lengthAdjust="spacing" textLength="44.7917" x="44.2969" y="33.1919">IdentifierType</text><line style="stroke:#181818;stroke-width:0.2604166666666667;" x1="12.2396" x2="104.4271" y1="38.5417" y2="38.5417"/><text fill="#000000" font-family="sans-serif" font-size="7.2917" lengthAdjust="spacing" textLength="44.2708" x="14.8438" y="48.1944">TechnicalKey</text><text fill="#000000" font-family="sans-serif" font-size="7.2917" lengthAdjust="spacing" textLength="18.75" x="14.8438" y="57.3659">Name</text><text fill="#000000" font-family="sans-serif" font-size="7.2917" lengthAdjust="spacing" textLength="41.1458" x="14.8438" y="66.5375">Abbreviation</text><text fill="#000000" font-family="sans-serif" font-size="7.2917" lengthAdjust="spacing" textLength="64.5833" x="14.8438" y="75.709">TransliteratedName</text><text fill="#000000" font-family="sans-serif" font-size="7.2917" lengthAdjust="spacing" textLength="86.9792" x="14.8438" y="84.8806">TransliteratedAbbreviation</text><text fill="#000000" font-family="sans-serif" font-size="7.2917" lengthAdjust="spacing" textLength="23.4375" x="14.8438" y="94.0521">Format</text></g><!--class BusinessPartnerType--><g id="elem_BusinessPartnerType"><rect codeLine="15" fill="#F1F1F1" height="39.1764" id="BusinessPartnerType" rx="1.3021" ry="1.3021" style="stroke:#181818;stroke-width:0.2604166666666667;" width="87.5" x="195.3125" y="147.6563"/><ellipse cx="203.125" cy="155.9896" fill="#EB937F" rx="5.7292" ry="5.7292" style="stroke:#181818;stroke-width:0.5208333333333334;"/><path d="M202.5309,156.4046 L202.5309,157.7067 L204.7852,157.7067 L204.7852,157.2266 Q204.7852,156.9092 204.9072,156.7708 Q205.0374,156.6325 205.2327,156.6325 Q205.4281,156.6325 205.5501,156.7708 Q205.6722,156.9092 205.6722,157.2266 L205.6722,158.5938 L201.5055,158.5938 Q201.18,158.5938 201.0417,158.4717 Q200.9115,158.3496 200.9115,158.1462 Q200.9115,157.9508 201.0498,157.8288 Q201.1882,157.7067 201.5055,157.7067 L201.6439,157.7067 L201.6439,154.2399 L201.5055,154.2399 Q201.18,154.2399 201.0417,154.1178 Q200.9115,153.9958 200.9115,153.7923 Q200.9115,153.597 201.0417,153.4749 Q201.18,153.3529 201.5055,153.3529 L205.4769,153.3529 L205.4769,154.7038 Q205.4769,155.0212 205.3548,155.1595 Q205.2409,155.2897 205.0374,155.2897 Q204.8421,155.2897 204.7201,155.1595 Q204.598,155.0212 204.598,154.7038 L204.598,154.2399 L202.5309,154.2399 L202.5309,155.5176 L203.304,155.5176 Q203.304,155.1758 203.3691,155.0781 Q203.5075,154.8665 203.7516,154.8665 Q203.9469,154.8665 204.069,155.0049 Q204.1911,155.1351 204.1911,155.4525 L204.1911,156.4779 Q204.1911,156.7627 204.126,156.8604 Q203.9876,157.0638 203.7516,157.0638 Q203.5075,157.0638 203.3691,156.8522 Q203.304,156.7546 203.304,156.4046 L202.5309,156.4046 Z " fill="#000000"/><text fill="#000000" font-family="sans-serif" font-size="7.2917" lengthAdjust="spacing" textLength="70.8333" x="210.4167" y="158.9732">BusinessPartnerType</text><line style="stroke:#181818;stroke-width:0.2604166666666667;" x1="195.8333" x2="282.2917" y1="164.3229" y2="164.3229"/><text fill="#000000" font-family="sans-serif" font-size="7.2917" lengthAdjust="spacing" textLength="36.4583" x="198.4375" y="173.9756">LegalEntity</text><text fill="#000000" font-family="sans-serif" font-size="7.2917" lengthAdjust="spacing" textLength="27.0833" x="198.4375" y="183.1472">Address</text></g><!--class IdentifierTypeCategory--><g id="elem_IdentifierTypeCategory"><rect codeLine="20" fill="#F1F1F1" height="66.6911" id="IdentifierTypeCategory" rx="1.3021" ry="1.3021" style="stroke:#181818;stroke-width:0.2604166666666667;" width="91.6667" x="190.625" y="26.5625"/><ellipse cx="198.4375" cy="34.8958" fill="#EB937F" rx="5.7292" ry="5.7292" style="stroke:#181818;stroke-width:0.5208333333333334;"/><path d="M197.8434,35.3109 L197.8434,36.613 L200.0977,36.613 L200.0977,36.1328 Q200.0977,35.8154 200.2197,35.6771 Q200.3499,35.5387 200.5452,35.5387 Q200.7406,35.5387 200.8626,35.6771 Q200.9847,35.8154 200.9847,36.1328 L200.9847,37.5 L196.818,37.5 Q196.4925,37.5 196.3542,37.3779 Q196.224,37.2559 196.224,37.0524 Q196.224,36.8571 196.3623,36.735 Q196.5007,36.613 196.818,36.613 L196.9564,36.613 L196.9564,33.1462 L196.818,33.1462 Q196.4925,33.1462 196.3542,33.0241 Q196.224,32.902 196.224,32.6986 Q196.224,32.5033 196.3542,32.3812 Q196.4925,32.2591 196.818,32.2591 L200.7894,32.2591 L200.7894,33.61 Q200.7894,33.9274 200.6673,34.0658 Q200.5534,34.196 200.3499,34.196 Q200.1546,34.196 200.0326,34.0658 Q199.9105,33.9274 199.9105,33.61 L199.9105,33.1462 L197.8434,33.1462 L197.8434,34.4238 L198.6165,34.4238 Q198.6165,34.082 198.6816,33.9844 Q198.82,33.7728 199.0641,33.7728 Q199.2594,33.7728 199.3815,33.9111 Q199.5036,34.0413 199.5036,34.3587 L199.5036,35.3841 Q199.5036,35.6689 199.4385,35.7666 Q199.3001,35.9701 199.0641,35.9701 Q198.82,35.9701 198.6816,35.7585 Q198.6165,35.6608 198.6165,35.3109 L197.8434,35.3109 Z " fill="#000000"/><text fill="#000000" font-family="sans-serif" font-size="7.2917" lengthAdjust="spacing" textLength="75" x="205.7292" y="37.8794">IdentifierTypeCategory</text><line style="stroke:#181818;stroke-width:0.2604166666666667;" x1="191.1458" x2="281.7708" y1="43.2292" y2="43.2292"/><text fill="#000000" font-family="sans-serif" font-size="7.2917" lengthAdjust="spacing" textLength="14.0625" x="193.75" y="52.8819">VAT</text><text fill="#000000" font-family="sans-serif" font-size="7.2917" lengthAdjust="spacing" textLength="10.9375" x="193.75" y="62.0534">TIN</text><text fill="#000000" font-family="sans-serif" font-size="7.2917" lengthAdjust="spacing" textLength="14.5833" x="193.75" y="71.225">NBR</text><text fill="#000000" font-family="sans-serif" font-size="7.2917" lengthAdjust="spacing" textLength="11.4583" x="193.75" y="80.3965">IBR</text><text fill="#000000" font-family="sans-serif" font-size="7.2917" lengthAdjust="spacing" textLength="15.1042" x="193.75" y="89.5681">OTH</text></g><!--class IdentifierTypeDetail--><g id="elem_IdentifierTypeDetail"><rect codeLine="28" fill="#F1F1F1" height="30.0049" id="IdentifierTypeDetail" rx="1.3021" ry="1.3021" style="stroke:#181818;stroke-width:0.2604166666666667;" width="80.2083" x="11.4583" y="152.0833"/><ellipse cx="19.2708" cy="160.4167" fill="#ADD1B2" rx="5.7292" ry="5.7292" style="stroke:#181818;stroke-width:0.5208333333333334;"/><path d="M20.7113,158.2682 Q20.7926,158.1543 20.8903,158.0973 Q20.988,158.0404 21.1019,158.0404 Q21.2972,158.0404 21.4193,158.1787 Q21.5413,158.3089 21.5413,158.6263 L21.5413,159.3831 Q21.5413,159.7005 21.4193,159.8389 Q21.2972,159.9772 21.1019,159.9772 Q20.9229,159.9772 20.8171,159.8714 Q20.7113,159.7738 20.6543,159.5052 Q20.6299,159.318 20.5322,159.2204 Q20.3613,159.0251 20.0439,158.9111 Q19.7266,158.7972 19.401,158.7972 Q19.0023,158.7972 18.6686,158.9681 Q18.3431,159.139 18.0827,159.5296 Q17.8304,159.9202 17.8304,160.4574 L17.8304,161.027 Q17.8304,161.6699 18.2943,162.1012 Q18.7581,162.5244 19.5882,162.5244 Q20.0765,162.5244 20.4183,162.3942 Q20.6217,162.3128 20.8415,162.085 Q20.9798,161.9466 21.0531,161.9059 Q21.1344,161.8652 21.2402,161.8652 Q21.4111,161.8652 21.5413,162.0036 Q21.6797,162.1338 21.6797,162.3128 Q21.6797,162.4919 21.5007,162.7035 Q21.2402,163.0046 20.8252,163.1755 Q20.2637,163.4115 19.5882,163.4115 Q18.7988,163.4115 18.1722,163.0859 Q17.6595,162.8255 17.3014,162.2721 Q16.9434,161.7106 16.9434,161.0433 L16.9434,160.4411 Q16.9434,159.7493 17.2607,159.1553 Q17.5863,158.5531 18.1559,158.2357 Q18.7256,157.9102 19.3685,157.9102 Q19.751,157.9102 20.0846,157.9997 Q20.4264,158.0811 20.7113,158.2682 Z " fill="#000000"/><text fill="#000000" font-family="sans-serif" font-size="7.2917" lengthAdjust="spacing" textLength="63.5417" x="26.5625" y="163.4003">IdentifierTypeDetail</text><line style="stroke:#181818;stroke-width:0.2604166666666667;" x1="11.9792" x2="91.1458" y1="168.75" y2="168.75"/><text fill="#000000" font-family="sans-serif" font-size="7.2917" lengthAdjust="spacing" textLength="34.8958" x="14.5833" y="178.4027">Mandatory</text></g><!--class Country--><g id="elem_Country"><rect codeLine="32" fill="#F1F1F1" height="57.5195" id="Country" rx="1.3021" ry="1.3021" style="stroke:#181818;stroke-width:0.2604166666666667;" width="42.7083" x="134.375" y="138.5417"/><ellipse cx="142.1875" cy="146.875" fill="#EB937F" rx="5.7292" ry="5.7292" style="stroke:#181818;stroke-width:0.5208333333333334;"/><path d="M141.5934,147.29 L141.5934,148.5921 L143.8477,148.5921 L143.8477,148.112 Q143.8477,147.7946 143.9697,147.6563 Q144.0999,147.5179 144.2952,147.5179 Q144.4906,147.5179 144.6126,147.6563 Q144.7347,147.7946 144.7347,148.112 L144.7347,149.4792 L140.568,149.4792 Q140.2425,149.4792 140.1042,149.3571 Q139.974,149.235 139.974,149.0316 Q139.974,148.8363 140.1123,148.7142 Q140.2507,148.5921 140.568,148.5921 L140.7064,148.5921 L140.7064,145.1253 L140.568,145.1253 Q140.2425,145.1253 140.1042,145.0033 Q139.974,144.8812 139.974,144.6777 Q139.974,144.4824 140.1042,144.3604 Q140.2425,144.2383 140.568,144.2383 L144.5394,144.2383 L144.5394,145.5892 Q144.5394,145.9066 144.4173,146.0449 Q144.3034,146.1751 144.0999,146.1751 Q143.9046,146.1751 143.7826,146.0449 Q143.6605,145.9066 143.6605,145.5892 L143.6605,145.1253 L141.5934,145.1253 L141.5934,146.403 L142.3665,146.403 Q142.3665,146.0612 142.4316,145.9635 Q142.57,145.752 142.8141,145.752 Q143.0094,145.752 143.1315,145.8903 Q143.2536,146.0205 143.2536,146.3379 L143.2536,147.3633 Q143.2536,147.6481 143.1885,147.7458 Q143.0501,147.9492 142.8141,147.9492 Q142.57,147.9492 142.4316,147.7376 Q142.3665,147.64 142.3665,147.29 L141.5934,147.29 Z " fill="#000000"/><text fill="#000000" font-family="sans-serif" font-size="7.2917" lengthAdjust="spacing" textLength="26.0417" x="149.4792" y="149.8586">Country</text><line style="stroke:#181818;stroke-width:0.2604166666666667;" x1="134.8958" x2="176.5625" y1="155.2083" y2="155.2083"/><text fill="#000000" font-family="sans-serif" font-size="7.2917" lengthAdjust="spacing" textLength="9.8958" x="137.5" y="164.861">DE</text><text fill="#000000" font-family="sans-serif" font-size="7.2917" lengthAdjust="spacing" textLength="9.8958" x="137.5" y="174.0326">FR</text><text fill="#000000" font-family="sans-serif" font-size="7.2917" lengthAdjust="spacing" textLength="9.375" x="137.5" y="183.2041">US</text><text fill="#000000" font-family="sans-serif" font-size="7.2917" lengthAdjust="spacing" textLength="6.25" x="137.5" y="192.3757">...</text></g><!--link IdentifierType to BusinessPartnerType--><g id="link_IdentifierType_BusinessPartnerType"><path codeLine="39" d="M105.1094,87.9167 C137.0104,106.6719 173.0497,127.8584 201.3361,144.4886 " fill="none" id="IdentifierType-to-BusinessPartnerType" style="stroke:#181818;stroke-width:0.5208333333333334;"/><polygon fill="none" points="206.724,147.6563,205.0859,144.2765,201.3361,144.4886,202.9742,147.8684,206.724,147.6563" style="stroke:#181818;stroke-width:0.5208333333333334;"/><text fill="#000000" font-family="sans-serif" font-size="6.7708" lengthAdjust="spacing" textLength="64.5833" x="159.8958" y="121.0912">BusinessPartnerType</text><text fill="#000000" font-family="sans-serif" font-size="6.7708" lengthAdjust="spacing" textLength="2.6042" x="109.0908" y="88.6025">*</text><text fill="#000000" font-family="sans-serif" font-size="6.7708" lengthAdjust="spacing" textLength="3.6458" x="196.7796" y="141.9887">1</text></g><!--link IdentifierType to IdentifierTypeCategory--><g id="link_IdentifierType_IdentifierTypeCategory"><path codeLine="40" d="M105.1354,59.8958 C131.5208,59.8958 158.1042,59.8958 184.3385,59.8958 " fill="none" id="IdentifierType-to-IdentifierTypeCategory" style="stroke:#181818;stroke-width:0.5208333333333334;"/><polygon fill="none" points="190.5885,59.8958,187.4635,57.8125,184.3385,59.8958,187.4635,61.9792,190.5885,59.8958" style="stroke:#181818;stroke-width:0.5208333333333334;"/><text fill="#000000" font-family="sans-serif" font-size="6.7708" lengthAdjust="spacing" textLength="66.6667" x="114.4531" y="56.5079">IdentifierTypeCategory</text><text fill="#000000" font-family="sans-serif" font-size="6.7708" lengthAdjust="spacing" textLength="2.6042" x="109.119" y="58.2611">*</text><text fill="#000000" font-family="sans-serif" font-size="6.7708" lengthAdjust="spacing" textLength="2.6042" x="183.7831" y="58.2272">*</text></g><!--link IdentifierType to IdentifierTypeDetail--><g id="link_IdentifierType_IdentifierTypeDetail"><path codeLine="42" d="M55.5398,104.2634 C54.3523,122.8884 53.5843,134.949 52.6989,148.8345 " fill="none" id="IdentifierType-IdentifierTypeDetail" style="stroke:#181818;stroke-width:0.5208333333333334;"/><polygon fill="#181818" points="55.9375,98.026,53.6595,101.0121,55.5398,104.2634,57.8178,101.2773,55.9375,98.026" style="stroke:#181818;stroke-width:0.5208333333333334;"/><polygon fill="#181818" points="52.5,151.9531,54.8774,147.4077,52.6657,149.3542,50.7192,147.1425,52.5,151.9531" style="stroke:#181818;stroke-width:0.5208333333333334;"/><text fill="#000000" font-family="sans-serif" font-size="6.7708" lengthAdjust="spacing" textLength="20.8333" x="55.7292" y="121.0912">Details</text><text fill="#000000" font-family="sans-serif" font-size="6.7708" lengthAdjust="spacing" textLength="3.6458" x="51.9028" y="108.9707">1</text><text fill="#000000" font-family="sans-serif" font-size="6.7708" lengthAdjust="spacing" textLength="2.6042" x="49.8161" y="146.4468">*</text></g><!--link IdentifierTypeDetail to Country--><g id="link_IdentifierTypeDetail_Country"><path codeLine="43" d="M91.6875,167.1875 C106.1875,167.1875 115.7448,167.1875 128.026,167.1875 " fill="none" id="IdentifierTypeDetail-to-Country" style="stroke:#181818;stroke-width:0.5208333333333334;"/><polygon fill="none" points="134.276,167.1875,131.151,165.1042,128.026,167.1875,131.151,169.2708,134.276,167.1875" style="stroke:#181818;stroke-width:0.5208333333333334;"/><text fill="#000000" font-family="sans-serif" font-size="6.7708" lengthAdjust="spacing" textLength="23.4375" x="101.3021" y="163.7995">Country</text><text fill="#000000" font-family="sans-serif" font-size="6.7708" lengthAdjust="spacing" textLength="2.6042" x="95.9597" y="165.4731">*</text><text fill="#000000" font-family="sans-serif" font-size="6.7708" lengthAdjust="spacing" textLength="3.6458" x="126.6296" y="165.1629">1</text></g><!--SRC=[TL1DRuCm3BtpAooEbOgsmouS9lLJGzkwgMExkyI5g92W94n2rVxxiWGwqSB9J_Rpy_FJ9ovgL5W1gpayt0L1ZTa9Su8mOIGCFt9IaBOr0Ge6UpgI8f6H3k4S101_5DF2FzTHptO2a59M29vX-KojQ-om8WSMXuEYRuw6I-6f2eKkkI65XjY5DspVR6sbgj1O-EEjD1Ki6yq5QVsEoeY1cnVAiTmukzu3OyeI1zl3DrRsQ2vLsmbyBL9lAjdvRvPxLvEklgLFlLXMejPNQciooCjEwzM6YSPg3ywlP2FCvTvwuv_qwfyVhaHHrAzSPHxEGfYpkOJmFXoD8HxhJkX8LoRYY2S6OwQibvbrzJYYrmKIWmVwPhiZE4EgUwoFAEvHOBCeE2Eeo1IIwLy0]--></g></svg>