<svg width="1280" height="586" xmlns="http://www.w3.org/2000/svg" xmlns:xlink="http://www.w3.org/1999/xlink" overflow="hidden"><defs><clipPath id="clip0"><rect x="0" y="0" width="1280" height="586"/></clipPath></defs><g clip-path="url(#clip0)"><rect x="0" y="0" width="1280" height="586.243" fill="#FFFFFF"/><g><path d="M64.4999 432.668 1265.5 432.668M64.4999 358.64 1265.5 358.64M64.4999 284.611 1265.5 284.611M64.4999 210.582 1265.5 210.582M64.4999 136.553 1265.5 136.553M64.4999 63.5263 1265.5 63.5263" stroke="#D9D9D9" stroke-width="0.99987" stroke-linejoin="round" stroke-miterlimit="10" fill="none"/></g><g><path d="M103.997 285.111 138.996 285.111 138.996 506.21 103.997 506.21ZM253.994 285.111 289.993 285.111 289.993 506.21 253.994 506.21ZM403.99 285.111 439.989 285.111 439.989 506.21 403.99 506.21ZM553.986 285.111 589.985 285.111 589.985 506.21 553.986 506.21ZM703.982 211.082 739.981 211.082 739.981 506.21 703.982 506.21ZM853.978 211.082 889.978 211.082 889.978 506.21 853.978 506.21ZM1003.97 211.082 1039.97 211.082 1039.97 506.21 1003.97 506.21ZM1153.97 137.053 1189.97 137.053 1189.97 506.21 1153.97 506.21Z" fill="#FFA600"/></g><g><path d="M64.4999 505.71 1265.5 505.71" stroke="#D9D9D9" stroke-width="0.99987" stroke-linejoin="round" stroke-miterlimit="10" fill="none" fill-rule="evenodd"/></g><g><text fill="#595959" font-family="Manrope,Manrope_MSFontService,sans-serif" font-weight="400" font-size="16" transform="matrix(1 0 0 1.00041 38.0284 511)">0</text></g><g><text fill="#595959" font-family="Manrope,Manrope_MSFontService,sans-serif" font-weight="400" font-size="16" transform="matrix(1 0 0 1.00041 12.3384 437)">1000</text></g><g><text fill="#595959" font-family="Manrope,Manrope_MSFontService,sans-serif" font-weight="400" font-size="16" transform="matrix(1 0 0 1.00041 9.46543 363)">2000</text></g><g><text fill="#595959" font-family="Manrope,Manrope_MSFontService,sans-serif" font-weight="400" font-size="16" transform="matrix(1 0 0 1.00041 9.73878 289)">3000</text></g><g><text fill="#595959" font-family="Manrope,Manrope_MSFontService,sans-serif" font-weight="400" font-size="16" transform="matrix(1 0 0 1.00041 9.15881 216)">4000</text></g><g><text fill="#595959" font-family="Manrope,Manrope_MSFontService,sans-serif" font-weight="400" font-size="16" transform="matrix(1 0 0 1.00041 9.34545 142)">5000</text></g><g><text fill="#595959" font-family="Manrope,Manrope_MSFontService,sans-serif" font-weight="400" font-size="16" transform="matrix(1 0 0 1.00041 8.66554 68)">6000</text></g><g><text fill="#595959" font-family="Manrope,Manrope_MSFontService,sans-serif" font-weight="400" font-size="16" transform="matrix(1 0 0 1.00041 113.936 535)">Week 1</text></g><g><text fill="#595959" font-family="Manrope,Manrope_MSFontService,sans-serif" font-weight="400" font-size="16" transform="matrix(1 0 0 1.00041 262.625 535)">Week 2</text></g><g><text fill="#595959" font-family="Manrope,Manrope_MSFontService,sans-serif" font-weight="400" font-size="16" transform="matrix(1 0 0 1.00041 412.887 535)">Week 3</text></g><g><text fill="#595959" font-family="Manrope,Manrope_MSFontService,sans-serif" font-weight="400" font-size="16" transform="matrix(1 0 0 1.00041 562.723 535)">Week 4</text></g><g><text fill="#595959" font-family="Manrope,Manrope_MSFontService,sans-serif" font-weight="400" font-size="16" transform="matrix(1 0 0 1.00041 712.942 535)">Week 5</text></g><g><text fill="#595959" font-family="Manrope,Manrope_MSFontService,sans-serif" font-weight="400" font-size="16" transform="matrix(1 0 0 1.00041 862.728 535)">Week 6</text></g><g><text fill="#595959" font-family="Manrope,Manrope_MSFontService,sans-serif" font-weight="400" font-size="16" transform="matrix(1 0 0 1.00041 1013.8 535)">Week 7</text></g><g><text fill="#595959" font-family="Manrope,Manrope_MSFontService,sans-serif" font-weight="400" font-size="16" transform="matrix(1 0 0 1.00041 1163.3 535)">Week 8</text></g><g><text fill="#595959" font-family="Manrope,Manrope_MSFontService,sans-serif" font-weight="400" font-size="25" transform="matrix(1 0 0 1.00041 507.947 36)">Example: Demand Data</text></g><g><rect x="587" y="558.231" width="9.99994" height="9.00372" fill="#FFA600"/></g><g><text fill="#595959" font-family="Manrope,Manrope_MSFontService,sans-serif" font-weight="400" font-size="16" transform="matrix(1 0 0 1.00041 601.352 568)">Demand</text></g><g><rect x="675" y="558.231" width="10.0001" height="9.00372" fill="#FFFFFF"/></g></g></svg>