<svg width="1280" height="586" xmlns="http://www.w3.org/2000/svg" xmlns:xlink="http://www.w3.org/1999/xlink" overflow="hidden"><defs><clipPath id="clip0"><rect x="0" y="0" width="1280" height="586"/></clipPath></defs><g clip-path="url(#clip0)"><rect x="0" y="0" width="1280" height="586.167" fill="#FFFFFF"/><g><path d="M64.5001 384.609 1265.5 384.609M64.5001 320.591 1265.5 320.591M64.5001 255.573 1265.5 255.573M64.5001 191.555 1265.5 191.555M64.5001 126.536 1265.5 126.536M64.5001 62.5178 1265.5 62.5178" stroke="#D9D9D9" stroke-linejoin="round" stroke-miterlimit="10" fill="none"/></g><g><rect x="723" y="191.054" width="34" height="258.073" fill="#D91E18"/></g><g><rect x="873" y="191.054" width="34" height="258.073" fill="#FFC000"/></g><g><rect x="1023" y="191.054" width="34" height="258.073" fill="#FFC000"/></g><g><rect x="1174" y="127.036" width="33" height="322.092" fill="#D91E18"/></g><g><path d="M123 256.073 156 256.073 156 449.128 123 449.128ZM273 256.073 306 256.073 306 449.128 273 449.128ZM423 256.073 456 256.073 456 449.128 423 449.128ZM573 256.073 606 256.073 606 449.128 573 449.128Z" fill="#B3CB2D"/></g><g><path d="M64.5001 449.628 1265.5 449.628" stroke="#D9D9D9" stroke-linejoin="round" stroke-miterlimit="10" fill="none" fill-rule="evenodd"/></g><g><path d="M139.5 255.573 289.5 255.573 439.5 191.555 589.5 191.555 739.5 255.573 890.5 255.573 1040.5 255.573 1190.5 255.573" stroke="#000000" stroke-width="3" stroke-linecap="round" stroke-linejoin="round" stroke-miterlimit="10" fill="none"/></g><g><path d="M139.5 255.573 289.5 191.555 439.5 191.555 589.5 126.536 739.5 255.573 890.5 191.555 1040.5 126.536 1190.5 191.555" stroke="#979797" stroke-width="3" stroke-linecap="round" stroke-linejoin="round" stroke-miterlimit="10" stroke-dasharray="0 6" fill="none"/></g><g><path d="M139.5 126.536 289.5 126.536 439.5 126.536 589.5 126.536 739.5 126.536 890.5 126.536 1040.5 126.536 1190.5 126.536" stroke="#CECECE" stroke-width="3" stroke-linecap="round" stroke-linejoin="round" stroke-miterlimit="10" stroke-dasharray="9 12" fill="none"/></g><g><text fill="#595959" font-family="Manrope,Manrope_MSFontService,sans-serif" font-weight="400" font-size="16" transform="matrix(1 0 0 1.00028 38.0334 454)">0</text></g><g><text fill="#595959" font-family="Manrope,Manrope_MSFontService,sans-serif" font-weight="400" font-size="16" transform="matrix(1 0 0 1.00028 12.3401 389)">1000</text></g><g><text fill="#595959" font-family="Manrope,Manrope_MSFontService,sans-serif" font-weight="400" font-size="16" transform="matrix(1 0 0 1.00028 9.46667 325)">2000</text></g><g><text fill="#595959" font-family="Manrope,Manrope_MSFontService,sans-serif" font-weight="400" font-size="16" transform="matrix(1 0 0 1.00028 9.74005 261)">3000</text></g><g><text fill="#595959" font-family="Manrope,Manrope_MSFontService,sans-serif" font-weight="400" font-size="16" transform="matrix(1 0 0 1.00028 9.16 196)">4000</text></g><g><text fill="#595959" font-family="Manrope,Manrope_MSFontService,sans-serif" font-weight="400" font-size="16" transform="matrix(1 0 0 1.00028 9.34667 132)">5000</text></g><g><text fill="#595959" font-family="Manrope,Manrope_MSFontService,sans-serif" font-weight="400" font-size="16" transform="matrix(1 0 0 1.00028 8.66667 67)">6000</text></g><g><text fill="#595959" font-family="Manrope,Manrope_MSFontService,sans-serif" font-weight="400" font-size="16" transform="matrix(1 0 0 1.00028 113.94 478)">Week 1</text></g><g><text fill="#595959" font-family="Manrope,Manrope_MSFontService,sans-serif" font-weight="400" font-size="16" transform="matrix(1 0 0 1.00028 262.628 478)">Week 2</text></g><g><text fill="#595959" font-family="Manrope,Manrope_MSFontService,sans-serif" font-weight="400" font-size="16" transform="matrix(1 0 0 1.00028 412.889 478)">Week 3</text></g><g><text fill="#595959" font-family="Manrope,Manrope_MSFontService,sans-serif" font-weight="400" font-size="16" transform="matrix(1 0 0 1.00028 562.723 478)">Week 4</text></g><g><text fill="#595959" font-family="Manrope,Manrope_MSFontService,sans-serif" font-weight="400" font-size="16" transform="matrix(1 0 0 1.00028 712.941 478)">Week 5</text></g><g><text fill="#595959" font-family="Manrope,Manrope_MSFontService,sans-serif" font-weight="400" font-size="16" transform="matrix(1 0 0 1.00028 862.725 478)">Week 6</text></g><g><text fill="#595959" font-family="Manrope,Manrope_MSFontService,sans-serif" font-weight="400" font-size="16" transform="matrix(1 0 0 1.00028 1013.79 478)">Week 7</text></g><g><text fill="#595959" font-family="Manrope,Manrope_MSFontService,sans-serif" font-weight="400" font-size="16" transform="matrix(1 0 0 1.00028 1163.29 478)">Week 8</text></g><g><text fill="#595959" font-family="Manrope,Manrope_MSFontService,sans-serif" font-weight="400" font-size="24" transform="matrix(1 0 0 1.00028 164.483 36)">Example</text></g><g><text fill="#595959" font-family="Manrope,Manrope_MSFontService,sans-serif" font-weight="400" font-size="24" transform="matrix(1 0 0 1.00028 258.337 36)">: Demand and</text></g><g><text fill="#595959" font-family="Manrope,Manrope_MSFontService,sans-serif" font-weight="400" font-size="24" transform="matrix(1 0 0 1.00028 414.017 36)">Capacity</text></g><g><text fill="#595959" font-family="Manrope,Manrope_MSFontService,sans-serif" font-weight="400" font-size="24" transform="matrix(1 0 0 1.00028 518.03 36)">Data</text></g><g><text fill="#595959" font-family="Manrope,Manrope_MSFontService,sans-serif" font-weight="400" font-size="24" transform="matrix(1 0 0 1.00028 575.223 36)">Matching</text></g><g><text fill="#595959" font-family="Manrope,Manrope_MSFontService,sans-serif" font-weight="400" font-size="24" transform="matrix(1 0 0 1.00028 684.75 36)">and</text></g><g><text fill="#595959" font-family="Manrope,Manrope_MSFontService,sans-serif" font-weight="400" font-size="24" transform="matrix(1 0 0 1.00028 731.357 36)">Comparison</text></g><g><text fill="#595959" font-family="Manrope,Manrope_MSFontService,sans-serif" font-weight="400" font-size="24" transform="matrix(1 0 0 1.00028 870.723 36)">within</text></g><g><text fill="#595959" font-family="Manrope,Manrope_MSFontService,sans-serif" font-weight="400" font-size="24" transform="matrix(1 0 0 1.00028 943.277 36)">Capacity</text></g><g><text fill="#595959" font-family="Manrope,Manrope_MSFontService,sans-serif" font-weight="400" font-size="24" transform="matrix(1 0 0 1.00028 1047.29 36)">Group</text></g><g><rect x="239" y="501.143" width="34" height="10.0028" fill="#D91E18"/></g><g><text fill="#595959" font-family="Manrope,Manrope_MSFontService,sans-serif" font-weight="400" font-size="16" transform="matrix(1 0 0 1.00028 276.319 511)">Demand over actual capacity</text></g><g><rect x="645" y="501.143" width="34" height="10.0028" fill="#B3CB2D"/></g><g><text fill="#595959" font-family="Manrope,Manrope_MSFontService,sans-serif" font-weight="400" font-size="16" transform="matrix(1 0 0 1.00028 682.5 511)">Demand within actual capacity</text></g><g><rect x="239" y="530.151" width="34" height="10.0029" fill="#FFA600"/></g><g><text fill="#595959" font-family="Manrope,Manrope_MSFontService,sans-serif" font-weight="400" font-size="16" transform="matrix(1 0 0 1.00028 276.319 540)">Demand over actual but within maximum capacity</text></g><g><path d="M645.5 535.652 678.5 535.653" stroke="#000000" stroke-width="3" stroke-linecap="round" stroke-linejoin="round" stroke-miterlimit="10" fill="none" fill-rule="evenodd"/></g><g><text fill="#595959" font-family="Manrope,Manrope_MSFontService,sans-serif" font-weight="400" font-size="16" transform="matrix(1 0 0 1.00028 682.5 540)">Actual capacity</text></g><g><path d="M239.5 564.661 272.5 564.661" stroke="#979797" stroke-width="3" stroke-linecap="round" stroke-linejoin="round" stroke-miterlimit="10" stroke-dasharray="0 6" fill="none" fill-rule="evenodd"/></g><g><text fill="#595959" font-family="Manrope,Manrope_MSFontService,sans-serif" font-weight="400" font-size="16" transform="matrix(1 0 0 1.00028 276.319 570)">Maximum capacity</text></g><g><path d="M645.5 564.661 678.5 564.661" stroke="#CECECE" stroke-width="3" stroke-linecap="round" stroke-linejoin="round" stroke-miterlimit="10" stroke-dasharray="9 12" fill="none" fill-rule="evenodd"/></g><g><text fill="#595959" font-family="Manrope,Manrope_MSFontService,sans-serif" font-weight="400" font-size="16" transform="matrix(1 0 0 1.00028 682.5 570)">Agreed capacity</text></g></g></svg>