<?xml version="1.0" encoding="utf-8"?>
<!-- Generator: Adobe Illustrator 18.0.0, SVG Export Plug-In . SVG Version: 6.00 Build 0)  -->
<!DOCTYPE svg PUBLIC "-//W3C//DTD SVG 1.1//EN" "http://www.w3.org/Graphics/SVG/1.1/DTD/svg11.dtd">
<svg version="1.1" id="Layer_1" xmlns="http://www.w3.org/2000/svg" xmlns:xlink="http://www.w3.org/1999/xlink" x="0px" y="0px"
	 viewBox="0 0 64 64" enable-background="new 0 0 64 64" xml:space="preserve">
<g>
	<g>
		<g>
			<path fill="#FF6A4D" d="M32,0c17.7,0,32,14.3,32,32S49.7,64,32,64S0,49.7,0,32S14.3,0,32,0z"/>
		</g>
	</g>
	<g>
		<g>
			<path fill="#FFE133" d="M38.8,34L38.8,34c-1.2,0-2.4-0.5-3.3-1.4l-4.1-4.1c-0.8-0.8-1.3-1.9-1.4-3.1c-0.1-1.2,0.4-2.4,1.2-3.2
				l9-9c0.8-0.8,1.9-1.2,3-1.2c1.2,0,2.4,0.5,3.3,1.4l4.1,4.1c0.8,0.8,1.3,1.9,1.4,3.1c0.1,1.2-0.4,2.4-1.2,3.2l-9,9
				C41,33.6,39.9,34,38.8,34z M43.2,16c-0.1,0-0.1,0-0.2,0.1l-9,9C34,25.1,34,25.2,34,25.2c0,0.2,0.1,0.3,0.2,0.4l4.1,4.1
				c0.2,0.2,0.4,0.2,0.4,0.2c0.1,0,0.1,0,0.2-0.1l9-9c0.1-0.1,0.1-0.1,0.1-0.2c0-0.2-0.1-0.3-0.2-0.4l-4.1-4.1
				C43.5,16,43.3,16,43.2,16z"/>
		</g>
	</g>
	<g>
		<g>
			<path fill="#FFE133" d="M20.8,52L20.8,52c-1.2,0-2.4-0.5-3.3-1.4l-4.1-4.1c-0.8-0.8-1.3-1.9-1.4-3.1c-0.1-1.2,0.4-2.4,1.2-3.2
				l9-9c0.8-0.8,1.9-1.2,3-1.2c1.2,0,2.4,0.5,3.3,1.4l4.1,4.1c0.8,0.8,1.3,1.9,1.4,3.1c0.1,1.2-0.4,2.4-1.2,3.2l-9,9
				C23,51.6,21.9,52,20.8,52z M25.2,34c-0.1,0-0.1,0-0.2,0.1l-9,9C16,43.1,16,43.2,16,43.2c0,0.2,0.1,0.3,0.2,0.4l4.1,4.1
				c0.2,0.2,0.4,0.2,0.4,0.2c0.1,0,0.1,0,0.2-0.1l9-9c0.1-0.1,0.1-0.1,0.1-0.2c0-0.2-0.1-0.3-0.2-0.4l-4.1-4.1
				C25.5,34,25.3,34,25.2,34z"/>
		</g>
	</g>
	<g>
		<g>
			<path fill="#FFFFFF" d="M26,40c-0.5,0-1-0.2-1.4-0.6c-0.8-0.8-0.8-2,0-2.8l12-12c0.8-0.8,2-0.8,2.8,0c0.8,0.8,0.8,2,0,2.8l-12,12
				C27,39.8,26.5,40,26,40z"/>
		</g>
	</g>
</g>
</svg>
