<svg width="1280" height="586" xmlns="http://www.w3.org/2000/svg" xmlns:xlink="http://www.w3.org/1999/xlink" overflow="hidden"><defs><clipPath id="clip0"><rect x="0" y="0" width="1280" height="586"/></clipPath></defs><g clip-path="url(#clip0)"><rect x="0" y="0" width="1280" height="586.243" fill="#FFFFFF"/><g><path d="M64.4999 432.668 1265.5 432.668M64.4999 358.64 1265.5 358.64M64.4999 284.611 1265.5 284.611M64.4999 211.582 1265.5 211.582M64.4999 137.554 1265.5 137.554M64.4999 63.5263 1265.5 63.5263" stroke="#D9D9D9" stroke-width="0.99987" stroke-linejoin="round" stroke-miterlimit="10" fill="none"/></g><g><path d="M64.4999 506.71 1265.5 506.71" stroke="#D9D9D9" stroke-width="0.99987" stroke-linejoin="round" stroke-miterlimit="10" fill="none" fill-rule="evenodd"/></g><g><path d="M139.5 284.618 289.493 284.618 439.489 211.588 589.485 211.588 739.481 284.618 890.478 284.618 1040.47 284.618 1190.5 284.618" stroke="#B3CB2D" stroke-width="2.99961" stroke-linecap="round" stroke-linejoin="round" stroke-miterlimit="10" fill="none"/></g><g><path d="M139.5 284.618 289.493 211.582 439.489 211.582 589.485 137.557 739.481 284.618 890.478 211.582 1040.47 137.557 1190.5 211.582" stroke="#809500" stroke-width="2.99961" stroke-linecap="round" stroke-linejoin="round" stroke-miterlimit="10" stroke-dasharray="0 5.99922" fill="none"/></g><g><path d="M139.5 137.557 289.493 137.557 439.489 137.557 589.485 137.557 739.481 137.557 890.478 137.557 1040.47 137.557 1190.5 137.557" stroke="#617000" stroke-width="2.99961" stroke-linecap="round" stroke-linejoin="round" stroke-miterlimit="10" stroke-dasharray="8.99883 11.9984" fill="none"/></g><g><text fill="#595959" font-family="Manrope,Manrope_MSFontService,sans-serif" font-weight="400" font-size="16" transform="matrix(1 0 0 1.00041 38.0284 511)">0</text></g><g><text fill="#595959" font-family="Manrope,Manrope_MSFontService,sans-serif" font-weight="400" font-size="16" transform="matrix(1 0 0 1.00041 12.3384 437)">1000</text></g><g><text fill="#595959" font-family="Manrope,Manrope_MSFontService,sans-serif" font-weight="400" font-size="16" transform="matrix(1 0 0 1.00041 9.46543 364)">2000</text></g><g><text fill="#595959" font-family="Manrope,Manrope_MSFontService,sans-serif" font-weight="400" font-size="16" transform="matrix(1 0 0 1.00041 9.73878 290)">3000</text></g><g><text fill="#595959" font-family="Manrope,Manrope_MSFontService,sans-serif" font-weight="400" font-size="16" transform="matrix(1 0 0 1.00041 9.15881 216)">4000</text></g><g><text fill="#595959" font-family="Manrope,Manrope_MSFontService,sans-serif" font-weight="400" font-size="16" transform="matrix(1 0 0 1.00041 9.34545 142)">5000</text></g><g><text fill="#595959" font-family="Manrope,Manrope_MSFontService,sans-serif" font-weight="400" font-size="16" transform="matrix(1 0 0 1.00041 8.66554 68)">6000</text></g><g><text fill="#595959" font-family="Manrope,Manrope_MSFontService,sans-serif" font-weight="400" font-size="16" transform="matrix(1 0 0 1.00041 113.936 535)">Week 1</text></g><g><text fill="#595959" font-family="Manrope,Manrope_MSFontService,sans-serif" font-weight="400" font-size="16" transform="matrix(1 0 0 1.00041 262.625 535)">Week 2</text></g><g><text fill="#595959" font-family="Manrope,Manrope_MSFontService,sans-serif" font-weight="400" font-size="16" transform="matrix(1 0 0 1.00041 412.887 535)">Week 3</text></g><g><text fill="#595959" font-family="Manrope,Manrope_MSFontService,sans-serif" font-weight="400" font-size="16" transform="matrix(1 0 0 1.00041 562.723 535)">Week 4</text></g><g><text fill="#595959" font-family="Manrope,Manrope_MSFontService,sans-serif" font-weight="400" font-size="16" transform="matrix(1 0 0 1.00041 712.942 535)">Week 5</text></g><g><text fill="#595959" font-family="Manrope,Manrope_MSFontService,sans-serif" font-weight="400" font-size="16" transform="matrix(1 0 0 1.00041 862.728 535)">Week 6</text></g><g><text fill="#595959" font-family="Manrope,Manrope_MSFontService,sans-serif" font-weight="400" font-size="16" transform="matrix(1 0 0 1.00041 1013.8 535)">Week 7</text></g><g><text fill="#595959" font-family="Manrope,Manrope_MSFontService,sans-serif" font-weight="400" font-size="16" transform="matrix(1 0 0 1.00041 1163.3 535)">Week 8</text></g><g><text fill="#595959" font-family="Manrope,Manrope_MSFontService,sans-serif" font-weight="400" font-size="25" transform="matrix(1 0 0 1.00041 504.378 36)">Example</text></g><g><text fill="#595959" font-family="Manrope,Manrope_MSFontService,sans-serif" font-weight="400" font-size="25" transform="matrix(1 0 0 1.00041 601.465 36)">:</text></g><g><text fill="#595959" font-family="Manrope,Manrope_MSFontService,sans-serif" font-weight="400" font-size="25" transform="matrix(1 0 0 1.00041 613.85 36)">Capacity</text></g><g><text fill="#595959" font-family="Manrope,Manrope_MSFontService,sans-serif" font-weight="400" font-size="25" transform="matrix(1 0 0 1.00041 721.429 36)">Data</text></g><g><path d="M367.5 562.733 400.5 562.733" stroke="#B3CB2D" stroke-width="2.99961" stroke-linecap="round" stroke-linejoin="round" stroke-miterlimit="10" fill="none" fill-rule="evenodd"/></g><g><text fill="#595959" font-family="Manrope,Manrope_MSFontService,sans-serif" font-weight="400" font-size="16" transform="matrix(1 0 0 1.00041 404.615 568)">Actual Capacity</text></g><g><path d="M551.5 562.733 584.5 562.733" stroke="#809500" stroke-width="2.99961" stroke-linecap="round" stroke-linejoin="round" stroke-miterlimit="10" stroke-dasharray="0 5.99922" fill="none" fill-rule="evenodd"/></g><g><text fill="#595959" font-family="Manrope,Manrope_MSFontService,sans-serif" font-weight="400" font-size="16" transform="matrix(1 0 0 1.00041 588.436 568)">Maximum Capacity</text></g><g><path d="M758.5 562.733 792.5 562.733" stroke="#617000" stroke-width="2.99961" stroke-linecap="round" stroke-linejoin="round" stroke-miterlimit="10" stroke-dasharray="8.99883 11.9984" fill="none" fill-rule="evenodd"/></g><g><text fill="#595959" font-family="Manrope,Manrope_MSFontService,sans-serif" font-weight="400" font-size="16" transform="matrix(1 0 0 1.00041 795.808 568)">Agreed Capacity</text></g></g></svg>