<svg width="1280" height="586" xmlns="http://www.w3.org/2000/svg" xmlns:xlink="http://www.w3.org/1999/xlink" overflow="hidden"><defs><clipPath id="clip0"><rect x="0" y="0" width="1280" height="586"/></clipPath><clipPath id="clip1"><rect x="64" y="62" width="1202" height="358"/></clipPath><clipPath id="clip2"><rect x="64" y="62" width="1202" height="358"/></clipPath><clipPath id="clip3"><rect x="64" y="62" width="1202" height="358"/></clipPath><clipPath id="clip4"><rect x="64" y="62" width="1202" height="358"/></clipPath><clipPath id="clip5"><rect x="64" y="62" width="1202" height="358"/></clipPath></defs><g clip-path="url(#clip0)"><rect x="0" y="0" width="1280" height="586.167" fill="#FFFFFF"/><g><path d="M64.5001 360.603 1265.5 360.603M64.5001 300.586 1265.5 300.586M64.5001 241.569 1265.5 241.569M64.5001 181.552 1265.5 181.552M64.5001 122.535 1265.5 122.535M64.5001 62.5178 1265.5 62.5178" stroke="#D9D9D9" stroke-linejoin="round" stroke-miterlimit="10" fill="none"/></g><g clip-path="url(#clip1)"><rect x="723" y="182.052" width="34" height="238.068" fill="#D91E18"/></g><g clip-path="url(#clip2)"><rect x="873" y="182.052" width="34" height="238.068" fill="#FFC000"/></g><g clip-path="url(#clip3)"><rect x="1023" y="182.052" width="34" height="238.068" fill="#FFC000"/></g><g clip-path="url(#clip4)"><rect x="1174" y="122.035" width="33" height="298.085" fill="#D91E18"/></g><g clip-path="url(#clip5)"><path d="M123 241.069 156 241.069 156 420.119 123 420.119ZM273 241.069 306 241.069 306 420.119 273 420.119ZM423 241.069 456 241.069 456 420.119 423 420.119ZM573 241.069 606 241.069 606 420.119 573 420.119Z" fill="#B3CB2D"/></g><g><path d="M64.5001 419.619 1265.5 419.619" stroke="#D9D9D9" stroke-linejoin="round" stroke-miterlimit="10" fill="none" fill-rule="evenodd"/></g><g><path d="M139.5 241.569 289.5 241.569 439.5 181.552 589.5 181.552 739.5 241.569 890.5 241.569 1040.5 241.569 1190.5 241.569" stroke="#000000" stroke-width="3" stroke-linecap="round" stroke-linejoin="round" stroke-miterlimit="10" fill="none"/></g><g><path d="M139.5 241.569 289.5 181.552 439.5 181.552 589.5 122.535 739.5 241.569 890.5 181.552 1040.5 122.535 1190.5 181.552" stroke="#979797" stroke-width="3" stroke-linecap="round" stroke-linejoin="round" stroke-miterlimit="10" stroke-dasharray="0 6" fill="none"/></g><g><path d="M139.5 122.535 289.5 122.535 439.5 122.535 589.5 122.535 739.5 122.535 890.5 122.535 1040.5 122.535 1190.5 122.535" stroke="#CECECE" stroke-width="3" stroke-linecap="round" stroke-linejoin="round" stroke-miterlimit="10" stroke-dasharray="9 12" fill="none"/></g><g><text fill="#595959" font-family="Manrope,Manrope_MSFontService,sans-serif" font-weight="400" font-size="16" transform="matrix(1 0 0 1.00028 38.0334 425)">0</text></g><g><text fill="#595959" font-family="Manrope,Manrope_MSFontService,sans-serif" font-weight="400" font-size="16" transform="matrix(1 0 0 1.00028 12.3401 365)">1000</text></g><g><text fill="#595959" font-family="Manrope,Manrope_MSFontService,sans-serif" font-weight="400" font-size="16" transform="matrix(1 0 0 1.00028 9.46667 305)">2000</text></g><g><text fill="#595959" font-family="Manrope,Manrope_MSFontService,sans-serif" font-weight="400" font-size="16" transform="matrix(1 0 0 1.00028 9.74005 246)">3000</text></g><g><text fill="#595959" font-family="Manrope,Manrope_MSFontService,sans-serif" font-weight="400" font-size="16" transform="matrix(1 0 0 1.00028 9.16 186)">4000</text></g><g><text fill="#595959" font-family="Manrope,Manrope_MSFontService,sans-serif" font-weight="400" font-size="16" transform="matrix(1 0 0 1.00028 9.34667 127)">5000</text></g><g><text fill="#595959" font-family="Manrope,Manrope_MSFontService,sans-serif" font-weight="400" font-size="16" transform="matrix(1 0 0 1.00028 8.66667 67)">6000</text></g><g><text fill="#595959" font-family="Manrope,Manrope_MSFontService,sans-serif" font-weight="400" font-size="16" transform="matrix(1 0 0 1.00028 113.94 448)">Week 1</text></g><g><text fill="#595959" font-family="Manrope,Manrope_MSFontService,sans-serif" font-weight="400" font-size="16" transform="matrix(1 0 0 1.00028 262.628 448)">Week 2</text></g><g><text fill="#595959" font-family="Manrope,Manrope_MSFontService,sans-serif" font-weight="400" font-size="16" transform="matrix(1 0 0 1.00028 412.889 448)">Week 3</text></g><g><text fill="#595959" font-family="Manrope,Manrope_MSFontService,sans-serif" font-weight="400" font-size="16" transform="matrix(1 0 0 1.00028 562.723 448)">Week 4</text></g><g><text fill="#595959" font-family="Manrope,Manrope_MSFontService,sans-serif" font-weight="400" font-size="16" transform="matrix(1 0 0 1.00028 712.941 448)">Week 5</text></g><g><text fill="#595959" font-family="Manrope,Manrope_MSFontService,sans-serif" font-weight="400" font-size="16" transform="matrix(1 0 0 1.00028 862.725 448)">Week 6</text></g><g><text fill="#595959" font-family="Manrope,Manrope_MSFontService,sans-serif" font-weight="400" font-size="16" transform="matrix(1 0 0 1.00028 1013.79 448)">Week 7</text></g><g><text fill="#595959" font-family="Manrope,Manrope_MSFontService,sans-serif" font-weight="400" font-size="16" transform="matrix(1 0 0 1.00028 1163.29 448)">Week 8</text></g><g><text fill="#595959" font-family="Manrope,Manrope_MSFontService,sans-serif" font-weight="400" font-size="24" transform="matrix(1 0 0 1.00028 368.213 36)">Example</text></g><g><text fill="#595959" font-family="Manrope,Manrope_MSFontService,sans-serif" font-weight="400" font-size="24" transform="matrix(1 0 0 1.00028 462.067 36)">:</text></g><g><text fill="#595959" font-family="Manrope,Manrope_MSFontService,sans-serif" font-weight="400" font-size="24" transform="matrix(1 0 0 1.00028 474.04 36)">Pre</text></g><g><text fill="#595959" font-family="Manrope,Manrope_MSFontService,sans-serif" font-weight="400" font-size="24" transform="matrix(1 0 0 1.00028 511.213 36)">-</text></g><g><text fill="#595959" font-family="Manrope,Manrope_MSFontService,sans-serif" font-weight="400" font-size="24" transform="matrix(1 0 0 1.00028 521.293 36)">Production</text></g><g><text fill="#595959" font-family="Manrope,Manrope_MSFontService,sans-serif" font-weight="400" font-size="24" transform="matrix(1 0 0 1.00028 648.86 36)">within</text></g><g><text fill="#595959" font-family="Manrope,Manrope_MSFontService,sans-serif" font-weight="400" font-size="24" transform="matrix(1 0 0 1.00028 721.413 36)">a</text></g><g><text fill="#595959" font-family="Manrope,Manrope_MSFontService,sans-serif" font-weight="400" font-size="24" transform="matrix(1 0 0 1.00028 739.547 36)">Capacity</text></g><g><text fill="#595959" font-family="Manrope,Manrope_MSFontService,sans-serif" font-weight="400" font-size="24" transform="matrix(1 0 0 1.00028 843.56 36)">Group</text></g><g><rect x="239" y="471.134" width="34" height="10.0028" fill="#D91E18"/></g><g><text fill="#595959" font-family="Manrope,Manrope_MSFontService,sans-serif" font-weight="400" font-size="16" transform="matrix(1 0 0 1.00028 276.319 481)">Demand over actual capacity</text></g><g><rect x="645" y="471.134" width="34" height="10.0028" fill="#B3CB2D"/></g><g><text fill="#595959" font-family="Manrope,Manrope_MSFontService,sans-serif" font-weight="400" font-size="16" transform="matrix(1 0 0 1.00028 682.5 481)">Demand within actual capacity</text></g><g><rect x="239" y="501.143" width="34" height="10.0028" fill="#FFA600"/></g><g><text fill="#595959" font-family="Manrope,Manrope_MSFontService,sans-serif" font-weight="400" font-size="16" transform="matrix(1 0 0 1.00028 276.319 511)">Demand over actual but within maximum capacity</text></g><g><path d="M645.5 505.644 678.5 505.644" stroke="#000000" stroke-width="3" stroke-linecap="round" stroke-linejoin="round" stroke-miterlimit="10" fill="none" fill-rule="evenodd"/></g><g><text fill="#595959" font-family="Manrope,Manrope_MSFontService,sans-serif" font-weight="400" font-size="16" transform="matrix(1 0 0 1.00028 682.5 511)">Actual capacity</text></g><g><path d="M239.5 535.652 272.5 535.653" stroke="#979797" stroke-width="3" stroke-linecap="round" stroke-linejoin="round" stroke-miterlimit="10" stroke-dasharray="0 6" fill="none" fill-rule="evenodd"/></g><g><text fill="#595959" font-family="Manrope,Manrope_MSFontService,sans-serif" font-weight="400" font-size="16" transform="matrix(1 0 0 1.00028 276.319 540)">Maximum capacity</text></g><g><path d="M645.5 535.652 678.5 535.653" stroke="#219DD4" stroke-width="3" stroke-linecap="round" stroke-linejoin="round" stroke-miterlimit="10" fill="none" fill-rule="evenodd"/></g><g><text fill="#595959" font-family="Manrope,Manrope_MSFontService,sans-serif" font-weight="400" font-size="16" transform="matrix(1 0 0 1.00028 682.5 540)">Delta-production</text></g><g><path d="M239.5 565.661 272.5 565.661" stroke="#CECECE" stroke-width="3" stroke-linecap="round" stroke-linejoin="round" stroke-miterlimit="10" stroke-dasharray="9 12" fill="none" fill-rule="evenodd"/></g><g><text fill="#595959" font-family="Manrope,Manrope_MSFontService,sans-serif" font-weight="400" font-size="16" transform="matrix(1 0 0 1.00028 276.319 570)">Agreed capacity</text></g><rect x="574.5" y="179.551" width="31" height="62.0176" stroke="#219DD4" stroke-width="2.66667" stroke-linejoin="round" stroke-miterlimit="10" fill="#219DD4" fill-opacity="0"/><text fill="#219DD4" font-family="Manrope Light,Manrope Light_MSFontService,sans-serif" font-weight="300" font-size="24" transform="matrix(1 0 0 1.00028 574.367 217)">+D</text><rect x="724.5" y="180.551" width="31" height="62.0176" stroke="#219DD4" stroke-width="2.66667" stroke-linejoin="round" stroke-miterlimit="10" fill="#219DD4" fill-opacity="0"/><text fill="#219DD4" font-family="Manrope Light,Manrope Light_MSFontService,sans-serif" font-weight="300" font-size="24" transform="matrix(1 0 0 1.00028 726.807 218)">-</text><text fill="#219DD4" font-family="Manrope Light,Manrope Light_MSFontService,sans-serif" font-weight="300" font-size="24" transform="matrix(1 0 0 1.00028 736.807 218)">D</text><rect x="574.5" y="180.551" width="31" height="62.0176" stroke="#219DD4" stroke-width="2.66667" stroke-linejoin="round" stroke-miterlimit="10" fill="#219DD4" fill-opacity="0"/><text fill="#219DD4" font-family="Manrope Light,Manrope Light_MSFontService,sans-serif" font-weight="300" font-size="24" transform="matrix(1 0 0 1.00028 574.367 218)">+D</text></g></svg>