<?xml version="1.0" encoding="utf-8"?>
<!-- Generator: Adobe Illustrator 18.0.0, SVG Export Plug-In . SVG Version: 6.00 Build 0)  -->
<!DOCTYPE svg PUBLIC "-//W3C//DTD SVG 1.1//EN" "http://www.w3.org/Graphics/SVG/1.1/DTD/svg11.dtd">
<svg version="1.1" id="Layer_1" xmlns="http://www.w3.org/2000/svg" xmlns:xlink="http://www.w3.org/1999/xlink" x="0px" y="0px"
	 viewBox="0 0 64 64" enable-background="new 0 0 64 64" xml:space="preserve">
<g>
	<g>
		<g>
			<path fill="#FF6A4D" d="M32,0c17.7,0,32,14.3,32,32S49.7,64,32,64S0,49.7,0,32S14.3,0,32,0z"/>
		</g>
	</g>
	<g>
		<g>
			<path fill="#FFD72E" d="M33,41h6v-4c3.5-2.2,6.4-5.4,6.9-9.6C46,26.9,46,26.5,46,26c0-1-0.1-1.9-0.3-2.9c-0.4-1.8-1.2-3.5-2.2-5
				c-1-1.4-2.2-2.6-3.6-3.6C37.6,13,34.9,12,32,12c-7.5,0-14,6.5-14,14c0,4.9,3.1,8.6,7,11v4h6"/>
		</g>
	</g>
	<g>
		<g>
			<rect x="25" y="43" fill="#A8DBEF" width="14" height="2"/>
		</g>
	</g>
	<g>
		<g>
			<polygon fill="#93B9CC" points="39,41 39,43 25,43 25,41 31,41 33,41 			"/>
		</g>
	</g>
	<g>
		<g>
			<polygon fill="#FFFF6E" points="39,29 38,31 35,28 33,29.3 33,41 31,41 31,29.3 29,28 26,31 25,29 29,25 32,27 35,25 			"/>
		</g>
	</g>
	<g>
		<g>
			<path fill="#93B9CC" d="M25,45h14c0,1.1-0.9,2-2,2H27C25.9,47,25,46.1,25,45z"/>
		</g>
	</g>
	<g>
		<g>
			<path fill="#2B3E42" d="M27,47h10c0,2.8-2.2,5-5,5S27,49.8,27,47z"/>
		</g>
	</g>
	<g>
		<g>
			<circle fill="#516F72" cx="34" cy="49" r="1"/>
		</g>
	</g>
	<g>
		<g>
			<g>
				<path fill="#FFFFFF" d="M47,24c-0.6-0.6-1-1.3-1-2c0,0.4-0.1,0.8-0.3,1.1c-0.2,0.3-0.4,0.6-0.7,0.9c-0.6,0.6-1.3,1-2,1
					c1.2,0,2.5,1.2,2.9,2.4C46,27.6,46,27.8,46,28c0-0.7,0.4-1.4,1-2c0.6-0.6,1.3-1,2-1C48.3,25,47.6,24.6,47,24z"/>
			</g>
		</g>
		<g>
			<g>
				<path fill="#FFFFFF" d="M47,17c-3.4,0-6-2.6-6-6c0,1.4-0.4,2.6-1.1,3.6c-0.2,0.3-0.4,0.5-0.6,0.7C38.2,16.4,36.7,17,35,17
					c1.7,0,3.2,0.6,4.3,1.7c1.1,1.1,1.7,2.6,1.7,4.3c0-1.7,0.6-3.2,1.7-4.3c0.2-0.2,0.5-0.4,0.7-0.6C44.4,17.4,45.6,17,47,17z"/>
			</g>
		</g>
	</g>
</g>
</svg>
