<?xml version="1.0" encoding="us-ascii" standalone="no"?><svg xmlns="http://www.w3.org/2000/svg" xmlns:xlink="http://www.w3.org/1999/xlink" contentStyleType="text/css" height="1397px" preserveAspectRatio="none" style="width:1254px;height:1397px;background:#FFFFFF;" version="1.1" viewBox="0 0 1254 1397" width="1254px" zoomAndPan="magnify"><defs/><g><rect fill="#DDDDDD" height="1385.1719" style="stroke:#181818;stroke-width:0.5;" width="637" x="1" y="6"/><text fill="#000000" font-family="sans-serif" font-size="13" font-weight="bold" lengthAdjust="spacing" textLength="52" x="293.5" y="18.0669">Sender</text><rect fill="#DDDDDD" height="1385.1719" style="stroke:#181818;stroke-width:0.5;" width="457" x="791" y="6"/><text fill="#000000" font-family="sans-serif" font-size="13" font-weight="bold" lengthAdjust="spacing" textLength="64" x="987.5" y="18.0669">Receiver</text><rect fill="#FFFFFF" height="28" style="stroke:#181818;stroke-width:1.0;" width="10" x="94" y="323.6235"/><rect fill="#FFFFFF" height="826.5876" style="stroke:#181818;stroke-width:1.0;" width="10" x="351" y="479.1547"/><rect fill="#FFFFFF" height="28" style="stroke:#181818;stroke-width:1.0;" width="10" x="356" y="607.686"/><rect fill="#FFFFFF" height="29.1328" style="stroke:#181818;stroke-width:1.0;" width="10" x="607" y="541.4203"/><rect fill="#FFFFFF" height="29.1328" style="stroke:#181818;stroke-width:1.0;" width="10" x="607" y="750.35"/><rect fill="#FFFFFF" height="29.1328" style="stroke:#181818;stroke-width:1.0;" width="10" x="607" y="808.6156"/><rect fill="#FFFFFF" height="376.1282" style="stroke:#181818;stroke-width:1.0;" width="10" x="607" y="866.8813"/><rect fill="#FFFFFF" height="62.2656" style="stroke:#181818;stroke-width:1.0;" width="10" x="709.5" y="387.7563"/><rect fill="#FFFFFF" height="29.1328" style="stroke:#181818;stroke-width:1.0;" width="10" x="812" y="257.3578"/><rect fill="#FFFFFF" height="251.1297" style="stroke:#181818;stroke-width:1.0;" width="10" x="812" y="929.1469"/><rect fill="#FFFFFF" height="126.1313" style="stroke:#181818;stroke-width:1.0;" width="10" x="1145" y="991.4125"/><line style="stroke:#181818;stroke-width:0.5;stroke-dasharray:5.0,5.0;" x1="99" x2="99" y1="56.4297" y2="1356.8751"/><line style="stroke:#181818;stroke-width:0.5;stroke-dasharray:5.0,5.0;" x1="356" x2="356" y1="56.4297" y2="1356.8751"/><line style="stroke:#181818;stroke-width:0.5;stroke-dasharray:5.0,5.0;" x1="612" x2="612" y1="56.4297" y2="1356.8751"/><line style="stroke:#181818;stroke-width:0.5;stroke-dasharray:5.0,5.0;" x1="714" x2="714" y1="56.4297" y2="1356.8751"/><line style="stroke:#181818;stroke-width:0.5;stroke-dasharray:5.0,5.0;" x1="817" x2="817" y1="56.4297" y2="1356.8751"/><line style="stroke:#181818;stroke-width:0.5;stroke-dasharray:5.0,5.0;" x1="1150" x2="1150" y1="56.4297" y2="1356.8751"/><rect fill="#E2E2F0" height="30.2969" rx="2.5" ry="2.5" style="stroke:#181818;stroke-width:0.5;" width="188" x="5" y="25.1328"/><text fill="#000000" font-family="sans-serif" font-size="14" lengthAdjust="spacing" textLength="174" x="12" y="45.1279">Some (Traceability) App</text><rect fill="#E2E2F0" height="30.2969" rx="2.5" ry="2.5" style="stroke:#181818;stroke-width:0.5;" width="188" x="5" y="1355.8751"/><text fill="#000000" font-family="sans-serif" font-size="14" lengthAdjust="spacing" textLength="174" x="12" y="1375.8702">Some (Traceability) App</text><rect fill="#E2E2F0" height="30.2969" rx="2.5" ry="2.5" style="stroke:#181818;stroke-width:0.5;" width="196" x="258" y="25.1328"/><text fill="#000000" font-family="sans-serif" font-size="14" lengthAdjust="spacing" textLength="182" x="265" y="45.1279">Notification EDC Adapter</text><rect fill="#E2E2F0" height="30.2969" rx="2.5" ry="2.5" style="stroke:#181818;stroke-width:0.5;" width="196" x="258" y="1355.8751"/><text fill="#000000" font-family="sans-serif" font-size="14" lengthAdjust="spacing" textLength="182" x="265" y="1375.8702">Notification EDC Adapter</text><rect fill="#E2E2F0" height="30.2969" rx="2.5" ry="2.5" style="stroke:#181818;stroke-width:0.5;" width="44" x="590" y="25.1328"/><text fill="#000000" font-family="sans-serif" font-size="14" lengthAdjust="spacing" textLength="30" x="597" y="45.1279">EDC</text><rect fill="#E2E2F0" height="30.2969" rx="2.5" ry="2.5" style="stroke:#181818;stroke-width:0.5;" width="44" x="590" y="1355.8751"/><text fill="#000000" font-family="sans-serif" font-size="14" lengthAdjust="spacing" textLength="30" x="597" y="1375.8702">EDC</text><rect fill="#E2E2F0" height="30.2969" rx="2.5" ry="2.5" style="stroke:#181818;stroke-width:0.5;" width="141" x="644" y="25.1328"/><text fill="#000000" font-family="sans-serif" font-size="14" lengthAdjust="spacing" textLength="127" x="651" y="45.1279">Discovery Service</text><rect fill="#E2E2F0" height="30.2969" rx="2.5" ry="2.5" style="stroke:#181818;stroke-width:0.5;" width="141" x="644" y="1355.8751"/><text fill="#000000" font-family="sans-serif" font-size="14" lengthAdjust="spacing" textLength="127" x="651" y="1375.8702">Discovery Service</text><rect fill="#E2E2F0" height="30.2969" rx="2.5" ry="2.5" style="stroke:#181818;stroke-width:0.5;" width="44" x="795" y="25.1328"/><text fill="#000000" font-family="sans-serif" font-size="14" lengthAdjust="spacing" textLength="30" x="802" y="45.1279">EDC</text><rect fill="#E2E2F0" height="30.2969" rx="2.5" ry="2.5" style="stroke:#181818;stroke-width:0.5;" width="44" x="795" y="1355.8751"/><text fill="#000000" font-family="sans-serif" font-size="14" lengthAdjust="spacing" textLength="30" x="802" y="1375.8702">EDC</text><rect fill="#E2E2F0" height="30.2969" rx="2.5" ry="2.5" style="stroke:#181818;stroke-width:0.5;" width="188" x="1056" y="25.1328"/><text fill="#000000" font-family="sans-serif" font-size="14" lengthAdjust="spacing" textLength="174" x="1063" y="45.1279">Some (Traceability) App</text><rect fill="#E2E2F0" height="30.2969" rx="2.5" ry="2.5" style="stroke:#181818;stroke-width:0.5;" width="188" x="1056" y="1355.8751"/><text fill="#000000" font-family="sans-serif" font-size="14" lengthAdjust="spacing" textLength="174" x="1063" y="1375.8702">Some (Traceability) App</text><rect fill="#FFFFFF" height="28" style="stroke:#181818;stroke-width:1.0;" width="10" x="94" y="323.6235"/><rect fill="#FFFFFF" height="826.5876" style="stroke:#181818;stroke-width:1.0;" width="10" x="351" y="479.1547"/><rect fill="#FFFFFF" height="28" style="stroke:#181818;stroke-width:1.0;" width="10" x="356" y="607.686"/><rect fill="#FFFFFF" height="29.1328" style="stroke:#181818;stroke-width:1.0;" width="10" x="607" y="541.4203"/><rect fill="#FFFFFF" height="29.1328" style="stroke:#181818;stroke-width:1.0;" width="10" x="607" y="750.35"/><rect fill="#FFFFFF" height="29.1328" style="stroke:#181818;stroke-width:1.0;" width="10" x="607" y="808.6156"/><rect fill="#FFFFFF" height="376.1282" style="stroke:#181818;stroke-width:1.0;" width="10" x="607" y="866.8813"/><rect fill="#FFFFFF" height="62.2656" style="stroke:#181818;stroke-width:1.0;" width="10" x="709.5" y="387.7563"/><rect fill="#FFFFFF" height="29.1328" style="stroke:#181818;stroke-width:1.0;" width="10" x="812" y="257.3578"/><rect fill="#FFFFFF" height="251.1297" style="stroke:#181818;stroke-width:1.0;" width="10" x="812" y="929.1469"/><rect fill="#FFFFFF" height="126.1313" style="stroke:#181818;stroke-width:1.0;" width="10" x="1145" y="991.4125"/><rect fill="#FEFFDD" height="129" style="stroke:#181818;stroke-width:0.5;" width="227" x="361" y="71.4297"/><text fill="#000000" font-family="sans-serif" font-size="13" lengthAdjust="spacing" textLength="213" x="365" y="87.4966">Not mandatory as the interaction</text><text fill="#000000" font-family="sans-serif" font-size="13" lengthAdjust="spacing" textLength="219" x="365" y="102.6294">with the EDC can be implemented</text><text fill="#000000" font-family="sans-serif" font-size="13" lengthAdjust="spacing" textLength="187" x="365" y="117.7622">also in the (Traceability) App.</text><text fill="#000000" font-family="sans-serif" font-size="13" lengthAdjust="spacing" textLength="4" x="365" y="132.895">&#160;</text><text fill="#000000" font-family="sans-serif" font-size="13" lengthAdjust="spacing" textLength="202" x="365" y="148.0278">However, a similar functionality</text><text fill="#000000" font-family="sans-serif" font-size="13" lengthAdjust="spacing" textLength="126" x="365" y="163.1606">(e.g., fetch catalog)</text><text fill="#000000" font-family="sans-serif" font-size="13" lengthAdjust="spacing" textLength="178" x="365" y="178.2935">- as shown below - must be</text><text fill="#000000" font-family="sans-serif" font-size="13" lengthAdjust="spacing" textLength="60" x="365" y="193.4263">provided.</text><polygon fill="#181818" points="833,253.3578,823,257.3578,833,261.3578,829,257.3578" style="stroke:#181818;stroke-width:1.0;"/><line style="stroke:#181818;stroke-width:1.0;" x1="827" x2="1149" y1="257.3578" y2="257.3578"/><text fill="#000000" font-family="sans-serif" font-size="13" font-weight="bold" lengthAdjust="spacing" textLength="31" x="839" y="236.9255">[01]</text><text fill="#000000" font-family="sans-serif" font-size="13" lengthAdjust="spacing" textLength="136" x="874" y="221.5591">Create EDC Asset for</text><text fill="#000000" font-family="sans-serif" font-size="13" lengthAdjust="spacing" textLength="144" x="874" y="236.6919">"Quality Alert Resolve"</text><text fill="#000000" font-family="sans-serif" font-size="13" lengthAdjust="spacing" textLength="27" x="874" y="252.2919">with</text><text fill="#000000" font-family="monospace" font-size="13" lengthAdjust="spacing" textLength="88" x="905" y="251.7958">DataAddress</text><text fill="#000000" font-family="sans-serif" font-size="13" lengthAdjust="spacing" textLength="15" x="997" y="252.2919">as</text><text fill="#000000" font-family="monospace" font-size="13" lengthAdjust="spacing" textLength="72" x="1016" y="251.7958">HTTP&#160;POST</text><text fill="#000000" font-family="sans-serif" font-size="13" lengthAdjust="spacing" textLength="56" x="1092" y="252.2919">endpoint</text><polygon fill="#181818" points="1138,282.4906,1148,286.4906,1138,290.4906,1142,286.4906" style="stroke:#181818;stroke-width:1.0;"/><line style="stroke:#181818;stroke-width:1.0;stroke-dasharray:2.0,2.0;" x1="817" x2="1144" y1="286.4906" y2="286.4906"/><text fill="#000000" font-family="sans-serif" font-size="13" font-weight="bold" lengthAdjust="spacing" textLength="31" x="824" y="281.4247">[02]</text><text fill="#000000" font-family="sans-serif" font-size="13" lengthAdjust="spacing" textLength="18" x="859" y="281.4247">OK</text><line style="stroke:#181818;stroke-width:1.0;" x1="104" x2="146" y1="315.6235" y2="315.6235"/><line style="stroke:#181818;stroke-width:1.0;" x1="146" x2="146" y1="315.6235" y2="328.6235"/><line style="stroke:#181818;stroke-width:1.0;" x1="105" x2="146" y1="328.6235" y2="328.6235"/><polygon fill="#181818" points="115,324.6235,105,328.6235,115,332.6235,111,328.6235" style="stroke:#181818;stroke-width:1.0;"/><text fill="#000000" font-family="sans-serif" font-size="13" font-weight="bold" lengthAdjust="spacing" textLength="30" x="111" y="310.5575">[03]</text><text fill="#000000" font-family="sans-serif" font-size="13" lengthAdjust="spacing" textLength="209" x="145" y="310.5575">Trigger Resolution of Notification</text><polygon fill="#181818" points="697.5,383.7563,707.5,387.7563,697.5,391.7563,701.5,387.7563" style="stroke:#181818;stroke-width:1.0;"/><line style="stroke:#181818;stroke-width:1.0;" x1="99" x2="703.5" y1="387.7563" y2="387.7563"/><text fill="#000000" font-family="sans-serif" font-size="13" font-weight="bold" lengthAdjust="spacing" textLength="31" x="106" y="382.6903">[04]</text><text fill="#000000" font-family="sans-serif" font-size="13" lengthAdjust="spacing" textLength="142" x="141" y="382.6903">Resolve EDC Endpoint</text><rect fill="#FEFFDD" height="23" style="stroke:#181818;stroke-width:0.5;" width="397" x="104" y="400.7563"/><text fill="#000000" font-family="sans-serif" font-size="13" lengthAdjust="spacing" textLength="389" x="108" y="416.8232">BPN of supply chain partner (as given in existing notification)</text><polygon fill="#181818" points="110,446.0219,100,450.0219,110,454.0219,106,450.0219" style="stroke:#181818;stroke-width:1.0;"/><line style="stroke:#181818;stroke-width:1.0;stroke-dasharray:2.0,2.0;" x1="104" x2="713.5" y1="450.0219" y2="450.0219"/><text fill="#000000" font-family="sans-serif" font-size="13" font-weight="bold" lengthAdjust="spacing" textLength="31" x="116" y="444.956">[05]</text><text fill="#000000" font-family="sans-serif" font-size="13" lengthAdjust="spacing" textLength="18" x="151" y="444.956">OK</text><polygon fill="#181818" points="339,475.1547,349,479.1547,339,483.1547,343,479.1547" style="stroke:#181818;stroke-width:1.0;"/><line style="stroke:#181818;stroke-width:1.0;" x1="99" x2="345" y1="479.1547" y2="479.1547"/><text fill="#000000" font-family="sans-serif" font-size="13" font-weight="bold" lengthAdjust="spacing" textLength="31" x="106" y="474.0888">[06]</text><text fill="#000000" font-family="sans-serif" font-size="13" lengthAdjust="spacing" textLength="108" x="141" y="474.0888">Send Notification</text><text fill="#000000" font-family="sans-serif" font-size="13" font-weight="bold" lengthAdjust="spacing" textLength="81" x="253" y="474.0888">Resolution</text><rect fill="#FEFFDD" height="23" style="stroke:#181818;stroke-width:0.5;" width="192" x="104" y="492.1547"/><text fill="#000000" font-family="sans-serif" font-size="13" lengthAdjust="spacing" textLength="184" x="108" y="508.2216">Payload as described above.</text><polygon fill="#181818" points="595,537.4203,605,541.4203,595,545.4203,599,541.4203" style="stroke:#181818;stroke-width:1.0;"/><line style="stroke:#181818;stroke-width:1.0;" x1="361" x2="601" y1="541.4203" y2="541.4203"/><text fill="#000000" font-family="sans-serif" font-size="13" font-weight="bold" lengthAdjust="spacing" textLength="31" x="368" y="536.3544">[07]</text><text fill="#000000" font-family="sans-serif" font-size="13" lengthAdjust="spacing" textLength="88" x="403" y="536.3544">Fetch Catalog</text><polygon fill="#181818" points="623,566.5531,613,570.5531,623,574.5531,619,570.5531" style="stroke:#181818;stroke-width:1.0;"/><polygon fill="#181818" points="805,566.5531,815,570.5531,805,574.5531,809,570.5531" style="stroke:#181818;stroke-width:1.0;"/><line style="stroke:#181818;stroke-width:1.0;stroke-dasharray:2.0,2.0;" x1="617" x2="811" y1="570.5531" y2="570.5531"/><text fill="#000000" font-family="sans-serif" font-size="13" font-weight="bold" lengthAdjust="spacing" textLength="31" x="629" y="565.4872">[08]</text><text fill="#000000" font-family="sans-serif" font-size="13" lengthAdjust="spacing" textLength="88" x="664" y="565.4872">Fetch Catalog</text><line style="stroke:#181818;stroke-width:1.0;" x1="366" x2="408" y1="599.686" y2="599.686"/><line style="stroke:#181818;stroke-width:1.0;" x1="408" x2="408" y1="599.686" y2="612.686"/><line style="stroke:#181818;stroke-width:1.0;" x1="367" x2="408" y1="612.686" y2="612.686"/><polygon fill="#181818" points="377,608.686,367,612.686,377,616.686,373,612.686" style="stroke:#181818;stroke-width:1.0;"/><text fill="#000000" font-family="sans-serif" font-size="13" font-weight="bold" lengthAdjust="spacing" textLength="31" x="373" y="594.62">[09]</text><text fill="#000000" font-family="sans-serif" font-size="13" lengthAdjust="spacing" textLength="156" x="408" y="594.62">Find and Select Contract</text><rect fill="#FEFFDD" height="68" style="stroke:#181818;stroke-width:0.5;" width="287" x="366" y="655.686"/><text fill="#000000" font-family="sans-serif" font-size="13" lengthAdjust="spacing" textLength="228" x="370" y="671.7528">Find the correct contract offer with:</text><text fill="#000000" font-family="sans-serif" font-size="13" lengthAdjust="spacing" textLength="4" x="370" y="686.8857">&#160;</text><text fill="#000000" font-family="sans-serif" font-size="13" lengthAdjust="spacing" textLength="279" x="370" y="702.0185">"asset:prop:notificationtype": "qualityalert",</text><text fill="#000000" font-family="sans-serif" font-size="13" lengthAdjust="spacing" textLength="271" x="370" y="717.1513">"asset:prop:notificationmethod": "resolve"</text><polygon fill="#181818" points="595,746.35,605,750.35,595,754.35,599,750.35" style="stroke:#181818;stroke-width:1.0;"/><line style="stroke:#181818;stroke-width:1.0;" x1="361" x2="601" y1="750.35" y2="750.35"/><text fill="#000000" font-family="sans-serif" font-size="13" font-weight="bold" lengthAdjust="spacing" textLength="31" x="368" y="745.2841">[10]</text><text fill="#000000" font-family="sans-serif" font-size="13" lengthAdjust="spacing" textLength="192" x="403" y="745.2841">Intiatiate Contract Negotiation</text><polygon fill="#181818" points="623,775.4828,613,779.4828,623,783.4828,619,779.4828" style="stroke:#181818;stroke-width:1.0;"/><polygon fill="#181818" points="805,775.4828,815,779.4828,805,783.4828,809,779.4828" style="stroke:#181818;stroke-width:1.0;"/><line style="stroke:#181818;stroke-width:1.0;stroke-dasharray:2.0,2.0;" x1="617" x2="811" y1="779.4828" y2="779.4828"/><text fill="#000000" font-family="sans-serif" font-size="13" font-weight="bold" lengthAdjust="spacing" textLength="30" x="629" y="774.4169">[11]</text><text fill="#000000" font-family="sans-serif" font-size="13" lengthAdjust="spacing" textLength="132" x="663" y="774.4169">Contract Negotiation</text><polygon fill="#181818" points="595,804.6156,605,808.6156,595,812.6156,599,808.6156" style="stroke:#181818;stroke-width:1.0;"/><line style="stroke:#181818;stroke-width:1.0;" x1="361" x2="601" y1="808.6156" y2="808.6156"/><text fill="#000000" font-family="sans-serif" font-size="13" font-weight="bold" lengthAdjust="spacing" textLength="30" x="368" y="803.5497">[12]</text><text fill="#000000" font-family="sans-serif" font-size="13" lengthAdjust="spacing" textLength="141" x="402" y="803.5497">Inititate Data Transfer</text><polygon fill="#181818" points="623,833.7485,613,837.7485,623,841.7485,619,837.7485" style="stroke:#181818;stroke-width:1.0;"/><polygon fill="#181818" points="805,833.7485,815,837.7485,805,841.7485,809,837.7485" style="stroke:#181818;stroke-width:1.0;"/><line style="stroke:#181818;stroke-width:1.0;stroke-dasharray:2.0,2.0;" x1="617" x2="811" y1="837.7485" y2="837.7485"/><text fill="#000000" font-family="sans-serif" font-size="13" font-weight="bold" lengthAdjust="spacing" textLength="29" x="629" y="832.6825">[13]</text><text fill="#000000" font-family="sans-serif" font-size="13" lengthAdjust="spacing" textLength="113" x="662" y="832.6825">Establish Channel</text><polygon fill="#181818" points="595,862.8813,605,866.8813,595,870.8813,599,866.8813" style="stroke:#181818;stroke-width:1.0;"/><line style="stroke:#181818;stroke-width:1.0;" x1="361" x2="601" y1="866.8813" y2="866.8813"/><text fill="#000000" font-family="sans-serif" font-size="13" font-weight="bold" lengthAdjust="spacing" textLength="30" x="368" y="861.8153">[14]</text><text fill="#000000" font-family="sans-serif" font-size="13" lengthAdjust="spacing" textLength="95" x="402" y="861.8153">POST /public/...</text><rect fill="#FEFFDD" height="23" style="stroke:#181818;stroke-width:0.5;" width="192" x="366" y="879.8813"/><text fill="#000000" font-family="sans-serif" font-size="13" lengthAdjust="spacing" textLength="184" x="370" y="895.9482">Payload as described above.</text><polygon fill="#181818" points="800,925.1469,810,929.1469,800,933.1469,804,929.1469" style="stroke:#181818;stroke-width:1.0;"/><line style="stroke:#181818;stroke-width:1.0;" x1="617" x2="806" y1="929.1469" y2="929.1469"/><text fill="#000000" font-family="sans-serif" font-size="13" font-weight="bold" lengthAdjust="spacing" textLength="30" x="624" y="924.081">[15]</text><text fill="#000000" font-family="sans-serif" font-size="13" lengthAdjust="spacing" textLength="95" x="658" y="924.081">POST /public/...</text><rect fill="#FEFFDD" height="23" style="stroke:#181818;stroke-width:0.5;" width="192" x="622" y="942.1469"/><text fill="#000000" font-family="sans-serif" font-size="13" lengthAdjust="spacing" textLength="184" x="626" y="958.2138">Payload as described above.</text><polygon fill="#181818" points="1133,987.4125,1143,991.4125,1133,995.4125,1137,991.4125" style="stroke:#181818;stroke-width:1.0;"/><line style="stroke:#181818;stroke-width:1.0;" x1="822" x2="1139" y1="991.4125" y2="991.4125"/><text fill="#000000" font-family="sans-serif" font-size="13" font-weight="bold" lengthAdjust="spacing" textLength="30" x="829" y="986.3466">[16]</text><text fill="#000000" font-family="sans-serif" font-size="13" lengthAdjust="spacing" textLength="254" x="863" y="986.3466">POST /notifications/qualityalerts/resolve</text><rect fill="#FEFFDD" height="23" style="stroke:#181818;stroke-width:0.5;" width="192" x="827" y="1004.4125"/><text fill="#000000" font-family="sans-serif" font-size="13" lengthAdjust="spacing" textLength="184" x="831" y="1020.4794">Payload as described above.</text><rect fill="#FEFFDD" height="53" style="stroke:#181818;stroke-width:0.5;" width="309" x="827" y="1037.5453"/><text fill="#000000" font-family="sans-serif" font-size="13" lengthAdjust="spacing" textLength="278" x="831" y="1053.6122">The http path depends on the DataAddress</text><text fill="#000000" font-family="sans-serif" font-size="13" lengthAdjust="spacing" textLength="301" x="831" y="1068.745">in the EDC Data Asset. Thus, it depends on the</text><text fill="#000000" font-family="sans-serif" font-size="13" lengthAdjust="spacing" textLength="78" x="831" y="1083.8778">(Trace) app.</text><polygon fill="#181818" points="833,1113.5438,823,1117.5438,833,1121.5438,829,1117.5438" style="stroke:#181818;stroke-width:1.0;"/><line style="stroke:#181818;stroke-width:1.0;stroke-dasharray:2.0,2.0;" x1="827" x2="1149" y1="1117.5438" y2="1117.5438"/><text fill="#000000" font-family="sans-serif" font-size="13" font-weight="bold" lengthAdjust="spacing" textLength="30" x="839" y="1112.2443">[17]</text><text fill="#000000" font-family="monospace" font-size="13" lengthAdjust="spacing" textLength="24" x="873" y="1111.9818">200</text><text fill="#000000" font-family="sans-serif" font-size="13" lengthAdjust="spacing" textLength="18" x="901" y="1112.4779">OK</text><rect fill="#FEFFDD" height="23" style="stroke:#181818;stroke-width:0.5;" width="192" x="953" y="1130.5438"/><text fill="#000000" font-family="sans-serif" font-size="13" lengthAdjust="spacing" textLength="184" x="957" y="1146.6107">Payload as described above.</text><polygon fill="#181818" points="628,1176.2766,618,1180.2766,628,1184.2766,624,1180.2766" style="stroke:#181818;stroke-width:1.0;"/><line style="stroke:#181818;stroke-width:1.0;stroke-dasharray:2.0,2.0;" x1="622" x2="816" y1="1180.2766" y2="1180.2766"/><text fill="#000000" font-family="sans-serif" font-size="13" font-weight="bold" lengthAdjust="spacing" textLength="30" x="634" y="1174.9771">[18]</text><text fill="#000000" font-family="monospace" font-size="13" lengthAdjust="spacing" textLength="24" x="668" y="1174.7146">200</text><text fill="#000000" font-family="sans-serif" font-size="13" lengthAdjust="spacing" textLength="18" x="696" y="1175.2107">OK</text><rect fill="#FEFFDD" height="23" style="stroke:#181818;stroke-width:0.5;" width="192" x="620" y="1193.2766"/><text fill="#000000" font-family="sans-serif" font-size="13" lengthAdjust="spacing" textLength="184" x="624" y="1209.3435">Payload as described above.</text><polygon fill="#181818" points="372,1239.0094,362,1243.0094,372,1247.0094,368,1243.0094" style="stroke:#181818;stroke-width:1.0;"/><line style="stroke:#181818;stroke-width:1.0;stroke-dasharray:2.0,2.0;" x1="366" x2="611" y1="1243.0094" y2="1243.0094"/><text fill="#000000" font-family="sans-serif" font-size="13" font-weight="bold" lengthAdjust="spacing" textLength="30" x="378" y="1237.7099">[19]</text><text fill="#000000" font-family="monospace" font-size="13" lengthAdjust="spacing" textLength="24" x="412" y="1237.4474">200</text><text fill="#000000" font-family="sans-serif" font-size="13" lengthAdjust="spacing" textLength="18" x="440" y="1237.9435">OK</text><rect fill="#FEFFDD" height="23" style="stroke:#181818;stroke-width:0.5;" width="192" x="415" y="1256.0094"/><text fill="#000000" font-family="sans-serif" font-size="13" lengthAdjust="spacing" textLength="184" x="419" y="1272.0763">Payload as described above.</text><polygon fill="#181818" points="110,1301.7423,100,1305.7423,110,1309.7423,106,1305.7423" style="stroke:#181818;stroke-width:1.0;"/><line style="stroke:#181818;stroke-width:1.0;stroke-dasharray:2.0,2.0;" x1="104" x2="355" y1="1305.7423" y2="1305.7423"/><text fill="#000000" font-family="sans-serif" font-size="13" font-weight="bold" lengthAdjust="spacing" textLength="31" x="116" y="1300.4427">[20]</text><text fill="#000000" font-family="monospace" font-size="13" lengthAdjust="spacing" textLength="24" x="151" y="1300.1803">200</text><text fill="#000000" font-family="sans-serif" font-size="13" lengthAdjust="spacing" textLength="18" x="179" y="1300.6763">OK</text><rect fill="#FEFFDD" height="23" style="stroke:#181818;stroke-width:0.5;" width="192" x="159" y="1318.7423"/><text fill="#000000" font-family="sans-serif" font-size="13" lengthAdjust="spacing" textLength="184" x="163" y="1334.8092">Payload as described above.</text><!--SRC=[bLLDR-8m4BtxLunyAeYlihiNL5MYqAghbLeMkBKzc6GWbeATjHrQ_lsEJKX2WQf87B0zy-RZlPc8t6cLhnTeWD_StRxqUc-S2ReKaPCRuH2qOcoXFu3FKCLeECk4SJAIcL2EBlKQuMfkH8HY8LFfjWqOPXa7OI7Sqk4Qj25Fw1swFcadbp8IJce5z-CH36EHEOhWVP-AG-5wpOpIb8oHgyILZumWO2rKB9msM-_c4WIfwCcdJvc_IvU4IuyV2GKBUbzdAQwHh68cKgl98PWSLz5Xx56_umPD2mHOkPQfCB3CLG0NtevTOMVLQS4INPHG12TIlMgmja_69lhTHqprExHXdLj71vOPlP4nnXr6_OHGrc5VADNGWfdFULT-FzWI2uUMOsaZJTbjOOPc8oFS-OqBhnyxtgOOeTmSCRSFCwt2_BoSstxX-glCa5LFxTk0Fe2HGI-bGBArw62f3Rmg_ZSFJOHXYiR15ArEDyXVLQ2Dyp6rSnZ71gtb8IhdZ_Fv12RFipbTKCHC4zlCeCkDWkS_h98SnIuF0_ehLojACuJ8W-Bq4keAP36MaYyT3_5cuy4-nr3AVHc_fitAzsxov8FOFClIBKI989tv_YhAuugAMH4foeiFFwHrKgr0rV9frEHnfhxz60p0Z-P1DT1iLgKscsSod8XjgaNiEnkZZOnS81qM9AcwECjHz2q8T3u4iOzsOcT1fpVjbrZO1EEtalH3gpfAbVY3f30qm5H1Yf63aLREp-xfSG_MVbGZROmtZmfpwlEIeBri1ennuJKse47B1lMMkcs6V03ytqvrmekEjywQhz4bElOEfX1chIarjLJRwAXHlvMJml-mh0oUSAN3BMdkNEjE6f-2bquwZ-udnHEhBFNXBEozTMAHIaki948fJ4zW-jc2RfQJNTJjT3gdcVYUSa8UPVGlaRtfDr6d1MgvP_RGTV9ijywoxHOK7iISVZ_caTkSL9Wubz54qwgACIDRIz_A8C_QtcB5nyNd74WA-wy3yoItBP3kaolRhTi62F_rgUBNTch5wgwjdFTxFTg6j1rsMQQuh8QyVr5JQugPVG5-GUDcdt6hsJ-DVO4GAl7My6jB_tI0opJy7m00]--></g></svg>