<svg xmlns="http://www.w3.org/2000/svg" width="1920" height="1080" fill="none"><g clip-path="url(#a)"><path fill="#000" d="M0 0h1920v1080H0z"/><path fill="#fff" fill-opacity=".7" d="M1841.3 761.5h-374.4V58h374.4c9.9 0 18 8.1 18 18v667.5c0 9.9-8 18-18 18" opacity=".15"/><path stroke="#AFC72D" stroke-dasharray="1 10" stroke-linecap="round" stroke-linejoin="round" stroke-width="2" d="M512 637.2v38.6"/><path stroke="#fff" stroke-miterlimit="10" d="M1453.5 60h393.2c7 0 12.7 5.7 12.7 12.7v676.5c0 7-5.7 12.7-12.7 12.7h-839.4c-7 0-12.7-5.7-12.7-12.7V72.7c0-7 5.7-12.7 12.7-12.7h16.7M267.6 283.9v42.6c0 3.5-2.8 6.3-6.3 6.3H115.6c-3.5 0-6.3 2.8-6.3 6.3v37.6"/><path stroke="#fff" stroke-linejoin="round" stroke-miterlimit="10" d="m99.6 368.9 9.7 9.8 9.7-9.8"/><path stroke="#fff" stroke-miterlimit="10" d="M292.6 283.9v42.6c0 3.5 2.8 6.3 6.3 6.3h145.7c3.5 0 6.3 2.8 6.3 6.3v37.6"/><path stroke="#fff" stroke-linejoin="round" stroke-miterlimit="10" d="m460.6 368.9-9.7 9.8-9.7-9.8"/><path stroke="#fff" stroke-miterlimit="10" d="M453.8 628.6v78.5c0 3.5-2.8 6.3-6.3 6.3H268.9c-4.2 0-7.6 2.8-7.6 6.3v37.6"/><path stroke="#fff" stroke-linejoin="round" stroke-miterlimit="10" d="m249.7 749.6 11.6 9.7 11.7-9.7"/><path stroke="#fff" stroke-miterlimit="10" d="M478.8 628.6v78.5c0 3.5 2.8 6.3 6.3 6.3h178.6c4.2 0 7.6 2.8 7.6 6.3v37.6"/><path stroke="#fff" stroke-linejoin="round" stroke-miterlimit="10" d="m682.8 749.6-11.6 9.7-11.6-9.7"/><path stroke="#fff" stroke-miterlimit="10" stroke-width="3" d="M221.8 183.5h-25c-5 0-9-4-9-9v-31.2c0-5 4-9 9-9h25zm-17-49.2v-11.2m-5.4 23.4h10.8m-10.8 9.7h10.8m-10.8 9.7h10.8m40.4-9.9h-15.7v27.5h15.7z"/><path stroke="#fff" stroke-miterlimit="10" stroke-width="3" d="M263.6 183.5h-41.8v-69.3c0-5 4-9 9-9h23.8c5 0 9 4 9 9zm-14-90h-13.7c-4.9 0-8.9 4-8.9 8.9v2.8h31.5v-2.8c0-4.9-4-8.9-8.9-8.9Zm-6.9-.3V82.1m-7.2 64.4H250m47.6-12.2h-34v49.2h34zm-16.9 0v-11.2m-5.4 23.4H286m-10.7 9.7H286m-10.7 9.7H286"/><path fill="#fff" d="M247.8 126.4V124c0-.2-.2-.4-.4-.4-.1 0-.2 0-.2.1l-9.7 6.7c-.8.5-1.8.3-2.3-.4-.2-.3-.3-.6-.3-1v-3.2c0-1.1.5-2.1 1.5-2.8l2.9-2c.5-.3.7-.8.7-1.4v-4.5c0-.2-.2-.4-.4-.4-.1 0-.1 0-.2.1l-2 1.4c-.4.3-.7.8-.7 1.4v1.2l-2.5 1.7c-1.6 1.1-2.6 2.9-2.6 4.9v3.6c0 2.8 2.3 5.1 5 5.1 1 0 2-.3 2.9-.9l7.7-5.3q.6-.6.6-1.5"/><path fill="#fff" d="m245 119.1-7.7 5.3c-.5.3-.7.8-.7 1.4v2.5c0 .2.2.4.4.4.1 0 .2 0 .2-.1l9.7-6.7c.8-.5 1.8-.3 2.3.4.2.3.3.6.3 1v3.2c0 1.1-.5 2.1-1.5 2.8l-2.6 1.8-.3.2c-.4.3-.7.8-.7 1.4v4.5c0 .2.2.4.4.4.1 0 .2 0 .2-.1l2-1.4c.4-.3.7-.8.7-1.4v-1.2l2.5-1.7c1.6-1.1 2.6-2.9 2.6-4.9v-3.6c0-2.8-2.3-5-5.1-5-.9-.1-1.9.2-2.7.8"/><path stroke="#fff" stroke-miterlimit="10" stroke-width="3" d="M313.1 183.5h-15.4v-49.2h15.4c5 0 9 4 9 9v31.2c0 5-4.1 9-9 9Z"/><path fill="#fff" d="M316.7 178h-14.2v-9.3h2.5v6.6h3v-5.4h2.5v5.4h3.6v-6.6h2.5v9.3zm0-11.7h-14.2V161c0-.3 0-.7.1-1 .1-1.1.5-2.1 1.2-2.9s1.5-1.4 2.5-1.8q1.5-.6 3.3-.6t3.3.6c1 .4 1.8 1 2.5 1.8s1.1 1.8 1.2 2.9c0 .3.1.7.1 1zm-2.6-2.7V161c0-.3 0-.6-.1-.8q-.15-.9-.9-1.5c-.5-.4-1-.7-1.6-.9s-1.3-.3-2-.3-1.4.1-2 .3-1.2.5-1.6.9-.7.9-.8 1.5c-.1.2-.1.5-.1.8v2.6zm2.9-17.4c0 1.4-.3 2.6-.9 3.7-.6 1-1.5 1.8-2.6 2.4s-2.4.8-3.9.8-2.8-.3-3.9-.8c-1.1-.6-2-1.3-2.6-2.4-.6-1-.9-2.3-.9-3.7 0-1.6.4-3 1.2-4.1s1.9-1.9 3.3-2.3l.8 2.7c-.9.3-1.5.7-2 1.3s-.7 1.4-.7 2.4c0 .9.2 1.7.6 2.3s1 1.1 1.7 1.4 1.6.5 2.6.5 1.8-.2 2.6-.5c.7-.3 1.3-.8 1.7-1.4s.6-1.4.6-2.3c0-1-.2-1.8-.7-2.4s-1.1-1.1-2-1.3l.8-2.7c1.4.5 2.5 1.2 3.3 2.3.6 1.1 1 2.5 1 4.1"/><path stroke="#fff" stroke-miterlimit="10" stroke-width="3" d="M429.6 530.1h-25c-5 0-9-4-9-9v-31.2c0-5 4-9 9-9h25zm-17.1-49.2v-11.1m-5.4 23.3h10.8m-10.8 9.7h10.8m-10.8 9.7h10.8m40.4-9.9h-15.7v27.5h15.7z"/><path stroke="#fff" stroke-miterlimit="10" stroke-width="3" d="M471.4 530.1h-41.8v-69.3c0-5 4-9 9-9h23.8c5 0 9 4 9 9zm-14.1-90h-13.7c-4.9 0-8.9 4-8.9 8.9v2.8h31.5V449c0-4.9-4-8.9-8.9-8.9Zm-6.8-.3v-11.1m-7.3 64.4h14.5m47.7-12.2h-34v49.2h34zm-17 0v-11.1m-5.4 23.3h10.8m-10.8 9.7h10.8m-10.8 9.7h10.8"/><path fill="#fff" d="M455.5 473.1v-2.5c0-.2-.2-.4-.4-.4-.1 0-.2 0-.2.1l-9.7 6.7c-.8.5-1.8.3-2.3-.4-.2-.3-.3-.6-.3-1v-3.2c0-1.1.5-2.1 1.5-2.8l2.9-2c.5-.3.7-.8.7-1.4v-4.5c0-.2-.2-.4-.4-.4-.1 0-.1 0-.2.1l-2 1.4c-.4.3-.7.8-.7 1.4v1.2l-2.5 1.7c-1.6 1.1-2.6 2.9-2.6 4.9v3.6c0 2.8 2.3 5.1 5 5.1 1 0 2-.3 2.9-.9l7.7-5.3c.4-.4.7-.9.6-1.4"/><path fill="#fff" d="M452.7 465.7 445 471c-.5.3-.7.8-.7 1.4v2.5c0 .2.2.4.4.4.1 0 .2 0 .2-.1l9.7-6.7c.8-.5 1.8-.3 2.3.4.2.3.3.6.3 1v3.2c0 1.1-.5 2.1-1.5 2.8l-2.6 1.8-.3.2c-.4.3-.7.8-.7 1.4v4.5c0 .2.2.4.4.4.1 0 .2 0 .2-.1l2-1.4c.4-.3.7-.8.7-1.4v-1.2l2.5-1.7c1.6-1.1 2.6-2.9 2.6-4.9v-3.6c0-2.8-2.3-5-5.1-5-.9-.1-1.9.2-2.7.8"/><path stroke="#fff" stroke-miterlimit="10" stroke-width="3" d="M520.8 530.1h-15.4v-49.2h15.4c5 0 9 4 9 9v31.2c0 5-4.1 9-9 9Z"/><path fill="#fff" d="M524.4 524.6h-14.2v-9.3h2.5v6.6h3v-5.4h2.5v5.4h3.6v-6.6h2.5v9.3zm0-11.6h-14.2v-5.3c0-.3 0-.7.1-1 .1-1.1.5-2.1 1.2-2.9s1.5-1.4 2.5-1.8q1.5-.6 3.3-.6t3.3.6c1 .4 1.8 1 2.5 1.8s1.1 1.8 1.2 2.9c0 .3.1.7.1 1zm-2.5-2.8v-2.6c0-.3 0-.6-.1-.8q-.15-.9-.9-1.5c-.5-.4-1-.7-1.6-.9s-1.3-.3-2-.3-1.4.1-2 .3-1.2.5-1.6.9-.7.9-.8 1.5c-.1.2-.1.5-.1.8v2.6zm2.8-17.3c0 1.4-.3 2.6-.9 3.7-.6 1-1.5 1.8-2.6 2.4s-2.4.8-3.9.8-2.8-.3-3.9-.8c-1.1-.6-2-1.3-2.6-2.4-.6-1-.9-2.3-.9-3.7 0-1.6.4-3 1.2-4.1s1.9-1.9 3.3-2.3l.8 2.7c-.9.3-1.5.7-2 1.3s-.7 1.4-.7 2.4c0 .9.2 1.7.6 2.3s1 1.1 1.7 1.4 1.6.5 2.6.5 1.8-.2 2.6-.5c.7-.3 1.3-.8 1.7-1.4s.6-1.4.6-2.3c0-1-.2-1.8-.7-2.4s-1.1-1.1-2-1.3l.8-2.7c1.4.5 2.5 1.2 3.3 2.3.6 1.1 1 2.4 1 4.1"/><path stroke="#fff" stroke-miterlimit="10" stroke-width="3" d="M650.6 910.2h-25c-5 0-9-4-9-9V870c0-5 4-9 9-9h25zm-17-49.3v-11.1m-5.4 23.3H639m-10.8 9.7H639m-10.8 9.7H639m40.3-9.9h-15.7v27.5h15.7z"/><path stroke="#fff" stroke-miterlimit="10" stroke-width="3" d="M692.4 910.2h-41.8v-69.3c0-5 4-9 9-9h23.8c5 0 9 4 9 9zm-14-90.1h-13.7c-4.9 0-8.9 4-8.9 8.9v2.8h31.5V829c-.1-4.9-4-8.9-8.9-8.9Zm-6.9-.2v-11.2m-7.3 64.4h14.6m47.6-12.2h-34v49.2h34zm-17 0v-11.1m-5.4 23.3h10.8m-10.8 9.7h10.8m-10.8 9.7h10.8"/><path fill="#fff" d="M676.6 853.1v-2.5c0-.2-.2-.4-.4-.4-.1 0-.2 0-.2.1l-9.7 6.7c-.8.5-1.8.3-2.3-.4-.2-.3-.3-.6-.3-1v-3.2c0-1.1.5-2.1 1.5-2.8l2.9-2c.5-.3.7-.8.7-1.4v-4.4c0-.2-.2-.4-.4-.4-.1 0-.1 0-.2.1l-2 1.4c-.4.3-.7.8-.7 1.4v1.2l-2.5 1.7c-1.6 1.1-2.6 2.9-2.6 4.9v3.6c0 2.8 2.3 5.1 5 5.1 1 0 2-.3 2.9-.9l7.7-5.3c.3-.4.6-1 .6-1.5"/><path fill="#fff" d="M673.7 845.7 666 851c-.5.3-.7.8-.7 1.4v2.5c0 .2.2.4.4.4.1 0 .2 0 .2-.1l9.7-6.7c.8-.5 1.8-.3 2.3.4.2.3.3.6.3 1v3.2c0 1.1-.5 2.1-1.5 2.8l-2.6 1.8-.3.2c-.4.3-.7.8-.7 1.4v4.5c0 .2.2.4.4.4.1 0 .2 0 .2-.1l2-1.4c.4-.3.7-.8.7-1.4v-1.2l2.5-1.7c1.6-1.1 2.6-2.9 2.6-4.9v-3.6c0-2.8-2.3-5-5.1-5-.8-.1-1.8.2-2.7.8"/><path stroke="#fff" stroke-miterlimit="10" stroke-width="3" d="M741.8 910.2h-15.4V861h15.4c5 0 9 4 9 9v31.2c0 4.9-4 9-9 9Z"/><path fill="#fff" d="M745.4 904.6h-14.2v-9.3h2.5v6.6h3v-5.4h2.5v5.4h3.6v-6.6h2.5v9.3zm0-11.6h-14.2v-5.3c0-.3 0-.7.1-1 .1-1.1.5-2.1 1.2-2.9s1.5-1.4 2.5-1.8q1.5-.6 3.3-.6t3.3.6c1 .4 1.8 1 2.5 1.8s1.1 1.8 1.2 2.9c0 .3.1.7.1 1zm-2.5-2.7v-2.6c0-.3 0-.6-.1-.8q-.15-.9-.9-1.5c-.5-.4-1-.7-1.6-.9s-1.3-.3-2-.3-1.4.1-2 .3-1.2.5-1.6.9-.7.9-.8 1.5c-.1.2-.1.5-.1.8v2.6zm2.8-17.4c0 1.4-.3 2.6-.9 3.7-.6 1-1.5 1.8-2.6 2.4s-2.4.8-3.9.8-2.8-.3-3.9-.8c-1.1-.6-2-1.3-2.6-2.4-.6-1-.9-2.3-.9-3.7 0-1.6.4-3 1.2-4.1s1.9-1.9 3.3-2.3l.8 2.7c-.9.3-1.5.7-2 1.3s-.7 1.4-.7 2.4c0 .9.2 1.7.6 2.3s1 1.1 1.7 1.4 1.6.5 2.6.5 1.8-.2 2.6-.5c.7-.3 1.3-.8 1.7-1.4s.6-1.4.6-2.3c0-1-.2-1.8-.7-2.4s-1.1-1.1-2-1.3l.8-2.7c1.4.5 2.5 1.2 3.3 2.3.6 1.1 1 2.5 1 4.1"/><path stroke="#fff" stroke-miterlimit="10" stroke-width="3" d="M240.8 910.2h-25c-5 0-9-4-9-9V870c0-5 4-9 9-9h25zm-17.1-49.3v-11.1m-5.4 23.3h10.8m-10.8 9.7h10.8m-10.8 9.7h10.8m40.4-9.9h-15.7v27.5h15.7z"/><path stroke="#fff" stroke-miterlimit="10" stroke-width="3" d="M282.5 910.2h-41.8v-69.3c0-5 4-9 9-9h23.8c5 0 9 4 9 9zm-14-90.1h-13.7c-4.9 0-8.9 4-8.9 8.9v2.8h31.5V829c0-4.9-4-8.9-8.9-8.9Zm-6.8-.2v-11.2m-7.3 64.4h14.5m47.6-12.2h-34v49.2h34zm-16.9 0v-11.1m-5.4 23.3H305m-10.8 9.7H305m-10.8 9.7H305"/><path fill="#fff" d="M266.7 853.1v-2.5c0-.2-.2-.4-.4-.4-.1 0-.2 0-.2.1l-9.7 6.7c-.8.5-1.8.3-2.3-.4-.2-.3-.3-.6-.3-1v-3.2c0-1.1.5-2.1 1.5-2.8l2.9-2c.5-.3.7-.8.7-1.4v-4.4c0-.2-.2-.4-.4-.4-.1 0-.1 0-.2.1l-2 1.4c-.4.3-.7.8-.7 1.4v1.2l-2.5 1.7c-1.6 1.1-2.6 2.9-2.6 4.9v3.6c0 2.8 2.3 5.1 5 5.1 1 0 2-.3 2.9-.9l7.7-5.3c.4-.4.7-1 .6-1.5"/><path fill="#fff" d="m263.9 845.7-7.7 5.3c-.5.3-.7.8-.7 1.4v2.5c0 .2.2.4.4.4.1 0 .2 0 .2-.1l9.7-6.7c.8-.5 1.8-.3 2.3.4.2.3.3.6.3 1v3.2c0 1.1-.5 2.1-1.5 2.8l-2.6 1.8-.3.2c-.4.3-.7.8-.7 1.4v4.5c0 .2.2.4.4.4.1 0 .2 0 .2-.1l2-1.4c.4-.3.7-.8.7-1.4v-1.2l2.5-1.7c1.6-1.1 2.6-2.9 2.6-4.9v-3.6c0-2.8-2.3-5-5.1-5-.9-.1-1.9.2-2.7.8"/><path stroke="#fff" stroke-miterlimit="10" stroke-width="3" d="M332 910.2h-15.4V861H332c5 0 9 4 9 9v31.2c0 4.9-4.1 9-9 9Z"/><path fill="#fff" d="M335.6 904.6h-14.2v-9.3h2.5v6.6h3v-5.4h2.5v5.4h3.6v-6.6h2.5v9.3zm0-11.6h-14.2v-5.3c0-.3 0-.7.1-1 .1-1.1.5-2.1 1.2-2.9s1.5-1.4 2.5-1.8q1.5-.6 3.3-.6t3.3.6c1 .4 1.8 1 2.5 1.8s1.1 1.8 1.2 2.9c0 .3.1.7.1 1zm-2.5-2.7v-2.6c0-.3 0-.6-.1-.8q-.15-.9-.9-1.5c-.5-.4-1-.7-1.6-.9s-1.3-.3-2-.3-1.4.1-2 .3-1.2.5-1.6.9-.7.9-.8 1.5c-.1.2-.1.5-.1.8v2.6zm2.8-17.4c0 1.4-.3 2.6-.9 3.7-.6 1-1.5 1.8-2.6 2.4s-2.4.8-3.9.8-2.8-.3-3.9-.8c-1.1-.6-2-1.3-2.6-2.4-.6-1-.9-2.3-.9-3.7 0-1.6.4-3 1.2-4.1s1.9-1.9 3.3-2.3l.8 2.7c-.9.3-1.5.7-2 1.3s-.7 1.4-.7 2.4c0 .9.2 1.7.6 2.3s1 1.1 1.7 1.4 1.6.5 2.6.5 1.8-.2 2.6-.5c.7-.3 1.3-.8 1.7-1.4s.6-1.4.6-2.3c0-1-.2-1.8-.7-2.4s-1.1-1.1-2-1.3l.8-2.7c1.4.5 2.5 1.2 3.3 2.3.6 1.1 1 2.5 1 4.1"/><path stroke="#fff" stroke-miterlimit="10" stroke-width="3" d="M86.7 530.1h-25c-5 0-9-4-9-9v-31.2c0-5 4-9 9-9h25zm-17.1-49.2v-11.1m-5.3 23.3H75m-10.7 9.7H75m-10.7 9.7H75m40.4-9.9H99.7v27.5h15.7z"/><path stroke="#fff" stroke-miterlimit="10" stroke-width="3" d="M128.5 530.1H86.7v-69.3c0-5 4-9 9-9h23.8c5 0 9 4 9 9zm-14.1-90h-13.7c-4.9 0-8.9 4-8.9 8.9v2.8h31.5V449c0-4.9-4-8.9-8.9-8.9Zm-6.8-.3v-11.1m-7.3 64.4h14.5m47.7-12.2h-34v49.2h34zm-17 0v-11.1m-5.4 23.3h10.8m-10.8 9.7h10.8m-10.8 9.7h10.8"/><path fill="#fff" d="M112.7 473.1v-2.5c0-.2-.2-.4-.4-.4-.1 0-.2 0-.2.1l-9.7 6.7c-.8.5-1.8.3-2.3-.4-.2-.3-.3-.6-.3-1v-3.2c0-1.1.5-2.1 1.5-2.8l2.9-2c.5-.3.7-.8.7-1.4v-4.5c0-.2-.2-.4-.4-.4-.1 0-.1 0-.2.1l-2 1.4c-.4.3-.7.8-.7 1.4v1.2l-2.5 1.7c-1.6 1.1-2.6 2.9-2.6 4.9v3.6c0 2.8 2.3 5.1 5 5.1 1 0 2-.3 2.9-.9l7.7-5.3c.3-.4.6-.9.6-1.4"/><path fill="#fff" d="m109.8 465.7-7.7 5.3c-.5.3-.7.8-.7 1.4v2.5c0 .2.2.4.4.4.1 0 .2 0 .2-.1l9.7-6.7c.8-.5 1.8-.3 2.3.4.2.3.3.6.3 1v3.2c0 1.1-.5 2.1-1.5 2.8l-2.6 1.8-.3.2c-.4.3-.7.8-.7 1.4v4.5c0 .2.2.4.4.4.1 0 .2 0 .2-.1l2-1.4c.4-.3.7-.8.7-1.4v-1.2l2.5-1.7c1.6-1.1 2.6-2.9 2.6-4.9v-3.6c0-2.8-2.3-5-5.1-5-.9-.1-1.9.2-2.7.8"/><path stroke="#fff" stroke-miterlimit="10" stroke-width="3" d="M177.9 530.1h-15.4v-49.2h15.4c5 0 9 4 9 9v31.2c0 5-4.1 9-9 9Z"/><path fill="#fff" d="M181.5 524.6h-14.2v-9.3h2.5v6.6h3v-5.4h2.5v5.4h3.6v-6.6h2.5v9.3zm0-11.6h-14.2v-5.3c0-.3 0-.7.1-1 .1-1.1.5-2.1 1.2-2.9s1.5-1.4 2.5-1.8q1.5-.6 3.3-.6t3.3.6c1 .4 1.8 1 2.5 1.8s1.1 1.8 1.2 2.9c0 .3.1.7.1 1zm-2.5-2.8v-2.6c0-.3 0-.6-.1-.8q-.15-.9-.9-1.5c-.5-.4-1-.7-1.6-.9s-1.3-.3-2-.3-1.4.1-2 .3-1.2.5-1.6.9-.7.9-.8 1.5c-.1.2-.1.5-.1.8v2.6zm2.8-17.3c0 1.4-.3 2.6-.9 3.7-.6 1-1.5 1.8-2.6 2.4s-2.4.8-3.9.8-2.8-.3-3.9-.8c-1.1-.6-2-1.3-2.6-2.4-.6-1-.9-2.3-.9-3.7 0-1.6.4-3 1.2-4.1s1.9-1.9 3.3-2.3l.8 2.7c-.9.3-1.5.7-2 1.3s-.7 1.4-.7 2.4c0 .9.2 1.7.6 2.3s1 1.1 1.7 1.4 1.6.5 2.6.5 1.8-.2 2.6-.5c.7-.3 1.3-.8 1.7-1.4s.6-1.4.6-2.3c0-1-.2-1.8-.7-2.4s-1.1-1.1-2-1.3l.8-2.7c1.4.5 2.5 1.2 3.3 2.3.6 1.1 1 2.4 1 4.1"/><path stroke="#fff" stroke-miterlimit="10" stroke-width="3" d="M1027 185.7h-15.4v-49.2h15.4c5 0 9 4 9 9v31.2c0 5-4 9-9 9Z"/><path fill="#fff" d="M1030.6 180.2h-14.2v-9.3h2.5v6.6h3v-5.4h2.5v5.4h3.6v-6.6h2.5v9.3zm0-11.6h-14.2v-5.3c0-.3 0-.7.1-1 .1-1.1.5-2.1 1.2-2.9s1.5-1.4 2.5-1.8q1.5-.6 3.3-.6t3.3.6c1 .4 1.8 1 2.5 1.8s1.1 1.8 1.2 2.9c0 .3.1.7.1 1zm-2.5-2.8v-2.5c0-.3 0-.6-.1-.8q-.15-.9-.9-1.5c-.5-.4-1-.7-1.6-.9s-1.3-.3-2-.3-1.4.1-2 .3-1.2.5-1.6.9-.7.9-.8 1.5c-.1.2-.1.5-.1.8v2.6h9.1zm2.8-17.3c0 1.4-.3 2.6-.9 3.7-.6 1-1.5 1.8-2.6 2.4s-2.4.8-3.9.8-2.8-.3-3.9-.8c-1.1-.6-2-1.3-2.6-2.4-.6-1-.9-2.3-.9-3.7 0-1.6.4-3 1.2-4.1s1.9-1.9 3.3-2.3l.8 2.7c-.9.3-1.5.7-2 1.3s-.7 1.4-.7 2.4c0 .9.2 1.7.6 2.3s1 1.1 1.7 1.4 1.6.5 2.6.5 1.8-.2 2.6-.5c.7-.3 1.3-.8 1.7-1.4s.6-1.4.6-2.3c0-1-.2-1.8-.7-2.4s-1.1-1.1-2-1.3l.8-2.7c1.4.5 2.5 1.2 3.3 2.3.6 1.1 1 2.4 1 4.1"/><path stroke="#AFC72D" stroke-miterlimit="10" stroke-width="2.57" d="M758.8 224.2h316.7"/><path stroke="#AFC72D" stroke-linejoin="round" stroke-miterlimit="10" stroke-width="2.57" d="m1067.1 233.4 9.7-9.7-9.7-9.7"/><path stroke="#AFC72D" stroke-miterlimit="10" stroke-width="2.57" d="M1380.4 218.7h61.9"/><path stroke="#AFC72D" stroke-linejoin="round" stroke-miterlimit="10" stroke-width="2.57" d="m1433.8 227.9 9.7-9.7-9.7-9.7"/><path stroke="#AFC72D" stroke-miterlimit="10" stroke-width="2.57" d="M1443.5 530.9h-61.8"/><path stroke="#AFC72D" stroke-linejoin="round" stroke-miterlimit="10" stroke-width="2.57" d="m1390.1 540-9.7-9.7 9.7-9.7"/><path stroke="#fff" stroke-linejoin="round" stroke-miterlimit="10" stroke-width="3" d="M630.4 980.8H628c-2.1 0-3.8-1.7-3.8-3.8v-42.9h10V977c0 2.1-1.7 3.8-3.8 3.8Zm19.6 0h-2.4c-2.1 0-3.8-1.7-3.8-3.8v-42.9h10V977c0 2.1-1.7 3.8-3.8 3.8Zm19.5 0h-2.4c-2.1 0-3.8-1.7-3.8-3.8v-42.9h10V977c.1 2.1-1.6 3.8-3.8 3.8Zm20.8-35.2h-16.9m9.8 44.8v-43.8m-68.9 0v43.8m9.9-44.8h-16.9m27.1 0h8.3m11.4 0h8.2"/><path stroke="#fff" stroke-linejoin="round" stroke-miterlimit="10" d="M746.8 976c-1 0-1.8-.8-1.8-1.8v-15.1h3.6v15.1c0 1-.8 1.8-1.8 1.8Zm7.1 0c-1 0-1.8-.8-1.8-1.8v-15.1h3.6v15.1c0 1-.8 1.8-1.8 1.8Zm7.1 0c-1 0-1.8-.8-1.8-1.8v-15.1h3.6v15.1c0 1-.8 1.8-1.8 1.8Zm7.9-12.7h-6.1m3.6 16.2v-15.8m-24.9 0v15.8m3.5-16.2h-6.1m9.8 0h3m4.1 0h3"/><path stroke="#fff" stroke-miterlimit="10" stroke-width="3" d="M200.1 257v4.9c0 2.4-2 4.3-4.4 4.3h-8.6c-2.4 0-4.4-1.9-4.4-4.3v-13.5"/><path stroke="#fff" stroke-linejoin="round" stroke-miterlimit="10" stroke-width="3" d="m205 245.1-13.1-3c-2.5-.6-4.3-2.8-4.3-5.3V234l11.5 1.4c3.4.4 5.9 3.2 5.9 6.5z"/><path stroke="#fff" stroke-miterlimit="10" stroke-width="3" d="M249.7 257v4.9c0 2.4 2 4.3 4.4 4.3h8.6c2.4 0 4.4-1.9 4.4-4.3v-13.5"/><path stroke="#fff" stroke-linejoin="round" stroke-miterlimit="10" stroke-width="3" d="m244.8 245.1 13.1-3c2.5-.6 4.3-2.8 4.3-5.3V234l-11.5 1.4c-3.4.4-5.9 3.2-5.9 6.5zm7.9-26-27.8.6-27.8-.6"/><path stroke="#fff" stroke-linejoin="round" stroke-miterlimit="10" stroke-width="3" d="m209.6 258.4-19.3-3.9c-2 0-3.9-1-5.1-2.6l-2.9-4.1v-16.1c0-1.6.6-3.1 1.7-4.2l7.7-8.1-3.4-2h-8.2c-.6 0-1.1-.5-1.1-1.1v-3.9c0-.6.5-1.1 1.1-1.1h8.7c1.5 0 2.9.8 3.7 2.1.5.8 1 1.8 1.5 2.8 8-11.3 7-13.1 30.8-13.2 23.9.1 22.8 1.9 30.8 13.2.5-.9 1.1-1.9 1.5-2.8.7-1.3 2.1-2.1 3.7-2.1h8.7c.6 0 1.1.5 1.1 1.1v3.9c0 .6-.5 1.1-1.1 1.1h-8.2l-3.4 2 7.7 8.1c1.1 1.1 1.7 2.7 1.7 4.2v16.1l-2.9 4.1c-1.2 1.6-3.1 2.6-5.1 2.6l-23.3 4m-27.7-21.8H239m-30.7 4.9H239m-30.7 4.9H239"/><path stroke="#fff" stroke-linejoin="round" stroke-miterlimit="10" stroke-width="3" d="M231.9 259.7H214c-3.1 0-5.7-2.5-5.7-5.7v-1.8h29.2v1.8c.1 3.2-2.5 5.7-5.6 5.7Z"/><path stroke="#fff" stroke-miterlimit="10" d="M319.4 249.9v1.5c0 .7-.6 1.3-1.3 1.3h-2.6c-.7 0-1.3-.6-1.3-1.3v-4.1"/><path stroke="#fff" stroke-linejoin="round" stroke-miterlimit="10" d="m320.8 246.3-4-.9c-.8-.2-1.3-.8-1.3-1.6v-.8l3.5.4c1 .1 1.8 1 1.8 2z"/><path stroke="#fff" stroke-miterlimit="10" d="M334.4 249.9v1.5c0 .7.6 1.3 1.3 1.3h2.6c.7 0 1.3-.6 1.3-1.3v-4.1"/><path stroke="#fff" stroke-linejoin="round" stroke-miterlimit="10" d="m332.9 246.3 4-.9c.8-.2 1.3-.8 1.3-1.6v-.8l-3.5.4c-1 .1-1.8 1-1.8 2zm2.4-7.9-8.4.2-8.4-.2"/><path stroke="#fff" stroke-linejoin="round" stroke-miterlimit="10" d="m322.3 250.3-5.8-1.2c-.6 0-1.2-.3-1.5-.8l-.9-1.2v-4.9c0-.5.2-.9.5-1.3l2.3-2.4-1-.6h-2.5c-.2 0-.3-.2-.3-.3v-1.2c0-.2.2-.3.3-.3h2.6c.5 0 .9.2 1.1.6.1.3.3.6.5.8 2.4-3.4 2.1-4 9.3-4s6.9.6 9.3 4c.2-.3.3-.6.5-.8.2-.4.6-.6 1.1-.6h2.6c.2 0 .3.2.3.3v1.2c0 .2-.2.3-.3.3h-2.5l-1 .6 2.3 2.4c.3.3.5.8.5 1.3v4.9l-.9 1.2c-.4.5-.9.8-1.5.8l-7.1 1.2m-8.3-6.5h9.2m-9.2 1.4h9.2m-9.2 1.5h9.2"/><path stroke="#fff" stroke-linejoin="round" stroke-miterlimit="10" d="M328.4 250.7h-4.3c-1.2 0-2.2-1-2.2-2.3h8.8c0 1.3-1 2.3-2.3 2.3Z"/><path stroke="#fff" stroke-linecap="round" stroke-linejoin="round" stroke-miterlimit="10" stroke-width="3" d="m67.972 554.979-11.128 16.497 9.036 6.095 11.129-16.497z"/><path stroke="#fff" stroke-linecap="round" stroke-linejoin="round" stroke-miterlimit="10" stroke-width="3" d="m60.841 557.061-4.753 7.046 3.98 2.684 4.752-7.046z"/><path stroke="#fff" stroke-linecap="round" stroke-linejoin="round" stroke-miterlimit="10" stroke-width="3" d="m61.6 556-6.2 9.2c-1 1.5-3.1 1.9-4.6.9l-1.7-1.2c-1.5-1-1.9-3.1-.9-4.6l6.2-9.2c1-1.5 3.1-1.9 4.6-.9l1.7 1.2c1.5 1 1.9 3 .9 4.6m49.679 5.039 11.128 16.497 9.036-6.096-11.128-16.497z"/><path stroke="#fff" stroke-linecap="round" stroke-linejoin="round" stroke-miterlimit="10" stroke-width="3" d="m123.49 559.661 4.753 7.046 3.979-2.684-4.753-7.047z"/><path stroke="#fff" stroke-linecap="round" stroke-linejoin="round" stroke-miterlimit="10" stroke-width="3" d="m126.8 556 6.2 9.2c1 1.5 3.1 1.9 4.6.9l1.7-1.2c1.5-1 1.9-3.1.9-4.6l-6.2-9.2c-1-1.5-3.1-1.9-4.6-.9l-1.7 1.2c-1.6 1-2 3-.9 4.6m-20 58.5H81.7v6.8h25.1zm3.1-55.3H78.5L64 580.3l14.5 34.2h31.4l14.5-34.2z"/><path stroke="#fff" stroke-linecap="round" stroke-linejoin="round" stroke-miterlimit="10" stroke-width="3" d="M89.2 608.6c6.572 0 11.9-5.328 11.9-11.9s-5.328-11.9-11.9-11.9-11.9 5.328-11.9 11.9 5.328 11.9 11.9 11.9"/><path stroke="#fff" stroke-linecap="round" stroke-linejoin="round" stroke-miterlimit="10" stroke-width="3" d="M89.2 602.9a6.2 6.2 0 1 0 0-12.4 6.2 6.2 0 0 0 0 12.4m14.6-30.2c0 3.1-2.5 5.6-5.6 5.6s-5.6-2.5-5.6-5.6 2.5-5.6 5.6-5.6 5.6 2.5 5.6 5.6m11.3 5.6c0 1.4-1.1 2.5-2.5 2.5s-2.5-1.1-2.5-2.5 1.1-2.5 2.5-2.5 2.5 1.1 2.5 2.5m-36.5 13.2L94 569.2m7.1-1.3 12.9 8.3m.8 3.3-15.5 23.4m7.1-49.6H82v5.9h24.4z"/><path stroke="#fff" stroke-linecap="round" stroke-linejoin="round" stroke-miterlimit="10" stroke-width="3" d="M113.2 544.6h-38l2.6 8.7h32.8z"/><path stroke="#fff" stroke-linejoin="round" stroke-miterlimit="10" stroke-width="3" d="M389.5 598.9h-8.2c-.6 0-1-.4-1-1v-30.4c0-.6.4-1 1-1h8.2c.6 0 1 .4 1 1v30.4c0 .6-.5 1-1 1Zm-9.2-20.5H373v8.7h7.3m18.7-10.8-8.1 1.9v9.1l8.1 1.8m3.3 7.4H401c-1.1 0-2-.9-2-2v-22.6c0-1.1.9-2 2-2h1.3c1.1 0 2 .9 2 2v22.6c0 1.1-.9 2-2 2Z"/><path stroke="#fff" stroke-linejoin="round" stroke-miterlimit="10" stroke-width="3" d="M447.9 577v-4.9c0-1.2-1-2.3-2.3-2.3h-39c-1.2 0-2.3 1-2.3 2.3v22.1c0 1.2 1 2.3 2.3 2.3h4.5"/><path stroke="#fff" stroke-linejoin="round" stroke-miterlimit="10" stroke-width="3" d="M440 575.4h-29.3c-1.2 0-2.1-.9-2.1-2.1V572c0-1.2.9-2.1 2.1-2.1H440c1.2 0 2.1.9 2.1 2.1v1.3c0 1.2-.9 2.1-2.1 2.1ZM415.1 586H411c-1.2 0-2.3-1-2.3-2.3v-1c0-1.2 1-2.3 2.3-2.3h31.2M410 596.3c-.8-.3-1.4-1.1-1.4-2.1v-1c0-1.2 1-2.3 2.3-2.3h4.4m-35.2-11.6 10.5-11.1m-10.5 20.5 10.5-11.1m-9.9 20.6 10.4-11.1m-17-12.3h-1.4c-1.2 0-2.2-1-2.2-2.2v-33c0-1.2 1-2.2 2.2-2.2h1.4c1.2 0 2.2 1 2.2 2.2v33c0 1.2-1 2.2-2.2 2.2Zm-3.6-23.7h-6.1v10h6.1m-.1-12.1 6.1-7m-6.1 17.6 6.2-7.1m-5.9 17.2 5.5-5.7m8 35.1v8.9c0 1.2-1 2.3-2.3 2.3h-4.4c-1.2 0-2.3-1-2.3-2.3v-21.4"/><path stroke="#fff" stroke-linejoin="round" stroke-miterlimit="10" stroke-width="3" d="M375.4 593.5h-10.9v5.4h10.9m.2-6.1 4.8 4.2m-4.8 4.5 8.2 6.1m63-47.7h-65.7v-14.4m-23 34.1v24.3m-6.6-16.2h-7.9v8.1h7.9"/><path stroke="#fff" stroke-linejoin="round" stroke-miterlimit="10" stroke-width="3" d="M365.3 565.7v10.9h-3.2l-10.7 7.6v15.1l10.7 7.6h6.5m75.3-6.3v-.2l3.3-.6-.8-4.5-3.4.6c-.6-1.6-1.4-3.1-2.5-4.3l2.2-2.6-3.5-2.9-2.2 2.6c-1.4-.8-3-1.4-4.7-1.7v-3.3h-4.6v3.3c-1.7.3-3.3.9-4.8 1.7l-2.1-2.5-3.5 2.9 2.1 2.5c-1.1 1.3-2 2.8-2.5 4.5l-3.1-.6-.8 4.5 3.2.6c0 1.8.3 3.5.9 5l-2.7 1.6 2.3 4 2.8-1.6c1.1 1.3 2.4 2.4 4 3.2l-1.1 3 4.3 1.6 1.1-3.1c.8.1 1.5.2 2.3.2.9 0 1.9-.1 2.7-.3l1.1 3.1 4.3-1.6-1.2-3.2c1.5-.9 2.7-2 3.8-3.3l2.9 1.7 2.3-4-3-1.7c.6-1.4.9-3 .9-4.6Z"/><path stroke="#fff" stroke-linejoin="round" stroke-miterlimit="10" stroke-width="3" d="M430 608.6a8 8 0 1 0 0-16 8 8 0 0 0 0 16Z"/><path stroke="#fff" stroke-linejoin="round" stroke-miterlimit="10" stroke-width="3" d="M450.6 608c-2.5 8.8-10.6 15.3-20.3 15.3-10.7 0-19.6-8-20.9-18.4h-20.9v13.3h-16.8v-13.5"/><path stroke="#fff" stroke-linecap="round" stroke-linejoin="round" stroke-miterlimit="10" stroke-width="3" d="m451.3 580.8.4 1.3m-.4-1.3.4 1.3m-5.8 5.5 1.4.1m3.4 7.2.5-1.3m7.9-1-1.1-.9m1.5-7.8-1.2.7m-5 7.7a4.4 4.4 0 1 0 0-8.8 4.4 4.4 0 0 0 0 8.8"/><path stroke="#fff" stroke-linejoin="round" stroke-miterlimit="10" d="M498.3 597.3h-.7c-.6 0-1-.4-1-1v-6.4c0-.6.4-1 1-1h.7c.6 0 1 .4 1 1v6.4c0 .6-.5 1-1 1Zm-1.7-5.3h-1.9v2.2h1.9m4.9-2.8-2.1.5v2.4l2.1.5m.7 1.9c-.4 0-.7-.3-.7-.7v-5.5c0-.4.3-.7.7-.7s.7.3.7.7v5.5c0 .4-.4.7-.7.7Zm12-5.1v-1.3c0-.3-.3-.6-.6-.6h-10.1c-.3 0-.6.3-.6.6v5.8c0 .3.3.6.6.6h1.2"/><path stroke="#fff" stroke-linejoin="round" stroke-miterlimit="10" d="M512 591.2h-7.3c-.4 0-.7-.3-.7-.7s.3-.7.7-.7h7.3c.4 0 .7.3.7.7s-.3.7-.7.7Zm-6.4 2.7h-1.1c-.3 0-.6-.3-.6-.6v-.3c0-.3.3-.6.6-.6h8.1m-8.3 4.2c-.2-.1-.4-.3-.4-.5v-.3c0-.3.3-.6.6-.6h1.2m-9.1-3 2.7-2.9m-2.7 5.4 2.7-2.9m-2.6 5.3 2.7-2.9m-4.6-3.2c-.4 0-.7-.3-.7-.7v-8.2c0-.4.3-.7.7-.7s.7.3.7.7v8.2c.1.4-.3.7-.7.7Zm-.7-6.1h-1.6v2.6h1.6m-.1-3.2 1.6-1.8m-1.6 4.6 1.6-1.9m-1.5 4.5 1.4-1.5m2.1 9.1v2.3c0 .3-.3.6-.6.6h-1.1c-.3 0-.6-.3-.6-.6V594"/><path stroke="#fff" stroke-linejoin="round" stroke-miterlimit="10" d="M495.3 595.9h-2.8v1.4h2.8m.1-1.6 1.2 1.1m-1.2 1.2 2.1 1.6m16.4-12.4h-17.1v-3.8m-6 8.9v6.3m-1.7-4.2h-2v2.1h2"/><path stroke="#fff" stroke-linejoin="round" stroke-miterlimit="10" d="M492.7 588.7v2.8h-.8l-2.8 2v3.9l2.8 2h1.7m19.5-1.7.9-.2-.2-1.2-.9.2c-.2-.4-.4-.8-.7-1.1l.6-.7-.9-.8-.6.7c-.4-.2-.8-.4-1.2-.4v-.9h-1.2v.9c-.4.1-.9.2-1.2.5l-.5-.6-.9.8.5.6c-.3.3-.5.7-.7 1.2l-.8-.1-.2 1.2.8.1c0 .5.1.9.2 1.3l-.7.4.6 1 .7-.4c.3.3.6.6 1 .8l-.3.8 1.1.4.3-.8c.2 0 .4.1.6.1s.5 0 .7-.1l.3.8 1.1-.4-.3-.8c.4-.2.7-.5 1-.9l.8.4.6-1-.8-.4c.3-.5.3-.9.3-1.4Z"/><path stroke="#fff" stroke-linejoin="round" stroke-miterlimit="10" d="M509.5 599.8a2.1 2.1 0 1 0 0-4.2 2.1 2.1 0 0 0 0 4.2Z"/><path stroke="#fff" stroke-linejoin="round" stroke-miterlimit="10" d="M514.9 599.7c-.7 2.3-2.8 4-5.3 4-2.8 0-5.1-2.1-5.4-4.8h-5.4v3.5h-4.4v-3.5"/><path stroke="#fff" stroke-linecap="round" stroke-linejoin="round" stroke-miterlimit="10" d="m515.1 592.6.1.3m-.1-.3.1.3m-1.6 1.5h.4m.9 1.9.1-.4m2.1-.2-.3-.3m.4-2-.3.2m-1.3 1.9a1.1 1.1 0 1 0 0-2.2 1.1 1.1 0 0 0 0 2.2m-332.41-10.649-3.188 4.725 2.57 1.734 3.188-4.725z"/><path stroke="#fff" stroke-linecap="round" stroke-linejoin="round" stroke-miterlimit="10" d="m181.205 585.482-1.342 1.99 1.161.782 1.342-1.989zm-.005-.082-1.5 2.1c-.4.6-1.2.7-1.7.3-.6-.4-.7-1.2-.3-1.7l1.4-2.1c.4-.6 1.2-.7 1.7-.3.7.3.8 1.1.4 1.7m14.485 1.288 3.188 4.726 2.57-1.734-3.188-4.725zm3.592-.411 1.342 1.989 1.161-.783-1.342-1.989z"/><path stroke="#fff" stroke-linecap="round" stroke-linejoin="round" stroke-miterlimit="10" d="m200.3 585.4 1.4 2.1c.4.6 1.2.7 1.7.3.6-.4.7-1.2.3-1.7l-1.4-2.1c-.4-.6-1.2-.7-1.7-.3-.5.3-.7 1.1-.3 1.7m-5.9 16.6h-7.2v1.9h7.2zm.9-15.9h-9l-4.2 6 4.2 9.9h9l4.1-9.9z"/><path stroke="#fff" stroke-linecap="round" stroke-linejoin="round" stroke-miterlimit="10" d="M189.4 600.3a3.4 3.4 0 1 0 0-6.8 3.4 3.4 0 0 0 0 6.8"/><path stroke="#fff" stroke-linecap="round" stroke-linejoin="round" stroke-miterlimit="10" d="M189.4 598.7a1.8 1.8 0 1 0 0-3.6 1.8 1.8 0 0 0 0 3.6m4.1-8.7c0 .9-.7 1.6-1.6 1.6s-1.6-.7-1.6-1.6.7-1.6 1.6-1.6 1.6.7 1.6 1.6m3.3 1.6c0 .4-.3.7-.7.7s-.7-.3-.7-.7.3-.7.7-.7c.4-.1.7.3.7.7m-10.5 3.8 4.4-6.5m2.1-.3 3.7 2.4m.2.9-4.4 6.8m2-14.3h-7v1.7h7zm1.9-2.5h-10.9l.8 2.5h9.4z"/><path stroke="#fff" stroke-miterlimit="10" stroke-width="3" d="M170.9 582.9c0-4.8 3.9-8.7 8.7-8.7h52.5c4.8 0 8.7 3.9 8.7 8.7"/><path stroke="#fff" stroke-miterlimit="10" stroke-width="3" d="M240.8 584.4v-19.5c0-2.8-2.3-5.1-5.1-5.1h-38.3c-2.9 0-5.2-2.3-5.2-5.2 0-.1-.1-.1-.1-.1H176c-2.8 0-5.1 2.3-5.1 5.1v46.2c0 2.8 2.3 5.1 5.1 5.1h30.7"/><path stroke="#fff" stroke-miterlimit="10" stroke-width="3" d="M177.6 573.9v-1.5c0-2.8 2.3-5.1 5.1-5.1h45.6c2.8 0 5.1 2.3 5.1 5.1v1.5m-2.7 53c11.267 0 20.4-9.133 20.4-20.4s-9.133-20.4-20.4-20.4-20.4 9.133-20.4 20.4 9.133 20.4 20.4 20.4Z"/><path stroke="#AFC72D" stroke-miterlimit="10" stroke-width="3" d="M233.8 615.5h-6.1c-1.7 0-3-1.3-3-3v-6.6h12.1v6.6c0 1.7-1.4 3-3 3Zm3-13.9c0-2.3-1.9-4.2-4.2-4.2H229c-2.3 0-4.2 1.9-4.2 4.2v4.3"/><path stroke="#fff" stroke-miterlimit="10" stroke-width="3" d="M482.2 582.9c0-4.8 3.9-8.7 8.7-8.7h52.5c4.8 0 8.7 3.9 8.7 8.7"/><path stroke="#fff" stroke-miterlimit="10" stroke-width="3" d="M552.1 584.4v-19.5c0-2.8-2.3-5.1-5.1-5.1h-38.3c-2.9 0-5.2-2.3-5.2-5.2 0-.1-.1-.1-.1-.1h-16.1c-2.8 0-5.1 2.3-5.1 5.1v46.2c0 2.8 2.3 5.1 5.1 5.1H518"/><path stroke="#fff" stroke-miterlimit="10" stroke-width="3" d="M488.9 573.9v-1.5c0-2.8 2.3-5.1 5.1-5.1h45.6c2.8 0 5.1 2.3 5.1 5.1v1.5m-2.7 53c11.266 0 20.4-9.133 20.4-20.4s-9.134-20.4-20.4-20.4c-11.267 0-20.4 9.133-20.4 20.4s9.133 20.4 20.4 20.4Z"/><path stroke="#AFC72D" stroke-miterlimit="10" stroke-width="3" d="M545.1 615.5H539c-1.7 0-3-1.3-3-3v-6.6h12.1v6.6c0 1.7-1.4 3-3 3Zm3-13.9c0-2.3-1.9-4.2-4.2-4.2h-3.6c-2.3 0-4.2 1.9-4.2 4.2v4.3"/><path stroke="#fff" stroke-miterlimit="10" stroke-width="3" d="M307.1 233.5c0-4.8 3.9-8.7 8.7-8.7h52.5c4.8 0 8.7 3.9 8.7 8.7"/><path stroke="#fff" stroke-miterlimit="10" stroke-width="3" d="M377 235v-19.5c0-2.8-2.3-5.1-5.1-5.1h-38.3c-2.9 0-5.2-2.3-5.2-5.2 0-.1-.1-.1-.1-.1h-16.1c-2.8 0-5.1 2.3-5.1 5.1v46.2c0 2.8 2.3 5.1 5.1 5.1h30.7"/><path stroke="#fff" stroke-miterlimit="10" stroke-width="3" d="M313.8 224.4V223c0-2.8 2.3-5.1 5.1-5.1h45.6c2.8 0 5.1 2.3 5.1 5.1v1.5m-2.7 52.9c11.267 0 20.4-9.133 20.4-20.4s-9.133-20.4-20.4-20.4-20.4 9.133-20.4 20.4 9.133 20.4 20.4 20.4Z"/><path stroke="#AFC72D" stroke-miterlimit="10" stroke-width="3" d="M370 266.1h-6.1c-1.7 0-3-1.3-3-3v-6.6H373v6.6c0 1.6-1.4 3-3 3Zm3-13.9c0-2.3-1.9-4.2-4.2-4.2h-3.6c-2.3 0-4.2 1.9-4.2 4.2v4.3"/><path stroke="#fff" stroke-miterlimit="10" stroke-width="3" d="M733.8 960.2c0-4.8 3.9-8.7 8.7-8.7H795c4.8 0 8.7 3.9 8.7 8.7"/><path stroke="#fff" stroke-miterlimit="10" stroke-width="3" d="M803.8 961.6v-19.5c0-2.8-2.3-5.1-5.1-5.1h-38.3c-2.9 0-5.2-2.3-5.2-5.2 0-.1-.1-.1-.1-.1H739c-2.8 0-5.1 2.3-5.1 5.1V983c0 2.8 2.3 5.1 5.1 5.1h30.7"/><path stroke="#fff" stroke-miterlimit="10" stroke-width="3" d="M740.5 951.1v-1.5c0-2.8 2.3-5.1 5.1-5.1h45.6c2.8 0 5.1 2.3 5.1 5.1v1.5m-2.6 53c11.267 0 20.4-9.133 20.4-20.4s-9.133-20.4-20.4-20.4-20.4 9.133-20.4 20.4 9.133 20.4 20.4 20.4Z"/><path stroke="#AFC72D" stroke-miterlimit="10" stroke-width="3" d="M796.7 992.7h-6.1c-1.7 0-3-1.3-3-3v-6.6h12.1v6.6c0 1.7-1.3 3-3 3Zm3-13.9c0-2.3-1.9-4.2-4.2-4.2h-3.6c-2.3 0-4.2 1.9-4.2 4.2v4.3"/><path stroke="#fff" stroke-miterlimit="10" stroke-width="3" d="M326 960.2c0-4.8 3.9-8.7 8.7-8.7h52.5c4.8 0 8.7 3.9 8.7 8.7"/><path stroke="#fff" stroke-miterlimit="10" stroke-width="3" d="M395.9 961.6v-19.5c0-2.8-2.3-5.1-5.1-5.1h-38.3c-2.9 0-5.2-2.3-5.2-5.2 0-.1-.1-.1-.1-.1h-16.1c-2.8 0-5.1 2.3-5.1 5.1V983c0 2.8 2.3 5.1 5.1 5.1h30.7"/><path stroke="#fff" stroke-miterlimit="10" stroke-width="3" d="M332.7 951.1v-1.5c0-2.8 2.3-5.1 5.1-5.1h45.6c2.8 0 5.1 2.3 5.1 5.1v1.5m-2.7 53c11.267 0 20.4-9.133 20.4-20.4s-9.133-20.4-20.4-20.4-20.4 9.133-20.4 20.4 9.133 20.4 20.4 20.4Z"/><path stroke="#fff" stroke-miterlimit="10" stroke-width="3" d="M388.9 992.7h-6.1c-1.7 0-3-1.3-3-3v-6.6h12.1v6.6c0 1.7-1.4 3-3 3Zm3-9.6v-4.3c0-2.3-1.9-4.2-4.2-4.2H384c-2.3 0-4.2 1.9-4.2 4.2v4.3"/><path stroke="#fff" stroke-miterlimit="10" d="M1603.4 280.2v20.5c0 1.7-1.4 3-3 3h-70c-1.7 0-3 1.4-3 3v18.1"/><path stroke="#fff" stroke-linejoin="round" stroke-miterlimit="10" d="m1522.6 321.1 4.7 4.6 4.6-4.6"/><path stroke="#fff" stroke-miterlimit="10" d="M1615.4 280.2v20.5c0 1.7 1.4 3 3 3h70c1.7 0 3 1.4 3 3v18.1"/><path stroke="#fff" stroke-linejoin="round" stroke-miterlimit="10" d="m1696.1 321.1-4.7 4.6-4.6-4.6"/><path stroke="#fff" stroke-miterlimit="10" d="M1691.3 438.5V459c0 1.7 1.4 3 3 3h70c1.7 0 3 1.4 3 3v18.1"/><path stroke="#fff" stroke-linejoin="round" stroke-miterlimit="10" d="m1772 479.4-4.7 4.6-4.6-4.6"/><path stroke="#fff" stroke-miterlimit="10" d="M1584.4 228.7h-8.5c-4 0-7.3-3.3-7.3-7.3v-8.3c0-4 3.3-7.3 7.3-7.3h8.5zm-8-22.9v-5.1m-2.5 10.8h5.1m-5.1 4.5h5.1m-5.1 4.5h5.1m18.7-4.6h-7.3v12.8h7.3z"/><path stroke="#fff" stroke-miterlimit="10" d="M1603.8 228.7h-19.4v-30.2c0-3.4 2.8-6.2 6.2-6.2h7c3.4 0 6.2 2.8 6.2 6.2z"/><path stroke="#fff" stroke-miterlimit="10" d="M1597.9 186.9h-7.7c-1.9 0-3.5 1.6-3.5 3.5v2h14.6v-2c.1-2-1.5-3.5-3.4-3.5Zm-3.8-.2v-5.1m-3.4 29.9h6.8m22.1-5.7h-15.8v22.9h15.8zm-7.9 0v-5.1m-2.5 10.8h5m-5 4.5h5m-5 4.5h5m-17.8-18.3V201c0-.1-.1-.2-.2-.2h-.1l-4.5 3.1c-.4.2-.8.2-1.1-.2-.1-.1-.1-.3-.1-.4v-1.5c0-.5.3-1 .7-1.3l1.3-.9c.2-.1.3-.4.3-.6v-2.1c0-.1-.1-.2-.2-.2h-.1l-1 .7c-.2.1-.3.4-.3.6v.5l-1.2.8c-.8.5-1.2 1.4-1.2 2.3v1.7c0 1.3 1 2.4 2.3 2.4.5 0 .9-.1 1.3-.4l3.6-2.5c.4-.1.6-.4.5-.6Z"/><path stroke="#fff" stroke-miterlimit="10" d="m1595.1 198.8-3.6 2.5c-.2.1-.3.4-.3.6v1.1c0 .1.1.2.2.2h.1l4.5-3.1c.4-.2.8-.2 1.1.2.1.1.1.3.1.4v1.5c0 .5-.3 1-.7 1.3l-1.2.8-.1.1c-.2.1-.3.4-.3.6v2.1c0 .1.1.2.2.2h.1l1-.7c.2-.1.3-.4.3-.6v-.5l1.2-.8c.7-.5 1.2-1.4 1.2-2.3v-1.7c0-1.3-1.1-2.3-2.3-2.3-.6-.1-1.1.1-1.5.4Zm28.6 29.9h-4.1v-22.9h4.1c4 0 7.2 3.2 7.2 7.2v8.4c.1 4.1-3.2 7.3-7.2 7.3Z"/><path stroke="#fff" stroke-miterlimit="10" d="M1628.5 226.2h-6.6v-4.3h1.2v3.1h1.4v-2.5h1.2v2.5h1.7v-3.1h1.2v4.3zm0-5.5h-6.6v-2.9c.1-.5.2-1 .6-1.4.3-.4.7-.7 1.2-.8s1-.3 1.5-.3q.9 0 1.5.3c.4.2.9.5 1.2.8.3.4.5.8.6 1.4zm-1.2-1.2v-1.6c-.1-.3-.2-.5-.4-.7s-.5-.3-.8-.4-.6-.1-.9-.1-.6 0-.9.1-.5.2-.8.4c-.2.2-.3.4-.4.7v1.6zm1.3-8.1c0 .7-.1 1.2-.4 1.7s-.7.8-1.2 1.1-1.1.4-1.8.4-1.3-.1-1.8-.4-.9-.6-1.2-1.1-.4-1-.4-1.7c0-.8.2-1.4.6-1.9s.9-.9 1.5-1.1l.3 1.3q-.6.15-.9.6c-.2.3-.3.7-.3 1.1s.1.8.3 1c.2.3.4.5.8.6.3.1.7.2 1.2.2s.9-.1 1.2-.2.6-.4.8-.6c.2-.3.3-.6.3-1 0-.5-.1-.8-.3-1.1q-.3-.45-.9-.6l.3-1.3c.6.2 1.2.6 1.5 1.1.2.5.4 1.1.4 1.9Zm48.9 178.5h-8.5c-4 0-7.3-3.3-7.3-7.3v-8.3c0-4 3.3-7.3 7.3-7.3h8.5zm-7.9-22.9v-5.2m-2.5 10.9h5m-5 4.5h5m-5 4.5h5m18.7-4.6h-7.3v12.8h7.3z"/><path stroke="#fff" stroke-miterlimit="10" d="M1696.9 389.9h-19.4v-30.2c0-3.4 2.8-6.2 6.2-6.2h7c3.4 0 6.2 2.8 6.2 6.2zM1691 348h-7.7c-1.9 0-3.5 1.6-3.5 3.5v2h14.6v-2c.1-1.9-1.4-3.5-3.4-3.5Zm-3.8-.1v-5.2m-3.4 30h6.8m22.1-5.7h-15.8v22.9h15.8zm-7.9 0v-5.2m-2.5 10.9h5m-5 4.5h5m-5 4.5h5"/><path stroke="#fff" stroke-miterlimit="10" d="M1689.6 363.4v-1.1c0-.1-.1-.2-.2-.2h-.1l-4.5 3.1c-.4.2-.8.2-1.1-.2-.1-.1-.1-.3-.1-.4V363c0-.5.3-1 .7-1.3l1.3-.9c.2-.1.3-.4.3-.6v-2.1c0-.1-.1-.2-.2-.2h-.1l-1 .7c-.2.1-.3.4-.3.6v.5l-1.2.8c-.8.5-1.2 1.4-1.2 2.3v1.7c0 1.3 1 2.4 2.3 2.4.5 0 .9-.1 1.3-.4l3.6-2.5c.3-.1.5-.4.5-.6Z"/><path stroke="#fff" stroke-miterlimit="10" d="m1688.2 359.9-3.6 2.5c-.2.1-.3.4-.3.6v1.1c0 .1.1.2.2.2h.1l4.5-3.1c.4-.2.8-.2 1.1.2.1.1.1.3.1.4v1.5c0 .5-.3 1-.7 1.3l-1.2.8-.1.1c-.2.1-.3.4-.3.6v2.1c0 .1.1.2.2.2h.1l1-.7c.2-.1.3-.4.3-.6v-.5l1.2-.8c.7-.5 1.2-1.4 1.2-2.3v-1.7c0-1.3-1.1-2.3-2.3-2.3-.6 0-1.1.2-1.5.4Zm28.6 30h-4.1V367h4.1c4 0 7.2 3.2 7.2 7.2v8.4c.1 4-3.2 7.3-7.2 7.3Z"/><path stroke="#fff" stroke-miterlimit="10" d="M1721.6 387.3h-6.6V383h1.2v3.1h1.4v-2.5h1.2v2.5h1.7V383h1.2v4.3zm0-5.4h-6.6V379c.1-.5.2-1 .6-1.4.3-.4.7-.7 1.2-.8q.75-.3 1.5-.3.9 0 1.5.3c.5.2.9.5 1.2.8.3.4.5.8.6 1.4zm-1.2-1.3V379c-.1-.3-.2-.5-.4-.7s-.5-.3-.8-.4-.6-.1-.9-.1-.6 0-.9.1-.5.2-.8.4c-.2.2-.3.4-.4.7v1.6zm1.3-8c0 .7-.1 1.2-.4 1.7s-.7.8-1.2 1.1-1.1.4-1.8.4-1.3-.1-1.8-.4-.9-.6-1.2-1.1-.4-1-.4-1.7c0-.8.2-1.4.6-1.9s.9-.9 1.5-1.1l.3 1.3q-.6.15-.9.6c-.2.3-.3.7-.3 1.1s.1.8.3 1c.2.3.4.5.8.6.3.1.7.2 1.2.2s.9-.1 1.2-.2.6-.4.8-.6c.2-.3.3-.6.3-1 0-.5-.1-.8-.3-1.1q-.3-.45-.9-.6l.3-1.3c.6.2 1.2.6 1.5 1.1.2.5.4 1.1.4 1.9Zm35.4 165.1h-8.5c-4 0-7.3-3.3-7.3-7.3v-8.3c0-4 3.3-7.3 7.3-7.3h8.5zm-7.9-22.9v-5.2m-2.5 10.9h5m-5 4.5h5m-5 4.5h5m18.8-4.7h-7.3v12.8h7.3z"/><path stroke="#fff" stroke-miterlimit="10" d="M1776.5 537.7h-19.4v-30.2c0-3.4 2.8-6.2 6.2-6.2h7c3.4 0 6.2 2.8 6.2 6.2zm-5.8-41.9h-7.7c-1.9 0-3.5 1.6-3.5 3.5v2h14.6v-2c0-1.9-1.5-3.5-3.4-3.5Zm-3.9-.1v-5.2m-3.4 30h6.8m22.1-5.7h-15.8v22.9h15.8zm-7.8 0v-5.2m-2.6 10.9h5.1m-5.1 4.5h5.1m-5.1 4.5h5.1"/><path stroke="#fff" stroke-miterlimit="10" d="M1769.2 511.1V510c0-.1-.1-.2-.2-.2h-.1l-4.5 3.1c-.4.2-.8.2-1.1-.2-.1-.1-.1-.3-.1-.4v-1.5c0-.5.3-1 .7-1.3l1.3-.9c.2-.1.3-.4.3-.6v-2.1c0-.1-.1-.2-.2-.2h-.1l-1 .7c-.2.1-.3.4-.3.6v.5l-1.2.8c-.8.5-1.2 1.4-1.2 2.3v1.7c0 1.3 1 2.4 2.3 2.4.5 0 .9-.1 1.3-.4l3.6-2.5c.4-.2.5-.4.5-.7Z"/><path stroke="#fff" stroke-miterlimit="10" d="m1767.9 507.7-3.6 2.5c-.2.1-.3.4-.3.6v1.1c0 .1.1.2.2.2h.1l4.5-3.1c.4-.2.8-.2 1.1.2.1.1.1.3.1.4v1.5c0 .5-.3 1-.7 1.3l-1.2.8-.1.1c-.2.1-.3.4-.3.6v2.1c0 .1.1.2.2.2h.1l1-.7c.2-.1.3-.4.3-.6v-.5l1.2-.8c.7-.5 1.2-1.4 1.2-2.3v-1.7c0-1.3-1.1-2.3-2.3-2.3-.7 0-1.1.1-1.5.4Zm28.6 30h-4.1v-22.9h4.1c4 0 7.2 3.2 7.2 7.2v8.4c0 4-3.2 7.3-7.2 7.3Z"/><path stroke="#fff" stroke-miterlimit="10" d="M1801.2 535.1h-6.6v-4.3h1.2v3.1h1.4v-2.5h1.2v2.5h1.7v-3.1h1.2v4.3zm0-5.4h-6.6v-2.9c.1-.5.2-1 .6-1.4.3-.4.7-.7 1.2-.8q.75-.3 1.5-.3c.5 0 1.1.1 1.5.3.5.2.9.5 1.2.8.3.4.5.8.6 1.4zm-1.2-1.3v-1.6c-.1-.3-.2-.5-.4-.7s-.5-.3-.8-.4-.6-.1-.9-.1-.6 0-.9.1-.5.2-.8.4c-.2.2-.3.4-.4.7v1.6zm1.3-8.1c0 .7-.1 1.2-.4 1.7s-.7.8-1.2 1.1-1.1.4-1.8.4-1.3-.1-1.8-.4-.9-.6-1.2-1.1-.4-1-.4-1.7c0-.8.2-1.4.6-1.9s.9-.9 1.5-1.1l.3 1.3q-.6.15-.9.6c-.2.3-.3.7-.3 1.1s.1.8.3 1c.2.3.4.5.8.6.3.1.7.2 1.2.2s.9-.1 1.2-.2.6-.4.8-.6c.2-.3.3-.6.3-1 0-.5-.1-.8-.3-1.1q-.3-.45-.9-.6l.3-1.3c.6.2 1.2.6 1.5 1.1.2.5.4 1.2.4 1.9Zm-286.7-130.4h-8.5c-4 0-7.3-3.3-7.3-7.3v-8.3c0-4 3.3-7.3 7.3-7.3h8.5zm-8-22.9v-5.2m-2.5 10.9h5m-5 4.5h5m-5 4.5h5m18.8-4.6h-7.3v12.8h7.3z"/><path stroke="#fff" stroke-miterlimit="10" d="M1534 389.9h-19.4v-30.2c0-3.4 2.8-6.2 6.2-6.2h7c3.4 0 6.2 2.8 6.2 6.2zm-5.9-41.9h-7.7c-1.9 0-3.5 1.6-3.5 3.5v2h14.6v-2c.1-1.9-1.5-3.5-3.4-3.5Zm-3.8-.1v-5.2m-3.4 30h6.8m22.1-5.7H1534v22.9h15.8zm-7.9 0v-5.2m-2.5 10.9h5m-5 4.5h5m-5 4.5h5"/><path stroke="#fff" stroke-miterlimit="10" d="M1526.6 363.4v-1.1c0-.1-.1-.2-.2-.2h-.1l-4.5 3.1c-.4.2-.8.2-1.1-.2-.1-.1-.1-.3-.1-.4V363c0-.5.3-1 .7-1.3l1.3-.9c.2-.1.3-.4.3-.6v-2.1c0-.1-.1-.2-.2-.2h-.1l-1 .7c-.2.1-.3.4-.3.6v.5l-1.2.8c-.8.5-1.2 1.4-1.2 2.3v1.7c0 1.3 1 2.4 2.3 2.4.5 0 .9-.1 1.3-.4l3.6-2.5c.4-.1.5-.4.5-.6Z"/><path stroke="#fff" stroke-miterlimit="10" d="m1525.3 359.9-3.6 2.5c-.2.1-.3.4-.3.6v1.1c0 .1.1.2.2.2h.1l4.5-3.1c.4-.2.8-.2 1.1.2.1.1.1.3.1.4v1.5c0 .5-.3 1-.7 1.3l-1.2.8-.1.1c-.2.1-.3.4-.3.6v2.1c0 .1.1.2.2.2h.1l1-.7c.2-.1.3-.4.3-.6v-.5l1.2-.8c.7-.5 1.2-1.4 1.2-2.3v-1.7c0-1.3-1.1-2.3-2.3-2.3-.6 0-1.1.2-1.5.4Zm28.6 30h-4.1V367h4.1c4 0 7.2 3.2 7.2 7.2v8.4c.1 4-3.2 7.3-7.2 7.3Z"/><path stroke="#fff" stroke-miterlimit="10" d="M1558.7 387.3h-6.6V383h1.2v3.1h1.4v-2.5h1.2v2.5h1.7V383h1.2v4.3zm0-5.4h-6.6V379c.1-.5.2-1 .6-1.4.3-.4.7-.7 1.2-.8q.75-.3 1.5-.3.9 0 1.5.3c.5.2.9.5 1.2.8.3.4.5.8.6 1.4zm-1.2-1.3V379c-.1-.3-.2-.5-.4-.7s-.5-.3-.8-.4-.6-.1-.9-.1-.6 0-.9.1-.5.2-.8.4c-.2.2-.3.4-.4.7v1.6zm1.3-8c0 .7-.1 1.2-.4 1.7s-.7.8-1.2 1.1-1.1.4-1.8.4-1.3-.1-1.8-.4-.9-.6-1.2-1.1-.4-1-.4-1.7c0-.8.2-1.4.6-1.9s.9-.9 1.5-1.1l.3 1.3q-.6.15-.9.6c-.2.3-.3.7-.3 1.1s.1.8.3 1c.2.3.4.5.8.6.3.1.7.2 1.2.2s.9-.1 1.2-.2.6-.4.8-.6c.2-.3.3-.6.3-1 0-.5-.1-.8-.3-1.1q-.3-.45-.9-.6l.3-1.3c.6.2 1.2.6 1.5 1.1.2.5.4 1.1.4 1.9Z"/><path stroke="#fff" stroke-linejoin="round" stroke-miterlimit="10" d="M1748 570.5h-1.7c-.8 0-1.5-.7-1.5-1.5v-20.2h4.7V569c0 .9-.7 1.5-1.5 1.5Zm9.1 0h-1.7c-.8 0-1.5-.7-1.5-1.5v-20.2h4.7V569c0 .9-.7 1.5-1.5 1.5Zm9.1 0h-1.7c-.8 0-1.5-.7-1.5-1.5v-20.2h4.7V569c0 .9-.7 1.5-1.5 1.5Zm9.4-16.3h-7.9m4.6 20.8v-20.4m-32.1 0V575m4.6-20.8h-7.8m12.6 0h3.8m5.3 0h3.8"/><path stroke="#fff" stroke-miterlimit="10" d="M1574.3 262.9v2.3c0 1.1-.9 2-2 2h-4c-1.1 0-2-.9-2-2v-6.3"/><path stroke="#fff" stroke-linejoin="round" stroke-miterlimit="10" d="m1576.5 257.4-6.1-1.4c-1.2-.3-2-1.3-2-2.5v-1.3l5.3.7c1.6.2 2.7 1.5 2.7 3v1.5z"/><path stroke="#fff" stroke-miterlimit="10" d="M1597.3 262.9v2.3c0 1.1.9 2 2 2h4c1.1 0 2-.9 2-2v-6.3"/><path stroke="#fff" stroke-linejoin="round" stroke-miterlimit="10" d="m1595 257.4 6.1-1.4c1.2-.3 2-1.3 2-2.5v-1.3l-5.3.7c-1.6.2-2.7 1.5-2.7 3v1.5zm3.7-12.1-12.9.2-13-.2"/><path stroke="#fff" stroke-linejoin="round" stroke-miterlimit="10" d="m1578.7 263.6-9-1.8c-.9 0-1.8-.5-2.4-1.2l-1.3-1.9v-7.5c0-.7.3-1.4.8-2l3.6-3.7-1.6-.9h-3.8c-.3 0-.5-.2-.5-.5v-1.8c0-.3.2-.5.5-.5h4.1c.7 0 1.4.4 1.7 1 .2.4.5.8.7 1.3 3.7-5.3 3.2-6.1 14.3-6.1s10.6.9 14.3 6.1c.2-.4.5-.9.7-1.3.3-.6 1-1 1.7-1h4.1c.3 0 .5.2.5.5v1.8c0 .3-.2.5-.5.5h-3.8l-1.6.9 3.6 3.7c.5.5.8 1.2.8 2v7.5l-1.3 1.9c-.5.8-1.4 1.2-2.4 1.2l-10.9 1.9m-12.9-10.2h14.2m-14.2 2.2h14.2m-14.2 2.3h14.2"/><path stroke="#fff" stroke-linejoin="round" stroke-miterlimit="10" d="M1589.5 264.2h-9.2c-1.2 0-2.2-1-2.2-2.2v-1.2h13.6v1.2c0 1.2-1 2.2-2.2 2.2Z"/><path stroke="#fff" stroke-linecap="round" stroke-linejoin="round" stroke-miterlimit="10" d="m1505.9 401.546-5.15 7.627 4.23 2.851 5.14-7.626zm-3.34.989-2.18 3.233 1.83 1.23 2.18-3.233zm.44-.835-3.2 4.7c-.4.6-1.2.8-1.8.4l-1.2-.8c-.6-.4-.8-1.2-.4-1.8l3.2-4.7c.4-.6 1.2-.8 1.8-.4l1.2.8c.7.4.8 1.2.4 1.8m23.06 2.649 5.14 7.627 4.23-2.852-5.14-7.627z"/><path stroke="#fff" stroke-linecap="round" stroke-linejoin="round" stroke-miterlimit="10" d="m1531.73 403.679 2.18 3.233 1.82-1.23-2.18-3.233zm1.37-1.979 3.2 4.7c.4.6 1.2.8 1.8.4l1.2-.8c.6-.4.8-1.2.4-1.8l-3.2-4.7c-.4-.6-1.2-.8-1.8-.4l-1.2.8c-.7.4-.8 1.2-.4 1.8m-9.2 27.4h-11.7v3.1h11.7zm1.5-25.7h-14.6l-6.8 9.8 6.8 15.9h14.6l6.7-15.9z"/><path stroke="#fff" stroke-linecap="round" stroke-linejoin="round" stroke-miterlimit="10" d="M1515.8 426.4c3.04 0 5.5-2.462 5.5-5.5s-2.46-5.5-5.5-5.5-5.5 2.462-5.5 5.5 2.46 5.5 5.5 5.5"/><path stroke="#fff" stroke-linecap="round" stroke-linejoin="round" stroke-miterlimit="10" d="M1515.8 423.8a2.9 2.9 0 1 0-.002-5.802 2.9 2.9 0 0 0 .002 5.802m6.7-14.1c0 1.4-1.2 2.6-2.6 2.6s-2.6-1.2-2.6-2.6 1.2-2.6 2.6-2.6c1.5 0 2.6 1.2 2.6 2.6m5.3 2.6c0 .6-.5 1.2-1.2 1.2s-1.2-.5-1.2-1.2c0-.6.5-1.2 1.2-1.2s1.2.5 1.2 1.2m-17 6.1 7.2-10.3m3.3-.6 5.9 3.8m.4 1.5-7.1 10.9m3.3-23h-11.4v2.8h11.4z"/><path stroke="#fff" stroke-linecap="round" stroke-linejoin="round" stroke-miterlimit="10" d="M1526.9 396.6h-17.7l1.2 4.1h15.3z"/><path stroke="#fff" stroke-linejoin="round" stroke-miterlimit="10" d="M1655 421.9h-2.7c-.6 0-1-.4-1-1v-13.1c0-.6.4-1 1-1h2.7c.6 0 1 .4 1 1v13.1c0 .5-.4 1-1 1Zm-3.7-9.6h-3.4v4.1h3.4m8.7-5-3.8.8v4.3l3.8.8m1.7 3.5h-.9c-.4 0-.8-.4-.8-.8v-10.8c0-.4.4-.8.8-.8h.9c.4 0 .8.4.8.8V420c0 .4-.4.8-.8.8Z"/><path stroke="#fff" stroke-linejoin="round" stroke-miterlimit="10" d="M1682.7 411.7v-2.3c0-.6-.5-1.1-1.1-1.1h-18.1c-.6 0-1.1.5-1.1 1.1v10.3c0 .6.5 1.1 1.1 1.1h2.1"/><path stroke="#fff" stroke-linejoin="round" stroke-miterlimit="10" d="M1679.2 410.9h-13.9c-.5 0-.8-.4-.8-.8v-.9c0-.5.4-.8.8-.8h13.9c.5 0 .8.4.8.8v.9c.1.5-.3.8-.8.8Zm-11.7 5h-1.9c-.6 0-1.1-.5-1.1-1.1v-.5c0-.6.5-1.1 1.1-1.1h14.5m-15 7.5c-.4-.2-.6-.5-.6-1v-.5c0-.6.5-1.1 1.1-1.1h2.1m-16.5-5.3 4.9-5.2m-4.9 9.6 4.9-5.2m-4.6 9.5 4.8-5.1m-7.7-5.8h-1c-.5 0-.9-.4-.9-.9V394c0-.5.4-.9.9-.9h1c.5 0 .9.4.9.9v15.7c0 .6-.4.9-.9.9Z"/><path stroke="#fff" stroke-linejoin="round" stroke-miterlimit="10" d="M1646.8 399.6h-2.9v4.7h2.9m-.1-5.6 2.8-3.3m-2.8 8.2 2.9-3.3m-2.7 8 2.5-2.7m3.7 16.4v4.1c0 .6-.5 1.1-1.1 1.1h-2c-.6 0-1.1-.5-1.1-1.1v-9.9"/><path stroke="#fff" stroke-linejoin="round" stroke-miterlimit="10" d="M1649 419.3h-5v2.6h5m.1-2.8 2.3 1.9m-2.3 2.1 3.8 2.8m29.3-22.2h-30.5V397m-10.7 15.9v11.3m-3.1-7.5h-3.6v3.7h3.6"/><path stroke="#fff" stroke-linejoin="round" stroke-miterlimit="10" d="M1644.3 406.4v5.1h-1.4l-5 3.5v7.1l5 3.5h3m35-2.9v-.1l1.6-.3-.4-2.1-1.6.3c-.3-.7-.7-1.4-1.2-2l1-1.2-1.6-1.4-1 1.2c-.7-.4-1.4-.7-2.2-.8v-1.5h-2.1v1.5c-.8.1-1.6.4-2.2.8l-1-1.1-1.6 1.4 1 1.2q-.75.9-1.2 2.1l-1.5-.3-.4 2.1 1.5.3c0 .8.2 1.6.4 2.3l-1.3.7 1.1 1.8 1.3-.8q.75.9 1.8 1.5l-.5 1.4 2 .7.5-1.4c.4.1.7.1 1.1.1s.9 0 1.3-.1l.5 1.4 2-.7-.5-1.5q1.05-.6 1.8-1.5l1.4.8 1.1-1.8-1.4-.8c.1-.7.3-1.5.3-2.2Z"/><path stroke="#fff" stroke-linejoin="round" stroke-miterlimit="10" d="M1674.4 426.4c2.04 0 3.7-1.657 3.7-3.7s-1.66-3.7-3.7-3.7-3.7 1.657-3.7 3.7 1.66 3.7 3.7 3.7Z"/><path stroke="#fff" stroke-linejoin="round" stroke-miterlimit="10" d="M1684 426.1c-1.2 4.1-4.9 7.1-9.4 7.1-5 0-9.1-3.7-9.7-8.6h-9.7v6.2h-7.8v-6.3"/><path stroke="#fff" stroke-linecap="round" stroke-linejoin="round" stroke-miterlimit="10" d="m1684.3 413.4.2.7m-.2-.7.2.7m-2.7 2.5h.7m1.5 3.4.3-.6m3.7-.5-.6-.4m.7-3.6-.5.3m-2.3 3.6c1.1 0 2-.895 2-2s-.9-2-2-2-2 .895-2 2 .9 2 2 2"/><path stroke="#fff" stroke-miterlimit="10" d="M1553.7 414.5c0-2.2 1.8-4.1 4.1-4.1h24.4c2.2 0 4.1 1.8 4.1 4.1"/><path stroke="#fff" stroke-miterlimit="10" d="M1586.2 415.1V406c0-1.3-1.1-2.4-2.4-2.4H1566c-1.3 0-2.4-1.1-2.4-2.4 0 0 0-.1-.1-.1h-7.5c-1.3 0-2.4 1.1-2.4 2.4V425c0 1.3 1.1 2.4 2.4 2.4h14.3"/><path stroke="#fff" stroke-miterlimit="10" d="M1556.8 410.2v-.7c0-1.3 1.1-2.4 2.4-2.4h21.2c1.3 0 2.4 1.1 2.4 2.4v.7m-1.3 24.7c5.25 0 9.5-4.253 9.5-9.5s-4.25-9.5-9.5-9.5-9.5 4.253-9.5 9.5 4.25 9.5 9.5 9.5Z"/><path stroke="#fff" stroke-miterlimit="10" d="M1582.6 429.6h-2c-1 0-1.8-.8-1.8-1.8v-2.7h5.6v2.7c0 1-.8 1.8-1.8 1.8Zm1.8-6.5c0-1.1-.9-2-2-2h-1.7c-1.1 0-2 .9-2 2v2m123.2-10.6c0-2.2 1.8-4.1 4.1-4.1h24.4c2.2 0 4.1 1.8 4.1 4.1"/><path stroke="#fff" stroke-miterlimit="10" d="M1734.5 415.1V406c0-1.3-1.1-2.4-2.4-2.4h-17.8c-1.3 0-2.4-1.1-2.4-2.4 0 0 0-.1-.1-.1h-7.5c-1.3 0-2.4 1.1-2.4 2.4V425c0 1.3 1.1 2.4 2.4 2.4h14.3"/><path stroke="#fff" stroke-miterlimit="10" d="M1705.1 410.2v-.7c0-1.3 1.1-2.4 2.4-2.4h21.2c1.3 0 2.4 1.1 2.4 2.4v.7m-1.3 24.7c5.25 0 9.5-4.253 9.5-9.5s-4.25-9.5-9.5-9.5-9.5 4.253-9.5 9.5 4.25 9.5 9.5 9.5Z"/><path stroke="#fff" stroke-miterlimit="10" d="M1730.8 429.6h-2c-1 0-1.8-.8-1.8-1.8v-2.7h5.6v2.7c0 1-.8 1.8-1.8 1.8Zm1.8-6.5c0-1.1-.9-2-2-2h-1.7c-1.1 0-2 .9-2 2v2M1624 252c0-2.2 1.8-4.1 4.1-4.1h24.4c2.2 0 4.1 1.8 4.1 4.1"/><path stroke="#fff" stroke-miterlimit="10" d="M1656.5 252.6v-9.1c0-1.3-1.1-2.4-2.4-2.4h-17.8c-1.3 0-2.4-1.1-2.4-2.4 0 0 0-.1-.1-.1h-7.5c-1.3 0-2.4 1.1-2.4 2.4v21.5c0 1.3 1.1 2.4 2.4 2.4h14.3"/><path stroke="#fff" stroke-miterlimit="10" d="M1627.1 247.8v-.7c0-1.3 1.1-2.4 2.4-2.4h21.2c1.3 0 2.4 1.1 2.4 2.4v.7m-1.3 24.6c5.25 0 9.5-4.253 9.5-9.5s-4.25-9.5-9.5-9.5-9.5 4.253-9.5 9.5 4.25 9.5 9.5 9.5Z"/><path stroke="#fff" stroke-miterlimit="10" d="M1652.8 267.1h-2c-1 0-1.8-.8-1.8-1.8v-2.7h5.6v2.7c0 1-.8 1.8-1.8 1.8Z"/><path stroke="#fff" stroke-miterlimit="10" d="M1654.6 260.7c0-1.1-.9-2-2-2h-1.7c-1.1 0-2 .9-2 2v2m146.9 298.2c0-2.2 1.8-4.1 4.1-4.1h24.4c2.2 0 4.1 1.8 4.1 4.1"/><path stroke="#fff" stroke-miterlimit="10" d="M1828.3 561.6v-9.1c0-1.3-1.1-2.4-2.4-2.4h-17.8c-1.3 0-2.4-1.1-2.4-2.4 0 0 0-.1-.1-.1h-7.5c-1.3 0-2.4 1.1-2.4 2.4v21.5c0 1.3 1.1 2.4 2.4 2.4h14.3"/><path stroke="#fff" stroke-miterlimit="10" d="M1798.9 556.7v-.7c0-1.3 1.1-2.4 2.4-2.4h21.2c1.3 0 2.4 1.1 2.4 2.4v.7m-1.3 24.7c5.25 0 9.5-4.253 9.5-9.5s-4.25-9.5-9.5-9.5-9.5 4.253-9.5 9.5 4.25 9.5 9.5 9.5Z"/><path stroke="#fff" stroke-miterlimit="10" d="M1824.6 576.1h-2c-1 0-1.8-.8-1.8-1.8v-2.7h5.6v2.7c0 1-.8 1.8-1.8 1.8Zm1.8-6.5c0-1.1-.9-2-2-2h-1.7c-1.1 0-2 .9-2 2v2"/><path stroke="#AFC72D" stroke-dasharray="1 10" stroke-linecap="round" stroke-linejoin="round" stroke-width="2" d="M354.9 298.8v14.7c0 3.5 2.8 6.3 6.3 6.3h240c3.5 0 6.3-2.8 6.3-6.3v-82.1c0-3.5 2.8-6.3 6.3-6.3H762M221.7 650.2V681c0 3.5 2.8 6.3 6.3 6.3h521.5c3.5 0 6.3-2.8 6.3-6.3V230.3m23.4 794v20.5c0 3.5 2.8 6.3 6.3 6.3h98.6c3.5 0 6.3-2.8 6.3-6.3V230.3"/><path fill="#fff" d="M235.201 71.285q-2.052 0-3.543-.893-1.482-.893-2.29-2.498-.798-1.605-.798-3.734t.798-3.733q.808-1.606 2.29-2.499 1.491-.893 3.543-.893t3.534.893a5.9 5.9 0 0 1 2.29 2.499q.807 1.605.807 3.733t-.807 3.734a5.9 5.9 0 0 1-2.29 2.498q-1.482.893-3.534.893m0-2.432q1.302.02 2.166-.56t1.292-1.644q.437-1.065.437-2.489 0-1.425-.437-2.47-.428-1.045-1.292-1.624t-2.166-.599-2.166.56-1.301 1.644q-.428 1.065-.428 2.489 0 1.425.428 2.47.437 1.045 1.301 1.624t2.166.599M245.443 71V57.32h8.93v2.413h-6.346v2.926h5.206v2.413h-5.206v3.515h6.346V71zm12.921 0V57.32h2.318l4.522 9.082 4.522-9.082h2.318V71h-2.413v-8.17L265.66 71h-.912l-3.971-8.17V71zm169.139 348v-11.267h-4.313v-2.413h11.21v2.413h-4.313V419zm10.328 0v-13.68h2.584V419zm7.146 0v-13.68h8.93v2.413h-6.346v2.926h5.206v2.413h-5.206v3.515h6.346V419zm12.922 0v-13.68h5.776q.2 0 .532.019.341.009.608.057 1.226.19 2.004.807.789.618 1.159 1.558.37.932.371 2.081 0 1.72-.855 2.945-.855 1.216-2.679 1.501l-1.14.076h-3.192V419zm7.714 0-2.698-5.567 2.66-.513 2.964 6.08zm-5.13-7.049h3.078q.199 0 .437-.019a2.3 2.3 0 0 0 .437-.076q.522-.142.807-.475a1.9 1.9 0 0 0 .39-.751q.114-.417.114-.788 0-.37-.114-.779-.105-.418-.39-.751-.285-.342-.807-.484a2.3 2.3 0 0 0-.437-.076 5 5 0 0 0-.437-.019h-3.078zm11.668 2.052v-1.995h5.7v1.995zM484.409 419v-10.868l-2.565 1.577v-2.85l2.565-1.539h2.641V419zm7.625 0v-2.584h2.584V419zm7.475 0v-10.868l-2.565 1.577v-2.85l2.565-1.539h2.641V419zm-419.006 0v-11.267H76.19v-2.413H87.4v2.413h-4.313V419zm10.328 0v-13.68h2.584V419zm7.146 0v-13.68h8.93v2.413h-6.346v2.926h5.206v2.413h-5.206v3.515h6.346V419zm12.922 0v-13.68h5.776q.2 0 .532.019.341.009.608.057 1.225.19 2.004.807.789.618 1.159 1.558.37.932.371 2.081 0 1.72-.855 2.945-.855 1.216-2.679 1.501l-1.14.076h-3.192V419zm7.714 0-2.698-5.567 2.66-.513 2.964 6.08zm-5.13-7.049h3.078q.199 0 .437-.019a2.3 2.3 0 0 0 .437-.076q.522-.142.807-.475a1.9 1.9 0 0 0 .39-.751q.114-.417.114-.788 0-.37-.114-.779-.105-.418-.39-.751-.285-.342-.807-.484a2.3 2.3 0 0 0-.437-.076 5 5 0 0 0-.437-.019h-3.078zm11.668 2.052v-1.995h5.7v1.995zM137.409 419v-10.868l-2.565 1.577v-2.85l2.565-1.539h2.641V419zm7.625 0v-2.584h2.584V419zm7.475 0v-10.868l-2.565 1.577v-2.85l2.565-1.539h2.641V419zm76.994 382v-11.267h-4.313v-2.413h11.21v2.413h-4.313V801zm10.328 0v-13.68h2.584V801zm7.146 0v-13.68h8.93v2.413h-6.346v2.926h5.206v2.413h-5.206v3.515h6.346V801zm12.922 0v-13.68h5.776q.2 0 .532.019.341.009.608.057 1.226.19 2.004.807.789.618 1.159 1.558.37.932.371 2.081 0 1.72-.855 2.945-.855 1.216-2.679 1.501l-1.14.076h-3.192V801zm7.714 0-2.698-5.567 2.66-.513 2.964 6.08zm-5.13-7.049h3.078q.199 0 .437-.019a2.3 2.3 0 0 0 .437-.076q.522-.142.807-.475a1.9 1.9 0 0 0 .39-.751q.114-.417.114-.788 0-.37-.114-.779-.105-.418-.39-.751-.285-.342-.807-.484a2.3 2.3 0 0 0-.437-.076 5 5 0 0 0-.437-.019h-3.078zm11.668 2.052v-1.995h5.7v1.995zm9.503 4.978v-2.242l5.738-5.092q.647-.57.912-1.074.267-.503.266-.94 0-.627-.256-1.112a1.9 1.9 0 0 0-.722-.769 2.05 2.05 0 0 0-1.093-.285q-.655 0-1.159.304a2.1 2.1 0 0 0-.769.788 1.97 1.97 0 0 0-.257 1.055h-2.66q0-1.406.618-2.432a4.17 4.17 0 0 1 1.719-1.587q1.102-.56 2.565-.56 1.34 0 2.394.589 1.065.58 1.672 1.624.608 1.046.608 2.423 0 1.016-.285 1.691-.285.665-.845 1.235-.56.56-1.378 1.273l-3.705 3.249-.209-.57h6.422v2.432zm13.979.019v-2.584h2.584V801zm12.456.285q-1.52 0-2.66-.637a4.5 4.5 0 0 1-1.777-1.776q-.636-1.14-.636-2.66v-4.104q0-1.52.636-2.66a4.53 4.53 0 0 1 1.777-1.777q1.14-.636 2.66-.636t2.66.636a4.5 4.5 0 0 1 1.776 1.777q.636 1.14.637 2.66v4.104q0 1.52-.637 2.66a4.5 4.5 0 0 1-1.776 1.776q-1.14.637-2.66.637m0-2.451a2.4 2.4 0 0 0 2.432-2.432v-4.503a2.4 2.4 0 0 0-2.432-2.432 2.4 2.4 0 0 0-2.432 2.432v4.503q0 .684.323 1.235a2.4 2.4 0 0 0 2.109 1.197M644.503 801v-11.267h-4.313v-2.413h11.21v2.413h-4.313V801zm10.328 0v-13.68h2.584V801zm7.146 0v-13.68h8.93v2.413h-6.346v2.926h5.206v2.413h-5.206v3.515h6.346V801zm12.922 0v-13.68h5.776q.2 0 .532.019.341.009.608.057 1.226.19 2.004.807.789.618 1.159 1.558.37.932.371 2.081 0 1.72-.855 2.945-.855 1.216-2.679 1.501l-1.14.076h-3.192V801zm7.714 0-2.698-5.567 2.66-.513 2.964 6.08zm-5.13-7.049h3.078q.199 0 .437-.019a2.3 2.3 0 0 0 .437-.076q.522-.142.807-.475a1.9 1.9 0 0 0 .39-.751q.114-.417.114-.788 0-.37-.114-.779-.105-.418-.39-.751-.285-.342-.807-.484a2.3 2.3 0 0 0-.437-.076 5 5 0 0 0-.437-.019h-3.078zm11.668 2.052v-1.995h5.7v1.995zm9.503 4.978v-2.242l5.738-5.092q.647-.57.912-1.074.267-.503.266-.94 0-.627-.256-1.112a1.9 1.9 0 0 0-.722-.769 2.05 2.05 0 0 0-1.093-.285q-.655 0-1.159.304a2.1 2.1 0 0 0-.769.788 1.97 1.97 0 0 0-.257 1.055h-2.66q0-1.406.618-2.432a4.17 4.17 0 0 1 1.719-1.587q1.102-.56 2.565-.56 1.34 0 2.394.589 1.065.58 1.672 1.624.608 1.046.608 2.423 0 1.016-.285 1.691-.285.665-.845 1.235-.56.56-1.378 1.273l-3.705 3.249-.209-.57h6.422v2.432zm13.979.019v-2.584h2.584V801zm7.475 0v-10.868l-2.565 1.577v-2.85l2.565-1.539h2.641V801zM1037.2 71.285q-2.055 0-3.54-.893c-.99-.595-1.75-1.428-2.29-2.498-.53-1.07-.8-2.315-.8-3.734s.27-2.663.8-3.733c.54-1.07 1.3-1.904 2.29-2.499q1.485-.893 3.54-.893c1.57 0 2.89.39 3.95 1.169 1.07.779 1.83 1.833 2.26 3.163l-2.6.722c-.25-.83-.68-1.472-1.28-1.928-.6-.463-1.38-.694-2.33-.694-.87 0-1.59.193-2.17.58s-1.01.93-1.31 1.634c-.29.703-.43 1.529-.43 2.479s.14 1.776.43 2.48c.3.703.73 1.247 1.31 1.633.58.387 1.3.58 2.17.58.95 0 1.73-.231 2.33-.694s1.03-1.105 1.28-1.928l2.6.722c-.43 1.33-1.19 2.385-2.26 3.163-1.06.78-2.38 1.169-3.95 1.169m15.89 0q-2.055 0-3.54-.893c-.99-.595-1.75-1.428-2.29-2.498-.53-1.07-.8-2.315-.8-3.734s.27-2.663.8-3.733c.54-1.07 1.3-1.904 2.29-2.499q1.485-.893 3.54-.893t3.54.893 2.28 2.499q.81 1.605.81 3.733t-.81 3.734q-.795 1.605-2.28 2.498t-3.54.893m0-2.432c.87.013 1.59-.174 2.17-.56q.855-.58 1.29-1.644c.29-.71.44-1.539.44-2.489s-.15-1.773-.44-2.47q-.435-1.045-1.29-1.624c-.58-.387-1.3-.586-2.17-.599q-1.305-.02-2.16.56c-.58.387-1.02.935-1.31 1.644q-.42 1.065-.42 2.489 0 1.425.42 2.47c.29.697.73 1.238 1.31 1.624q.855.58 2.16.599M1063.33 71V57.32h2.62l5.95 9.12v-9.12h2.62V71h-2.62l-5.95-9.12V71zm20.73.285c-1.02 0-1.93-.177-2.75-.532a5.16 5.16 0 0 1-2-1.539q-.78-1.007-.99-2.394l2.7-.399q.285 1.178 1.17 1.814.9.637 2.04.637.63 0 1.23-.2c.4-.132.73-.329.98-.588q.39-.39.39-.96c0-.14-.02-.272-.07-.399a.85.85 0 0 0-.2-.37 1.5 1.5 0 0 0-.4-.324 3 3 0 0 0-.66-.275l-3.55-1.045a10 10 0 0 1-.93-.323q-.525-.21-1.02-.599c-.33-.26-.6-.601-.83-1.026-.21-.43-.32-.972-.32-1.624q0-1.377.69-2.29c.47-.607 1.08-1.06 1.86-1.358.77-.298 1.62-.443 2.56-.437.95.013 1.79.174 2.53.484q1.11.466 1.86 1.359.75.884 1.08 2.166l-2.79.475a2.5 2.5 0 0 0-.56-1.121c-.27-.304-.6-.535-.98-.694a3.2 3.2 0 0 0-1.18-.256 3.2 3.2 0 0 0-1.15.171q-.525.18-.87.532a1.18 1.18 0 0 0-.33.836q0 .447.27.731c.19.184.42.333.7.447s.56.209.85.285l2.38.646q.525.143 1.17.38c.44.152.85.367 1.24.646.4.272.73.633.98 1.083q.39.675.39 1.71c0 .735-.16 1.377-.47 1.928q-.45.818-1.23 1.359a5.8 5.8 0 0 1-1.77.798 7.7 7.7 0 0 1-2.02.266m14.86 0q-1.65 0-2.91-.665a4.9 4.9 0 0 1-1.96-1.89c-.47-.811-.7-1.764-.7-2.86v-8.531l2.62-.019v8.531c0 .45.08.858.23 1.225q.225.551.63.95c.27.267.58.472.94.618.36.14.74.209 1.15.209.42 0 .8-.073 1.16-.218s.67-.352.94-.618c.26-.266.47-.583.61-.95.16-.367.23-.773.23-1.216V57.32h2.62v8.55c0 1.096-.23 2.049-.7 2.86a4.9 4.9 0 0 1-1.96 1.89c-.83.443-1.8.665-2.9.665m9.93-.285V57.32h2.32l4.52 9.082 4.52-9.082h2.32V71h-2.41v-8.17l-3.97 8.17h-.92l-3.97-8.17V71zm18.06 0V57.32h8.93v2.413h-6.34v2.926h5.2v2.413h-5.2v3.515h6.34V71zm12.92 0V57.32h5.78c.13 0 .31.006.53.019.23.006.43.025.61.057.82.127 1.48.396 2 .807.53.412.92.931 1.16 1.558.25.621.37 1.315.37 2.081 0 1.146-.28 2.128-.85 2.945-.57.81-1.47 1.311-2.68 1.501l-1.14.076h-3.19V71zm7.72 0-2.7-5.567 2.66-.513 2.96 6.08zm-5.13-7.049h3.07c.14 0 .28-.006.44-.019s.31-.038.44-.076q.525-.142.81-.475.285-.342.39-.75c.07-.28.11-.542.11-.789s-.04-.507-.11-.779a1.8 1.8 0 0 0-.39-.75q-.285-.343-.81-.485a2.2 2.2 0 0 0-.44-.076c-.16-.013-.3-.019-.44-.019h-3.07zM1158.84 71l4.18-13.68h3.86l4.18 13.68h-2.66l-3.72-12.065h.49L1161.5 71zm2.51-2.85v-2.413h7.22v2.413zm13.13 2.85V57.32h5.77c.14 0 .31.006.54.019.22.006.43.025.6.057q1.23.19 2.01.807c.52.412.91.931 1.16 1.558.24.621.37 1.315.37 2.081s-.13 1.463-.38 2.09c-.25.62-.64 1.137-1.16 1.549s-1.19.68-2 .807c-.17.025-.38.044-.6.057q-.345.02-.54.019h-3.19V71zm2.58-7.049h3.08c.13 0 .28-.006.44-.019s.3-.038.43-.076q.525-.142.81-.475.285-.342.39-.75a2.83 2.83 0 0 0 0-1.568 1.8 1.8 0 0 0-.39-.75q-.285-.343-.81-.485a2 2 0 0 0-.43-.076 6 6 0 0 0-.44-.019h-3.08zM1188.55 71V57.32h5.78c.13 0 .31.006.53.019.23.006.43.025.61.057.81.127 1.48.396 2 .807.53.412.91.931 1.16 1.558.25.621.37 1.315.37 2.081s-.13 1.463-.38 2.09c-.25.62-.63 1.137-1.16 1.549-.52.411-1.18.68-1.99.807a11 11 0 0 1-1.14.076h-3.2V71zm2.58-7.049h3.08c.13 0 .28-.006.44-.019s.3-.038.44-.076c.34-.095.61-.253.8-.475q.285-.342.39-.75.12-.42.12-.789t-.12-.779a1.8 1.8 0 0 0-.39-.75c-.19-.229-.46-.39-.8-.485a2.4 2.4 0 0 0-.44-.076 6 6 0 0 0-.44-.019h-3.08zM1202.81 71V57.32h2.59v11.267h5.89V71zm11.99 0V57.32h2.59V71zm13.02.285q-2.055 0-3.54-.893c-.99-.595-1.75-1.428-2.29-2.498-.53-1.07-.8-2.315-.8-3.734s.27-2.663.8-3.733c.54-1.07 1.3-1.904 2.29-2.499q1.485-.893 3.54-.893c1.57 0 2.89.39 3.95 1.169 1.07.779 1.83 1.833 2.27 3.163l-2.61.722c-.25-.83-.68-1.472-1.28-1.928-.6-.463-1.38-.694-2.33-.694-.87 0-1.59.193-2.17.58s-1.01.93-1.3 1.634c-.3.703-.44 1.529-.44 2.479s.14 1.776.44 2.48c.29.703.72 1.247 1.3 1.633.58.387 1.3.58 2.17.58.95 0 1.73-.231 2.33-.694s1.03-1.105 1.28-1.928l2.61.722c-.44 1.33-1.2 2.385-2.27 3.163-1.06.78-2.38 1.169-3.95 1.169m8.7-.285 4.18-13.68h3.86l4.18 13.68h-2.66l-3.73-12.065h.5L1239.18 71zm2.51-2.85v-2.413h7.22v2.413zM1254.2 71V59.733h-4.32V57.32h11.21v2.413h-4.31V71zm10.32 0V57.32h2.59V71zm13.02.285q-2.055 0-3.54-.893c-.99-.595-1.75-1.428-2.29-2.498-.53-1.07-.8-2.315-.8-3.734s.27-2.663.8-3.733c.54-1.07 1.3-1.904 2.29-2.499q1.485-.893 3.54-.893c1.37 0 2.55.298 3.53.893 1 .595 1.76 1.428 2.29 2.499q.81 1.605.81 3.733t-.81 3.734c-.53 1.07-1.29 1.903-2.29 2.498-.98.595-2.16.893-3.53.893m0-2.432c.87.013 1.59-.174 2.17-.56q.855-.58 1.29-1.644c.29-.71.44-1.539.44-2.489s-.15-1.773-.44-2.47q-.435-1.045-1.29-1.624c-.58-.387-1.3-.586-2.17-.599s-1.59.174-2.17.56c-.57.387-1.01.935-1.3 1.644q-.42 1.065-.42 2.489 0 1.425.42 2.47c.29.697.73 1.238 1.3 1.624.58.387 1.3.586 2.17.599M1287.78 71V57.32h2.62l5.95 9.12v-9.12h2.62V71h-2.62l-5.95-9.12V71zm21.08 0V57.32h8.93v2.413h-6.35v2.926h5.21v2.413h-5.21v3.515h6.35V71zm12.92 0V57.32h2.62l5.95 9.12v-9.12h2.62V71h-2.62l-5.95-9.12V71zm18.5 0-4.18-13.68h2.66l3.42 11.248 3.48-11.248h2.66L1344.14 71zm11.37 0V57.32h2.59V71zm7.15 0V57.32h5.77c.14 0 .31.006.54.019.22.006.43.025.6.057q1.23.19 2.01.807c.52.412.91.931 1.16 1.558.24.621.37 1.315.37 2.081 0 1.146-.29 2.128-.86 2.945-.57.81-1.46 1.311-2.68 1.501l-1.14.076h-3.19V71zm7.71 0-2.7-5.567 2.66-.513 2.97 6.08zm-5.13-7.049h3.08c.13 0 .28-.006.44-.019.15-.013.3-.038.43-.076q.525-.142.81-.475.285-.342.39-.75a2.83 2.83 0 0 0 0-1.568 1.8 1.8 0 0 0-.39-.75q-.285-.343-.81-.485a2.2 2.2 0 0 0-.43-.076 6 6 0 0 0-.44-.019h-3.08zm17.73 7.334q-2.055 0-3.54-.893c-.99-.595-1.75-1.428-2.29-2.498-.53-1.07-.8-2.315-.8-3.734s.27-2.663.8-3.733c.54-1.07 1.3-1.904 2.29-2.499q1.485-.893 3.54-.893t3.54.893 2.28 2.499q.81 1.605.81 3.733t-.81 3.734q-.795 1.605-2.28 2.498t-3.54.893m0-2.432c.87.013 1.59-.174 2.17-.56q.855-.58 1.29-1.644c.29-.71.44-1.539.44-2.489s-.15-1.773-.44-2.47q-.435-1.045-1.29-1.624c-.58-.387-1.3-.586-2.17-.599q-1.305-.02-2.16.56c-.58.387-1.01.935-1.31 1.644q-.42 1.065-.42 2.489 0 1.425.42 2.47c.3.697.73 1.238 1.31 1.624q.855.58 2.16.599M1389.35 71V57.32h2.32l4.52 9.082 4.53-9.082h2.31V71h-2.41v-8.17l-3.97 8.17h-.91l-3.97-8.17V71zm18.06 0V57.32h8.93v2.413H1410v2.926h5.2v2.413h-5.2v3.515h6.34V71zm12.93 0V57.32h2.62l5.94 9.12v-9.12h2.63V71h-2.63l-5.94-9.12V71zm18.72 0V59.733h-4.31V57.32h11.21v2.413h-4.31V71zm-248.23 616.285c-1.37 0-2.55-.298-3.55-.893-.99-.595-1.75-1.428-2.29-2.499-.53-1.07-.79-2.314-.79-3.733s.26-2.663.79-3.734c.54-1.07 1.3-1.903 2.29-2.498 1-.595 2.18-.893 3.55-.893 1.57 0 2.88.389 3.95 1.168s1.82 1.834 2.26 3.164l-2.6.722c-.26-.83-.68-1.473-1.29-1.929-.6-.462-1.37-.693-2.32-.693-.87 0-1.6.193-2.18.58s-1.01.93-1.3 1.633-.44 1.53-.44 2.48.15 1.776.44 2.479.72 1.248 1.3 1.634c.58.387 1.31.58 2.18.58.95 0 1.72-.231 2.32-.694.61-.462 1.03-1.105 1.29-1.928l2.6.722c-.44 1.33-1.19 2.384-2.26 3.163-1.07.78-2.38 1.169-3.95 1.169m15.89 0c-1.37 0-2.55-.298-3.55-.893-.99-.595-1.75-1.428-2.29-2.499-.53-1.07-.79-2.314-.79-3.733s.26-2.663.79-3.734c.54-1.07 1.3-1.903 2.29-2.498 1-.595 2.18-.893 3.55-.893 1.36 0 2.54.298 3.53.893a5.9 5.9 0 0 1 2.29 2.498q.81 1.606.81 3.734t-.81 3.733a5.9 5.9 0 0 1-2.29 2.499c-.99.595-2.17.893-3.53.893m0-2.432c.86.013 1.59-.174 2.16-.561q.87-.58 1.29-1.643c.3-.709.44-1.539.44-2.489s-.14-1.773-.44-2.47q-.42-1.045-1.29-1.625c-.57-.386-1.3-.585-2.16-.598-.87-.013-1.59.174-2.17.56s-1.01.935-1.3 1.644-.43 1.539-.43 2.489.14 1.773.43 2.47.72 1.238 1.3 1.624 1.3.586 2.17.599m10.24 2.147v-13.68h2.62l5.95 9.12v-9.12h2.62V687h-2.62l-5.95-9.12V687zm20.72.285c-1.01 0-1.93-.177-2.74-.532a5.3 5.3 0 0 1-2.01-1.539q-.78-1.007-.99-2.394l2.7-.399c.19.785.58 1.39 1.18 1.814s1.27.637 2.03.637c.43 0 .84-.067 1.24-.2s.72-.329.98-.589a1.3 1.3 0 0 0 .32-1.358 1 1 0 0 0-.2-.371 1.4 1.4 0 0 0-.41-.323 3 3 0 0 0-.65-.275l-3.56-1.045a12 12 0 0 1-.93-.323 3.9 3.9 0 0 1-1.01-.599 3.1 3.1 0 0 1-.83-1.026c-.22-.43-.32-.972-.32-1.624q0-1.378.69-2.29c.46-.608 1.08-1.06 1.85-1.358s1.63-.443 2.57-.437q1.41.02 2.52.484c.75.311 1.37.764 1.87 1.359q.75.884 1.08 2.166l-2.79.475c-.11-.443-.29-.817-.56-1.121-.28-.304-.6-.535-.98-.694a3.3 3.3 0 0 0-2.33-.085q-.54.18-.87.532c-.23.234-.34.513-.34.836 0 .298.09.541.28.731q.27.276.69.447c.28.114.57.209.86.285l2.37.646c.36.095.75.222 1.18.38.43.152.84.367 1.24.646.39.272.72.633.97 1.083q.39.675.39 1.71c0 .735-.15 1.377-.46 1.928-.31.545-.72.998-1.24 1.359-.52.355-1.11.621-1.76.798-.66.177-1.33.266-2.03.266m14.86 0c-1.1 0-2.07-.222-2.9-.665a4.9 4.9 0 0 1-1.96-1.891c-.47-.81-.7-1.763-.7-2.859v-8.531l2.62-.019v8.531c0 .45.07.858.23 1.225.15.368.36.684.62.95.27.266.59.472.94.618.36.139.75.209 1.15.209.42 0 .81-.073 1.16-.219.36-.145.68-.351.94-.617.27-.266.47-.583.62-.95s.23-.773.23-1.216v-8.531h2.62v8.55c0 1.096-.23 2.049-.7 2.859a4.9 4.9 0 0 1-1.96 1.891q-1.26.665-2.91.665m9.94-.285v-13.68h2.31l4.53 9.082 4.52-9.082h2.32V687h-2.42v-8.17l-3.97 8.17h-.91l-3.97-8.17V687zm18.06 0v-13.68h8.93v2.413h-6.35v2.926h5.21v2.413h-5.21v3.515h6.35V687zm12.92 0v-13.68h5.77c.14 0 .31.006.54.019.22.006.43.025.6.057q1.23.19 2.01.807c.52.412.91.931 1.16 1.558.24.621.37 1.315.37 2.081 0 1.146-.29 2.128-.86 2.945-.57.811-1.46 1.311-2.68 1.501l-1.14.076h-3.19V687zm7.71 0-2.7-5.567 2.66-.513 2.97 6.08zm-5.13-7.049h3.08c.13 0 .28-.006.44-.019s.3-.038.43-.076q.525-.142.81-.475a1.9 1.9 0 0 0 .39-.751q.12-.417.12-.788 0-.37-.12-.779-.105-.418-.39-.751-.285-.342-.81-.484a2 2 0 0 0-.43-.076 6 6 0 0 0-.44-.019h-3.08zM1176.46 717l4.18-13.68h3.86l4.18 13.68h-2.66l-3.72-12.065h.49L1179.12 717zm2.51-2.85v-2.413h7.22v2.413zm13.13 2.85v-13.68h5.77q.21 0 .54.019c.22.006.43.025.6.057q1.23.19 2.01.807c.53.412.91.931 1.16 1.558.25.621.37 1.315.37 2.081s-.13 1.463-.38 2.09a3.63 3.63 0 0 1-1.16 1.548c-.52.412-1.18.681-2 .808a10 10 0 0 1-1.14.076h-3.19V717zm2.58-7.049h3.08c.13 0 .28-.006.44-.019s.3-.038.43-.076q.525-.142.81-.475a1.9 1.9 0 0 0 .39-.751q.12-.417.12-.788 0-.37-.12-.779-.105-.418-.39-.751-.285-.342-.81-.484a2 2 0 0 0-.43-.076 6 6 0 0 0-.44-.019h-3.08zm11.49 7.049v-13.68h5.78c.13 0 .31.006.53.019.23.006.43.025.61.057.81.127 1.48.396 2 .807.53.412.91.931 1.16 1.558.25.621.37 1.315.37 2.081s-.13 1.463-.38 2.09a3.63 3.63 0 0 1-1.16 1.548c-.52.412-1.18.681-1.99.808a10 10 0 0 1-1.14.076h-3.2V717zm2.58-7.049h3.08c.14 0 .28-.006.44-.019s.3-.038.44-.076c.34-.095.61-.253.8-.475a1.9 1.9 0 0 0 .39-.751q.12-.417.12-.788 0-.37-.12-.779-.105-.418-.39-.751c-.19-.228-.46-.389-.8-.484a2.4 2.4 0 0 0-.44-.076c-.16-.013-.3-.019-.44-.019h-3.08zm11.68 7.049v-13.68h2.59v11.267h5.89V717zm12 0v-13.68h2.58V717zm13.01.285c-1.36 0-2.55-.298-3.54-.893s-1.75-1.428-2.29-2.499c-.53-1.07-.8-2.314-.8-3.733s.27-2.663.8-3.734c.54-1.07 1.3-1.903 2.29-2.498s2.18-.893 3.54-.893q2.355 0 3.96 1.168c1.07.779 1.82 1.834 2.26 3.164l-2.61.722c-.25-.83-.68-1.473-1.28-1.929-.6-.462-1.38-.693-2.33-.693-.86 0-1.59.193-2.17.58s-1.01.93-1.3 1.633c-.3.703-.44 1.53-.44 2.48s.14 1.776.44 2.479c.29.703.72 1.248 1.3 1.634.58.387 1.31.58 2.17.58.95 0 1.73-.231 2.33-.694s1.03-1.105 1.28-1.928l2.61.722c-.44 1.33-1.19 2.384-2.26 3.163q-1.605 1.17-3.96 1.169m8.7-.285 4.18-13.68h3.86l4.18 13.68h-2.66l-3.73-12.065h.5L1256.8 717zm2.51-2.85v-2.413h7.22v2.413zm15.17 2.85v-11.267h-4.32v-2.413h11.21v2.413h-4.31V717zm10.32 0v-13.68h2.59V717zm13.02.285q-2.055 0-3.54-.893c-.99-.595-1.75-1.428-2.29-2.499-.53-1.07-.8-2.314-.8-3.733s.27-2.663.8-3.734c.54-1.07 1.3-1.903 2.29-2.498q1.485-.893 3.54-.893t3.54.893c.99.595 1.75 1.428 2.29 2.498.53 1.071.8 2.315.8 3.734s-.27 2.663-.8 3.733c-.54 1.071-1.3 1.904-2.29 2.499q-1.485.893-3.54.893m0-2.432c.87.013 1.59-.174 2.17-.561q.855-.58 1.29-1.643c.29-.709.44-1.539.44-2.489s-.15-1.773-.44-2.47q-.435-1.045-1.29-1.625c-.58-.386-1.3-.585-2.17-.598q-1.305-.02-2.16.56c-.58.387-1.01.935-1.31 1.644q-.42 1.064-.42 2.489t.42 2.47c.3.697.73 1.238 1.31 1.624q.855.58 2.16.599M1305.4 717v-13.68h2.63l5.94 9.12v-9.12h2.62V717h-2.62l-5.94-9.12V717z"/><g clip-path="url(#b)"><path fill="#19D5A7" d="M1328.8 338.9h-164.5c-19.9 0-36-16.1-36-36V147.1c0-19.9 16.1-36 36-36h164.6c19.9 0 36 16.1 36 36v155.8c-.1 19.9-16.2 36-36.1 36"/><path fill="#fff" d="M1151.6 156.1v-21.6h4.1v21.6zm9.5 0v-21.6h9.9c.4 0 .7 0 1 .1 1.3.2 2.3.6 3.2 1.3.8.7 1.4 1.5 1.8 2.5q.6 1.5.6 3.3c0 1.8-.4 3.4-1.3 4.6s-2.3 2.1-4.2 2.4l-1.8.1h-5v7.3zm4-11.2h5.6c.2 0 .5-.1.7-.1.5-.2 1-.4 1.3-.8q.45-.6.6-1.2c.1-.4.2-.8.2-1.2s-.1-.8-.2-1.2q-.15-.6-.6-1.2c-.3-.4-.7-.6-1.3-.8-.2-.1-.4-.1-.7-.1h-5.6zm8.1 11.2-4.2-8.8 4.2-.8 4.7 9.6zm17 .4c-1.6 0-3-.3-4.3-.8s-2.3-1.4-3.2-2.4c-.8-1.1-1.3-2.3-1.6-3.8l4.3-.6c.3 1.2.9 2.2 1.9 2.9.9.7 2 1 3.2 1 .7 0 1.3-.1 2-.3.6-.2 1.1-.5 1.6-.9q.6-.6.6-1.5c0-.2 0-.4-.1-.6l-.3-.6c-.1-.2-.4-.4-.6-.5-.3-.2-.6-.3-1-.4l-5.6-1.7c-.4-.1-.9-.3-1.5-.5s-1.1-.5-1.6-.9-1-1-1.3-1.6c-.3-.7-.5-1.5-.5-2.6 0-1.5.4-2.7 1.1-3.6.7-1 1.7-1.7 2.9-2.1 1.2-.5 2.6-.7 4.1-.7s2.8.3 4 .8 2.2 1.2 2.9 2.1c.8.9 1.4 2.1 1.7 3.4l-4.4.8q-.3-1.05-.9-1.8c-.4-.5-.9-.8-1.5-1.1-.6-.2-1.2-.4-1.9-.4q-.9 0-1.8.3c-.6.2-1 .5-1.4.8-.4.4-.5.8-.5 1.3s.1.9.4 1.1.7.5 1.1.7.9.3 1.3.4l3.8 1c.6.2 1.2.3 1.9.6.7.2 1.3.6 2 1s1.1 1 1.5 1.7q.6 1.05.6 2.7c0 1.2-.2 2.2-.7 3-.5.9-1.1 1.6-2 2.1-.8.6-1.7 1-2.8 1.3-1.2.3-2.3.4-3.4.4"/><mask id="c" width="93" height="138" x="1197" y="162" maskUnits="userSpaceOnUse" style="mask-type:luminance"><path fill="#fff" d="M1289.7 162.9h-92.2v136.3h92.2z"/></mask><g mask="url(#c)"><path fill="#fff" fill-rule="evenodd" d="M1227.3 211.8h32.5c4.5 0 8.1-3.7 8.1-8.2V171c0-4.5-3.6-8.2-8.1-8.2h-32.5c-4.5 0-8.1 3.7-8.1 8.2v32.6c0 4.6 3.6 8.2 8.1 8.2m-2.7-40.8c0-1.5 1.2-2.7 2.7-2.7h32.5c1.5 0 2.7 1.2 2.7 2.7v32.6c0 1.5-1.2 2.7-2.7 2.7h-32.5c-1.5 0-2.7-1.2-2.7-2.7zm2.4 127.8h32.5c4.5 0 8.1-3.7 8.1-8.2V258c0-4.5-3.6-8.2-8.1-8.2H1227c-4.5 0-8.1 3.7-8.1 8.2v32.6c0 4.6 3.6 8.2 8.1 8.2m-2.7-40.8c0-1.5 1.2-2.7 2.7-2.7h32.5c1.5 0 2.7 1.2 2.7 2.7v32.6c0 1.5-1.2 2.7-2.7 2.7H1227c-1.5 0-2.7-1.2-2.7-2.7zm-26.7-2v-57.8c0-5.5 2.5-9.7 6.9-11.9 3.2-1.6 6.3-1.6 6.6-1.6v5.4s-2.3 0-4.4 1.1c-2.5 1.3-3.8 3.6-3.8 7v65.1c0 3.4 1.2 5.7 3.8 7 2.1 1.1 4.3 1.1 4.3 1.1v5.4c-.3 0-3.4 0-6.6-1.6-4.5-2.2-6.9-6.5-6.9-11.9V256zm91.7-50.6v-7.2c0-5.5-2.5-9.7-6.9-11.9-3.2-1.6-6.3-1.6-6.6-1.6v5.4s2.2 0 4.3 1.1c2.5 1.3 3.8 3.6 3.8 7v65c0 3.4-1.2 5.7-3.8 7-2.1 1.1-4.3 1.1-4.4 1.1v5.4c.3 0 3.4 0 6.6-1.6 4.5-2.2 6.9-6.5 6.9-11.9v-57.8z" clip-rule="evenodd"/></g><path fill="url(#d)" d="M1308.6 317h-123.2c-19.9 0-36-16.1-36-36V165c0-19.9 16.1-36 36-36h123.2c19.9 0 36 16.1 36 36v116c0 19.9-16.2 36-36 36" opacity=".3"/></g><path fill="#3A4148" d="M1328.6 647.6H1164c-19.9 0-36-16.1-36-36V455.7c0-19.9 16.1-36 36-36h164.6c19.9 0 36 16.1 36 36v155.8c0 19.9-16.1 36.1-36 36.1"/><path stroke="#fff" stroke-linejoin="round" stroke-miterlimit="10" stroke-width="5" d="m1289.6 522.5 21.6 37.4c6.5 11.3-1.7 26.3-15.2 26.3h-43.8"/><path stroke="#fff" stroke-linejoin="round" stroke-miterlimit="10" stroke-width="5" d="m1271.2 568.7-19 17.5 19 17.5m-13.7-102.4 23.9 6.4 6.4-24m-78.7 63.2-6.4-23.9-23.5 6.3"/><path stroke="#fff" stroke-linejoin="round" stroke-miterlimit="10" stroke-width="5" d="m1211.2 508.5 21.3-36.8c6.2-10.8 21.7-10.8 28-.1l21 36m-46.8 78.6h-38c-13.5 0-21.6-15.6-15.2-26.3l21.2-36.8"/><path fill="url(#e)" d="M1308 627.6h-123.2c-19.9 0-36-16.1-36-36v-116c0-19.9 16.1-36 36-36H1308c19.9 0 36 16.1 36 36v116c0 19.9-16.2 36-36 36" opacity=".2"/></g><defs><linearGradient id="d" x1="1161.73" x2="1332.21" y1="308.291" y2="137.803" gradientUnits="userSpaceOnUse"><stop stop-color="#fff" stop-opacity="0"/><stop offset=".427" stop-color="#fff" stop-opacity=".01"/><stop offset=".498" stop-color="#fff" stop-opacity=".01"/><stop offset=".928" stop-color="#fff" stop-opacity=".857"/><stop offset="1" stop-color="#fff"/></linearGradient><linearGradient id="e" x1="1161.13" x2="1331.62" y1="618.891" y2="448.403" gradientUnits="userSpaceOnUse"><stop stop-color="#fff" stop-opacity="0"/><stop offset=".427" stop-color="#fff" stop-opacity=".01"/><stop offset=".498" stop-color="#fff" stop-opacity=".01"/><stop offset=".928" stop-color="#fff" stop-opacity=".857"/><stop offset="1" stop-color="#fff"/></linearGradient><clipPath id="a"><path fill="#fff" d="M0 0h1920v1080H0z"/></clipPath><clipPath id="b"><path fill="#fff" d="M1128 111h236.8v228.1H1128z"/></clipPath></defs></svg>