<svg xmlns="http://www.w3.org/2000/svg" width="473" height="222" preserveAspectRatio="none" style="width:473px;height:222px;background:#fff"><path fill="#DDD" d="M1 6h93v210.492H1z" style="stroke:#181818;stroke-width:.5"/><text x="4" y="19.495" font-family="sans-serif" font-size="13" font-weight="bold" textLength="87">Data Provider</text><path fill="#DDD" d="M208 6h103v210.492H208z" style="stroke:#181818;stroke-width:.5"/><text x="211" y="19.495" font-family="sans-serif" font-size="13" font-weight="bold" textLength="97">Data Consumer</text><path d="M47 76.57v86.703M259 76.57v86.703" style="stroke:#181818;stroke-width:.5;stroke-dasharray:5,5"/><rect width="83" height="49.219" x="6" y="26.352" fill="#E2E2F0" rx="2.5" ry="2.5" style="stroke:#181818;stroke-width:.5"/><text x="19" y="47.885" font-family="sans-serif" font-size="14" textLength="57">Business</text><text x="13" y="65.494" font-family="sans-serif" font-size="14" textLength="69">Application</text><rect width="83" height="49.219" x="6" y="162.273" fill="#E2E2F0" rx="2.5" ry="2.5" style="stroke:#181818;stroke-width:.5"/><text x="19" y="183.807" font-family="sans-serif" font-size="14" textLength="57">Business</text><text x="13" y="201.416" font-family="sans-serif" font-size="14" textLength="69">Application</text><rect width="83" height="49.219" x="218" y="26.352" fill="#E2E2F0" rx="2.5" ry="2.5" style="stroke:#181818;stroke-width:.5"/><text x="231" y="47.885" font-family="sans-serif" font-size="14" textLength="57">Business</text><text x="225" y="65.494" font-family="sans-serif" font-size="14" textLength="69">Application</text><rect width="83" height="49.219" x="218" y="162.273" fill="#E2E2F0" rx="2.5" ry="2.5" style="stroke:#181818;stroke-width:.5"/><text x="231" y="183.807" font-family="sans-serif" font-size="14" textLength="57">Business</text><text x="225" y="201.416" font-family="sans-serif" font-size="14" textLength="69">Application</text><path fill="#181818" d="m247.5 107.922 10 4-10 4 4-4z" style="stroke:#181818;stroke-width:1"/><path d="M47.5 111.922h206" style="stroke:#181818;stroke-width:1"/><text x="63" y="107.065" font-family="sans-serif" font-size="13" font-weight="bold" textLength="7">1</text><text x="74" y="107.065" font-family="sans-serif" font-size="13" textLength="170">Send &quot;Request for Quotation&quot;</text><path fill="#FEFFDD" d="M264 91.57v26h202v-16l-10-10H264" style="stroke:#181818;stroke-width:.5"/><path fill="#FEFFDD" d="M456 91.57v10h10l-10-10" style="stroke:#181818;stroke-width:.5"/><text x="270" y="110.065" font-family="sans-serif" font-size="13" textLength="181">Request for Quotation Endpoint</text><path fill="#181818" d="m58.5 141.273-10 4 10 4-4-4z" style="stroke:#181818;stroke-width:1"/><path d="M52.5 145.273h206" style="stroke:#181818;stroke-width:1;stroke-dasharray:2,2"/><text x="125.5" y="140.417" font-family="sans-serif" font-size="13" font-weight="bold" textLength="7">2</text><text x="136.5" y="140.417" font-family="sans-serif" font-size="13" textLength="45">Created</text></svg>