<?xml version="1.0" encoding="UTF-8" standalone="no"?><svg xmlns="http://www.w3.org/2000/svg" xmlns:xlink="http://www.w3.org/1999/xlink" contentStyleType="text/css" height="565.625px" preserveAspectRatio="none" style="width:408px;height:565px;background:#FFFFFF;" version="1.1" viewBox="0 0 408 565" width="408.3333px" zoomAndPan="magnify"><defs/><g><!--MD5=[5c2310ec698d1da475648c15275cd765]
cluster Address and References--><g id="cluster_Address and References"><path d="M4.4271,3.125 L95.5729,3.125 A1.9531,1.9531 0 0 1 96.875,4.4271 L100.5208,15.4215 L403.3854,15.4215 A1.3021,1.3021 0 0 1 404.6875,16.7236 L404.6875,560.6771 A1.3021,1.3021 0 0 1 403.3854,561.9792 L4.4271,561.9792 A1.3021,1.3021 0 0 1 3.125,560.6771 L3.125,4.4271 A1.3021,1.3021 0 0 1 4.4271,3.125 " style="stroke:#000000;stroke-width:0.78125;fill:none;"/><line style="stroke:#000000;stroke-width:0.78125;fill:none;" x1="3.125" x2="100.5208" y1="15.4215" y2="15.4215"/><text fill="#000000" font-family="sans-serif" font-size="7.2917" font-weight="bold" lengthAdjust="spacing" textLength="90.625" x="5.2083" y="11.736">Address and References</text></g><!--MD5=[e50f24c143873ab5352ff9f9e3841676]
class LegalEntity--><g id="elem_LegalEntity"><rect codeLine="5" fill="#F1F1F1" height="39.1764" id="LegalEntity" rx="1.3021" ry="1.3021" style="stroke:#181818;stroke-width:0.2604166666666667;" width="53.125" x="99.4792" y="30.9896"/><ellipse cx="107.2917" cy="39.3229" fill="#ADD1B2" rx="5.7292" ry="5.7292" style="stroke:#181818;stroke-width:0.5208333333333334;"/><path d="M106.6976,39.738 L106.6976,41.04 L108.9518,41.04 L108.9518,40.5599 Q108.9518,40.2425 109.0739,40.1042 Q109.2041,39.9658 109.3994,39.9658 Q109.5947,39.9658 109.7168,40.1042 Q109.8389,40.2425 109.8389,40.5599 L109.8389,41.9271 L105.6722,41.9271 Q105.3467,41.9271 105.2083,41.805 Q105.0781,41.6829 105.0781,41.4795 Q105.0781,41.2842 105.2165,41.1621 Q105.3548,41.04 105.6722,41.04 L105.8105,41.04 L105.8105,37.5732 L105.6722,37.5732 Q105.3467,37.5732 105.2083,37.4512 Q105.0781,37.3291 105.0781,37.1257 Q105.0781,36.9303 105.2083,36.8083 Q105.3467,36.6862 105.6722,36.6862 L109.6436,36.6862 L109.6436,38.0371 Q109.6436,38.3545 109.5215,38.4928 Q109.4076,38.623 109.2041,38.623 Q109.0088,38.623 108.8867,38.4928 Q108.7646,38.3545 108.7646,38.0371 L108.7646,37.5732 L106.6976,37.5732 L106.6976,38.8509 L107.4707,38.8509 Q107.4707,38.5091 107.5358,38.4115 Q107.6742,38.1999 107.9183,38.1999 Q108.1136,38.1999 108.2357,38.3382 Q108.3577,38.4684 108.3577,38.7858 L108.3577,39.8112 Q108.3577,40.096 108.2926,40.1937 Q108.1543,40.3971 107.9183,40.3971 Q107.6742,40.3971 107.5358,40.1855 Q107.4707,40.0879 107.4707,39.738 L106.6976,39.738 Z " fill="#000000"/><text fill="#000000" font-family="sans-serif" font-size="7.2917" lengthAdjust="spacing" textLength="36.4583" x="114.5833" y="42.3065">LegalEntity</text><line style="stroke:#181818;stroke-width:0.2604166666666667;" x1="100" x2="152.0833" y1="47.6563" y2="47.6563"/><text fill="#000000" font-family="sans-serif" font-size="7.2917" lengthAdjust="spacing" textLength="18.2292" x="102.6042" y="57.309">BPNL</text><text fill="#000000" font-family="sans-serif" font-size="7.2917" lengthAdjust="spacing" textLength="6.25" x="102.6042" y="66.4805">...</text></g><!--MD5=[7eeb4b838a05227218a56e467b2beb72]
class Site--><g id="elem_Site"><rect codeLine="10" fill="#F1F1F1" height="39.1764" id="Site" rx="1.3021" ry="1.3021" style="stroke:#181818;stroke-width:0.2604166666666667;" width="29.1667" x="176.0417" y="30.9896"/><ellipse cx="183.8542" cy="39.3229" fill="#ADD1B2" rx="5.7292" ry="5.7292" style="stroke:#181818;stroke-width:0.5208333333333334;"/><path d="M183.2601,39.738 L183.2601,41.04 L185.5143,41.04 L185.5143,40.5599 Q185.5143,40.2425 185.6364,40.1042 Q185.7666,39.9658 185.9619,39.9658 Q186.1572,39.9658 186.2793,40.1042 Q186.4014,40.2425 186.4014,40.5599 L186.4014,41.9271 L182.2347,41.9271 Q181.9092,41.9271 181.7708,41.805 Q181.6406,41.6829 181.6406,41.4795 Q181.6406,41.2842 181.779,41.1621 Q181.9173,41.04 182.2347,41.04 L182.373,41.04 L182.373,37.5732 L182.2347,37.5732 Q181.9092,37.5732 181.7708,37.4512 Q181.6406,37.3291 181.6406,37.1257 Q181.6406,36.9303 181.7708,36.8083 Q181.9092,36.6862 182.2347,36.6862 L186.2061,36.6862 L186.2061,38.0371 Q186.2061,38.3545 186.084,38.4928 Q185.9701,38.623 185.7666,38.623 Q185.5713,38.623 185.4492,38.4928 Q185.3271,38.3545 185.3271,38.0371 L185.3271,37.5732 L183.2601,37.5732 L183.2601,38.8509 L184.0332,38.8509 Q184.0332,38.5091 184.0983,38.4115 Q184.2367,38.1999 184.4808,38.1999 Q184.6761,38.1999 184.7982,38.3382 Q184.9202,38.4684 184.9202,38.7858 L184.9202,39.8112 Q184.9202,40.096 184.8551,40.1937 Q184.7168,40.3971 184.4808,40.3971 Q184.2367,40.3971 184.0983,40.1855 Q184.0332,40.0879 184.0332,39.738 L183.2601,39.738 Z " fill="#000000"/><text fill="#000000" font-family="sans-serif" font-size="7.2917" lengthAdjust="spacing" textLength="12.5" x="191.1458" y="42.3065">Site</text><line style="stroke:#181818;stroke-width:0.2604166666666667;" x1="176.5625" x2="204.6875" y1="47.6563" y2="47.6563"/><text fill="#000000" font-family="sans-serif" font-size="7.2917" lengthAdjust="spacing" textLength="18.75" x="179.1667" y="57.309">BPNS</text><text fill="#000000" font-family="sans-serif" font-size="7.2917" lengthAdjust="spacing" textLength="6.25" x="179.1667" y="66.4805">...</text></g><!--MD5=[0f39e4cb6f03951afbf6d14bd2505654]
class Address--><g id="elem_Address"><rect codeLine="15" fill="#F1F1F1" height="66.6911" id="Address" rx="1.3021" ry="1.3021" style="stroke:#181818;stroke-width:0.2604166666666667;" width="81.7708" x="154.9479" y="119.7917"/><ellipse cx="180.0781" cy="128.125" fill="#ADD1B2" rx="5.7292" ry="5.7292" style="stroke:#181818;stroke-width:0.5208333333333334;"/><path d="M179.484,128.54 L179.484,129.8421 L181.7383,129.8421 L181.7383,129.362 Q181.7383,129.0446 181.8604,128.9063 Q181.9906,128.7679 182.1859,128.7679 Q182.3812,128.7679 182.5033,128.9063 Q182.6253,129.0446 182.6253,129.362 L182.6253,130.7292 L178.4587,130.7292 Q178.1331,130.7292 177.9948,130.6071 Q177.8646,130.485 177.8646,130.2816 Q177.8646,130.0863 178.0029,129.9642 Q178.1413,129.8421 178.4587,129.8421 L178.597,129.8421 L178.597,126.3753 L178.4587,126.3753 Q178.1331,126.3753 177.9948,126.2533 Q177.8646,126.1312 177.8646,125.9277 Q177.8646,125.7324 177.9948,125.6104 Q178.1331,125.4883 178.4587,125.4883 L182.43,125.4883 L182.43,126.8392 Q182.43,127.1566 182.3079,127.2949 Q182.194,127.4251 181.9906,127.4251 Q181.7952,127.4251 181.6732,127.2949 Q181.5511,127.1566 181.5511,126.8392 L181.5511,126.3753 L179.484,126.3753 L179.484,127.653 L180.2572,127.653 Q180.2572,127.3112 180.3223,127.2135 Q180.4606,127.002 180.7048,127.002 Q180.9001,127.002 181.0221,127.1403 Q181.1442,127.2705 181.1442,127.5879 L181.1442,128.6133 Q181.1442,128.8981 181.0791,128.9958 Q180.9408,129.1992 180.7048,129.1992 Q180.4606,129.1992 180.3223,128.9876 Q180.2572,128.89 180.2572,128.54 L179.484,128.54 Z " fill="#000000"/><text fill="#000000" font-family="sans-serif" font-size="7.2917" lengthAdjust="spacing" textLength="27.0833" x="190.7552" y="131.1086">Address</text><line style="stroke:#181818;stroke-width:0.2604166666666667;" x1="155.4688" x2="236.1979" y1="136.4583" y2="136.4583"/><text fill="#000000" font-family="sans-serif" font-size="7.2917" lengthAdjust="spacing" textLength="18.75" x="158.0729" y="146.111">BPNA</text><text fill="#000000" font-family="sans-serif" font-size="7.2917" lengthAdjust="spacing" textLength="18.75" x="158.0729" y="155.2826">Name</text><text fill="#000000" font-family="sans-serif" font-size="7.2917" lengthAdjust="spacing" textLength="75.5208" x="158.0729" y="164.4541">IsCatenaXMemberData</text><text fill="#000000" font-family="sans-serif" font-size="7.2917" lengthAdjust="spacing" textLength="33.3333" x="158.0729" y="173.6257">CreatedAt</text><text fill="#000000" font-family="sans-serif" font-size="7.2917" lengthAdjust="spacing" textLength="30.2083" x="158.0729" y="182.7972">UpdateAt</text></g><!--MD5=[129f55246b52b7552808bad1f6f33109]
class AddressType--><g id="elem_AddressType"><rect codeLine="23" fill="#F1F1F1" height="57.5195" id="AddressType" rx="1.3021" ry="1.3021" style="stroke:#181818;stroke-width:0.2604166666666667;" width="92.7083" x="223.4375" y="21.875"/><ellipse cx="245.7813" cy="30.2083" fill="#EB937F" rx="5.7292" ry="5.7292" style="stroke:#181818;stroke-width:0.5208333333333334;"/><path d="M245.1872,30.6234 L245.1872,31.9255 L247.4414,31.9255 L247.4414,31.4453 Q247.4414,31.1279 247.5635,30.9896 Q247.6937,30.8512 247.889,30.8512 Q248.0843,30.8512 248.2064,30.9896 Q248.3285,31.1279 248.3285,31.4453 L248.3285,32.8125 L244.1618,32.8125 Q243.8363,32.8125 243.6979,32.6904 Q243.5677,32.5684 243.5677,32.3649 Q243.5677,32.1696 243.7061,32.0475 Q243.8444,31.9255 244.1618,31.9255 L244.3001,31.9255 L244.3001,28.4587 L244.1618,28.4587 Q243.8363,28.4587 243.6979,28.3366 Q243.5677,28.2145 243.5677,28.0111 Q243.5677,27.8158 243.6979,27.6937 Q243.8363,27.5716 244.1618,27.5716 L248.1331,27.5716 L248.1331,28.9225 Q248.1331,29.2399 248.0111,29.3783 Q247.8971,29.5085 247.6937,29.5085 Q247.4984,29.5085 247.3763,29.3783 Q247.2542,29.2399 247.2542,28.9225 L247.2542,28.4587 L245.1872,28.4587 L245.1872,29.7363 L245.9603,29.7363 Q245.9603,29.3945 246.0254,29.2969 Q246.1637,29.0853 246.4079,29.0853 Q246.6032,29.0853 246.7253,29.2236 Q246.8473,29.3538 246.8473,29.6712 L246.8473,30.6966 Q246.8473,30.9814 246.7822,31.0791 Q246.6439,31.2826 246.4079,31.2826 Q246.1637,31.2826 246.0254,31.071 Q245.9603,30.9733 245.9603,30.6234 L245.1872,30.6234 Z " fill="#000000"/><text fill="#000000" font-family="sans-serif" font-size="7.2917" lengthAdjust="spacing" textLength="43.75" x="256.3021" y="33.1919">AddressType</text><line style="stroke:#181818;stroke-width:0.2604166666666667;" x1="223.9583" x2="315.625" y1="38.5417" y2="38.5417"/><text fill="#000000" font-family="sans-serif" font-size="7.2917" lengthAdjust="spacing" textLength="45.3125" x="226.5625" y="48.1944">LegalAddress</text><text fill="#000000" font-family="sans-serif" font-size="7.2917" lengthAdjust="spacing" textLength="55.2083" x="226.5625" y="57.3659">SiteMainAddress</text><text fill="#000000" font-family="sans-serif" font-size="7.2917" lengthAdjust="spacing" textLength="86.4583" x="226.5625" y="66.5375">LegalAndSiteMainAddress</text><text fill="#000000" font-family="sans-serif" font-size="7.2917" lengthAdjust="spacing" textLength="59.375" x="226.5625" y="75.709">AdditionalAddress</text></g><!--MD5=[6e5bf77e788b463c8c60562d723dadd5]
class AddressState--><g id="elem_AddressState"><rect codeLine="30" fill="#F1F1F1" height="39.1764" id="AddressState" rx="1.3021" ry="1.3021" style="stroke:#181818;stroke-width:0.2604166666666667;" width="60.9375" x="47.6563" y="133.5938"/><ellipse cx="55.4688" cy="141.9271" fill="#ADD1B2" rx="5.7292" ry="5.7292" style="stroke:#181818;stroke-width:0.5208333333333334;"/><path d="M56.9092,139.7786 Q56.9906,139.6647 57.0882,139.6077 Q57.1859,139.5508 57.2998,139.5508 Q57.4951,139.5508 57.6172,139.6891 Q57.7393,139.8193 57.7393,140.1367 L57.7393,140.8936 Q57.7393,141.2109 57.6172,141.3493 Q57.4951,141.4876 57.2998,141.4876 Q57.1208,141.4876 57.015,141.3818 Q56.9092,141.2842 56.8522,141.0156 Q56.8278,140.8285 56.7301,140.7308 Q56.5592,140.5355 56.2419,140.4215 Q55.9245,140.3076 55.599,140.3076 Q55.2002,140.3076 54.8665,140.4785 Q54.541,140.6494 54.2806,141.04 Q54.0283,141.4307 54.0283,141.9678 L54.0283,142.5374 Q54.0283,143.1803 54.4922,143.6117 Q54.9561,144.0348 55.7861,144.0348 Q56.2744,144.0348 56.6162,143.9046 Q56.8197,143.8232 57.0394,143.5954 Q57.1777,143.457 57.251,143.4163 Q57.3324,143.3757 57.4382,143.3757 Q57.609,143.3757 57.7393,143.514 Q57.8776,143.6442 57.8776,143.8232 Q57.8776,144.0023 57.6986,144.2139 Q57.4382,144.515 57.0231,144.6859 Q56.4616,144.9219 55.7861,144.9219 Q54.9967,144.9219 54.3701,144.5964 Q53.8574,144.3359 53.4993,143.7826 Q53.1413,143.221 53.1413,142.5537 L53.1413,141.9515 Q53.1413,141.2598 53.4587,140.6657 Q53.7842,140.0635 54.3538,139.7461 Q54.9235,139.4206 55.5664,139.4206 Q55.9489,139.4206 56.2826,139.5101 Q56.6243,139.5915 56.9092,139.7786 Z " fill="#000000"/><text fill="#000000" font-family="sans-serif" font-size="7.2917" lengthAdjust="spacing" textLength="44.2708" x="62.7604" y="144.9107">AddressState</text><line style="stroke:#181818;stroke-width:0.2604166666666667;" x1="48.1771" x2="108.0729" y1="150.2604" y2="150.2604"/><text fill="#000000" font-family="sans-serif" font-size="7.2917" lengthAdjust="spacing" textLength="33.3333" x="50.7813" y="159.9131">ValidFrom</text><text fill="#000000" font-family="sans-serif" font-size="7.2917" lengthAdjust="spacing" textLength="25" x="50.7813" y="169.0847">ValidTo</text></g><!--MD5=[14bd710310d98215db03ed74cdae1e01]
class AddressStateType--><g id="elem_AddressStateType"><rect codeLine="35" fill="#F1F1F1" height="39.1764" id="AddressStateType" rx="1.3021" ry="1.3021" style="stroke:#181818;stroke-width:0.2604166666666667;" width="77.6042" x="11.7188" y="259.1146"/><ellipse cx="19.5313" cy="267.4479" fill="#EB937F" rx="5.7292" ry="5.7292" style="stroke:#181818;stroke-width:0.5208333333333334;"/><path d="M18.9372,267.863 L18.9372,269.165 L21.1914,269.165 L21.1914,268.6849 Q21.1914,268.3675 21.3135,268.2292 Q21.4437,268.0908 21.639,268.0908 Q21.8343,268.0908 21.9564,268.2292 Q22.0785,268.3675 22.0785,268.6849 L22.0785,270.0521 L17.9118,270.0521 Q17.5863,270.0521 17.4479,269.93 Q17.3177,269.8079 17.3177,269.6045 Q17.3177,269.4092 17.4561,269.2871 Q17.5944,269.165 17.9118,269.165 L18.0501,269.165 L18.0501,265.6982 L17.9118,265.6982 Q17.5863,265.6982 17.4479,265.5762 Q17.3177,265.4541 17.3177,265.2507 Q17.3177,265.0553 17.4479,264.9333 Q17.5863,264.8112 17.9118,264.8112 L21.8831,264.8112 L21.8831,266.1621 Q21.8831,266.4795 21.7611,266.6178 Q21.6471,266.748 21.4437,266.748 Q21.2484,266.748 21.1263,266.6178 Q21.0042,266.4795 21.0042,266.1621 L21.0042,265.6982 L18.9372,265.6982 L18.9372,266.9759 L19.7103,266.9759 Q19.7103,266.6341 19.7754,266.5365 Q19.9137,266.3249 20.1579,266.3249 Q20.3532,266.3249 20.4753,266.4632 Q20.5973,266.5934 20.5973,266.9108 L20.5973,267.9362 Q20.5973,268.221 20.5322,268.3187 Q20.3939,268.5221 20.1579,268.5221 Q19.9137,268.5221 19.7754,268.3105 Q19.7103,268.2129 19.7103,267.863 L18.9372,267.863 Z " fill="#000000"/><text fill="#000000" font-family="sans-serif" font-size="7.2917" lengthAdjust="spacing" textLength="60.9375" x="26.8229" y="270.4315">AddressStateType</text><line style="stroke:#181818;stroke-width:0.2604166666666667;" x1="12.2396" x2="88.8021" y1="275.7813" y2="275.7813"/><text fill="#000000" font-family="sans-serif" font-size="7.2917" lengthAdjust="spacing" textLength="19.7917" x="14.8438" y="285.434">Active</text><text fill="#000000" font-family="sans-serif" font-size="7.2917" lengthAdjust="spacing" textLength="25" x="14.8438" y="294.6055">Inactive</text></g><!--MD5=[60e6288cb9d7dc6b81fd7ea580a36f71]
class AddressIdentifier--><g id="elem_AddressIdentifier"><rect codeLine="40" fill="#F1F1F1" height="30.0049" id="AddressIdentifier" rx="1.3021" ry="1.3021" style="stroke:#181818;stroke-width:0.2604166666666667;" width="71.875" x="315.1042" y="138.0208"/><ellipse cx="322.9167" cy="146.3542" fill="#ADD1B2" rx="5.7292" ry="5.7292" style="stroke:#181818;stroke-width:0.5208333333333334;"/><path d="M324.3571,144.2057 Q324.4385,144.0918 324.5361,144.0348 Q324.6338,143.9779 324.7477,143.9779 Q324.943,143.9779 325.0651,144.1162 Q325.1872,144.2464 325.1872,144.5638 L325.1872,145.3206 Q325.1872,145.638 325.0651,145.7764 Q324.943,145.9147 324.7477,145.9147 Q324.5687,145.9147 324.4629,145.8089 Q324.3571,145.7113 324.3001,145.4427 Q324.2757,145.2555 324.1781,145.1579 Q324.0072,144.9626 323.6898,144.8486 Q323.3724,144.7347 323.0469,144.7347 Q322.6481,144.7347 322.3145,144.9056 Q321.9889,145.0765 321.7285,145.4671 Q321.4762,145.8577 321.4762,146.3949 L321.4762,146.9645 Q321.4762,147.6074 321.9401,148.0387 Q322.404,148.4619 323.234,148.4619 Q323.7223,148.4619 324.0641,148.3317 Q324.2676,148.2503 324.4873,148.0225 Q324.6257,147.8841 324.6989,147.8434 Q324.7803,147.8027 324.8861,147.8027 Q325.057,147.8027 325.1872,147.9411 Q325.3255,148.0713 325.3255,148.2503 Q325.3255,148.4294 325.1465,148.641 Q324.8861,148.9421 324.471,149.113 Q323.9095,149.349 323.234,149.349 Q322.4447,149.349 321.818,149.0234 Q321.3053,148.763 320.9473,148.2096 Q320.5892,147.6481 320.5892,146.9808 L320.5892,146.3786 Q320.5892,145.6868 320.9066,145.0928 Q321.2321,144.4906 321.8018,144.1732 Q322.3714,143.8477 323.0143,143.8477 Q323.3968,143.8477 323.7305,143.9372 Q324.0723,144.0186 324.3571,144.2057 Z " fill="#000000"/><text fill="#000000" font-family="sans-serif" font-size="7.2917" lengthAdjust="spacing" textLength="55.2083" x="330.2083" y="149.3378">AddressIdentifier</text><line style="stroke:#181818;stroke-width:0.2604166666666667;" x1="315.625" x2="386.4583" y1="154.6875" y2="154.6875"/><text fill="#000000" font-family="sans-serif" font-size="7.2917" lengthAdjust="spacing" textLength="18.75" x="318.2292" y="164.3402">Value</text></g><!--MD5=[a6da717249a907f03f0e92554f6403c2]
class IdentifierType--><g id="elem_IdentifierType"><rect codeLine="44" fill="#F1F1F1" height="48.348" id="IdentifierType" rx="1.3021" ry="1.3021" style="stroke:#181818;stroke-width:0.2604166666666667;" width="61.4583" x="334.8958" y="254.4271"/><ellipse cx="342.7083" cy="262.7604" fill="#ADD1B2" rx="5.7292" ry="5.7292" style="stroke:#181818;stroke-width:0.5208333333333334;"/><path d="M342.1143,263.1755 L342.1143,264.4775 L344.3685,264.4775 L344.3685,263.9974 Q344.3685,263.68 344.4906,263.5417 Q344.6208,263.4033 344.8161,263.4033 Q345.0114,263.4033 345.1335,263.5417 Q345.2555,263.68 345.2555,263.9974 L345.2555,265.3646 L341.0889,265.3646 Q340.7633,265.3646 340.625,265.2425 Q340.4948,265.1204 340.4948,264.917 Q340.4948,264.7217 340.6331,264.5996 Q340.7715,264.4775 341.0889,264.4775 L341.2272,264.4775 L341.2272,261.0107 L341.0889,261.0107 Q340.7633,261.0107 340.625,260.8887 Q340.4948,260.7666 340.4948,260.5632 Q340.4948,260.3678 340.625,260.2458 Q340.7633,260.1237 341.0889,260.1237 L345.0602,260.1237 L345.0602,261.4746 Q345.0602,261.792 344.9382,261.9303 Q344.8242,262.0605 344.6208,262.0605 Q344.4255,262.0605 344.3034,261.9303 Q344.1813,261.792 344.1813,261.4746 L344.1813,261.0107 L342.1143,261.0107 L342.1143,262.2884 L342.8874,262.2884 Q342.8874,261.9466 342.9525,261.849 Q343.0908,261.6374 343.335,261.6374 Q343.5303,261.6374 343.6523,261.7757 Q343.7744,261.9059 343.7744,262.2233 L343.7744,263.2487 Q343.7744,263.5335 343.7093,263.6312 Q343.571,263.8346 343.335,263.8346 Q343.0908,263.8346 342.9525,263.623 Q342.8874,263.5254 342.8874,263.1755 L342.1143,263.1755 Z " fill="#000000"/><text fill="#000000" font-family="sans-serif" font-size="7.2917" lengthAdjust="spacing" textLength="44.7917" x="350" y="265.744">IdentifierType</text><line style="stroke:#181818;stroke-width:0.2604166666666667;" x1="335.4167" x2="395.8333" y1="271.0938" y2="271.0938"/><text fill="#000000" font-family="sans-serif" font-size="7.2917" lengthAdjust="spacing" textLength="44.2708" x="338.0208" y="280.7465">TechnicalKey</text><text fill="#000000" font-family="sans-serif" font-size="7.2917" lengthAdjust="spacing" textLength="18.75" x="338.0208" y="289.918">Name</text><text fill="#000000" font-family="sans-serif" font-size="7.2917" lengthAdjust="spacing" textLength="6.25" x="338.0208" y="299.0896">...</text></g><!--MD5=[1782d6790123778b6f73e96190c2576c]
class AlternativePostalAddress--><g id="elem_AlternativePostalAddress"><rect codeLine="50" fill="#F1F1F1" height="39.1764" id="AlternativePostalAddress" rx="1.3021" ry="1.3021" style="stroke:#181818;stroke-width:0.2604166666666667;" width="98.9583" x="107.8125" y="259.1146"/><ellipse cx="115.625" cy="267.4479" fill="#ADD1B2" rx="5.7292" ry="5.7292" style="stroke:#181818;stroke-width:0.5208333333333334;"/><path d="M117.0654,265.2995 Q117.1468,265.1855 117.2445,265.1286 Q117.3421,265.0716 117.4561,265.0716 Q117.6514,265.0716 117.7734,265.21 Q117.8955,265.3402 117.8955,265.6576 L117.8955,266.4144 Q117.8955,266.7318 117.7734,266.8701 Q117.6514,267.0085 117.4561,267.0085 Q117.277,267.0085 117.1712,266.9027 Q117.0654,266.805 117.0085,266.5365 Q116.984,266.3493 116.8864,266.2516 Q116.7155,266.0563 116.3981,265.9424 Q116.0807,265.8285 115.7552,265.8285 Q115.3564,265.8285 115.0228,265.9993 Q114.6973,266.1702 114.4368,266.5609 Q114.1846,266.9515 114.1846,267.4886 L114.1846,268.0583 Q114.1846,268.7012 114.6484,269.1325 Q115.1123,269.5557 115.9424,269.5557 Q116.4307,269.5557 116.7725,269.4255 Q116.9759,269.3441 117.1956,269.1162 Q117.334,268.9779 117.4072,268.9372 Q117.4886,268.8965 117.5944,268.8965 Q117.7653,268.8965 117.8955,269.0348 Q118.0339,269.165 118.0339,269.3441 Q118.0339,269.5231 117.8548,269.7347 Q117.5944,270.0358 117.1794,270.2067 Q116.6178,270.4427 115.9424,270.4427 Q115.153,270.4427 114.5264,270.1172 Q114.0137,269.8568 113.6556,269.3034 Q113.2975,268.7419 113.2975,268.0745 L113.2975,267.4723 Q113.2975,266.7806 113.6149,266.1865 Q113.9404,265.5843 114.5101,265.2669 Q115.0798,264.9414 115.7227,264.9414 Q116.1051,264.9414 116.4388,265.0309 Q116.7806,265.1123 117.0654,265.2995 Z " fill="#000000"/><text fill="#000000" font-family="sans-serif" font-size="7.2917" lengthAdjust="spacing" textLength="82.2917" x="122.9167" y="270.4315">AlternativePostalAddress</text><line style="stroke:#181818;stroke-width:0.2604166666666667;" x1="108.3333" x2="206.25" y1="275.7813" y2="275.7813"/><text fill="#000000" font-family="sans-serif" font-size="7.2917" lengthAdjust="spacing" textLength="78.6458" x="110.9375" y="285.434">DeliveryServiceQualifier</text><text fill="#000000" font-family="sans-serif" font-size="7.2917" lengthAdjust="spacing" textLength="76.5625" x="110.9375" y="294.6055">DeliveryServiceNumber</text></g><!--MD5=[abee6bb4516065aa714de77c0cc5fe79]
class DeliveryServiceType--><g id="elem_DeliveryServiceType"><rect codeLine="55" fill="#F1F1F1" height="48.348" id="DeliveryServiceType" rx="1.3021" ry="1.3021" style="stroke:#181818;stroke-width:0.2604166666666667;" width="84.375" x="46.875" y="389.0625"/><ellipse cx="54.6875" cy="397.3958" fill="#EB937F" rx="5.7292" ry="5.7292" style="stroke:#181818;stroke-width:0.5208333333333334;"/><path d="M54.0934,397.8109 L54.0934,399.113 L56.3477,399.113 L56.3477,398.6328 Q56.3477,398.3154 56.4697,398.1771 Q56.5999,398.0387 56.7952,398.0387 Q56.9906,398.0387 57.1126,398.1771 Q57.2347,398.3154 57.2347,398.6328 L57.2347,400 L53.068,400 Q52.7425,400 52.6042,399.8779 Q52.474,399.7559 52.474,399.5524 Q52.474,399.3571 52.6123,399.235 Q52.7507,399.113 53.068,399.113 L53.2064,399.113 L53.2064,395.6462 L53.068,395.6462 Q52.7425,395.6462 52.6042,395.5241 Q52.474,395.402 52.474,395.1986 Q52.474,395.0033 52.6042,394.8812 Q52.7425,394.7591 53.068,394.7591 L57.0394,394.7591 L57.0394,396.11 Q57.0394,396.4274 56.9173,396.5658 Q56.8034,396.696 56.5999,396.696 Q56.4046,396.696 56.2826,396.5658 Q56.1605,396.4274 56.1605,396.11 L56.1605,395.6462 L54.0934,395.6462 L54.0934,396.9238 L54.8665,396.9238 Q54.8665,396.582 54.9316,396.4844 Q55.07,396.2728 55.3141,396.2728 Q55.5094,396.2728 55.6315,396.4111 Q55.7536,396.5413 55.7536,396.8587 L55.7536,397.8841 Q55.7536,398.1689 55.6885,398.2666 Q55.5501,398.4701 55.3141,398.4701 Q55.07,398.4701 54.9316,398.2585 Q54.8665,398.1608 54.8665,397.8109 L54.0934,397.8109 Z " fill="#000000"/><text fill="#000000" font-family="sans-serif" font-size="7.2917" lengthAdjust="spacing" textLength="67.7083" x="61.9792" y="400.3794">DeliveryServiceType</text><line style="stroke:#181818;stroke-width:0.2604166666666667;" x1="47.3958" x2="130.7292" y1="405.7292" y2="405.7292"/><text fill="#000000" font-family="sans-serif" font-size="7.2917" lengthAdjust="spacing" textLength="22.3958" x="50" y="415.3819">POBox</text><text fill="#000000" font-family="sans-serif" font-size="7.2917" lengthAdjust="spacing" textLength="35.9375" x="50" y="424.5534">PrivateBag</text><text fill="#000000" font-family="sans-serif" font-size="7.2917" lengthAdjust="spacing" textLength="41.1458" x="50" y="433.725">BoitePostale</text></g><!--MD5=[55c87c318189d1bf5c6ab52cec671fad]
class PhysicalPostalAddress--><g id="elem_PhysicalPostalAddress"><rect codeLine="61" fill="#F1F1F1" height="103.3773" id="PhysicalPostalAddress" rx="1.3021" ry="1.3021" style="stroke:#181818;stroke-width:0.2604166666666667;" width="91.1458" x="225.2604" y="227.0833"/><ellipse cx="233.0729" cy="235.4167" fill="#ADD1B2" rx="5.7292" ry="5.7292" style="stroke:#181818;stroke-width:0.5208333333333334;"/><path d="M234.5133,233.2682 Q234.5947,233.1543 234.6924,233.0973 Q234.79,233.0404 234.904,233.0404 Q235.0993,233.0404 235.2214,233.1787 Q235.3434,233.3089 235.3434,233.6263 L235.3434,234.3831 Q235.3434,234.7005 235.2214,234.8389 Q235.0993,234.9772 234.904,234.9772 Q234.7249,234.9772 234.6191,234.8714 Q234.5133,234.7738 234.4564,234.5052 Q234.432,234.318 234.3343,234.2204 Q234.1634,234.0251 233.846,233.9111 Q233.5286,233.7972 233.2031,233.7972 Q232.8044,233.7972 232.4707,233.9681 Q232.1452,234.139 231.8848,234.5296 Q231.6325,234.9202 231.6325,235.4574 L231.6325,236.027 Q231.6325,236.6699 232.0964,237.1012 Q232.5602,237.5244 233.3903,237.5244 Q233.8786,237.5244 234.2204,237.3942 Q234.4238,237.3128 234.6436,237.085 Q234.7819,236.9466 234.8551,236.9059 Q234.9365,236.8652 235.0423,236.8652 Q235.2132,236.8652 235.3434,237.0036 Q235.4818,237.1338 235.4818,237.3128 Q235.4818,237.4919 235.3027,237.7035 Q235.0423,238.0046 234.6273,238.1755 Q234.0658,238.4115 233.3903,238.4115 Q232.6009,238.4115 231.9743,238.0859 Q231.4616,237.8255 231.1035,237.2721 Q230.7454,236.7106 230.7454,236.0433 L230.7454,235.4411 Q230.7454,234.7493 231.0628,234.1553 Q231.3883,233.5531 231.958,233.2357 Q232.5277,232.9102 233.1706,232.9102 Q233.5531,232.9102 233.8867,232.9997 Q234.2285,233.0811 234.5133,233.2682 Z " fill="#000000"/><text fill="#000000" font-family="sans-serif" font-size="7.2917" lengthAdjust="spacing" textLength="74.4792" x="240.3646" y="238.4003">PhysicalPostalAddress</text><line style="stroke:#181818;stroke-width:0.2604166666666667;" x1="225.7813" x2="315.8854" y1="243.75" y2="243.75"/><text fill="#000000" font-family="sans-serif" font-size="7.2917" lengthAdjust="spacing" textLength="83.3333" x="228.3854" y="253.4027">AdministrativeAreaLevel2</text><text fill="#000000" font-family="sans-serif" font-size="7.2917" lengthAdjust="spacing" textLength="83.3333" x="228.3854" y="262.5743">AdministrativeAreaLevel3</text><text fill="#000000" font-family="sans-serif" font-size="7.2917" lengthAdjust="spacing" textLength="22.3958" x="228.3854" y="271.7458">District</text><text fill="#000000" font-family="sans-serif" font-size="7.2917" lengthAdjust="spacing" textLength="69.2708" x="228.3854" y="280.9174">CompanyPostalCode</text><text fill="#000000" font-family="sans-serif" font-size="7.2917" lengthAdjust="spacing" textLength="66.1458" x="228.3854" y="290.0889">TaxJurisdictionCode</text><text fill="#000000" font-family="sans-serif" font-size="7.2917" lengthAdjust="spacing" textLength="46.3542" x="228.3854" y="299.2605">IndustrialZone</text><text fill="#000000" font-family="sans-serif" font-size="7.2917" lengthAdjust="spacing" textLength="26.0417" x="228.3854" y="308.432">Building</text><text fill="#000000" font-family="sans-serif" font-size="7.2917" lengthAdjust="spacing" textLength="17.1875" x="228.3854" y="317.6036">Floor</text><text fill="#000000" font-family="sans-serif" font-size="7.2917" lengthAdjust="spacing" textLength="16.1458" x="228.3854" y="326.7751">Door</text></g><!--MD5=[c0cfaefa9bff8b109aa2ead27fcfac60]
class PostalAddress--><g id="elem_PostalAddress"><rect codeLine="73" fill="#F1F1F1" height="39.1764" id="PostalAddress" rx="1.3021" ry="1.3021" style="stroke:#181818;stroke-width:0.2604166666666667;" width="64.0625" x="149.7396" y="393.75"/><ellipse cx="157.5521" cy="402.0833" fill="#A9DCDF" rx="5.7292" ry="5.7292" style="stroke:#181818;stroke-width:0.5208333333333334;"/><path d="M158.6914,403.0029 L156.5348,403.0029 L156.3151,403.54 L156.5348,403.54 Q156.8522,403.54 156.9906,403.6621 Q157.1289,403.7842 157.1289,403.9876 Q157.1289,404.1829 156.9906,404.305 Q156.8522,404.4271 156.5348,404.4271 L155.3385,404.4271 Q155.0212,404.4271 154.891,404.305 Q154.7526,404.1829 154.7526,403.9795 Q154.7526,403.7842 154.8991,403.6621 Q155.0374,403.5319 155.363,403.54 L156.7546,400.0732 L156.1768,400.0732 Q155.8594,400.0732 155.721,399.9512 Q155.5827,399.8291 155.5827,399.6257 Q155.5827,399.4303 155.721,399.3083 Q155.8594,399.1862 156.1768,399.1862 L158.0892,399.1862 L159.8551,403.54 Q160.1644,403.54 160.262,403.6133 Q160.4655,403.7516 160.4655,403.9876 Q160.4655,404.1829 160.3271,404.305 Q160.1969,404.4271 159.8796,404.4271 L158.6833,404.4271 Q158.3659,404.4271 158.2275,404.305 Q158.0892,404.1829 158.0892,403.9795 Q158.0892,403.7842 158.2275,403.6621 Q158.3659,403.54 158.6833,403.54 L158.903,403.54 L158.6914,403.0029 Z M158.3171,402.1159 L157.609,400.3581 L156.8929,402.1159 L158.3171,402.1159 Z " fill="#000000"/><text fill="#000000" font-family="sans-serif" font-size="7.2917" font-style="italic" lengthAdjust="spacing" textLength="47.3958" x="164.8438" y="405.0669">PostalAddress</text><line style="stroke:#181818;stroke-width:0.2604166666666667;" x1="150.2604" x2="213.2813" y1="410.4167" y2="410.4167"/><text fill="#000000" font-family="sans-serif" font-size="7.2917" lengthAdjust="spacing" textLength="38.0208" x="152.8646" y="420.0694">PostalCode</text><text fill="#000000" font-family="sans-serif" font-size="7.2917" lengthAdjust="spacing" textLength="12.5" x="152.8646" y="429.2409">City</text></g><!--MD5=[deb4e1f6eb1e3c1256fdb830f96abfbb]
class Country--><g id="elem_Country"><rect codeLine="78" fill="#F1F1F1" height="57.5195" id="Country" rx="1.3021" ry="1.3021" style="stroke:#181818;stroke-width:0.2604166666666667;" width="42.7083" x="70.8333" y="496.3542"/><ellipse cx="78.6458" cy="504.6875" fill="#EB937F" rx="5.7292" ry="5.7292" style="stroke:#181818;stroke-width:0.5208333333333334;"/><path d="M78.0518,505.1025 L78.0518,506.4046 L80.306,506.4046 L80.306,505.9245 Q80.306,505.6071 80.4281,505.4688 Q80.5583,505.3304 80.7536,505.3304 Q80.9489,505.3304 81.071,505.4688 Q81.193,505.6071 81.193,505.9245 L81.193,507.2917 L77.0264,507.2917 Q76.7008,507.2917 76.5625,507.1696 Q76.4323,507.0475 76.4323,506.8441 Q76.4323,506.6488 76.5706,506.5267 Q76.709,506.4046 77.0264,506.4046 L77.1647,506.4046 L77.1647,502.9378 L77.0264,502.9378 Q76.7008,502.9378 76.5625,502.8158 Q76.4323,502.6937 76.4323,502.4902 Q76.4323,502.2949 76.5625,502.1729 Q76.7008,502.0508 77.0264,502.0508 L80.9977,502.0508 L80.9977,503.4017 Q80.9977,503.7191 80.8757,503.8574 Q80.7617,503.9876 80.5583,503.9876 Q80.363,503.9876 80.2409,503.8574 Q80.1188,503.7191 80.1188,503.4017 L80.1188,502.9378 L78.0518,502.9378 L78.0518,504.2155 L78.8249,504.2155 Q78.8249,503.8737 78.89,503.776 Q79.0283,503.5645 79.2725,503.5645 Q79.4678,503.5645 79.5898,503.7028 Q79.7119,503.833 79.7119,504.1504 L79.7119,505.1758 Q79.7119,505.4606 79.6468,505.5583 Q79.5085,505.7617 79.2725,505.7617 Q79.0283,505.7617 78.89,505.5501 Q78.8249,505.4525 78.8249,505.1025 L78.0518,505.1025 Z " fill="#000000"/><text fill="#000000" font-family="sans-serif" font-size="7.2917" lengthAdjust="spacing" textLength="26.0417" x="85.9375" y="507.6711">Country</text><line style="stroke:#181818;stroke-width:0.2604166666666667;" x1="71.3542" x2="113.0208" y1="513.0208" y2="513.0208"/><text fill="#000000" font-family="sans-serif" font-size="7.2917" lengthAdjust="spacing" textLength="9.8958" x="73.9583" y="522.6735">DE</text><text fill="#000000" font-family="sans-serif" font-size="7.2917" lengthAdjust="spacing" textLength="9.8958" x="73.9583" y="531.8451">FR</text><text fill="#000000" font-family="sans-serif" font-size="7.2917" lengthAdjust="spacing" textLength="9.375" x="73.9583" y="541.0166">US</text><text fill="#000000" font-family="sans-serif" font-size="7.2917" lengthAdjust="spacing" textLength="6.25" x="73.9583" y="550.1882">...</text></g><!--MD5=[2f1ca98bd76a1741b9fc77072f6445d7]
class AdministrativeAreaLevel1--><g id="elem_AdministrativeAreaLevel1"><rect codeLine="85" fill="#F1F1F1" height="48.348" id="AdministrativeAreaLevel1" rx="1.3021" ry="1.3021" style="stroke:#181818;stroke-width:0.2604166666666667;" width="100" x="131.7708" y="500.7813"/><ellipse cx="139.5833" cy="509.1146" fill="#ADD1B2" rx="5.7292" ry="5.7292" style="stroke:#181818;stroke-width:0.5208333333333334;"/><path d="M138.9893,509.5296 L138.9893,510.8317 L141.2435,510.8317 L141.2435,510.3516 Q141.2435,510.0342 141.3656,509.8958 Q141.4958,509.7575 141.6911,509.7575 Q141.8864,509.7575 142.0085,509.8958 Q142.1305,510.0342 142.1305,510.3516 L142.1305,511.7188 L137.9639,511.7188 Q137.6383,511.7188 137.5,511.5967 Q137.3698,511.4746 137.3698,511.2712 Q137.3698,511.0758 137.5081,510.9538 Q137.6465,510.8317 137.9639,510.8317 L138.1022,510.8317 L138.1022,507.3649 L137.9639,507.3649 Q137.6383,507.3649 137.5,507.2428 Q137.3698,507.1208 137.3698,506.9173 Q137.3698,506.722 137.5,506.5999 Q137.6383,506.4779 137.9639,506.4779 L141.9352,506.4779 L141.9352,507.8288 Q141.9352,508.1462 141.8132,508.2845 Q141.6992,508.4147 141.4958,508.4147 Q141.3005,508.4147 141.1784,508.2845 Q141.0563,508.1462 141.0563,507.8288 L141.0563,507.3649 L138.9893,507.3649 L138.9893,508.6426 L139.7624,508.6426 Q139.7624,508.3008 139.8275,508.2031 Q139.9658,507.9915 140.21,507.9915 Q140.4053,507.9915 140.5273,508.1299 Q140.6494,508.2601 140.6494,508.5775 L140.6494,509.6029 Q140.6494,509.8877 140.5843,509.9854 Q140.446,510.1888 140.21,510.1888 Q139.9658,510.1888 139.8275,509.9772 Q139.7624,509.8796 139.7624,509.5296 L138.9893,509.5296 Z " fill="#000000"/><text fill="#000000" font-family="sans-serif" font-size="7.2917" lengthAdjust="spacing" textLength="83.3333" x="146.875" y="512.0982">AdministrativeAreaLevel1</text><line style="stroke:#181818;stroke-width:0.2604166666666667;" x1="132.2917" x2="231.25" y1="517.4479" y2="517.4479"/><text fill="#000000" font-family="sans-serif" font-size="7.2917" lengthAdjust="spacing" textLength="17.7083" x="134.8958" y="527.1006">Code</text><text fill="#000000" font-family="sans-serif" font-size="7.2917" lengthAdjust="spacing" textLength="18.75" x="134.8958" y="536.2722">Name</text><text fill="#000000" font-family="sans-serif" font-size="7.2917" lengthAdjust="spacing" textLength="6.25" x="134.8958" y="545.4437">...</text></g><!--MD5=[d10056941595379d4f24742ce5b84606]
class GeographicCoordinates--><g id="elem_GeographicCoordinates"><rect codeLine="91" fill="#F1F1F1" height="48.348" id="GeographicCoordinates" rx="1.3021" ry="1.3021" style="stroke:#181818;stroke-width:0.2604166666666667;" width="95.3125" x="250.2604" y="500.7813"/><ellipse cx="258.0729" cy="509.1146" fill="#ADD1B2" rx="5.7292" ry="5.7292" style="stroke:#181818;stroke-width:0.5208333333333334;"/><path d="M259.5133,506.9661 Q259.5947,506.8522 259.6924,506.7952 Q259.79,506.7383 259.904,506.7383 Q260.0993,506.7383 260.2214,506.8766 Q260.3434,507.0068 260.3434,507.3242 L260.3434,508.0811 Q260.3434,508.3984 260.2214,508.5368 Q260.0993,508.6751 259.904,508.6751 Q259.7249,508.6751 259.6191,508.5693 Q259.5133,508.4717 259.4564,508.2031 Q259.432,508.016 259.3343,507.9183 Q259.1634,507.723 258.846,507.609 Q258.5286,507.4951 258.2031,507.4951 Q257.8044,507.4951 257.4707,507.666 Q257.1452,507.8369 256.8848,508.2275 Q256.6325,508.6182 256.6325,509.1553 L256.6325,509.7249 Q256.6325,510.3678 257.0964,510.7992 Q257.5602,511.2223 258.3903,511.2223 Q258.8786,511.2223 259.2204,511.0921 Q259.4238,511.0107 259.6436,510.7829 Q259.7819,510.6445 259.8551,510.6038 Q259.9365,510.5632 260.0423,510.5632 Q260.2132,510.5632 260.3434,510.7015 Q260.4818,510.8317 260.4818,511.0107 Q260.4818,511.1898 260.3027,511.4014 Q260.0423,511.7025 259.6273,511.8734 Q259.0658,512.1094 258.3903,512.1094 Q257.6009,512.1094 256.9743,511.7839 Q256.4616,511.5234 256.1035,510.9701 Q255.7454,510.4085 255.7454,509.7412 L255.7454,509.139 Q255.7454,508.4473 256.0628,507.8532 Q256.3883,507.251 256.958,506.9336 Q257.5277,506.6081 258.1706,506.6081 Q258.5531,506.6081 258.8867,506.6976 Q259.2285,506.779 259.5133,506.9661 Z " fill="#000000"/><text fill="#000000" font-family="sans-serif" font-size="7.2917" lengthAdjust="spacing" textLength="78.6458" x="265.3646" y="512.0982">GeographicCoordinates</text><line style="stroke:#181818;stroke-width:0.2604166666666667;" x1="250.7813" x2="345.0521" y1="517.4479" y2="517.4479"/><text fill="#000000" font-family="sans-serif" font-size="7.2917" lengthAdjust="spacing" textLength="26.5625" x="253.3854" y="527.1006">Latitude</text><text fill="#000000" font-family="sans-serif" font-size="7.2917" lengthAdjust="spacing" textLength="32.8125" x="253.3854" y="536.2722">Longitude</text><text fill="#000000" font-family="sans-serif" font-size="7.2917" lengthAdjust="spacing" textLength="24.4792" x="253.3854" y="545.4437">Altitude</text></g><!--MD5=[e723117c0f41e2c24ef9f63f1be0d05e]
class Street--><g id="elem_Street"><rect codeLine="97" fill="#F1F1F1" height="85.0342" id="Street" rx="1.3021" ry="1.3021" style="stroke:#181818;stroke-width:0.2604166666666667;" width="91.6667" x="232.2917" y="370.8333"/><ellipse cx="266.0156" cy="379.1667" fill="#ADD1B2" rx="5.7292" ry="5.7292" style="stroke:#181818;stroke-width:0.5208333333333334;"/><path d="M267.4561,377.0182 Q267.5374,376.9043 267.6351,376.8473 Q267.7327,376.7904 267.8467,376.7904 Q268.042,376.7904 268.1641,376.9287 Q268.2861,377.0589 268.2861,377.3763 L268.2861,378.1331 Q268.2861,378.4505 268.1641,378.5889 Q268.042,378.7272 267.8467,378.7272 Q267.6676,378.7272 267.5618,378.6214 Q267.4561,378.5238 267.3991,378.2552 Q267.3747,378.068 267.277,377.9704 Q267.1061,377.7751 266.7887,377.6611 Q266.4714,377.5472 266.1458,377.5472 Q265.7471,377.5472 265.4134,377.7181 Q265.0879,377.889 264.8275,378.2796 Q264.5752,378.6702 264.5752,379.2074 L264.5752,379.777 Q264.5752,380.4199 265.0391,380.8512 Q265.5029,381.2744 266.333,381.2744 Q266.8213,381.2744 267.1631,381.1442 Q267.3665,381.0628 267.5863,380.835 Q267.7246,380.6966 267.7979,380.6559 Q267.8792,380.6152 267.985,380.6152 Q268.1559,380.6152 268.2861,380.7536 Q268.4245,380.8838 268.4245,381.0628 Q268.4245,381.2419 268.2454,381.4535 Q267.985,381.7546 267.57,381.9255 Q267.0085,382.1615 266.333,382.1615 Q265.5436,382.1615 264.917,381.8359 Q264.4043,381.5755 264.0462,381.0221 Q263.6882,380.4606 263.6882,379.7933 L263.6882,379.1911 Q263.6882,378.4993 264.0055,377.9053 Q264.3311,377.3031 264.9007,376.9857 Q265.4704,376.6602 266.1133,376.6602 Q266.4958,376.6602 266.8294,376.7497 Q267.1712,376.8311 267.4561,377.0182 Z " fill="#000000"/><text fill="#000000" font-family="sans-serif" font-size="7.2917" lengthAdjust="spacing" textLength="19.7917" x="276.6927" y="382.1503">Street</text><line style="stroke:#181818;stroke-width:0.2604166666666667;" x1="232.8125" x2="323.4375" y1="387.5" y2="387.5"/><text fill="#000000" font-family="sans-serif" font-size="7.2917" lengthAdjust="spacing" textLength="36.9792" x="235.4167" y="397.1527">NamePrefix</text><text fill="#000000" font-family="sans-serif" font-size="7.2917" lengthAdjust="spacing" textLength="69.2708" x="235.4167" y="406.3243">AdditionalNamePrefix</text><text fill="#000000" font-family="sans-serif" font-size="7.2917" lengthAdjust="spacing" textLength="18.75" x="235.4167" y="415.4958">Name</text><text fill="#000000" font-family="sans-serif" font-size="7.2917" lengthAdjust="spacing" textLength="36.4583" x="235.4167" y="424.6674">NameSuffix</text><text fill="#000000" font-family="sans-serif" font-size="7.2917" lengthAdjust="spacing" textLength="68.75" x="235.4167" y="433.8389">AdditionalNameSuffix</text><text fill="#000000" font-family="sans-serif" font-size="7.2917" lengthAdjust="spacing" textLength="46.3542" x="235.4167" y="443.0105">HouseNumber</text><text fill="#000000" font-family="sans-serif" font-size="7.2917" lengthAdjust="spacing" textLength="85.4167" x="235.4167" y="452.182">HouseNumberSupplement</text></g><!--MD5=[96b3cf7be3ca839081af2b043f0dbdf0]
reverse link LegalEntity to Address--><g id="link_LegalEntity_Address"><path codeLine="131" d="M129.3438,76.8437 C131.3333,85.9635 134.5104,95.9792 139.5833,104.1667 C143.724,110.849 149.0833,117.099 154.849,122.7396 " fill="none" id="LegalEntity-backto-Address" style="stroke:#181818;stroke-width:0.5208333333333334;"/><polygon fill="none" points="128.0417,70.0885,126.59,73.5524,129.2291,76.2247,130.6808,72.7608,128.0417,70.0885" style="stroke:#181818;stroke-width:0.5208333333333334;"/><text fill="#000000" font-family="sans-serif" font-size="6.7708" lengthAdjust="spacing" textLength="47.9167" x="140.1042" y="102.3412">LegalEntityBPN</text><text fill="#000000" font-family="sans-serif" font-size="6.7708" lengthAdjust="spacing" textLength="3.6458" x="124.4274" y="81.3511">1</text><text fill="#000000" font-family="sans-serif" font-size="6.7708" lengthAdjust="spacing" textLength="10.4167" x="140.3183" y="118.3647">1..*</text></g><!--MD5=[51c9a53bad0c1fb11ddd3126427e8464]
reverse link Site to Address--><g id="link_Site_Address"><path codeLine="132" d="M191.9583,77.0208 C192.6198,89.974 193.4323,105.7917 194.1406,119.599 " fill="none" id="Site-backto-Address" style="stroke:#181818;stroke-width:0.5208333333333334;"/><polygon fill="none" points="191.6042,70.1458,189.6814,73.3721,191.92,76.3878,193.8428,73.1615,191.6042,70.1458" style="stroke:#181818;stroke-width:0.5208333333333334;"/><text fill="#000000" font-family="sans-serif" font-size="6.7708" lengthAdjust="spacing" textLength="26.0417" x="193.75" y="102.3412">SiteBPN</text><text fill="#000000" font-family="sans-serif" font-size="6.7708" lengthAdjust="spacing" textLength="11.4583" x="179.2997" y="81.4186">0..1</text><text fill="#000000" font-family="sans-serif" font-size="6.7708" lengthAdjust="spacing" textLength="10.4167" x="182.9692" y="114.1804">1..*</text></g><!--MD5=[16df14ae410fd03c961315f1948ba22b]
reverse link AddressType to Address--><g id="link_AddressType_Address"><path codeLine="134" d="M245.224,84.776 C237.0365,96.026 227.9271,108.5365 219.7813,119.7188 " fill="none" id="AddressType-backto-Address" style="stroke:#181818;stroke-width:0.5208333333333334;"/><polygon fill="none" points="249.2865,79.1979,245.7627,80.4976,245.6071,84.2501,249.1309,82.9505,249.2865,79.1979" style="stroke:#181818;stroke-width:0.5208333333333334;"/><text fill="#000000" font-family="sans-serif" font-size="6.7708" lengthAdjust="spacing" textLength="14.5833" x="237.5" y="102.3412">Type</text><text fill="#000000" font-family="sans-serif" font-size="6.7708" lengthAdjust="spacing" textLength="3.6458" x="242.6403" y="90.637">1</text><text fill="#000000" font-family="sans-serif" font-size="6.7708" lengthAdjust="spacing" textLength="2.6042" x="219.7955" y="114.0789">*</text></g><!--MD5=[ddd17e04bfc6bfd77dbdc696bc0fde08]
link AddressState to Address--><g id="link_AddressState_Address"><path codeLine="136" d="M115.6823,153.125 C125.9375,153.125 148.4792,153.125 148.4792,153.125 " fill="none" id="AddressState-Address" style="stroke:#181818;stroke-width:0.5208333333333334;"/><polygon fill="#181818" points="154.7292,153.125,151.6042,151.0417,148.4792,153.125,151.6042,155.2083,154.7292,153.125" style="stroke:#181818;stroke-width:0.5208333333333334;"/><polygon fill="#181818" points="108.7448,153.125,113.4323,155.2083,111.349,153.125,113.4323,151.0417,108.7448,153.125" style="stroke:#181818;stroke-width:0.5208333333333334;"/><line style="stroke:#181818;stroke-width:0.5208333333333334;" x1="111.349" x2="115.5156" y1="153.125" y2="153.125"/><text fill="#000000" font-family="sans-serif" font-size="6.7708" lengthAdjust="spacing" textLength="19.7917" x="121.875" y="149.737">States</text><text fill="#000000" font-family="sans-serif" font-size="6.7708" lengthAdjust="spacing" textLength="2.6042" x="112.8348" y="151.291">*</text><text fill="#000000" font-family="sans-serif" font-size="6.7708" lengthAdjust="spacing" textLength="3.6458" x="147.126" y="151.4436">1</text></g><!--MD5=[ab4d24f285ec54f66348382ace72e25f]
link AddressState to AddressStateType--><g id="link_AddressState_AddressStateType"><path codeLine="137" d="M73.901,172.6875 C69.1719,194.0104 61.4844,228.6823 56.224,252.4063 " fill="none" id="AddressState-to-AddressStateType" style="stroke:#181818;stroke-width:0.5208333333333334;"/><polygon fill="none" points="54.7448,259.0833,57.4555,256.4837,56.0984,252.9817,53.3877,255.5813,54.7448,259.0833" style="stroke:#181818;stroke-width:0.5208333333333334;"/><text fill="#000000" font-family="sans-serif" font-size="6.7708" lengthAdjust="spacing" textLength="14.5833" x="67.1875" y="209.6329">Type</text><text fill="#000000" font-family="sans-serif" font-size="6.7708" lengthAdjust="spacing" textLength="2.6042" x="70.3125" y="183.9491">*</text><text fill="#000000" font-family="sans-serif" font-size="6.7708" lengthAdjust="spacing" textLength="3.6458" x="51.5417" y="253.41">1</text></g><!--MD5=[1e58d2e1facd806da0c9fb4f31d9cbdf]
link Address to AddressIdentifier--><g id="link_Address_AddressIdentifier"><path codeLine="139" d="M243.0677,153.125 C243.0677,153.125 287.9844,153.125 307.9635,153.125 " fill="none" id="Address-AddressIdentifier" style="stroke:#181818;stroke-width:0.5208333333333334;"/><polygon fill="#181818" points="314.8594,153.125,310.1719,151.0417,312.2552,153.125,310.1719,155.2083,314.8594,153.125" style="stroke:#181818;stroke-width:0.5208333333333334;"/><line style="stroke:#181818;stroke-width:0.5208333333333334;" x1="312.2552" x2="308.0885" y1="153.125" y2="153.125"/><polygon fill="#181818" points="236.8177,153.125,239.9427,155.2083,243.0677,153.125,239.9427,151.0417,236.8177,153.125" style="stroke:#181818;stroke-width:0.5208333333333334;"/><text fill="#000000" font-family="sans-serif" font-size="6.7708" lengthAdjust="spacing" textLength="28.6458" x="261.5885" y="149.737">Identifiers</text><text fill="#000000" font-family="sans-serif" font-size="6.7708" lengthAdjust="spacing" textLength="3.6458" x="240.8978" y="151.4308">1</text><text fill="#000000" font-family="sans-serif" font-size="6.7708" lengthAdjust="spacing" textLength="2.6042" x="308.3896" y="151.4106">*</text></g><!--MD5=[8d5ce1765856d032faf7ab84f4e1a9db]
link AddressIdentifier to IdentifierType--><g id="link_AddressIdentifier_IdentifierType"><path codeLine="140" d="M352.7708,168.4115 C355.0417,187.7813 359.0781,222.2448 362.026,247.3906 " fill="none" id="AddressIdentifier-to-IdentifierType" style="stroke:#181818;stroke-width:0.5208333333333334;"/><polygon fill="none" points="362.8229,254.2188,364.5281,250.8724,362.095,248.0113,360.3898,251.3576,362.8229,254.2188" style="stroke:#181818;stroke-width:0.5208333333333334;"/><text fill="#000000" font-family="sans-serif" font-size="6.7708" lengthAdjust="spacing" textLength="14.5833" x="357.8125" y="209.6329">Type</text><text fill="#000000" font-family="sans-serif" font-size="6.7708" lengthAdjust="spacing" textLength="2.6042" x="350.2481" y="179.1853">*</text><text fill="#000000" font-family="sans-serif" font-size="6.7708" lengthAdjust="spacing" textLength="3.6458" x="358.4978" y="248.7344">1</text></g><!--MD5=[126d4780b65d540158e53accfdb13dc6]
link Address to AlternativePostalAddress--><g id="link_Address_AlternativePostalAddress"><path codeLine="142" d="M171.2708,186.5417 C168.4271,191.5469 165.8958,196.8125 164.0625,202.0833 C157.9531,219.6563 156.5052,240.8229 156.4479,256.3542 " fill="none" id="Address-to-AlternativePostalAddress" style="stroke:#181818;stroke-width:0.5208333333333334;"/><polygon fill="#181818" points="156.4531,258.9948,158.5365,254.3073,156.4531,256.3906,154.3698,254.3073,156.4531,258.9948" style="stroke:#181818;stroke-width:0.5208333333333334;"/><text fill="#000000" font-family="sans-serif" font-size="6.7708" lengthAdjust="spacing" textLength="75.5208" x="164.5833" y="209.6329">AlternativePostalAddress</text><text fill="#000000" font-family="sans-serif" font-size="6.7708" lengthAdjust="spacing" textLength="3.6458" x="164.7391" y="197.6897">1</text><text fill="#000000" font-family="sans-serif" font-size="6.7708" lengthAdjust="spacing" textLength="11.4583" x="143.8249" y="253.4538">0..1</text></g><!--MD5=[3fce465a2f553ed0741c358e9d51d127]
link AlternativePostalAddress to DeliveryServiceType--><g id="link_AlternativePostalAddress_DeliveryServiceType"><path codeLine="143" d="M138.1823,298.2604 C126.6875,310.7865 112.6823,328.0885 104.1667,345.8333 C98.7396,357.1458 95.2188,370.4792 92.9583,382.2552 " fill="none" id="AlternativePostalAddress-to-DeliveryServiceType" style="stroke:#181818;stroke-width:0.5208333333333334;"/><polygon fill="none" points="91.7708,388.9792,94.3681,386.2662,92.8629,382.8253,90.2656,385.5382,91.7708,388.9792" style="stroke:#181818;stroke-width:0.5208333333333334;"/><text fill="#000000" font-family="sans-serif" font-size="6.7708" lengthAdjust="spacing" textLength="59.8958" x="104.6875" y="353.3829">DeliveryServiceType</text><text fill="#000000" font-family="sans-serif" font-size="6.7708" lengthAdjust="spacing" textLength="2.6042" x="131.9423" y="309.5313">*</text><text fill="#000000" font-family="sans-serif" font-size="6.7708" lengthAdjust="spacing" textLength="3.6458" x="88.2606" y="383.3361">1</text></g><!--MD5=[59fa016e89b95f881fa8289e72d2b5aa]
link AlternativePostalAddress to PostalAddress--><g id="link_AlternativePostalAddress_PostalAddress"><path codeLine="144" d="M160.7969,298.3073 C164.8698,320.5313 171.6354,357.4323 176.375,383.3125 " fill="none" id="AlternativePostalAddress-to-PostalAddress" style="stroke:#181818;stroke-width:0.5208333333333334;"/><polygon fill="none" points="179.9792,382.75,178.2708,393.6563,172.8073,384.0677,179.9792,382.75" style="stroke:#181818;stroke-width:0.5208333333333334;"/></g><!--MD5=[a47da37cd506f50d80cb6afb7784fe60]
link Address to PhysicalPostalAddress--><g id="link_Address_PhysicalPostalAddress"><path codeLine="146" d="M231.0469,186.5365 C235.3125,191.4896 239.3438,196.7344 242.7083,202.0833 C247.0885,209.0469 250.9375,216.7969 254.2656,224.6042 " fill="none" id="Address-to-PhysicalPostalAddress" style="stroke:#181818;stroke-width:0.5208333333333334;"/><polygon fill="#181818" points="255.2813,227.0313,255.3823,221.9026,254.2707,224.6312,251.5422,223.5195,255.2813,227.0313" style="stroke:#181818;stroke-width:0.5208333333333334;"/><text fill="#000000" font-family="sans-serif" font-size="6.7708" lengthAdjust="spacing" textLength="70.3125" x="247.3958" y="209.6329">PhysicalPostalAddress</text><text fill="#000000" font-family="sans-serif" font-size="6.7708" lengthAdjust="spacing" textLength="3.6458" x="231.0531" y="197.684">1</text><text fill="#000000" font-family="sans-serif" font-size="6.7708" lengthAdjust="spacing" textLength="3.6458" x="250.3051" y="221.4532">1</text></g><!--MD5=[f94830dfdb1f80035e1439f9296d394d]
link PhysicalPostalAddress to Street--><g id="link_PhysicalPostalAddress_Street"><path codeLine="147" d="M273.6198,330.2448 C274.3021,342.7083 275.026,355.9479 275.6875,368.0833 " fill="none" id="PhysicalPostalAddress-to-Street" style="stroke:#181818;stroke-width:0.5208333333333334;"/><polygon fill="#181818" points="275.8333,370.8177,277.6459,366.019,275.6848,368.2178,273.486,366.2567,275.8333,370.8177" style="stroke:#181818;stroke-width:0.5208333333333334;"/><text fill="#000000" font-family="sans-serif" font-size="6.7708" lengthAdjust="spacing" textLength="18.2292" x="275" y="353.3829">Street</text><text fill="#000000" font-family="sans-serif" font-size="6.7708" lengthAdjust="spacing" textLength="3.6458" x="270.0507" y="341.7146">1</text><text fill="#000000" font-family="sans-serif" font-size="6.7708" lengthAdjust="spacing" textLength="11.4583" x="263.6356" y="365.2164">0..1</text></g><!--MD5=[f7cef7787dcbc8b46ecd954e66b15ffa]
link PhysicalPostalAddress to PostalAddress--><g id="link_PhysicalPostalAddress_PostalAddress"><path codeLine="148" d="M236.7813,330.2448 C224.3854,348.8385 210.8385,369.1615 200.2917,384.9792 " fill="none" id="PhysicalPostalAddress-to-PostalAddress" style="stroke:#181818;stroke-width:0.5208333333333334;"/><polygon fill="none" points="203.2708,387.0833,194.4583,393.7292,197.2031,383.0417,203.2708,387.0833" style="stroke:#181818;stroke-width:0.5208333333333334;"/></g><!--MD5=[950b2b12a5f19a61bd12eba8eaec9ba6]
link PostalAddress to Country--><g id="link_PostalAddress_Country"><path codeLine="150" d="M166.3698,432.8281 C153.0625,449.2656 133.5625,473.3646 117.8906,492.7188 " fill="none" id="PostalAddress-to-Country" style="stroke:#181818;stroke-width:0.5208333333333334;"/><polygon fill="none" points="113.5833,498.0469,117.1687,496.9284,117.5152,493.1886,113.9299,494.3071,113.5833,498.0469" style="stroke:#181818;stroke-width:0.5208333333333334;"/><text fill="#000000" font-family="sans-serif" font-size="6.7708" lengthAdjust="spacing" textLength="23.4375" x="134.375" y="478.9037">Country</text><text fill="#000000" font-family="sans-serif" font-size="6.7708" lengthAdjust="spacing" textLength="2.6042" x="160.7904" y="444.087">*</text><text fill="#000000" font-family="sans-serif" font-size="6.7708" lengthAdjust="spacing" textLength="3.6458" x="117.7192" y="491.195">1</text></g><!--MD5=[73908cffc2f00ca2856e32856f891363]
link PostalAddress to AdministrativeAreaLevel1--><g id="link_PostalAddress_AdministrativeAreaLevel1"><path codeLine="151" d="M181.7708,432.8281 C181.7708,449.5625 181.7708,474.2292 181.7708,493.7552 " fill="none" id="PostalAddress-to-AdministrativeAreaLevel1" style="stroke:#181818;stroke-width:0.5208333333333334;"/><polygon fill="none" points="181.7708,500.6927,183.8542,497.5677,181.7708,494.4427,179.6875,497.5677,181.7708,500.6927" style="stroke:#181818;stroke-width:0.5208333333333334;"/><text fill="#000000" font-family="sans-serif" font-size="6.7708" lengthAdjust="spacing" textLength="75" x="182.2917" y="478.9037">AdministrativeAreaLevel1</text><text fill="#000000" font-family="sans-serif" font-size="6.7708" lengthAdjust="spacing" textLength="2.6042" x="178.9347" y="444.087">*</text><text fill="#000000" font-family="sans-serif" font-size="6.7708" lengthAdjust="spacing" textLength="11.4583" x="169.4352" y="495.0489">0..1</text></g><!--MD5=[bca9d6b79aea0d9eff039a55658d1b6d]
link PostalAddress to GeographicCoordinates--><g id="link_PostalAddress_GeographicCoordinates"><path codeLine="152" d="M197.599,432.849 C204.8594,440.7031 213.9531,449.4219 223.4375,455.7292 C238.8281,465.9635 247.6146,459.724 261.9792,471.3542 C270.9948,478.651 278.625,488.8073 284.5,498.2865 " fill="none" id="PostalAddress-to-GeographicCoordinates" style="stroke:#181818;stroke-width:0.5208333333333334;"/><polygon fill="#181818" points="285.9583,500.6823,285.3007,495.595,284.6043,498.4578,281.7415,497.7615,285.9583,500.6823" style="stroke:#181818;stroke-width:0.5208333333333334;"/><text fill="#000000" font-family="sans-serif" font-size="6.7708" lengthAdjust="spacing" textLength="70.3125" x="270.8333" y="478.9037">GeographicCoordinates</text><text fill="#000000" font-family="sans-serif" font-size="6.7708" lengthAdjust="spacing" textLength="3.6458" x="196.4478" y="444.1115">1</text><text fill="#000000" font-family="sans-serif" font-size="6.7708" lengthAdjust="spacing" textLength="11.4583" x="271.9021" y="495.214">0..1</text></g><!--MD5=[e0052db7ed6d83b284dd2c6195a1bb2f]
@startuml address

skinparam dpi 50

package "Address and References" {
  entity LegalEntity {
    BPNL
    ...
  }
  
  entity Site {
    BPNS
    ...
  }
  
  entity Address {
    BPNA
    Name
    IsCatenaXMemberData
    CreatedAt
    UpdateAt
  }

  enum AddressType {
    LegalAddress
    SiteMainAddress
    LegalAndSiteMainAddress
    AdditionalAddress
  }

  class AddressState {
    ValidFrom
    ValidTo
  }

  enum AddressStateType{
    Active
    Inactive
  }

  class AddressIdentifier{
    Value
  }

  entity IdentifierType {
    TechnicalKey
    Name
    ...
  }

  class AlternativePostalAddress{
    DeliveryServiceQualifier
    DeliveryServiceNumber
  }

  enum DeliveryServiceType {
    POBox
    PrivateBag
    BoitePostale
  }

  class PhysicalPostalAddress{
    AdministrativeAreaLevel2
    AdministrativeAreaLevel3
    District
    CompanyPostalCode
    TaxJurisdictionCode
    IndustrialZone
    Building
    Floor
    Door 
  }

  abstract class PostalAddress{
    PostalCode
    City
  }

  enum Country {
    DE
    FR
    US
    ...
  }

  entity AdministrativeAreaLevel1{
    Code
    Name
    ...
  }

  class GeographicCoordinates {
    Latitude
    Longitude
    Altitude
  }

  class Street {
    NamePrefix
    AdditionalNamePrefix
    Name
    NameSuffix
    AdditionalNameSuffix
    HouseNumber
    HouseNumberSupplement
  }

  ' not standardized yet
  ' class ConfidenceCriteria {
  '   SharedByOwner
  '   CheckedByExternalSource
  '   NumberOfSharingMembers
  '   LastConfidenceCheckAt
  '   NextConfidenceCheckAt
  '   ConfidenceLevel
  ' }

  ' not implemented / standardized yet
  ' class AddressScriptVariant {
  '   Name
  ' }

  ' enum ScriptCode {
  '   Arab
  '   Cyrl
  '   Hans
  '   Jpan
  '   Latn
  '   ...
  ' }

  Address "1..*" -u-o "1" LegalEntity : LegalEntityBPN
  Address "1..*" -u-o "0..1" Site: SiteBPN

  Address "*" -u-o "1" AddressType : Type

  Address "1" *-l-> "*" AddressState : States
  AddressState "*" -d-o "1" AddressStateType : Type

  Address "1" *-r-> "*" AddressIdentifier : Identifiers
  AddressIdentifier "*" -d-o "1" IdentifierType : Type
  
  Address "1" -d-> "0..1" AlternativePostalAddress : AlternativePostalAddress
  AlternativePostalAddress "*" -d-o "1" DeliveryServiceType : DeliveryServiceType
  AlternativePostalAddress -d-|> PostalAddress
  
  Address "1" -d-> "1" PhysicalPostalAddress : PhysicalPostalAddress
  PhysicalPostalAddress "1" -d-> "0..1" Street : Street
  PhysicalPostalAddress -d-|> PostalAddress
  
  PostalAddress "*" -d-o "1" Country : Country
  PostalAddress "*" -d-o "0..1" AdministrativeAreaLevel1 : AdministrativeAreaLevel1
  PostalAddress "1" -d-> "0..1" GeographicCoordinates : GeographicCoordinates

  ' not standardized yet
  ' Address "1" -u-> "1" ConfidenceCriteria : ConfidenceCriteria

  ' not implemented / standardized yet
  ' Address "1" *- -> "*" AddressScriptVariant : ScriptVariants
  ' AddressScriptVariant "*" - -o "1" ScriptCode : ScriptCode
  ' AddressScriptVariant "1" -d-> "1" PhysicalPostalAddress : PhysicalPostalAddress
  ' AddressScriptVariant "1" -d-> "0..1" AlternativePostalAddress : AlternativePostalAddress
}

hide methods
@enduml

@startuml address

skinparam dpi 50

package "Address and References" {
  entity LegalEntity {
    BPNL
    ...
  }
  
  entity Site {
    BPNS
    ...
  }
  
  entity Address {
    BPNA
    Name
    IsCatenaXMemberData
    CreatedAt
    UpdateAt
  }

  enum AddressType {
    LegalAddress
    SiteMainAddress
    LegalAndSiteMainAddress
    AdditionalAddress
  }

  class AddressState {
    ValidFrom
    ValidTo
  }

  enum AddressStateType{
    Active
    Inactive
  }

  class AddressIdentifier{
    Value
  }

  entity IdentifierType {
    TechnicalKey
    Name
    ...
  }

  class AlternativePostalAddress{
    DeliveryServiceQualifier
    DeliveryServiceNumber
  }

  enum DeliveryServiceType {
    POBox
    PrivateBag
    BoitePostale
  }

  class PhysicalPostalAddress{
    AdministrativeAreaLevel2
    AdministrativeAreaLevel3
    District
    CompanyPostalCode
    TaxJurisdictionCode
    IndustrialZone
    Building
    Floor
    Door 
  }

  abstract class PostalAddress{
    PostalCode
    City
  }

  enum Country {
    DE
    FR
    US
    ...
  }

  entity AdministrativeAreaLevel1{
    Code
    Name
    ...
  }

  class GeographicCoordinates {
    Latitude
    Longitude
    Altitude
  }

  class Street {
    NamePrefix
    AdditionalNamePrefix
    Name
    NameSuffix
    AdditionalNameSuffix
    HouseNumber
    HouseNumberSupplement
  }




  Address "1..*" -u-o "1" LegalEntity : LegalEntityBPN
  Address "1..*" -u-o "0..1" Site: SiteBPN

  Address "*" -u-o "1" AddressType : Type

  Address "1" *-l-> "*" AddressState : States
  AddressState "*" -d-o "1" AddressStateType : Type

  Address "1" *-r-> "*" AddressIdentifier : Identifiers
  AddressIdentifier "*" -d-o "1" IdentifierType : Type
  
  Address "1" -d-> "0..1" AlternativePostalAddress : AlternativePostalAddress
  AlternativePostalAddress "*" -d-o "1" DeliveryServiceType : DeliveryServiceType
  AlternativePostalAddress -d-|> PostalAddress
  
  Address "1" -d-> "1" PhysicalPostalAddress : PhysicalPostalAddress
  PhysicalPostalAddress "1" -d-> "0..1" Street : Street
  PhysicalPostalAddress -d-|> PostalAddress
  
  PostalAddress "*" -d-o "1" Country : Country
  PostalAddress "*" -d-o "0..1" AdministrativeAreaLevel1 : AdministrativeAreaLevel1
  PostalAddress "1" -d-> "0..1" GeographicCoordinates : GeographicCoordinates


}

hide methods
@enduml

PlantUML version 1.2022.5(Sat Apr 30 12:55:52 CEST 2022)
(GPL source distribution)
Java Runtime: OpenJDK Runtime Environment
JVM: OpenJDK 64-Bit Server VM
Default Encoding: Cp1252
Language: en
Country: GB
--></g></svg>