<?xml version="1.0" encoding="us-ascii" standalone="no"?><svg xmlns="http://www.w3.org/2000/svg" xmlns:xlink="http://www.w3.org/1999/xlink" contentStyleType="text/css" height="82.2917px" preserveAspectRatio="none" style="width:110px;height:82px;background:#FFFFFF;" version="1.1" viewBox="0 0 110 82" width="110.9375px" zoomAndPan="magnify"><defs/><g><!--cluster Business Partner Type--><g id="cluster_Business Partner Type"><path d="M4.4271,3.125 L87.2396,3.125 A1.9531,1.9531 0 0 1 88.5417,4.4271 L92.1875,15.4215 L105.9896,15.4215 A1.3021,1.3021 0 0 1 107.2917,16.7236 L107.2917,77.3438 A1.3021,1.3021 0 0 1 105.9896,78.6458 L4.4271,78.6458 A1.3021,1.3021 0 0 1 3.125,77.3438 L3.125,4.4271 A1.3021,1.3021 0 0 1 4.4271,3.125 " fill="none" style="stroke:#000000;stroke-width:0.78125;"/><line style="stroke:#000000;stroke-width:0.78125;" x1="3.125" x2="92.1875" y1="15.4215" y2="15.4215"/><text fill="#000000" font-family="sans-serif" font-size="7.2917" font-weight="bold" lengthAdjust="spacing" textLength="82.2917" x="5.2083" y="11.736">Business Partner Type</text></g><!--class BusinessPartnerType--><g id="elem_BusinessPartnerType"><rect codeLine="6" fill="#F1F1F1" height="48.348" id="BusinessPartnerType" rx="1.3021" ry="1.3021" style="stroke:#181818;stroke-width:0.2604166666666667;" width="87.5" x="11.4583" y="21.875"/><ellipse cx="19.2708" cy="30.2083" fill="#EB937F" rx="5.7292" ry="5.7292" style="stroke:#181818;stroke-width:0.5208333333333334;"/><path d="M18.6768,30.6234 L18.6768,31.9255 L20.931,31.9255 L20.931,31.4453 Q20.931,31.1279 21.0531,30.9896 Q21.1833,30.8512 21.3786,30.8512 Q21.5739,30.8512 21.696,30.9896 Q21.818,31.1279 21.818,31.4453 L21.818,32.8125 L17.6514,32.8125 Q17.3258,32.8125 17.1875,32.6904 Q17.0573,32.5684 17.0573,32.3649 Q17.0573,32.1696 17.1956,32.0475 Q17.334,31.9255 17.6514,31.9255 L17.7897,31.9255 L17.7897,28.4587 L17.6514,28.4587 Q17.3258,28.4587 17.1875,28.3366 Q17.0573,28.2145 17.0573,28.0111 Q17.0573,27.8158 17.1875,27.6937 Q17.3258,27.5716 17.6514,27.5716 L21.6227,27.5716 L21.6227,28.9225 Q21.6227,29.2399 21.5007,29.3783 Q21.3867,29.5085 21.1833,29.5085 Q20.988,29.5085 20.8659,29.3783 Q20.7438,29.2399 20.7438,28.9225 L20.7438,28.4587 L18.6768,28.4587 L18.6768,29.7363 L19.4499,29.7363 Q19.4499,29.3945 19.515,29.2969 Q19.6533,29.0853 19.8975,29.0853 Q20.0928,29.0853 20.2148,29.2236 Q20.3369,29.3538 20.3369,29.6712 L20.3369,30.6966 Q20.3369,30.9814 20.2718,31.0791 Q20.1335,31.2826 19.8975,31.2826 Q19.6533,31.2826 19.515,31.071 Q19.4499,30.9733 19.4499,30.6234 L18.6768,30.6234 Z " fill="#000000"/><text fill="#000000" font-family="sans-serif" font-size="7.2917" lengthAdjust="spacing" textLength="70.8333" x="26.5625" y="33.1919">BusinessPartnerType</text><line style="stroke:#181818;stroke-width:0.2604166666666667;" x1="11.9792" x2="98.4375" y1="38.5417" y2="38.5417"/><text fill="#000000" font-family="sans-serif" font-size="7.2917" lengthAdjust="spacing" textLength="57.2917" x="14.5833" y="48.1944">LEGALE_ENTITY</text><text fill="#000000" font-family="sans-serif" font-size="7.2917" lengthAdjust="spacing" textLength="15.625" x="14.5833" y="57.3659">SITE</text><text fill="#000000" font-family="sans-serif" font-size="7.2917" lengthAdjust="spacing" textLength="34.375" x="14.5833" y="66.5375">ADDRESS</text></g><!--SRC=[AyxEp2j8B4hCLKWfo5GmDU3YAaXCpavCJrLGSYejpinBBIvM24WiAibBBL88gIn8LLAevk9IK4ZDAyrLW2c0oeEaWR8AGE3ZwkxeunhlwXVY6H895Wds3745CnnTN89SWuE1x5gkMYwkZCoKL8NSr9AC_9HY0000]--></g></svg>