<?xml version="1.0" encoding="us-ascii" standalone="no"?><svg xmlns="http://www.w3.org/2000/svg" xmlns:xlink="http://www.w3.org/1999/xlink" contentStyleType="text/css" height="210.4167px" preserveAspectRatio="none" style="width:198px;height:210px;background:#FFFFFF;" version="1.1" viewBox="0 0 198 210" width="198.9583px" zoomAndPan="magnify"><defs/><g><!--cluster Changelog Entry and References--><g id="cluster_Changelog Entry and References"><path d="M4.4271,3.125 L125.7813,3.125 A1.9531,1.9531 0 0 1 127.0833,4.4271 L130.7292,15.4215 L194.0104,15.4215 A1.3021,1.3021 0 0 1 195.3125,16.7236 L195.3125,205.4688 A1.3021,1.3021 0 0 1 194.0104,206.7708 L4.4271,206.7708 A1.3021,1.3021 0 0 1 3.125,205.4688 L3.125,4.4271 A1.3021,1.3021 0 0 1 4.4271,3.125 " fill="none" style="stroke:#000000;stroke-width:0.78125;"/><line style="stroke:#000000;stroke-width:0.78125;" x1="3.125" x2="130.7292" y1="15.4215" y2="15.4215"/><text fill="#000000" font-family="sans-serif" font-size="7.2917" font-weight="bold" lengthAdjust="spacing" textLength="120.8333" x="5.2083" y="11.736">Changelog Entry and References</text></g><!--class BusinessPartner--><g id="elem_BusinessPartner"><rect codeLine="5" fill="#F1F1F1" height="16.6667" id="BusinessPartner" rx="1.3021" ry="1.3021" style="stroke:#181818;stroke-width:0.2604166666666667;" width="70.8333" x="60.9375" y="21.875"/><ellipse cx="68.75" cy="30.2083" fill="#A9DCDF" rx="5.7292" ry="5.7292" style="stroke:#181818;stroke-width:0.5208333333333334;"/><path d="M69.8893,31.1279 L67.7327,31.1279 L67.513,31.665 L67.7327,31.665 Q68.0501,31.665 68.1885,31.7871 Q68.3268,31.9092 68.3268,32.1126 Q68.3268,32.3079 68.1885,32.43 Q68.0501,32.5521 67.7327,32.5521 L66.5365,32.5521 Q66.2191,32.5521 66.0889,32.43 Q65.9505,32.3079 65.9505,32.1045 Q65.9505,31.9092 66.097,31.7871 Q66.2354,31.6569 66.5609,31.665 L67.9525,28.1982 L67.3747,28.1982 Q67.0573,28.1982 66.9189,28.0762 Q66.7806,27.9541 66.7806,27.7507 Q66.7806,27.5553 66.9189,27.4333 Q67.0573,27.3112 67.3747,27.3112 L69.2871,27.3112 L71.0531,31.665 Q71.3623,31.665 71.46,31.7383 Q71.6634,31.8766 71.6634,32.1126 Q71.6634,32.3079 71.5251,32.43 Q71.3949,32.5521 71.0775,32.5521 L69.8812,32.5521 Q69.5638,32.5521 69.4255,32.43 Q69.2871,32.3079 69.2871,32.1045 Q69.2871,31.9092 69.4255,31.7871 Q69.5638,31.665 69.8812,31.665 L70.1009,31.665 L69.8893,31.1279 Z M69.515,30.2409 L68.807,28.4831 L68.0908,30.2409 L69.515,30.2409 Z " fill="#000000"/><text fill="#000000" font-family="sans-serif" font-size="7.2917" font-style="italic" lengthAdjust="spacing" textLength="54.1667" x="76.0417" y="33.1919">BusinessPartner</text></g><!--class ChangelogEntry--><g id="elem_ChangelogEntry"><rect codeLine="7" fill="#F1F1F1" height="30.0049" id="ChangelogEntry" rx="1.3021" ry="1.3021" style="stroke:#181818;stroke-width:0.2604166666666667;" width="69.7917" x="61.4583" y="79.1667"/><ellipse cx="69.2708" cy="87.5" fill="#ADD1B2" rx="5.7292" ry="5.7292" style="stroke:#181818;stroke-width:0.5208333333333334;"/><path d="M68.6768,87.915 L68.6768,89.2171 L70.931,89.2171 L70.931,88.737 Q70.931,88.4196 71.0531,88.2813 Q71.1833,88.1429 71.3786,88.1429 Q71.5739,88.1429 71.696,88.2813 Q71.818,88.4196 71.818,88.737 L71.818,90.1042 L67.6514,90.1042 Q67.3258,90.1042 67.1875,89.9821 Q67.0573,89.86 67.0573,89.6566 Q67.0573,89.4613 67.1956,89.3392 Q67.334,89.2171 67.6514,89.2171 L67.7897,89.2171 L67.7897,85.7503 L67.6514,85.7503 Q67.3258,85.7503 67.1875,85.6283 Q67.0573,85.5062 67.0573,85.3027 Q67.0573,85.1074 67.1875,84.9854 Q67.3258,84.8633 67.6514,84.8633 L71.6227,84.8633 L71.6227,86.2142 Q71.6227,86.5316 71.5007,86.6699 Q71.3867,86.8001 71.1833,86.8001 Q70.988,86.8001 70.8659,86.6699 Q70.7438,86.5316 70.7438,86.2142 L70.7438,85.7503 L68.6768,85.7503 L68.6768,87.028 L69.4499,87.028 Q69.4499,86.6862 69.515,86.5885 Q69.6533,86.377 69.8975,86.377 Q70.0928,86.377 70.2148,86.5153 Q70.3369,86.6455 70.3369,86.9629 L70.3369,87.9883 Q70.3369,88.2731 70.2718,88.3708 Q70.1335,88.5742 69.8975,88.5742 Q69.6533,88.5742 69.515,88.3626 Q69.4499,88.265 69.4499,87.915 L68.6768,87.915 Z " fill="#000000"/><text fill="#000000" font-family="sans-serif" font-size="7.2917" lengthAdjust="spacing" textLength="53.125" x="76.5625" y="90.4836">ChangelogEntry</text><line style="stroke:#181818;stroke-width:0.2604166666666667;" x1="61.9792" x2="130.7292" y1="95.8333" y2="95.8333"/><text fill="#000000" font-family="sans-serif" font-size="7.2917" lengthAdjust="spacing" textLength="35.9375" x="64.5833" y="105.486">Timestamp</text></g><!--class BusinessPartnerType--><g id="elem_BusinessPartnerType"><rect codeLine="11" fill="#F1F1F1" height="48.348" id="BusinessPartnerType" rx="1.3021" ry="1.3021" style="stroke:#181818;stroke-width:0.2604166666666667;" width="87.5" x="11.4583" y="150"/><ellipse cx="19.2708" cy="158.3333" fill="#EB937F" rx="5.7292" ry="5.7292" style="stroke:#181818;stroke-width:0.5208333333333334;"/><path d="M18.6768,158.7484 L18.6768,160.0505 L20.931,160.0505 L20.931,159.5703 Q20.931,159.2529 21.0531,159.1146 Q21.1833,158.9762 21.3786,158.9762 Q21.5739,158.9762 21.696,159.1146 Q21.818,159.2529 21.818,159.5703 L21.818,160.9375 L17.6514,160.9375 Q17.3258,160.9375 17.1875,160.8154 Q17.0573,160.6934 17.0573,160.4899 Q17.0573,160.2946 17.1956,160.1725 Q17.334,160.0505 17.6514,160.0505 L17.7897,160.0505 L17.7897,156.5837 L17.6514,156.5837 Q17.3258,156.5837 17.1875,156.4616 Q17.0573,156.3395 17.0573,156.1361 Q17.0573,155.9408 17.1875,155.8187 Q17.3258,155.6966 17.6514,155.6966 L21.6227,155.6966 L21.6227,157.0475 Q21.6227,157.3649 21.5007,157.5033 Q21.3867,157.6335 21.1833,157.6335 Q20.988,157.6335 20.8659,157.5033 Q20.7438,157.3649 20.7438,157.0475 L20.7438,156.5837 L18.6768,156.5837 L18.6768,157.8613 L19.4499,157.8613 Q19.4499,157.5195 19.515,157.4219 Q19.6533,157.2103 19.8975,157.2103 Q20.0928,157.2103 20.2148,157.3486 Q20.3369,157.4788 20.3369,157.7962 L20.3369,158.8216 Q20.3369,159.1064 20.2718,159.2041 Q20.1335,159.4076 19.8975,159.4076 Q19.6533,159.4076 19.515,159.196 Q19.4499,159.0983 19.4499,158.7484 L18.6768,158.7484 Z " fill="#000000"/><text fill="#000000" font-family="sans-serif" font-size="7.2917" lengthAdjust="spacing" textLength="70.8333" x="26.5625" y="161.3169">BusinessPartnerType</text><line style="stroke:#181818;stroke-width:0.2604166666666667;" x1="11.9792" x2="98.4375" y1="166.6667" y2="166.6667"/><text fill="#000000" font-family="sans-serif" font-size="7.2917" lengthAdjust="spacing" textLength="57.2917" x="14.5833" y="176.3194">LEGALE_ENTITY</text><text fill="#000000" font-family="sans-serif" font-size="7.2917" lengthAdjust="spacing" textLength="15.625" x="14.5833" y="185.4909">SITE</text><text fill="#000000" font-family="sans-serif" font-size="7.2917" lengthAdjust="spacing" textLength="34.375" x="14.5833" y="194.6625">ADDRESS</text></g><!--class ChangelogType--><g id="elem_ChangelogType"><rect codeLine="17" fill="#F1F1F1" height="39.1764" id="ChangelogType" rx="1.3021" ry="1.3021" style="stroke:#181818;stroke-width:0.2604166666666667;" width="69.2708" x="117.4479" y="154.6875"/><ellipse cx="125.2604" cy="163.0208" fill="#EB937F" rx="5.7292" ry="5.7292" style="stroke:#181818;stroke-width:0.5208333333333334;"/><path d="M124.6663,163.4359 L124.6663,164.738 L126.9206,164.738 L126.9206,164.2578 Q126.9206,163.9404 127.0426,163.8021 Q127.1729,163.6637 127.3682,163.6637 Q127.5635,163.6637 127.6855,163.8021 Q127.8076,163.9404 127.8076,164.2578 L127.8076,165.625 L123.641,165.625 Q123.3154,165.625 123.1771,165.5029 Q123.0469,165.3809 123.0469,165.1774 Q123.0469,164.9821 123.1852,164.86 Q123.3236,164.738 123.641,164.738 L123.7793,164.738 L123.7793,161.2712 L123.641,161.2712 Q123.3154,161.2712 123.1771,161.1491 Q123.0469,161.027 123.0469,160.8236 Q123.0469,160.6283 123.1771,160.5062 Q123.3154,160.3841 123.641,160.3841 L127.6123,160.3841 L127.6123,161.735 Q127.6123,162.0524 127.4902,162.1908 Q127.3763,162.321 127.1729,162.321 Q126.9775,162.321 126.8555,162.1908 Q126.7334,162.0524 126.7334,161.735 L126.7334,161.2712 L124.6663,161.2712 L124.6663,162.5488 L125.4395,162.5488 Q125.4395,162.207 125.5046,162.1094 Q125.6429,161.8978 125.887,161.8978 Q126.0824,161.8978 126.2044,162.0361 Q126.3265,162.1663 126.3265,162.4837 L126.3265,163.5091 Q126.3265,163.7939 126.2614,163.8916 Q126.123,164.0951 125.887,164.0951 Q125.6429,164.0951 125.5046,163.8835 Q125.4395,163.7858 125.4395,163.4359 L124.6663,163.4359 Z " fill="#000000"/><text fill="#000000" font-family="sans-serif" font-size="7.2917" lengthAdjust="spacing" textLength="52.6042" x="132.5521" y="166.0044">ChangelogType</text><line style="stroke:#181818;stroke-width:0.2604166666666667;" x1="117.9688" x2="186.1979" y1="171.3542" y2="171.3542"/><text fill="#000000" font-family="sans-serif" font-size="7.2917" lengthAdjust="spacing" textLength="29.1667" x="120.5729" y="181.0069">CREATE</text><text fill="#000000" font-family="sans-serif" font-size="7.2917" lengthAdjust="spacing" textLength="28.6458" x="120.5729" y="190.1784">UPDATE</text></g><!--reverse link BusinessPartner to ChangelogEntry--><g id="link_BusinessPartner_ChangelogEntry"><path codeLine="22" d="M96.3542,41.8333 C96.3542,51.9687 96.3542,66.526 96.3542,79.1146 " fill="none" id="BusinessPartner-backto-ChangelogEntry" style="stroke:#181818;stroke-width:0.5208333333333334;stroke-dasharray:7.0,7.0;"/><polygon fill="#181818" points="96.3542,38.7083,94.2708,43.3958,96.3542,41.3125,98.4375,43.3958,96.3542,38.7083" style="stroke:#181818;stroke-width:0.5208333333333334;"/><text fill="#000000" font-family="sans-serif" font-size="6.7708" lengthAdjust="spacing" textLength="14.0625" x="96.875" y="61.7162">BPN</text><text fill="#000000" font-family="sans-serif" font-size="6.7708" lengthAdjust="spacing" textLength="3.6458" x="92.1273" y="49.8037">1</text><text fill="#000000" font-family="sans-serif" font-size="6.7708" lengthAdjust="spacing" textLength="2.6042" x="93.4652" y="73.6253">*</text></g><!--link ChangelogEntry to BusinessPartnerType--><g id="link_ChangelogEntry_BusinessPartnerType"><path codeLine="24" d="M65.7969,109.4271 C60.0781,113.625 54.8646,118.7865 51.5625,125 C47.5833,132.4844 46.4429,135.3565 47.5419,143.6325 " fill="none" id="ChangelogEntry-to-BusinessPartnerType" style="stroke:#181818;stroke-width:0.5208333333333334;"/><polygon fill="none" points="48.3646,149.8281,50.0184,146.4561,47.5419,143.6325,45.888,147.0046,48.3646,149.8281" style="stroke:#181818;stroke-width:0.5208333333333334;"/><text fill="#000000" font-family="sans-serif" font-size="6.7708" lengthAdjust="spacing" textLength="64.5833" x="52.0833" y="132.5495">BusinessPartnerType</text><text fill="#000000" font-family="sans-serif" font-size="6.7708" lengthAdjust="spacing" textLength="2.6042" x="56.6217" y="120.481">*</text><text fill="#000000" font-family="sans-serif" font-size="6.7708" lengthAdjust="spacing" textLength="3.6458" x="43.4458" y="144.3492">1</text></g><!--link ChangelogEntry to ChangelogType--><g id="link_ChangelogEntry_ChangelogType"><path codeLine="25" d="M107.7135,109.4167 C111.4531,114.3281 115.5938,119.8594 119.2708,125 C126.151,134.6198 130.0671,140.3187 136.088,149.3603 " fill="none" id="ChangelogEntry-to-ChangelogType" style="stroke:#181818;stroke-width:0.5208333333333334;"/><polygon fill="none" points="139.5521,154.5625,139.5541,150.8067,136.088,149.3603,136.086,153.1161,139.5521,154.5625" style="stroke:#181818;stroke-width:0.5208333333333334;"/><text fill="#000000" font-family="sans-serif" font-size="6.7708" lengthAdjust="spacing" textLength="46.3542" x="126.0417" y="132.5495">ChangelogType</text><text fill="#000000" font-family="sans-serif" font-size="6.7708" lengthAdjust="spacing" textLength="2.6042" x="107.1837" y="120.4684">*</text><text fill="#000000" font-family="sans-serif" font-size="6.7708" lengthAdjust="spacing" textLength="3.6458" x="133.3494" y="149.0206">1</text></g><!--SRC=[XOz1QuD048Nl_efXZu64zj2BXu29Imc48Bezz5GcEjKbsLLsreE4_lSQ3Q7QbC8SPeRtldd39sqRT6YWQ3IyF0L1W_a9ImAnhT2MTAvBaDQx3j0MaD8dER8viO1B0817zWvp3_aPcM7JihR4dA3pbXnS0BvwLLzalVOTt9aZyee0KDeGUpHDS9KFujRCMQfhwARVozTeBp_aGUtK-x39TaeEJHJ7gSoo2UX-ymTYcyhePdbBuh4T7BE0OY5WrQxM89x5h-z2s2I7FqpBOba_CWqPmaVRVpZJByBf7FJPArqG6F9LNV0upFCQCaTo_0q0]--></g></svg>