<?xml version="1.0" encoding="us-ascii" standalone="no"?><svg xmlns="http://www.w3.org/2000/svg" xmlns:xlink="http://www.w3.org/1999/xlink" contentStyleType="text/css" height="287.5px" preserveAspectRatio="none" style="width:294px;height:287px;background:#FFFFFF;" version="1.1" viewBox="0 0 294 287" width="294.7917px" zoomAndPan="magnify"><defs/><g><!--cluster Identifier Type and References--><g id="cluster_Identifier Type and References"><path d="M4.4271,3.125 L117.9688,3.125 A1.9531,1.9531 0 0 1 119.2708,4.4271 L122.9167,15.4215 L289.8438,15.4215 A1.3021,1.3021 0 0 1 291.1458,16.7236 L291.1458,282.5521 A1.3021,1.3021 0 0 1 289.8438,283.8542 L4.4271,283.8542 A1.3021,1.3021 0 0 1 3.125,282.5521 L3.125,4.4271 A1.3021,1.3021 0 0 1 4.4271,3.125 " fill="none" style="stroke:#000000;stroke-width:0.78125;"/><line style="stroke:#000000;stroke-width:0.78125;" x1="3.125" x2="122.9167" y1="15.4215" y2="15.4215"/><text fill="#000000" font-family="sans-serif" font-size="7.2917" font-weight="bold" lengthAdjust="spacing" textLength="113.0208" x="5.2083" y="11.736">Identifier Type and References</text></g><!--class LegalEntityIdentifier--><g id="elem_LegalEntityIdentifier"><rect codeLine="6" fill="#F1F1F1" height="39.1764" id="LegalEntityIdentifier" rx="1.3021" ry="1.3021" style="stroke:#181818;stroke-width:0.2604166666666667;" width="81.25" x="106.7708" y="21.875"/><ellipse cx="114.5833" cy="30.2083" fill="#ADD1B2" rx="5.7292" ry="5.7292" style="stroke:#181818;stroke-width:0.5208333333333334;"/><path d="M116.0238,28.0599 Q116.1051,27.946 116.2028,27.889 Q116.3005,27.832 116.4144,27.832 Q116.6097,27.832 116.7318,27.9704 Q116.8538,28.1006 116.8538,28.418 L116.8538,29.1748 Q116.8538,29.4922 116.7318,29.6305 Q116.6097,29.7689 116.4144,29.7689 Q116.2354,29.7689 116.1296,29.6631 Q116.0238,29.5654 115.9668,29.2969 Q115.9424,29.1097 115.8447,29.012 Q115.6738,28.8167 115.3564,28.7028 Q115.0391,28.5889 114.7135,28.5889 Q114.3148,28.5889 113.9811,28.7598 Q113.6556,28.9307 113.3952,29.3213 Q113.1429,29.7119 113.1429,30.249 L113.1429,30.8187 Q113.1429,31.4616 113.6068,31.8929 Q114.0706,32.3161 114.9007,32.3161 Q115.389,32.3161 115.7308,32.1859 Q115.9342,32.1045 116.154,31.8766 Q116.2923,31.7383 116.3656,31.6976 Q116.4469,31.6569 116.5527,31.6569 Q116.7236,31.6569 116.8538,31.7952 Q116.9922,31.9255 116.9922,32.1045 Q116.9922,32.2835 116.8132,32.4951 Q116.5527,32.7962 116.1377,32.9671 Q115.5762,33.2031 114.9007,33.2031 Q114.1113,33.2031 113.4847,32.8776 Q112.972,32.6172 112.6139,32.0638 Q112.2559,31.5023 112.2559,30.835 L112.2559,30.2327 Q112.2559,29.541 112.5732,28.9469 Q112.8988,28.3447 113.4684,28.0273 Q114.0381,27.7018 114.681,27.7018 Q115.0635,27.7018 115.3971,27.7913 Q115.7389,27.8727 116.0238,28.0599 Z " fill="#000000"/><text fill="#000000" font-family="sans-serif" font-size="7.2917" lengthAdjust="spacing" textLength="64.5833" x="121.875" y="33.1919">LegalEntityIdentifier</text><line style="stroke:#181818;stroke-width:0.2604166666666667;" x1="107.2917" x2="187.5" y1="38.5417" y2="38.5417"/><text fill="#000000" font-family="sans-serif" font-size="7.2917" lengthAdjust="spacing" textLength="18.75" x="109.8958" y="48.1944">Value</text><text fill="#000000" font-family="sans-serif" font-size="7.2917" lengthAdjust="spacing" textLength="39.5833" x="109.8958" y="57.3659">IssuingBody</text></g><!--class AddressIdentifier--><g id="elem_AddressIdentifier"><rect codeLine="11" fill="#F1F1F1" height="30.0049" id="AddressIdentifier" rx="1.3021" ry="1.3021" style="stroke:#181818;stroke-width:0.2604166666666667;" width="71.875" x="16.6667" y="26.3021"/><ellipse cx="24.4792" cy="34.6354" fill="#ADD1B2" rx="5.7292" ry="5.7292" style="stroke:#181818;stroke-width:0.5208333333333334;"/><path d="M25.9196,32.487 Q26.001,32.373 26.0986,32.3161 Q26.1963,32.2591 26.3102,32.2591 Q26.5055,32.2591 26.6276,32.3975 Q26.7497,32.5277 26.7497,32.8451 L26.7497,33.6019 Q26.7497,33.9193 26.6276,34.0576 Q26.5055,34.196 26.3102,34.196 Q26.1312,34.196 26.0254,34.0902 Q25.9196,33.9925 25.8626,33.724 Q25.8382,33.5368 25.7406,33.4391 Q25.5697,33.2438 25.2523,33.1299 Q24.9349,33.016 24.6094,33.016 Q24.2106,33.016 23.877,33.1868 Q23.5514,33.3577 23.291,33.7484 Q23.0387,34.139 23.0387,34.6761 L23.0387,35.2458 Q23.0387,35.8887 23.5026,36.32 Q23.9665,36.7432 24.7965,36.7432 Q25.2848,36.7432 25.6266,36.613 Q25.8301,36.5316 26.0498,36.3037 Q26.1882,36.1654 26.2614,36.1247 Q26.3428,36.084 26.4486,36.084 Q26.6195,36.084 26.7497,36.2223 Q26.888,36.3525 26.888,36.5316 Q26.888,36.7106 26.709,36.9222 Q26.4486,37.2233 26.0335,37.3942 Q25.472,37.6302 24.7965,37.6302 Q24.0072,37.6302 23.3805,37.3047 Q22.8678,37.0443 22.5098,36.4909 Q22.1517,35.9294 22.1517,35.262 L22.1517,34.6598 Q22.1517,33.9681 22.4691,33.374 Q22.7946,32.7718 23.3643,32.4544 Q23.9339,32.1289 24.5768,32.1289 Q24.9593,32.1289 25.293,32.2184 Q25.6348,32.2998 25.9196,32.487 Z " fill="#000000"/><text fill="#000000" font-family="sans-serif" font-size="7.2917" lengthAdjust="spacing" textLength="55.2083" x="31.7708" y="37.619">AddressIdentifier</text><line style="stroke:#181818;stroke-width:0.2604166666666667;" x1="17.1875" x2="88.0208" y1="42.9688" y2="42.9688"/><text fill="#000000" font-family="sans-serif" font-size="7.2917" lengthAdjust="spacing" textLength="18.75" x="19.7917" y="52.6215">Value</text></g><!--class IdentifierType--><g id="elem_IdentifierType"><rect codeLine="15" fill="#F1F1F1" height="75.8626" id="IdentifierType" rx="1.3021" ry="1.3021" style="stroke:#181818;stroke-width:0.2604166666666667;" width="93.2292" x="11.7188" y="101.5625"/><ellipse cx="33.8281" cy="109.8958" fill="#ADD1B2" rx="5.7292" ry="5.7292" style="stroke:#181818;stroke-width:0.5208333333333334;"/><path d="M33.234,110.3109 L33.234,111.613 L35.4883,111.613 L35.4883,111.1328 Q35.4883,110.8154 35.6104,110.6771 Q35.7406,110.5387 35.9359,110.5387 Q36.1312,110.5387 36.2533,110.6771 Q36.3753,110.8154 36.3753,111.1328 L36.3753,112.5 L32.2087,112.5 Q31.8831,112.5 31.7448,112.3779 Q31.6146,112.2559 31.6146,112.0524 Q31.6146,111.8571 31.7529,111.735 Q31.8913,111.613 32.2087,111.613 L32.347,111.613 L32.347,108.1462 L32.2087,108.1462 Q31.8831,108.1462 31.7448,108.0241 Q31.6146,107.902 31.6146,107.6986 Q31.6146,107.5033 31.7448,107.3812 Q31.8831,107.2591 32.2087,107.2591 L36.18,107.2591 L36.18,108.61 Q36.18,108.9274 36.0579,109.0658 Q35.944,109.196 35.7406,109.196 Q35.5452,109.196 35.4232,109.0658 Q35.3011,108.9274 35.3011,108.61 L35.3011,108.1462 L33.234,108.1462 L33.234,109.4238 L34.0072,109.4238 Q34.0072,109.082 34.0723,108.9844 Q34.2106,108.7728 34.4548,108.7728 Q34.6501,108.7728 34.7721,108.9111 Q34.8942,109.0413 34.8942,109.3587 L34.8942,110.3841 Q34.8942,110.6689 34.8291,110.7666 Q34.6908,110.9701 34.4548,110.9701 Q34.2106,110.9701 34.0723,110.7585 Q34.0072,110.6608 34.0072,110.3109 L33.234,110.3109 Z " fill="#000000"/><text fill="#000000" font-family="sans-serif" font-size="7.2917" lengthAdjust="spacing" textLength="44.7917" x="44.2969" y="112.8794">IdentifierType</text><line style="stroke:#181818;stroke-width:0.2604166666666667;" x1="12.2396" x2="104.4271" y1="118.2292" y2="118.2292"/><text fill="#000000" font-family="sans-serif" font-size="7.2917" lengthAdjust="spacing" textLength="44.2708" x="14.8438" y="127.8819">TechnicalKey</text><text fill="#000000" font-family="sans-serif" font-size="7.2917" lengthAdjust="spacing" textLength="18.75" x="14.8438" y="137.0534">Name</text><text fill="#000000" font-family="sans-serif" font-size="7.2917" lengthAdjust="spacing" textLength="41.1458" x="14.8438" y="146.225">Abbreviation</text><text fill="#000000" font-family="sans-serif" font-size="7.2917" lengthAdjust="spacing" textLength="64.5833" x="14.8438" y="155.3965">TransliteratedName</text><text fill="#000000" font-family="sans-serif" font-size="7.2917" lengthAdjust="spacing" textLength="86.9792" x="14.8438" y="164.5681">TransliteratedAbbreviation</text><text fill="#000000" font-family="sans-serif" font-size="7.2917" lengthAdjust="spacing" textLength="23.4375" x="14.8438" y="173.7396">Format</text></g><!--class BusinessPartnerType--><g id="elem_BusinessPartnerType"><rect codeLine="24" fill="#F1F1F1" height="39.1764" id="BusinessPartnerType" rx="1.3021" ry="1.3021" style="stroke:#181818;stroke-width:0.2604166666666667;" width="87.5" x="195.3125" y="227.3438"/><ellipse cx="203.125" cy="235.6771" fill="#EB937F" rx="5.7292" ry="5.7292" style="stroke:#181818;stroke-width:0.5208333333333334;"/><path d="M202.5309,236.0921 L202.5309,237.3942 L204.7852,237.3942 L204.7852,236.9141 Q204.7852,236.5967 204.9072,236.4583 Q205.0374,236.32 205.2327,236.32 Q205.4281,236.32 205.5501,236.4583 Q205.6722,236.5967 205.6722,236.9141 L205.6722,238.2813 L201.5055,238.2813 Q201.18,238.2813 201.0417,238.1592 Q200.9115,238.0371 200.9115,237.8337 Q200.9115,237.6383 201.0498,237.5163 Q201.1882,237.3942 201.5055,237.3942 L201.6439,237.3942 L201.6439,233.9274 L201.5055,233.9274 Q201.18,233.9274 201.0417,233.8053 Q200.9115,233.6833 200.9115,233.4798 Q200.9115,233.2845 201.0417,233.1624 Q201.18,233.0404 201.5055,233.0404 L205.4769,233.0404 L205.4769,234.3913 Q205.4769,234.7087 205.3548,234.847 Q205.2409,234.9772 205.0374,234.9772 Q204.8421,234.9772 204.7201,234.847 Q204.598,234.7087 204.598,234.3913 L204.598,233.9274 L202.5309,233.9274 L202.5309,235.2051 L203.304,235.2051 Q203.304,234.8633 203.3691,234.7656 Q203.5075,234.554 203.7516,234.554 Q203.9469,234.554 204.069,234.6924 Q204.1911,234.8226 204.1911,235.14 L204.1911,236.1654 Q204.1911,236.4502 204.126,236.5479 Q203.9876,236.7513 203.7516,236.7513 Q203.5075,236.7513 203.3691,236.5397 Q203.304,236.4421 203.304,236.0921 L202.5309,236.0921 Z " fill="#000000"/><text fill="#000000" font-family="sans-serif" font-size="7.2917" lengthAdjust="spacing" textLength="70.8333" x="210.4167" y="238.6607">BusinessPartnerType</text><line style="stroke:#181818;stroke-width:0.2604166666666667;" x1="195.8333" x2="282.2917" y1="244.0104" y2="244.0104"/><text fill="#000000" font-family="sans-serif" font-size="7.2917" lengthAdjust="spacing" textLength="36.4583" x="198.4375" y="253.6631">LegalEntity</text><text fill="#000000" font-family="sans-serif" font-size="7.2917" lengthAdjust="spacing" textLength="27.0833" x="198.4375" y="262.8347">Address</text></g><!--class IdentifierTypeCategory--><g id="elem_IdentifierTypeCategory"><rect codeLine="29" fill="#F1F1F1" height="66.6911" id="IdentifierTypeCategory" rx="1.3021" ry="1.3021" style="stroke:#181818;stroke-width:0.2604166666666667;" width="91.6667" x="190.625" y="106.25"/><ellipse cx="198.4375" cy="114.5833" fill="#EB937F" rx="5.7292" ry="5.7292" style="stroke:#181818;stroke-width:0.5208333333333334;"/><path d="M197.8434,114.9984 L197.8434,116.3005 L200.0977,116.3005 L200.0977,115.8203 Q200.0977,115.5029 200.2197,115.3646 Q200.3499,115.2262 200.5452,115.2262 Q200.7406,115.2262 200.8626,115.3646 Q200.9847,115.5029 200.9847,115.8203 L200.9847,117.1875 L196.818,117.1875 Q196.4925,117.1875 196.3542,117.0654 Q196.224,116.9434 196.224,116.7399 Q196.224,116.5446 196.3623,116.4225 Q196.5007,116.3005 196.818,116.3005 L196.9564,116.3005 L196.9564,112.8337 L196.818,112.8337 Q196.4925,112.8337 196.3542,112.7116 Q196.224,112.5895 196.224,112.3861 Q196.224,112.1908 196.3542,112.0687 Q196.4925,111.9466 196.818,111.9466 L200.7894,111.9466 L200.7894,113.2975 Q200.7894,113.6149 200.6673,113.7533 Q200.5534,113.8835 200.3499,113.8835 Q200.1546,113.8835 200.0326,113.7533 Q199.9105,113.6149 199.9105,113.2975 L199.9105,112.8337 L197.8434,112.8337 L197.8434,114.1113 L198.6165,114.1113 Q198.6165,113.7695 198.6816,113.6719 Q198.82,113.4603 199.0641,113.4603 Q199.2594,113.4603 199.3815,113.5986 Q199.5036,113.7288 199.5036,114.0462 L199.5036,115.0716 Q199.5036,115.3564 199.4385,115.4541 Q199.3001,115.6576 199.0641,115.6576 Q198.82,115.6576 198.6816,115.446 Q198.6165,115.3483 198.6165,114.9984 L197.8434,114.9984 Z " fill="#000000"/><text fill="#000000" font-family="sans-serif" font-size="7.2917" lengthAdjust="spacing" textLength="75" x="205.7292" y="117.5669">IdentifierTypeCategory</text><line style="stroke:#181818;stroke-width:0.2604166666666667;" x1="191.1458" x2="281.7708" y1="122.9167" y2="122.9167"/><text fill="#000000" font-family="sans-serif" font-size="7.2917" lengthAdjust="spacing" textLength="14.0625" x="193.75" y="132.5694">VAT</text><text fill="#000000" font-family="sans-serif" font-size="7.2917" lengthAdjust="spacing" textLength="10.9375" x="193.75" y="141.7409">TIN</text><text fill="#000000" font-family="sans-serif" font-size="7.2917" lengthAdjust="spacing" textLength="14.5833" x="193.75" y="150.9125">NBR</text><text fill="#000000" font-family="sans-serif" font-size="7.2917" lengthAdjust="spacing" textLength="11.4583" x="193.75" y="160.084">IBR</text><text fill="#000000" font-family="sans-serif" font-size="7.2917" lengthAdjust="spacing" textLength="15.1042" x="193.75" y="169.2556">OTH</text></g><!--class IdentifierTypeDetail--><g id="elem_IdentifierTypeDetail"><rect codeLine="37" fill="#F1F1F1" height="30.0049" id="IdentifierTypeDetail" rx="1.3021" ry="1.3021" style="stroke:#181818;stroke-width:0.2604166666666667;" width="80.2083" x="11.4583" y="231.7708"/><ellipse cx="19.2708" cy="240.1042" fill="#ADD1B2" rx="5.7292" ry="5.7292" style="stroke:#181818;stroke-width:0.5208333333333334;"/><path d="M20.7113,237.9557 Q20.7926,237.8418 20.8903,237.7848 Q20.988,237.7279 21.1019,237.7279 Q21.2972,237.7279 21.4193,237.8662 Q21.5413,237.9964 21.5413,238.3138 L21.5413,239.0706 Q21.5413,239.388 21.4193,239.5264 Q21.2972,239.6647 21.1019,239.6647 Q20.9229,239.6647 20.8171,239.5589 Q20.7113,239.4613 20.6543,239.1927 Q20.6299,239.0055 20.5322,238.9079 Q20.3613,238.7126 20.0439,238.5986 Q19.7266,238.4847 19.401,238.4847 Q19.0023,238.4847 18.6686,238.6556 Q18.3431,238.8265 18.0827,239.2171 Q17.8304,239.6077 17.8304,240.1449 L17.8304,240.7145 Q17.8304,241.3574 18.2943,241.7887 Q18.7581,242.2119 19.5882,242.2119 Q20.0765,242.2119 20.4183,242.0817 Q20.6217,242.0003 20.8415,241.7725 Q20.9798,241.6341 21.0531,241.5934 Q21.1344,241.5527 21.2402,241.5527 Q21.4111,241.5527 21.5413,241.6911 Q21.6797,241.8213 21.6797,242.0003 Q21.6797,242.1794 21.5007,242.391 Q21.2402,242.6921 20.8252,242.863 Q20.2637,243.099 19.5882,243.099 Q18.7988,243.099 18.1722,242.7734 Q17.6595,242.513 17.3014,241.9596 Q16.9434,241.3981 16.9434,240.7308 L16.9434,240.1286 Q16.9434,239.4368 17.2607,238.8428 Q17.5863,238.2406 18.1559,237.9232 Q18.7256,237.5977 19.3685,237.5977 Q19.751,237.5977 20.0846,237.6872 Q20.4264,237.7686 20.7113,237.9557 Z " fill="#000000"/><text fill="#000000" font-family="sans-serif" font-size="7.2917" lengthAdjust="spacing" textLength="63.5417" x="26.5625" y="243.0878">IdentifierTypeDetail</text><line style="stroke:#181818;stroke-width:0.2604166666666667;" x1="11.9792" x2="91.1458" y1="248.4375" y2="248.4375"/><text fill="#000000" font-family="sans-serif" font-size="7.2917" lengthAdjust="spacing" textLength="34.8958" x="14.5833" y="258.0902">Mandatory</text></g><!--class Country--><g id="elem_Country"><rect codeLine="41" fill="#F1F1F1" height="57.5195" id="Country" rx="1.3021" ry="1.3021" style="stroke:#181818;stroke-width:0.2604166666666667;" width="42.7083" x="134.375" y="218.2292"/><ellipse cx="142.1875" cy="226.5625" fill="#EB937F" rx="5.7292" ry="5.7292" style="stroke:#181818;stroke-width:0.5208333333333334;"/><path d="M141.5934,226.9775 L141.5934,228.2796 L143.8477,228.2796 L143.8477,227.7995 Q143.8477,227.4821 143.9697,227.3438 Q144.0999,227.2054 144.2952,227.2054 Q144.4906,227.2054 144.6126,227.3438 Q144.7347,227.4821 144.7347,227.7995 L144.7347,229.1667 L140.568,229.1667 Q140.2425,229.1667 140.1042,229.0446 Q139.974,228.9225 139.974,228.7191 Q139.974,228.5238 140.1123,228.4017 Q140.2507,228.2796 140.568,228.2796 L140.7064,228.2796 L140.7064,224.8128 L140.568,224.8128 Q140.2425,224.8128 140.1042,224.6908 Q139.974,224.5687 139.974,224.3652 Q139.974,224.1699 140.1042,224.0479 Q140.2425,223.9258 140.568,223.9258 L144.5394,223.9258 L144.5394,225.2767 Q144.5394,225.5941 144.4173,225.7324 Q144.3034,225.8626 144.0999,225.8626 Q143.9046,225.8626 143.7826,225.7324 Q143.6605,225.5941 143.6605,225.2767 L143.6605,224.8128 L141.5934,224.8128 L141.5934,226.0905 L142.3665,226.0905 Q142.3665,225.7487 142.4316,225.651 Q142.57,225.4395 142.8141,225.4395 Q143.0094,225.4395 143.1315,225.5778 Q143.2536,225.708 143.2536,226.0254 L143.2536,227.0508 Q143.2536,227.3356 143.1885,227.4333 Q143.0501,227.6367 142.8141,227.6367 Q142.57,227.6367 142.4316,227.4251 Q142.3665,227.3275 142.3665,226.9775 L141.5934,226.9775 Z " fill="#000000"/><text fill="#000000" font-family="sans-serif" font-size="7.2917" lengthAdjust="spacing" textLength="26.0417" x="149.4792" y="229.5461">Country</text><line style="stroke:#181818;stroke-width:0.2604166666666667;" x1="134.8958" x2="176.5625" y1="234.8958" y2="234.8958"/><text fill="#000000" font-family="sans-serif" font-size="7.2917" lengthAdjust="spacing" textLength="9.8958" x="137.5" y="244.5485">DE</text><text fill="#000000" font-family="sans-serif" font-size="7.2917" lengthAdjust="spacing" textLength="9.8958" x="137.5" y="253.7201">FR</text><text fill="#000000" font-family="sans-serif" font-size="7.2917" lengthAdjust="spacing" textLength="9.375" x="137.5" y="262.8916">US</text><text fill="#000000" font-family="sans-serif" font-size="7.2917" lengthAdjust="spacing" textLength="6.25" x="137.5" y="272.0632">...</text></g><!--link IdentifierType to BusinessPartnerType--><g id="link_IdentifierType_BusinessPartnerType"><path codeLine="48" d="M105.1094,167.6042 C137.0104,186.3594 173.0497,207.5459 201.3361,224.1761 " fill="none" id="IdentifierType-to-BusinessPartnerType" style="stroke:#181818;stroke-width:0.5208333333333334;"/><polygon fill="none" points="206.724,227.3438,205.0859,223.964,201.3361,224.1761,202.9742,227.5559,206.724,227.3438" style="stroke:#181818;stroke-width:0.5208333333333334;"/><text fill="#000000" font-family="sans-serif" font-size="6.7708" lengthAdjust="spacing" textLength="64.5833" x="159.8958" y="200.7787">BusinessPartnerType</text><text fill="#000000" font-family="sans-serif" font-size="6.7708" lengthAdjust="spacing" textLength="2.6042" x="109.0908" y="168.29">*</text><text fill="#000000" font-family="sans-serif" font-size="6.7708" lengthAdjust="spacing" textLength="3.6458" x="196.7796" y="221.6762">1</text></g><!--link IdentifierType to IdentifierTypeCategory--><g id="link_IdentifierType_IdentifierTypeCategory"><path codeLine="49" d="M105.1354,139.5833 C131.5208,139.5833 158.1042,139.5833 184.3385,139.5833 " fill="none" id="IdentifierType-to-IdentifierTypeCategory" style="stroke:#181818;stroke-width:0.5208333333333334;"/><polygon fill="none" points="190.5885,139.5833,187.4635,137.5,184.3385,139.5833,187.4635,141.6667,190.5885,139.5833" style="stroke:#181818;stroke-width:0.5208333333333334;"/><text fill="#000000" font-family="sans-serif" font-size="6.7708" lengthAdjust="spacing" textLength="66.6667" x="114.4531" y="136.1954">IdentifierTypeCategory</text><text fill="#000000" font-family="sans-serif" font-size="6.7708" lengthAdjust="spacing" textLength="2.6042" x="109.119" y="137.9486">*</text><text fill="#000000" font-family="sans-serif" font-size="6.7708" lengthAdjust="spacing" textLength="2.6042" x="183.7831" y="137.9147">*</text></g><!--link LegalEntityIdentifier to IdentifierType--><g id="link_LegalEntityIdentifier_IdentifierType"><path codeLine="51" d="M129.8021,61.1198 C119.2552,72.6198 109.7081,83.0338 97.0727,96.8151 " fill="none" id="LegalEntityIdentifier-to-IdentifierType" style="stroke:#181818;stroke-width:0.5208333333333334;"/><polygon fill="none" points="92.849,101.4219,96.4964,100.5264,97.0727,96.8151,93.4252,97.7106,92.849,101.4219" style="stroke:#181818;stroke-width:0.5208333333333334;"/><text fill="#000000" font-family="sans-serif" font-size="6.7708" lengthAdjust="spacing" textLength="14.5833" x="113.5417" y="84.112">Type</text><text fill="#000000" font-family="sans-serif" font-size="6.7708" lengthAdjust="spacing" textLength="2.6042" x="123.9502" y="72.2589">*</text><text fill="#000000" font-family="sans-serif" font-size="6.7708" lengthAdjust="spacing" textLength="3.6458" x="92.4213" y="95.9684">1</text></g><!--link AddressIdentifier to IdentifierType--><g id="link_AddressIdentifier_IdentifierType"><path codeLine="52" d="M53.474,56.6823 C54.1771,68.5677 54.8252,79.5837 55.7471,95.2348 " fill="none" id="AddressIdentifier-to-IdentifierType" style="stroke:#181818;stroke-width:0.5208333333333334;"/><polygon fill="none" points="56.1146,101.474,58.0106,98.2319,55.7471,95.2348,53.8511,98.4769,56.1146,101.474" style="stroke:#181818;stroke-width:0.5208333333333334;"/><text fill="#000000" font-family="sans-serif" font-size="6.7708" lengthAdjust="spacing" textLength="14.5833" x="55.2083" y="84.112">Type</text><text fill="#000000" font-family="sans-serif" font-size="6.7708" lengthAdjust="spacing" textLength="2.6042" x="50.7874" y="67.4541">*</text><text fill="#000000" font-family="sans-serif" font-size="6.7708" lengthAdjust="spacing" textLength="3.6458" x="52.052" y="95.8283">1</text></g><!--link IdentifierType to IdentifierTypeDetail--><g id="link_IdentifierType_IdentifierTypeDetail"><path codeLine="54" d="M55.5398,183.9509 C54.3523,202.5759 53.5843,214.6365 52.6989,228.522 " fill="none" id="IdentifierType-IdentifierTypeDetail" style="stroke:#181818;stroke-width:0.5208333333333334;"/><polygon fill="#181818" points="55.9375,177.7135,53.6595,180.6996,55.5398,183.9509,57.8178,180.9648,55.9375,177.7135" style="stroke:#181818;stroke-width:0.5208333333333334;"/><polygon fill="#181818" points="52.5,231.6406,54.8774,227.0952,52.6657,229.0417,50.7192,226.83,52.5,231.6406" style="stroke:#181818;stroke-width:0.5208333333333334;"/><text fill="#000000" font-family="sans-serif" font-size="6.7708" lengthAdjust="spacing" textLength="20.8333" x="55.2083" y="200.7787">Details</text><text fill="#000000" font-family="sans-serif" font-size="6.7708" lengthAdjust="spacing" textLength="3.6458" x="51.9028" y="188.6582">1</text><text fill="#000000" font-family="sans-serif" font-size="6.7708" lengthAdjust="spacing" textLength="2.6042" x="49.8161" y="226.1343">*</text></g><!--link IdentifierTypeDetail to Country--><g id="link_IdentifierTypeDetail_Country"><path codeLine="55" d="M91.6875,246.875 C106.1875,246.875 115.7448,246.875 128.026,246.875 " fill="none" id="IdentifierTypeDetail-to-Country" style="stroke:#181818;stroke-width:0.5208333333333334;"/><polygon fill="none" points="134.276,246.875,131.151,244.7917,128.026,246.875,131.151,248.9583,134.276,246.875" style="stroke:#181818;stroke-width:0.5208333333333334;"/><text fill="#000000" font-family="sans-serif" font-size="6.7708" lengthAdjust="spacing" textLength="23.4375" x="101.3021" y="243.487">Country</text><text fill="#000000" font-family="sans-serif" font-size="6.7708" lengthAdjust="spacing" textLength="2.6042" x="95.9597" y="245.1606">*</text><text fill="#000000" font-family="sans-serif" font-size="6.7708" lengthAdjust="spacing" textLength="3.6458" x="126.6296" y="244.8504">1</text></g><!--SRC=[ZLBBJiCm4BpdArOvLce51ouv8FM5g822Ik2-ZRUfrSIER0SfglXtZ9qqDKqbJhRNCpkpO-i35nKgB85L7EvkegZ2x80vGRnY90pVSLAGDXK12WORsf4YaP6EuHX505c1MiCpvLWiBTeqPwoZlGVunA8cjrjfNNEHpoHhxFcxfqyPKwHrJmsP3ackE_GOvya3KyhsWcTOF57Z2ciilUHqkrNqnT5mAJnKeT05DwJG43lXml85wq6g4arlfIvXLcikhEatL4O4Rix2y1xyT04x76DkHNEfcYwnQUfDhTP-cjd6vzUkh-bZc5_ORK46UT7sUh6lXiRs3kJdiXRcfBTO-Y5zzuztjqmcauxo9_Du5CEOZIN4j_5W3CbGzKeVwPOhSIHNBdvD3N-vmDiVlGHQ7nVVxJ-q0VyMExAi-u4HsZT8m6_q1Ri5E67L2dUladIxoCQ_vuoW9BENJFy0]--></g></svg>