<?xml version="1.0" encoding="us-ascii" standalone="no"?><svg xmlns="http://www.w3.org/2000/svg" xmlns:xlink="http://www.w3.org/1999/xlink" contentStyleType="text/css" height="358.3333px" preserveAspectRatio="none" style="width:391px;height:358px;background:#FFFFFF;" version="1.1" viewBox="0 0 391 358" width="391.1458px" zoomAndPan="magnify"><defs/><g><!--cluster Legal Entity and References--><g id="cluster_Legal Entity and References"><path d="M4.4271,3.125 L107.5521,3.125 A1.9531,1.9531 0 0 1 108.8542,4.4271 L112.5,15.4215 L386.1979,15.4215 A1.3021,1.3021 0 0 1 387.5,16.7236 L387.5,353.3854 A1.3021,1.3021 0 0 1 386.1979,354.6875 L4.4271,354.6875 A1.3021,1.3021 0 0 1 3.125,353.3854 L3.125,4.4271 A1.3021,1.3021 0 0 1 4.4271,3.125 " fill="none" style="stroke:#000000;stroke-width:0.78125;"/><line style="stroke:#000000;stroke-width:0.78125;" x1="3.125" x2="112.5" y1="15.4215" y2="15.4215"/><text fill="#000000" font-family="sans-serif" font-size="7.2917" font-weight="bold" lengthAdjust="spacing" textLength="102.6042" x="5.2083" y="11.736">Legal Entity and References</text></g><!--class LegalEntity--><g id="elem_LegalEntity"><rect codeLine="5" fill="#F1F1F1" height="75.8626" id="LegalEntity" rx="1.3021" ry="1.3021" style="stroke:#181818;stroke-width:0.2604166666666667;" width="61.9792" x="134.1146" y="101.5625"/><ellipse cx="145.9115" cy="109.8958" fill="#ADD1B2" rx="5.7292" ry="5.7292" style="stroke:#181818;stroke-width:0.5208333333333334;"/><path d="M145.3174,110.3109 L145.3174,111.613 L147.5716,111.613 L147.5716,111.1328 Q147.5716,110.8154 147.6937,110.6771 Q147.8239,110.5387 148.0192,110.5387 Q148.2145,110.5387 148.3366,110.6771 Q148.4587,110.8154 148.4587,111.1328 L148.4587,112.5 L144.292,112.5 Q143.9665,112.5 143.8281,112.3779 Q143.6979,112.2559 143.6979,112.0524 Q143.6979,111.8571 143.8363,111.735 Q143.9746,111.613 144.292,111.613 L144.4303,111.613 L144.4303,108.1462 L144.292,108.1462 Q143.9665,108.1462 143.8281,108.0241 Q143.6979,107.902 143.6979,107.6986 Q143.6979,107.5033 143.8281,107.3812 Q143.9665,107.2591 144.292,107.2591 L148.2633,107.2591 L148.2633,108.61 Q148.2633,108.9274 148.1413,109.0658 Q148.0273,109.196 147.8239,109.196 Q147.6286,109.196 147.5065,109.0658 Q147.3844,108.9274 147.3844,108.61 L147.3844,108.1462 L145.3174,108.1462 L145.3174,109.4238 L146.0905,109.4238 Q146.0905,109.082 146.1556,108.9844 Q146.2939,108.7728 146.5381,108.7728 Q146.7334,108.7728 146.8555,108.9111 Q146.9775,109.0413 146.9775,109.3587 L146.9775,110.3841 Q146.9775,110.6689 146.9124,110.7666 Q146.7741,110.9701 146.5381,110.9701 Q146.2939,110.9701 146.1556,110.7585 Q146.0905,110.6608 146.0905,110.3109 L145.3174,110.3109 Z " fill="#000000"/><text fill="#000000" font-family="sans-serif" font-size="7.2917" lengthAdjust="spacing" textLength="36.4583" x="154.0885" y="112.8794">LegalEntity</text><line style="stroke:#181818;stroke-width:0.2604166666666667;" x1="134.6354" x2="195.5729" y1="118.2292" y2="118.2292"/><text fill="#000000" font-family="sans-serif" font-size="7.2917" lengthAdjust="spacing" textLength="18.2292" x="137.2396" y="127.8819">BPNL</text><text fill="#000000" font-family="sans-serif" font-size="7.2917" lengthAdjust="spacing" textLength="36.9792" x="137.2396" y="137.0534">LegalName</text><text fill="#000000" font-family="sans-serif" font-size="7.2917" lengthAdjust="spacing" textLength="36.4583" x="137.2396" y="146.225">ShortName</text><text fill="#000000" font-family="sans-serif" font-size="7.2917" lengthAdjust="spacing" textLength="55.7292" x="137.2396" y="155.3965">IsParticipantData</text><text fill="#000000" font-family="sans-serif" font-size="7.2917" lengthAdjust="spacing" textLength="33.3333" x="137.2396" y="164.5681">CreatedAt</text><text fill="#000000" font-family="sans-serif" font-size="7.2917" lengthAdjust="spacing" textLength="30.2083" x="137.2396" y="173.7396">UpdateAt</text></g><!--class Site--><g id="elem_Site"><rect codeLine="14" fill="#F1F1F1" height="39.1764" id="Site" rx="1.3021" ry="1.3021" style="stroke:#181818;stroke-width:0.2604166666666667;" width="29.1667" x="150.5208" y="21.875"/><ellipse cx="158.3333" cy="30.2083" fill="#ADD1B2" rx="5.7292" ry="5.7292" style="stroke:#181818;stroke-width:0.5208333333333334;"/><path d="M157.7393,30.6234 L157.7393,31.9255 L159.9935,31.9255 L159.9935,31.4453 Q159.9935,31.1279 160.1156,30.9896 Q160.2458,30.8512 160.4411,30.8512 Q160.6364,30.8512 160.7585,30.9896 Q160.8805,31.1279 160.8805,31.4453 L160.8805,32.8125 L156.7139,32.8125 Q156.3883,32.8125 156.25,32.6904 Q156.1198,32.5684 156.1198,32.3649 Q156.1198,32.1696 156.2581,32.0475 Q156.3965,31.9255 156.7139,31.9255 L156.8522,31.9255 L156.8522,28.4587 L156.7139,28.4587 Q156.3883,28.4587 156.25,28.3366 Q156.1198,28.2145 156.1198,28.0111 Q156.1198,27.8158 156.25,27.6937 Q156.3883,27.5716 156.7139,27.5716 L160.6852,27.5716 L160.6852,28.9225 Q160.6852,29.2399 160.5632,29.3783 Q160.4492,29.5085 160.2458,29.5085 Q160.0505,29.5085 159.9284,29.3783 Q159.8063,29.2399 159.8063,28.9225 L159.8063,28.4587 L157.7393,28.4587 L157.7393,29.7363 L158.5124,29.7363 Q158.5124,29.3945 158.5775,29.2969 Q158.7158,29.0853 158.96,29.0853 Q159.1553,29.0853 159.2773,29.2236 Q159.3994,29.3538 159.3994,29.6712 L159.3994,30.6966 Q159.3994,30.9814 159.3343,31.0791 Q159.196,31.2826 158.96,31.2826 Q158.7158,31.2826 158.5775,31.071 Q158.5124,30.9733 158.5124,30.6234 L157.7393,30.6234 Z " fill="#000000"/><text fill="#000000" font-family="sans-serif" font-size="7.2917" lengthAdjust="spacing" textLength="12.5" x="165.625" y="33.1919">Site</text><line style="stroke:#181818;stroke-width:0.2604166666666667;" x1="151.0417" x2="179.1667" y1="38.5417" y2="38.5417"/><text fill="#000000" font-family="sans-serif" font-size="7.2917" lengthAdjust="spacing" textLength="18.75" x="153.6458" y="48.1944">BPNS</text><text fill="#000000" font-family="sans-serif" font-size="7.2917" lengthAdjust="spacing" textLength="6.25" x="153.6458" y="57.3659">...</text></g><!--class Address--><g id="elem_Address"><rect codeLine="19" fill="#F1F1F1" height="39.1764" id="Address" rx="1.3021" ry="1.3021" style="stroke:#181818;stroke-width:0.2604166666666667;" width="43.75" x="239.0625" y="21.875"/><ellipse cx="246.875" cy="30.2083" fill="#ADD1B2" rx="5.7292" ry="5.7292" style="stroke:#181818;stroke-width:0.5208333333333334;"/><path d="M246.2809,30.6234 L246.2809,31.9255 L248.5352,31.9255 L248.5352,31.4453 Q248.5352,31.1279 248.6572,30.9896 Q248.7874,30.8512 248.9827,30.8512 Q249.1781,30.8512 249.3001,30.9896 Q249.4222,31.1279 249.4222,31.4453 L249.4222,32.8125 L245.2555,32.8125 Q244.93,32.8125 244.7917,32.6904 Q244.6615,32.5684 244.6615,32.3649 Q244.6615,32.1696 244.7998,32.0475 Q244.9382,31.9255 245.2555,31.9255 L245.3939,31.9255 L245.3939,28.4587 L245.2555,28.4587 Q244.93,28.4587 244.7917,28.3366 Q244.6615,28.2145 244.6615,28.0111 Q244.6615,27.8158 244.7917,27.6937 Q244.93,27.5716 245.2555,27.5716 L249.2269,27.5716 L249.2269,28.9225 Q249.2269,29.2399 249.1048,29.3783 Q248.9909,29.5085 248.7874,29.5085 Q248.5921,29.5085 248.4701,29.3783 Q248.348,29.2399 248.348,28.9225 L248.348,28.4587 L246.2809,28.4587 L246.2809,29.7363 L247.054,29.7363 Q247.054,29.3945 247.1191,29.2969 Q247.2575,29.0853 247.5016,29.0853 Q247.6969,29.0853 247.819,29.2236 Q247.9411,29.3538 247.9411,29.6712 L247.9411,30.6966 Q247.9411,30.9814 247.876,31.0791 Q247.7376,31.2826 247.5016,31.2826 Q247.2575,31.2826 247.1191,31.071 Q247.054,30.9733 247.054,30.6234 L246.2809,30.6234 Z " fill="#000000"/><text fill="#000000" font-family="sans-serif" font-size="7.2917" lengthAdjust="spacing" textLength="27.0833" x="254.1667" y="33.1919">Address</text><line style="stroke:#181818;stroke-width:0.2604166666666667;" x1="239.5833" x2="282.2917" y1="38.5417" y2="38.5417"/><text fill="#000000" font-family="sans-serif" font-size="7.2917" lengthAdjust="spacing" textLength="18.75" x="242.1875" y="48.1944">BPNA</text><text fill="#000000" font-family="sans-serif" font-size="7.2917" lengthAdjust="spacing" textLength="6.25" x="242.1875" y="57.3659">...</text></g><!--class LegalEntityState--><g id="elem_LegalEntityState"><rect codeLine="24" fill="#F1F1F1" height="39.1764" id="LegalEntityState" rx="1.3021" ry="1.3021" style="stroke:#181818;stroke-width:0.2604166666666667;" width="70.3125" x="20.5729" y="120.0521"/><ellipse cx="28.3854" cy="128.3854" fill="#ADD1B2" rx="5.7292" ry="5.7292" style="stroke:#181818;stroke-width:0.5208333333333334;"/><path d="M29.8258,126.237 Q29.9072,126.123 30.0049,126.0661 Q30.1025,126.0091 30.2165,126.0091 Q30.4118,126.0091 30.5339,126.1475 Q30.6559,126.2777 30.6559,126.5951 L30.6559,127.3519 Q30.6559,127.6693 30.5339,127.8076 Q30.4118,127.946 30.2165,127.946 Q30.0374,127.946 29.9316,127.8402 Q29.8258,127.7425 29.7689,127.474 Q29.7445,127.2868 29.6468,127.1891 Q29.4759,126.9938 29.1585,126.8799 Q28.8411,126.766 28.5156,126.766 Q28.1169,126.766 27.7832,126.9368 Q27.4577,127.1077 27.1973,127.4984 Q26.945,127.889 26.945,128.4261 L26.945,128.9958 Q26.945,129.6387 27.4089,130.07 Q27.8727,130.4932 28.7028,130.4932 Q29.1911,130.4932 29.5329,130.363 Q29.7363,130.2816 29.9561,130.0537 Q30.0944,129.9154 30.1676,129.8747 Q30.249,129.834 30.3548,129.834 Q30.5257,129.834 30.6559,129.9723 Q30.7943,130.1025 30.7943,130.2816 Q30.7943,130.4606 30.6152,130.6722 Q30.3548,130.9733 29.9398,131.1442 Q29.3783,131.3802 28.7028,131.3802 Q27.9134,131.3802 27.2868,131.0547 Q26.7741,130.7943 26.416,130.2409 Q26.0579,129.6794 26.0579,129.012 L26.0579,128.4098 Q26.0579,127.7181 26.3753,127.124 Q26.7008,126.5218 27.2705,126.2044 Q27.8402,125.8789 28.4831,125.8789 Q28.8656,125.8789 29.1992,125.9684 Q29.541,126.0498 29.8258,126.237 Z " fill="#000000"/><text fill="#000000" font-family="sans-serif" font-size="7.2917" lengthAdjust="spacing" textLength="53.6458" x="35.6771" y="131.369">LegalEntityState</text><line style="stroke:#181818;stroke-width:0.2604166666666667;" x1="21.0938" x2="90.3646" y1="136.7188" y2="136.7188"/><text fill="#000000" font-family="sans-serif" font-size="7.2917" lengthAdjust="spacing" textLength="33.3333" x="23.6979" y="146.3715">ValidFrom</text><text fill="#000000" font-family="sans-serif" font-size="7.2917" lengthAdjust="spacing" textLength="25" x="23.6979" y="155.543">ValidTo</text></g><!--class LegalEntityStateType--><g id="elem_LegalEntityStateType"><rect codeLine="29" fill="#F1F1F1" height="39.1764" id="LegalEntityStateType" rx="1.3021" ry="1.3021" style="stroke:#181818;stroke-width:0.2604166666666667;" width="86.9792" x="11.7188" y="218.2292"/><ellipse cx="19.5313" cy="226.5625" fill="#EB937F" rx="5.7292" ry="5.7292" style="stroke:#181818;stroke-width:0.5208333333333334;"/><path d="M18.9372,226.9775 L18.9372,228.2796 L21.1914,228.2796 L21.1914,227.7995 Q21.1914,227.4821 21.3135,227.3438 Q21.4437,227.2054 21.639,227.2054 Q21.8343,227.2054 21.9564,227.3438 Q22.0785,227.4821 22.0785,227.7995 L22.0785,229.1667 L17.9118,229.1667 Q17.5863,229.1667 17.4479,229.0446 Q17.3177,228.9225 17.3177,228.7191 Q17.3177,228.5238 17.4561,228.4017 Q17.5944,228.2796 17.9118,228.2796 L18.0501,228.2796 L18.0501,224.8128 L17.9118,224.8128 Q17.5863,224.8128 17.4479,224.6908 Q17.3177,224.5687 17.3177,224.3652 Q17.3177,224.1699 17.4479,224.0479 Q17.5863,223.9258 17.9118,223.9258 L21.8831,223.9258 L21.8831,225.2767 Q21.8831,225.5941 21.7611,225.7324 Q21.6471,225.8626 21.4437,225.8626 Q21.2484,225.8626 21.1263,225.7324 Q21.0042,225.5941 21.0042,225.2767 L21.0042,224.8128 L18.9372,224.8128 L18.9372,226.0905 L19.7103,226.0905 Q19.7103,225.7487 19.7754,225.651 Q19.9137,225.4395 20.1579,225.4395 Q20.3532,225.4395 20.4753,225.5778 Q20.5973,225.708 20.5973,226.0254 L20.5973,227.0508 Q20.5973,227.3356 20.5322,227.4333 Q20.3939,227.6367 20.1579,227.6367 Q19.9137,227.6367 19.7754,227.4251 Q19.7103,227.3275 19.7103,226.9775 L18.9372,226.9775 Z " fill="#000000"/><text fill="#000000" font-family="sans-serif" font-size="7.2917" lengthAdjust="spacing" textLength="70.3125" x="26.8229" y="229.5461">LegalEntityStateType</text><line style="stroke:#181818;stroke-width:0.2604166666666667;" x1="12.2396" x2="98.1771" y1="234.8958" y2="234.8958"/><text fill="#000000" font-family="sans-serif" font-size="7.2917" lengthAdjust="spacing" textLength="25.5208" x="14.8438" y="244.5485">ACTIVE</text><text fill="#000000" font-family="sans-serif" font-size="7.2917" lengthAdjust="spacing" textLength="31.7708" x="14.8438" y="253.7201">INACTIVE</text></g><!--class LegalEntityIdentifier--><g id="elem_LegalEntityIdentifier"><rect codeLine="34" fill="#F1F1F1" height="39.1764" id="LegalEntityIdentifier" rx="1.3021" ry="1.3021" style="stroke:#181818;stroke-width:0.2604166666666667;" width="81.25" x="297.9167" y="218.2292"/><ellipse cx="305.7292" cy="226.5625" fill="#ADD1B2" rx="5.7292" ry="5.7292" style="stroke:#181818;stroke-width:0.5208333333333334;"/><path d="M307.1696,224.4141 Q307.251,224.3001 307.3486,224.2432 Q307.4463,224.1862 307.5602,224.1862 Q307.7555,224.1862 307.8776,224.3245 Q307.9997,224.4548 307.9997,224.7721 L307.9997,225.529 Q307.9997,225.8464 307.8776,225.9847 Q307.7555,226.123 307.5602,226.123 Q307.3812,226.123 307.2754,226.0173 Q307.1696,225.9196 307.1126,225.651 Q307.0882,225.4639 306.9906,225.3662 Q306.8197,225.1709 306.5023,225.057 Q306.1849,224.943 305.8594,224.943 Q305.4606,224.943 305.127,225.1139 Q304.8014,225.2848 304.541,225.6755 Q304.2887,226.0661 304.2887,226.6032 L304.2887,227.1729 Q304.2887,227.8158 304.7526,228.2471 Q305.2165,228.6702 306.0465,228.6702 Q306.5348,228.6702 306.8766,228.54 Q307.0801,228.4587 307.2998,228.2308 Q307.4382,228.0924 307.5114,228.0518 Q307.5928,228.0111 307.6986,228.0111 Q307.8695,228.0111 307.9997,228.1494 Q308.138,228.2796 308.138,228.4587 Q308.138,228.6377 307.959,228.8493 Q307.6986,229.1504 307.2835,229.3213 Q306.722,229.5573 306.0465,229.5573 Q305.2572,229.5573 304.6305,229.2318 Q304.1178,228.9714 303.7598,228.418 Q303.4017,227.8564 303.4017,227.1891 L303.4017,226.5869 Q303.4017,225.8952 303.7191,225.3011 Q304.0446,224.6989 304.6143,224.3815 Q305.1839,224.056 305.8268,224.056 Q306.2093,224.056 306.543,224.1455 Q306.8848,224.2269 307.1696,224.4141 Z " fill="#000000"/><text fill="#000000" font-family="sans-serif" font-size="7.2917" lengthAdjust="spacing" textLength="64.5833" x="313.0208" y="229.5461">LegalEntityIdentifier</text><line style="stroke:#181818;stroke-width:0.2604166666666667;" x1="298.4375" x2="378.6458" y1="234.8958" y2="234.8958"/><text fill="#000000" font-family="sans-serif" font-size="7.2917" lengthAdjust="spacing" textLength="18.75" x="301.0417" y="244.5485">Value</text><text fill="#000000" font-family="sans-serif" font-size="7.2917" lengthAdjust="spacing" textLength="39.5833" x="301.0417" y="253.7201">IssuingBody</text></g><!--class LegalEntityRelation--><g id="elem_LegalEntityRelation"><rect codeLine="39" fill="#F1F1F1" height="16.6667" id="LegalEntityRelation" rx="1.3021" ry="1.3021" style="stroke:#181818;stroke-width:0.2604166666666667;" width="80.2083" x="187.5" y="229.4271"/><ellipse cx="195.3125" cy="237.7604" fill="#ADD1B2" rx="5.7292" ry="5.7292" style="stroke:#181818;stroke-width:0.5208333333333334;"/><path d="M196.7529,235.612 Q196.8343,235.498 196.932,235.4411 Q197.0296,235.3841 197.1436,235.3841 Q197.3389,235.3841 197.4609,235.5225 Q197.583,235.6527 197.583,235.9701 L197.583,236.7269 Q197.583,237.0443 197.4609,237.1826 Q197.3389,237.321 197.1436,237.321 Q196.9645,237.321 196.8587,237.2152 Q196.7529,237.1175 196.696,236.849 Q196.6715,236.6618 196.5739,236.5641 Q196.403,236.3688 196.0856,236.2549 Q195.7682,236.141 195.4427,236.141 Q195.0439,236.141 194.7103,236.3118 Q194.3848,236.4827 194.1243,236.8734 Q193.8721,237.264 193.8721,237.8011 L193.8721,238.3708 Q193.8721,239.0137 194.3359,239.445 Q194.7998,239.8682 195.6299,239.8682 Q196.1182,239.8682 196.46,239.738 Q196.6634,239.6566 196.8831,239.4287 Q197.0215,239.2904 197.0947,239.2497 Q197.1761,239.209 197.2819,239.209 Q197.4528,239.209 197.583,239.3473 Q197.7214,239.4775 197.7214,239.6566 Q197.7214,239.8356 197.5423,240.0472 Q197.2819,240.3483 196.8669,240.5192 Q196.3053,240.7552 195.6299,240.7552 Q194.8405,240.7552 194.2139,240.4297 Q193.7012,240.1693 193.3431,239.6159 Q192.985,239.0544 192.985,238.387 L192.985,237.7848 Q192.985,237.0931 193.3024,236.499 Q193.6279,235.8968 194.1976,235.5794 Q194.7673,235.2539 195.4102,235.2539 Q195.7926,235.2539 196.1263,235.3434 Q196.4681,235.4248 196.7529,235.612 Z " fill="#000000"/><text fill="#000000" font-family="sans-serif" font-size="7.2917" lengthAdjust="spacing" textLength="63.5417" x="202.6042" y="240.744">LegalEntityRelation</text></g><!--class LegalEntityRelationType--><g id="elem_LegalEntityRelationType"><rect codeLine="42" fill="#F1F1F1" height="39.1764" id="LegalEntityRelationType" rx="1.3021" ry="1.3021" style="stroke:#181818;stroke-width:0.2604166666666667;" width="98.9583" x="178.125" y="302.6042"/><ellipse cx="186.875" cy="310.9375" fill="#EB937F" rx="5.7292" ry="5.7292" style="stroke:#181818;stroke-width:0.5208333333333334;"/><path d="M186.2809,311.3525 L186.2809,312.6546 L188.5352,312.6546 L188.5352,312.1745 Q188.5352,311.8571 188.6572,311.7188 Q188.7874,311.5804 188.9827,311.5804 Q189.1781,311.5804 189.3001,311.7188 Q189.4222,311.8571 189.4222,312.1745 L189.4222,313.5417 L185.2555,313.5417 Q184.93,313.5417 184.7917,313.4196 Q184.6615,313.2975 184.6615,313.0941 Q184.6615,312.8988 184.7998,312.7767 Q184.9382,312.6546 185.2555,312.6546 L185.3939,312.6546 L185.3939,309.1878 L185.2555,309.1878 Q184.93,309.1878 184.7917,309.0658 Q184.6615,308.9437 184.6615,308.7402 Q184.6615,308.5449 184.7917,308.4229 Q184.93,308.3008 185.2555,308.3008 L189.2269,308.3008 L189.2269,309.6517 Q189.2269,309.9691 189.1048,310.1074 Q188.9909,310.2376 188.7874,310.2376 Q188.5921,310.2376 188.4701,310.1074 Q188.348,309.9691 188.348,309.6517 L188.348,309.1878 L186.2809,309.1878 L186.2809,310.4655 L187.054,310.4655 Q187.054,310.1237 187.1191,310.026 Q187.2575,309.8145 187.5016,309.8145 Q187.6969,309.8145 187.819,309.9528 Q187.9411,310.083 187.9411,310.4004 L187.9411,311.4258 Q187.9411,311.7106 187.876,311.8083 Q187.7376,312.0117 187.5016,312.0117 Q187.2575,312.0117 187.1191,311.8001 Q187.054,311.7025 187.054,311.3525 L186.2809,311.3525 Z " fill="#000000"/><text fill="#000000" font-family="sans-serif" font-size="7.2917" lengthAdjust="spacing" textLength="80.2083" x="194.375" y="313.9211">LegalEntityRelationType</text><line style="stroke:#181818;stroke-width:0.2604166666666667;" x1="178.6458" x2="276.5625" y1="319.2708" y2="319.2708"/><text fill="#000000" font-family="sans-serif" font-size="7.2917" lengthAdjust="spacing" textLength="92.7083" x="181.25" y="328.9235">IsAlternativeHeadquarterFor</text><text fill="#000000" font-family="sans-serif" font-size="7.2917" lengthAdjust="spacing" textLength="44.2708" x="181.25" y="338.0951">IsManagedBy</text></g><!--class IdentifierType--><g id="elem_IdentifierType"><rect codeLine="47" fill="#F1F1F1" height="48.348" id="IdentifierType" rx="1.3021" ry="1.3021" style="stroke:#181818;stroke-width:0.2604166666666667;" width="61.4583" x="307.8125" y="297.9167"/><ellipse cx="315.625" cy="306.25" fill="#ADD1B2" rx="5.7292" ry="5.7292" style="stroke:#181818;stroke-width:0.5208333333333334;"/><path d="M315.0309,306.665 L315.0309,307.9671 L317.2852,307.9671 L317.2852,307.487 Q317.2852,307.1696 317.4072,307.0313 Q317.5374,306.8929 317.7327,306.8929 Q317.9281,306.8929 318.0501,307.0313 Q318.1722,307.1696 318.1722,307.487 L318.1722,308.8542 L314.0055,308.8542 Q313.68,308.8542 313.5417,308.7321 Q313.4115,308.61 313.4115,308.4066 Q313.4115,308.2113 313.5498,308.0892 Q313.6882,307.9671 314.0055,307.9671 L314.1439,307.9671 L314.1439,304.5003 L314.0055,304.5003 Q313.68,304.5003 313.5417,304.3783 Q313.4115,304.2562 313.4115,304.0527 Q313.4115,303.8574 313.5417,303.7354 Q313.68,303.6133 314.0055,303.6133 L317.9769,303.6133 L317.9769,304.9642 Q317.9769,305.2816 317.8548,305.4199 Q317.7409,305.5501 317.5374,305.5501 Q317.3421,305.5501 317.2201,305.4199 Q317.098,305.2816 317.098,304.9642 L317.098,304.5003 L315.0309,304.5003 L315.0309,305.778 L315.804,305.778 Q315.804,305.4362 315.8691,305.3385 Q316.0075,305.127 316.2516,305.127 Q316.4469,305.127 316.569,305.2653 Q316.6911,305.3955 316.6911,305.7129 L316.6911,306.7383 Q316.6911,307.0231 316.626,307.1208 Q316.4876,307.3242 316.2516,307.3242 Q316.0075,307.3242 315.8691,307.1126 Q315.804,307.015 315.804,306.665 L315.0309,306.665 Z " fill="#000000"/><text fill="#000000" font-family="sans-serif" font-size="7.2917" lengthAdjust="spacing" textLength="44.7917" x="322.9167" y="309.2336">IdentifierType</text><line style="stroke:#181818;stroke-width:0.2604166666666667;" x1="308.3333" x2="368.75" y1="314.5833" y2="314.5833"/><text fill="#000000" font-family="sans-serif" font-size="7.2917" lengthAdjust="spacing" textLength="44.2708" x="310.9375" y="324.236">TechnicalKey</text><text fill="#000000" font-family="sans-serif" font-size="7.2917" lengthAdjust="spacing" textLength="18.75" x="310.9375" y="333.4076">Name</text><text fill="#000000" font-family="sans-serif" font-size="7.2917" lengthAdjust="spacing" textLength="6.25" x="310.9375" y="342.5791">...</text></g><!--class LegalForm--><g id="elem_LegalForm"><rect codeLine="66" fill="#F1F1F1" height="39.1764" id="LegalForm" rx="1.3021" ry="1.3021" style="stroke:#181818;stroke-width:0.2604166666666667;" width="52.0833" x="117.1875" y="218.2292"/><ellipse cx="125" cy="226.5625" fill="#ADD1B2" rx="5.7292" ry="5.7292" style="stroke:#181818;stroke-width:0.5208333333333334;"/><path d="M124.4059,226.9775 L124.4059,228.2796 L126.6602,228.2796 L126.6602,227.7995 Q126.6602,227.4821 126.7822,227.3438 Q126.9124,227.2054 127.1077,227.2054 Q127.3031,227.2054 127.4251,227.3438 Q127.5472,227.4821 127.5472,227.7995 L127.5472,229.1667 L123.3805,229.1667 Q123.055,229.1667 122.9167,229.0446 Q122.7865,228.9225 122.7865,228.7191 Q122.7865,228.5238 122.9248,228.4017 Q123.0632,228.2796 123.3805,228.2796 L123.5189,228.2796 L123.5189,224.8128 L123.3805,224.8128 Q123.055,224.8128 122.9167,224.6908 Q122.7865,224.5687 122.7865,224.3652 Q122.7865,224.1699 122.9167,224.0479 Q123.055,223.9258 123.3805,223.9258 L127.3519,223.9258 L127.3519,225.2767 Q127.3519,225.5941 127.2298,225.7324 Q127.1159,225.8626 126.9124,225.8626 Q126.7171,225.8626 126.5951,225.7324 Q126.473,225.5941 126.473,225.2767 L126.473,224.8128 L124.4059,224.8128 L124.4059,226.0905 L125.179,226.0905 Q125.179,225.7487 125.2441,225.651 Q125.3825,225.4395 125.6266,225.4395 Q125.8219,225.4395 125.944,225.5778 Q126.0661,225.708 126.0661,226.0254 L126.0661,227.0508 Q126.0661,227.3356 126.001,227.4333 Q125.8626,227.6367 125.6266,227.6367 Q125.3825,227.6367 125.2441,227.4251 Q125.179,227.3275 125.179,226.9775 L124.4059,226.9775 Z " fill="#000000"/><text fill="#000000" font-family="sans-serif" font-size="7.2917" lengthAdjust="spacing" textLength="35.4167" x="132.2917" y="229.5461">LegalForm</text><line style="stroke:#181818;stroke-width:0.2604166666666667;" x1="117.7083" x2="168.75" y1="234.8958" y2="234.8958"/><text fill="#000000" font-family="sans-serif" font-size="7.2917" lengthAdjust="spacing" textLength="44.2708" x="120.3125" y="244.5485">TechnicalKey</text><text fill="#000000" font-family="sans-serif" font-size="7.2917" lengthAdjust="spacing" textLength="6.25" x="120.3125" y="253.7201">...</text></g><!--class LegalAddress--><g id="elem_LegalAddress"><rect codeLine="71" fill="#F1F1F1" height="16.6667" id="LegalAddress" rx="1.3021" ry="1.3021" style="stroke:#181818;stroke-width:0.2604166666666667;" width="61.9792" x="256.5104" y="131.25"/><ellipse cx="264.3229" cy="139.5833" fill="#ADD1B2" rx="5.7292" ry="5.7292" style="stroke:#181818;stroke-width:0.5208333333333334;"/><path d="M265.7633,137.4349 Q265.8447,137.321 265.9424,137.264 Q266.04,137.207 266.154,137.207 Q266.3493,137.207 266.4714,137.3454 Q266.5934,137.4756 266.5934,137.793 L266.5934,138.5498 Q266.5934,138.8672 266.4714,139.0055 Q266.3493,139.1439 266.154,139.1439 Q265.9749,139.1439 265.8691,139.0381 Q265.7633,138.9404 265.7064,138.6719 Q265.682,138.4847 265.5843,138.387 Q265.4134,138.1917 265.096,138.0778 Q264.7786,137.9639 264.4531,137.9639 Q264.0544,137.9639 263.7207,138.1348 Q263.3952,138.3057 263.1348,138.6963 Q262.8825,139.0869 262.8825,139.624 L262.8825,140.1937 Q262.8825,140.8366 263.3464,141.2679 Q263.8102,141.6911 264.6403,141.6911 Q265.1286,141.6911 265.4704,141.5609 Q265.6738,141.4795 265.8936,141.2516 Q266.0319,141.1133 266.1051,141.0726 Q266.1865,141.0319 266.2923,141.0319 Q266.4632,141.0319 266.5934,141.1702 Q266.7318,141.3005 266.7318,141.4795 Q266.7318,141.6585 266.5527,141.8701 Q266.2923,142.1712 265.8773,142.3421 Q265.3158,142.5781 264.6403,142.5781 Q263.8509,142.5781 263.2243,142.2526 Q262.7116,141.9922 262.3535,141.4388 Q261.9954,140.8773 261.9954,140.21 L261.9954,139.6077 Q261.9954,138.916 262.3128,138.3219 Q262.6383,137.7197 263.208,137.4023 Q263.7777,137.0768 264.4206,137.0768 Q264.8031,137.0768 265.1367,137.1663 Q265.4785,137.2477 265.7633,137.4349 Z " fill="#000000"/><text fill="#000000" font-family="sans-serif" font-size="7.2917" lengthAdjust="spacing" textLength="45.3125" x="271.6146" y="142.5669">LegalAddress</text></g><!--link Address to LegalEntity--><g id="link_Address_LegalEntity"><path codeLine="98" d="M242.0052,61.1198 C228.9688,74.3333 215.7328,87.7431 200.6494,103.0348 " fill="none" id="Address-to-LegalEntity" style="stroke:#181818;stroke-width:0.5208333333333334;"/><polygon fill="none" points="196.2604,107.4844,199.9381,106.7226,200.6494,103.0348,196.9717,103.7966,196.2604,107.4844" style="stroke:#181818;stroke-width:0.5208333333333334;"/><text fill="#000000" font-family="sans-serif" font-size="6.7708" lengthAdjust="spacing" textLength="47.9167" x="224.4792" y="84.112">LegalEntityBPN</text><text fill="#000000" font-family="sans-serif" font-size="6.7708" lengthAdjust="spacing" textLength="10.4167" x="227.4394" y="72.2589">1..*</text><text fill="#000000" font-family="sans-serif" font-size="6.7708" lengthAdjust="spacing" textLength="3.6458" x="200.2798" y="101.7819">1</text></g><!--link Site to LegalEntity--><g id="link_Site_LegalEntity"><path codeLine="99" d="M164.0885,60.9792 C163.8646,66.0417 163.6563,71.5052 163.5417,76.5625 C163.3594,84.6458 163.2862,87.0691 163.4581,95.3034 " fill="none" id="Site-to-LegalEntity" style="stroke:#181818;stroke-width:0.5208333333333334;"/><polygon fill="none" points="163.5885,101.5521,165.6062,98.3843,163.4581,95.3034,161.4404,98.4712,163.5885,101.5521" style="stroke:#181818;stroke-width:0.5208333333333334;"/><text fill="#000000" font-family="sans-serif" font-size="6.7708" lengthAdjust="spacing" textLength="47.9167" x="164.0625" y="84.112">LegalEntityBPN</text><text fill="#000000" font-family="sans-serif" font-size="6.7708" lengthAdjust="spacing" textLength="2.6042" x="161.0715" y="72.2426">*</text><text fill="#000000" font-family="sans-serif" font-size="6.7708" lengthAdjust="spacing" textLength="3.6458" x="159.5984" y="95.9145">1</text></g><!--link LegalEntityState to LegalEntity--><g id="link_LegalEntityState_LegalEntity"><path codeLine="101" d="M94.0625,139.5833 C107.9271,139.5833 114.3385,139.5833 127.7708,139.5833 " fill="none" id="LegalEntityState-LegalEntity" style="stroke:#181818;stroke-width:0.5208333333333334;"/><polygon fill="#181818" points="90.9375,139.5833,95.625,141.6667,93.5417,139.5833,95.625,137.5,90.9375,139.5833" style="stroke:#181818;stroke-width:0.5208333333333334;"/><polygon fill="#181818" points="134.0208,139.5833,130.8958,137.5,127.7708,139.5833,130.8958,141.6667,134.0208,139.5833" style="stroke:#181818;stroke-width:0.5208333333333334;"/><text fill="#000000" font-family="sans-serif" font-size="6.7708" lengthAdjust="spacing" textLength="19.7917" x="102.6042" y="136.1954">States</text><text fill="#000000" font-family="sans-serif" font-size="6.7708" lengthAdjust="spacing" textLength="2.6042" x="95.159" y="137.8009">*</text><text fill="#000000" font-family="sans-serif" font-size="6.7708" lengthAdjust="spacing" textLength="3.6458" x="126.3646" y="137.793">1</text></g><!--link LegalEntityState to LegalEntityStateType--><g id="link_LegalEntityState_LegalEntityStateType"><path codeLine="102" d="M39.1771,159.1927 C30.6354,171.401 22.9844,187.6875 28.125,202.6042 C30.0156,208.0885 29.4459,208.3519 32.9459,213.0654 " fill="none" id="LegalEntityState-to-LegalEntityStateType" style="stroke:#181818;stroke-width:0.5208333333333334;"/><polygon fill="none" points="36.6719,218.0833,36.4815,214.3324,32.9459,213.0654,33.1362,216.8164,36.6719,218.0833" style="stroke:#181818;stroke-width:0.5208333333333334;"/><text fill="#000000" font-family="sans-serif" font-size="6.7708" lengthAdjust="spacing" textLength="14.5833" x="28.6458" y="200.7787">Type</text><text fill="#000000" font-family="sans-serif" font-size="6.7708" lengthAdjust="spacing" textLength="2.6042" x="33.3926" y="170.4627">*</text><text fill="#000000" font-family="sans-serif" font-size="6.7708" lengthAdjust="spacing" textLength="3.6458" x="29.3995" y="212.5377">1</text></g><!--link LegalEntity to LegalEntityIdentifier--><g id="link_LegalEntity_LegalEntityIdentifier"><path codeLine="104" d="M201.7909,158.7464 C216.9524,166.0589 230.0052,171.6875 247.3958,177.6042 C276.4167,187.4792 290.1823,174.6667 314.5833,193.2292 C322.7552,199.4427 327.2394,206.4127 331.0414,215.2096 " fill="none" id="LegalEntity-LegalEntityIdentifier" style="stroke:#181818;stroke-width:0.5208333333333334;"/><polygon fill="#181818" points="196.1615,156.0313,198.0711,159.2653,201.7909,158.7464,199.8812,155.5123,196.1615,156.0313" style="stroke:#181818;stroke-width:0.5208333333333334;"/><polygon fill="#181818" points="332.2813,218.0781,332.3339,212.9488,331.2481,215.6877,328.5092,214.6019,332.2813,218.0781" style="stroke:#181818;stroke-width:0.5208333333333334;"/><text fill="#000000" font-family="sans-serif" font-size="6.7708" lengthAdjust="spacing" textLength="28.6458" x="323.4375" y="200.7787">Identifiers</text><text fill="#000000" font-family="sans-serif" font-size="6.7708" lengthAdjust="spacing" textLength="3.6458" x="200.1687" y="165.5944">1</text><text fill="#000000" font-family="sans-serif" font-size="6.7708" lengthAdjust="spacing" textLength="2.6042" x="328.33" y="212.5316">*</text></g><!--link LegalEntityIdentifier to IdentifierType--><g id="link_LegalEntityIdentifier_IdentifierType"><path codeLine="105" d="M338.5417,257.401 C338.5417,269.4115 338.5417,278.7552 338.5417,291.5677 " fill="none" id="LegalEntityIdentifier-to-IdentifierType" style="stroke:#181818;stroke-width:0.5208333333333334;"/><polygon fill="none" points="338.5417,297.8177,340.625,294.6927,338.5417,291.5677,336.4583,294.6927,338.5417,297.8177" style="stroke:#181818;stroke-width:0.5208333333333334;"/><text fill="#000000" font-family="sans-serif" font-size="6.7708" lengthAdjust="spacing" textLength="14.5833" x="339.0625" y="280.4662">Type</text><text fill="#000000" font-family="sans-serif" font-size="6.7708" lengthAdjust="spacing" textLength="2.6042" x="335.7137" y="268.5276">*</text><text fill="#000000" font-family="sans-serif" font-size="6.7708" lengthAdjust="spacing" textLength="3.6458" x="334.6281" y="292.3495">1</text></g><!--link LegalEntity to LegalEntityRelation--><g id="link_LegalEntity_LegalEntityRelation"><path codeLine="107" d="M129.25,164.8013 C114.724,177.0304 107.5156,188.7708 118.2292,202.6042 C135.2083,224.5365 152.2448,209.724 178.6458,218.2292 C188.8021,221.5 197.0027,224.5869 206.06,228.2379 " fill="none" id="LegalEntity-LegalEntityRelation" style="stroke:#181818;stroke-width:0.5208333333333334;"/><polygon fill="#181818" points="134.0313,160.776,130.2989,161.1949,129.25,164.8013,132.9824,164.3824,134.0313,160.776" style="stroke:#181818;stroke-width:0.5208333333333334;"/><polygon fill="#181818" points="208.9583,229.4063,205.3897,225.7215,206.543,228.4326,203.8319,229.586,208.9583,229.4063" style="stroke:#181818;stroke-width:0.5208333333333334;"/><text fill="#000000" font-family="sans-serif" font-size="6.7708" lengthAdjust="spacing" textLength="28.125" x="118.75" y="200.7787">Relations</text><text fill="#000000" font-family="sans-serif" font-size="6.7708" lengthAdjust="spacing" textLength="3.6458" x="126.3762" y="170.9175">1</text><text fill="#000000" font-family="sans-serif" font-size="6.7708" lengthAdjust="spacing" textLength="2.6042" x="199.4971" y="223.8291">*</text></g><!--link LegalEntityRelation to LegalEntity--><g id="link_LegalEntityRelation_LegalEntity"><path codeLine="109" d="M197.3669,226.9358 C184.6846,221.5191 176.0104,215.401 168.2292,202.6042 C163.7396,195.224 161.9645,189.5179 161.3395,180.8565 " fill="none" id="LegalEntityRelation-LegalEntity" style="stroke:#181818;stroke-width:0.5208333333333334;"/><polygon fill="none" points="203.1146,229.3906,201.059,226.2473,197.3669,226.9358,199.4224,230.0791,203.1146,229.3906" style="stroke:#181818;stroke-width:0.5208333333333334;"/><polygon fill="#181818" points="161.1146,177.7396,159.374,182.5649,161.302,180.337,163.5299,182.265,161.1146,177.7396" style="stroke:#181818;stroke-width:0.5208333333333334;"/><text fill="#000000" font-family="sans-serif" font-size="6.7708" lengthAdjust="spacing" textLength="69.2708" x="168.75" y="200.7787">LegalEntitySourceBPN</text><text fill="#000000" font-family="sans-serif" font-size="6.7708" lengthAdjust="spacing" textLength="2.6042" x="191.6445" y="223.8081">*</text><text fill="#000000" font-family="sans-serif" font-size="6.7708" lengthAdjust="spacing" textLength="3.6458" x="156.9329" y="188.6866">1</text></g><!--link LegalEntityRelation to LegalEntity--><g id="link_LegalEntityRelation_LegalEntity"><path codeLine="110" d="M236.7595,224.1896 C242.6709,215.1115 246.7917,205.1094 240.625,193.2292 C231.2448,175.1615 215.3427,163.4095 198.9208,154.6803 " fill="none" id="LegalEntityRelation-LegalEntity-1" style="stroke:#181818;stroke-width:0.5208333333333334;"/><polygon fill="none" points="233.349,229.4271,236.8,227.9452,236.7595,224.1896,233.3084,225.6715,233.349,229.4271" style="stroke:#181818;stroke-width:0.5208333333333334;"/><polygon fill="#181818" points="196.1615,153.2135,199.3227,157.2533,198.4609,154.4359,201.2784,153.5741,196.1615,153.2135" style="stroke:#181818;stroke-width:0.5208333333333334;"/><text fill="#000000" font-family="sans-serif" font-size="6.7708" lengthAdjust="spacing" textLength="66.6667" x="243.2292" y="200.7787">LegalEntityTargetBPN</text><text fill="#000000" font-family="sans-serif" font-size="6.7708" lengthAdjust="spacing" textLength="2.6042" x="232.3275" y="223.7019">*</text><text fill="#000000" font-family="sans-serif" font-size="6.7708" lengthAdjust="spacing" textLength="3.6458" x="200.1687" y="153.0844">1</text></g><!--link LegalEntityRelation to LegalEntityRelationType--><g id="link_LegalEntityRelation_LegalEntityRelationType"><path codeLine="108" d="M227.6042,246.1198 C227.6042,258.9219 227.6042,278.4323 227.6042,296.276 " fill="none" id="LegalEntityRelation-to-LegalEntityRelationType" style="stroke:#181818;stroke-width:0.5208333333333334;"/><polygon fill="none" points="227.6042,302.526,229.6875,299.401,227.6042,296.276,225.5208,299.401,227.6042,302.526" style="stroke:#181818;stroke-width:0.5208333333333334;"/><text fill="#000000" font-family="sans-serif" font-size="6.7708" lengthAdjust="spacing" textLength="14.5833" x="228.125" y="280.4662">Type</text><text fill="#000000" font-family="sans-serif" font-size="6.7708" lengthAdjust="spacing" textLength="2.6042" x="224.5687" y="257.3281">*</text><text fill="#000000" font-family="sans-serif" font-size="6.7708" lengthAdjust="spacing" textLength="3.6458" x="223.6336" y="296.9925">1</text></g><!--link LegalEntity to LegalForm--><g id="link_LegalEntity_LegalForm"><path codeLine="116" d="M134.0208,158.9115 C123.3646,165.1146 111.2865,171.8854 100,177.6042 C84.651,185.3802 73.9792,178.8177 64.5833,193.2292 C62.3073,196.7188 62.1875,199.1927 64.5833,202.6042 C76.3177,219.3281 89.1563,209.9063 107.8125,218.2292 C110.8698,219.5938 108.4471,218.2971 111.5617,219.87 " fill="none" id="LegalEntity-to-LegalForm" style="stroke:#181818;stroke-width:0.5208333333333334;"/><polygon fill="none" points="117.1406,222.6875,115.2903,219.4191,111.5617,219.87,113.412,223.1384,117.1406,222.6875" style="stroke:#181818;stroke-width:0.5208333333333334;"/><text fill="#000000" font-family="sans-serif" font-size="6.7708" lengthAdjust="spacing" textLength="31.7708" x="65.1042" y="200.7787">LegalForm</text><text fill="#000000" font-family="sans-serif" font-size="6.7708" lengthAdjust="spacing" textLength="2.6042" x="127.2673" y="159.5726">*</text><text fill="#000000" font-family="sans-serif" font-size="6.7708" lengthAdjust="spacing" textLength="11.4583" x="101.6056" y="218.9222">0..1</text></g><!--link LegalEntity to LegalAddress--><g id="link_LegalEntity_LegalAddress"><path codeLine="118" d="M196.1458,139.5833 C214.6302,139.5833 234.8854,139.5833 253.3646,139.5833 " fill="none" id="LegalEntity-to-LegalAddress" style="stroke:#181818;stroke-width:0.5208333333333334;"/><polygon fill="#181818" points="256.4896,139.5833,251.8021,137.5,253.8854,139.5833,251.8021,141.6667,256.4896,139.5833" style="stroke:#181818;stroke-width:0.5208333333333334;"/><text fill="#000000" font-family="sans-serif" font-size="6.7708" lengthAdjust="spacing" textLength="41.1458" x="205.7292" y="136.1954">LegalAddress</text><text fill="#000000" font-family="sans-serif" font-size="6.7708" lengthAdjust="spacing" textLength="3.6458" x="200.3566" y="137.7681">1</text><text fill="#000000" font-family="sans-serif" font-size="6.7708" lengthAdjust="spacing" textLength="3.6458" x="248.637" y="137.7566">1</text></g><!--reverse link Address to LegalAddress--><g id="link_Address_LegalAddress"><path codeLine="119" d="M281.6963,68.9346 C284.8265,73.7315 282.5781,71.1927 284.375,76.5625 C290.6406,95.3177 289.5781,118.9948 288.4375,131.1146 " fill="none" id="Address-backto-LegalAddress" style="stroke:#181818;stroke-width:0.5208333333333334;"/><polygon fill="none" points="276.5729,61.0833,279.0792,70.6424,284.3133,67.2268,276.5729,61.0833" style="stroke:#181818;stroke-width:0.5208333333333334;"/></g><!--SRC=[hLNTRzem47_dhx1ugLIDh9lMbpnKeeogR9HM3Ukx6nzWaTYPxNJDFlxtsKxiE25qtJG9mPrzTx_xyW-vfwp00kU851ITdur61KxtU0jel8Gjpj2SAQegX1b1zx010Im5EKO_HWX1VMNj6ZDpZD3btMff1NkrmZbOBTbneRosa7TOA9hI0ZFr4IjiJsS2i08oLLRxKX2jMUNNg4LCg886oe8bZHX5KSzoIeW0AKFZwQ5ncc5j4zIHAEmH7d16oPNWUQkjUGjJvWUEwwfmpjFPUl4mh-jTUMKOT45CqXiAeaKkNQzaITdsafFggFizP5XHpgppO7BE8iXl8QUP0i7q-HDS0oPVIpqK45TSDFStcEbj89TLhxDjja6uDQGxHbESVORA7lXf1zq-GGhlWI5UAhJHVKNlFqHdvsyGbeXnfGi3B13T8BMZ4kbFpWba6H2KSY4WLLbbWzGDc9bldKRQrduIjCx8C-rlnGRTjgNhvqimzdfESozUUManInevMSpQUE4Zq5tBZtLYUDtyVZQvcGP8fHyR5eH-rpLNeC9gETjGOfxWJEWt82ZsMISxBCoORhyn4Axo7QHxSpX_jaFE4bwArFLbLUQF86utnbClrmqOLJQNIonLW6O2JPLpXEUZT-tv4fuW2_jkQgDvaK6kUwPBU_jIfU6RIWKjr8DEKXE5hpUabfCUkNH7NVkRBV3EKu4VNSALo1hn6ZDN_YTDIhuJoedr39leRdJZTr5qEaOJCk5Q7dVeC0urpJtQpNBN-DKE8zIvD_QdasnoOKCSC5QCxA_iUjLtnp1RoegH-T6-Ww3a43HWh3WWX1vyODN9eSSW3VeWzY6qPxiOER47woqiw67T7JRqfHyBm6qEBqshVblraFyzoXgBBQWwol_ZokFJxF5dt3ketqFFg3F50I8zkaVUxooAN1CiPyQjFBG04n6spJsykACwDtSxAIS_BzmZ_GEv7k2L3Tu0tyO3Xt_5Rw_PxYxbnQYZotwOhdMuxW7rnO4oqWIsqoMW7DIE4rahdVRbpRz1UzDRvyRWDm00]--></g></svg>