<svg xmlns="http://www.w3.org/2000/svg" xmlns:xlink="http://www.w3.org/1999/xlink" contentStyleType="text/css" data-diagram-type="CLASS" height="352.6042px" preserveAspectRatio="none" style="width:407px;height:352px;background:#FFFFFF;" version="1.1" viewBox="0 0 407 352" width="407.8125px" zoomAndPan="magnify"><?plantuml 1.2026.3?><defs/><g><!--cluster Legal Entity and References--><g class="cluster" data-qualified-name="Legal Entity and References" data-source-line="4" id="ent0002"><path d="M4.4271,3.125 L108.9966,3.125 A1.9531,1.9531 0 0 1 110.2987,4.4271 L113.9445,14.8376 L398.6979,14.8376 A1.3021,1.3021 0 0 1 400,16.1397 L400,343.6719 A1.3021,1.3021 0 0 1 398.6979,344.974 L4.4271,344.974 A1.3021,1.3021 0 0 1 3.125,343.6719 L3.125,4.4271 A1.3021,1.3021 0 0 1 4.4271,3.125" fill="none" style="stroke:#000000;stroke-width:0.7813;"/><line style="stroke:#000000;stroke-width:0.7813;" x1="3.125" x2="113.9445" y1="14.8376" y2="14.8376"/><text fill="#000000" font-family="sans-serif" font-size="7.2917" font-weight="700" lengthAdjust="spacing" textLength="104.0487" x="5.2083" y="11.2162">Legal Entity and References</text></g><!--class LegalEntity--><g class="entity" data-qualified-name="Legal Entity and References.LegalEntity" data-source-line="5" id="ent0003"><rect fill="#F1F1F1" height="72.3592" rx="1.3021" ry="1.3021" style="stroke:#181818;stroke-width:0.2604;" width="65.8971" x="136.3229" y="99.4688"/><ellipse cx="148.9728" cy="107.8021" fill="#ADD1B2" rx="5.7292" ry="5.7292" style="stroke:#181818;stroke-width:0.5208;"/><path d="M150.8553,111.1875 L146.8346,111.1875 L146.8346,104.7328 L150.8553,104.7328 L150.8553,105.8568 L148.1099,105.8568 L148.1099,107.249 L150.5959,107.249 L150.5959,108.373 L148.1099,108.373 L148.1099,110.0634 L150.8553,110.0634 Z " fill="#000000"/><text fill="#000000" font-family="sans-serif" font-size="7.2917" lengthAdjust="spacing" textLength="38.4806" x="157.3395" y="110.5578">LegalEntity</text><line style="stroke:#181818;stroke-width:0.2604;" x1="136.8438" x2="201.6992" y1="116.1354" y2="116.1354"/><text fill="#000000" font-family="sans-serif" font-size="7.2917" lengthAdjust="spacing" textLength="17.4993" x="139.4479" y="125.2683">BPNL</text><text fill="#000000" font-family="sans-serif" font-size="7.2917" lengthAdjust="spacing" textLength="38.915" x="139.4479" y="133.856">LegalName</text><text fill="#000000" font-family="sans-serif" font-size="7.2917" lengthAdjust="spacing" textLength="38.9257" x="139.4479" y="142.4436">ShortName</text><text fill="#000000" font-family="sans-serif" font-size="7.2917" lengthAdjust="spacing" textLength="59.6471" x="139.4479" y="151.0313">IsParticipantData</text><text fill="#000000" font-family="sans-serif" font-size="7.2917" lengthAdjust="spacing" textLength="35.2549" x="139.4479" y="159.6189">CreatedAt</text><text fill="#000000" font-family="sans-serif" font-size="7.2917" lengthAdjust="spacing" textLength="32.8054" x="139.4479" y="168.2065">UpdateAt</text></g><!--class Site--><g class="entity" data-qualified-name="Legal Entity and References.Site" data-source-line="14" id="ent0004"><rect fill="#F1F1F1" height="38.0086" rx="1.3021" ry="1.3021" style="stroke:#181818;stroke-width:0.2604;" width="29.4912" x="154.526" y="21.3542"/><ellipse cx="162.3385" cy="29.6875" fill="#ADD1B2" rx="5.7292" ry="5.7292" style="stroke:#181818;stroke-width:0.5208;"/><path d="M164.221,33.0729 L160.2003,33.0729 L160.2003,26.6182 L164.221,26.6182 L164.221,27.7423 L161.4757,27.7423 L161.4757,29.1344 L163.9616,29.1344 L163.9616,30.2584 L161.4757,30.2584 L161.4757,31.9489 L164.221,31.9489 Z " fill="#000000"/><text fill="#000000" font-family="sans-serif" font-size="7.2917" lengthAdjust="spacing" textLength="12.8245" x="169.6302" y="32.4432">Site</text><line style="stroke:#181818;stroke-width:0.2604;" x1="155.0469" x2="183.4964" y1="38.0208" y2="38.0208"/><text fill="#000000" font-family="sans-serif" font-size="7.2917" lengthAdjust="spacing" textLength="17.5385" x="157.651" y="47.1537">BPNS</text><text fill="#000000" font-family="sans-serif" font-size="7.2917" lengthAdjust="spacing" textLength="6.9214" x="157.651" y="55.7414">...</text></g><!--class Address--><g class="entity" data-qualified-name="Legal Entity and References.Address" data-source-line="19" id="ent0005"><rect fill="#F1F1F1" height="38.0086" rx="1.3021" ry="1.3021" style="stroke:#181818;stroke-width:0.2604;" width="45.3562" x="245.5521" y="21.3542"/><ellipse cx="253.3646" cy="29.6875" fill="#ADD1B2" rx="5.7292" ry="5.7292" style="stroke:#181818;stroke-width:0.5208;"/><path d="M255.247,33.0729 L251.2263,33.0729 L251.2263,26.6182 L255.247,26.6182 L255.247,27.7423 L252.5017,27.7423 L252.5017,29.1344 L254.9876,29.1344 L254.9876,30.2584 L252.5017,30.2584 L252.5017,31.9489 L255.247,31.9489 Z " fill="#000000"/><text fill="#000000" font-family="sans-serif" font-size="7.2917" lengthAdjust="spacing" textLength="28.6896" x="260.6563" y="32.4432">Address</text><line style="stroke:#181818;stroke-width:0.2604;" x1="246.0729" x2="290.3875" y1="38.0208" y2="38.0208"/><text fill="#000000" font-family="sans-serif" font-size="7.2917" lengthAdjust="spacing" textLength="18.6422" x="248.6771" y="47.1537">BPNA</text><text fill="#000000" font-family="sans-serif" font-size="7.2917" lengthAdjust="spacing" textLength="6.9214" x="248.6771" y="55.7414">...</text></g><!--class LegalEntityState--><g class="entity" data-qualified-name="Legal Entity and References.LegalEntityState" data-source-line="24" id="ent0006"><rect fill="#F1F1F1" height="38.0086" rx="1.3021" ry="1.3021" style="stroke:#181818;stroke-width:0.2604;" width="72.6181" x="20.9844" y="116.6458"/><ellipse cx="28.7969" cy="124.9792" fill="#ADD1B2" rx="5.7292" ry="5.7292" style="stroke:#181818;stroke-width:0.5208;"/><path d="M30.085,128.1787 Q29.7823,128.3343 29.4494,128.4121 Q29.1165,128.49 28.7491,128.49 Q27.4434,128.49 26.756,127.6296 Q26.0686,126.7693 26.0686,125.1437 Q26.0686,123.5138 26.756,122.6535 Q27.4434,121.7931 28.7491,121.7931 Q29.1165,121.7931 29.4538,121.871 Q29.791,121.9488 30.085,122.1044 L30.085,123.5225 Q29.7564,123.2198 29.4473,123.0793 Q29.1382,122.9388 28.8096,122.9388 Q28.1092,122.9388 27.7525,123.4944 Q27.3959,124.0499 27.3959,125.1437 Q27.3959,126.2332 27.7525,126.7887 Q28.1092,127.3443 28.8096,127.3443 Q29.1382,127.3443 29.4473,127.2038 Q29.7564,127.0633 30.085,126.7606 Z " fill="#000000"/><text fill="#000000" font-family="sans-serif" font-size="7.2917" lengthAdjust="spacing" textLength="55.9514" x="36.0885" y="127.7349">LegalEntityState</text><line style="stroke:#181818;stroke-width:0.2604;" x1="21.5052" x2="93.0816" y1="133.3125" y2="133.3125"/><text fill="#000000" font-family="sans-serif" font-size="7.2917" lengthAdjust="spacing" textLength="35.7783" x="24.1094" y="142.4454">ValidFrom</text><text fill="#000000" font-family="sans-serif" font-size="7.2917" lengthAdjust="spacing" textLength="26.6886" x="24.1094" y="151.033">ValidTo</text></g><!--class LegalEntityStateType--><g class="entity" data-qualified-name="Legal Entity and References.LegalEntityStateType" data-source-line="29" id="ent0007"><rect fill="#F1F1F1" height="38.0086" rx="1.3021" ry="1.3021" style="stroke:#181818;stroke-width:0.2604;" width="89.6901" x="11.4063" y="211.9323"/><ellipse cx="19.2188" cy="220.2656" fill="#EB937F" rx="5.7292" ry="5.7292" style="stroke:#181818;stroke-width:0.5208;"/><path d="M21.1012,223.651 L17.0805,223.651 L17.0805,217.1963 L21.1012,217.1963 L21.1012,218.3204 L18.3559,218.3204 L18.3559,219.7125 L20.8418,219.7125 L20.8418,220.8366 L18.3559,220.8366 L18.3559,222.527 L21.1012,222.527 Z " fill="#000000"/><text fill="#000000" font-family="sans-serif" font-size="7.2917" lengthAdjust="spacing" textLength="73.0235" x="26.5104" y="223.0214">LegalEntityStateType</text><line style="stroke:#181818;stroke-width:0.2604;" x1="11.9271" x2="100.5756" y1="228.599" y2="228.599"/><text fill="#000000" font-family="sans-serif" font-size="7.2917" lengthAdjust="spacing" textLength="25.5066" x="14.5313" y="237.7319">ACTIVE</text><text fill="#000000" font-family="sans-serif" font-size="7.2917" lengthAdjust="spacing" textLength="32.9941" x="14.5313" y="246.3195">INACTIVE</text></g><!--class LegalEntityIdentifier--><g class="entity" data-qualified-name="Legal Entity and References.LegalEntityIdentifier" data-source-line="34" id="ent0008"><rect fill="#F1F1F1" height="38.0086" rx="1.3021" ry="1.3021" style="stroke:#181818;stroke-width:0.2604;" width="87.0946" x="304.3698" y="211.9323"/><ellipse cx="312.1823" cy="220.2656" fill="#ADD1B2" rx="5.7292" ry="5.7292" style="stroke:#181818;stroke-width:0.5208;"/><path d="M313.4704,223.4651 Q313.1678,223.6208 312.8349,223.6986 Q312.502,223.7764 312.1345,223.7764 Q310.8288,223.7764 310.1414,222.9161 Q309.454,222.0557 309.454,220.4302 Q309.454,218.8003 310.1414,217.9399 Q310.8288,217.0796 312.1345,217.0796 Q312.502,217.0796 312.8392,217.1574 Q313.1764,217.2352 313.4704,217.3909 L313.4704,218.8089 Q313.1418,218.5063 312.8327,218.3658 Q312.5236,218.2253 312.195,218.2253 Q311.4946,218.2253 311.138,218.7808 Q310.7813,219.3364 310.7813,220.4302 Q310.7813,221.5196 311.138,222.0752 Q311.4946,222.6307 312.195,222.6307 Q312.5236,222.6307 312.8327,222.4902 Q313.1418,222.3497 313.4704,222.0471 Z " fill="#000000"/><text fill="#000000" font-family="sans-serif" font-size="7.2917" lengthAdjust="spacing" textLength="70.428" x="319.474" y="223.0214">LegalEntityIdentifier</text><line style="stroke:#181818;stroke-width:0.2604;" x1="304.8906" x2="390.9436" y1="228.599" y2="228.599"/><text fill="#000000" font-family="sans-serif" font-size="7.2917" lengthAdjust="spacing" textLength="19.4895" x="307.4948" y="237.7319">Value</text><text fill="#000000" font-family="sans-serif" font-size="7.2917" lengthAdjust="spacing" textLength="42.3116" x="307.4948" y="246.3195">IssuingBody</text></g><!--class LegalEntityRelation--><g class="entity" data-qualified-name="Legal Entity and References.LegalEntityRelation" data-source-line="39" id="ent0009"><rect fill="#F1F1F1" height="16.6667" rx="1.3021" ry="1.3021" style="stroke:#181818;stroke-width:0.2604;" width="83.7941" x="190.9167" y="222.6042"/><ellipse cx="198.7292" cy="230.9375" fill="#ADD1B2" rx="5.7292" ry="5.7292" style="stroke:#181818;stroke-width:0.5208;"/><path d="M200.0173,234.137 Q199.7146,234.2927 199.3817,234.3705 Q199.0488,234.4483 198.6814,234.4483 Q197.3757,234.4483 196.6883,233.588 Q196.0009,232.7276 196.0009,231.102 Q196.0009,229.4721 196.6883,228.6118 Q197.3757,227.7515 198.6814,227.7515 Q199.0488,227.7515 199.3861,227.8293 Q199.7233,227.9071 200.0173,228.0627 L200.0173,229.4808 Q199.6887,229.1782 199.3796,229.0377 Q199.0705,228.8971 198.7419,228.8971 Q198.0415,228.8971 197.6848,229.4527 Q197.3282,230.0082 197.3282,231.102 Q197.3282,232.1915 197.6848,232.7471 Q198.0415,233.3026 198.7419,233.3026 Q199.0705,233.3026 199.3796,233.1621 Q199.6887,233.0216 200.0173,232.719 Z " fill="#000000"/><text fill="#000000" font-family="sans-serif" font-size="7.2917" lengthAdjust="spacing" textLength="67.1275" x="206.0208" y="233.6932">LegalEntityRelation</text></g><!--class LegalEntityRelationType--><g class="entity" data-qualified-name="Legal Entity and References.LegalEntityRelationType" data-source-line="42" id="ent0010"><rect fill="#F1F1F1" height="46.5963" rx="1.3021" ry="1.3021" style="stroke:#181818;stroke-width:0.2604;" width="105.5099" x="11.3073" y="290.0469"/><ellipse cx="21.2095" cy="298.3802" fill="#EB937F" rx="5.7292" ry="5.7292" style="stroke:#181818;stroke-width:0.5208;"/><path d="M23.0919,301.7656 L19.0712,301.7656 L19.0712,295.3109 L23.0919,295.3109 L23.0919,296.435 L20.3466,296.435 L20.3466,297.8271 L22.8325,297.8271 L22.8325,298.9511 L20.3466,298.9511 L20.3466,300.6416 L23.0919,300.6416 Z " fill="#000000"/><text fill="#000000" font-family="sans-serif" font-size="7.2917" lengthAdjust="spacing" textLength="84.1995" x="28.9655" y="301.1359">LegalEntityRelationType</text><line style="stroke:#181818;stroke-width:0.2604;" x1="11.8281" x2="116.2964" y1="306.7135" y2="306.7135"/><text fill="#000000" font-family="sans-serif" font-size="7.2917" lengthAdjust="spacing" textLength="99.2599" x="14.4323" y="315.8464">IsAlternativeHeadquarterFor</text><text fill="#000000" font-family="sans-serif" font-size="7.2917" lengthAdjust="spacing" textLength="45.8791" x="14.4323" y="324.4341">IsManagedBy</text><text fill="#000000" font-family="sans-serif" font-size="7.2917" lengthAdjust="spacing" textLength="38.2813" x="14.4323" y="333.0217">IsOwnedBy</text></g><!--class RelationValidityPeriod--><g class="entity" data-qualified-name="Legal Entity and References.RelationValidityPeriod" data-source-line="48" id="ent0011"><rect fill="#F1F1F1" height="38.0086" rx="1.3021" ry="1.3021" style="stroke:#181818;stroke-width:0.2604;" width="93.8095" x="134.8646" y="294.3385"/><ellipse cx="142.6771" cy="302.6719" fill="#ADD1B2" rx="5.7292" ry="5.7292" style="stroke:#181818;stroke-width:0.5208;"/><path d="M143.9652,305.8714 Q143.6625,306.027 143.3297,306.1048 Q142.9968,306.1827 142.6293,306.1827 Q141.3236,306.1827 140.6362,305.3223 Q139.9488,304.462 139.9488,302.8364 Q139.9488,301.2065 140.6362,300.3462 Q141.3236,299.4858 142.6293,299.4858 Q142.9968,299.4858 143.334,299.5637 Q143.6712,299.6415 143.9652,299.7971 L143.9652,301.2152 Q143.6366,300.9125 143.3275,300.772 Q143.0184,300.6315 142.6898,300.6315 Q141.9894,300.6315 141.6327,301.1871 Q141.2761,301.7426 141.2761,302.8364 Q141.2761,303.9259 141.6327,304.4814 Q141.9894,305.037 142.6898,305.037 Q143.0184,305.037 143.3275,304.8965 Q143.6366,304.756 143.9652,304.4533 Z " fill="#000000"/><text fill="#000000" font-family="sans-serif" font-size="7.2917" lengthAdjust="spacing" textLength="77.1428" x="149.9688" y="305.4276">RelationValidityPeriod</text><line style="stroke:#181818;stroke-width:0.2604;" x1="135.3854" x2="228.1533" y1="311.0052" y2="311.0052"/><text fill="#000000" font-family="sans-serif" font-size="7.2917" lengthAdjust="spacing" textLength="35.7783" x="137.9896" y="320.1381">ValidFrom</text><text fill="#000000" font-family="sans-serif" font-size="7.2917" lengthAdjust="spacing" textLength="26.6886" x="137.9896" y="328.7257">ValidTo</text></g><!--class ReasonCode--><g class="entity" data-qualified-name="Legal Entity and References.ReasonCode" data-source-line="53" id="ent0012"><rect fill="#F1F1F1" height="38.0086" rx="1.3021" ry="1.3021" style="stroke:#181818;stroke-width:0.2604;" width="60.2636" x="246.9531" y="294.3385"/><ellipse cx="254.7656" cy="302.6719" fill="#ADD1B2" rx="5.7292" ry="5.7292" style="stroke:#181818;stroke-width:0.5208;"/><path d="M256.6481,306.0573 L252.6274,306.0573 L252.6274,299.6026 L256.6481,299.6026 L256.6481,300.7266 L253.9027,300.7266 L253.9027,302.1187 L256.3887,302.1187 L256.3887,303.2428 L253.9027,303.2428 L253.9027,304.9332 L256.6481,304.9332 Z " fill="#000000"/><text fill="#000000" font-family="sans-serif" font-size="7.2917" lengthAdjust="spacing" textLength="43.5969" x="262.0573" y="305.4276">ReasonCode</text><line style="stroke:#181818;stroke-width:0.2604;" x1="247.474" x2="306.6959" y1="311.0052" y2="311.0052"/><text fill="#000000" font-family="sans-serif" font-size="7.2917" lengthAdjust="spacing" textLength="46.0678" x="250.0781" y="320.1381">TechnicalKey</text><text fill="#000000" font-family="sans-serif" font-size="7.2917" lengthAdjust="spacing" textLength="40.4958" x="250.0781" y="328.7257">Description</text></g><!--class IdentifierType--><g class="entity" data-qualified-name="Legal Entity and References.IdentifierType" data-source-line="58" id="ent0013"><rect fill="#F1F1F1" height="46.5963" rx="1.3021" ry="1.3021" style="stroke:#181818;stroke-width:0.2604;" width="65.686" x="325.4896" y="290.0469"/><ellipse cx="333.3021" cy="298.3802" fill="#ADD1B2" rx="5.7292" ry="5.7292" style="stroke:#181818;stroke-width:0.5208;"/><path d="M335.1845,301.7656 L331.1638,301.7656 L331.1638,295.3109 L335.1845,295.3109 L335.1845,296.435 L332.4392,296.435 L332.4392,297.8271 L334.9251,297.8271 L334.9251,298.9511 L332.4392,298.9511 L332.4392,300.6416 L335.1845,300.6416 Z " fill="#000000"/><text fill="#000000" font-family="sans-serif" font-size="7.2917" lengthAdjust="spacing" textLength="49.0194" x="340.5938" y="301.1359">IdentifierType</text><line style="stroke:#181818;stroke-width:0.2604;" x1="326.0104" x2="390.6548" y1="306.7135" y2="306.7135"/><text fill="#000000" font-family="sans-serif" font-size="7.2917" lengthAdjust="spacing" textLength="46.0678" x="328.6146" y="315.8464">TechnicalKey</text><text fill="#000000" font-family="sans-serif" font-size="7.2917" lengthAdjust="spacing" textLength="20.2835" x="328.6146" y="324.4341">Name</text><text fill="#000000" font-family="sans-serif" font-size="7.2917" lengthAdjust="spacing" textLength="6.9214" x="328.6146" y="333.0217">...</text></g><!--class LegalForm--><g class="entity" data-qualified-name="Legal Entity and References.LegalForm" data-source-line="77" id="ent0014"><rect fill="#F1F1F1" height="38.0086" rx="1.3021" ry="1.3021" style="stroke:#181818;stroke-width:0.2604;" width="53.4775" x="119.0938" y="211.9323"/><ellipse cx="126.9063" cy="220.2656" fill="#ADD1B2" rx="5.7292" ry="5.7292" style="stroke:#181818;stroke-width:0.5208;"/><path d="M128.7887,223.651 L124.768,223.651 L124.768,217.1963 L128.7887,217.1963 L128.7887,218.3204 L126.0434,218.3204 L126.0434,219.7125 L128.5293,219.7125 L128.5293,220.8366 L126.0434,220.8366 L126.0434,222.527 L128.7887,222.527 Z " fill="#000000"/><text fill="#000000" font-family="sans-serif" font-size="7.2917" lengthAdjust="spacing" textLength="36.8108" x="134.1979" y="223.0214">LegalForm</text><line style="stroke:#181818;stroke-width:0.2604;" x1="119.6146" x2="172.0504" y1="228.599" y2="228.599"/><text fill="#000000" font-family="sans-serif" font-size="7.2917" lengthAdjust="spacing" textLength="46.0678" x="122.2188" y="237.7319">TechnicalKey</text><text fill="#000000" font-family="sans-serif" font-size="7.2917" lengthAdjust="spacing" textLength="6.9214" x="122.2188" y="246.3195">...</text></g><!--class LegalAddress--><g class="entity" data-qualified-name="Legal Entity and References.LegalAddress" data-source-line="82" id="ent0015"><rect fill="#F1F1F1" height="16.6667" rx="1.3021" ry="1.3021" style="stroke:#181818;stroke-width:0.2604;" width="63.9877" x="264.8802" y="127.3125"/><ellipse cx="272.6927" cy="135.6458" fill="#ADD1B2" rx="5.7292" ry="5.7292" style="stroke:#181818;stroke-width:0.5208;"/><path d="M273.9808,138.8453 Q273.6782,139.001 273.3453,139.0788 Q273.0124,139.1566 272.6449,139.1566 Q271.3393,139.1566 270.6518,138.2963 Q269.9644,137.4359 269.9644,135.8104 Q269.9644,134.1805 270.6518,133.3201 Q271.3393,132.4598 272.6449,132.4598 Q273.0124,132.4598 273.3496,132.5376 Q273.6868,132.6154 273.9808,132.7711 L273.9808,134.1891 Q273.6522,133.8865 273.3431,133.746 Q273.034,133.6055 272.7054,133.6055 Q272.005,133.6055 271.6484,134.161 Q271.2917,134.7166 271.2917,135.8104 Q271.2917,136.8999 271.6484,137.4554 Q272.005,138.0109 272.7054,138.0109 Q273.034,138.0109 273.3431,137.8704 Q273.6522,137.7299 273.9808,137.4273 Z " fill="#000000"/><text fill="#000000" font-family="sans-serif" font-size="7.2917" lengthAdjust="spacing" textLength="47.3211" x="279.9844" y="138.4016">LegalAddress</text></g><!--link Address to LegalEntity--><g class="link" data-entity-1="ent0005" data-entity-2="ent0003" data-link-type="aggregation" data-source-line="109" id="lnk16"><path codeLine="109" d="M248.6771,59.5 C235.5,72.0521 222.3016,84.6164 206.9474,99.2414" fill="none" id="Address-to-LegalEntity" style="stroke:#181818;stroke-width:0.5208;"/><polygon fill="none" points="202.4219,103.5521,206.1215,102.9053,206.9474,99.2414,203.2478,99.8882,202.4219,103.5521" style="stroke:#181818;stroke-width:0.5208;"/><text fill="#000000" font-family="sans-serif" font-size="6.7708" lengthAdjust="spacing" textLength="48.3711" x="231.0469" y="82.0564">LegalEntityBPN</text><text fill="#000000" font-family="sans-serif" font-size="6.7708" lengthAdjust="spacing" textLength="11.8291" x="232.9052" y="70.0213">1..*</text><text fill="#000000" font-family="sans-serif" font-size="6.7708" lengthAdjust="spacing" textLength="4.2814" x="206.2818" y="98.3567">1</text></g><!--link Site to LegalEntity--><g class="link" data-entity-1="ent0004" data-entity-2="ent0003" data-link-type="aggregation" data-source-line="110" id="lnk17"><path codeLine="110" d="M169.2708,59.5 C169.2708,70.875 169.2708,79.5417 169.2708,93.125" fill="none" id="Site-to-LegalEntity" style="stroke:#181818;stroke-width:0.5208;"/><polygon fill="none" points="169.2708,99.375,171.3542,96.25,169.2708,93.125,167.1875,96.25,169.2708,99.375" style="stroke:#181818;stroke-width:0.5208;"/><text fill="#000000" font-family="sans-serif" font-size="6.7708" lengthAdjust="spacing" textLength="48.3711" x="169.7917" y="82.0564">LegalEntityBPN</text><text fill="#000000" font-family="sans-serif" font-size="6.7708" lengthAdjust="spacing" textLength="3.2631" x="165.889" y="70.0213">*</text><text fill="#000000" font-family="sans-serif" font-size="6.7708" lengthAdjust="spacing" textLength="4.2814" x="164.8952" y="93.9733">1</text></g><!--link LegalEntityState to LegalEntity--><g class="link" data-entity-1="ent0006" data-entity-2="ent0003" data-link-type="composition" data-source-line="112" id="lnk19"><path codeLine="112" d="M96.9271,135.6458 C110.5885,135.6458 116.6354,135.6458 129.9635,135.6458" fill="none" id="LegalEntityState-LegalEntity" style="stroke:#181818;stroke-width:0.5208;"/><polygon fill="#181818" points="93.8021,135.6458,98.4896,137.7292,96.4063,135.6458,98.4896,133.5625,93.8021,135.6458" style="stroke:#181818;stroke-width:0.5208;"/><polygon fill="#181818" points="136.2135,135.6458,133.0885,133.5625,129.9635,135.6458,133.0885,137.7292,136.2135,135.6458" style="stroke:#181818;stroke-width:0.5208;"/><text fill="#000000" font-family="sans-serif" font-size="6.7708" lengthAdjust="spacing" textLength="19.6744" x="105.3281" y="132.296">States</text><text fill="#000000" font-family="sans-serif" font-size="6.7708" lengthAdjust="spacing" textLength="3.2631" x="97.7353" y="133.9844">*</text><text fill="#000000" font-family="sans-serif" font-size="6.7708" lengthAdjust="spacing" textLength="4.2814" x="127.771" y="133.9128">1</text></g><!--link LegalEntityState to LegalEntityStateType--><g class="link" data-entity-1="ent0006" data-entity-2="ent0007" data-link-type="aggregation" data-source-line="113" id="lnk20"><path codeLine="113" d="M43.5417,154.8594 C37.5469,164.1615 31.1875,175.8646 28.125,187.4531 C25.8229,196.1563 25.8714,199.7527 31.4287,206.8829" fill="none" id="LegalEntityState-to-LegalEntityStateType" style="stroke:#181818;stroke-width:0.5208;"/><polygon fill="none" points="35.2708,211.8125,34.993,208.067,31.4287,206.8829,31.7066,210.6284,35.2708,211.8125" style="stroke:#181818;stroke-width:0.5208;"/><text fill="#000000" font-family="sans-serif" font-size="6.7708" lengthAdjust="spacing" textLength="15.8526" x="28.6458" y="194.52">Type</text><text fill="#000000" font-family="sans-serif" font-size="6.7708" lengthAdjust="spacing" textLength="3.2631" x="37.7964" y="165.3923">*</text><text fill="#000000" font-family="sans-serif" font-size="6.7708" lengthAdjust="spacing" textLength="4.2814" x="26.8623" y="206.3147">1</text></g><!--link LegalEntity to LegalEntityIdentifier--><g class="link" data-entity-1="ent0003" data-entity-2="ent0008" data-link-type="composition" data-source-line="115" id="lnk21"><path codeLine="115" d="M208.2042,153.8271 C224.0949,160.7073 237.7917,166.0833 255.7292,171.8281 C284.9271,181.1771 298.2552,169.2396 322.9167,187.4531 C331.1094,193.5 335.7287,200.2756 339.7652,208.8694" fill="none" id="LegalEntity-LegalEntityIdentifier" style="stroke:#181818;stroke-width:0.5208;"/><polygon fill="#181818" points="202.4688,151.3438,204.5087,154.4972,208.2042,153.8271,206.1643,150.6736,202.4688,151.3438" style="stroke:#181818;stroke-width:0.5208;"/><polygon fill="#181818" points="341.0938,211.6979,340.9866,206.5694,339.9866,209.3408,337.2152,208.3408,341.0938,211.6979" style="stroke:#181818;stroke-width:0.5208;"/><text fill="#000000" font-family="sans-serif" font-size="6.7708" lengthAdjust="spacing" textLength="33.1169" x="332.026" y="194.52">Identifiers</text><text fill="#000000" font-family="sans-serif" font-size="6.7708" lengthAdjust="spacing" textLength="4.2814" x="206.3338" y="151.3756">1</text><text fill="#000000" font-family="sans-serif" font-size="6.7708" lengthAdjust="spacing" textLength="3.2631" x="336.4873" y="206.3232">*</text></g><!--link LegalEntityIdentifier to IdentifierType--><g class="link" data-entity-1="ent0008" data-entity-2="ent0013" data-link-type="aggregation" data-source-line="116" id="lnk22"><path codeLine="116" d="M350.3073,250.125 C351.8177,261.9479 352.9926,271.1183 354.602,283.686" fill="none" id="LegalEntityIdentifier-to-IdentifierType" style="stroke:#181818;stroke-width:0.5208;"/><polygon fill="none" points="355.3958,289.8854,357.0654,286.5211,354.602,283.686,352.9324,287.0504,355.3958,289.8854" style="stroke:#181818;stroke-width:0.5208;"/><text fill="#000000" font-family="sans-serif" font-size="6.7708" lengthAdjust="spacing" textLength="15.8526" x="353.6458" y="272.6346">Type</text><text fill="#000000" font-family="sans-serif" font-size="6.7708" lengthAdjust="spacing" textLength="3.2631" x="347.3364" y="260.6543">*</text><text fill="#000000" font-family="sans-serif" font-size="6.7708" lengthAdjust="spacing" textLength="4.2814" x="350.4692" y="284.4409">1</text></g><!--link LegalEntity to LegalEntityRelation--><g class="link" data-entity-1="ent0003" data-entity-2="ent0009" data-link-type="composition" data-source-line="118" id="lnk23"><path codeLine="118" d="M131.2787,161.1804 C117.3203,172.67 111.2188,183.2188 121.3542,196.3073 C138.3333,218.2344 155.276,203.7292 181.7708,211.9323 C191.8542,215.0521 199.9568,217.8888 209.1756,221.3211" fill="none" id="LegalEntity-LegalEntityRelation" style="stroke:#181818;stroke-width:0.5208;"/><polygon fill="#181818" points="136.1042,157.2083,132.3674,157.5859,131.2787,161.1804,135.0154,160.8029,136.1042,157.2083" style="stroke:#181818;stroke-width:0.5208;"/><polygon fill="#181818" points="212.1042,222.4115,208.4382,218.8235,209.6637,221.5028,206.9843,222.7283,212.1042,222.4115" style="stroke:#181818;stroke-width:0.5208;"/><text fill="#000000" font-family="sans-serif" font-size="6.7708" lengthAdjust="spacing" textLength="30.0522" x="121.875" y="194.52">Relations</text><text fill="#000000" font-family="sans-serif" font-size="6.7708" lengthAdjust="spacing" textLength="4.2814" x="127.8683" y="157.9924">1</text><text fill="#000000" font-family="sans-serif" font-size="6.7708" lengthAdjust="spacing" textLength="3.2631" x="201.6244" y="217.0536">*</text></g><!--link LegalEntityRelation to LegalEntity--><g class="link" data-entity-1="ent0009" data-entity-2="ent0003" data-link-type="aggregation" data-source-line="120" id="lnk25"><path codeLine="120" d="M201.3535,219.9011 C188.8482,214.5782 180.6302,208.6979 172.9167,196.3073 C168.4375,189.1146 166.6734,183.5688 166.0172,175.0896" fill="none" id="LegalEntityRelation-LegalEntity" style="stroke:#181818;stroke-width:0.5208;"/><polygon fill="none" points="207.1042,222.349,205.0448,219.2081,201.3535,219.9011,203.4129,223.0419,207.1042,222.349" style="stroke:#181818;stroke-width:0.5208;"/><polygon fill="#181818" points="165.776,171.974,164.0606,176.8082,165.977,174.5704,168.2149,176.4867,165.776,171.974" style="stroke:#181818;stroke-width:0.5208;"/><text fill="#000000" font-family="sans-serif" font-size="6.7708" lengthAdjust="spacing" textLength="70.3896" x="173.4375" y="194.52">LegalEntitySourceBPN</text><text fill="#000000" font-family="sans-serif" font-size="6.7708" lengthAdjust="spacing" textLength="3.2631" x="194.9682" y="216.9704">*</text><text fill="#000000" font-family="sans-serif" font-size="6.7708" lengthAdjust="spacing" textLength="4.2814" x="161.0659" y="182.4883">1</text></g><!--link LegalEntityRelation to LegalEntity--><g class="link" data-entity-1="ent0009" data-entity-2="ent0003" data-link-type="aggregation" data-source-line="121" id="lnk26"><path codeLine="121" d="M242.4403,217.2909 C248.4767,208.3898 252.4844,198.8958 246.3542,187.4531 C236.9792,169.9531 221.4961,158.8183 205.0951,150.511" fill="none" id="LegalEntityRelation-LegalEntity-1" style="stroke:#181818;stroke-width:0.5208;"/><polygon fill="none" points="238.9323,222.4635,242.4105,221.0465,242.4403,217.2909,238.9621,218.7079,238.9323,222.4635" style="stroke:#181818;stroke-width:0.5208;"/><polygon fill="#181818" points="202.3073,149.099,205.5476,153.0755,204.6304,150.2757,207.4303,149.3585,202.3073,149.099" style="stroke:#181818;stroke-width:0.5208;"/><text fill="#000000" font-family="sans-serif" font-size="6.7708" lengthAdjust="spacing" textLength="69.6887" x="249.0885" y="194.52">LegalEntityTargetBPN</text><text fill="#000000" font-family="sans-serif" font-size="6.7708" lengthAdjust="spacing" textLength="3.2631" x="237.3972" y="216.9692">*</text><text fill="#000000" font-family="sans-serif" font-size="6.7708" lengthAdjust="spacing" textLength="4.2814" x="206.3746" y="157.6612">1</text></g><!--link LegalEntityRelation to LegalEntityRelationType--><g class="link" data-entity-1="ent0009" data-entity-2="ent0010" data-link-type="aggregation" data-source-line="119" id="lnk24"><path codeLine="119" d="M216.1719,239.4792 C192.1406,251.0677 152.4059,270.2284 117.4476,287.0826" fill="none" id="LegalEntityRelation-to-LegalEntityRelationType" style="stroke:#181818;stroke-width:0.5208;"/><polygon fill="none" points="111.8177,289.7969,115.5374,290.3164,117.4476,287.0826,113.7279,286.5631,111.8177,289.7969" style="stroke:#181818;stroke-width:0.5208;"/><text fill="#000000" font-family="sans-serif" font-size="6.7708" lengthAdjust="spacing" textLength="15.8526" x="159.0625" y="272.6346">Type</text><text fill="#000000" font-family="sans-serif" font-size="6.7708" lengthAdjust="spacing" textLength="3.2631" x="207.2662" y="250.0187">*</text><text fill="#000000" font-family="sans-serif" font-size="6.7708" lengthAdjust="spacing" textLength="4.2814" x="114.3676" y="284.5099">1</text></g><!--link LegalEntityRelation to RelationValidityPeriod--><g class="link" data-entity-1="ent0009" data-entity-2="ent0011" data-link-type="composition" data-source-line="122" id="lnk27"><path codeLine="122" d="M217.7652,243.4779 C210.1975,249.8477 204.9115,255.3333 198.4375,265.5677 C192.901,274.3125 189.7981,282.144 187.1106,291.2274" fill="none" id="LegalEntityRelation-RelationValidityPeriod" style="stroke:#181818;stroke-width:0.5208;"/><polygon fill="#181818" points="222.5469,239.4531,218.8145,239.8716,217.7652,243.4779,221.4976,243.0594,222.5469,239.4531" style="stroke:#181818;stroke-width:0.5208;"/><polygon fill="#181818" points="186.224,294.224,189.5516,290.3201,186.9628,291.7268,185.5561,289.138,186.224,294.224" style="stroke:#181818;stroke-width:0.5208;"/><text fill="#000000" font-family="sans-serif" font-size="6.7708" lengthAdjust="spacing" textLength="48.4835" x="198.9583" y="272.6346">ValidityPeriods</text><text fill="#000000" font-family="sans-serif" font-size="6.7708" lengthAdjust="spacing" textLength="4.2814" x="214.4619" y="249.9844">1</text><text fill="#000000" font-family="sans-serif" font-size="6.7708" lengthAdjust="spacing" textLength="11.8291" x="174.5648" y="288.7271">1..*</text></g><!--link LegalEntityRelation to ReasonCode--><g class="link" data-entity-1="ent0009" data-entity-2="ent0012" data-link-type="aggregation" data-source-line="123" id="lnk28"><path codeLine="123" d="M237.1354,239.4063 C243.9896,252 254.5433,271.4011 263.9495,288.6824" fill="none" id="LegalEntityRelation-to-ReasonCode" style="stroke:#181818;stroke-width:0.5208;"/><polygon fill="none" points="266.9375,294.1719,267.2734,290.4311,263.9495,288.6824,263.6137,292.4231,266.9375,294.1719" style="stroke:#181818;stroke-width:0.5208;"/><text fill="#000000" font-family="sans-serif" font-size="6.7708" lengthAdjust="spacing" textLength="40.4828" x="255.4688" y="272.6346">ReasonCode</text><text fill="#000000" font-family="sans-serif" font-size="6.7708" lengthAdjust="spacing" textLength="3.2631" x="234.9119" y="249.9226">*</text><text fill="#000000" font-family="sans-serif" font-size="6.7708" lengthAdjust="spacing" textLength="12.8474" x="251.5477" y="288.8092">0..1</text></g><!--link LegalEntity to LegalForm--><g class="link" data-entity-1="ent0003" data-entity-2="ent0014" data-link-type="aggregation" data-source-line="129" id="lnk29"><path codeLine="129" d="M136.1719,154.6406 C125.5573,160.3594 113.6771,166.5417 102.6042,171.8281 C86.5052,179.5156 75.4844,172.5833 65.625,187.4531 C48.1667,213.7813 80.3177,198.9115 110.4167,211.9323 C113.2188,213.1458 110.4856,211.7469 113.3398,213.1375" fill="none" id="LegalEntity-to-LegalForm" style="stroke:#181818;stroke-width:0.5208;"/><polygon fill="none" points="118.9583,215.875,117.0615,212.6334,113.3398,213.1375,115.2365,216.3791,118.9583,215.875" style="stroke:#181818;stroke-width:0.5208;"/><text fill="#000000" font-family="sans-serif" font-size="6.7708" lengthAdjust="spacing" textLength="34.1815" x="66.1458" y="194.52">LegalForm</text><text fill="#000000" font-family="sans-serif" font-size="6.7708" lengthAdjust="spacing" textLength="3.2631" x="128.8308" y="163.9873">*</text><text fill="#000000" font-family="sans-serif" font-size="6.7708" lengthAdjust="spacing" textLength="12.8474" x="102.0306" y="212.0706">0..1</text></g><!--link LegalEntity to LegalAddress--><g class="link" data-entity-1="ent0003" data-entity-2="ent0015" data-link-type="dependency" data-source-line="131" id="lnk30"><path codeLine="131" d="M202.4635,135.6458 C221.6615,135.6458 242.5833,135.6458 261.6042,135.6458" fill="none" id="LegalEntity-to-LegalAddress" style="stroke:#181818;stroke-width:0.5208;"/><polygon fill="#181818" points="264.7292,135.6458,260.0417,133.5625,262.125,135.6458,260.0417,137.7292,264.7292,135.6458" style="stroke:#181818;stroke-width:0.5208;"/><text fill="#000000" font-family="sans-serif" font-size="6.7708" lengthAdjust="spacing" textLength="43.941" x="211.6771" y="132.296">LegalAddress</text><text fill="#000000" font-family="sans-serif" font-size="6.7708" lengthAdjust="spacing" textLength="4.2814" x="206.3281" y="133.9607">1</text><text fill="#000000" font-family="sans-serif" font-size="6.7708" lengthAdjust="spacing" textLength="4.2814" x="256.3979" y="133.9131">1</text></g><!--reverse link Address to LegalAddress--><g class="link" data-entity-1="ent0005" data-entity-2="ent0015" data-link-type="extension" data-source-line="132" id="lnk32"><path codeLine="132" d="M289.7123,67.1721 C293.0352,71.9429 290.7552,69.5729 292.7083,74.9896 C299.0938,92.7135 298.5573,115.2448 297.6823,127.0573" fill="none" id="Address-backto-LegalAddress" style="stroke:#181818;stroke-width:0.5208;"/><polygon fill="none" points="284.3542,59.4792,287.148,68.9581,292.2766,65.386,284.3542,59.4792" style="stroke:#181818;stroke-width:0.5208;"/></g><?plantuml-src hLLRJzim57xlhx3wWeJM3ARnaWUaKeheLWeY7UycFcsj9dRcE8pkyjzdEx7Zt3esJKBq7FkSyvsRl-HxoZ8iS8f8Hj75sMYKuNYFju36IzZY1CsPfFA0C2Fe4JOWWCMGZz6F4K9GNXcxoamV8tJri5eQmLojS0f6YtPSIASjyWSi98rfXfcynXARqva0B85CfT6-P4HfHlargX4ZAg62Cc1H9GP1qBAS4Y8WpttZQTSuJh2oyUg897O8JpYXv4RmjDRMl8OfqexZ-f1Pv-bilNYQb_MkdD8FkY0wwGq5KICNjbTvGTdsYfF3eFiZ95XIpenpRtBMmijlaKyJ2OAfynUu1Ko-5cee86wugExlC5FRGAuEbNx_ZLMQbuQDRBgZa1v0K4xUra0pfqV0EMSpJcnYQuXtZCOu-GmbyZNaiQ2PHcdvrdtp2klukxtpvdw29Du3GxoGQACIH1y-1cSNxn3E4UDIrGPO8Bf1SaTpfFvIbL-I044n5m9YcHnCaB87C_rVfH7NKpZnXgXbNPyHAtGpeAQVAq7RgusPE_76IOjPLCdHObR7yv-Zcbywr8d-nNSlfSfDDo2NwjbZGUXtLVC1f5yjPnjAD1dCX7gDWcANTRJ3Gg-8tXHXAzz1lDU7yrUpRad42n7RlgoAz1d4_KPxgZM_0wtcrUKIvz93qu6cqZh2w-1TVRw45qZylklQQ9ebaAgUgTBU7wlKVzrc0vzKaegoNBq-oPsqQAuvwjBVRRasdWhyR1C-YAGIRp6pvNzIzEWw8QrOph2ARaStFW-2qp6Qa0bNyhX1pA6lAHPKReP5nszs6A76lRO_dIIJInEYmvqXChzvqwky6yAioJD4-aVvzeAIBgZ7dQ5722rupwgHGuj1AlHUx2wquztGqM0BrbaOq6xT3LvsfGy5u2Q7OzCgtrOvv7-FiiPY2_98b7eMvTuDV0H2r3musXmpaRCWE1_xduJGKygb-4_CFRnRBJOFMmVbwsmPDNQgXzO7jxfLUStWOItthUD4-4EqD10sLEjcRoV5vEUbfOm_K7q7hwZmUjW_x3dyAxPzorjh4d286dhU3jEqzX-VHyIXfumKdUvK2IW5kTERQfH6-zBgsrJVjDQuClWD?></g></svg>