<?xml version="1.0" encoding="UTF-8" standalone="no"?><svg xmlns="http://www.w3.org/2000/svg" xmlns:xlink="http://www.w3.org/1999/xlink" contentStyleType="text/css" height="332px" preserveAspectRatio="none" style="width:905px;height:332px;background:#FFFFFF;" version="1.1" viewBox="0 0 905 332" width="905px" zoomAndPan="magnify"><defs/><g><rect fill="#DDDDDD" height="320.5469" style="stroke:#181818;stroke-width:0.5;" width="103" x="92" y="6"/><text fill="#000000" font-family="sans-serif" font-size="13" font-weight="bold" lengthAdjust="spacing" textLength="97" x="95" y="19.4951">Data Consumer</text><rect fill="#DDDDDD" height="320.5469" style="stroke:#181818;stroke-width:0.5;" width="93" x="472" y="6"/><text fill="#000000" font-family="sans-serif" font-size="13" font-weight="bold" lengthAdjust="spacing" textLength="87" x="475" y="19.4951">Data Provider</text><rect fill="#FFFFFF" height="76.7031" style="stroke:#181818;stroke-width:1.0;" width="10" x="513.5" y="145.2734"/><line style="stroke:#181818;stroke-width:0.5;stroke-dasharray:5.0,5.0;" x1="143" x2="143" y1="76.5703" y2="273.3281"/><line style="stroke:#181818;stroke-width:0.5;stroke-dasharray:5.0,5.0;" x1="518" x2="518" y1="76.5703" y2="273.3281"/><rect fill="#E2E2F0" height="49.2188" rx="2.5" ry="2.5" style="stroke:#181818;stroke-width:0.5;" width="83" x="102" y="26.3516"/><text fill="#000000" font-family="sans-serif" font-size="14" lengthAdjust="spacing" textLength="57" x="115" y="47.8848">Business</text><text fill="#000000" font-family="sans-serif" font-size="14" lengthAdjust="spacing" textLength="69" x="109" y="65.4941">Application</text><rect fill="#E2E2F0" height="49.2188" rx="2.5" ry="2.5" style="stroke:#181818;stroke-width:0.5;" width="83" x="102" y="272.3281"/><text fill="#000000" font-family="sans-serif" font-size="14" lengthAdjust="spacing" textLength="57" x="115" y="293.8613">Business</text><text fill="#000000" font-family="sans-serif" font-size="14" lengthAdjust="spacing" textLength="69" x="109" y="311.4707">Application</text><rect fill="#E2E2F0" height="49.2188" rx="2.5" ry="2.5" style="stroke:#181818;stroke-width:0.5;" width="83" x="477" y="26.3516"/><text fill="#000000" font-family="sans-serif" font-size="14" lengthAdjust="spacing" textLength="57" x="490" y="47.8848">Business</text><text fill="#000000" font-family="sans-serif" font-size="14" lengthAdjust="spacing" textLength="69" x="484" y="65.4941">Application</text><rect fill="#E2E2F0" height="49.2188" rx="2.5" ry="2.5" style="stroke:#181818;stroke-width:0.5;" width="83" x="477" y="272.3281"/><text fill="#000000" font-family="sans-serif" font-size="14" lengthAdjust="spacing" textLength="57" x="490" y="293.8613">Business</text><text fill="#000000" font-family="sans-serif" font-size="14" lengthAdjust="spacing" textLength="69" x="484" y="311.4707">Application</text><rect fill="#FFFFFF" height="76.7031" style="stroke:#181818;stroke-width:1.0;" width="10" x="513.5" y="145.2734"/><polygon fill="#181818" points="506.5,107.9219,516.5,111.9219,506.5,115.9219,510.5,111.9219" style="stroke:#181818;stroke-width:1.0;"/><line style="stroke:#181818;stroke-width:1.0;" x1="143.5" x2="512.5" y1="111.9219" y2="111.9219"/><text fill="#000000" font-family="sans-serif" font-size="13" font-weight="bold" lengthAdjust="spacing" textLength="7" x="185.5" y="107.0654">1</text><text fill="#000000" font-family="sans-serif" font-size="13" lengthAdjust="spacing" textLength="280" x="196.5" y="107.0654">Request "Planned Production Output" Exchange</text><path d="M523,91.5703 L523,117.5703 L647,117.5703 L647,101.5703 L637,91.5703 L523,91.5703 " fill="#FEFFDD" style="stroke:#181818;stroke-width:0.5;"/><path d="M637,91.5703 L637,101.5703 L647,101.5703 L637,91.5703 " fill="#FEFFDD" style="stroke:#181818;stroke-width:0.5;"/><text fill="#000000" font-family="sans-serif" font-size="13" lengthAdjust="spacing" textLength="103" x="529" y="110.0654">Request Endpoint</text><polygon fill="#181818" points="154.5,141.2734,144.5,145.2734,154.5,149.2734,150.5,145.2734" style="stroke:#181818;stroke-width:1.0;"/><line style="stroke:#181818;stroke-width:1.0;stroke-dasharray:2.0,2.0;" x1="148.5" x2="512.5" y1="145.2734" y2="145.2734"/><text fill="#000000" font-family="sans-serif" font-size="13" font-weight="bold" lengthAdjust="spacing" textLength="7" x="295.5" y="140.417">2</text><text fill="#000000" font-family="sans-serif" font-size="13" lengthAdjust="spacing" textLength="55" x="306.5" y="140.417">Accepted</text><line style="stroke:#181818;stroke-width:1.0;" x1="523.5" x2="565.5" y1="175.625" y2="175.625"/><line style="stroke:#181818;stroke-width:1.0;" x1="565.5" x2="565.5" y1="175.625" y2="188.625"/><line style="stroke:#181818;stroke-width:1.0;" x1="524.5" x2="565.5" y1="188.625" y2="188.625"/><polygon fill="#181818" points="534.5,184.625,524.5,188.625,534.5,192.625,530.5,188.625" style="stroke:#181818;stroke-width:1.0;"/><text fill="#000000" font-family="sans-serif" font-size="13" font-weight="bold" lengthAdjust="spacing" textLength="7" x="530.5" y="170.7686">3</text><text fill="#000000" font-family="sans-serif" font-size="13" lengthAdjust="spacing" textLength="357" x="541.5" y="170.7686">Determine requested "Planned Production Output" Information</text><polygon fill="#181818" points="154.5,217.9766,144.5,221.9766,154.5,225.9766,150.5,221.9766" style="stroke:#181818;stroke-width:1.0;"/><line style="stroke:#181818;stroke-width:1.0;" x1="148.5" x2="517.5" y1="221.9766" y2="221.9766"/><text fill="#000000" font-family="sans-serif" font-size="13" font-weight="bold" lengthAdjust="spacing" textLength="7" x="161.5" y="217.1201">4</text><text fill="#000000" font-family="sans-serif" font-size="13" lengthAdjust="spacing" textLength="328" x="172.5" y="217.1201">Send requested "Planned Production Output" Information</text><path d="M5,201.625 L5,227.625 L139,227.625 L139,211.625 L129,201.625 L5,201.625 " fill="#FEFFDD" style="stroke:#181818;stroke-width:0.5;"/><path d="M129,201.625 L129,211.625 L139,211.625 L129,201.625 " fill="#FEFFDD" style="stroke:#181818;stroke-width:0.5;"/><text fill="#000000" font-family="sans-serif" font-size="13" lengthAdjust="spacing" textLength="113" x="11" y="220.1201">Response Endpoint</text><polygon fill="#181818" points="506.5,251.3281,516.5,255.3281,506.5,259.3281,510.5,255.3281" style="stroke:#181818;stroke-width:1.0;"/><line style="stroke:#181818;stroke-width:1.0;stroke-dasharray:2.0,2.0;" x1="143.5" x2="512.5" y1="255.3281" y2="255.3281"/><text fill="#000000" font-family="sans-serif" font-size="13" font-weight="bold" lengthAdjust="spacing" textLength="7" x="298" y="250.4717">5</text><text fill="#000000" font-family="sans-serif" font-size="13" lengthAdjust="spacing" textLength="55" x="309" y="250.4717">Accepted</text><!--MD5=[89b7a0feef04b05c3324c409ffb8d1ae]
@startuml Figure_2
autonumber
skinparam sequenceMessageAlign center

box "Data Consumer"
participant "Business\nApplication" as app_cons
end box

box "Data Provider"
participant "Business\nApplication" as app_prov
end box


app_cons ->  app_prov: Request "Planned Production Output" Exchange
note right: Request Endpoint
return Accepted

activate  app_prov
app_prov ->  app_prov: Determine requested "Planned Production Output" Information

app_prov ->  app_cons: Send requested "Planned Production Output" Information
note left: Response Endpoint
deactivate app_prov
return Accepted

@enduml

PlantUML version 1.2022.7(Mon Aug 22 19:01:30 CEST 2022)
(GPL source distribution)
Java Runtime: Java(TM) SE Runtime Environment
JVM: Java HotSpot(TM) 64-Bit Server VM
Default Encoding: Cp1252
Language: en
Country: US
--></g></svg>