<svg xmlns="http://www.w3.org/2000/svg" width="905" height="332" preserveAspectRatio="none" style="width:905px;height:332px;background:#fff"><path fill="#DDD" d="M92 6h103v320.547H92z" style="stroke:#181818;stroke-width:.5"/><text x="95" y="19.495" font-family="sans-serif" font-size="13" font-weight="bold" textLength="97">Data Consumer</text><path fill="#DDD" d="M472 6h93v320.547h-93z" style="stroke:#181818;stroke-width:.5"/><text x="475" y="19.495" font-family="sans-serif" font-size="13" font-weight="bold" textLength="87">Data Provider</text><path fill="#FFF" d="M513.5 145.273h10v76.703h-10z" style="stroke:#181818;stroke-width:1"/><path d="M143 76.57v196.758M518 76.57v196.758" style="stroke:#181818;stroke-width:.5;stroke-dasharray:5,5"/><rect width="83" height="49.219" x="102" y="26.352" fill="#E2E2F0" rx="2.5" ry="2.5" style="stroke:#181818;stroke-width:.5"/><text x="115" y="47.885" font-family="sans-serif" font-size="14" textLength="57">Business</text><text x="109" y="65.494" font-family="sans-serif" font-size="14" textLength="69">Application</text><rect width="83" height="49.219" x="102" y="272.328" fill="#E2E2F0" rx="2.5" ry="2.5" style="stroke:#181818;stroke-width:.5"/><text x="115" y="293.861" font-family="sans-serif" font-size="14" textLength="57">Business</text><text x="109" y="311.471" font-family="sans-serif" font-size="14" textLength="69">Application</text><rect width="83" height="49.219" x="477" y="26.352" fill="#E2E2F0" rx="2.5" ry="2.5" style="stroke:#181818;stroke-width:.5"/><text x="490" y="47.885" font-family="sans-serif" font-size="14" textLength="57">Business</text><text x="484" y="65.494" font-family="sans-serif" font-size="14" textLength="69">Application</text><rect width="83" height="49.219" x="477" y="272.328" fill="#E2E2F0" rx="2.5" ry="2.5" style="stroke:#181818;stroke-width:.5"/><text x="490" y="293.861" font-family="sans-serif" font-size="14" textLength="57">Business</text><text x="484" y="311.471" font-family="sans-serif" font-size="14" textLength="69">Application</text><path fill="#FFF" d="M513.5 145.273h10v76.703h-10z" style="stroke:#181818;stroke-width:1"/><path fill="#181818" d="m506.5 107.922 10 4-10 4 4-4z" style="stroke:#181818;stroke-width:1"/><path d="M143.5 111.922h369" style="stroke:#181818;stroke-width:1"/><text x="185.5" y="107.065" font-family="sans-serif" font-size="13" font-weight="bold" textLength="7">1</text><text x="196.5" y="107.065" font-family="sans-serif" font-size="13" textLength="280">Request &quot;Planned Production Output&quot; Exchange</text><path fill="#FEFFDD" d="M523 91.57v26h124v-16l-10-10H523" style="stroke:#181818;stroke-width:.5"/><path fill="#FEFFDD" d="M637 91.57v10h10l-10-10" style="stroke:#181818;stroke-width:.5"/><text x="529" y="110.065" font-family="sans-serif" font-size="13" textLength="103">Request Endpoint</text><path fill="#181818" d="m154.5 141.273-10 4 10 4-4-4z" style="stroke:#181818;stroke-width:1"/><path d="M148.5 145.273h364" style="stroke:#181818;stroke-width:1;stroke-dasharray:2,2"/><text x="295.5" y="140.417" font-family="sans-serif" font-size="13" font-weight="bold" textLength="7">2</text><text x="306.5" y="140.417" font-family="sans-serif" font-size="13" textLength="55">Accepted</text><path d="M523.5 175.625h42m0 0v13m-41 0h41" style="stroke:#181818;stroke-width:1"/><path fill="#181818" d="m534.5 184.625-10 4 10 4-4-4z" style="stroke:#181818;stroke-width:1"/><text x="530.5" y="170.769" font-family="sans-serif" font-size="13" font-weight="bold" textLength="7">3</text><text x="541.5" y="170.769" font-family="sans-serif" font-size="13" textLength="357">Determine requested &quot;Planned Production Output&quot; Information</text><path fill="#181818" d="m154.5 217.977-10 4 10 4-4-4z" style="stroke:#181818;stroke-width:1"/><path d="M148.5 221.977h369" style="stroke:#181818;stroke-width:1"/><text x="161.5" y="217.12" font-family="sans-serif" font-size="13" font-weight="bold" textLength="7">4</text><text x="172.5" y="217.12" font-family="sans-serif" font-size="13" textLength="328">Send requested &quot;Planned Production Output&quot; Information</text><path fill="#FEFFDD" d="M5 201.625v26h134v-16l-10-10H5" style="stroke:#181818;stroke-width:.5"/><path fill="#FEFFDD" d="M129 201.625v10h10l-10-10" style="stroke:#181818;stroke-width:.5"/><text x="11" y="220.12" font-family="sans-serif" font-size="13" textLength="113">Response Endpoint</text><path fill="#181818" d="m506.5 251.328 10 4-10 4 4-4z" style="stroke:#181818;stroke-width:1"/><path d="M143.5 255.328h369" style="stroke:#181818;stroke-width:1;stroke-dasharray:2,2"/><text x="298" y="250.472" font-family="sans-serif" font-size="13" font-weight="bold" textLength="7">5</text><text x="309" y="250.472" font-family="sans-serif" font-size="13" textLength="55">Accepted</text></svg>