<?xml version="1.0" encoding="UTF-8" standalone="no"?><svg xmlns="http://www.w3.org/2000/svg" xmlns:xlink="http://www.w3.org/1999/xlink" contentStyleType="text/css" height="512px" preserveAspectRatio="none" style="width:1083px;height:512px;background:#FFFFFF;" version="1.1" viewBox="0 0 1083 512" width="1083px" zoomAndPan="magnify"><defs/><g><g id="Received"><rect fill="#F1F1F1" height="55.2188" rx="12.5" ry="12.5" style="stroke:#181818;stroke-width:0.5;" width="338" x="524.5" y="104"/><line style="stroke:#181818;stroke-width:0.5;" x1="524.5" x2="862.5" y1="131.6094" y2="131.6094"/><text fill="#000000" font-family="sans-serif" font-size="14" lengthAdjust="spacing" textLength="59" x="664" y="123.5332">Received</text><text fill="#000000" font-family="sans-serif" font-size="14" lengthAdjust="spacing" textLength="318" x="529.5" y="151.1426">The Provider accepted the request for processing.</text></g><g id="Working"><rect fill="#F1F1F1" height="55.2188" rx="12.5" ry="12.5" style="stroke:#181818;stroke-width:0.5;" width="449" x="322" y="237"/><line style="stroke:#181818;stroke-width:0.5;" x1="322" x2="771" y1="264.6094" y2="264.6094"/><text fill="#000000" font-family="sans-serif" font-size="14" lengthAdjust="spacing" textLength="52" x="520.5" y="256.5332">Working</text><text fill="#000000" font-family="sans-serif" font-size="14" lengthAdjust="spacing" textLength="429" x="327" y="284.1426">The Provider is processing the request and preparing the response.</text></g><g id="Completed"><rect fill="#F1F1F1" height="55.2188" rx="12.5" ry="12.5" style="stroke:#181818;stroke-width:0.5;" width="495" x="7" y="370"/><line style="stroke:#181818;stroke-width:0.5;" x1="7" x2="502" y1="397.6094" y2="397.6094"/><text fill="#000000" font-family="sans-serif" font-size="14" lengthAdjust="spacing" textLength="68" x="220.5" y="389.5332">Completed</text><text fill="#000000" font-family="sans-serif" font-size="14" lengthAdjust="spacing" textLength="475" x="12" y="417.1426">The Provider was able to successfully process AND respond to the request.</text></g><g id="Error"><rect fill="#F1F1F1" height="55.2188" rx="12.5" ry="12.5" style="stroke:#181818;stroke-width:0.5;" width="424" x="537.5" y="370"/><line style="stroke:#181818;stroke-width:0.5;" x1="537.5" x2="961.5" y1="397.6094" y2="397.6094"/><text fill="#000000" font-family="sans-serif" font-size="14" lengthAdjust="spacing" textLength="32" x="733.5" y="389.5332">Error</text><text fill="#000000" font-family="sans-serif" font-size="14" lengthAdjust="spacing" textLength="404" x="542.5" y="417.1426">The Provider was unable to process OR respond to the request.</text></g><ellipse cx="693.5" cy="16" fill="#222222" rx="10" ry="10" style="stroke:none;stroke-width:1.0;"/><ellipse cx="501.5" cy="496" fill="none" rx="10" ry="10" style="stroke:#222222;stroke-width:1.0;"/><ellipse cx="502" cy="496.5" fill="#222222" rx="6" ry="6" style="stroke:none;stroke-width:1.0;"/><!--MD5=[390cff54141a80396d259b42bdf097fd]
link *start to Received--><g id="link_*start_Received"><path d="M693.5,26.29 C693.5,41.91 693.5,74.13 693.5,98.63 " fill="none" id="*start-to-Received" style="stroke:#181818;stroke-width:1.0;"/><polygon fill="#181818" points="693.5,103.73,697.5,94.73,693.5,98.73,689.5,94.73,693.5,103.73" style="stroke:#181818;stroke-width:1.0;"/><text fill="#000000" font-family="sans-serif" font-size="13" lengthAdjust="spacing" textLength="357" x="694.5" y="70.4951">Consumer requested "Planned Production Output" information</text></g><!--MD5=[0f40efcd8fb0364e8234bc7812660e8e]
link Received to Working--><g id="link_Received_Working"><path d="M629.2,159.13 C614.37,167.25 599.45,177.21 587.5,189 C575.23,201.11 565.62,217.68 558.8,232.11 " fill="none" id="Received-to-Working" style="stroke:#181818;stroke-width:1.0;"/><polygon fill="#181818" points="556.59,236.92,563.9804,230.4098,558.6762,232.376,556.71,227.0719,556.59,236.92" style="stroke:#181818;stroke-width:1.0;"/><text fill="#000000" font-family="sans-serif" font-size="13" lengthAdjust="spacing" textLength="226" x="588.5" y="203.4951">Provider started processing the request</text></g><!--MD5=[b662d2d64af522493def076be64e25b6]
link Received to Error--><g id="link_Received_Error"><path d="M786.99,159.17 C799.87,166.78 811.42,176.52 819.5,189 C855.98,245.33 848.44,279.45 819.5,340 C814.7,350.05 807.14,358.89 798.73,366.4 " fill="none" id="Received-to-Error" style="stroke:#181818;stroke-width:1.0;"/><polygon fill="#181818" points="794.54,369.99,803.9826,367.1904,798.3433,366.7443,798.7894,361.1051,794.54,369.99" style="stroke:#181818;stroke-width:1.0;"/><text fill="#000000" font-family="sans-serif" font-size="13" lengthAdjust="spacing" textLength="230" x="845.5" y="269.9951">Provider could NOT process the request</text></g><!--MD5=[c6b47a8ce9e55a23902dadb000af4b3a]
link Working to Completed--><g id="link_Working_Completed"><path d="M340.88,292.05 C308.59,299.82 281.8,309.66 269.5,322 C258.55,332.98 254.49,349.59 253.31,364.34 " fill="none" id="Working-to-Completed" style="stroke:#181818;stroke-width:1.0;"/><polygon fill="#181818" points="252.99,369.67,257.5233,360.9265,253.2903,364.679,249.5378,360.446,252.99,369.67" style="stroke:#181818;stroke-width:1.0;"/><text fill="#000000" font-family="sans-serif" font-size="13" lengthAdjust="spacing" textLength="289" x="270.5" y="336.4951">Provider processed AND responded to the request</text></g><!--MD5=[f3f45d6e370d74d0b662bdaa27d952ee]
link Working to Error--><g id="link_Working_Error"><path d="M553.65,292.17 C559.16,308.03 568.29,327.45 582.5,340 C595.39,351.38 610.67,360.49 626.66,367.78 " fill="none" id="Working-to-Error" style="stroke:#181818;stroke-width:1.0;"/><polygon fill="#181818" points="631.65,369.98,625.0269,362.6906,627.0745,367.9639,621.8012,370.0115,631.65,369.98" style="stroke:#181818;stroke-width:1.0;"/><text fill="#000000" font-family="sans-serif" font-size="13" lengthAdjust="spacing" textLength="231" x="583.5" y="336.4951">Error occured during request processing</text></g><!--MD5=[05709030c28c6d470f115e6ff7e5015d]
link Completed to *end--><g id="link_Completed_*end"><path d="M322.65,425.12 C379.61,447.38 456.38,477.37 487.52,489.54 " fill="none" id="Completed-to-*end" style="stroke:#181818;stroke-width:1.0;"/><polygon fill="#181818" points="492.45,491.46,485.5159,484.4659,487.7911,489.645,482.6119,491.9202,492.45,491.46" style="stroke:#181818;stroke-width:1.0;"/></g><!--MD5=[7748d72ab64101d2b173fcc1f57892c5]
link Error to *end--><g id="link_Error_*end"><path d="M681.08,425.12 C623.88,447.38 546.8,477.37 515.54,489.54 " fill="none" id="Error-to-*end" style="stroke:#181818;stroke-width:1.0;"/><polygon fill="#181818" points="510.59,491.46,520.4281,491.9202,515.2489,489.645,517.5241,484.4659,510.59,491.46" style="stroke:#181818;stroke-width:1.0;"/></g><!--MD5=[9432355fcf13048073625a0ba49fa6f7]
@startuml Figure_4

Received : The Provider accepted the request for processing.
Working : The Provider is processing the request and preparing the response.
Completed : The Provider was able to successfully process AND respond to the request.
Error : The Provider was unable to process OR respond to the request.

[*] - -> Received : Consumer requested "Planned Production Output" information

Received - -> Working : Provider started processing the request
Received - -> Error : Provider could NOT process the request

Working - -> Completed : Provider processed AND responded to the request
Working - -> Error : Error occured during request processing

Completed - -> [*]

Error - -> [*]

@enduml

PlantUML version 1.2022.7(Mon Aug 22 19:01:30 CEST 2022)
(GPL source distribution)
Java Runtime: Java(TM) SE Runtime Environment
JVM: Java HotSpot(TM) 64-Bit Server VM
Default Encoding: Cp1252
Language: en
Country: US
--></g></svg>