<svg xmlns="http://www.w3.org/2000/svg" width="1083" height="512" preserveAspectRatio="none" style="width:1083px;height:512px;background:#fff"><rect width="338" height="55.219" x="524.5" y="104" fill="#F1F1F1" rx="12.5" ry="12.5" style="stroke:#181818;stroke-width:.5"/><path d="M524.5 131.609h338" style="stroke:#181818;stroke-width:.5"/><text x="664" y="123.533" font-family="sans-serif" font-size="14" textLength="59">Received</text><text x="529.5" y="151.143" font-family="sans-serif" font-size="14" textLength="318">The Provider accepted the request for processing.</text><rect width="449" height="55.219" x="322" y="237" fill="#F1F1F1" rx="12.5" ry="12.5" style="stroke:#181818;stroke-width:.5"/><path d="M322 264.609h449" style="stroke:#181818;stroke-width:.5"/><text x="520.5" y="256.533" font-family="sans-serif" font-size="14" textLength="52">Working</text><text x="327" y="284.143" font-family="sans-serif" font-size="14" textLength="429">The Provider is processing the request and preparing the response.</text><rect width="495" height="55.219" x="7" y="370" fill="#F1F1F1" rx="12.5" ry="12.5" style="stroke:#181818;stroke-width:.5"/><path d="M7 397.609h495" style="stroke:#181818;stroke-width:.5"/><text x="220.5" y="389.533" font-family="sans-serif" font-size="14" textLength="68">Completed</text><text x="12" y="417.143" font-family="sans-serif" font-size="14" textLength="475">The Provider was able to successfully process AND respond to the request.</text><rect width="424" height="55.219" x="537.5" y="370" fill="#F1F1F1" rx="12.5" ry="12.5" style="stroke:#181818;stroke-width:.5"/><path d="M537.5 397.609h424" style="stroke:#181818;stroke-width:.5"/><text x="733.5" y="389.533" font-family="sans-serif" font-size="14" textLength="32">Error</text><text x="542.5" y="417.143" font-family="sans-serif" font-size="14" textLength="404">The Provider was unable to process OR respond to the request.</text><circle cx="693.5" cy="16" r="10" fill="#222" style="stroke:none;stroke-width:1"/><circle cx="501.5" cy="496" r="10" fill="none" style="stroke:#222;stroke-width:1"/><circle cx="502" cy="496.5" r="6" fill="#222" style="stroke:none;stroke-width:1"/><path fill="none" d="M693.5 26.29v72.34" style="stroke:#181818;stroke-width:1"/><path fill="#181818" d="m693.5 103.73 4-9-4 4-4-4z" style="stroke:#181818;stroke-width:1"/><text x="694.5" y="70.495" font-family="sans-serif" font-size="13" textLength="357">Consumer requested &quot;Planned Production Output&quot; information</text><path fill="none" d="M629.2 159.13c-14.83 8.12-29.75 18.08-41.7 29.87-12.27 12.11-21.88 28.68-28.7 43.11" style="stroke:#181818;stroke-width:1"/><path fill="#181818" d="m556.59 236.92 7.39-6.51-5.304 1.966-1.966-5.304z" style="stroke:#181818;stroke-width:1"/><text x="588.5" y="203.495" font-family="sans-serif" font-size="13" textLength="226">Provider started processing the request</text><path fill="none" d="M786.99 159.17c12.88 7.61 24.43 17.35 32.51 29.83 36.48 56.33 28.94 90.45 0 151-4.8 10.05-12.36 18.89-20.77 26.4" style="stroke:#181818;stroke-width:1"/><path fill="#181818" d="m794.54 369.99 9.443-2.8-5.64-.446.446-5.639z" style="stroke:#181818;stroke-width:1"/><text x="845.5" y="269.995" font-family="sans-serif" font-size="13" textLength="230">Provider could NOT process the request</text><path fill="none" d="M340.88 292.05c-32.29 7.77-59.08 17.61-71.38 29.95-10.95 10.98-15.01 27.59-16.19 42.34" style="stroke:#181818;stroke-width:1"/><path fill="#181818" d="m252.99 369.67 4.533-8.744-4.233 3.753-3.752-4.233z" style="stroke:#181818;stroke-width:1"/><text x="270.5" y="336.495" font-family="sans-serif" font-size="13" textLength="289">Provider processed AND responded to the request</text><path fill="none" d="M553.65 292.17c5.51 15.86 14.64 35.28 28.85 47.83 12.89 11.38 28.17 20.49 44.16 27.78" style="stroke:#181818;stroke-width:1"/><path fill="#181818" d="m631.65 369.98-6.623-7.29 2.047 5.274-5.273 2.048z" style="stroke:#181818;stroke-width:1"/><text x="583.5" y="336.495" font-family="sans-serif" font-size="13" textLength="231">Error occured during request processing</text><path fill="none" d="M322.65 425.12c56.96 22.26 133.73 52.25 164.87 64.42" style="stroke:#181818;stroke-width:1"/><path fill="#181818" d="m492.45 491.46-6.934-6.994 2.275 5.179-5.18 2.275z" style="stroke:#181818;stroke-width:1"/><path fill="none" d="M681.08 425.12c-57.2 22.26-134.28 52.25-165.54 64.42" style="stroke:#181818;stroke-width:1"/><path fill="#181818" d="m510.59 491.46 9.838.46-5.18-2.275 2.276-5.18z" style="stroke:#181818;stroke-width:1"/></svg>