<svg xmlns="http://www.w3.org/2000/svg" width="1008" height="548" preserveAspectRatio="none" style="width:1008px;height:548px;background:#fff"><path fill="none" d="M381.5 10h237v27.609h-237z" style="stroke:none;stroke-width:1"/><text x="386.5" y="29.533" font-family="sans-serif" font-size="14" font-weight="bold" textLength="227">Registration of IC Part Type Twin</text><path fill="#ADD8E6" d="M12 44.609h597v497.492H12z" style="stroke:#181818;stroke-width:.5"/><text x="283.5" y="58.105" font-family="sans-serif" font-size="13" font-weight="bold" textLength="54">Supplier</text><path fill="#90EE90" d="M611 44.609h389v497.492H611z" style="stroke:#181818;stroke-width:.5"/><text x="775.5" y="58.105" font-family="sans-serif" font-size="13" font-weight="bold" textLength="60">Customer</text><path fill="#FFF" d="M337.5 458.141h10v30.352h-10zm104-170.461h10v30.352h-10zM560 174.273h10v30.352h-10zm0 174.11h10v30.352h-10z" style="stroke:#181818;stroke-width:1"/><path d="M57 97.57v408.922M342 97.57v408.922M446 97.57v408.922M565 97.57v408.922M655 97.57v408.922M773 97.57v408.922M877 97.57v408.922M954 97.57v408.922" style="stroke:#181818;stroke-width:.5;stroke-dasharray:5,5"/><rect width="83" height="31.609" x="16" y="64.961" fill="#E2E2F0" rx="2.5" ry="2.5" style="stroke:#181818;stroke-width:.5"/><text x="23" y="86.494" font-family="sans-serif" font-size="14" textLength="69">Application</text><rect width="83" height="31.609" x="16" y="505.492" fill="#E2E2F0" rx="2.5" ry="2.5" style="stroke:#181818;stroke-width:.5"/><text x="23" y="527.025" font-family="sans-serif" font-size="14" textLength="69">Application</text><rect width="51" height="31.609" x="317" y="64.961" fill="#E2E2F0" rx="2.5" ry="2.5" style="stroke:#181818;stroke-width:.5"/><text x="324" y="86.494" font-family="sans-serif" font-size="14" textLength="37">dDTR</text><rect width="51" height="31.609" x="317" y="505.492" fill="#E2E2F0" rx="2.5" ry="2.5" style="stroke:#181818;stroke-width:.5"/><text x="324" y="527.025" font-family="sans-serif" font-size="14" textLength="37">dDTR</text><rect width="137" height="31.609" x="378" y="64.961" fill="#E2E2F0" rx="2.5" ry="2.5" style="stroke:#181818;stroke-width:.5"/><text x="385" y="86.494" font-family="sans-serif" font-size="14" textLength="123">Submodel Endpoint</text><rect width="137" height="31.609" x="378" y="505.492" fill="#E2E2F0" rx="2.5" ry="2.5" style="stroke:#181818;stroke-width:.5"/><text x="385" y="527.025" font-family="sans-serif" font-size="14" textLength="123">Submodel Endpoint</text><rect width="80" height="31.609" x="525" y="64.961" fill="#E2E2F0" rx="2.5" ry="2.5" style="stroke:#181818;stroke-width:.5"/><text x="532" y="86.494" font-family="sans-serif" font-size="14" textLength="66">Connector</text><rect width="80" height="31.609" x="525" y="505.492" fill="#E2E2F0" rx="2.5" ry="2.5" style="stroke:#181818;stroke-width:.5"/><text x="532" y="527.025" font-family="sans-serif" font-size="14" textLength="66">Connector</text><rect width="80" height="31.609" x="615" y="64.961" fill="#E2E2F0" rx="2.5" ry="2.5" style="stroke:#181818;stroke-width:.5"/><text x="622" y="86.494" font-family="sans-serif" font-size="14" textLength="66">Connector</text><rect width="80" height="31.609" x="615" y="505.492" fill="#E2E2F0" rx="2.5" ry="2.5" style="stroke:#181818;stroke-width:.5"/><text x="622" y="527.025" font-family="sans-serif" font-size="14" textLength="66">Connector</text><rect width="137" height="31.609" x="705" y="64.961" fill="#E2E2F0" rx="2.5" ry="2.5" style="stroke:#181818;stroke-width:.5"/><text x="712" y="86.494" font-family="sans-serif" font-size="14" textLength="123">Submodel Endpoint</text><rect width="137" height="31.609" x="705" y="505.492" fill="#E2E2F0" rx="2.5" ry="2.5" style="stroke:#181818;stroke-width:.5"/><text x="712" y="527.025" font-family="sans-serif" font-size="14" textLength="123">Submodel Endpoint</text><rect width="51" height="31.609" x="852" y="64.961" fill="#E2E2F0" rx="2.5" ry="2.5" style="stroke:#181818;stroke-width:.5"/><text x="859" y="86.494" font-family="sans-serif" font-size="14" textLength="37">dDTR</text><rect width="51" height="31.609" x="852" y="505.492" fill="#E2E2F0" rx="2.5" ry="2.5" style="stroke:#181818;stroke-width:.5"/><text x="859" y="527.025" font-family="sans-serif" font-size="14" textLength="37">dDTR</text><rect width="83" height="31.609" x="913" y="64.961" fill="#E2E2F0" rx="2.5" ry="2.5" style="stroke:#181818;stroke-width:.5"/><text x="920" y="86.494" font-family="sans-serif" font-size="14" textLength="69">Application</text><rect width="83" height="31.609" x="913" y="505.492" fill="#E2E2F0" rx="2.5" ry="2.5" style="stroke:#181818;stroke-width:.5"/><text x="920" y="527.025" font-family="sans-serif" font-size="14" textLength="69">Application</text><path fill="#FFF" d="M337.5 458.141h10v30.352h-10zm104-170.461h10v30.352h-10zM560 174.273h10v30.352h-10zm0 174.11h10v30.352h-10z" style="stroke:#181818;stroke-width:1"/><path fill="#EEE" d="M0 128.746h1001v3H0z" style="stroke:#eee;stroke-width:1"/><path d="M0 128.746h1001m-1001 3h1001" style="stroke:#000;stroke-width:1"/><path fill="#EEE" d="M284.5 117.57h432v24.352h-432z" style="stroke:#000;stroke-width:2"/><text x="290.5" y="135.065" font-family="sans-serif" font-size="13" font-weight="bold" textLength="414">Supplier registers IC Part Type Twin with Submodel for Customer</text><path fill="#181818" d="m548 170.273 10 4-10 4 4-4z" style="stroke:#181818;stroke-width:1"/><path d="M57.5 174.273H554" style="stroke:#181818;stroke-width:1"/><text x="64.5" y="169.417" font-family="sans-serif" font-size="13" font-weight="bold" textLength="7">1</text><text x="75.5" y="169.417" font-family="sans-serif" font-size="13" textLength="224">Register dDTR for partner at Connector</text><path fill="#181818" d="m68.5 200.625-10 4 10 4-4-4z" style="stroke:#181818;stroke-width:1"/><path d="M62.5 204.625H564" style="stroke:#181818;stroke-width:1;stroke-dasharray:2,2"/><text x="74.5" y="199.769" font-family="sans-serif" font-size="13" font-weight="bold" textLength="7">2</text><text x="85.5" y="199.769" font-family="sans-serif" font-size="13" textLength="19">OK</text><path fill="#FEFFDD" d="M5 217.625v42h494v-32l-10-10H5" style="stroke:#181818;stroke-width:.5"/><path fill="#FEFFDD" d="M489 217.625v10h10l-10-10" style="stroke:#181818;stroke-width:.5"/><text x="131" y="236.12" font-family="sans-serif" font-size="13" textLength="233">Keeping Submodel updated only needed</text><text x="131" y="252.472" font-family="sans-serif" font-size="13" textLength="119">for repository pattern</text><path fill="#181818" d="m429.5 283.68 10 4-10 4 4-4z" style="stroke:#181818;stroke-width:1"/><path d="M57.5 287.68h378" style="stroke:#181818;stroke-width:1"/><text x="64.5" y="282.823" font-family="sans-serif" font-size="13" font-weight="bold" textLength="7">3</text><text x="75.5" y="282.823" font-family="sans-serif" font-size="13" textLength="100">Create Submodel</text><path fill="#181818" d="m68.5 314.031-10 4 10 4-4-4z" style="stroke:#181818;stroke-width:1"/><path d="M62.5 318.031h383" style="stroke:#181818;stroke-width:1;stroke-dasharray:2,2"/><text x="74.5" y="313.175" font-family="sans-serif" font-size="13" font-weight="bold" textLength="7">4</text><text x="85.5" y="313.175" font-family="sans-serif" font-size="13" textLength="19">OK</text><path fill="#181818" d="m548 344.383 10 4-10 4 4-4z" style="stroke:#181818;stroke-width:1"/><path d="M57.5 348.383H554" style="stroke:#181818;stroke-width:1"/><text x="64.5" y="343.526" font-family="sans-serif" font-size="13" font-weight="bold" textLength="7">5</text><text x="75.5" y="343.526" font-family="sans-serif" font-size="13" textLength="421">Register endpoint of Submodel for READ access for partner at Connector</text><path fill="#181818" d="m68.5 374.734-10 4 10 4-4-4z" style="stroke:#181818;stroke-width:1"/><path d="M62.5 378.734H564" style="stroke:#181818;stroke-width:1;stroke-dasharray:2,2"/><text x="74.5" y="373.878" font-family="sans-serif" font-size="13" font-weight="bold" textLength="7">6</text><text x="85.5" y="373.878" font-family="sans-serif" font-size="13" textLength="19">OK</text><path fill="#181818" d="m325.5 454.14 10 4-10 4 4-4z" style="stroke:#181818;stroke-width:1"/><path d="M57.5 458.141h274" style="stroke:#181818;stroke-width:1"/><text x="64.5" y="428.757" font-family="sans-serif" font-size="13" font-weight="bold" textLength="7">7</text><text x="75.5" y="404.229" font-family="sans-serif" font-size="13" textLength="250">Register IC Part Type Twin Shell Descriptor</text><text x="79.5" y="420.581" font-family="sans-serif" font-size="13" textLength="138">with Submodel endpoint</text><text x="75.5" y="436.933" font-family="sans-serif" font-size="13" textLength="110">for Partner in dDTR</text><text x="75.5" y="453.284" font-family="sans-serif" font-size="13" textLength="88">(DSP endpoint)</text><path fill="#181818" d="m68.5 484.492-10 4 10 4-4-4z" style="stroke:#181818;stroke-width:1"/><path d="M62.5 488.492h279" style="stroke:#181818;stroke-width:1;stroke-dasharray:2,2"/><text x="74.5" y="483.636" font-family="sans-serif" font-size="13" font-weight="bold" textLength="7">8</text><text x="85.5" y="483.636" font-family="sans-serif" font-size="13" textLength="19">OK</text></svg>