<svg xmlns="http://www.w3.org/2000/svg" width="880" height="379" preserveAspectRatio="none" style="width:880px;height:379px;background:#fff"><rect width="751" height="55.219" x="7" y="104" fill="#F1F1F1" rx="12.5" ry="12.5" style="stroke:#181818;stroke-width:.5"/><path d="M7 131.609h751" style="stroke:#181818;stroke-width:.5"/><text x="365" y="123.533" font-family="sans-serif" font-size="14" textLength="35">Open</text><text x="12" y="151.143" font-family="sans-serif" font-size="14" textLength="731">The Demand and Capacity Notification was received by the Consumer and should be considered as an active event.</text><rect width="674" height="55.219" x="45.5" y="237" fill="#F1F1F1" rx="12.5" ry="12.5" style="stroke:#181818;stroke-width:.5"/><path d="M45.5 264.609h674" style="stroke:#181818;stroke-width:.5"/><text x="353" y="256.533" font-family="sans-serif" font-size="14" textLength="59">Resolved</text><text x="50.5" y="284.143" font-family="sans-serif" font-size="14" textLength="654">The Demand and Capacity Notification was declared as resolved by the data provider of the Notification.</text><circle cx="382.5" cy="16" r="10" fill="#222" style="stroke:none;stroke-width:1"/><circle cx="382.5" cy="363" r="10" fill="none" style="stroke:#222;stroke-width:1"/><circle cx="383" cy="363.5" r="6" fill="#222" style="stroke:none;stroke-width:1"/><path fill="none" d="M382.5 26.29v72.34" style="stroke:#181818;stroke-width:1"/><path fill="#181818" d="m382.5 103.73 4-9-4 4-4-4z" style="stroke:#181818;stroke-width:1"/><text x="383.5" y="70.495" font-family="sans-serif" font-size="13" textLength="489">Data provider submitted the Demand and Capacity Notification with the status &quot;open&quot;</text><path fill="none" d="M382.5 159.01v72.37" style="stroke:#181818;stroke-width:1"/><path fill="#181818" d="m382.5 236.58 4-9-4 4-4-4z" style="stroke:#181818;stroke-width:1"/><text x="383.5" y="203.495" font-family="sans-serif" font-size="13" textLength="478">Data provider declared that the Demand and Capacity Notification should be closed</text><path fill="none" d="M382.5 292.12v55.49" style="stroke:#181818;stroke-width:1"/><path fill="#181818" d="m382.5 352.95 4-9-4 4-4-4z" style="stroke:#181818;stroke-width:1"/></svg>