<svg xmlns="http://www.w3.org/2000/svg" xml:space="preserve" width="2344" height="1724" overflow="hidden"><path fill="none" stroke="#000" stroke-linejoin="round" stroke-miterlimit="10" stroke-width="3.438" d="M17.5 677.5h362v218h-362zm490-172h362v218h-362zm0 347h362v219h-362zm980 43h362v219h-362zm-490-227h362v219h-362z"/><path fill="none" stroke="red" stroke-linejoin="round" stroke-miterlimit="10" stroke-width="10.313" d="M1977 892h362v219h-362z"/><path fill="none" stroke="#000" stroke-linejoin="round" stroke-miterlimit="10" stroke-width="3.438" d="M997.5 1120.5h362v218h-362zm-490 0h362v218h-362z"/><text font-family="Calibri,Calibri_MSFontService,sans-serif" font-size="83" font-weight="400" transform="translate(110.23 102)">OEM</text><text font-family="Calibri,Calibri_MSFontService,sans-serif" font-size="83" font-weight="400" transform="translate(600.23 102)">Tier1</text><text font-family="Calibri,Calibri_MSFontService,sans-serif" font-size="83" font-weight="400" transform="translate(1090.23 102)">Tier2</text><text font-family="Calibri,Calibri_MSFontService,sans-serif" font-size="83" font-weight="400" transform="translate(1580.23 103)">Tier3</text><text font-family="Calibri,Calibri_MSFontService,sans-serif" font-size="83" font-weight="400" transform="translate(2068.8 102)">Tier4</text><path d="m1977.283 999.063-104.946 2.345.154 6.874 104.946-2.345Zm-100.594-8.067-27.186 14.36 27.8 13.133Zm-392.309 9.654-116.4-201.59 5.96-3.43 116.39 201.58Zm-123.04-192.46-1.84-30.69 25.66 16.94Zm123.034 195.608-116.508 204.377 5.973 3.405 116.507-204.378Zm-123.197 195.288-1.674 30.7 25.565-17.081Zm-363.817 26.977H892.419v6.875H997.36Zm-100.357-10.313-27.5 13.75 27.5 13.75Zm97.647-435.562L880.9 634.672l5.42-4.234 113.75 145.517ZM875.6 644.634l-6.1-30.134 27.77 13.198Z"/><path d="M994.537 775.538 879.761 940.65l5.645 3.924 114.777-165.112ZM873.91 931l-4.406 30.428 26.986-14.732ZM505 1231.71l-111.197-104.98 4.72-5 111.197 104.98Zm-114.943-94.33L379.5 1108.5l29.435 8.88Z"/><path fill="none" stroke="#000" stroke-linejoin="round" stroke-miterlimit="10" stroke-width="3.438" d="M17.5 999.5h362v218h-362z"/><path d="M504.58 963.88 390.224 807.04l5.555-4.05L510.13 959.83ZM384.591 816.82 379.5 786.5l27.312 14.12Z"/><path d="M504.6 612.45 390.407 766.196l5.52 4.1L510.12 616.55ZM384.862 756.368l-5.359 30.275 27.435-13.878Zm119.906 202.874L391.963 1088.75l5.184 4.515 112.805-129.506ZM387.197 1078.52l-7.694 29.768 28.43-11.705Z"/><g fill="red"><path d="M1901.17 914.48h22.48v3.46h-22.48Zm0 6.92h22.48v3.45h-22.48Zm0 6.91h22.48v3.46h-22.48Z"/><path d="m1942.76 964.28-17.29-16.43 17.29-16.42zm-56.02 2.07 17.11-16.16 1.21-1.13c4.67-4.41 12.02-4.41 16.69 0l1.21 1.13 17.03 16.16zm-2.77-35.01 17.29 16.43-17.29 16.42zm12.1-22.05h34.59v28.79l-7.78 7.44a15.56 15.56 0 0 0-19.03 0l-7.78-7.44zm39.77 2.34v-7.53h-12.1l-10.38-8.64-10.37 8.64h-12.1v7.61l-12.11 11.5v48.33h69.17v-48.33z"/></g><g fill="red"><path d="M1453.17 759.479h22.48v3.459h-22.48Zm0 6.917h22.48v3.458h-22.48Zm0 6.917h22.48v3.458h-22.48Z"/><path d="m1494.76 809.28-17.29-16.43 17.29-16.425zm-56.02 2.07 17.11-16.16 1.21-1.13c4.67-4.41 12.02-4.41 16.69 0l1.21 1.13 17.03 16.16zm-2.77-35.011 17.29 16.431-17.29 16.42zm12.1-22.047h34.59v28.79l-7.78 7.438a15.58 15.58 0 0 0-19.03 0l-7.78-7.438zm39.77 2.334v-7.522h-12.1l-10.38-8.646-10.37 8.646h-12.1v7.609l-12.11 11.499v48.328h69.17v-48.328z"/></g><g fill="red"><path d="M935.17 593.479h22.48v3.459h-22.48Zm0 6.917h22.48v3.458h-22.48Zm0 6.917h22.48v3.458h-22.48Z"/><path d="m976.76 643.279-17.29-16.427 17.29-16.427zm-56.02 2.075 17.11-16.168 1.21-1.124c4.67-4.409 12.02-4.409 16.69 0l1.21 1.124 17.03 16.168zm-2.77-35.015 17.29 16.427-17.29 16.427zm12.1-22.047h34.59v28.79l-7.78 7.436a15.58 15.58 0 0 0-19.03 0l-7.78-7.436zm39.77 2.334v-7.522h-12.1l-10.38-8.646-10.37 8.646h-12.1v7.609l-12.11 11.499v48.33h69.17v-48.33z"/></g><g fill="red"><path d="M421.174 594.48h22.479v3.457h-22.48Zm0 6.916h22.479v3.458h-22.48Zm0 6.916h22.479v3.459h-22.48Z"/><path d="m462.76 644.279-17.291-16.427 17.291-16.427zm-56.025 2.075 17.12-16.168 1.21-1.124c4.668-4.409 12.017-4.409 16.686 0l1.21 1.124 17.033 16.168zm-2.766-35.016 17.291 16.428-17.291 16.427zm12.104-22.046h34.583v28.79l-7.781 7.436a15.57 15.57 0 0 0-19.02 0l-7.782-7.436zm39.77 2.334v-7.522H443.74l-10.375-8.646-10.375 8.646h-12.105v7.608l-12.104 11.5v48.33h69.167v-48.33z"/></g><g fill="red"><path d="M56.81 1401.208h22.21v3.417H56.81Zm0 6.834h22.21v3.416H56.81Zm0 6.833h22.21v3.417H56.81Z"/><path d="m97.896 1450.408-17.084-16.229 17.084-16.23zm-55.35 2.05 16.912-15.973 1.196-1.11c4.613-4.356 11.873-4.356 16.485 0l1.196 1.11 16.827 15.973zm-2.733-34.594 17.083 16.23-17.083 16.229zm11.958-21.78h34.166v28.443l-7.687 7.346a15.38 15.38 0 0 0-18.792 0l-7.687-7.346zm39.291 2.305v-7.43H79.104l-10.25-8.542-10.25 8.541H46.646v7.517l-11.959 11.36v47.748h68.334v-47.748z"/></g><text font-family="Calibri,Calibri_MSFontService,sans-serif" font-size="46" font-weight="400" transform="translate(144.746 1432)">Notification</text><g fill="red"><path d="M1453.17 1198.48h22.48v3.46h-22.48Zm0 6.92h22.48v3.45h-22.48Zm0 6.91h22.48v3.46h-22.48Z"/><path d="m1494.76 1248.28-17.29-16.43 17.29-16.42zm-56.02 2.07 17.11-16.16 1.21-1.13c4.67-4.41 12.02-4.41 16.69 0l1.21 1.13 17.03 16.16zm-2.77-35.01 17.29 16.43-17.29 16.42zm12.1-22.05h34.59v28.79l-7.78 7.44a15.56 15.56 0 0 0-19.03 0l-7.78-7.44zm39.77 2.34v-7.53h-12.1l-10.38-8.64-10.37 8.64h-12.1v7.61l-12.11 11.5v48.33h69.17v-48.33z"/></g><path fill="none" stroke="red" stroke-linejoin="round" stroke-miterlimit="10" stroke-width="10.313" d="M24 1628h76v80H24z"/><text font-family="Calibri,Calibri_MSFontService,sans-serif" font-size="46" font-weight="400" transform="translate(140.195 1684)">Notification</text><text font-family="Calibri,Calibri_MSFontService,sans-serif" font-size="46" font-weight="400" transform="translate(369.362 1684)">Source </text><path d="M97.695 1557.063H51.417v6.875h46.278ZM56 1546.75l-27.5 13.75 27.5 13.75Z"/><text font-family="Calibri,Calibri_MSFontService,sans-serif" font-size="46" font-weight="400" transform="translate(143.395 1563)">Notification</text><text font-family="Calibri,Calibri_MSFontService,sans-serif" font-size="46" font-weight="400" transform="translate(372.562 1563)">direction</text><path fill="#FFF" fill-rule="evenodd" stroke="#172C51" stroke-miterlimit="8" stroke-width="4.583" d="M1810.5 518.5h462v317H2003l-57.75 39.63-57.75-39.63h-77V703.416Z"/><text font-family="Calibri,Calibri_MSFontService,sans-serif" font-size="32" font-weight="400" transform="translate(1822.75 568)">Message ID: 1</text><text font-family="Calibri,Calibri_MSFontService,sans-serif" font-size="32" font-weight="400" transform="translate(1822.75 607)">Notification</text><text font-family="Calibri,Calibri_MSFontService,sans-serif" font-size="32" font-weight="400" transform="translate(1984.89 607)">ID: 10</text><text font-family="Calibri,Calibri_MSFontService,sans-serif" font-size="32" font-weight="400" transform="translate(1822.75 645)">Recipient</text><text font-family="Calibri,Calibri_MSFontService,sans-serif" font-size="32" font-weight="400" transform="translate(1944.78 645)">: BPNL2</text><text font-family="Calibri,Calibri_MSFontService,sans-serif" font-size="32" font-weight="400" transform="translate(1822.75 684)">Sender: BPNL1</text><text font-family="Calibri,Calibri_MSFontService,sans-serif" font-size="32" font-weight="400" transform="translate(1822.75 722)">Root </text><text font-family="Calibri,Calibri_MSFontService,sans-serif" font-size="32" font-weight="400" transform="translate(1892.65 722)">Cause</text><text font-family="Calibri,Calibri_MSFontService,sans-serif" font-size="32" font-weight="400" transform="translate(1970.56 722)">: </text><text font-family="Calibri,Calibri_MSFontService,sans-serif" font-size="32" font-weight="400" transform="translate(1986.61 722)">natural</text><text font-family="Calibri,Calibri_MSFontService,sans-serif" font-size="32" font-weight="400" transform="translate(2088.01 722)">disaster</text><text font-family="Calibri,Calibri_MSFontService,sans-serif" font-size="32" font-weight="400" transform="translate(1822.75 761)">Effect</text><text font-family="Calibri,Calibri_MSFontService,sans-serif" font-size="32" font-weight="400" transform="translate(1898.38 761)">: </text><text font-family="Calibri,Calibri_MSFontService,sans-serif" font-size="32" font-weight="400" transform="translate(1914.42 761)">Capacity</text><text font-family="Calibri,Calibri_MSFontService,sans-serif" font-size="32" font-weight="400" transform="translate(2033.01 761)">decrease</text><text font-family="Calibri,Calibri_MSFontService,sans-serif" font-size="32" font-weight="400" transform="translate(1822.75 799)">Text: </text><text font-family="Calibri,Calibri_MSFontService,sans-serif" font-size="32" font-weight="400" transform="translate(1894.94 799)">Earthquake</text><text font-family="Calibri,Calibri_MSFontService,sans-serif" font-size="32" font-weight="400" transform="translate(2051.35 799)">in Country A</text><path fill="#FFF" fill-rule="evenodd" stroke="#172C51" stroke-miterlimit="8" stroke-width="4.583" d="M1303.5 311.5h462v317H1496l-57.75 39.625-57.75-39.625h-77V496.417Z"/><text font-family="Calibri,Calibri_MSFontService,sans-serif" font-size="32" font-weight="400" transform="translate(1315.68 361)">Message ID: 3</text><text font-family="Calibri,Calibri_MSFontService,sans-serif" font-size="32" font-weight="400" transform="translate(1315.68 400)">Notification</text><text font-family="Calibri,Calibri_MSFontService,sans-serif" font-size="32" font-weight="400" transform="translate(1477.82 400)">ID: 20</text><text font-family="Calibri,Calibri_MSFontService,sans-serif" font-size="32" font-weight="400" transform="translate(1315.68 438)">Recipient</text><text font-family="Calibri,Calibri_MSFontService,sans-serif" font-size="32" font-weight="400" transform="translate(1437.72 438)">: BPNL3</text><text font-family="Calibri,Calibri_MSFontService,sans-serif" font-size="32" font-weight="400" transform="translate(1315.68 477)">Sender: BPNL2</text><text font-family="Calibri,Calibri_MSFontService,sans-serif" font-size="32" font-weight="400" transform="translate(1315.68 515)">Related</text><text font-family="Calibri,Calibri_MSFontService,sans-serif" font-size="32" font-weight="400" transform="translate(1422.82 515)">Notification</text><text font-family="Calibri,Calibri_MSFontService,sans-serif" font-size="32" font-weight="400" transform="translate(1584.96 515)">ID: 10</text><text font-family="Calibri,Calibri_MSFontService,sans-serif" font-size="32" font-weight="400" transform="translate(1315.68 554)">Root </text><text font-family="Calibri,Calibri_MSFontService,sans-serif" font-size="32" font-weight="400" transform="translate(1385.58 554)">Cause</text><text font-family="Calibri,Calibri_MSFontService,sans-serif" font-size="32" font-weight="400" transform="translate(1463.5 554)">: Other</text><text font-family="Calibri,Calibri_MSFontService,sans-serif" font-size="32" font-weight="400" transform="translate(1315.68 592)">Effect</text><text font-family="Calibri,Calibri_MSFontService,sans-serif" font-size="32" font-weight="400" transform="translate(1391.31 592)">: </text><text font-family="Calibri,Calibri_MSFontService,sans-serif" font-size="32" font-weight="400" transform="translate(1407.35 592)">Capacity</text><text font-family="Calibri,Calibri_MSFontService,sans-serif" font-size="32" font-weight="400" transform="translate(1525.94 592)">decrease</text><path fill="#FFF" fill-rule="evenodd" stroke="#172C51" stroke-miterlimit="8" stroke-width="4.583" d="M802.5 157.5h463v317H995.42l-57.88 39.625-57.87-39.625H802.5V342.417Z"/><text font-family="Calibri,Calibri_MSFontService,sans-serif" font-size="32" font-weight="400" transform="translate(815.14 206)">Message ID: 4</text><text font-family="Calibri,Calibri_MSFontService,sans-serif" font-size="32" font-weight="400" transform="translate(815.14 245)">Notification</text><text font-family="Calibri,Calibri_MSFontService,sans-serif" font-size="32" font-weight="400" transform="translate(977.28 245)">ID: 30</text><text font-family="Calibri,Calibri_MSFontService,sans-serif" font-size="32" font-weight="400" transform="translate(815.14 283)">Recipient</text><text font-family="Calibri,Calibri_MSFontService,sans-serif" font-size="32" font-weight="400" transform="translate(937.17 283)">: BPNL5</text><text font-family="Calibri,Calibri_MSFontService,sans-serif" font-size="32" font-weight="400" transform="translate(815.14 322)">Sender: BPNL3</text><text font-family="Calibri,Calibri_MSFontService,sans-serif" font-size="32" font-weight="400" transform="translate(815.14 360)">Related</text><text font-family="Calibri,Calibri_MSFontService,sans-serif" font-size="32" font-weight="400" transform="translate(922.28 360)">Notification</text><text font-family="Calibri,Calibri_MSFontService,sans-serif" font-size="32" font-weight="400" transform="translate(1084.41 360)">ID: 20</text><text font-family="Calibri,Calibri_MSFontService,sans-serif" font-size="32" font-weight="400" transform="translate(815.14 399)">Source </text><text font-family="Calibri,Calibri_MSFontService,sans-serif" font-size="32" font-weight="400" transform="translate(912.54 399)">Notification</text><text font-family="Calibri,Calibri_MSFontService,sans-serif" font-size="32" font-weight="400" transform="translate(1074.67 399)">ID: 10</text><text font-family="Calibri,Calibri_MSFontService,sans-serif" font-size="32" font-weight="400" transform="translate(815.14 437)">Effect</text><text font-family="Calibri,Calibri_MSFontService,sans-serif" font-size="32" font-weight="400" transform="translate(890.77 437)">: </text><text font-family="Calibri,Calibri_MSFontService,sans-serif" font-size="32" font-weight="400" transform="translate(906.81 437)">Capacity</text><text font-family="Calibri,Calibri_MSFontService,sans-serif" font-size="32" font-weight="400" transform="translate(1025.4 437)">decrease</text><path fill="#FFF" fill-rule="evenodd" stroke="#172C51" stroke-miterlimit="8" stroke-width="4.583" d="M297.5 156.5h462v317H490l-57.749 39.625L374.5 473.5h-77V341.417Z"/><text font-family="Calibri,Calibri_MSFontService,sans-serif" font-size="32" font-weight="400" transform="translate(309.539 206)">Message ID: 5</text><text font-family="Calibri,Calibri_MSFontService,sans-serif" font-size="32" font-weight="400" transform="translate(309.539 245)">Notification</text><text font-family="Calibri,Calibri_MSFontService,sans-serif" font-size="32" font-weight="400" transform="translate(471.67 245)">ID: 40</text><text font-family="Calibri,Calibri_MSFontService,sans-serif" font-size="32" font-weight="400" transform="translate(309.539 283)">Recipient</text><text font-family="Calibri,Calibri_MSFontService,sans-serif" font-size="32" font-weight="400" transform="translate(431.571 283)">: BPNL6</text><text font-family="Calibri,Calibri_MSFontService,sans-serif" font-size="32" font-weight="400" transform="translate(309.539 322)">Sender: BPNL5</text><text font-family="Calibri,Calibri_MSFontService,sans-serif" font-size="32" font-weight="400" transform="translate(309.539 360)">Related</text><text font-family="Calibri,Calibri_MSFontService,sans-serif" font-size="32" font-weight="400" transform="translate(416.675 360)">Notification</text><text font-family="Calibri,Calibri_MSFontService,sans-serif" font-size="32" font-weight="400" transform="translate(578.81 360)">ID: 30</text><text font-family="Calibri,Calibri_MSFontService,sans-serif" font-size="32" font-weight="400" transform="translate(309.539 399)">Source </text><text font-family="Calibri,Calibri_MSFontService,sans-serif" font-size="32" font-weight="400" transform="translate(406.935 399)">Notification</text><text font-family="Calibri,Calibri_MSFontService,sans-serif" font-size="32" font-weight="400" transform="translate(569.07 399)">ID: 10</text><text font-family="Calibri,Calibri_MSFontService,sans-serif" font-size="32" font-weight="400" transform="translate(309.539 437)">Effect</text><text font-family="Calibri,Calibri_MSFontService,sans-serif" font-size="32" font-weight="400" transform="translate(385.164 437)">: </text><text font-family="Calibri,Calibri_MSFontService,sans-serif" font-size="32" font-weight="400" transform="translate(401.206 437)">Capacity</text><text font-family="Calibri,Calibri_MSFontService,sans-serif" font-size="32" font-weight="400" transform="translate(519.8 437)">decrease</text><path fill="#FFF" fill-rule="evenodd" stroke="#172C51" stroke-miterlimit="8" stroke-width="4.583" d="M1340.5 1351.5h77.33l53.17-40.81 62.83 40.81h270.67v316.99h-464v-264.16Z"/><text font-family="Calibri,Calibri_MSFontService,sans-serif" font-size="32" font-weight="400" transform="translate(1353.24 1401)">Message ID: 2</text><text font-family="Calibri,Calibri_MSFontService,sans-serif" font-size="32" font-weight="400" transform="translate(1353.24 1440)">Notification</text><text font-family="Calibri,Calibri_MSFontService,sans-serif" font-size="32" font-weight="400" transform="translate(1515.37 1440)">ID: 20</text><text font-family="Calibri,Calibri_MSFontService,sans-serif" font-size="32" font-weight="400" transform="translate(1353.24 1478)">Recipient</text><text font-family="Calibri,Calibri_MSFontService,sans-serif" font-size="32" font-weight="400" transform="translate(1475.27 1478)">: BPNL4</text><text font-family="Calibri,Calibri_MSFontService,sans-serif" font-size="32" font-weight="400" transform="translate(1353.24 1517)">Sender: BPNL2</text><text font-family="Calibri,Calibri_MSFontService,sans-serif" font-size="32" font-weight="400" transform="translate(1353.24 1555)">Related</text><text font-family="Calibri,Calibri_MSFontService,sans-serif" font-size="32" font-weight="400" transform="translate(1460.37 1555)">Notification</text><text font-family="Calibri,Calibri_MSFontService,sans-serif" font-size="32" font-weight="400" transform="translate(1622.51 1555)">ID: 10</text><text font-family="Calibri,Calibri_MSFontService,sans-serif" font-size="32" font-weight="400" transform="translate(1353.24 1594)">Root </text><text font-family="Calibri,Calibri_MSFontService,sans-serif" font-size="32" font-weight="400" transform="translate(1423.13 1594)">Cause</text><text font-family="Calibri,Calibri_MSFontService,sans-serif" font-size="32" font-weight="400" transform="translate(1501.05 1594)">: Other</text><text font-family="Calibri,Calibri_MSFontService,sans-serif" font-size="32" font-weight="400" transform="translate(1353.24 1632)">Effect</text><text font-family="Calibri,Calibri_MSFontService,sans-serif" font-size="32" font-weight="400" transform="translate(1428.86 1632)">: </text><text font-family="Calibri,Calibri_MSFontService,sans-serif" font-size="32" font-weight="400" transform="translate(1444.9 1632)">Capacity</text><text font-family="Calibri,Calibri_MSFontService,sans-serif" font-size="32" font-weight="400" transform="translate(1563.5 1632)">decrease</text></svg>