<svg width="2349" height="1776" xmlns="http://www.w3.org/2000/svg" xmlns:xlink="http://www.w3.org/1999/xlink" xml:space="preserve" overflow="hidden"><g transform="translate(-154 -82)"><text font-family="Calibri,Calibri_MSFontService,sans-serif" font-weight="400" font-size="83" transform="matrix(1 0 0 1 271.942 184)">OEM</text><text font-family="Calibri,Calibri_MSFontService,sans-serif" font-weight="400" font-size="83" transform="matrix(1 0 0 1 761.942 184)">Tier1</text><text font-family="Calibri,Calibri_MSFontService,sans-serif" font-weight="400" font-size="83" transform="matrix(1 0 0 1 1251.94 184)">Tier2</text><text font-family="Calibri,Calibri_MSFontService,sans-serif" font-weight="400" font-size="83" transform="matrix(1 0 0 1 1741.94 184)">Tier3</text><text font-family="Calibri,Calibri_MSFontService,sans-serif" font-weight="400" font-size="83" transform="matrix(1 0 0 1 2230.51 184)">Tier4</text><rect x="179.5" y="763.5" width="362" height="219" stroke="#000000" stroke-width="3.4375" stroke-linejoin="round" stroke-miterlimit="10" fill="none"/><rect x="669.5" y="591.5" width="362" height="219" stroke="#000000" stroke-width="3.4375" stroke-linejoin="round" stroke-miterlimit="10" fill="none"/><rect x="669.5" y="939.5" width="362" height="218" stroke="#000000" stroke-width="3.4375" stroke-linejoin="round" stroke-miterlimit="10" fill="none"/><rect x="1649.5" y="982.5" width="362" height="218" stroke="#000000" stroke-width="3.4375" stroke-linejoin="round" stroke-miterlimit="10" fill="none"/><rect x="1159" y="755" width="362" height="218" stroke="#FF0000" stroke-width="10.3125" stroke-linejoin="round" stroke-miterlimit="10" fill="none"/><rect x="2139.5" y="979.5" width="362" height="218" stroke="#000000" stroke-width="3.4375" stroke-linejoin="round" stroke-miterlimit="10" fill="none"/><rect x="1159.5" y="1206.5" width="362" height="219" stroke="#000000" stroke-width="3.4375" stroke-linejoin="round" stroke-miterlimit="10" fill="none"/><rect x="669.5" y="1206.5" width="362" height="219" stroke="#000000" stroke-width="3.4375" stroke-linejoin="round" stroke-miterlimit="10" fill="none"/><path d="M0.076788-3.43664 105.023-1.09174 104.869 5.78155-0.076788 3.43664ZM100.671-11.504 127.857 2.85682 100.057 15.9891Z" transform="matrix(1 0 0 -1 2011.5 1091.36)"/><path d="M1524.5 862.814 1641.11 1069.99 1635.12 1073.36 1518.5 866.186ZM1647.85 1060.93 1649.36 1091.64 1623.89 1074.42Z"/><path d="M1156.65 866.189 1042.9 720.672 1048.32 716.438 1162.07 861.955ZM1037.6 730.634 1031.5 700.5 1059.27 713.699Z"/><path d="M2.82253-1.96207 117.599 163.15 111.954 167.074-2.82253 1.96207ZM123.451 153.5 127.857 183.928 100.871 169.196Z" transform="matrix(-1 0 0 1 1159.36 864.5)"/><rect x="179.5" y="1085.5" width="362" height="219" stroke="#000000" stroke-width="3.4375" stroke-linejoin="round" stroke-miterlimit="10" fill="none"/><path d="M666.58 1049.88 552.224 893.042 557.779 888.992 672.135 1045.83ZM546.591 902.821 541.5 872.5 568.812 886.62Z"/><path d="M2.75959-2.04965 116.953 151.696 111.433 155.796-2.75959 2.04965ZM122.498 141.868 127.857 172.143 100.422 158.265Z" transform="matrix(-1 0 0 1 669.357 700.5)"/><path d="M2.59206-2.25779 115.397 127.249 110.213 131.764-2.59206 2.25779ZM120.163 117.019 127.857 146.787 99.4267 135.082Z" transform="matrix(-1 0 0 1 669.357 1048.5)"/><g><g><g><path d="M29.8105 22.2084 52.0189 22.2084 52.0189 25.6251 29.8105 25.6251Z" fill="#FF0000" transform="matrix(1 0 0 1.01219 2033 979)"/><path d="M29.8105 29.0417 52.0189 29.0417 52.0189 32.4584 29.8105 32.4584Z" fill="#FF0000" transform="matrix(1 0 0 1.01219 2033 979)"/><path d="M29.8105 35.8751 52.0189 35.8751 52.0189 39.2917 29.8105 39.2917Z" fill="#FF0000" transform="matrix(1 0 0 1.01219 2033 979)"/><path d="M70.896 71.4085 53.8126 55.1793 70.896 38.9501 70.896 71.4085ZM15.5459 73.4585 32.4584 57.4855 33.6542 56.3751C38.2667 52.0189 45.5272 52.0189 50.1397 56.3751L51.3355 57.4855 68.1626 73.4585 15.5459 73.4585ZM12.8125 38.8647 29.8959 55.0939 12.8125 71.3231 12.8125 38.8647ZM24.7709 17.0834 58.9376 17.0834 58.9376 45.5272 51.2501 52.873C45.698 48.6022 38.0105 48.6022 32.4584 52.873L24.7709 45.5272 24.7709 17.0834ZM64.0626 19.3896 64.0626 11.9584 52.1043 11.9584 41.8542 3.41667 31.6042 11.9584 19.6459 11.9584 19.6459 19.475 7.68752 30.8355 7.68752 78.5835 76.021 78.5835 76.021 30.8355 64.0626 19.3896Z" fill="#FF0000" transform="matrix(1 0 0 1.01219 2033 979)"/></g></g></g><g><g><g><path d="M30.1739 22.4791 52.653 22.4791 52.653 25.9374 30.1739 25.9374Z" fill="#FF0000" transform="matrix(1 0 0 1 1585 824)"/><path d="M30.1739 29.3958 52.653 29.3958 52.653 32.8541 30.1739 32.8541Z" fill="#FF0000" transform="matrix(1 0 0 1 1585 824)"/><path d="M30.1739 36.3124 52.653 36.3124 52.653 39.7708 30.1739 39.7708Z" fill="#FF0000" transform="matrix(1 0 0 1 1585 824)"/><path d="M71.7603 72.279 54.4686 55.852 71.7603 39.4249 71.7603 72.279ZM15.7354 74.354 32.8541 58.1863 34.0645 57.0624C38.7333 52.653 46.0822 52.653 50.7509 57.0624L51.9614 58.1863 68.9936 74.354 15.7354 74.354ZM12.9687 39.3385 30.2604 55.7655 12.9687 72.1926 12.9687 39.3385ZM25.0729 17.2916 59.6561 17.2916 59.6561 46.0822 51.8749 53.5176C46.2551 49.1947 38.4739 49.1947 32.8541 53.5176L25.0729 46.0822 25.0729 17.2916ZM64.8436 19.626 64.8436 12.1041 52.7395 12.1041 42.3645 3.45833 31.9895 12.1041 19.8854 12.1041 19.8854 19.7125 7.78123 31.2114 7.78123 79.5415 76.9478 79.5415 76.9478 31.2114 64.8436 19.626Z" fill="#FF0000" transform="matrix(1 0 0 1 1585 824)"/></g></g></g><g><g><g><path d="M30.1739 22.4791 52.653 22.4791 52.653 25.9374 30.1739 25.9374Z" fill="#FF0000" transform="matrix(1 0 0 1 1067 658)"/><path d="M30.1739 29.3958 52.653 29.3958 52.653 32.8541 30.1739 32.8541Z" fill="#FF0000" transform="matrix(1 0 0 1 1067 658)"/><path d="M30.1739 36.3124 52.653 36.3124 52.653 39.7708 30.1739 39.7708Z" fill="#FF0000" transform="matrix(1 0 0 1 1067 658)"/><path d="M71.7603 72.279 54.4686 55.852 71.7603 39.4249 71.7603 72.279ZM15.7354 74.354 32.8541 58.1863 34.0645 57.0624C38.7333 52.653 46.0822 52.653 50.7509 57.0624L51.9614 58.1863 68.9936 74.354 15.7354 74.354ZM12.9687 39.3385 30.2604 55.7655 12.9687 72.1926 12.9687 39.3385ZM25.0729 17.2916 59.6561 17.2916 59.6561 46.0822 51.8749 53.5176C46.2551 49.1947 38.4739 49.1947 32.8541 53.5176L25.0729 46.0822 25.0729 17.2916ZM64.8436 19.626 64.8436 12.1041 52.7395 12.1041 42.3645 3.45833 31.9895 12.1041 19.8854 12.1041 19.8854 19.7125 7.78123 31.2114 7.78123 79.5415 76.9478 79.5415 76.9478 31.2114 64.8436 19.626Z" fill="#FF0000" transform="matrix(1 0 0 1 1067 658)"/></g></g></g><g><g><g><path d="M29.8103 22.2083 52.0186 22.2083 52.0186 25.6249 29.8103 25.6249Z" fill="#FF0000" transform="matrix(1 0 0 1.0122 553 659)"/><path d="M29.8103 29.0416 52.0186 29.0416 52.0186 32.4583 29.8103 32.4583Z" fill="#FF0000" transform="matrix(1 0 0 1.0122 553 659)"/><path d="M29.8103 35.8749 52.0186 35.8749 52.0186 39.2916 29.8103 39.2916Z" fill="#FF0000" transform="matrix(1 0 0 1.0122 553 659)"/><path d="M70.8957 71.4082 53.8124 55.179 70.8957 38.9499 70.8957 71.4082ZM15.5458 73.4582 32.4583 57.4853 33.6541 56.3749C38.2666 52.0186 45.527 52.0186 50.1395 56.3749L51.3353 57.4853 68.1623 73.4582 15.5458 73.4582ZM12.8125 38.8645 29.8958 55.0936 12.8125 71.3227 12.8125 38.8645ZM24.7708 17.0833 58.9374 17.0833 58.9374 45.527 51.2499 52.8728C45.6978 48.602 38.0103 48.602 32.4583 52.8728L24.7708 45.527 24.7708 17.0833ZM64.0623 19.3895 64.0623 11.9583 52.104 11.9583 41.8541 3.41666 31.6041 11.9583 19.6458 11.9583 19.6458 19.475 7.68748 30.8353 7.68748 78.5831 76.0207 78.5831 76.0207 30.8353 64.0623 19.3895Z" fill="#FF0000" transform="matrix(1 0 0 1.0122 553 659)"/></g></g></g><g><g><g><path d="M30.1739 22.4791 52.653 22.4791 52.653 25.9374 30.1739 25.9374Z" fill="#FF0000" transform="matrix(1 0 0 1 1075 1004)"/><path d="M30.1739 29.3958 52.653 29.3958 52.653 32.8541 30.1739 32.8541Z" fill="#FF0000" transform="matrix(1 0 0 1 1075 1004)"/><path d="M30.1739 36.3124 52.653 36.3124 52.653 39.7708 30.1739 39.7708Z" fill="#FF0000" transform="matrix(1 0 0 1 1075 1004)"/><path d="M71.7603 72.279 54.4686 55.852 71.7603 39.4249 71.7603 72.279ZM15.7354 74.354 32.8541 58.1863 34.0645 57.0624C38.7333 52.653 46.0822 52.653 50.7509 57.0624L51.9614 58.1863 68.9936 74.354 15.7354 74.354ZM12.9687 39.3385 30.2604 55.7655 12.9687 72.1926 12.9687 39.3385ZM25.0729 17.2916 59.6561 17.2916 59.6561 46.0822 51.8749 53.5176C46.2551 49.1947 38.4739 49.1947 32.8541 53.5176L25.0729 46.0822 25.0729 17.2916ZM64.8436 19.626 64.8436 12.1041 52.7395 12.1041 42.3645 3.45833 31.9895 12.1041 19.8854 12.1041 19.8854 19.7125 7.78123 31.2114 7.78123 79.5415 76.9478 79.5415 76.9478 31.2114 64.8436 19.626Z" fill="#FF0000" transform="matrix(1 0 0 1 1075 1004)"/></g></g></g><g><g><g><path d="M575.174 1007.48 597.653 1007.48 597.653 1010.94 575.174 1010.94Z" fill="#FF0000"/><path d="M575.174 1014.4 597.653 1014.4 597.653 1017.85 575.174 1017.85Z" fill="#FF0000"/><path d="M575.174 1021.31 597.653 1021.31 597.653 1024.77 575.174 1024.77Z" fill="#FF0000"/><path d="M616.76 1057.28 599.469 1040.85 616.76 1024.42 616.76 1057.28ZM560.735 1059.35 577.854 1043.19 579.064 1042.06C583.733 1037.65 591.082 1037.65 595.751 1042.06L596.961 1043.19 613.994 1059.35 560.735 1059.35ZM557.969 1024.34 575.26 1040.77 557.969 1057.19 557.969 1024.34ZM570.073 1002.29 604.656 1002.29 604.656 1031.08 596.875 1038.52C591.255 1034.19 583.474 1034.19 577.854 1038.52L570.073 1031.08 570.073 1002.29ZM609.844 1004.63 609.844 997.104 597.74 997.104 587.365 988.458 576.99 997.104 564.885 997.104 564.885 1004.71 552.781 1016.21 552.781 1064.54 621.948 1064.54 621.948 1016.21 609.844 1004.63Z" fill="#FF0000"/></g></g></g><path d="M459.5 247.5 536.5 247.5 536.5 247.5 652 247.5 921.5 247.5 921.5 432.416 921.5 432.416 921.5 511.666 921.5 564.5 652 564.5 594.252 604.125 536.5 564.5 459.5 564.5 459.5 511.666 459.5 432.416 459.5 432.416Z" stroke="#172C51" stroke-width="4.58333" stroke-miterlimit="8" fill="#FFFFFF" fill-rule="evenodd"/><text font-family="Calibri,Calibri_MSFontService,sans-serif" font-weight="400" font-size="32" transform="matrix(1 0 0 1 471.726 297)">Message ID: 3</text><text font-family="Calibri,Calibri_MSFontService,sans-serif" font-weight="400" font-size="32" transform="matrix(1 0 0 1 471.726 336)">Notification</text><text font-family="Calibri,Calibri_MSFontService,sans-serif" font-weight="400" font-size="32" transform="matrix(1 0 0 1 633.861 336)">ID: 30</text><text font-family="Calibri,Calibri_MSFontService,sans-serif" font-weight="400" font-size="32" transform="matrix(1 0 0 1 471.726 374)">Recipient</text><text font-family="Calibri,Calibri_MSFontService,sans-serif" font-weight="400" font-size="32" transform="matrix(1 0 0 1 593.757 374)">: BPNL4</text><text font-family="Calibri,Calibri_MSFontService,sans-serif" font-weight="400" font-size="32" transform="matrix(1 0 0 1 471.726 413)">Sender: BPNL2</text><text font-family="Calibri,Calibri_MSFontService,sans-serif" font-weight="400" font-size="32" transform="matrix(1 0 0 1 471.726 451)">Related</text><text font-family="Calibri,Calibri_MSFontService,sans-serif" font-weight="400" font-size="32" transform="matrix(1 0 0 1 578.861 451)">Notification</text><text font-family="Calibri,Calibri_MSFontService,sans-serif" font-weight="400" font-size="32" transform="matrix(1 0 0 1 740.996 451)">ID: 10</text><text font-family="Calibri,Calibri_MSFontService,sans-serif" font-weight="400" font-size="32" transform="matrix(1 0 0 1 471.726 490)">Root </text><text font-family="Calibri,Calibri_MSFontService,sans-serif" font-weight="400" font-size="32" transform="matrix(1 0 0 1 541.622 490)">Cause</text><text font-family="Calibri,Calibri_MSFontService,sans-serif" font-weight="400" font-size="32" transform="matrix(1 0 0 1 619.538 490)">: </text><text font-family="Calibri,Calibri_MSFontService,sans-serif" font-weight="400" font-size="32" transform="matrix(1 0 0 1 635.58 490)">production</text><text font-family="Calibri,Calibri_MSFontService,sans-serif" font-weight="400" font-size="32" transform="matrix(1 0 0 1 787.403 490)">incident</text><text font-family="Calibri,Calibri_MSFontService,sans-serif" font-weight="400" font-size="32" transform="matrix(1 0 0 1 471.726 528)">Effect</text><text font-family="Calibri,Calibri_MSFontService,sans-serif" font-weight="400" font-size="32" transform="matrix(1 0 0 1 547.351 528)">: </text><text font-family="Calibri,Calibri_MSFontService,sans-serif" font-weight="400" font-size="32" transform="matrix(1 0 0 1 563.392 528)">Capacity</text><text font-family="Calibri,Calibri_MSFontService,sans-serif" font-weight="400" font-size="32" transform="matrix(1 0 0 1 681.986 528)">decrease</text><path d="M970.5 247.5 1047.67 247.5 1047.67 247.5 1163.42 247.5 1433.5 247.5 1433.5 432.417 1433.5 432.417 1433.5 511.667 1433.5 564.5 1163.42 564.5 1105.54 604.125 1047.67 564.5 970.5 564.5 970.5 511.667 970.5 432.417 970.5 432.417Z" stroke="#172C51" stroke-width="4.58333" stroke-miterlimit="8" fill="#FFFFFF" fill-rule="evenodd"/><text font-family="Calibri,Calibri_MSFontService,sans-serif" font-weight="400" font-size="32" transform="matrix(1 0 0 1 983.363 297)">Message ID: 1</text><text font-family="Calibri,Calibri_MSFontService,sans-serif" font-weight="400" font-size="32" transform="matrix(1 0 0 1 983.363 336)">Notification</text><text font-family="Calibri,Calibri_MSFontService,sans-serif" font-weight="400" font-size="32" transform="matrix(1 0 0 1 1145.5 336)">ID: 10</text><text font-family="Calibri,Calibri_MSFontService,sans-serif" font-weight="400" font-size="32" transform="matrix(1 0 0 1 983.363 374)">Recipient</text><text font-family="Calibri,Calibri_MSFontService,sans-serif" font-weight="400" font-size="32" transform="matrix(1 0 0 1 1105.39 374)">: BPNL2</text><text font-family="Calibri,Calibri_MSFontService,sans-serif" font-weight="400" font-size="32" transform="matrix(1 0 0 1 983.363 413)">Sender: BPNL1</text><text font-family="Calibri,Calibri_MSFontService,sans-serif" font-weight="400" font-size="32" transform="matrix(1 0 0 1 983.363 451)">Root </text><text font-family="Calibri,Calibri_MSFontService,sans-serif" font-weight="400" font-size="32" transform="matrix(1 0 0 1 1053.26 451)">Cause</text><text font-family="Calibri,Calibri_MSFontService,sans-serif" font-weight="400" font-size="32" transform="matrix(1 0 0 1 1131.18 451)">: </text><text font-family="Calibri,Calibri_MSFontService,sans-serif" font-weight="400" font-size="32" transform="matrix(1 0 0 1 1147.22 451)">production</text><text font-family="Calibri,Calibri_MSFontService,sans-serif" font-weight="400" font-size="32" transform="matrix(1 0 0 1 1299.04 451)">incident</text><text font-family="Calibri,Calibri_MSFontService,sans-serif" font-weight="400" font-size="32" transform="matrix(1 0 0 1 983.363 490)">Effect</text><text font-family="Calibri,Calibri_MSFontService,sans-serif" font-weight="400" font-size="32" transform="matrix(1 0 0 1 1058.99 490)">: </text><text font-family="Calibri,Calibri_MSFontService,sans-serif" font-weight="400" font-size="32" transform="matrix(1 0 0 1 1075.03 490)">Capacity</text><text font-family="Calibri,Calibri_MSFontService,sans-serif" font-weight="400" font-size="32" transform="matrix(1 0 0 1 1193.62 490)">decrease</text><text font-family="Calibri,Calibri_MSFontService,sans-serif" font-weight="400" font-size="32" transform="matrix(1 0 0 1 983.363 528)">Text: </text><text font-family="Calibri,Calibri_MSFontService,sans-serif" font-weight="400" font-size="32" transform="matrix(1 0 0 1 1055.55 528)">Machine</text><text font-family="Calibri,Calibri_MSFontService,sans-serif" font-weight="400" font-size="32" transform="matrix(1 0 0 1 1176.44 528)">A </text><text font-family="Calibri,Calibri_MSFontService,sans-serif" font-weight="400" font-size="32" transform="matrix(1 0 0 1 1202.22 528)">breakdówn</text><path d="M1459.5 368.5 1536.5 368.5 1536.5 368.5 1652 368.5 1921.5 368.5 1921.5 553.416 1921.5 553.416 1921.5 632.666 1921.5 685.5 1652 685.5 1594.25 725.125 1536.5 685.5 1459.5 685.5 1459.5 632.666 1459.5 553.416 1459.5 553.416Z" stroke="#172C51" stroke-width="4.58333" stroke-miterlimit="8" fill="#FFFFFF" fill-rule="evenodd"/><text font-family="Calibri,Calibri_MSFontService,sans-serif" font-weight="400" font-size="32" transform="matrix(1 0 0 1 1471.66 418)">Message ID: 2</text><text font-family="Calibri,Calibri_MSFontService,sans-serif" font-weight="400" font-size="32" transform="matrix(1 0 0 1 1471.66 457)">Notification</text><text font-family="Calibri,Calibri_MSFontService,sans-serif" font-weight="400" font-size="32" transform="matrix(1 0 0 1 1633.79 457)">ID: 20</text><text font-family="Calibri,Calibri_MSFontService,sans-serif" font-weight="400" font-size="32" transform="matrix(1 0 0 1 1471.66 495)">Recipient</text><text font-family="Calibri,Calibri_MSFontService,sans-serif" font-weight="400" font-size="32" transform="matrix(1 0 0 1 1593.69 495)">: BPNL3</text><text font-family="Calibri,Calibri_MSFontService,sans-serif" font-weight="400" font-size="32" transform="matrix(1 0 0 1 1471.66 534)">Sender: BPNL1</text><text font-family="Calibri,Calibri_MSFontService,sans-serif" font-weight="400" font-size="32" transform="matrix(1 0 0 1 1471.66 572)">Root </text><text font-family="Calibri,Calibri_MSFontService,sans-serif" font-weight="400" font-size="32" transform="matrix(1 0 0 1 1541.56 572)">Cause</text><text font-family="Calibri,Calibri_MSFontService,sans-serif" font-weight="400" font-size="32" transform="matrix(1 0 0 1 1619.47 572)">: </text><text font-family="Calibri,Calibri_MSFontService,sans-serif" font-weight="400" font-size="32" transform="matrix(1 0 0 1 1635.51 572)">production</text><text font-family="Calibri,Calibri_MSFontService,sans-serif" font-weight="400" font-size="32" transform="matrix(1 0 0 1 1787.34 572)">incident</text><text font-family="Calibri,Calibri_MSFontService,sans-serif" font-weight="400" font-size="32" transform="matrix(1 0 0 1 1471.66 611)">Effect</text><text font-family="Calibri,Calibri_MSFontService,sans-serif" font-weight="400" font-size="32" transform="matrix(1 0 0 1 1547.28 611)">: Demand </text><text font-family="Calibri,Calibri_MSFontService,sans-serif" font-weight="400" font-size="32" transform="matrix(1 0 0 1 1680.77 611)">decrease</text><text font-family="Calibri,Calibri_MSFontService,sans-serif" font-weight="400" font-size="32" transform="matrix(1 0 0 1 1471.66 649)">Text: </text><text font-family="Calibri,Calibri_MSFontService,sans-serif" font-weight="400" font-size="32" transform="matrix(1 0 0 1 1543.85 649)">Machine</text><text font-family="Calibri,Calibri_MSFontService,sans-serif" font-weight="400" font-size="32" transform="matrix(1 0 0 1 1664.73 649)">A breakdown</text><path d="M1942.5 613.5 2019.5 613.5 2019.5 613.5 2135 613.5 2404.5 613.5 2404.5 798.417 2404.5 798.417 2404.5 877.667 2404.5 930.5 2135 930.5 2077.25 970.125 2019.5 930.5 1942.5 930.5 1942.5 877.667 1942.5 798.417 1942.5 798.417Z" stroke="#172C51" stroke-width="4.58333" stroke-miterlimit="8" fill="#FFFFFF" fill-rule="evenodd"/><text font-family="Calibri,Calibri_MSFontService,sans-serif" font-weight="400" font-size="32" transform="matrix(1 0 0 1 1954.61 662)">Message ID: 4</text><text font-family="Calibri,Calibri_MSFontService,sans-serif" font-weight="400" font-size="32" transform="matrix(1 0 0 1 1954.61 701)">Notification</text><text font-family="Calibri,Calibri_MSFontService,sans-serif" font-weight="400" font-size="32" transform="matrix(1 0 0 1 2116.75 701)">ID: 40</text><text font-family="Calibri,Calibri_MSFontService,sans-serif" font-weight="400" font-size="32" transform="matrix(1 0 0 1 1954.61 739)">Recipient</text><text font-family="Calibri,Calibri_MSFontService,sans-serif" font-weight="400" font-size="32" transform="matrix(1 0 0 1 2076.64 739)">: BPNL5</text><text font-family="Calibri,Calibri_MSFontService,sans-serif" font-weight="400" font-size="32" transform="matrix(1 0 0 1 1954.61 778)">Sender: BPNL3</text><text font-family="Calibri,Calibri_MSFontService,sans-serif" font-weight="400" font-size="32" transform="matrix(1 0 0 1 1954.61 816)">Related</text><text font-family="Calibri,Calibri_MSFontService,sans-serif" font-weight="400" font-size="32" transform="matrix(1 0 0 1 2061.75 816)">Notification</text><text font-family="Calibri,Calibri_MSFontService,sans-serif" font-weight="400" font-size="32" transform="matrix(1 0 0 1 2223.88 816)">ID</text><text font-family="Calibri,Calibri_MSFontService,sans-serif" font-weight="400" font-size="32" transform="matrix(1 0 0 1 2251.38 816)">: 20</text><text font-family="Calibri,Calibri_MSFontService,sans-serif" font-weight="400" font-size="32" transform="matrix(1 0 0 1 1954.61 855)">Root </text><text font-family="Calibri,Calibri_MSFontService,sans-serif" font-weight="400" font-size="32" transform="matrix(1 0 0 1 2024.51 855)">Cause</text><text font-family="Calibri,Calibri_MSFontService,sans-serif" font-weight="400" font-size="32" transform="matrix(1 0 0 1 2102.42 855)">: Other</text><text font-family="Calibri,Calibri_MSFontService,sans-serif" font-weight="400" font-size="32" transform="matrix(1 0 0 1 1954.61 893)">Effect</text><text font-family="Calibri,Calibri_MSFontService,sans-serif" font-weight="400" font-size="32" transform="matrix(1 0 0 1 2030.23 893)">: Demand </text><text font-family="Calibri,Calibri_MSFontService,sans-serif" font-weight="400" font-size="32" transform="matrix(1 0 0 1 2163.72 893)">decrease</text><g><g><g><path d="M211.174 1534.48 233.653 1534.48 233.653 1537.94 211.174 1537.94Z" fill="#FF0000"/><path d="M211.174 1541.4 233.653 1541.4 233.653 1544.85 211.174 1544.85Z" fill="#FF0000"/><path d="M211.174 1548.31 233.653 1548.31 233.653 1551.77 211.174 1551.77Z" fill="#FF0000"/><path d="M252.76 1584.28 235.469 1567.85 252.76 1551.43 252.76 1584.28ZM196.736 1586.35 213.854 1570.19 215.065 1569.06C219.733 1564.65 227.082 1564.65 231.751 1569.06L232.962 1570.19 249.994 1586.35 196.736 1586.35ZM193.969 1551.34 211.261 1567.77 193.969 1584.19 193.969 1551.34ZM206.073 1529.29 240.656 1529.29 240.656 1558.08 232.875 1565.52C227.255 1561.19 219.474 1561.19 213.854 1565.52L206.073 1558.08 206.073 1529.29ZM245.844 1531.63 245.844 1524.1 233.74 1524.1 223.365 1515.46 212.99 1524.1 200.886 1524.1 200.886 1531.71 188.781 1543.21 188.781 1591.54 257.948 1591.54 257.948 1543.21 245.844 1531.63Z" fill="#FF0000"/></g></g></g><text font-family="Calibri,Calibri_MSFontService,sans-serif" font-weight="400" font-size="46" transform="matrix(1 0 0 1 299.008 1565)">Notification</text><rect x="179" y="1761" width="74.9999" height="81.0001" stroke="#FF0000" stroke-width="10.3125" stroke-linejoin="round" stroke-miterlimit="10" fill="none"/><text font-family="Calibri,Calibri_MSFontService,sans-serif" font-weight="400" font-size="46" transform="matrix(1 0 0 1 294.457 1818)">Notification</text><text font-family="Calibri,Calibri_MSFontService,sans-serif" font-weight="400" font-size="46" transform="matrix(1 0 0 1 523.624 1818)">Source </text><path d="M1.79286e-05-3.4375 46.2783-3.43726 46.2783 3.43774-1.79286e-05 3.4375ZM41.695-13.7498 69.195 0.000360892 41.6949 13.7502Z" transform="matrix(-1 0 0 1 251.695 1693.5)"/><text font-family="Calibri,Calibri_MSFontService,sans-serif" font-weight="400" font-size="46" transform="matrix(1 0 0 1 297.657 1696)">Notification</text><text font-family="Calibri,Calibri_MSFontService,sans-serif" font-weight="400" font-size="46" transform="matrix(1 0 0 1 526.824 1696)">direction</text></g></svg>