<?xml version="1.0" encoding="UTF-8" standalone="no"?><svg xmlns="http://www.w3.org/2000/svg" xmlns:xlink="http://www.w3.org/1999/xlink" contentStyleType="text/css" height="130.2083px" preserveAspectRatio="none" style="width:198px;height:130px;background:#FFFFFF;" version="1.1" viewBox="0 0 198 130" width="198.9583px" zoomAndPan="magnify"><defs/><g><!--MD5=[d83005f75f6c923452b27bd89234024a]
cluster Legal Entity and References--><g id="cluster_Legal Entity and References"><path d="M4.4271,3.125 L107.5521,3.125 A1.9531,1.9531 0 0 1 108.8542,4.4271 L112.5,15.4215 L194.0104,15.4215 A1.3021,1.3021 0 0 1 195.3125,16.7236 L195.3125,125.2604 A1.3021,1.3021 0 0 1 194.0104,126.5625 L4.4271,126.5625 A1.3021,1.3021 0 0 1 3.125,125.2604 L3.125,4.4271 A1.3021,1.3021 0 0 1 4.4271,3.125 " style="stroke:#000000;stroke-width:0.78125;fill:none;"/><line style="stroke:#000000;stroke-width:0.78125;fill:none;" x1="3.125" x2="112.5" y1="15.4215" y2="15.4215"/><text fill="#000000" font-family="sans-serif" font-size="7.2917" font-weight="bold" lengthAdjust="spacing" textLength="102.6042" x="5.2083" y="11.736">Legal Entity and References</text></g><!--MD5=[e50f24c143873ab5352ff9f9e3841676]
class LegalEntity--><g id="elem_LegalEntity"><rect codeLine="5" fill="#F1F1F1" height="39.1764" id="LegalEntity" rx="1.3021" ry="1.3021" style="stroke:#181818;stroke-width:0.2604166666666667;" width="53.125" x="11.4583" y="79.1667"/><ellipse cx="19.2708" cy="87.5" fill="#ADD1B2" rx="5.7292" ry="5.7292" style="stroke:#181818;stroke-width:0.5208333333333334;"/><path d="M18.6768,87.915 L18.6768,89.2171 L20.931,89.2171 L20.931,88.737 Q20.931,88.4196 21.0531,88.2813 Q21.1833,88.1429 21.3786,88.1429 Q21.5739,88.1429 21.696,88.2813 Q21.818,88.4196 21.818,88.737 L21.818,90.1042 L17.6514,90.1042 Q17.3258,90.1042 17.1875,89.9821 Q17.0573,89.86 17.0573,89.6566 Q17.0573,89.4613 17.1956,89.3392 Q17.334,89.2171 17.6514,89.2171 L17.7897,89.2171 L17.7897,85.7503 L17.6514,85.7503 Q17.3258,85.7503 17.1875,85.6283 Q17.0573,85.5062 17.0573,85.3027 Q17.0573,85.1074 17.1875,84.9854 Q17.3258,84.8633 17.6514,84.8633 L21.6227,84.8633 L21.6227,86.2142 Q21.6227,86.5316 21.5007,86.6699 Q21.3867,86.8001 21.1833,86.8001 Q20.988,86.8001 20.8659,86.6699 Q20.7438,86.5316 20.7438,86.2142 L20.7438,85.7503 L18.6768,85.7503 L18.6768,87.028 L19.4499,87.028 Q19.4499,86.6862 19.515,86.5885 Q19.6533,86.377 19.8975,86.377 Q20.0928,86.377 20.2148,86.5153 Q20.3369,86.6455 20.3369,86.9629 L20.3369,87.9883 Q20.3369,88.2731 20.2718,88.3708 Q20.1335,88.5742 19.8975,88.5742 Q19.6533,88.5742 19.515,88.3626 Q19.4499,88.265 19.4499,87.915 L18.6768,87.915 Z " fill="#000000"/><text fill="#000000" font-family="sans-serif" font-size="7.2917" lengthAdjust="spacing" textLength="36.4583" x="26.5625" y="90.4836">LegalEntity</text><line style="stroke:#181818;stroke-width:0.2604166666666667;" x1="11.9792" x2="64.0625" y1="95.8333" y2="95.8333"/><text fill="#000000" font-family="sans-serif" font-size="7.2917" lengthAdjust="spacing" textLength="18.2292" x="14.5833" y="105.486">BPNL</text><text fill="#000000" font-family="sans-serif" font-size="7.2917" lengthAdjust="spacing" textLength="6.25" x="14.5833" y="114.6576">...</text></g><!--MD5=[7eeb4b838a05227218a56e467b2beb72]
class Site--><g id="elem_Site"><rect codeLine="10" fill="#F1F1F1" height="16.6667" id="Site" rx="1.3021" ry="1.3021" style="stroke:#181818;stroke-width:0.2604166666666667;" width="29.1667" x="19.2708" y="21.875"/><ellipse cx="27.0833" cy="30.2083" fill="#ADD1B2" rx="5.7292" ry="5.7292" style="stroke:#181818;stroke-width:0.5208333333333334;"/><path d="M26.4893,30.6234 L26.4893,31.9255 L28.7435,31.9255 L28.7435,31.4453 Q28.7435,31.1279 28.8656,30.9896 Q28.9958,30.8512 29.1911,30.8512 Q29.3864,30.8512 29.5085,30.9896 Q29.6305,31.1279 29.6305,31.4453 L29.6305,32.8125 L25.4639,32.8125 Q25.1383,32.8125 25,32.6904 Q24.8698,32.5684 24.8698,32.3649 Q24.8698,32.1696 25.0081,32.0475 Q25.1465,31.9255 25.4639,31.9255 L25.6022,31.9255 L25.6022,28.4587 L25.4639,28.4587 Q25.1383,28.4587 25,28.3366 Q24.8698,28.2145 24.8698,28.0111 Q24.8698,27.8158 25,27.6937 Q25.1383,27.5716 25.4639,27.5716 L29.4352,27.5716 L29.4352,28.9225 Q29.4352,29.2399 29.3132,29.3783 Q29.1992,29.5085 28.9958,29.5085 Q28.8005,29.5085 28.6784,29.3783 Q28.5563,29.2399 28.5563,28.9225 L28.5563,28.4587 L26.4893,28.4587 L26.4893,29.7363 L27.2624,29.7363 Q27.2624,29.3945 27.3275,29.2969 Q27.4658,29.0853 27.71,29.0853 Q27.9053,29.0853 28.0273,29.2236 Q28.1494,29.3538 28.1494,29.6712 L28.1494,30.6966 Q28.1494,30.9814 28.0843,31.0791 Q27.946,31.2826 27.71,31.2826 Q27.4658,31.2826 27.3275,31.071 Q27.2624,30.9733 27.2624,30.6234 L26.4893,30.6234 Z " fill="#000000"/><text fill="#000000" font-family="sans-serif" font-size="7.2917" lengthAdjust="spacing" textLength="12.5" x="34.375" y="33.1919">Site</text></g><!--MD5=[0f39e4cb6f03951afbf6d14bd2505654]
class Address--><g id="elem_Address"><rect codeLine="12" fill="#F1F1F1" height="16.6667" id="Address" rx="1.3021" ry="1.3021" style="stroke:#181818;stroke-width:0.2604166666666667;" width="43.75" x="107.8125" y="21.875"/><ellipse cx="115.625" cy="30.2083" fill="#ADD1B2" rx="5.7292" ry="5.7292" style="stroke:#181818;stroke-width:0.5208333333333334;"/><path d="M115.0309,30.6234 L115.0309,31.9255 L117.2852,31.9255 L117.2852,31.4453 Q117.2852,31.1279 117.4072,30.9896 Q117.5374,30.8512 117.7327,30.8512 Q117.9281,30.8512 118.0501,30.9896 Q118.1722,31.1279 118.1722,31.4453 L118.1722,32.8125 L114.0055,32.8125 Q113.68,32.8125 113.5417,32.6904 Q113.4115,32.5684 113.4115,32.3649 Q113.4115,32.1696 113.5498,32.0475 Q113.6882,31.9255 114.0055,31.9255 L114.1439,31.9255 L114.1439,28.4587 L114.0055,28.4587 Q113.68,28.4587 113.5417,28.3366 Q113.4115,28.2145 113.4115,28.0111 Q113.4115,27.8158 113.5417,27.6937 Q113.68,27.5716 114.0055,27.5716 L117.9769,27.5716 L117.9769,28.9225 Q117.9769,29.2399 117.8548,29.3783 Q117.7409,29.5085 117.5374,29.5085 Q117.3421,29.5085 117.2201,29.3783 Q117.098,29.2399 117.098,28.9225 L117.098,28.4587 L115.0309,28.4587 L115.0309,29.7363 L115.804,29.7363 Q115.804,29.3945 115.8691,29.2969 Q116.0075,29.0853 116.2516,29.0853 Q116.4469,29.0853 116.569,29.2236 Q116.6911,29.3538 116.6911,29.6712 L116.6911,30.6966 Q116.6911,30.9814 116.626,31.0791 Q116.4876,31.2826 116.2516,31.2826 Q116.0075,31.2826 115.8691,31.071 Q115.804,30.9733 115.804,30.6234 L115.0309,30.6234 Z " fill="#000000"/><text fill="#000000" font-family="sans-serif" font-size="7.2917" lengthAdjust="spacing" textLength="27.0833" x="122.9167" y="33.1919">Address</text></g><!--MD5=[8ea1c6e284da3f70072a23652f28b26a]
class LegalAddress--><g id="elem_LegalAddress"><rect codeLine="14" fill="#F1F1F1" height="16.6667" id="LegalAddress" rx="1.3021" ry="1.3021" style="stroke:#181818;stroke-width:0.2604166666666667;" width="61.9792" x="124.7396" y="90.3646"/><ellipse cx="132.5521" cy="98.6979" fill="#ADD1B2" rx="5.7292" ry="5.7292" style="stroke:#181818;stroke-width:0.5208333333333334;"/><path d="M133.9925,96.5495 Q134.0739,96.4355 134.1715,96.3786 Q134.2692,96.3216 134.3831,96.3216 Q134.5785,96.3216 134.7005,96.46 Q134.8226,96.5902 134.8226,96.9076 L134.8226,97.6644 Q134.8226,97.9818 134.7005,98.1201 Q134.5785,98.2585 134.3831,98.2585 Q134.2041,98.2585 134.0983,98.1527 Q133.9925,98.055 133.9355,97.7865 Q133.9111,97.5993 133.8135,97.5016 Q133.6426,97.3063 133.3252,97.1924 Q133.0078,97.0785 132.6823,97.0785 Q132.2835,97.0785 131.9499,97.2493 Q131.6243,97.4202 131.3639,97.8109 Q131.1117,98.2015 131.1117,98.7386 L131.1117,99.3083 Q131.1117,99.9512 131.5755,100.3825 Q132.0394,100.8057 132.8695,100.8057 Q133.3577,100.8057 133.6995,100.6755 Q133.903,100.5941 134.1227,100.3662 Q134.2611,100.2279 134.3343,100.1872 Q134.4157,100.1465 134.5215,100.1465 Q134.6924,100.1465 134.8226,100.2848 Q134.9609,100.415 134.9609,100.5941 Q134.9609,100.7731 134.7819,100.9847 Q134.5215,101.2858 134.1064,101.4567 Q133.5449,101.6927 132.8695,101.6927 Q132.0801,101.6927 131.4535,101.3672 Q130.9408,101.1068 130.5827,100.5534 Q130.2246,99.9919 130.2246,99.3245 L130.2246,98.7223 Q130.2246,98.0306 130.542,97.4365 Q130.8675,96.8343 131.4372,96.5169 Q132.0068,96.1914 132.6497,96.1914 Q133.0322,96.1914 133.3659,96.2809 Q133.7077,96.3623 133.9925,96.5495 Z " fill="#000000"/><text fill="#000000" font-family="sans-serif" font-size="7.2917" lengthAdjust="spacing" textLength="45.3125" x="139.8438" y="101.6815">LegalAddress</text></g><!--MD5=[a15292bc9c3b4e8c30f0ca1d32cd2244]
link Address to LegalEntity--><g id="link_Address_LegalEntity"><path codeLine="16" d="M118.9948,38.599 C106.8906,47.5052 86.6198,62.4219 69.3854,75.099 " fill="none" id="Address-to-LegalEntity" style="stroke:#181818;stroke-width:0.5208333333333334;"/><polygon fill="none" points="63.9115,79.125,67.6631,78.9488,68.9434,75.418,65.1918,75.5942,63.9115,79.125" style="stroke:#181818;stroke-width:0.5208333333333334;"/><text fill="#000000" font-family="sans-serif" font-size="6.7708" lengthAdjust="spacing" textLength="47.9167" x="97.9167" y="61.7162">LegalEntityBPN</text><text fill="#000000" font-family="sans-serif" font-size="6.7708" lengthAdjust="spacing" textLength="10.4167" x="103.5097" y="49.6595">1..*</text><text fill="#000000" font-family="sans-serif" font-size="6.7708" lengthAdjust="spacing" textLength="3.6458" x="64.7031" y="73.4498">1</text></g><!--MD5=[f6f2902c6b87ed68d14e05276eed9ea1]
link Site to LegalEntity--><g id="link_Site_LegalEntity"><path codeLine="17" d="M33.1875,38.75 C32.8438,43.2708 32.4635,49.0312 32.2917,54.1667 C32.151,58.3333 31.9531,59.3906 32.2917,63.5417 C32.526,66.3802 32.8646,69.3333 33.2604,72.2656 " fill="none" id="Site-to-LegalEntity" style="stroke:#181818;stroke-width:0.5208333333333334;"/><polygon fill="none" points="34.276,79.0104,35.8722,75.6107,33.3479,72.8297,31.7517,76.2294,34.276,79.0104" style="stroke:#181818;stroke-width:0.5208333333333334;"/><text fill="#000000" font-family="sans-serif" font-size="6.7708" lengthAdjust="spacing" textLength="47.9167" x="32.8125" y="61.7162">LegalEntityBPN</text><text fill="#000000" font-family="sans-serif" font-size="6.7708" lengthAdjust="spacing" textLength="2.6042" x="29.9804" y="49.6987">*</text><text fill="#000000" font-family="sans-serif" font-size="6.7708" lengthAdjust="spacing" textLength="3.6458" x="29.6385" y="73.4629">1</text></g><!--MD5=[aec822756c2d0220dfc0b84f804ea39f]
link LegalEntity to LegalAddress--><g id="link_LegalEntity_LegalAddress"><path codeLine="19" d="M64.5833,98.6979 C81.5833,98.6979 103.7813,98.6979 122.0156,98.6979 " fill="none" id="LegalEntity-to-LegalAddress" style="stroke:#181818;stroke-width:0.5208333333333334;"/><polygon fill="#181818" points="124.6771,98.6979,119.9896,96.6146,122.0729,98.6979,119.9896,100.7813,124.6771,98.6979" style="stroke:#181818;stroke-width:0.5208333333333334;"/><text fill="#000000" font-family="sans-serif" font-size="6.7708" lengthAdjust="spacing" textLength="41.1458" x="74.0885" y="95.31">LegalAddress</text><text fill="#000000" font-family="sans-serif" font-size="6.7708" lengthAdjust="spacing" textLength="3.6458" x="68.7524" y="96.7864">1</text><text fill="#000000" font-family="sans-serif" font-size="6.7708" lengthAdjust="spacing" textLength="3.6458" x="117.0246" y="96.8966">1</text></g><!--MD5=[76d5bc540cc206429460adf03920e9af]
reverse link Address to LegalAddress--><g id="link_Address_LegalAddress"><path codeLine="20" d="M148.0156,46.1302 C150.0469,48.6146 151.8438,51.3125 153.125,54.1667 C158.3958,65.8958 157.8698,81.1823 156.8854,90.3073 " fill="none" id="Address-backto-LegalAddress" style="stroke:#181818;stroke-width:0.5208333333333334;"/><polygon fill="none" points="145.3281,48.599,140.5938,38.6302,150.5104,43.4688,145.3281,48.599" style="stroke:#181818;stroke-width:0.5208333333333334;"/></g><!--MD5=[3125040ca6bdebe4b1453b7dd3dce5c0]
@startuml legal-entity-simple

skinparam dpi 50

package "Legal Entity and References" {
  entity LegalEntity {
    BPNL
    ...
  }

  entity Site {}

  entity Address {}

  class LegalAddress {}

  Address "1..*" -d-o "1" LegalEntity : LegalEntityBPN
  Site "*" -d-o "1" LegalEntity : LegalEntityBPN

  LegalEntity "1" -r-> "1" LegalAddress : LegalAddress
  LegalAddress -u-|> Address
}

hide methods
hide LegalAddress members
hide Site members
hide Address members
@enduml

PlantUML version 1.2022.5(Sat Apr 30 12:55:52 CEST 2022)
(GPL source distribution)
Java Runtime: OpenJDK Runtime Environment
JVM: OpenJDK 64-Bit Server VM
Default Encoding: Cp1252
Language: en
Country: GB
--></g></svg>