<svg xmlns="http://www.w3.org/2000/svg" xml:space="preserve" width="2728" height="1227" overflow="hidden"><defs><clipPath id="a"><path d="M652 547h2728v1227H652z"/></clipPath><clipPath id="b"><path d="M654 294h1590v694H654z"/></clipPath><clipPath id="c"><path d="M2243 294h273v694h-273z"/></clipPath><clipPath id="d"><path d="M2515 294h274v694h-274z"/></clipPath><clipPath id="e"><path d="M2788 294h274v694h-274z"/></clipPath><clipPath id="f"><path d="M3061 294h274v694h-274z"/></clipPath><clipPath id="g"><path d="M654 476h1590v694H654z"/></clipPath><clipPath id="h"><path d="M654 658h1590v694H654z"/></clipPath><clipPath id="i"><path d="M654 839h1590v694H654z"/></clipPath><clipPath id="j"><path d="M654 1021h1590v694H654z"/></clipPath><clipPath id="k"><path d="M654 1203h1590v694H654z"/></clipPath></defs><g clip-path="url(#a)" transform="translate(-652 -547)"><path fill="#F4F2F3" fill-rule="evenodd" d="M654.83 549.83h1588.34v181.889H654.83Zm1588.34 0H2516v181.889h-272.83Zm272.83 0h272.83v181.889H2516Zm272.83 0h272.84v181.889h-272.84Zm272.84 0h272.83v181.889h-272.83Z"/><path fill="#FFA602" fill-rule="evenodd" d="M654.83 1095.5h1588.34v181.89H654.83Zm1588.34 0H2516v181.89h-272.83Zm272.83 0h272.83v181.89H2516Zm272.83 0h272.84v181.89h-272.84Zm272.84 0h272.83v181.89h-272.83ZM654.83 1277.39h1588.34v181.89H654.83Zm1588.34 0H2516v181.89h-272.83Zm272.83 0h272.83v181.89H2516Zm272.83 0h272.84v181.89h-272.84Zm272.84 0h272.83v181.89h-272.83Z"/><path fill="none" stroke="#000" stroke-linejoin="round" stroke-miterlimit="10" stroke-width="4.583" d="M2243.17 547.538V1643.46M2516 547.538V1643.46m272.83-1095.922V1643.46m272.84-1095.922V1643.46M652.538 731.719H3336.8M652.538 913.609H3336.8M652.538 1095.5H3336.8M652.538 1277.39H3336.8M652.538 1459.28H3336.8M654.83 547.538V1643.46M3334.5 547.538V1643.46M652.538 549.83H3336.8M652.538 1641.17H3336.8"/><g clip-path="url(#b)"><text font-family="Calibri,Calibri_MSFontService,sans-serif" font-size="83" font-weight="700" transform="translate(687.83 668)">Customer Information</text></g><g clip-path="url(#c)"><text font-family="Calibri,Calibri_MSFontService,sans-serif" font-size="83" font-weight="700" transform="translate(2276.16 668)">Day 1</text></g><g clip-path="url(#d)"><text font-family="Calibri,Calibri_MSFontService,sans-serif" font-size="83" font-weight="700" transform="translate(2549 668)">Day 2</text></g><g clip-path="url(#e)"><text font-family="Calibri,Calibri_MSFontService,sans-serif" font-size="83" font-weight="700" transform="translate(2821.83 668)">Day 3</text></g><g clip-path="url(#f)"><text font-family="Calibri,Calibri_MSFontService,sans-serif" font-size="83" font-weight="700" transform="translate(3094.67 668)">Day 4</text></g><g clip-path="url(#g)"><text font-family="Calibri,Calibri_MSFontService,sans-serif" font-size="83" font-weight="400" transform="translate(687.83 850)">Consumption in </text></g><text font-family="Calibri,Calibri_MSFontService,sans-serif" font-size="83" font-weight="400" transform="translate(1237.46 850)">production</text><text font-family="Calibri,Calibri_MSFontService,sans-serif" font-size="83" font-weight="400" transform="translate(2337.76 850)">80</text><text font-family="Calibri,Calibri_MSFontService,sans-serif" font-size="83" font-weight="400" transform="translate(2610.59 850)">80</text><text font-family="Calibri,Calibri_MSFontService,sans-serif" font-size="83" font-weight="400" transform="translate(2862.52 850)">100</text><text font-family="Calibri,Calibri_MSFontService,sans-serif" font-size="83" font-weight="400" transform="translate(3135.35 850)">100</text><g clip-path="url(#h)"><text font-family="Calibri,Calibri_MSFontService,sans-serif" font-size="83" font-weight="400" transform="translate(687.83 1032)">Call</text></g><text font-family="Calibri,Calibri_MSFontService,sans-serif" font-size="83" font-weight="400" transform="translate(809.288 1032)">-</text><text font-family="Calibri,Calibri_MSFontService,sans-serif" font-size="83" font-weight="400" transform="translate(834.496 1032)">off / order amount</text><text font-family="Calibri,Calibri_MSFontService,sans-serif" font-size="83" font-weight="400" transform="translate(2337.76 1032)">80</text><text font-family="Calibri,Calibri_MSFontService,sans-serif" font-size="83" font-weight="400" transform="translate(2589.68 1032)">200</text><text font-family="Calibri,Calibri_MSFontService,sans-serif" font-size="83" font-weight="400" transform="translate(2862.52 1032)">100</text><text font-family="Calibri,Calibri_MSFontService,sans-serif" font-size="83" font-weight="400" transform="translate(3135.35 1032)">100</text><g clip-path="url(#i)"><text font-family="Calibri,Calibri_MSFontService,sans-serif" font-size="83" font-weight="700" transform="translate(687.83 1214)">Demand </text></g><text font-family="Calibri,Calibri_MSFontService,sans-serif" font-size="83" font-weight="700" transform="translate(996.059 1214)">category</text><text font-family="Calibri,Calibri_MSFontService,sans-serif" font-size="83" font-weight="700" transform="translate(1308.48 1214)">= </text><text font-family="Calibri,Calibri_MSFontService,sans-serif" font-size="83" font-weight="700" transform="translate(1368.64 1214)">Series </text><text font-family="Calibri,Calibri_MSFontService,sans-serif" font-size="83" font-weight="700" transform="translate(1590.93 1214)">/ Default</text><text font-family="Calibri,Calibri_MSFontService,sans-serif" font-size="83" font-weight="700" transform="translate(2337.76 1214)">80</text><text font-family="Calibri,Calibri_MSFontService,sans-serif" font-size="83" font-weight="700" transform="translate(2610.59 1214)">80</text><text font-family="Calibri,Calibri_MSFontService,sans-serif" font-size="83" font-weight="700" transform="translate(2862.52 1214)">100</text><text font-family="Calibri,Calibri_MSFontService,sans-serif" font-size="83" font-weight="700" transform="translate(3135.35 1214)">100</text><g clip-path="url(#j)"><text font-family="Calibri,Calibri_MSFontService,sans-serif" font-size="83" font-weight="700" transform="translate(687.83 1396)">Demand </text></g><text font-family="Calibri,Calibri_MSFontService,sans-serif" font-size="83" font-weight="700" transform="translate(996.059 1396)">category</text><text font-family="Calibri,Calibri_MSFontService,sans-serif" font-size="83" font-weight="700" transform="translate(1308.48 1396)">= </text><text font-family="Calibri,Calibri_MSFontService,sans-serif" font-size="83" font-weight="700" transform="translate(1368.64 1396)">Extraordinary</text><text font-family="Calibri,Calibri_MSFontService,sans-serif" font-size="83" font-weight="700" transform="translate(1852.02 1396)">Demand</text><text font-family="Calibri,Calibri_MSFontService,sans-serif" font-size="83" font-weight="700" transform="translate(2358.67 1396)">0</text><text font-family="Calibri,Calibri_MSFontService,sans-serif" font-size="83" font-weight="700" transform="translate(2589.68 1396)">120</text><text font-family="Calibri,Calibri_MSFontService,sans-serif" font-size="83" font-weight="700" transform="translate(2904.34 1396)">0</text><text font-family="Calibri,Calibri_MSFontService,sans-serif" font-size="83" font-weight="700" transform="translate(3177.17 1396)">0</text><g clip-path="url(#k)"><text font-family="Calibri,Calibri_MSFontService,sans-serif" font-size="83" font-weight="400" transform="translate(687.83 1578)">End of </text></g><text font-family="Calibri,Calibri_MSFontService,sans-serif" font-size="83" font-weight="400" transform="translate(921.58 1578)">day Item Stock</text><text font-family="Calibri,Calibri_MSFontService,sans-serif" font-size="83" font-weight="400" transform="translate(2358.67 1578)">0</text><text font-family="Calibri,Calibri_MSFontService,sans-serif" font-size="83" font-weight="400" transform="translate(2589.68 1578)">120</text><text font-family="Calibri,Calibri_MSFontService,sans-serif" font-size="83" font-weight="400" transform="translate(2862.52 1578)">120</text><text font-family="Calibri,Calibri_MSFontService,sans-serif" font-size="83" font-weight="400" transform="translate(3135.35 1578)">120</text><path fill="#FFA602" stroke="#41719C" stroke-miterlimit="8" stroke-width="4.583" d="M1766.5 1660.5h122v76h-122z"/><text font-family="Calibri,Calibri_MSFontService,sans-serif" font-size="64" font-weight="400" transform="translate(1921 1718)">Transferable </text><text font-family="Calibri,Calibri_MSFontService,sans-serif" font-size="64" font-style="italic" font-weight="400" transform="translate(2255.95 1718)">Short</text><text font-family="Calibri,Calibri_MSFontService,sans-serif" font-size="64" font-style="italic" font-weight="400" transform="translate(2394.59 1718)">-</text><text font-family="Calibri,Calibri_MSFontService,sans-serif" font-size="64" font-style="italic" font-weight="400" transform="translate(2414.07 1718)">Term Material Demand </text><text font-family="Calibri,Calibri_MSFontService,sans-serif" font-size="64" font-weight="400" transform="translate(3031.29 1718)">Information</text></g></svg>