<svg width="3809" height="1898" xmlns="http://www.w3.org/2000/svg" xmlns:xlink="http://www.w3.org/1999/xlink" xml:space="preserve" overflow="hidden"><g transform="translate(-302 -453)"><g><rect x="429" y="915" width="3681" height="970" stroke="#000000" stroke-width="2.29167" stroke-linecap="butt" stroke-linejoin="miter" stroke-miterlimit="8" stroke-dasharray="9.16667 6.875" stroke-opacity="1" fill="#FFFFFF" fill-opacity="1"/><rect x="429" y="1967" width="3681" height="380" stroke="#000000" stroke-width="2.29167" stroke-linecap="butt" stroke-linejoin="miter" stroke-miterlimit="8" stroke-dasharray="9.16667 6.875" stroke-opacity="1" fill="#FFFFFF" fill-opacity="1"/><rect x="304" y="1970" width="124" height="377" stroke="#000000" stroke-width="2.29167" stroke-linecap="butt" stroke-linejoin="miter" stroke-miterlimit="8" stroke-opacity="1" fill="#000000" fill-opacity="1"/><text fill="#FFFFFF" fill-opacity="1" font-family="Aptos,Aptos_MSFontService,sans-serif" font-style="normal" font-variant="normal" font-weight="700" font-stretch="normal" font-size="55" text-anchor="start" direction="ltr" writing-mode="lr-tb" unicode-bidi="normal" text-decoration="none" transform="matrix(-1.83697e-16 -1 1 -1.83697e-16 391.963 2222)">TC4S</text><rect x="429" y="457" width="3681" height="375" stroke="#000000" stroke-width="2.29167" stroke-linecap="butt" stroke-linejoin="miter" stroke-miterlimit="8" stroke-dasharray="9.16667 6.875" stroke-opacity="1" fill="#FFFFFF" fill-opacity="1"/><path d="M829 1161.67C829 1149.7 838.701 1140 850.667 1140L1413.33 1140C1425.3 1140 1435 1149.7 1435 1161.67L1435 1248.33C1435 1260.3 1425.3 1270 1413.33 1270L850.667 1270C838.701 1270 829 1260.3 829 1248.33Z" stroke="#000000" stroke-width="5.72917" stroke-linecap="butt" stroke-linejoin="miter" stroke-miterlimit="8" stroke-opacity="1" fill="#FFFFFF" fill-rule="evenodd" fill-opacity="1"/><text fill="#000000" fill-opacity="1" font-family="Aptos,Aptos_MSFontService,sans-serif" font-style="italic" font-variant="normal" font-weight="400" font-stretch="normal" font-size="55" text-anchor="start" direction="ltr" writing-mode="lr-tb" unicode-bidi="normal" text-decoration="none" transform="matrix(1 0 0 1 971.907 1223)">{status: draft}</text><path d="M2422 1160.83C2422 1148.78 2431.78 1139 2443.83 1139L3006.17 1139C3018.22 1139 3028 1148.78 3028 1160.83L3028 1248.17C3028 1260.22 3018.22 1270 3006.17 1270L2443.83 1270C2431.78 1270 2422 1260.22 2422 1248.17Z" stroke="#000000" stroke-width="5.72917" stroke-linecap="butt" stroke-linejoin="miter" stroke-miterlimit="8" stroke-opacity="1" fill="#FFFFFF" fill-rule="evenodd" fill-opacity="1"/><text fill="#000000" fill-opacity="1" font-family="Aptos,Aptos_MSFontService,sans-serif" font-style="italic" font-variant="normal" font-weight="400" font-stretch="normal" font-size="55" text-anchor="start" direction="ltr" writing-mode="lr-tb" unicode-bidi="normal" text-decoration="none" transform="matrix(1 0 0 1 2483.89 1223)">{status: deprecated}</text><path d="M3028.51 1202.06 3196.23 1202.48 3196.21 1209.35 3028.49 1208.94ZM3191.67 1192.15 3219.13 1205.97 3191.6 1219.65Z" fill="#000000" fill-rule="nonzero" fill-opacity="1"/><path d="M0.00849237-3.43749 167.726-3.02314 167.709 3.85184-0.00849237 3.43749ZM163.168-13.3469 190.634 0.470965 163.1 14.153Z" fill="#000000" fill-rule="nonzero" fill-opacity="1" transform="matrix(1 0 0 -1 2232.5 1205.97)"/><path d="M3219 1161.67C3219 1149.7 3228.7 1140 3240.67 1140L3803.33 1140C3815.3 1140 3825 1149.7 3825 1161.67L3825 1248.33C3825 1260.3 3815.3 1270 3803.33 1270L3240.67 1270C3228.7 1270 3219 1260.3 3219 1248.33Z" stroke="#000000" stroke-width="5.72917" stroke-linecap="butt" stroke-linejoin="miter" stroke-miterlimit="8" stroke-opacity="1" fill="#FFFFFF" fill-rule="evenodd" fill-opacity="1"/><text fill="#000000" fill-opacity="1" font-family="Aptos,Aptos_MSFontService,sans-serif" font-style="italic" font-variant="normal" font-weight="400" font-stretch="normal" font-size="55" text-anchor="start" direction="ltr" writing-mode="lr-tb" unicode-bidi="normal" text-decoration="none" transform="matrix(1 0 0 1 3312.63 1223)">{status: obsolete}</text><path d="M1626 1161.67C1626 1149.7 1635.7 1140 1647.67 1140L2210.33 1140C2222.3 1140 2232 1149.7 2232 1161.67L2232 1248.33C2232 1260.3 2222.3 1270 2210.33 1270L1647.67 1270C1635.7 1270 1626 1260.3 1626 1248.33Z" stroke="#000000" stroke-width="5.72917" stroke-linecap="butt" stroke-linejoin="miter" stroke-miterlimit="8" stroke-opacity="1" fill="#FFFFFF" fill-rule="evenodd" fill-opacity="1"/><text fill="#000000" fill-opacity="1" font-family="Aptos,Aptos_MSFontService,sans-serif" font-style="italic" font-variant="normal" font-weight="400" font-stretch="normal" font-size="55" text-anchor="start" direction="ltr" writing-mode="lr-tb" unicode-bidi="normal" text-decoration="none" transform="matrix(1 0 0 1 1720.31 1223)">{status: released}</text><path d="M2422 1468.67C2422 1456.7 2431.7 1447 2443.67 1447L3006.33 1447C3018.3 1447 3028 1456.7 3028 1468.67L3028 1555.33C3028 1567.3 3018.3 1577 3006.33 1577L2443.67 1577C2431.7 1577 2422 1567.3 2422 1555.33Z" stroke="#000000" stroke-width="5.72917" stroke-linecap="butt" stroke-linejoin="miter" stroke-miterlimit="8" stroke-opacity="1" fill="#FFFFFF" fill-rule="evenodd" fill-opacity="1"/><text fill="#000000" fill-opacity="1" font-family="Aptos,Aptos_MSFontService,sans-serif" font-style="italic" font-variant="normal" font-weight="400" font-stretch="normal" font-size="55" text-anchor="start" direction="ltr" writing-mode="lr-tb" unicode-bidi="normal" text-decoration="none" transform="matrix(1 0 0 1 2463.94 1530)">{status: re</text><text fill="#000000" fill-opacity="1" font-family="Aptos,Aptos_MSFontService,sans-serif" font-style="italic" font-variant="normal" font-weight="400" font-stretch="normal" font-size="55" text-anchor="start" direction="ltr" writing-mode="lr-tb" unicode-bidi="normal" text-decoration="none" transform="matrix(1 0 0 1 2702.94 1530)">-</text><text fill="#000000" fill-opacity="1" font-family="Aptos,Aptos_MSFontService,sans-serif" font-style="italic" font-variant="normal" font-weight="400" font-stretch="normal" font-size="55" text-anchor="start" direction="ltr" writing-mode="lr-tb" unicode-bidi="normal" text-decoration="none" transform="matrix(1 0 0 1 2721.84 1530)">evaluation}</text><path d="M2422.38 1515.47 1926.06 1515.47 1926.06 1293.42 1932.94 1293.42 1932.94 1512.04 1929.5 1508.6 2422.38 1508.6ZM1915.75 1298 1929.5 1270.5 1943.25 1298Z" fill="#000000" fill-rule="nonzero" fill-opacity="1"/><path d="M1433.5 1058 1531 960.5 1628.5 1058 1531 1155.5Z" stroke="#000000" stroke-width="6.875" stroke-linecap="butt" stroke-linejoin="miter" stroke-miterlimit="8" stroke-opacity="1" fill="#FFFFFF" fill-rule="evenodd" fill-opacity="1"/><text fill="#000000" fill-opacity="1" font-family="Aptos,Aptos_MSFontService,sans-serif" font-style="normal" font-variant="normal" font-weight="400" font-stretch="normal" font-size="50" text-anchor="start" direction="ltr" writing-mode="lr-tb" unicode-bidi="normal" text-decoration="none" transform="matrix(1 0 0 1 1495.96 1044)">MS</text><text fill="#000000" fill-opacity="1" font-family="Aptos,Aptos_MSFontService,sans-serif" font-style="normal" font-variant="normal" font-weight="400" font-stretch="normal" font-size="50" text-anchor="start" direction="ltr" writing-mode="lr-tb" unicode-bidi="normal" text-decoration="none" transform="matrix(1 0 0 1 1510.56 1104)">II</text><text fill="#000000" fill-opacity="1" font-family="Aptos,Aptos_MSFontService,sans-serif" font-style="normal" font-variant="normal" font-weight="400" font-stretch="normal" font-size="50" text-anchor="start" direction="ltr" writing-mode="lr-tb" unicode-bidi="normal" text-decoration="none" transform="matrix(1 0 0 1 1536.91 1104)">I</text><path d="M1129.06 1140.13 1129.06 1054.06 1410.42 1054.06 1410.42 1060.94 1132.5 1060.94 1135.94 1057.5 1135.94 1140.13ZM1405.83 1043.75 1433.33 1057.5 1405.83 1071.25Z" fill="#000000" fill-rule="nonzero" fill-opacity="1"/><path d="M1628.5 1054.06 1932.77 1054.06 1932.77 1117.22 1925.9 1117.22 1925.9 1057.5 1929.33 1060.94 1628.5 1060.94ZM1943.08 1112.63 1929.33 1140.13 1915.58 1112.63Z" fill="#000000" fill-rule="nonzero" fill-opacity="1"/><path d="M133.167 0 799 0C725.454 4.019e-14 665.833 40.5182 665.833 90.4999 665.833 140.482 725.454 181 799 181L133.167 181C59.6207 181 0 140.482 0 90.4999 0 40.5182 59.6207 4.019e-14 133.167 1.33967e-14Z" stroke="#000000" stroke-width="5.72917" stroke-linecap="butt" stroke-linejoin="miter" stroke-miterlimit="8" stroke-opacity="1" fill="#FFFFFF" fill-rule="evenodd" fill-opacity="1" transform="matrix(-1 0 0 1 1350 564)"/><text fill="#000000" fill-opacity="1" font-family="Aptos,Aptos_MSFontService,sans-serif" font-style="italic" font-variant="normal" font-weight="400" font-stretch="normal" font-size="48" text-anchor="start" direction="ltr" writing-mode="lr-tb" unicode-bidi="normal" text-decoration="none" transform="matrix(1 0 0 1 830.031 641)">&lt;&lt;Trigger&gt;&gt;</text><text fill="#000000" fill-opacity="1" font-family="Aptos,Aptos_MSFontService,sans-serif" font-style="italic" font-variant="normal" font-weight="400" font-stretch="normal" font-size="48" text-anchor="start" direction="ltr" writing-mode="lr-tb" unicode-bidi="normal" text-decoration="none" transform="matrix(1 0 0 1 710.566 699)">If new model is created</text><path d="M954.74 745.5 954.74 873.253 747 873.253 750.438 869.816 750.438 1206.03 747 1202.59 806.583 1202.59 806.583 1209.47 743.563 1209.47 743.563 866.378 951.303 866.378 947.865 869.816 947.865 745.5ZM802 1192.28 829.5 1206.03 802 1219.78Z" fill="#000000" fill-rule="nonzero" fill-opacity="1"/><path d="M1624 1698C1624 1685.85 1633.85 1676 1646 1676L2210 1676C2222.15 1676 2232 1685.85 2232 1698L2232 1786C2232 1798.15 2222.15 1808 2210 1808L1646 1808C1633.85 1808 1624 1798.15 1624 1786Z" stroke="#000000" stroke-width="5.72917" stroke-linecap="butt" stroke-linejoin="miter" stroke-miterlimit="8" stroke-opacity="1" fill="#FFFFFF" fill-rule="evenodd" fill-opacity="1"/><text fill="#000000" fill-opacity="1" font-family="Aptos,Aptos_MSFontService,sans-serif" font-style="italic" font-variant="normal" font-weight="400" font-stretch="normal" font-size="50" text-anchor="start" direction="ltr" writing-mode="lr-tb" unicode-bidi="normal" text-decoration="none" transform="matrix(1 0 0 1 1647.28 1759)">{</text><text fill="#000000" fill-opacity="1" font-family="Aptos,Aptos_MSFontService,sans-serif" font-style="italic" font-variant="normal" font-weight="400" font-stretch="normal" font-size="50" text-anchor="start" direction="ltr" writing-mode="lr-tb" unicode-bidi="normal" text-decoration="none" transform="matrix(1 0 0 1 1663.32 1759)">referenced_</text><text fill="#000000" fill-opacity="1" font-family="Aptos,Aptos_MSFontService,sans-serif" font-style="italic" font-variant="normal" font-weight="400" font-stretch="normal" font-size="50" text-anchor="start" direction="ltr" writing-mode="lr-tb" unicode-bidi="normal" text-decoration="none" transform="matrix(1 0 0 1 1924.57 1759)">by</text><text fill="#000000" fill-opacity="1" font-family="Aptos,Aptos_MSFontService,sans-serif" font-style="italic" font-variant="normal" font-weight="400" font-stretch="normal" font-size="50" text-anchor="start" direction="ltr" writing-mode="lr-tb" unicode-bidi="normal" text-decoration="none" transform="matrix(1 0 0 1 1975.56 1759)">: CX</text><text fill="#000000" fill-opacity="1" font-family="Aptos,Aptos_MSFontService,sans-serif" font-style="italic" font-variant="normal" font-weight="400" font-stretch="normal" font-size="50" text-anchor="start" direction="ltr" writing-mode="lr-tb" unicode-bidi="normal" text-decoration="none" transform="matrix(1 0 0 1 2063.21 1759)">-</text><text fill="#000000" fill-opacity="1" font-family="Aptos,Aptos_MSFontService,sans-serif" font-style="italic" font-variant="normal" font-weight="400" font-stretch="normal" font-size="50" text-anchor="start" direction="ltr" writing-mode="lr-tb" unicode-bidi="normal" text-decoration="none" transform="matrix(1 0 0 1 2080.4 1759)">XXXX}</text><path d="M133.167 0 799 0C725.454 4.019e-14 665.834 40.5182 665.834 90.4999 665.834 140.482 725.454 181 799 181L133.167 181C59.6208 181 0 140.482 0 90.4999 0 40.5182 59.6208 4.019e-14 133.167 1.33967e-14Z" stroke="#000000" stroke-width="5.72917" stroke-linecap="butt" stroke-linejoin="miter" stroke-miterlimit="8" stroke-opacity="1" fill="#FFFFFF" fill-rule="evenodd" fill-opacity="1" transform="matrix(-1 0 0 1 3074 563)"/><text fill="#000000" fill-opacity="1" font-family="Aptos,Aptos_MSFontService,sans-serif" font-style="italic" font-variant="normal" font-weight="400" font-stretch="normal" font-size="48" text-anchor="start" direction="ltr" writing-mode="lr-tb" unicode-bidi="normal" text-decoration="none" transform="matrix(1 0 0 1 2553.51 611)">&lt;&lt;Trigger&gt;&gt;</text><text fill="#000000" fill-opacity="1" font-family="Aptos,Aptos_MSFontService,sans-serif" font-style="italic" font-variant="normal" font-weight="400" font-stretch="normal" font-size="48" text-anchor="start" direction="ltr" writing-mode="lr-tb" unicode-bidi="normal" text-decoration="none" transform="matrix(1 0 0 1 2442.07 669)">If change  in “business </text><text fill="#000000" fill-opacity="1" font-family="Aptos,Aptos_MSFontService,sans-serif" font-style="italic" font-variant="normal" font-weight="400" font-stretch="normal" font-size="48" text-anchor="start" direction="ltr" writing-mode="lr-tb" unicode-bidi="normal" text-decoration="none" transform="matrix(1 0 0 1 2523.72 727)">requirements”</text><path d="M0 3.4375-885.5 3.4375-882.063 0-882.063 858.401-885.5 854.963 22.8542 854.963 22.8542 861.838-888.938 861.838-888.938-3.4375 0-3.4375ZM18.2713 844.651 45.7713 858.401 18.2713 872.151Z" fill="#000000" fill-rule="nonzero" fill-opacity="1" transform="matrix(-1 0 0 1 3074.27 654.5)"/><path d="M2722.07 1447.27 2722.06 1293.42 2728.94 1293.42 2728.94 1447.27ZM2711.75 1298 2725.5 1270.5 2739.25 1298Z" fill="#000000" fill-rule="nonzero" fill-opacity="1"/><rect x="304" y="458" width="124" height="374" stroke="#000000" stroke-width="2.29167" stroke-linecap="butt" stroke-linejoin="miter" stroke-miterlimit="8" stroke-opacity="1" fill="#000000" fill-opacity="1"/><text fill="#FFFFFF" fill-opacity="1" font-family="Aptos,Aptos_MSFontService,sans-serif" font-style="normal" font-variant="normal" font-weight="700" font-stretch="normal" font-size="55" text-anchor="start" direction="ltr" writing-mode="lr-tb" unicode-bidi="normal" text-decoration="none" transform="matrix(-1.83697e-16 -1 1 -1.83697e-16 391.963 715)">TC4M</text><rect x="305" y="915" width="123" height="970" stroke="#000000" stroke-width="2.29167" stroke-linecap="butt" stroke-linejoin="miter" stroke-miterlimit="8" stroke-dasharray="9.16667 6.875" stroke-opacity="1" fill="#FFFFFF" fill-opacity="1"/><text fill="#000000" fill-opacity="1" font-family="Aptos,Aptos_MSFontService,sans-serif" font-style="italic" font-variant="normal" font-weight="700" font-stretch="normal" font-size="55" text-anchor="start" direction="ltr" writing-mode="lr-tb" unicode-bidi="normal" text-decoration="none" transform="matrix(-1.83697e-16 -1 1 -1.83697e-16 392.616 1603)">Semantic</text><text fill="#000000" fill-opacity="1" font-family="Aptos,Aptos_MSFontService,sans-serif" font-style="italic" font-variant="normal" font-weight="700" font-stretch="normal" font-size="55" text-anchor="start" direction="ltr" writing-mode="lr-tb" unicode-bidi="normal" text-decoration="none" transform="matrix(-1.83697e-16 -1 1 -1.83697e-16 392.616 1352)">Mode</text><text fill="#000000" fill-opacity="1" font-family="Aptos,Aptos_MSFontService,sans-serif" font-style="italic" font-variant="normal" font-weight="700" font-stretch="normal" font-size="55" text-anchor="start" direction="ltr" writing-mode="lr-tb" unicode-bidi="normal" text-decoration="none" transform="matrix(-1.83697e-16 -1 1 -1.83697e-16 392.616 1213)">l</text><path d="M2232.5 1739.06 2548.7 1739.06 2548.7 2175.31 2545.27 2171.87 2835.11 2171.87 2835.11 2178.75 2541.83 2178.75 2541.83 1742.5 2545.27 1745.94 2232.5 1745.94ZM2830.53 2161.56 2858.03 2175.31 2830.53 2189.06Z" fill="#000000" fill-rule="nonzero" fill-opacity="1"/><path d="M133.167 0 799 0C725.454 4.019e-14 665.834 40.5182 665.834 90.4999 665.834 140.482 725.454 181 799 181L133.167 181C59.6208 181 0 140.482 0 90.4999 0 40.5182 59.6208 4.019e-14 133.167 1.33967e-14Z" stroke="#000000" stroke-width="5.72917" stroke-linecap="butt" stroke-linejoin="miter" stroke-miterlimit="8" stroke-opacity="1" fill="#FFFFFF" fill-rule="evenodd" fill-opacity="1" transform="matrix(-1 0 0 1 3523 2084)"/><text fill="#000000" fill-opacity="1" font-family="Aptos,Aptos_MSFontService,sans-serif" font-style="italic" font-variant="normal" font-weight="400" font-stretch="normal" font-size="48" text-anchor="start" direction="ltr" writing-mode="lr-tb" unicode-bidi="normal" text-decoration="none" transform="matrix(1 0 0 1 3002.57 2132)">&lt;&lt;Trigger&gt;&gt;</text><text fill="#000000" fill-opacity="1" font-family="Aptos,Aptos_MSFontService,sans-serif" font-style="italic" font-variant="normal" font-weight="400" font-stretch="normal" font-size="48" text-anchor="start" direction="ltr" writing-mode="lr-tb" unicode-bidi="normal" text-decoration="none" transform="matrix(1 0 0 1 2934.09 2190)">If “</text><text fill="#000000" fill-opacity="1" font-family="Aptos,Aptos_MSFontService,sans-serif" font-style="italic" font-variant="normal" font-weight="400" font-stretch="normal" font-size="48" text-anchor="start" direction="ltr" writing-mode="lr-tb" unicode-bidi="normal" text-decoration="none" transform="matrix(1 0 0 1 2991.95 2190)">referenced_by</text><text fill="#000000" fill-opacity="1" font-family="Aptos,Aptos_MSFontService,sans-serif" font-style="italic" font-variant="normal" font-weight="400" font-stretch="normal" font-size="48" text-anchor="start" direction="ltr" writing-mode="lr-tb" unicode-bidi="normal" text-decoration="none" transform="matrix(1 0 0 1 3291.02 2190)">” </text><text fill="#000000" fill-opacity="1" font-family="Aptos,Aptos_MSFontService,sans-serif" font-style="italic" font-variant="normal" font-weight="400" font-stretch="normal" font-size="48" text-anchor="start" direction="ltr" writing-mode="lr-tb" unicode-bidi="normal" text-decoration="none" transform="matrix(1 0 0 1 2955.59 2248)">becomes empty</text><path d="M0-3.4375 257.008-3.4375 257.008 398.273 253.57 394.836 484.224 394.836 484.224 401.711 250.133 401.711 250.133 0 253.57 3.4375 0 3.4375ZM479.64 384.523 507.14 398.273 479.64 412.023Z" fill="#000000" fill-rule="nonzero" fill-opacity="1" transform="matrix(-1.83697e-16 -1 -1 1.83697e-16 3123.77 2084.64)"/><path d="M1925.99 2079.91 1925.14 1831.43 1932.02 1831.4 1932.86 2079.89ZM1914.84 1836.05 1928.5 1808.5 1942.34 1835.95Z" fill="#000000" fill-rule="nonzero" fill-opacity="1"/><path d="M133.167 0 799 0C725.454 4.019e-14 665.833 40.5182 665.833 90.4999 665.833 140.482 725.454 181 799 181L133.167 181C59.6207 181 0 140.482 0 90.4999 0 40.5182 59.6207 4.019e-14 133.167 1.33967e-14Z" stroke="#000000" stroke-width="5.72917" stroke-linecap="butt" stroke-linejoin="miter" stroke-miterlimit="8" stroke-opacity="1" fill="#FFFFFF" fill-rule="evenodd" fill-opacity="1" transform="matrix(-1 0 0 1 2319 2082)"/><text fill="#000000" fill-opacity="1" font-family="Aptos,Aptos_MSFontService,sans-serif" font-style="italic" font-variant="normal" font-weight="400" font-stretch="normal" font-size="48" text-anchor="start" direction="ltr" writing-mode="lr-tb" unicode-bidi="normal" text-decoration="none" transform="matrix(1 0 0 1 1798.66 2130)">&lt;&lt;Trigger&gt;&gt;</text><text fill="#000000" fill-opacity="1" font-family="Aptos,Aptos_MSFontService,sans-serif" font-style="italic" font-variant="normal" font-weight="400" font-stretch="normal" font-size="48" text-anchor="start" direction="ltr" writing-mode="lr-tb" unicode-bidi="normal" text-decoration="none" transform="matrix(1 0 0 1 1673.47 2188)">If standard references a </text><text fill="#000000" fill-opacity="1" font-family="Aptos,Aptos_MSFontService,sans-serif" font-style="italic" font-variant="normal" font-weight="400" font-stretch="normal" font-size="48" text-anchor="start" direction="ltr" writing-mode="lr-tb" unicode-bidi="normal" text-decoration="none" transform="matrix(1 0 0 1 1804.67 2246)">new model</text></g></g></svg>