<svg width="1280" height="507" xmlns="http://www.w3.org/2000/svg" xmlns:xlink="http://www.w3.org/1999/xlink" overflow="hidden"><defs><clipPath id="clip0"><rect x="0" y="0" width="1280" height="507"/></clipPath></defs><g clip-path="url(#clip0)"><rect x="0" y="0" width="1280" height="506.833" fill="#FFFFFF"/><path d="M452.717 34.0991 600.18 34.0991 600.18 135.926 452.717 135.926Z" fill="#B3CB2D" fill-rule="evenodd"/><path d="M452.717 135.926 600.18 135.926 600.18 237.753 452.717 237.753Z" fill="#B3CB2D" fill-rule="evenodd"/><path d="M452.717 237.753 600.18 237.753 600.18 339.58 452.717 339.58Z" fill="#B3CB2D" fill-rule="evenodd"/><path d="M96.7661 372.377 600.18 372.377 600.18 408.611 96.7661 408.611Z" fill="#B3CB2D" fill-rule="evenodd"/><path d="M96.7661 408.611 600.18 408.611 600.18 441.408 96.7661 441.408Z" fill="#B3CB2D" fill-rule="evenodd"/><path d="M96.7661 441.408 600.18 441.408 600.18 474.204 96.7661 474.204Z" fill="#B3CB2D" fill-rule="evenodd"/><path d="M96.7661 474.204 600.18 474.204 600.18 507 96.7661 507Z" fill="#B3CB2D" fill-rule="evenodd"/><path d="M96.7661-0.854417 96.7661 34.7656" stroke="#FFFFFF" stroke-width="1.33333" stroke-linejoin="round" stroke-miterlimit="10" fill="none" fill-rule="evenodd"/><path d="M96.7661 237.087 96.7661 372.377" stroke="#FFFFFF" stroke-width="1.33333" stroke-linejoin="round" stroke-miterlimit="10" fill="none" fill-rule="evenodd"/><path d="M96.7661 372.377 96.7661 507.667" stroke="#B3CB2D" stroke-width="1.33333" stroke-linejoin="round" stroke-miterlimit="10" fill="none" fill-rule="evenodd"/><path d="M215.675-0.854417 215.675 373.043" stroke="#FFFFFF" stroke-width="1.33333" stroke-linejoin="round" stroke-miterlimit="10" fill="none" fill-rule="evenodd"/><path d="M337.887-0.854417 337.887 373.043" stroke="#FFFFFF" stroke-width="1.33333" stroke-linejoin="round" stroke-miterlimit="10" fill="none" fill-rule="evenodd"/><path d="M452.717-0.854417 452.717 373.043" stroke="#FFFFFF" stroke-width="1.33333" stroke-linejoin="round" stroke-miterlimit="10" fill="none" fill-rule="evenodd"/><path d="M600.18-0.854417 600.18 34.0991" stroke="#FFFFFF" stroke-width="1.33333" stroke-linejoin="round" stroke-miterlimit="10" fill="none" fill-rule="evenodd"/><path d="M600.18 34.0991 600.18 339.58" stroke="#CECECE" stroke-width="1.33333" stroke-linejoin="round" stroke-miterlimit="10" fill="none" fill-rule="evenodd"/><path d="M600.18 339.58 600.18 372.377" stroke="#FFFFFF" stroke-width="1.33333" stroke-linejoin="round" stroke-miterlimit="10" fill="none" fill-rule="evenodd"/><path d="M600.18 372.377 600.18 507.667" stroke="#B3CB2D" stroke-width="1.33333" stroke-linejoin="round" stroke-miterlimit="10" fill="none" fill-rule="evenodd"/><path d="M705.881-0.854417 705.881 34.0991" stroke="#FFFFFF" stroke-width="1.33333" stroke-linejoin="round" stroke-miterlimit="10" fill="none" fill-rule="evenodd"/><path d="M705.881 34.0991 705.881 339.58" stroke="#CECECE" stroke-width="1.33333" stroke-linejoin="round" stroke-miterlimit="10" fill="none" fill-rule="evenodd"/><path d="M705.881 339.58 705.881 372.377" stroke="#FFFFFF" stroke-width="1.33333" stroke-linejoin="round" stroke-miterlimit="10" fill="none" fill-rule="evenodd"/><path d="M705.881 372.377 705.881 442.074" stroke="#CECECE" stroke-width="1.33333" stroke-linejoin="round" stroke-miterlimit="10" fill="none" fill-rule="evenodd"/><path d="M772.188 338.914 772.188 373.043" stroke="#FFFFFF" stroke-width="1.33333" stroke-linejoin="round" stroke-miterlimit="10" fill="none" fill-rule="evenodd"/><path d="M907.025-0.854417 907.025 34.0991" stroke="#FFFFFF" stroke-width="1.33333" stroke-linejoin="round" stroke-miterlimit="10" fill="none" fill-rule="evenodd"/><path d="M907.025 34.0991 907.025 339.58" stroke="#CECECE" stroke-width="1.33333" stroke-linejoin="round" stroke-miterlimit="10" fill="none" fill-rule="evenodd"/><path d="M907.025 339.58 907.025 372.377" stroke="#FFFFFF" stroke-width="1.33333" stroke-linejoin="round" stroke-miterlimit="10" fill="none" fill-rule="evenodd"/><path d="M907.025 372.377 907.025 507.667" stroke="#CECECE" stroke-width="1.33333" stroke-linejoin="round" stroke-miterlimit="10" fill="none" fill-rule="evenodd"/><path d="M981.62-0.854417 981.62 34.0991" stroke="#FFFFFF" stroke-width="1.33333" stroke-linejoin="round" stroke-miterlimit="10" fill="none" fill-rule="evenodd"/><path d="M981.62 34.0991 981.62 339.58" stroke="#CECECE" stroke-width="1.33333" stroke-linejoin="round" stroke-miterlimit="10" fill="none" fill-rule="evenodd"/><path d="M981.62 339.58 981.62 372.377" stroke="#FFFFFF" stroke-width="1.33333" stroke-linejoin="round" stroke-miterlimit="10" fill="none" fill-rule="evenodd"/><path d="M981.62 372.377 981.62 507.667" stroke="#CECECE" stroke-width="1.33333" stroke-linejoin="round" stroke-miterlimit="10" fill="none" fill-rule="evenodd"/><path d="M1056.22-0.854417 1056.22 34.0991" stroke="#FFFFFF" stroke-width="1.33333" stroke-linejoin="round" stroke-miterlimit="10" fill="none" fill-rule="evenodd"/><path d="M1056.22 34.0991 1056.22 339.58" stroke="#CECECE" stroke-width="1.33333" stroke-linejoin="round" stroke-miterlimit="10" fill="none" fill-rule="evenodd"/><path d="M1056.22 339.58 1056.22 372.377" stroke="#FFFFFF" stroke-width="1.33333" stroke-linejoin="round" stroke-miterlimit="10" fill="none" fill-rule="evenodd"/><path d="M1056.22 372.377 1056.22 507.667" stroke="#CECECE" stroke-width="1.33333" stroke-linejoin="round" stroke-miterlimit="10" fill="none" fill-rule="evenodd"/><path d="M1130.81-0.854417 1130.81 34.0991" stroke="#FFFFFF" stroke-width="1.33333" stroke-linejoin="round" stroke-miterlimit="10" fill="none" fill-rule="evenodd"/><path d="M1130.81 34.0991 1130.81 339.58" stroke="#CECECE" stroke-width="1.33333" stroke-linejoin="round" stroke-miterlimit="10" fill="none" fill-rule="evenodd"/><path d="M1130.81 339.58 1130.81 372.377" stroke="#FFFFFF" stroke-width="1.33333" stroke-linejoin="round" stroke-miterlimit="10" fill="none" fill-rule="evenodd"/><path d="M1130.81 372.377 1130.81 507.667" stroke="#CECECE" stroke-width="1.33333" stroke-linejoin="round" stroke-miterlimit="10" fill="none" fill-rule="evenodd"/><path d="M1205.41-0.854417 1205.41 34.0991" stroke="#FFFFFF" stroke-width="1.33333" stroke-linejoin="round" stroke-miterlimit="10" fill="none" fill-rule="evenodd"/><path d="M1205.41 34.0991 1205.41 339.58" stroke="#CECECE" stroke-width="1.33333" stroke-linejoin="round" stroke-miterlimit="10" fill="none" fill-rule="evenodd"/><path d="M1205.41 339.58 1205.41 372.377" stroke="#FFFFFF" stroke-width="1.33333" stroke-linejoin="round" stroke-miterlimit="10" fill="none" fill-rule="evenodd"/><path d="M1205.41 372.377 1205.41 507.667" stroke="#CECECE" stroke-width="1.33333" stroke-linejoin="round" stroke-miterlimit="10" fill="none" fill-rule="evenodd"/><path d="M-0.666667 34.0991 1280.67 34.0991" stroke="#617000" stroke-width="1.33333" stroke-linejoin="round" stroke-miterlimit="10" fill="none" fill-rule="evenodd"/><path d="M705.215 70.3337 1280.67 70.3337" stroke="#CECECE" stroke-width="1.33333" stroke-linejoin="round" stroke-miterlimit="10" fill="none" fill-rule="evenodd"/><path d="M705.215 103.13 1280.67 103.13" stroke="#CECECE" stroke-width="1.33333" stroke-linejoin="round" stroke-miterlimit="10" fill="none" fill-rule="evenodd"/><path d="M-0.666667 135.926 1280.67 135.926" stroke="#707070" stroke-width="1.33333" stroke-linejoin="round" stroke-miterlimit="10" fill="none" fill-rule="evenodd"/><path d="M705.215 172.161 1280.67 172.161" stroke="#CECECE" stroke-width="1.33333" stroke-linejoin="round" stroke-miterlimit="10" fill="none" fill-rule="evenodd"/><path d="M705.215 204.957 1280.67 204.957" stroke="#CECECE" stroke-width="1.33333" stroke-linejoin="round" stroke-miterlimit="10" fill="none" fill-rule="evenodd"/><path d="M-0.666667 237.753 600.18 237.753" stroke="#707070" stroke-width="1.33333" stroke-linejoin="round" stroke-miterlimit="10" fill="none" fill-rule="evenodd"/><path d="M600.18 237.753 705.881 237.753" stroke="#617000" stroke-width="1.33333" stroke-linejoin="round" stroke-miterlimit="10" fill="none" fill-rule="evenodd"/><path d="M705.881 237.753 1280.67 237.753" stroke="#707070" stroke-width="1.33333" stroke-linejoin="round" stroke-miterlimit="10" fill="none" fill-rule="evenodd"/><path d="M705.215 273.988 1280.67 273.988" stroke="#CECECE" stroke-width="1.33333" stroke-linejoin="round" stroke-miterlimit="10" fill="none" fill-rule="evenodd"/><path d="M705.215 306.784 1280.67 306.784" stroke="#CECECE" stroke-width="1.33333" stroke-linejoin="round" stroke-miterlimit="10" fill="none" fill-rule="evenodd"/><path d="M-0.666667 339.58 600.18 339.58" stroke="#FFFFFF" stroke-width="1.33333" stroke-linejoin="round" stroke-miterlimit="10" fill="none" fill-rule="evenodd"/><path d="M600.18 339.58 705.881 339.58" stroke="#CECECE" stroke-width="1.33333" stroke-linejoin="round" stroke-miterlimit="10" fill="none" fill-rule="evenodd"/><path d="M705.881 339.58 907.025 339.58" stroke="#FFFFFF" stroke-width="1.33333" stroke-linejoin="round" stroke-miterlimit="10" fill="none" fill-rule="evenodd"/><path d="M907.025 339.58 1280.67 339.58" stroke="#CECECE" stroke-width="1.33333" stroke-linejoin="round" stroke-miterlimit="10" fill="none" fill-rule="evenodd"/><path d="M96.0994 372.377 1280.67 372.377" stroke="#B3CB2D" stroke-width="1.33333" stroke-linejoin="round" stroke-miterlimit="10" fill="none" fill-rule="evenodd"/><path d="M96.0994 408.611 600.847 408.611" stroke="#B3CB2D" stroke-width="1.33333" stroke-linejoin="round" stroke-miterlimit="10" fill="none" fill-rule="evenodd"/><path d="M705.215 408.611 1280.67 408.611" stroke="#CECECE" stroke-width="1.33333" stroke-linejoin="round" stroke-miterlimit="10" fill="none" fill-rule="evenodd"/><path d="M96.0994 441.408 600.18 441.408" stroke="#B3CB2D" stroke-width="1.33333" stroke-linejoin="round" stroke-miterlimit="10" fill="none" fill-rule="evenodd"/><path d="M600.18 441.408 1280.67 441.408" stroke="#CECECE" stroke-width="1.33333" stroke-linejoin="round" stroke-miterlimit="10" fill="none" fill-rule="evenodd"/><path d="M96.0994 474.204 600.847 474.204" stroke="#B3CB2D" stroke-width="1.33333" stroke-linejoin="round" stroke-miterlimit="10" fill="none" fill-rule="evenodd"/><path d="M906.359 474.204 1280.67 474.204" stroke="#CECECE" stroke-width="1.33333" stroke-linejoin="round" stroke-miterlimit="10" fill="none" fill-rule="evenodd"/><path d="M0-0.854417 0 507.667" stroke="#FFFFFF" stroke-width="1.33333" stroke-linejoin="round" stroke-miterlimit="10" fill="none" fill-rule="evenodd"/><path d="M1280-0.854417 1280 34.0991" stroke="#FFFFFF" stroke-width="1.33333" stroke-linejoin="round" stroke-miterlimit="10" fill="none" fill-rule="evenodd"/><path d="M1280 34.0991 1280 339.58" stroke="#CECECE" stroke-width="1.33333" stroke-linejoin="round" stroke-miterlimit="10" fill="none" fill-rule="evenodd"/><path d="M1280 339.58 1280 372.377" stroke="#FFFFFF" stroke-width="1.33333" stroke-linejoin="round" stroke-miterlimit="10" fill="none" fill-rule="evenodd"/><path d="M1280 372.377 1280 507.667" stroke="#B3CB2D" stroke-width="1.33333" stroke-linejoin="round" stroke-miterlimit="10" fill="none" fill-rule="evenodd"/><path d="M-0.666667-0.18797 1280.67-0.18797" stroke="#FFFFFF" stroke-width="1.33333" stroke-linejoin="round" stroke-miterlimit="10" fill="none" fill-rule="evenodd"/><path d="M-0.666667 507 96.7661 507" stroke="#FFFFFF" stroke-width="1.33333" stroke-linejoin="round" stroke-miterlimit="10" fill="none" fill-rule="evenodd"/><path d="M96.7661 507 1280.67 507" stroke="#B3CB2D" stroke-width="1.33333" stroke-linejoin="round" stroke-miterlimit="10" fill="none" fill-rule="evenodd"/><text font-family="Manrope ExtraBold,Manrope ExtraBold_MSFontService,sans-serif" font-weight="800" font-size="11" transform="matrix(1 0 0 0.999671 1227.04 30)">CW25</text><text font-family="Manrope ExtraBold,Manrope ExtraBold_MSFontService,sans-serif" font-weight="800" font-size="11" transform="matrix(1 0 0 0.999671 1152.36 30)">CW24</text><text font-family="Manrope ExtraBold,Manrope ExtraBold_MSFontService,sans-serif" font-weight="800" font-size="11" transform="matrix(1 0 0 0.999671 1077.85 30)">CW23</text><text font-family="Manrope ExtraBold,Manrope ExtraBold_MSFontService,sans-serif" font-weight="800" font-size="11" transform="matrix(1 0 0 0.999671 1003.17 30)">CW22</text><text font-family="Manrope ExtraBold,Manrope ExtraBold_MSFontService,sans-serif" font-weight="800" font-size="11" transform="matrix(1 0 0 0.999671 929.406 30)">CW21</text><text font-family="Manrope ExtraBold,Manrope ExtraBold_MSFontService,sans-serif" font-weight="800" font-size="11" transform="matrix(1 0 0 0.999671 781.953 30)">Datetime</text><text font-family="Manrope ExtraBold,Manrope ExtraBold_MSFontService,sans-serif" font-weight="800" font-size="11" transform="matrix(1 0 0 0.999671 625.531 30)">Key Figure</text><text font-family="Manrope ExtraBold,Manrope ExtraBold_MSFontService,sans-serif" font-weight="800" font-size="11" transform="matrix(1 0 0 0.999671 465.115 30)">Capacity</text><text font-family="Manrope ExtraBold,Manrope ExtraBold_MSFontService,sans-serif" font-weight="800" font-size="11" transform="matrix(1 0 0 0.999671 514.282 30)">Group</text><text font-family="Manrope ExtraBold,Manrope ExtraBold_MSFontService,sans-serif" font-weight="800" font-size="11" transform="matrix(1 0 0 0.999671 548.782 30)">Assign</text><text font-family="Manrope ExtraBold,Manrope ExtraBold_MSFontService,sans-serif" font-weight="800" font-size="11" transform="matrix(1 0 0 0.999671 584.449 30)">.</text><text font-family="Manrope ExtraBold,Manrope ExtraBold_MSFontService,sans-serif" font-weight="800" font-size="11" transform="matrix(1 0 0 0.999671 347.969 30)">Demand</text><text font-family="Manrope ExtraBold,Manrope ExtraBold_MSFontService,sans-serif" font-weight="800" font-size="11" transform="matrix(1 0 0 0.999671 393.635 30)">Category</text><text font-family="Manrope ExtraBold,Manrope ExtraBold_MSFontService,sans-serif" font-weight="800" font-size="11" transform="matrix(1 0 0 0.999671 226.281 30)">Customer Location</text><text font-family="Manrope ExtraBold,Manrope ExtraBold_MSFontService,sans-serif" font-weight="800" font-size="11" transform="matrix(1 0 0 0.999671 107.137 30)">Customer Material</text><text font-family="Manrope ExtraBold,Manrope ExtraBold_MSFontService,sans-serif" font-weight="800" font-size="11" transform="matrix(1 0 0 0.999671 8.79969 30)">Demand Series</text><g><text font-family="Manrope,Manrope_MSFontService,sans-serif" font-weight="400" font-size="11" transform="matrix(1 0 0 0.999671 1262.39 67)">130</text></g><g><text font-family="Manrope,Manrope_MSFontService,sans-serif" font-weight="400" font-size="11" transform="matrix(1 0 0 0.999671 1187.63 67)">145</text></g><g><text font-family="Manrope,Manrope_MSFontService,sans-serif" font-weight="400" font-size="11" transform="matrix(1 0 0 0.999671 1117.2 67)">93</text></g><g><text font-family="Manrope,Manrope_MSFontService,sans-serif" font-weight="400" font-size="11" transform="matrix(1 0 0 0.999671 1040.28 67)">110</text></g><g><text font-family="Manrope,Manrope_MSFontService,sans-serif" font-weight="400" font-size="11" transform="matrix(1 0 0 0.999671 964.014 67)">124</text></g><text font-family="Manrope,Manrope_MSFontService,sans-serif" font-weight="400" font-size="11" transform="matrix(1 0 0 0.999671 794.843 67)">02.02.2024</text><text font-family="Manrope,Manrope_MSFontService,sans-serif" font-weight="400" font-size="11" transform="matrix(1 0 0 0.999671 852.177 67)">–</text><text font-family="Manrope,Manrope_MSFontService,sans-serif" font-weight="400" font-size="11" transform="matrix(1 0 0 0.999671 860.177 67)">8</text><text font-family="Manrope,Manrope_MSFontService,sans-serif" font-weight="400" font-size="11" transform="matrix(1 0 0 0.999671 868.51 67)">pm</text><g><text font-family="Manrope,Manrope_MSFontService,sans-serif" font-weight="400" font-size="11" transform="matrix(1 0 0 0.999671 886.01 67)">CET</text></g><g><text font-family="Manrope ExtraBold,Manrope ExtraBold_MSFontService,sans-serif" font-weight="800" font-size="11" transform="matrix(1 0 0 0.999671 745.87 67)">CW8</text></g><text font-family="Manrope,Manrope_MSFontService,sans-serif" font-style="oblique" font-weight="400" font-size="11" transform="matrix(1 0 0 0.999671 610.531 67)">previous</text><text font-family="Manrope,Manrope_MSFontService,sans-serif" font-style="oblique" font-weight="400" font-size="11" transform="matrix(1 0 0 0.999671 655.364 67)">demand</text><text font-family="Manrope,Manrope_MSFontService,sans-serif" font-weight="400" font-size="11" transform="matrix(1 0 0 0.999671 516.782 89)">CG1</text><text font-family="Manrope,Manrope_MSFontService,sans-serif" font-weight="400" font-size="11" transform="matrix(1 0 0 0.999671 379.885 89)">Series</text><text font-family="Manrope,Manrope_MSFontService,sans-serif" font-weight="400" font-size="11" transform="matrix(1 0 0 0.999671 262.865 89)">Berlin</text><text font-family="Manrope,Manrope_MSFontService,sans-serif" font-weight="400" font-size="11" transform="matrix(1 0 0 0.999671 152.804 89)">A</text><text font-family="Manrope,Manrope_MSFontService,sans-serif" font-weight="400" font-size="11" transform="matrix(1 0 0 0.999671 39.4664 89)">DS1</text><g><text font-family="Manrope,Manrope_MSFontService,sans-serif" font-weight="400" font-size="11" transform="matrix(1 0 0 0.999671 1261.56 99)">160</text></g><g><text font-family="Manrope,Manrope_MSFontService,sans-serif" font-weight="400" font-size="11" transform="matrix(1 0 0 0.999671 1187.97 99)">125</text></g><g><text font-family="Manrope,Manrope_MSFontService,sans-serif" font-weight="400" font-size="11" transform="matrix(1 0 0 0.999671 1112.54 99)">100</text></g><g><text font-family="Manrope,Manrope_MSFontService,sans-serif" font-weight="400" font-size="11" transform="matrix(1 0 0 0.999671 1044.28 99)">91</text></g><g><text font-family="Manrope,Manrope_MSFontService,sans-serif" font-weight="400" font-size="11" transform="matrix(1 0 0 0.999671 965.68 99)">110</text></g><text font-family="Manrope,Manrope_MSFontService,sans-serif" font-weight="400" font-size="11" transform="matrix(1 0 0 0.999671 794.177 99)">09.02.2024</text><text font-family="Manrope,Manrope_MSFontService,sans-serif" font-weight="400" font-size="11" transform="matrix(1 0 0 0.999671 852.177 99)">–</text><text font-family="Manrope,Manrope_MSFontService,sans-serif" font-weight="400" font-size="11" transform="matrix(1 0 0 0.999671 860.177 99)">8</text><text font-family="Manrope,Manrope_MSFontService,sans-serif" font-weight="400" font-size="11" transform="matrix(1 0 0 0.999671 868.51 99)">pm</text><g><text font-family="Manrope,Manrope_MSFontService,sans-serif" font-weight="400" font-size="11" transform="matrix(1 0 0 0.999671 886.01 99)">CET</text></g><g><text font-family="Manrope ExtraBold,Manrope ExtraBold_MSFontService,sans-serif" font-weight="800" font-size="11" transform="matrix(1 0 0 0.999671 745.87 99)">CW9</text></g><text font-family="Manrope,Manrope_MSFontService,sans-serif" font-style="oblique" font-weight="400" font-size="11" transform="matrix(1 0 0 0.999671 617.364 99)">latest</text><text font-family="Manrope,Manrope_MSFontService,sans-serif" font-style="oblique" font-weight="400" font-size="11" transform="matrix(1 0 0 0.999671 648.531 99)">demand</text><g><text font-family="Manrope,Manrope_MSFontService,sans-serif" font-weight="700" font-size="11" transform="matrix(1 0 0 0.999671 1256.73 132)">23%</text></g><text font-family="Manrope,Manrope_MSFontService,sans-serif" font-weight="700" font-size="11" transform="matrix(1 0 0 0.999671 1178.97 132)">-</text><g><text font-family="Manrope,Manrope_MSFontService,sans-serif" font-weight="700" font-size="11" transform="matrix(1 0 0 0.999671 1183.47 132)">14%</text></g><g><text font-family="Manrope,Manrope_MSFontService,sans-serif" font-weight="700" font-size="11" transform="matrix(1 0 0 0.999671 1113.54 132)">8%</text></g><text font-family="Manrope,Manrope_MSFontService,sans-serif" font-weight="700" font-size="11" transform="matrix(1 0 0 0.999671 1030.61 132)">-</text><g><text font-family="Manrope,Manrope_MSFontService,sans-serif" font-weight="700" font-size="11" transform="matrix(1 0 0 0.999671 1035.11 132)">17%</text></g><text font-family="Manrope,Manrope_MSFontService,sans-serif" font-weight="700" font-size="11" transform="matrix(1 0 0 0.999671 957.014 132)">-</text><g><text font-family="Manrope,Manrope_MSFontService,sans-serif" font-weight="700" font-size="11" transform="matrix(1 0 0 0.999671 961.514 132)">11%</text></g><text font-family="Manrope,Manrope_MSFontService,sans-serif" font-style="oblique" font-weight="400" font-size="11" transform="matrix(1 0 0 0.999671 630.031 132)">deviation</text><g><text font-family="Manrope,Manrope_MSFontService,sans-serif" font-weight="400" font-size="11" transform="matrix(1 0 0 0.999671 1261.56 168)">160</text></g><g><text font-family="Manrope,Manrope_MSFontService,sans-serif" font-weight="400" font-size="11" transform="matrix(1 0 0 0.999671 1187.97 168)">125</text></g><g><text font-family="Manrope,Manrope_MSFontService,sans-serif" font-weight="400" font-size="11" transform="matrix(1 0 0 0.999671 1112.54 168)">100</text></g><g><text font-family="Manrope,Manrope_MSFontService,sans-serif" font-weight="400" font-size="11" transform="matrix(1 0 0 0.999671 1044.28 168)">91</text></g><g><text font-family="Manrope,Manrope_MSFontService,sans-serif" font-weight="400" font-size="11" transform="matrix(1 0 0 0.999671 965.68 168)">110</text></g><text font-family="Manrope,Manrope_MSFontService,sans-serif" font-weight="400" font-size="11" transform="matrix(1 0 0 0.999671 794.843 168)">02.02.2024</text><text font-family="Manrope,Manrope_MSFontService,sans-serif" font-weight="400" font-size="11" transform="matrix(1 0 0 0.999671 852.177 168)">–</text><text font-family="Manrope,Manrope_MSFontService,sans-serif" font-weight="400" font-size="11" transform="matrix(1 0 0 0.999671 860.177 168)">8</text><text font-family="Manrope,Manrope_MSFontService,sans-serif" font-weight="400" font-size="11" transform="matrix(1 0 0 0.999671 868.51 168)">pm</text><g><text font-family="Manrope,Manrope_MSFontService,sans-serif" font-weight="400" font-size="11" transform="matrix(1 0 0 0.999671 886.01 168)">CET</text></g><g><text font-family="Manrope ExtraBold,Manrope ExtraBold_MSFontService,sans-serif" font-weight="800" font-size="11" transform="matrix(1 0 0 0.999671 745.87 168)">CW8</text></g><text font-family="Manrope,Manrope_MSFontService,sans-serif" font-style="oblique" font-weight="400" font-size="11" transform="matrix(1 0 0 0.999671 609.614 168)">previous</text><text font-family="Manrope,Manrope_MSFontService,sans-serif" font-style="oblique" font-weight="400" font-size="11" transform="matrix(1 0 0 0.999671 654.447 168)">forecast</text><text font-family="Manrope,Manrope_MSFontService,sans-serif" font-weight="400" font-size="11" transform="matrix(1 0 0 0.999671 516.782 191)">CG1</text><text font-family="Manrope,Manrope_MSFontService,sans-serif" font-weight="400" font-size="11" transform="matrix(1 0 0 0.999671 367.135 191)">After</text><text font-family="Manrope,Manrope_MSFontService,sans-serif" font-weight="400" font-size="11" transform="matrix(1 0 0 0.999671 392.135 191)">-</text><text font-family="Manrope,Manrope_MSFontService,sans-serif" font-weight="400" font-size="11" transform="matrix(1 0 0 0.999671 396.635 191)">Sales</text><text font-family="Manrope,Manrope_MSFontService,sans-serif" font-weight="400" font-size="11" transform="matrix(1 0 0 0.999671 253.615 191)">Stuttgart</text><text font-family="Manrope,Manrope_MSFontService,sans-serif" font-weight="400" font-size="11" transform="matrix(1 0 0 0.999671 151.721 191)">A</text><text font-family="Manrope,Manrope_MSFontService,sans-serif" font-weight="400" font-size="11" transform="matrix(1 0 0 0.999671 38.5497 191)">DS2</text><g><text font-family="Manrope,Manrope_MSFontService,sans-serif" font-weight="400" font-size="11" transform="matrix(1 0 0 0.999671 1262.39 201)">130</text></g><g><text font-family="Manrope,Manrope_MSFontService,sans-serif" font-weight="400" font-size="11" transform="matrix(1 0 0 0.999671 1187.63 201)">145</text></g><g><text font-family="Manrope,Manrope_MSFontService,sans-serif" font-weight="400" font-size="11" transform="matrix(1 0 0 0.999671 1117.2 201)">93</text></g><g><text font-family="Manrope,Manrope_MSFontService,sans-serif" font-weight="400" font-size="11" transform="matrix(1 0 0 0.999671 1040.28 201)">110</text></g><g><text font-family="Manrope,Manrope_MSFontService,sans-serif" font-weight="400" font-size="11" transform="matrix(1 0 0 0.999671 964.014 201)">124</text></g><text font-family="Manrope,Manrope_MSFontService,sans-serif" font-weight="400" font-size="11" transform="matrix(1 0 0 0.999671 794.177 201)">09.02.2024</text><text font-family="Manrope,Manrope_MSFontService,sans-serif" font-weight="400" font-size="11" transform="matrix(1 0 0 0.999671 852.177 201)">–</text><text font-family="Manrope,Manrope_MSFontService,sans-serif" font-weight="400" font-size="11" transform="matrix(1 0 0 0.999671 860.177 201)">8</text><text font-family="Manrope,Manrope_MSFontService,sans-serif" font-weight="400" font-size="11" transform="matrix(1 0 0 0.999671 868.51 201)">pm</text><g><text font-family="Manrope,Manrope_MSFontService,sans-serif" font-weight="400" font-size="11" transform="matrix(1 0 0 0.999671 886.01 201)">CET</text></g><g><text font-family="Manrope ExtraBold,Manrope ExtraBold_MSFontService,sans-serif" font-weight="800" font-size="11" transform="matrix(1 0 0 0.999671 745.87 201)">CW9</text></g><text font-family="Manrope,Manrope_MSFontService,sans-serif" font-style="oblique" font-weight="400" font-size="11" transform="matrix(1 0 0 0.999671 617.364 201)">latest</text><text font-family="Manrope,Manrope_MSFontService,sans-serif" font-style="oblique" font-weight="400" font-size="11" transform="matrix(1 0 0 0.999671 648.531 201)">demand</text><text font-family="Manrope,Manrope_MSFontService,sans-serif" font-weight="700" font-size="11" transform="matrix(1 0 0 0.999671 1253.39 234)">-</text><g><text font-family="Manrope,Manrope_MSFontService,sans-serif" font-weight="700" font-size="11" transform="matrix(1 0 0 0.999671 1257.89 234)">19%</text></g><g><text font-family="Manrope,Manrope_MSFontService,sans-serif" font-weight="700" font-size="11" transform="matrix(1 0 0 0.999671 1183.3 234)">16%</text></g><text font-family="Manrope,Manrope_MSFontService,sans-serif" font-weight="700" font-size="11" transform="matrix(1 0 0 0.999671 1109.87 234)">-</text><g><text font-family="Manrope,Manrope_MSFontService,sans-serif" font-weight="700" font-size="11" transform="matrix(1 0 0 0.999671 1114.37 234)">7%</text></g><g><text font-family="Manrope,Manrope_MSFontService,sans-serif" font-weight="700" font-size="11" transform="matrix(1 0 0 0.999671 1034.44 234)">21%</text></g><g><text font-family="Manrope,Manrope_MSFontService,sans-serif" font-weight="700" font-size="11" transform="matrix(1 0 0 0.999671 960.014 234)">13%</text></g><text font-family="Manrope,Manrope_MSFontService,sans-serif" font-style="oblique" font-weight="400" font-size="11" transform="matrix(1 0 0 0.999671 630.031 234)">deviation</text><g><text font-family="Manrope,Manrope_MSFontService,sans-serif" font-weight="400" font-size="11" transform="matrix(1 0 0 0.999671 1260.56 270)">230</text></g><g><text font-family="Manrope,Manrope_MSFontService,sans-serif" font-weight="400" font-size="11" transform="matrix(1 0 0 0.999671 1185.8 270)">245</text></g><g><text font-family="Manrope,Manrope_MSFontService,sans-serif" font-weight="400" font-size="11" transform="matrix(1 0 0 0.999671 1113.04 270)">193</text></g><g><text font-family="Manrope,Manrope_MSFontService,sans-serif" font-weight="400" font-size="11" transform="matrix(1 0 0 0.999671 1038.44 270)">210</text></g><g><text font-family="Manrope,Manrope_MSFontService,sans-serif" font-weight="400" font-size="11" transform="matrix(1 0 0 0.999671 962.18 270)">224</text></g><text font-family="Manrope,Manrope_MSFontService,sans-serif" font-weight="400" font-size="11" transform="matrix(1 0 0 0.999671 794.843 270)">02.02.2024</text><text font-family="Manrope,Manrope_MSFontService,sans-serif" font-weight="400" font-size="11" transform="matrix(1 0 0 0.999671 852.177 270)">–</text><text font-family="Manrope,Manrope_MSFontService,sans-serif" font-weight="400" font-size="11" transform="matrix(1 0 0 0.999671 860.177 270)">8</text><text font-family="Manrope,Manrope_MSFontService,sans-serif" font-weight="400" font-size="11" transform="matrix(1 0 0 0.999671 868.51 270)">pm</text><g><text font-family="Manrope,Manrope_MSFontService,sans-serif" font-weight="400" font-size="11" transform="matrix(1 0 0 0.999671 886.01 270)">CET</text></g><g><text font-family="Manrope ExtraBold,Manrope ExtraBold_MSFontService,sans-serif" font-weight="800" font-size="11" transform="matrix(1 0 0 0.999671 745.87 270)">CW8</text></g><text font-family="Manrope,Manrope_MSFontService,sans-serif" font-style="oblique" font-weight="400" font-size="11" transform="matrix(1 0 0 0.999671 609.614 270)">previous</text><text font-family="Manrope,Manrope_MSFontService,sans-serif" font-style="oblique" font-weight="400" font-size="11" transform="matrix(1 0 0 0.999671 654.447 270)">forecast</text><text font-family="Manrope,Manrope_MSFontService,sans-serif" font-weight="400" font-size="11" transform="matrix(1 0 0 0.999671 516.782 293)">CG1</text><text font-family="Manrope,Manrope_MSFontService,sans-serif" font-weight="400" font-size="11" transform="matrix(1 0 0 0.999671 379.885 293)">Series</text><text font-family="Manrope,Manrope_MSFontService,sans-serif" font-weight="400" font-size="11" transform="matrix(1 0 0 0.999671 262.865 293)">Berlin</text><text font-family="Manrope,Manrope_MSFontService,sans-serif" font-weight="400" font-size="11" transform="matrix(1 0 0 0.999671 152.971 293)">B</text><text font-family="Manrope,Manrope_MSFontService,sans-serif" font-weight="400" font-size="11" transform="matrix(1 0 0 0.999671 38.633 293)">DS3</text><g><text font-family="Manrope,Manrope_MSFontService,sans-serif" font-weight="400" font-size="11" transform="matrix(1 0 0 0.999671 1259.73 303)">260</text></g><g><text font-family="Manrope,Manrope_MSFontService,sans-serif" font-weight="400" font-size="11" transform="matrix(1 0 0 0.999671 1186.13 303)">225</text></g><g><text font-family="Manrope,Manrope_MSFontService,sans-serif" font-weight="400" font-size="11" transform="matrix(1 0 0 0.999671 1110.7 303)">200</text></g><g><text font-family="Manrope,Manrope_MSFontService,sans-serif" font-weight="400" font-size="11" transform="matrix(1 0 0 0.999671 1040.11 303)">191</text></g><g><text font-family="Manrope,Manrope_MSFontService,sans-serif" font-weight="400" font-size="11" transform="matrix(1 0 0 0.999671 963.847 303)">210</text></g><text font-family="Manrope,Manrope_MSFontService,sans-serif" font-weight="400" font-size="11" transform="matrix(1 0 0 0.999671 794.177 303)">09.02.2024</text><text font-family="Manrope,Manrope_MSFontService,sans-serif" font-weight="400" font-size="11" transform="matrix(1 0 0 0.999671 852.177 303)">–</text><text font-family="Manrope,Manrope_MSFontService,sans-serif" font-weight="400" font-size="11" transform="matrix(1 0 0 0.999671 860.177 303)">8</text><text font-family="Manrope,Manrope_MSFontService,sans-serif" font-weight="400" font-size="11" transform="matrix(1 0 0 0.999671 868.51 303)">pm</text><g><text font-family="Manrope,Manrope_MSFontService,sans-serif" font-weight="400" font-size="11" transform="matrix(1 0 0 0.999671 886.01 303)">CET</text></g><g><text font-family="Manrope ExtraBold,Manrope ExtraBold_MSFontService,sans-serif" font-weight="800" font-size="11" transform="matrix(1 0 0 0.999671 745.87 303)">CW9</text></g><text font-family="Manrope,Manrope_MSFontService,sans-serif" font-style="oblique" font-weight="400" font-size="11" transform="matrix(1 0 0 0.999671 617.364 303)">latest</text><text font-family="Manrope,Manrope_MSFontService,sans-serif" font-style="oblique" font-weight="400" font-size="11" transform="matrix(1 0 0 0.999671 648.531 303)">demand</text><g><text font-family="Manrope,Manrope_MSFontService,sans-serif" font-weight="700" font-size="11" transform="matrix(1 0 0 0.999671 1258.39 336)">13%</text></g><text font-family="Manrope,Manrope_MSFontService,sans-serif" font-weight="700" font-size="11" transform="matrix(1 0 0 0.999671 1183.63 336)">-</text><g><text font-family="Manrope,Manrope_MSFontService,sans-serif" font-weight="700" font-size="11" transform="matrix(1 0 0 0.999671 1188.13 336)">8%</text></g><g><text font-family="Manrope,Manrope_MSFontService,sans-serif" font-weight="700" font-size="11" transform="matrix(1 0 0 0.999671 1113.54 336)">4%</text></g><text font-family="Manrope,Manrope_MSFontService,sans-serif" font-weight="700" font-size="11" transform="matrix(1 0 0 0.999671 1034.28 336)">-</text><g><text font-family="Manrope,Manrope_MSFontService,sans-serif" font-weight="700" font-size="11" transform="matrix(1 0 0 0.999671 1038.78 336)">9%</text></g><text font-family="Manrope,Manrope_MSFontService,sans-serif" font-weight="700" font-size="11" transform="matrix(1 0 0 0.999671 959.68 336)">-</text><g><text font-family="Manrope,Manrope_MSFontService,sans-serif" font-weight="700" font-size="11" transform="matrix(1 0 0 0.999671 964.18 336)">6%</text></g><text font-family="Manrope,Manrope_MSFontService,sans-serif" font-style="oblique" font-weight="400" font-size="11" transform="matrix(1 0 0 0.999671 630.031 336)">deviation</text><g><text font-family="Manrope,Manrope_MSFontService,sans-serif" font-weight="400" font-size="11" transform="matrix(1 0 0 0.999671 1260.23 405)">520</text></g><g><text font-family="Manrope,Manrope_MSFontService,sans-serif" font-weight="400" font-size="11" transform="matrix(1 0 0 0.999671 1187.8 405)">515</text></g><g><text font-family="Manrope,Manrope_MSFontService,sans-serif" font-weight="400" font-size="11" transform="matrix(1 0 0 0.999671 1111.04 405)">386</text></g><g><text font-family="Manrope,Manrope_MSFontService,sans-serif" font-weight="400" font-size="11" transform="matrix(1 0 0 0.999671 1040.44 405)">411</text></g><g><text font-family="Manrope,Manrope_MSFontService,sans-serif" font-weight="400" font-size="11" transform="matrix(1 0 0 0.999671 961.847 405)">458</text></g><text font-family="Manrope,Manrope_MSFontService,sans-serif" font-weight="400" font-size="11" transform="matrix(1 0 0 0.999671 796.51 405)">19.02.2024</text><text font-family="Manrope,Manrope_MSFontService,sans-serif" font-weight="400" font-size="11" transform="matrix(1 0 0 0.999671 852.177 405)">–</text><text font-family="Manrope,Manrope_MSFontService,sans-serif" font-weight="400" font-size="11" transform="matrix(1 0 0 0.999671 860.177 405)">8</text><text font-family="Manrope,Manrope_MSFontService,sans-serif" font-weight="400" font-size="11" transform="matrix(1 0 0 0.999671 868.51 405)">pm</text><g><text font-family="Manrope,Manrope_MSFontService,sans-serif" font-weight="400" font-size="11" transform="matrix(1 0 0 0.999671 886.01 405)">CET</text></g><g><text font-family="Manrope ExtraBold,Manrope ExtraBold_MSFontService,sans-serif" font-weight="800" font-size="11" transform="matrix(1 0 0 0.999671 745.87 405)">CW8</text></g><text font-family="Manrope,Manrope_MSFontService,sans-serif" font-style="oblique" font-weight="400" font-size="11" transform="matrix(1 0 0 0.999671 609.614 405)">previous</text><text font-family="Manrope,Manrope_MSFontService,sans-serif" font-style="oblique" font-weight="400" font-size="11" transform="matrix(1 0 0 0.999671 654.447 405)">forecast</text><g><text font-family="Manrope ExtraBold,Manrope ExtraBold_MSFontService,sans-serif" font-weight="800" font-size="11" transform="matrix(1 0 0 0.999671 97.5968 405)">Demand volatility at Capacity Group level</text></g><g><text font-family="Manrope,Manrope_MSFontService,sans-serif" font-weight="400" font-size="11" transform="matrix(1 0 0 0.999671 1260.06 437)">550</text></g><g><text font-family="Manrope,Manrope_MSFontService,sans-serif" font-weight="400" font-size="11" transform="matrix(1 0 0 0.999671 1185.13 437)">495</text></g><g><text font-family="Manrope,Manrope_MSFontService,sans-serif" font-weight="400" font-size="11" transform="matrix(1 0 0 0.999671 1111.37 437)">393</text></g><g><text font-family="Manrope,Manrope_MSFontService,sans-serif" font-weight="400" font-size="11" transform="matrix(1 0 0 0.999671 1036.61 437)">392</text></g><g><text font-family="Manrope,Manrope_MSFontService,sans-serif" font-weight="400" font-size="11" transform="matrix(1 0 0 0.999671 961.514 437)">444</text></g><text font-family="Manrope,Manrope_MSFontService,sans-serif" font-weight="400" font-size="11" transform="matrix(1 0 0 0.999671 794.677 437)">26.02.2024</text><text font-family="Manrope,Manrope_MSFontService,sans-serif" font-weight="400" font-size="11" transform="matrix(1 0 0 0.999671 852.177 437)">–</text><text font-family="Manrope,Manrope_MSFontService,sans-serif" font-weight="400" font-size="11" transform="matrix(1 0 0 0.999671 860.177 437)">8</text><text font-family="Manrope,Manrope_MSFontService,sans-serif" font-weight="400" font-size="11" transform="matrix(1 0 0 0.999671 868.51 437)">pm</text><g><text font-family="Manrope,Manrope_MSFontService,sans-serif" font-weight="400" font-size="11" transform="matrix(1 0 0 0.999671 886.01 437)">CET</text></g><g><text font-family="Manrope ExtraBold,Manrope ExtraBold_MSFontService,sans-serif" font-weight="800" font-size="11" transform="matrix(1 0 0 0.999671 745.87 437)">CW9</text></g><text font-family="Manrope,Manrope_MSFontService,sans-serif" font-style="oblique" font-weight="400" font-size="11" transform="matrix(1 0 0 0.999671 617.364 437)">latest</text><text font-family="Manrope,Manrope_MSFontService,sans-serif" font-style="oblique" font-weight="400" font-size="11" transform="matrix(1 0 0 0.999671 648.531 437)">demand</text><g><text font-family="Manrope,Manrope_MSFontService,sans-serif" font-weight="400" font-size="11" transform="matrix(1 0 0 0.999671 97.5968 437)">Capacity</text></g><text font-family="Manrope,Manrope_MSFontService,sans-serif" font-weight="400" font-size="11" transform="matrix(1 0 0 0.999671 144.097 437)">Group: CG1</text><g><text font-family="Manrope ExtraBold,Manrope ExtraBold_MSFontService,sans-serif" font-weight="800" font-size="11" transform="matrix(1 0 0 0.999671 1265.39 470)">30</text></g><text font-family="Manrope ExtraBold,Manrope ExtraBold_MSFontService,sans-serif" font-weight="800" font-size="11" transform="matrix(1 0 0 0.999671 1186.13 470)">-</text><g><text font-family="Manrope ExtraBold,Manrope ExtraBold_MSFontService,sans-serif" font-weight="800" font-size="11" transform="matrix(1 0 0 0.999671 1190.63 470)">20</text></g><g><text font-family="Manrope ExtraBold,Manrope ExtraBold_MSFontService,sans-serif" font-weight="800" font-size="11" transform="matrix(1 0 0 0.999671 1123.87 470)">7</text></g><text font-family="Manrope ExtraBold,Manrope ExtraBold_MSFontService,sans-serif" font-weight="800" font-size="11" transform="matrix(1 0 0 0.999671 1039.11 470)">-</text><g><text font-family="Manrope ExtraBold,Manrope ExtraBold_MSFontService,sans-serif" font-weight="800" font-size="11" transform="matrix(1 0 0 0.999671 1043.61 470)">19</text></g><text font-family="Manrope ExtraBold,Manrope ExtraBold_MSFontService,sans-serif" font-weight="800" font-size="11" transform="matrix(1 0 0 0.999671 964.68 470)">-</text><g><text font-family="Manrope ExtraBold,Manrope ExtraBold_MSFontService,sans-serif" font-weight="800" font-size="11" transform="matrix(1 0 0 0.999671 969.18 470)">14</text></g><text font-family="Times New Roman,Times New Roman_MSFontService,sans-serif" font-weight="400" font-size="11" transform="matrix(1 0 0 0.999671 879.178 471)">∆</text><text font-family="Manrope ExtraBold,Manrope ExtraBold_MSFontService,sans-serif" font-weight="800" font-size="7" transform="matrix(1 0 0 0.999671 885.678 473)">abs</text><g><text font-family="Manrope ExtraBold,Manrope ExtraBold_MSFontService,sans-serif" font-weight="800" font-size="11" transform="matrix(1 0 0 0.999671 898.178 470)">=</text></g><g><text font-family="Manrope,Manrope_MSFontService,sans-serif" font-weight="400" font-size="11" transform="matrix(1 0 0 0.999671 97.5968 470)">Underlying Demand Series: DS1 &amp; DS2 &amp; DS3</text></g><g><text font-family="Manrope ExtraBold,Manrope ExtraBold_MSFontService,sans-serif" font-weight="800" font-size="11" transform="matrix(1 0 0 0.999671 1246.73 503)">5.45%</text></g><text font-family="Manrope ExtraBold,Manrope ExtraBold_MSFontService,sans-serif" font-weight="800" font-size="11" transform="matrix(1 0 0 0.999671 1166.63 503)">-</text><g><text font-family="Manrope ExtraBold,Manrope ExtraBold_MSFontService,sans-serif" font-weight="800" font-size="11" transform="matrix(1 0 0 0.999671 1171.13 503)">4.04%</text></g><g><text font-family="Manrope ExtraBold,Manrope ExtraBold_MSFontService,sans-serif" font-weight="800" font-size="11" transform="matrix(1 0 0 0.999671 1099.37 503)">1.78%</text></g><text font-family="Manrope ExtraBold,Manrope ExtraBold_MSFontService,sans-serif" font-weight="800" font-size="11" transform="matrix(1 0 0 0.999671 1018.11 503)">-</text><g><text font-family="Manrope ExtraBold,Manrope ExtraBold_MSFontService,sans-serif" font-weight="800" font-size="11" transform="matrix(1 0 0 0.999671 1022.61 503)">4.85%</text></g><text font-family="Manrope ExtraBold,Manrope ExtraBold_MSFontService,sans-serif" font-weight="800" font-size="11" transform="matrix(1 0 0 0.999671 945.514 503)">-</text><g><text font-family="Manrope ExtraBold,Manrope ExtraBold_MSFontService,sans-serif" font-weight="800" font-size="11" transform="matrix(1 0 0 0.999671 950.014 503)">3.15%</text></g><text font-family="Times New Roman,Times New Roman_MSFontService,sans-serif" font-weight="400" font-size="11" transform="matrix(1 0 0 0.999671 882.178 504)">∆</text><text font-family="Manrope ExtraBold,Manrope ExtraBold_MSFontService,sans-serif" font-weight="800" font-size="7" transform="matrix(1 0 0 0.999671 888.678 506)">rel</text><g><text font-family="Manrope ExtraBold,Manrope ExtraBold_MSFontService,sans-serif" font-weight="800" font-size="11" transform="matrix(1 0 0 0.999671 898.178 503)">=</text></g></g></svg>