<svg width="4016" height="2409" xmlns="http://www.w3.org/2000/svg" xmlns:xlink="http://www.w3.org/1999/xlink" xml:space="preserve" overflow="hidden"><defs><clipPath id="clip0"><rect x="191" y="58" width="4016" height="2409"/></clipPath><clipPath id="clip1"><rect x="193" y="183" width="730" height="540"/></clipPath><clipPath id="clip2"><rect x="922" y="-48" width="366" height="1079"/></clipPath><clipPath id="clip3"><rect x="922" y="-48" width="366" height="1079"/></clipPath><clipPath id="clip4"><rect x="1287" y="-48" width="365" height="1079"/></clipPath><clipPath id="clip5"><rect x="1287" y="-48" width="365" height="1079"/></clipPath><clipPath id="clip6"><rect x="1651" y="-48" width="366" height="1079"/></clipPath><clipPath id="clip7"><rect x="1651" y="-48" width="366" height="1079"/></clipPath><clipPath id="clip8"><rect x="2016" y="183" width="730" height="540"/></clipPath><clipPath id="clip9"><rect x="2745" y="183" width="730" height="540"/></clipPath><clipPath id="clip10"><rect x="3474" y="183" width="730" height="540"/></clipPath><clipPath id="clip11"><rect x="558" y="354" width="365" height="540"/></clipPath><clipPath id="clip12"><rect x="922" y="354" width="366" height="540"/></clipPath><clipPath id="clip13"><rect x="1287" y="354" width="365" height="540"/></clipPath><clipPath id="clip14"><rect x="1651" y="354" width="366" height="540"/></clipPath><clipPath id="clip15"><rect x="2016" y="354" width="365" height="540"/></clipPath><clipPath id="clip16"><rect x="2380" y="354" width="366" height="540"/></clipPath><clipPath id="clip17"><rect x="2745" y="354" width="365" height="540"/></clipPath><clipPath id="clip18"><rect x="3109" y="354" width="366" height="540"/></clipPath><clipPath id="clip19"><rect x="3474" y="354" width="365" height="540"/></clipPath><clipPath id="clip20"><rect x="3838" y="354" width="366" height="540"/></clipPath><clipPath id="clip21"><rect x="193" y="295" width="366" height="1079"/></clipPath><clipPath id="clip22"><rect x="193" y="295" width="366" height="1079"/></clipPath><clipPath id="clip23"><rect x="558" y="526" width="365" height="540"/></clipPath><clipPath id="clip24"><rect x="922" y="526" width="366" height="540"/></clipPath><clipPath id="clip25"><rect x="1287" y="526" width="365" height="540"/></clipPath><clipPath id="clip26"><rect x="1651" y="526" width="366" height="540"/></clipPath><clipPath id="clip27"><rect x="2016" y="526" width="365" height="540"/></clipPath><clipPath id="clip28"><rect x="2380" y="526" width="366" height="540"/></clipPath><clipPath id="clip29"><rect x="2745" y="526" width="365" height="540"/></clipPath><clipPath id="clip30"><rect x="3109" y="526" width="366" height="540"/></clipPath><clipPath id="clip31"><rect x="3474" y="526" width="365" height="540"/></clipPath><clipPath id="clip32"><rect x="3838" y="526" width="366" height="540"/></clipPath><clipPath id="clip33"><rect x="193" y="497" width="366" height="1079"/></clipPath><clipPath id="clip34"><rect x="193" y="497" width="366" height="1079"/></clipPath><clipPath id="clip35"><rect x="558" y="728" width="365" height="540"/></clipPath><clipPath id="clip36"><rect x="922" y="728" width="366" height="540"/></clipPath><clipPath id="clip37"><rect x="1287" y="728" width="365" height="540"/></clipPath><clipPath id="clip38"><rect x="1651" y="728" width="366" height="540"/></clipPath><clipPath id="clip39"><rect x="2016" y="728" width="365" height="540"/></clipPath><clipPath id="clip40"><rect x="2380" y="728" width="366" height="540"/></clipPath><clipPath id="clip41"><rect x="2745" y="728" width="365" height="540"/></clipPath><clipPath id="clip42"><rect x="3109" y="728" width="366" height="540"/></clipPath><clipPath id="clip43"><rect x="3474" y="728" width="365" height="540"/></clipPath><clipPath id="clip44"><rect x="3838" y="728" width="366" height="540"/></clipPath><clipPath id="clip45"><rect x="193" y="668" width="366" height="1079"/></clipPath><clipPath id="clip46"><rect x="193" y="668" width="366" height="1079"/></clipPath><clipPath id="clip47"><rect x="558" y="899" width="365" height="540"/></clipPath><clipPath id="clip48"><rect x="922" y="899" width="366" height="540"/></clipPath><clipPath id="clip49"><rect x="1287" y="899" width="365" height="540"/></clipPath><clipPath id="clip50"><rect x="1651" y="899" width="366" height="540"/></clipPath><clipPath id="clip51"><rect x="2016" y="899" width="365" height="540"/></clipPath><clipPath id="clip52"><rect x="2380" y="899" width="366" height="540"/></clipPath><clipPath id="clip53"><rect x="2745" y="899" width="365" height="540"/></clipPath><clipPath id="clip54"><rect x="3109" y="899" width="366" height="540"/></clipPath><clipPath id="clip55"><rect x="3474" y="899" width="365" height="540"/></clipPath><clipPath id="clip56"><rect x="3838" y="899" width="366" height="540"/></clipPath><clipPath id="clip57"><rect x="193" y="870" width="366" height="1079"/></clipPath><clipPath id="clip58"><rect x="193" y="870" width="366" height="1079"/></clipPath><clipPath id="clip59"><rect x="558" y="1101" width="365" height="540"/></clipPath><clipPath id="clip60"><rect x="922" y="1101" width="366" height="540"/></clipPath><clipPath id="clip61"><rect x="1287" y="1101" width="365" height="540"/></clipPath><clipPath id="clip62"><rect x="1651" y="1101" width="366" height="540"/></clipPath><clipPath id="clip63"><rect x="2016" y="1101" width="365" height="540"/></clipPath><clipPath id="clip64"><rect x="2380" y="1101" width="366" height="540"/></clipPath><clipPath id="clip65"><rect x="2745" y="1101" width="365" height="540"/></clipPath><clipPath id="clip66"><rect x="3109" y="1101" width="366" height="540"/></clipPath><clipPath id="clip67"><rect x="3474" y="1101" width="365" height="540"/></clipPath><clipPath id="clip68"><rect x="3838" y="1101" width="366" height="540"/></clipPath><clipPath id="clip69"><rect x="193" y="841" width="366" height="1618"/></clipPath><clipPath id="clip70"><rect x="193" y="841" width="366" height="1618"/></clipPath><clipPath id="clip71"><rect x="193" y="841" width="366" height="1618"/></clipPath><clipPath id="clip72"><rect x="558" y="1303" width="365" height="540"/></clipPath><clipPath id="clip73"><rect x="922" y="1303" width="366" height="540"/></clipPath><clipPath id="clip74"><rect x="1287" y="1303" width="365" height="540"/></clipPath><clipPath id="clip75"><rect x="1651" y="1303" width="366" height="540"/></clipPath><clipPath id="clip76"><rect x="2016" y="1303" width="365" height="540"/></clipPath><clipPath id="clip77"><rect x="2380" y="1303" width="366" height="540"/></clipPath><clipPath id="clip78"><rect x="2745" y="1303" width="365" height="540"/></clipPath><clipPath id="clip79"><rect x="3109" y="1303" width="366" height="540"/></clipPath><clipPath id="clip80"><rect x="3474" y="1303" width="365" height="540"/></clipPath><clipPath id="clip81"><rect x="3838" y="1303" width="366" height="540"/></clipPath><clipPath id="clip82"><rect x="193" y="859" width="366" height="2157"/></clipPath><clipPath id="clip83"><rect x="193" y="859" width="366" height="2157"/></clipPath><clipPath id="clip84"><rect x="193" y="859" width="366" height="2157"/></clipPath><clipPath id="clip85"><rect x="193" y="859" width="366" height="2157"/></clipPath><clipPath id="clip86"><rect x="558" y="1552" width="365" height="540"/></clipPath><clipPath id="clip87"><rect x="922" y="1552" width="366" height="540"/></clipPath><clipPath id="clip88"><rect x="1287" y="1552" width="365" height="540"/></clipPath><clipPath id="clip89"><rect x="1651" y="1552" width="366" height="540"/></clipPath><clipPath id="clip90"><rect x="2016" y="1552" width="365" height="540"/></clipPath><clipPath id="clip91"><rect x="2380" y="1552" width="366" height="540"/></clipPath><clipPath id="clip92"><rect x="2745" y="1552" width="365" height="540"/></clipPath><clipPath id="clip93"><rect x="3109" y="1552" width="366" height="540"/></clipPath><clipPath id="clip94"><rect x="3474" y="1552" width="365" height="540"/></clipPath><clipPath id="clip95"><rect x="3838" y="1552" width="366" height="540"/></clipPath><clipPath id="clip96"><rect x="193" y="1196" width="366" height="2157"/></clipPath><clipPath id="clip97"><rect x="193" y="1196" width="366" height="2157"/></clipPath><clipPath id="clip98"><rect x="193" y="1196" width="366" height="2157"/></clipPath><clipPath id="clip99"><rect x="193" y="1196" width="366" height="2157"/></clipPath><clipPath id="clip100"><rect x="558" y="1889" width="365" height="540"/></clipPath><clipPath id="clip101"><rect x="922" y="1889" width="366" height="540"/></clipPath><clipPath id="clip102"><rect x="1287" y="1889" width="365" height="540"/></clipPath><clipPath id="clip103"><rect x="1651" y="1889" width="366" height="540"/></clipPath><clipPath id="clip104"><rect x="2016" y="1889" width="365" height="540"/></clipPath><clipPath id="clip105"><rect x="2380" y="1889" width="366" height="540"/></clipPath><clipPath id="clip106"><rect x="2745" y="1889" width="365" height="540"/></clipPath><clipPath id="clip107"><rect x="3109" y="1889" width="366" height="540"/></clipPath><clipPath id="clip108"><rect x="3474" y="1889" width="365" height="540"/></clipPath><clipPath id="clip109"><rect x="3838" y="1889" width="366" height="540"/></clipPath><clipPath id="clip110"><rect x="2662" y="73" width="1542" height="540"/></clipPath></defs><g clip-path="url(#clip0)" transform="translate(-191 -58)"><path d="M193.568 60.3383 1016.52 60.3383 1016.52 175.293 193.568 175.293Z" fill="#FFAB00" fill-rule="evenodd"/><path d="M193.568 175.293 1016.52 175.293 1016.52 290.247 193.568 290.247Z" fill="#FFAB00" fill-rule="evenodd"/><path d="M193.568 290.247 1016.52 290.247 1016.52 405.201 193.568 405.201Z" fill="#FFAB00" fill-rule="evenodd"/><path d="M1016.52 58.6198 1016.52 406.92" stroke="#C1C7D0" stroke-width="3.4375" stroke-linejoin="round" stroke-miterlimit="10" fill="none" fill-rule="evenodd"/><path d="M1839.47 58.6198 1839.47 406.92" stroke="#C1C7D0" stroke-width="3.4375" stroke-linejoin="round" stroke-miterlimit="10" fill="none" fill-rule="evenodd"/><path d="M191.849 175.293 2664.15 175.293" stroke="#C1C7D0" stroke-width="3.4375" stroke-linejoin="round" stroke-miterlimit="10" fill="none" fill-rule="evenodd"/><path d="M191.849 290.247 2664.15 290.247" stroke="#C1C7D0" stroke-width="3.4375" stroke-linejoin="round" stroke-miterlimit="10" fill="none" fill-rule="evenodd"/><path d="M193.568 58.6198 193.568 406.92" stroke="#C1C7D0" stroke-width="3.4375" stroke-linejoin="round" stroke-miterlimit="10" fill="none" fill-rule="evenodd"/><path d="M2662.43 58.6198 2662.43 406.92" stroke="#C1C7D0" stroke-width="3.4375" stroke-linejoin="round" stroke-miterlimit="10" fill="none" fill-rule="evenodd"/><path d="M191.849 60.3383 2664.15 60.3383" stroke="#C1C7D0" stroke-width="3.4375" stroke-linejoin="round" stroke-miterlimit="10" fill="none" fill-rule="evenodd"/><path d="M191.849 405.201 2664.15 405.201" stroke="#C1C7D0" stroke-width="3.4375" stroke-linejoin="round" stroke-miterlimit="10" fill="none" fill-rule="evenodd"/><text font-family="Calibri,Calibri_MSFontService,sans-serif" font-weight="400" font-size="50" transform="matrix(1 0 0 1 227.943 132)">Consumption</text><text font-family="Calibri,Calibri_MSFontService,sans-serif" font-weight="400" font-size="50" transform="matrix(1 0 0 1 512.109 132)">Customer A</text><text font-family="Calibri,Calibri_MSFontService,sans-serif" font-weight="400" font-size="50" transform="matrix(1 0 0 1 1050.9 132)">1000</text><text font-family="Calibri,Calibri_MSFontService,sans-serif" font-weight="400" font-size="50" transform="matrix(1 0 0 1 1873.85 132)">33%</text><text font-family="Calibri,Calibri_MSFontService,sans-serif" font-weight="400" font-size="50" transform="matrix(1 0 0 1 227.943 247)">Consumtpion Customer B</text><text font-family="Calibri,Calibri_MSFontService,sans-serif" font-weight="400" font-size="50" transform="matrix(1 0 0 1 1050.9 247)">1000</text><text font-family="Calibri,Calibri_MSFontService,sans-serif" font-weight="400" font-size="50" transform="matrix(1 0 0 1 1873.85 247)">33%</text><text font-family="Calibri,Calibri_MSFontService,sans-serif" font-weight="400" font-size="50" transform="matrix(1 0 0 1 227.943 362)">Production Output Supplier</text><text font-family="Calibri,Calibri_MSFontService,sans-serif" font-weight="400" font-size="50" transform="matrix(1 0 0 1 1050.9 362)">3000</text><text font-family="Calibri,Calibri_MSFontService,sans-serif" font-weight="400" font-size="50" transform="matrix(1 0 0 1 1873.85 362)">100%</text><path d="M193.568 405.202 922.646 405.202 922.646 576.801 193.568 576.801Z" fill="#FFAB00" fill-rule="evenodd"/><path d="M922.646 405.202 1287.18 405.202 1287.18 576.801 922.646 576.801Z" fill="#FFAB00" fill-rule="evenodd"/><path d="M1287.18 405.202 1651.72 405.202 1651.72 576.801 1287.18 576.801Z" fill="#FFAB00" fill-rule="evenodd"/><path d="M1651.72 405.202 2016.26 405.202 2016.26 576.801 1651.72 576.801Z" fill="#FFAB00" fill-rule="evenodd"/><path d="M2016.26 405.202 2745.34 405.202 2745.34 576.801 2016.26 576.801Z" fill="#FFAB00" fill-rule="evenodd"/><path d="M2745.34 405.202 3474.42 405.202 3474.42 576.801 2745.34 576.801Z" fill="#FFAB00" fill-rule="evenodd"/><path d="M3474.42 405.202 4203.5 405.202 4203.5 576.801 3474.42 576.801Z" fill="#FFAB00" fill-rule="evenodd"/><path d="M193.568 576.801 558.107 576.801 558.107 748.4 193.568 748.4Z" fill="#FFAB00" fill-rule="evenodd"/><path d="M558.107 576.801 922.646 576.801 922.646 748.4 558.107 748.4Z" fill="#FFAB00" fill-rule="evenodd"/><path d="M922.646 576.801 1287.18 576.801 1287.18 748.4 922.646 748.4Z" fill="#FFAB00" fill-rule="evenodd"/><path d="M1287.18 576.801 1651.72 576.801 1651.72 748.4 1287.18 748.4Z" fill="#FFAB00" fill-rule="evenodd"/><path d="M1651.72 576.801 2016.26 576.801 2016.26 748.4 1651.72 748.4Z" fill="#FFAB00" fill-rule="evenodd"/><path d="M2016.26 576.801 2380.8 576.801 2380.8 748.4 2016.26 748.4Z" fill="#FFAB00" fill-rule="evenodd"/><path d="M2380.8 576.801 2745.34 576.801 2745.34 748.4 2380.8 748.4Z" fill="#FFAB00" fill-rule="evenodd"/><path d="M2745.34 576.801 3109.88 576.801 3109.88 748.4 2745.34 748.4Z" fill="#FFAB00" fill-rule="evenodd"/><path d="M3109.88 576.801 3474.42 576.801 3474.42 748.4 3109.88 748.4Z" fill="#FFAB00" fill-rule="evenodd"/><path d="M3474.42 576.801 3838.96 576.801 3838.96 748.4 3474.42 748.4Z" fill="#FFAB00" fill-rule="evenodd"/><path d="M3838.96 576.801 4203.5 576.801 4203.5 748.4 3838.96 748.4Z" fill="#FFAB00" fill-rule="evenodd"/><path d="M193.568 748.4 558.107 748.4 558.107 950.339 193.568 950.339Z" fill="#FFAB00" fill-rule="evenodd"/><path d="M193.568 950.339 558.107 950.339 558.107 1121.94 193.568 1121.94Z" fill="#FFAB00" fill-rule="evenodd"/><path d="M558.107 950.339 922.646 950.339 922.646 1121.94 558.107 1121.94Z" fill="#F4F5F7" fill-rule="evenodd"/><path d="M922.646 950.339 1287.18 950.339 1287.18 1121.94 922.646 1121.94Z" fill="#F4F5F7" fill-rule="evenodd"/><path d="M1287.18 950.339 1651.72 950.339 1651.72 1121.94 1287.18 1121.94Z" fill="#F4F5F7" fill-rule="evenodd"/><path d="M1651.72 950.339 2016.26 950.339 2016.26 1121.94 1651.72 1121.94Z" fill="#F4F5F7" fill-rule="evenodd"/><path d="M2016.26 950.339 2380.8 950.339 2380.8 1121.94 2016.26 1121.94Z" fill="#F4F5F7" fill-rule="evenodd"/><path d="M2380.8 950.339 2745.34 950.339 2745.34 1121.94 2380.8 1121.94Z" fill="#F4F5F7" fill-rule="evenodd"/><path d="M2745.34 950.339 3109.88 950.339 3109.88 1121.94 2745.34 1121.94Z" fill="#F4F5F7" fill-rule="evenodd"/><path d="M3109.88 950.339 3474.42 950.339 3474.42 1121.94 3109.88 1121.94Z" fill="#F4F5F7" fill-rule="evenodd"/><path d="M3474.42 950.339 3838.96 950.339 3838.96 1121.94 3474.42 1121.94Z" fill="#F4F5F7" fill-rule="evenodd"/><path d="M3838.96 950.339 4203.5 950.339 4203.5 1121.94 3838.96 1121.94Z" fill="#F4F5F7" fill-rule="evenodd"/><path d="M193.568 1121.94 558.107 1121.94 558.107 1323.88 193.568 1323.88Z" fill="#FFAB00" fill-rule="evenodd"/><path d="M193.568 1323.88 558.107 1323.88 558.107 1525.81 193.568 1525.81Z" fill="#FFAB00" fill-rule="evenodd"/><path d="M558.107 1323.88 922.646 1323.88 922.646 1525.81 558.107 1525.81Z" fill="#F4F5F7" fill-rule="evenodd"/><path d="M922.646 1323.88 1287.18 1323.88 1287.18 1525.81 922.646 1525.81Z" fill="#F4F5F7" fill-rule="evenodd"/><path d="M1287.18 1323.88 1651.72 1323.88 1651.72 1525.81 1287.18 1525.81Z" fill="#F4F5F7" fill-rule="evenodd"/><path d="M1651.72 1323.88 2016.26 1323.88 2016.26 1525.81 1651.72 1525.81Z" fill="#F4F5F7" fill-rule="evenodd"/><path d="M2016.26 1323.88 2380.8 1323.88 2380.8 1525.81 2016.26 1525.81Z" fill="#F4F5F7" fill-rule="evenodd"/><path d="M2380.8 1323.88 2745.34 1323.88 2745.34 1525.81 2380.8 1525.81Z" fill="#F4F5F7" fill-rule="evenodd"/><path d="M2745.34 1323.88 3109.88 1323.88 3109.88 1525.81 2745.34 1525.81Z" fill="#F4F5F7" fill-rule="evenodd"/><path d="M3109.88 1323.88 3474.42 1323.88 3474.42 1525.81 3109.88 1525.81Z" fill="#F4F5F7" fill-rule="evenodd"/><path d="M3474.42 1323.88 3838.96 1323.88 3838.96 1525.81 3474.42 1525.81Z" fill="#F4F5F7" fill-rule="evenodd"/><path d="M3838.96 1323.88 4203.5 1323.88 4203.5 1525.81 3838.96 1525.81Z" fill="#F4F5F7" fill-rule="evenodd"/><path d="M193.568 1525.81 558.107 1525.81 558.107 1774.41 193.568 1774.41Z" fill="#FFAB00" fill-rule="evenodd"/><path d="M193.568 1774.41 558.107 1774.41 558.107 2111.39 193.568 2111.39Z" fill="#FFAB00" fill-rule="evenodd"/><path d="M558.107 1774.41 922.646 1774.41 922.646 2111.39 558.107 2111.39Z" fill="#EAE6FF" fill-rule="evenodd"/><path d="M922.646 1774.41 1287.18 1774.41 1287.18 2111.39 922.646 2111.39Z" fill="#EAE6FF" fill-rule="evenodd"/><path d="M1287.18 1774.41 1651.72 1774.41 1651.72 2111.39 1287.18 2111.39Z" fill="#EAE6FF" fill-rule="evenodd"/><path d="M1651.72 1774.41 2016.26 1774.41 2016.26 2111.39 1651.72 2111.39Z" fill="#EAE6FF" fill-rule="evenodd"/><path d="M2016.26 1774.41 2380.8 1774.41 2380.8 2111.39 2016.26 2111.39Z" fill="#F4F5F7" fill-rule="evenodd"/><path d="M2380.8 1774.41 2745.34 1774.41 2745.34 2111.39 2380.8 2111.39Z" fill="#EAE6FF" fill-rule="evenodd"/><path d="M2745.34 1774.41 3109.88 1774.41 3109.88 2111.39 2745.34 2111.39Z" fill="#F4F5F7" fill-rule="evenodd"/><path d="M3109.88 1774.41 3474.42 1774.41 3474.42 2111.39 3109.88 2111.39Z" fill="#EAE6FF" fill-rule="evenodd"/><path d="M3474.42 1774.41 3838.96 1774.41 3838.96 2111.39 3474.42 2111.39Z" fill="#F4F5F7" fill-rule="evenodd"/><path d="M3838.96 1774.41 4203.5 1774.41 4203.5 2111.39 3838.96 2111.39Z" fill="#EAE6FF" fill-rule="evenodd"/><path d="M193.568 2111.39 558.107 2111.39 558.107 2448.38 193.568 2448.38Z" fill="#FFAB00" fill-rule="evenodd"/><path d="M558.107 2111.39 922.646 2111.39 922.646 2448.38 558.107 2448.38Z" fill="#EAE6FF" fill-rule="evenodd"/><path d="M922.646 2111.39 1287.18 2111.39 1287.18 2448.38 922.646 2448.38Z" fill="#EAE6FF" fill-rule="evenodd"/><path d="M1287.18 2111.39 1651.72 2111.39 1651.72 2448.38 1287.18 2448.38Z" fill="#EAE6FF" fill-rule="evenodd"/><path d="M1651.72 2111.39 2016.26 2111.39 2016.26 2448.38 1651.72 2448.38Z" fill="#EAE6FF" fill-rule="evenodd"/><path d="M2380.8 2111.39 2745.34 2111.39 2745.34 2448.38 2380.8 2448.38Z" fill="#EAE6FF" fill-rule="evenodd"/><path d="M3109.88 2111.39 3474.42 2111.39 3474.42 2448.38 3109.88 2448.38Z" fill="#EAE6FF" fill-rule="evenodd"/><path d="M3838.96 2111.39 4203.5 2111.39 4203.5 2448.38 3838.96 2448.38Z" fill="#EAE6FF" fill-rule="evenodd"/><path d="M558.107 575.082 558.107 2450.09" stroke="#C1C7D0" stroke-width="3.4375" stroke-linejoin="round" stroke-miterlimit="10" fill="none" fill-rule="evenodd"/><path d="M922.646 403.483 922.646 2450.09" stroke="#C1C7D0" stroke-width="3.4375" stroke-linejoin="round" stroke-miterlimit="10" fill="none" fill-rule="evenodd"/><path d="M1287.18 403.483 1287.18 2450.09" stroke="#C1C7D0" stroke-width="3.4375" stroke-linejoin="round" stroke-miterlimit="10" fill="none" fill-rule="evenodd"/><path d="M1651.72 403.483 1651.72 2450.09" stroke="#C1C7D0" stroke-width="3.4375" stroke-linejoin="round" stroke-miterlimit="10" fill="none" fill-rule="evenodd"/><path d="M2016.26 403.483 2016.26 2450.09" stroke="#C1C7D0" stroke-width="3.4375" stroke-linejoin="round" stroke-miterlimit="10" fill="none" fill-rule="evenodd"/><path d="M2380.8 575.082 2380.8 2450.09" stroke="#C1C7D0" stroke-width="3.4375" stroke-linejoin="round" stroke-miterlimit="10" fill="none" fill-rule="evenodd"/><path d="M2745.34 403.483 2745.34 2450.09" stroke="#C1C7D0" stroke-width="3.4375" stroke-linejoin="round" stroke-miterlimit="10" fill="none" fill-rule="evenodd"/><path d="M3109.88 575.082 3109.88 2450.09" stroke="#C1C7D0" stroke-width="3.4375" stroke-linejoin="round" stroke-miterlimit="10" fill="none" fill-rule="evenodd"/><path d="M3474.42 403.483 3474.42 2450.09" stroke="#C1C7D0" stroke-width="3.4375" stroke-linejoin="round" stroke-miterlimit="10" fill="none" fill-rule="evenodd"/><path d="M3838.96 575.082 3838.96 2450.09" stroke="#C1C7D0" stroke-width="3.4375" stroke-linejoin="round" stroke-miterlimit="10" fill="none" fill-rule="evenodd"/><path d="M191.85 576.801 4205.21 576.801" stroke="#C1C7D0" stroke-width="3.4375" stroke-linejoin="round" stroke-miterlimit="10" fill="none" fill-rule="evenodd"/><path d="M191.85 748.4 4205.21 748.4" stroke="#C1C7D0" stroke-width="3.4375" stroke-linejoin="round" stroke-miterlimit="10" fill="none" fill-rule="evenodd"/><path d="M191.85 950.339 4205.21 950.339" stroke="#C1C7D0" stroke-width="3.4375" stroke-linejoin="round" stroke-miterlimit="10" fill="none" fill-rule="evenodd"/><path d="M191.85 1121.94 4205.21 1121.94" stroke="#C1C7D0" stroke-width="3.4375" stroke-linejoin="round" stroke-miterlimit="10" fill="none" fill-rule="evenodd"/><path d="M191.85 1323.88 4205.21 1323.88" stroke="#C1C7D0" stroke-width="3.4375" stroke-linejoin="round" stroke-miterlimit="10" fill="none" fill-rule="evenodd"/><path d="M191.85 1525.81 4205.21 1525.81" stroke="#C1C7D0" stroke-width="3.4375" stroke-linejoin="round" stroke-miterlimit="10" fill="none" fill-rule="evenodd"/><path d="M191.85 1774.41 4205.21 1774.41" stroke="#C1C7D0" stroke-width="3.4375" stroke-linejoin="round" stroke-miterlimit="10" fill="none" fill-rule="evenodd"/><path d="M191.85 2111.39 4205.21 2111.39" stroke="#C1C7D0" stroke-width="3.4375" stroke-linejoin="round" stroke-miterlimit="10" fill="none" fill-rule="evenodd"/><path d="M193.568 403.483 193.568 2450.09" stroke="#C1C7D0" stroke-width="3.4375" stroke-linejoin="round" stroke-miterlimit="10" fill="none" fill-rule="evenodd"/><path d="M4203.5 403.483 4203.5 2450.09" stroke="#C1C7D0" stroke-width="3.4375" stroke-linejoin="round" stroke-miterlimit="10" fill="none" fill-rule="evenodd"/><path d="M191.85 405.202 4205.21 405.202" stroke="#C1C7D0" stroke-width="3.4375" stroke-linejoin="round" stroke-miterlimit="10" fill="none" fill-rule="evenodd"/><path d="M191.85 2448.38 4205.21 2448.38" stroke="#C1C7D0" stroke-width="3.4375" stroke-linejoin="round" stroke-miterlimit="10" fill="none" fill-rule="evenodd"/><g clip-path="url(#clip1)"><text font-family="Calibri,Calibri_MSFontService,sans-serif" font-weight="400" font-size="64" transform="matrix(1 0 0 1 206.139 475)">Situation</text></g><g clip-path="url(#clip2)"><text font-family="Calibri,Calibri_MSFontService,sans-serif" font-weight="400" font-size="64" transform="matrix(1 0 0 1 935.217 475)">Prod</text></g><text font-family="Calibri,Calibri_MSFontService,sans-serif" font-weight="400" font-size="64" transform="matrix(1 0 0 1 1071.69 475)">Sup</text><g clip-path="url(#clip3)"><text font-family="Calibri,Calibri_MSFontService,sans-serif" font-weight="400" font-size="64" transform="matrix(1 0 0 1 935.217 552)">100%</text></g><g clip-path="url(#clip4)"><text font-family="Calibri,Calibri_MSFontService,sans-serif" font-weight="400" font-size="64" transform="matrix(1 0 0 1 1299.76 475)">Prod Sup </text></g><g clip-path="url(#clip5)"><text font-family="Calibri,Calibri_MSFontService,sans-serif" font-weight="400" font-size="64" transform="matrix(1 0 0 1 1299.76 552)">100%</text></g><g clip-path="url(#clip6)"><text font-family="Calibri,Calibri_MSFontService,sans-serif" font-weight="400" font-size="64" transform="matrix(1 0 0 1 1664.29 475)">Prod Sup </text></g><g clip-path="url(#clip7)"><text font-family="Calibri,Calibri_MSFontService,sans-serif" font-weight="400" font-size="64" transform="matrix(1 0 0 1 1664.29 552)">100%</text></g><g clip-path="url(#clip8)"><text font-family="Calibri,Calibri_MSFontService,sans-serif" font-weight="400" font-size="64" transform="matrix(1 0 0 1 2028.83 475)">Shortage Sup prod 0%</text></g><g clip-path="url(#clip9)"><text font-family="Calibri,Calibri_MSFontService,sans-serif" font-weight="400" font-size="64" transform="matrix(1 0 0 1 2757.91 475)">Shortage Sup prod 0%</text></g><g clip-path="url(#clip10)"><text font-family="Calibri,Calibri_MSFontService,sans-serif" font-weight="400" font-size="64" transform="matrix(1 0 0 1 3486.99 475)">Prod Sup 100%</text></g><g clip-path="url(#clip11)"><text font-family="Calibri,Calibri_MSFontService,sans-serif" font-weight="400" font-size="64" transform="matrix(1 0 0 1 570.678 647)">Day 1</text></g><g clip-path="url(#clip12)"><text font-family="Calibri,Calibri_MSFontService,sans-serif" font-weight="400" font-size="64" transform="matrix(1 0 0 1 935.217 647)">Day 2</text></g><g clip-path="url(#clip13)"><text font-family="Calibri,Calibri_MSFontService,sans-serif" font-weight="400" font-size="64" transform="matrix(1 0 0 1 1299.76 647)">Day 3</text></g><g clip-path="url(#clip14)"><text font-family="Calibri,Calibri_MSFontService,sans-serif" font-weight="400" font-size="64" transform="matrix(1 0 0 1 1664.29 647)">Day 4</text></g><g clip-path="url(#clip15)"><text font-family="Calibri,Calibri_MSFontService,sans-serif" font-weight="700" font-size="64" transform="matrix(1 0 0 1 2028.83 647)">Day 5 </text></g><text font-family="Calibri,Calibri_MSFontService,sans-serif" font-weight="700" font-size="64" transform="matrix(1 0 0 1 2191.52 647)">-</text><text font-family="Calibri,Calibri_MSFontService,sans-serif" font-weight="700" font-size="64" transform="matrix(1 0 0 1 2225.32 647)">Plan</text><g clip-path="url(#clip16)"><text font-family="Calibri,Calibri_MSFontService,sans-serif" font-weight="700" font-size="64" transform="matrix(1 0 0 1 2393.37 647)">Day 5 </text></g><text font-family="Calibri,Calibri_MSFontService,sans-serif" font-weight="700" font-size="64" transform="matrix(1 0 0 1 2556.06 647)">-</text><text font-family="Calibri,Calibri_MSFontService,sans-serif" font-weight="700" font-size="64" transform="matrix(1 0 0 1 2589.86 647)">Is</text><g clip-path="url(#clip17)"><text font-family="Calibri,Calibri_MSFontService,sans-serif" font-weight="700" font-size="64" transform="matrix(1 0 0 1 2757.91 647)">Day 6 </text></g><text font-family="Calibri,Calibri_MSFontService,sans-serif" font-weight="700" font-size="64" transform="matrix(1 0 0 1 2920.6 647)">-</text><text font-family="Calibri,Calibri_MSFontService,sans-serif" font-weight="700" font-size="64" transform="matrix(1 0 0 1 2954.4 647)">Plan</text><g clip-path="url(#clip18)"><text font-family="Calibri,Calibri_MSFontService,sans-serif" font-weight="700" font-size="64" transform="matrix(1 0 0 1 3122.45 647)">Day 6 </text></g><text font-family="Calibri,Calibri_MSFontService,sans-serif" font-weight="700" font-size="64" transform="matrix(1 0 0 1 3285.14 647)">-</text><text font-family="Calibri,Calibri_MSFontService,sans-serif" font-weight="700" font-size="64" transform="matrix(1 0 0 1 3318.94 647)">Is</text><g clip-path="url(#clip19)"><text font-family="Calibri,Calibri_MSFontService,sans-serif" font-weight="400" font-size="64" transform="matrix(1 0 0 1 3486.99 647)">Day 7 Plan</text></g><g clip-path="url(#clip20)"><text font-family="Calibri,Calibri_MSFontService,sans-serif" font-weight="400" font-size="64" transform="matrix(1 0 0 1 3851.53 647)">Day 7 Is</text></g><g clip-path="url(#clip21)"><text font-family="Calibri,Calibri_MSFontService,sans-serif" font-weight="400" font-size="64" transform="matrix(1 0 0 1 206.139 818)">Call off </text></g><g clip-path="url(#clip22)"><text font-family="Calibri,Calibri_MSFontService,sans-serif" font-weight="400" font-size="64" transform="matrix(1 0 0 1 206.139 895)">Customer A</text></g><g clip-path="url(#clip23)"><text font-family="Calibri,Calibri_MSFontService,sans-serif" font-weight="400" font-size="64" transform="matrix(1 0 0 1 570.678 818)">1000</text></g><g clip-path="url(#clip24)"><text font-family="Calibri,Calibri_MSFontService,sans-serif" font-weight="400" font-size="64" transform="matrix(1 0 0 1 935.217 818)">1000</text></g><g clip-path="url(#clip25)"><text font-family="Calibri,Calibri_MSFontService,sans-serif" font-weight="400" font-size="64" transform="matrix(1 0 0 1 1299.76 818)">1000</text></g><g clip-path="url(#clip26)"><text font-family="Calibri,Calibri_MSFontService,sans-serif" font-weight="400" font-size="64" transform="matrix(1 0 0 1 1664.29 818)">1000</text></g><g clip-path="url(#clip27)"><text font-family="Calibri,Calibri_MSFontService,sans-serif" font-weight="400" font-size="64" transform="matrix(1 0 0 1 2028.83 818)">1000</text></g><g clip-path="url(#clip28)"><text font-family="Calibri,Calibri_MSFontService,sans-serif" font-weight="400" font-size="64" transform="matrix(1 0 0 1 2393.37 818)">1000</text></g><g clip-path="url(#clip29)"><text font-family="Calibri,Calibri_MSFontService,sans-serif" font-weight="400" font-size="64" transform="matrix(1 0 0 1 2757.91 818)">1000</text></g><g clip-path="url(#clip30)"><text font-family="Calibri,Calibri_MSFontService,sans-serif" font-weight="400" font-size="64" transform="matrix(1 0 0 1 3122.45 818)">1000</text></g><g clip-path="url(#clip31)"><text font-family="Calibri,Calibri_MSFontService,sans-serif" font-weight="400" font-size="64" transform="matrix(1 0 0 1 3486.99 818)">1000</text></g><g clip-path="url(#clip32)"><text font-family="Calibri,Calibri_MSFontService,sans-serif" font-weight="400" font-size="64" transform="matrix(1 0 0 1 3851.53 818)">1000</text></g><g clip-path="url(#clip33)"><text font-family="Calibri,Calibri_MSFontService,sans-serif" font-weight="400" font-size="64" transform="matrix(1 0 0 1 206.139 1020)">Call of </text></g><g clip-path="url(#clip34)"><text font-family="Calibri,Calibri_MSFontService,sans-serif" font-weight="400" font-size="64" transform="matrix(1 0 0 1 206.139 1097)">Customer B</text></g><g clip-path="url(#clip35)"><text font-family="Calibri,Calibri_MSFontService,sans-serif" font-weight="400" font-size="64" transform="matrix(1 0 0 1 570.678 1020)">1000</text></g><g clip-path="url(#clip36)"><text font-family="Calibri,Calibri_MSFontService,sans-serif" font-weight="400" font-size="64" transform="matrix(1 0 0 1 935.217 1020)">1000</text></g><g clip-path="url(#clip37)"><text font-family="Calibri,Calibri_MSFontService,sans-serif" font-weight="400" font-size="64" transform="matrix(1 0 0 1 1299.76 1020)">1000</text></g><g clip-path="url(#clip38)"><text font-family="Calibri,Calibri_MSFontService,sans-serif" font-weight="400" font-size="64" transform="matrix(1 0 0 1 1664.29 1020)">1000</text></g><g clip-path="url(#clip39)"><text font-family="Calibri,Calibri_MSFontService,sans-serif" font-weight="400" font-size="64" transform="matrix(1 0 0 1 2028.83 1020)">1000</text></g><g clip-path="url(#clip40)"><text font-family="Calibri,Calibri_MSFontService,sans-serif" font-weight="400" font-size="64" transform="matrix(1 0 0 1 2393.37 1020)">1000</text></g><g clip-path="url(#clip41)"><text font-family="Calibri,Calibri_MSFontService,sans-serif" font-weight="400" font-size="64" transform="matrix(1 0 0 1 2757.91 1020)">1000</text></g><g clip-path="url(#clip42)"><text font-family="Calibri,Calibri_MSFontService,sans-serif" font-weight="400" font-size="64" transform="matrix(1 0 0 1 3122.45 1020)">1000</text></g><g clip-path="url(#clip43)"><text font-family="Calibri,Calibri_MSFontService,sans-serif" font-weight="400" font-size="64" transform="matrix(1 0 0 1 3486.99 1020)">1000</text></g><g clip-path="url(#clip44)"><text font-family="Calibri,Calibri_MSFontService,sans-serif" font-weight="400" font-size="64" transform="matrix(1 0 0 1 3851.53 1020)">1000</text></g><g clip-path="url(#clip45)"><text font-family="Calibri,Calibri_MSFontService,sans-serif" font-weight="400" font-size="64" transform="matrix(1 0 0 1 206.139 1192)">Delivery to </text></g><g clip-path="url(#clip46)"><text font-family="Calibri,Calibri_MSFontService,sans-serif" font-weight="400" font-size="64" transform="matrix(1 0 0 1 206.139 1269)">Customer A</text></g><g clip-path="url(#clip47)"><text font-family="Calibri,Calibri_MSFontService,sans-serif" font-weight="400" font-size="64" transform="matrix(1 0 0 1 570.678 1192)">1000</text></g><g clip-path="url(#clip48)"><text font-family="Calibri,Calibri_MSFontService,sans-serif" font-weight="400" font-size="64" transform="matrix(1 0 0 1 935.217 1192)">1000</text></g><g clip-path="url(#clip49)"><text font-family="Calibri,Calibri_MSFontService,sans-serif" font-weight="400" font-size="64" transform="matrix(1 0 0 1 1299.76 1192)">1000</text></g><g clip-path="url(#clip50)"><text font-family="Calibri,Calibri_MSFontService,sans-serif" font-weight="400" font-size="64" transform="matrix(1 0 0 1 1664.29 1192)">1000</text></g><g clip-path="url(#clip51)"><text font-family="Calibri,Calibri_MSFontService,sans-serif" font-weight="400" font-size="64" transform="matrix(1 0 0 1 2028.83 1192)">1000</text></g><g clip-path="url(#clip52)"><text font-family="Calibri,Calibri_MSFontService,sans-serif" font-weight="400" font-size="64" transform="matrix(1 0 0 1 2393.37 1192)">1000</text></g><g clip-path="url(#clip53)"><text font-family="Calibri,Calibri_MSFontService,sans-serif" font-weight="400" font-size="64" transform="matrix(1 0 0 1 2757.91 1192)">1000</text></g><g clip-path="url(#clip54)"><text font-family="Calibri,Calibri_MSFontService,sans-serif" font-weight="400" font-size="64" transform="matrix(1 0 0 1 3122.45 1192)">1000</text></g><g clip-path="url(#clip55)"><text font-family="Calibri,Calibri_MSFontService,sans-serif" font-weight="400" font-size="64" transform="matrix(1 0 0 1 3486.99 1192)">1000</text></g><g clip-path="url(#clip56)"><text font-family="Calibri,Calibri_MSFontService,sans-serif" font-weight="400" font-size="64" transform="matrix(1 0 0 1 3851.53 1192)">1000</text></g><g clip-path="url(#clip57)"><text font-family="Calibri,Calibri_MSFontService,sans-serif" font-weight="400" font-size="64" transform="matrix(1 0 0 1 206.139 1394)">Delivery to </text></g><g clip-path="url(#clip58)"><text font-family="Calibri,Calibri_MSFontService,sans-serif" font-weight="400" font-size="64" transform="matrix(1 0 0 1 206.139 1471)">Customer B</text></g><g clip-path="url(#clip59)"><text font-family="Calibri,Calibri_MSFontService,sans-serif" font-weight="400" font-size="64" transform="matrix(1 0 0 1 570.678 1394)">1000</text></g><g clip-path="url(#clip60)"><text font-family="Calibri,Calibri_MSFontService,sans-serif" font-weight="400" font-size="64" transform="matrix(1 0 0 1 935.217 1394)">1000</text></g><g clip-path="url(#clip61)"><text font-family="Calibri,Calibri_MSFontService,sans-serif" font-weight="400" font-size="64" transform="matrix(1 0 0 1 1299.76 1394)">1000</text></g><g clip-path="url(#clip62)"><text font-family="Calibri,Calibri_MSFontService,sans-serif" font-weight="400" font-size="64" transform="matrix(1 0 0 1 1664.29 1394)">1000</text></g><g clip-path="url(#clip63)"><text font-family="Calibri,Calibri_MSFontService,sans-serif" font-weight="400" font-size="64" transform="matrix(1 0 0 1 2028.83 1394)">1000</text></g><g clip-path="url(#clip64)"><text font-family="Calibri,Calibri_MSFontService,sans-serif" font-weight="400" font-size="64" transform="matrix(1 0 0 1 2393.37 1394)">1000</text></g><g clip-path="url(#clip65)"><text font-family="Calibri,Calibri_MSFontService,sans-serif" font-weight="400" font-size="64" transform="matrix(1 0 0 1 2757.91 1394)">1000</text></g><g clip-path="url(#clip66)"><text font-family="Calibri,Calibri_MSFontService,sans-serif" font-weight="400" font-size="64" transform="matrix(1 0 0 1 3122.45 1394)">1000</text></g><g clip-path="url(#clip67)"><text font-family="Calibri,Calibri_MSFontService,sans-serif" font-weight="400" font-size="64" transform="matrix(1 0 0 1 3486.99 1394)">1000</text></g><g clip-path="url(#clip68)"><text font-family="Calibri,Calibri_MSFontService,sans-serif" font-weight="400" font-size="64" transform="matrix(1 0 0 1 3851.53 1394)">1000</text></g><g clip-path="url(#clip69)"><text font-family="Calibri,Calibri_MSFontService,sans-serif" font-weight="400" font-size="64" transform="matrix(1 0 0 1 206.139 1596)">Item Stock </text></g><g clip-path="url(#clip70)"><text font-family="Calibri,Calibri_MSFontService,sans-serif" font-weight="400" font-size="64" transform="matrix(1 0 0 1 206.139 1673)">Supplier site </text></g><g clip-path="url(#clip71)"><text font-family="Calibri,Calibri_MSFontService,sans-serif" font-weight="400" font-size="64" transform="matrix(1 0 0 1 206.139 1750)">TOTAL</text></g><g clip-path="url(#clip72)"><text font-family="Calibri,Calibri_MSFontService,sans-serif" font-weight="400" font-size="64" transform="matrix(1 0 0 1 570.678 1596)">1000</text></g><g clip-path="url(#clip73)"><text font-family="Calibri,Calibri_MSFontService,sans-serif" font-weight="400" font-size="64" transform="matrix(1 0 0 1 935.217 1596)">2000</text></g><g clip-path="url(#clip74)"><text font-family="Calibri,Calibri_MSFontService,sans-serif" font-weight="400" font-size="64" transform="matrix(1 0 0 1 1299.76 1596)">3000</text></g><g clip-path="url(#clip75)"><text font-family="Calibri,Calibri_MSFontService,sans-serif" font-weight="400" font-size="64" transform="matrix(1 0 0 1 1664.29 1596)">4000</text></g><g clip-path="url(#clip76)"><text font-family="Calibri,Calibri_MSFontService,sans-serif" font-weight="400" font-size="64" transform="matrix(1 0 0 1 2028.83 1596)">5000</text></g><g clip-path="url(#clip77)"><text font-family="Calibri,Calibri_MSFontService,sans-serif" font-weight="400" font-size="64" transform="matrix(1 0 0 1 2393.37 1596)">2000</text></g><g clip-path="url(#clip78)"><text font-family="Calibri,Calibri_MSFontService,sans-serif" font-weight="400" font-size="64" transform="matrix(1 0 0 1 2757.91 1596)">3000</text></g><g clip-path="url(#clip79)"><text font-family="Calibri,Calibri_MSFontService,sans-serif" font-weight="400" font-size="64" transform="matrix(1 0 0 1 3122.45 1596)">0</text></g><g clip-path="url(#clip80)"><text font-family="Calibri,Calibri_MSFontService,sans-serif" font-weight="400" font-size="64" transform="matrix(1 0 0 1 3486.99 1596)">1000</text></g><g clip-path="url(#clip81)"><text font-family="Calibri,Calibri_MSFontService,sans-serif" font-weight="400" font-size="64" transform="matrix(1 0 0 1 3851.53 1596)">1000</text></g><g clip-path="url(#clip82)"><text font-family="Calibri,Calibri_MSFontService,sans-serif" font-weight="400" font-size="64" transform="matrix(1 0 0 1 206.139 1844)">Item Stock </text></g><g clip-path="url(#clip83)"><text font-family="Calibri,Calibri_MSFontService,sans-serif" font-weight="400" font-size="64" transform="matrix(1 0 0 1 206.139 1921)">Supplier site </text></g><g clip-path="url(#clip84)"><text font-family="Calibri,Calibri_MSFontService,sans-serif" font-weight="400" font-size="64" transform="matrix(1 0 0 1 206.139 1998)">for </text></g><g clip-path="url(#clip85)"><text font-family="Calibri,Calibri_MSFontService,sans-serif" font-weight="400" font-size="64" transform="matrix(1 0 0 1 206.139 2075)">Customer A</text></g><g clip-path="url(#clip86)"><text font-family="Calibri,Calibri_MSFontService,sans-serif" font-weight="400" font-size="64" transform="matrix(1 0 0 1 570.678 1844)">500</text></g><g clip-path="url(#clip87)"><text font-family="Calibri,Calibri_MSFontService,sans-serif" font-weight="400" font-size="64" transform="matrix(1 0 0 1 935.217 1844)">1000</text></g><g clip-path="url(#clip88)"><text font-family="Calibri,Calibri_MSFontService,sans-serif" font-weight="400" font-size="64" transform="matrix(1 0 0 1 1299.76 1844)">1500</text></g><g clip-path="url(#clip89)"><text font-family="Calibri,Calibri_MSFontService,sans-serif" font-weight="400" font-size="64" transform="matrix(1 0 0 1 1664.29 1844)">2000</text></g><g clip-path="url(#clip90)"><text font-family="Calibri,Calibri_MSFontService,sans-serif" font-weight="400" font-size="64" transform="matrix(1 0 0 1 2028.83 1844)">2500</text></g><g clip-path="url(#clip91)"><text font-family="Calibri,Calibri_MSFontService,sans-serif" font-weight="400" font-size="64" transform="matrix(1 0 0 1 2393.37 1844)">1000</text></g><g clip-path="url(#clip92)"><text font-family="Calibri,Calibri_MSFontService,sans-serif" font-weight="400" font-size="64" transform="matrix(1 0 0 1 2757.91 1844)">1500</text></g><g clip-path="url(#clip93)"><text font-family="Calibri,Calibri_MSFontService,sans-serif" font-weight="400" font-size="64" transform="matrix(1 0 0 1 3122.45 1844)">0</text></g><g clip-path="url(#clip94)"><text font-family="Calibri,Calibri_MSFontService,sans-serif" font-weight="400" font-size="64" transform="matrix(1 0 0 1 3486.99 1844)">500</text></g><g clip-path="url(#clip95)"><text font-family="Calibri,Calibri_MSFontService,sans-serif" font-weight="400" font-size="64" transform="matrix(1 0 0 1 3851.53 1844)">500</text></g><g clip-path="url(#clip96)"><text font-family="Calibri,Calibri_MSFontService,sans-serif" font-weight="400" font-size="64" transform="matrix(1 0 0 1 206.139 2181)">Item Stock </text></g><g clip-path="url(#clip97)"><text font-family="Calibri,Calibri_MSFontService,sans-serif" font-weight="400" font-size="64" transform="matrix(1 0 0 1 206.139 2258)">Supplier site </text></g><g clip-path="url(#clip98)"><text font-family="Calibri,Calibri_MSFontService,sans-serif" font-weight="400" font-size="64" transform="matrix(1 0 0 1 206.139 2335)">for </text></g><g clip-path="url(#clip99)"><text font-family="Calibri,Calibri_MSFontService,sans-serif" font-weight="400" font-size="64" transform="matrix(1 0 0 1 206.139 2412)">Customer B</text></g><g clip-path="url(#clip100)"><text font-family="Calibri,Calibri_MSFontService,sans-serif" font-weight="400" font-size="64" transform="matrix(1 0 0 1 570.678 2181)">500</text></g><g clip-path="url(#clip101)"><text font-family="Calibri,Calibri_MSFontService,sans-serif" font-weight="400" font-size="64" transform="matrix(1 0 0 1 935.217 2181)">1000</text></g><g clip-path="url(#clip102)"><text font-family="Calibri,Calibri_MSFontService,sans-serif" font-weight="400" font-size="64" transform="matrix(1 0 0 1 1299.76 2181)">1500</text></g><g clip-path="url(#clip103)"><text font-family="Calibri,Calibri_MSFontService,sans-serif" font-weight="400" font-size="64" transform="matrix(1 0 0 1 1664.29 2181)">2000</text></g><g clip-path="url(#clip104)"><text font-family="Calibri,Calibri_MSFontService,sans-serif" font-weight="400" font-size="64" transform="matrix(1 0 0 1 2028.83 2181)">2500</text></g><g clip-path="url(#clip105)"><text font-family="Calibri,Calibri_MSFontService,sans-serif" font-weight="400" font-size="64" transform="matrix(1 0 0 1 2393.37 2181)">1000</text></g><g clip-path="url(#clip106)"><text font-family="Calibri,Calibri_MSFontService,sans-serif" font-weight="400" font-size="64" transform="matrix(1 0 0 1 2757.91 2181)">1500</text></g><g clip-path="url(#clip107)"><text font-family="Calibri,Calibri_MSFontService,sans-serif" font-weight="400" font-size="64" transform="matrix(1 0 0 1 3122.45 2181)">0</text></g><g clip-path="url(#clip108)"><text font-family="Calibri,Calibri_MSFontService,sans-serif" font-weight="400" font-size="64" transform="matrix(1 0 0 1 3486.99 2181)">500</text></g><g clip-path="url(#clip109)"><text font-family="Calibri,Calibri_MSFontService,sans-serif" font-weight="400" font-size="64" transform="matrix(1 0 0 1 3851.53 2181)">500</text></g><path d="M2662.43 280.076 4203.5 280.076 4203.5 405.201 2662.43 405.201Z" fill="#EAE6FF" fill-rule="evenodd"/><path d="M2662.43 278.358 2662.43 406.92" stroke="#C1C7D0" stroke-width="3.4375" stroke-linejoin="round" stroke-miterlimit="10" fill="none" fill-rule="evenodd"/><path d="M4203.5 278.358 4203.5 406.92" stroke="#C1C7D0" stroke-width="3.4375" stroke-linejoin="round" stroke-miterlimit="10" fill="none" fill-rule="evenodd"/><path d="M2660.71 280.076 4205.21 280.076" stroke="#C1C7D0" stroke-width="3.4375" stroke-linejoin="round" stroke-miterlimit="10" fill="none" fill-rule="evenodd"/><path d="M2660.71 405.201 4205.21 405.201" stroke="#C1C7D0" stroke-width="3.4375" stroke-linejoin="round" stroke-miterlimit="10" fill="none" fill-rule="evenodd"/><g clip-path="url(#clip110)"><text font-family="Calibri,Calibri_MSFontService,sans-serif" font-weight="700" font-size="64" transform="matrix(1 0 0 1 2696.8 365)">Transferable information from item stock per day</text></g></g></svg>