<?xml version="1.0" encoding="UTF-8" standalone="no"?><svg xmlns="http://www.w3.org/2000/svg" xmlns:xlink="http://www.w3.org/1999/xlink" contentStyleType="text/css" height="635.9375px" preserveAspectRatio="none" style="width:530px;height:635px;background:#FFFFFF;" version="1.1" viewBox="0 0 530 635" width="530.2083px" zoomAndPan="magnify"><defs/><g><!--MD5=[6cb3975b381773e8b1ebadcd8f1721be]
cluster Business Partner and References--><g id="cluster_Business Partner and References"><path d="M4.4271,3.125 L128.3854,3.125 A1.9531,1.9531 0 0 1 129.6875,4.4271 L133.3333,15.4215 L525.2604,15.4215 A1.3021,1.3021 0 0 1 526.5625,16.7236 L526.5625,630.9896 A1.3021,1.3021 0 0 1 525.2604,632.2917 L4.4271,632.2917 A1.3021,1.3021 0 0 1 3.125,630.9896 L3.125,4.4271 A1.3021,1.3021 0 0 1 4.4271,3.125 " style="stroke:#000000;stroke-width:0.78125;fill:none;"/><line style="stroke:#000000;stroke-width:0.78125;fill:none;" x1="3.125" x2="133.3333" y1="15.4215" y2="15.4215"/><text fill="#000000" font-family="sans-serif" font-size="7.2917" font-weight="bold" lengthAdjust="spacing" textLength="123.4375" x="5.2083" y="11.736">Business Partner and References</text></g><!--MD5=[c637aa948e80933875c54e7f5e23ee1d]
class BusinessPartner--><g id="elem_BusinessPartner"><rect codeLine="5" fill="#F1F1F1" height="66.6911" id="BusinessPartner" rx="1.3021" ry="1.3021" style="stroke:#181818;stroke-width:0.2604166666666667;" width="72.9167" x="167.1875" y="297.3958"/><ellipse cx="175.9375" cy="305.7292" fill="#ADD1B2" rx="5.7292" ry="5.7292" style="stroke:#181818;stroke-width:0.5208333333333334;"/><path d="M175.3434,306.1442 L175.3434,307.4463 L177.5977,307.4463 L177.5977,306.9661 Q177.5977,306.6488 177.7197,306.5104 Q177.8499,306.3721 178.0452,306.3721 Q178.2406,306.3721 178.3626,306.5104 Q178.4847,306.6488 178.4847,306.9661 L178.4847,308.3333 L174.318,308.3333 Q173.9925,308.3333 173.8542,308.2113 Q173.724,308.0892 173.724,307.8857 Q173.724,307.6904 173.8623,307.5684 Q174.0007,307.4463 174.318,307.4463 L174.4564,307.4463 L174.4564,303.9795 L174.318,303.9795 Q173.9925,303.9795 173.8542,303.8574 Q173.724,303.7354 173.724,303.5319 Q173.724,303.3366 173.8542,303.2145 Q173.9925,303.0924 174.318,303.0924 L178.2894,303.0924 L178.2894,304.4434 Q178.2894,304.7607 178.1673,304.8991 Q178.0534,305.0293 177.8499,305.0293 Q177.6546,305.0293 177.5326,304.8991 Q177.4105,304.7607 177.4105,304.4434 L177.4105,303.9795 L175.3434,303.9795 L175.3434,305.2572 L176.1165,305.2572 Q176.1165,304.9154 176.1816,304.8177 Q176.32,304.6061 176.5641,304.6061 Q176.7594,304.6061 176.8815,304.7445 Q177.0036,304.8747 177.0036,305.1921 L177.0036,306.2174 Q177.0036,306.5023 176.9385,306.5999 Q176.8001,306.8034 176.5641,306.8034 Q176.32,306.8034 176.1816,306.5918 Q176.1165,306.4941 176.1165,306.1442 L175.3434,306.1442 Z " fill="#000000"/><text fill="#000000" font-family="sans-serif" font-size="7.2917" lengthAdjust="spacing" textLength="54.1667" x="183.4375" y="308.7128">BusinessPartner</text><line style="stroke:#181818;stroke-width:0.2604166666666667;" x1="167.7083" x2="239.5833" y1="314.0625" y2="314.0625"/><text fill="#000000" font-family="sans-serif" font-size="7.2917" lengthAdjust="spacing" textLength="33.3333" x="170.3125" y="323.7152">ExternalID</text><text fill="#000000" font-family="sans-serif" font-size="7.2917" lengthAdjust="spacing" textLength="35.9375" x="170.3125" y="332.8868">NameParts</text><text fill="#000000" font-family="sans-serif" font-size="7.2917" lengthAdjust="spacing" textLength="66.6667" x="170.3125" y="342.0583">IsOwnCompanyData</text><text fill="#000000" font-family="sans-serif" font-size="7.2917" lengthAdjust="spacing" textLength="33.3333" x="170.3125" y="351.2299">CreatedAt</text><text fill="#000000" font-family="sans-serif" font-size="7.2917" lengthAdjust="spacing" textLength="30.2083" x="170.3125" y="360.4014">UpdateAt</text></g><!--MD5=[6d077f04452652d23c4147471ca74c6a]
class LegalEntityState--><g id="elem_LegalEntityState"><rect codeLine="24" fill="#F1F1F1" height="39.1764" id="LegalEntityState" rx="1.3021" ry="1.3021" style="stroke:#181818;stroke-width:0.2604166666666667;" width="70.3125" x="83.0729" y="110.6771"/><ellipse cx="90.8854" cy="119.0104" fill="#ADD1B2" rx="5.7292" ry="5.7292" style="stroke:#181818;stroke-width:0.5208333333333334;"/><path d="M92.3258,116.862 Q92.4072,116.748 92.5049,116.6911 Q92.6025,116.6341 92.7165,116.6341 Q92.9118,116.6341 93.0339,116.7725 Q93.1559,116.9027 93.1559,117.2201 L93.1559,117.9769 Q93.1559,118.2943 93.0339,118.4326 Q92.9118,118.571 92.7165,118.571 Q92.5374,118.571 92.4316,118.4652 Q92.3258,118.3675 92.2689,118.099 Q92.2445,117.9118 92.1468,117.8141 Q91.9759,117.6188 91.6585,117.5049 Q91.3411,117.391 91.0156,117.391 Q90.6169,117.391 90.2832,117.5618 Q89.9577,117.7327 89.6973,118.1234 Q89.445,118.514 89.445,119.0511 L89.445,119.6208 Q89.445,120.2637 89.9089,120.695 Q90.3727,121.1182 91.2028,121.1182 Q91.6911,121.1182 92.0329,120.988 Q92.2363,120.9066 92.4561,120.6787 Q92.5944,120.5404 92.6676,120.4997 Q92.749,120.459 92.8548,120.459 Q93.0257,120.459 93.1559,120.5973 Q93.2943,120.7275 93.2943,120.9066 Q93.2943,121.0856 93.1152,121.2972 Q92.8548,121.5983 92.4398,121.7692 Q91.8783,122.0052 91.2028,122.0052 Q90.4134,122.0052 89.7868,121.6797 Q89.2741,121.4193 88.916,120.8659 Q88.5579,120.3044 88.5579,119.637 L88.5579,119.0348 Q88.5579,118.3431 88.8753,117.749 Q89.2008,117.1468 89.7705,116.8294 Q90.3402,116.5039 90.9831,116.5039 Q91.3656,116.5039 91.6992,116.5934 Q92.041,116.6748 92.3258,116.862 Z " fill="#000000"/><text fill="#000000" font-family="sans-serif" font-size="7.2917" lengthAdjust="spacing" textLength="53.6458" x="98.1771" y="121.994">LegalEntityState</text><line style="stroke:#181818;stroke-width:0.2604166666666667;" x1="83.5938" x2="152.8646" y1="127.3438" y2="127.3438"/><text fill="#000000" font-family="sans-serif" font-size="7.2917" lengthAdjust="spacing" textLength="33.3333" x="86.1979" y="136.9965">ValidFrom</text><text fill="#000000" font-family="sans-serif" font-size="7.2917" lengthAdjust="spacing" textLength="25" x="86.1979" y="146.168">ValidTo</text></g><!--MD5=[b8356a631b38637eadd8875cba2d8515]
class LegalEntityStateType--><g id="elem_LegalEntityStateType"><rect codeLine="29" fill="#F1F1F1" height="39.1764" id="LegalEntityStateType" rx="1.3021" ry="1.3021" style="stroke:#181818;stroke-width:0.2604166666666667;" width="86.9792" x="70.5729" y="21.875"/><ellipse cx="78.3854" cy="30.2083" fill="#EB937F" rx="5.7292" ry="5.7292" style="stroke:#181818;stroke-width:0.5208333333333334;"/><path d="M77.7913,30.6234 L77.7913,31.9255 L80.0456,31.9255 L80.0456,31.4453 Q80.0456,31.1279 80.1676,30.9896 Q80.2979,30.8512 80.4932,30.8512 Q80.6885,30.8512 80.8105,30.9896 Q80.9326,31.1279 80.9326,31.4453 L80.9326,32.8125 L76.766,32.8125 Q76.4404,32.8125 76.3021,32.6904 Q76.1719,32.5684 76.1719,32.3649 Q76.1719,32.1696 76.3102,32.0475 Q76.4486,31.9255 76.766,31.9255 L76.9043,31.9255 L76.9043,28.4587 L76.766,28.4587 Q76.4404,28.4587 76.3021,28.3366 Q76.1719,28.2145 76.1719,28.0111 Q76.1719,27.8158 76.3021,27.6937 Q76.4404,27.5716 76.766,27.5716 L80.7373,27.5716 L80.7373,28.9225 Q80.7373,29.2399 80.6152,29.3783 Q80.5013,29.5085 80.2979,29.5085 Q80.1025,29.5085 79.9805,29.3783 Q79.8584,29.2399 79.8584,28.9225 L79.8584,28.4587 L77.7913,28.4587 L77.7913,29.7363 L78.5645,29.7363 Q78.5645,29.3945 78.6296,29.2969 Q78.7679,29.0853 79.012,29.0853 Q79.2074,29.0853 79.3294,29.2236 Q79.4515,29.3538 79.4515,29.6712 L79.4515,30.6966 Q79.4515,30.9814 79.3864,31.0791 Q79.248,31.2826 79.012,31.2826 Q78.7679,31.2826 78.6296,31.071 Q78.5645,30.9733 78.5645,30.6234 L77.7913,30.6234 Z " fill="#000000"/><text fill="#000000" font-family="sans-serif" font-size="7.2917" lengthAdjust="spacing" textLength="70.3125" x="85.6771" y="33.1919">LegalEntityStateType</text><line style="stroke:#181818;stroke-width:0.2604166666666667;" x1="71.0938" x2="157.0313" y1="38.5417" y2="38.5417"/><text fill="#000000" font-family="sans-serif" font-size="7.2917" lengthAdjust="spacing" textLength="19.7917" x="73.6979" y="48.1944">Active</text><text fill="#000000" font-family="sans-serif" font-size="7.2917" lengthAdjust="spacing" textLength="25" x="73.6979" y="57.3659">Inactive</text></g><!--MD5=[75c22f343465c5272d27e0c06b7e15dd]
class SiteState--><g id="elem_SiteState"><rect codeLine="34" fill="#F1F1F1" height="39.1764" id="SiteState" rx="1.3021" ry="1.3021" style="stroke:#181818;stroke-width:0.2604166666666667;" width="46.3542" x="171.6146" y="110.6771"/><ellipse cx="179.4271" cy="119.0104" fill="#ADD1B2" rx="5.7292" ry="5.7292" style="stroke:#181818;stroke-width:0.5208333333333334;"/><path d="M180.8675,116.862 Q180.9489,116.748 181.0465,116.6911 Q181.1442,116.6341 181.2581,116.6341 Q181.4535,116.6341 181.5755,116.7725 Q181.6976,116.9027 181.6976,117.2201 L181.6976,117.9769 Q181.6976,118.2943 181.5755,118.4326 Q181.4535,118.571 181.2581,118.571 Q181.0791,118.571 180.9733,118.4652 Q180.8675,118.3675 180.8105,118.099 Q180.7861,117.9118 180.6885,117.8141 Q180.5176,117.6188 180.2002,117.5049 Q179.8828,117.391 179.5573,117.391 Q179.1585,117.391 178.8249,117.5618 Q178.4993,117.7327 178.2389,118.1234 Q177.9867,118.514 177.9867,119.0511 L177.9867,119.6208 Q177.9867,120.2637 178.4505,120.695 Q178.9144,121.1182 179.7445,121.1182 Q180.2327,121.1182 180.5745,120.988 Q180.778,120.9066 180.9977,120.6787 Q181.1361,120.5404 181.2093,120.4997 Q181.2907,120.459 181.3965,120.459 Q181.5674,120.459 181.6976,120.5973 Q181.8359,120.7275 181.8359,120.9066 Q181.8359,121.0856 181.6569,121.2972 Q181.3965,121.5983 180.9814,121.7692 Q180.4199,122.0052 179.7445,122.0052 Q178.9551,122.0052 178.3285,121.6797 Q177.8158,121.4193 177.4577,120.8659 Q177.0996,120.3044 177.0996,119.637 L177.0996,119.0348 Q177.0996,118.3431 177.417,117.749 Q177.7425,117.1468 178.3122,116.8294 Q178.8818,116.5039 179.5247,116.5039 Q179.9072,116.5039 180.2409,116.5934 Q180.5827,116.6748 180.8675,116.862 Z " fill="#000000"/><text fill="#000000" font-family="sans-serif" font-size="7.2917" lengthAdjust="spacing" textLength="29.6875" x="186.7188" y="121.994">SiteState</text><line style="stroke:#181818;stroke-width:0.2604166666666667;" x1="172.1354" x2="217.4479" y1="127.3438" y2="127.3438"/><text fill="#000000" font-family="sans-serif" font-size="7.2917" lengthAdjust="spacing" textLength="33.3333" x="174.7396" y="136.9965">ValidFrom</text><text fill="#000000" font-family="sans-serif" font-size="7.2917" lengthAdjust="spacing" textLength="25" x="174.7396" y="146.168">ValidTo</text></g><!--MD5=[58194a743a2ecea1a26c5385d2acb123]
class SiteStateType--><g id="elem_SiteStateType"><rect codeLine="39" fill="#F1F1F1" height="39.1764" id="SiteStateType" rx="1.3021" ry="1.3021" style="stroke:#181818;stroke-width:0.2604166666666667;" width="63.0208" x="175.7813" y="21.875"/><ellipse cx="183.5938" cy="30.2083" fill="#EB937F" rx="5.7292" ry="5.7292" style="stroke:#181818;stroke-width:0.5208333333333334;"/><path d="M182.9997,30.6234 L182.9997,31.9255 L185.2539,31.9255 L185.2539,31.4453 Q185.2539,31.1279 185.376,30.9896 Q185.5062,30.8512 185.7015,30.8512 Q185.8968,30.8512 186.0189,30.9896 Q186.141,31.1279 186.141,31.4453 L186.141,32.8125 L181.9743,32.8125 Q181.6488,32.8125 181.5104,32.6904 Q181.3802,32.5684 181.3802,32.3649 Q181.3802,32.1696 181.5186,32.0475 Q181.6569,31.9255 181.9743,31.9255 L182.1126,31.9255 L182.1126,28.4587 L181.9743,28.4587 Q181.6488,28.4587 181.5104,28.3366 Q181.3802,28.2145 181.3802,28.0111 Q181.3802,27.8158 181.5104,27.6937 Q181.6488,27.5716 181.9743,27.5716 L185.9456,27.5716 L185.9456,28.9225 Q185.9456,29.2399 185.8236,29.3783 Q185.7096,29.5085 185.5062,29.5085 Q185.3109,29.5085 185.1888,29.3783 Q185.0667,29.2399 185.0667,28.9225 L185.0667,28.4587 L182.9997,28.4587 L182.9997,29.7363 L183.7728,29.7363 Q183.7728,29.3945 183.8379,29.2969 Q183.9762,29.0853 184.2204,29.0853 Q184.4157,29.0853 184.5378,29.2236 Q184.6598,29.3538 184.6598,29.6712 L184.6598,30.6966 Q184.6598,30.9814 184.5947,31.0791 Q184.4564,31.2826 184.2204,31.2826 Q183.9762,31.2826 183.8379,31.071 Q183.7728,30.9733 183.7728,30.6234 L182.9997,30.6234 Z " fill="#000000"/><text fill="#000000" font-family="sans-serif" font-size="7.2917" lengthAdjust="spacing" textLength="46.3542" x="190.8854" y="33.1919">SiteStateType</text><line style="stroke:#181818;stroke-width:0.2604166666666667;" x1="176.3021" x2="238.2813" y1="38.5417" y2="38.5417"/><text fill="#000000" font-family="sans-serif" font-size="7.2917" lengthAdjust="spacing" textLength="19.7917" x="178.9063" y="48.1944">Active</text><text fill="#000000" font-family="sans-serif" font-size="7.2917" lengthAdjust="spacing" textLength="25" x="178.9063" y="57.3659">Inactive</text></g><!--MD5=[6e5bf77e788b463c8c60562d723dadd5]
class AddressState--><g id="elem_AddressState"><rect codeLine="44" fill="#F1F1F1" height="39.1764" id="AddressState" rx="1.3021" ry="1.3021" style="stroke:#181818;stroke-width:0.2604166666666667;" width="60.9375" x="395.0521" y="110.6771"/><ellipse cx="402.8646" cy="119.0104" fill="#ADD1B2" rx="5.7292" ry="5.7292" style="stroke:#181818;stroke-width:0.5208333333333334;"/><path d="M404.305,116.862 Q404.3864,116.748 404.484,116.6911 Q404.5817,116.6341 404.6956,116.6341 Q404.891,116.6341 405.013,116.7725 Q405.1351,116.9027 405.1351,117.2201 L405.1351,117.9769 Q405.1351,118.2943 405.013,118.4326 Q404.891,118.571 404.6956,118.571 Q404.5166,118.571 404.4108,118.4652 Q404.305,118.3675 404.248,118.099 Q404.2236,117.9118 404.126,117.8141 Q403.9551,117.6188 403.6377,117.5049 Q403.3203,117.391 402.9948,117.391 Q402.596,117.391 402.2624,117.5618 Q401.9368,117.7327 401.6764,118.1234 Q401.4242,118.514 401.4242,119.0511 L401.4242,119.6208 Q401.4242,120.2637 401.888,120.695 Q402.3519,121.1182 403.182,121.1182 Q403.6702,121.1182 404.012,120.988 Q404.2155,120.9066 404.4352,120.6787 Q404.5736,120.5404 404.6468,120.4997 Q404.7282,120.459 404.834,120.459 Q405.0049,120.459 405.1351,120.5973 Q405.2734,120.7275 405.2734,120.9066 Q405.2734,121.0856 405.0944,121.2972 Q404.834,121.5983 404.4189,121.7692 Q403.8574,122.0052 403.182,122.0052 Q402.3926,122.0052 401.766,121.6797 Q401.2533,121.4193 400.8952,120.8659 Q400.5371,120.3044 400.5371,119.637 L400.5371,119.0348 Q400.5371,118.3431 400.8545,117.749 Q401.18,117.1468 401.7497,116.8294 Q402.3193,116.5039 402.9622,116.5039 Q403.3447,116.5039 403.6784,116.5934 Q404.0202,116.6748 404.305,116.862 Z " fill="#000000"/><text fill="#000000" font-family="sans-serif" font-size="7.2917" lengthAdjust="spacing" textLength="44.2708" x="410.1563" y="121.994">AddressState</text><line style="stroke:#181818;stroke-width:0.2604166666666667;" x1="395.5729" x2="455.4688" y1="127.3438" y2="127.3438"/><text fill="#000000" font-family="sans-serif" font-size="7.2917" lengthAdjust="spacing" textLength="33.3333" x="398.1771" y="136.9965">ValidFrom</text><text fill="#000000" font-family="sans-serif" font-size="7.2917" lengthAdjust="spacing" textLength="25" x="398.1771" y="146.168">ValidTo</text></g><!--MD5=[14bd710310d98215db03ed74cdae1e01]
class AddressStateType--><g id="elem_AddressStateType"><rect codeLine="49" fill="#F1F1F1" height="39.1764" id="AddressStateType" rx="1.3021" ry="1.3021" style="stroke:#181818;stroke-width:0.2604166666666667;" width="77.6042" x="386.7188" y="21.875"/><ellipse cx="394.5313" cy="30.2083" fill="#EB937F" rx="5.7292" ry="5.7292" style="stroke:#181818;stroke-width:0.5208333333333334;"/><path d="M393.9372,30.6234 L393.9372,31.9255 L396.1914,31.9255 L396.1914,31.4453 Q396.1914,31.1279 396.3135,30.9896 Q396.4437,30.8512 396.639,30.8512 Q396.8343,30.8512 396.9564,30.9896 Q397.0785,31.1279 397.0785,31.4453 L397.0785,32.8125 L392.9118,32.8125 Q392.5863,32.8125 392.4479,32.6904 Q392.3177,32.5684 392.3177,32.3649 Q392.3177,32.1696 392.4561,32.0475 Q392.5944,31.9255 392.9118,31.9255 L393.0501,31.9255 L393.0501,28.4587 L392.9118,28.4587 Q392.5863,28.4587 392.4479,28.3366 Q392.3177,28.2145 392.3177,28.0111 Q392.3177,27.8158 392.4479,27.6937 Q392.5863,27.5716 392.9118,27.5716 L396.8831,27.5716 L396.8831,28.9225 Q396.8831,29.2399 396.7611,29.3783 Q396.6471,29.5085 396.4437,29.5085 Q396.2484,29.5085 396.1263,29.3783 Q396.0042,29.2399 396.0042,28.9225 L396.0042,28.4587 L393.9372,28.4587 L393.9372,29.7363 L394.7103,29.7363 Q394.7103,29.3945 394.7754,29.2969 Q394.9137,29.0853 395.1579,29.0853 Q395.3532,29.0853 395.4753,29.2236 Q395.5973,29.3538 395.5973,29.6712 L395.5973,30.6966 Q395.5973,30.9814 395.5322,31.0791 Q395.3939,31.2826 395.1579,31.2826 Q394.9137,31.2826 394.7754,31.071 Q394.7103,30.9733 394.7103,30.6234 L393.9372,30.6234 Z " fill="#000000"/><text fill="#000000" font-family="sans-serif" font-size="7.2917" lengthAdjust="spacing" textLength="60.9375" x="401.8229" y="33.1919">AddressStateType</text><line style="stroke:#181818;stroke-width:0.2604166666666667;" x1="387.2396" x2="463.8021" y1="38.5417" y2="38.5417"/><text fill="#000000" font-family="sans-serif" font-size="7.2917" lengthAdjust="spacing" textLength="19.7917" x="389.8438" y="48.1944">Active</text><text fill="#000000" font-family="sans-serif" font-size="7.2917" lengthAdjust="spacing" textLength="25" x="389.8438" y="57.3659">Inactive</text></g><!--MD5=[c1e42dbb14b391b5e375056528b465aa]
class BusinessPartnerIdentifier--><g id="elem_BusinessPartnerIdentifier"><rect codeLine="54" fill="#F1F1F1" height="39.1764" id="BusinessPartnerIdentifier" rx="1.3021" ry="1.3021" style="stroke:#181818;stroke-width:0.2604166666666667;" width="98.9583" x="67.1875" y="454.9479"/><ellipse cx="75" cy="463.2813" fill="#ADD1B2" rx="5.7292" ry="5.7292" style="stroke:#181818;stroke-width:0.5208333333333334;"/><path d="M76.4404,461.1328 Q76.5218,461.0189 76.6195,460.9619 Q76.7171,460.9049 76.8311,460.9049 Q77.0264,460.9049 77.1484,461.0433 Q77.2705,461.1735 77.2705,461.4909 L77.2705,462.2477 Q77.2705,462.5651 77.1484,462.7035 Q77.0264,462.8418 76.8311,462.8418 Q76.652,462.8418 76.5462,462.736 Q76.4404,462.6383 76.3835,462.3698 Q76.359,462.1826 76.2614,462.085 Q76.0905,461.8896 75.7731,461.7757 Q75.4557,461.6618 75.1302,461.6618 Q74.7314,461.6618 74.3978,461.8327 Q74.0723,462.0036 73.8118,462.3942 Q73.5596,462.7848 73.5596,463.3219 L73.5596,463.8916 Q73.5596,464.5345 74.0234,464.9658 Q74.4873,465.389 75.3174,465.389 Q75.8057,465.389 76.1475,465.2588 Q76.3509,465.1774 76.5706,464.9495 Q76.709,464.8112 76.7822,464.7705 Q76.8636,464.7298 76.9694,464.7298 Q77.1403,464.7298 77.2705,464.8682 Q77.4089,464.9984 77.4089,465.1774 Q77.4089,465.3564 77.2298,465.568 Q76.9694,465.8691 76.5544,466.04 Q75.9928,466.276 75.3174,466.276 Q74.528,466.276 73.9014,465.9505 Q73.3887,465.6901 73.0306,465.1367 Q72.6725,464.5752 72.6725,463.9079 L72.6725,463.3057 Q72.6725,462.6139 72.9899,462.0199 Q73.3154,461.4176 73.8851,461.1003 Q74.4548,460.7747 75.0977,460.7747 Q75.4801,460.7747 75.8138,460.8643 Q76.1556,460.9456 76.4404,461.1328 Z " fill="#000000"/><text fill="#000000" font-family="sans-serif" font-size="7.2917" lengthAdjust="spacing" textLength="82.2917" x="82.2917" y="466.2649">BusinessPartnerIdentifier</text><line style="stroke:#181818;stroke-width:0.2604166666666667;" x1="67.7083" x2="165.625" y1="471.6146" y2="471.6146"/><text fill="#000000" font-family="sans-serif" font-size="7.2917" lengthAdjust="spacing" textLength="18.75" x="70.3125" y="481.2673">Value</text><text fill="#000000" font-family="sans-serif" font-size="7.2917" lengthAdjust="spacing" textLength="39.5833" x="70.3125" y="490.4388">IssuingBody</text></g><!--MD5=[a6da717249a907f03f0e92554f6403c2]
class IdentifierType--><g id="elem_IdentifierType"><rect codeLine="72" fill="#F1F1F1" height="48.348" id="IdentifierType" rx="1.3021" ry="1.3021" style="stroke:#181818;stroke-width:0.2604166666666667;" width="61.4583" x="85.9375" y="571.0938"/><ellipse cx="93.75" cy="579.4271" fill="#ADD1B2" rx="5.7292" ry="5.7292" style="stroke:#181818;stroke-width:0.5208333333333334;"/><path d="M93.1559,579.8421 L93.1559,581.1442 L95.4102,581.1442 L95.4102,580.6641 Q95.4102,580.3467 95.5322,580.2083 Q95.6624,580.07 95.8577,580.07 Q96.0531,580.07 96.1751,580.2083 Q96.2972,580.3467 96.2972,580.6641 L96.2972,582.0313 L92.1305,582.0313 Q91.805,582.0313 91.6667,581.9092 Q91.5365,581.7871 91.5365,581.5837 Q91.5365,581.3883 91.6748,581.2663 Q91.8132,581.1442 92.1305,581.1442 L92.2689,581.1442 L92.2689,577.6774 L92.1305,577.6774 Q91.805,577.6774 91.6667,577.5553 Q91.5365,577.4333 91.5365,577.2298 Q91.5365,577.0345 91.6667,576.9124 Q91.805,576.7904 92.1305,576.7904 L96.1019,576.7904 L96.1019,578.1413 Q96.1019,578.4587 95.9798,578.597 Q95.8659,578.7272 95.6624,578.7272 Q95.4671,578.7272 95.3451,578.597 Q95.223,578.4587 95.223,578.1413 L95.223,577.6774 L93.1559,577.6774 L93.1559,578.9551 L93.929,578.9551 Q93.929,578.6133 93.9941,578.5156 Q94.1325,578.304 94.3766,578.304 Q94.5719,578.304 94.694,578.4424 Q94.8161,578.5726 94.8161,578.89 L94.8161,579.9154 Q94.8161,580.2002 94.751,580.2979 Q94.6126,580.5013 94.3766,580.5013 Q94.1325,580.5013 93.9941,580.2897 Q93.929,580.1921 93.929,579.8421 L93.1559,579.8421 Z " fill="#000000"/><text fill="#000000" font-family="sans-serif" font-size="7.2917" lengthAdjust="spacing" textLength="44.7917" x="101.0417" y="582.4107">IdentifierType</text><line style="stroke:#181818;stroke-width:0.2604166666666667;" x1="86.4583" x2="146.875" y1="587.7604" y2="587.7604"/><text fill="#000000" font-family="sans-serif" font-size="7.2917" lengthAdjust="spacing" textLength="44.2708" x="89.0625" y="597.4131">TechnicalKey</text><text fill="#000000" font-family="sans-serif" font-size="7.2917" lengthAdjust="spacing" textLength="18.75" x="89.0625" y="606.5847">Name</text><text fill="#000000" font-family="sans-serif" font-size="7.2917" lengthAdjust="spacing" textLength="6.25" x="89.0625" y="615.7562">...</text></g><!--MD5=[a3638c1e5b65d287ecad7f06f5c0f212]
class Role--><g id="elem_Role"><rect codeLine="78" fill="#F1F1F1" height="39.1764" id="Role" rx="1.3021" ry="1.3021" style="stroke:#181818;stroke-width:0.2604166666666667;" width="38.0208" x="184.6354" y="454.9479"/><ellipse cx="195.2604" cy="463.2813" fill="#EB937F" rx="5.7292" ry="5.7292" style="stroke:#181818;stroke-width:0.5208333333333334;"/><path d="M194.6663,463.6963 L194.6663,464.9984 L196.9206,464.9984 L196.9206,464.5182 Q196.9206,464.2008 197.0426,464.0625 Q197.1729,463.9242 197.3682,463.9242 Q197.5635,463.9242 197.6855,464.0625 Q197.8076,464.2008 197.8076,464.5182 L197.8076,465.8854 L193.641,465.8854 Q193.3154,465.8854 193.1771,465.7633 Q193.0469,465.6413 193.0469,465.4378 Q193.0469,465.2425 193.1852,465.1204 Q193.3236,464.9984 193.641,464.9984 L193.7793,464.9984 L193.7793,461.5316 L193.641,461.5316 Q193.3154,461.5316 193.1771,461.4095 Q193.0469,461.2874 193.0469,461.084 Q193.0469,460.8887 193.1771,460.7666 Q193.3154,460.6445 193.641,460.6445 L197.6123,460.6445 L197.6123,461.9954 Q197.6123,462.3128 197.4902,462.4512 Q197.3763,462.5814 197.1729,462.5814 Q196.9775,462.5814 196.8555,462.4512 Q196.7334,462.3128 196.7334,461.9954 L196.7334,461.5316 L194.6663,461.5316 L194.6663,462.8092 L195.4395,462.8092 Q195.4395,462.4674 195.5046,462.3698 Q195.6429,462.1582 195.887,462.1582 Q196.0824,462.1582 196.2044,462.2965 Q196.3265,462.4268 196.3265,462.7441 L196.3265,463.7695 Q196.3265,464.0544 196.2614,464.152 Q196.123,464.3555 195.887,464.3555 Q195.6429,464.3555 195.5046,464.1439 Q195.4395,464.0462 195.4395,463.6963 L194.6663,463.6963 Z " fill="#000000"/><text fill="#000000" font-family="sans-serif" font-size="7.2917" lengthAdjust="spacing" textLength="15.1042" x="203.1771" y="466.2649">Role</text><line style="stroke:#181818;stroke-width:0.2604166666666667;" x1="185.1563" x2="222.1354" y1="471.6146" y2="471.6146"/><text fill="#000000" font-family="sans-serif" font-size="7.2917" lengthAdjust="spacing" textLength="27.0833" x="187.7604" y="481.2673">Supplier</text><text fill="#000000" font-family="sans-serif" font-size="7.2917" lengthAdjust="spacing" textLength="31.7708" x="187.7604" y="490.4388">Customer</text></g><!--MD5=[abbfa58912a05551ee5352e8a846a71c]
class LegalForm--><g id="elem_LegalForm"><rect codeLine="83" fill="#F1F1F1" height="39.1764" id="LegalForm" rx="1.3021" ry="1.3021" style="stroke:#181818;stroke-width:0.2604166666666667;" width="52.0833" x="84.375" y="311.1979"/><ellipse cx="92.1875" cy="319.5313" fill="#ADD1B2" rx="5.7292" ry="5.7292" style="stroke:#181818;stroke-width:0.5208333333333334;"/><path d="M91.5934,319.9463 L91.5934,321.2484 L93.8477,321.2484 L93.8477,320.7682 Q93.8477,320.4508 93.9697,320.3125 Q94.0999,320.1742 94.2952,320.1742 Q94.4906,320.1742 94.6126,320.3125 Q94.7347,320.4508 94.7347,320.7682 L94.7347,322.1354 L90.568,322.1354 Q90.2425,322.1354 90.1042,322.0133 Q89.974,321.8913 89.974,321.6878 Q89.974,321.4925 90.1123,321.3704 Q90.2507,321.2484 90.568,321.2484 L90.7064,321.2484 L90.7064,317.7816 L90.568,317.7816 Q90.2425,317.7816 90.1042,317.6595 Q89.974,317.5374 89.974,317.334 Q89.974,317.1387 90.1042,317.0166 Q90.2425,316.8945 90.568,316.8945 L94.5394,316.8945 L94.5394,318.2454 Q94.5394,318.5628 94.4173,318.7012 Q94.3034,318.8314 94.0999,318.8314 Q93.9046,318.8314 93.7826,318.7012 Q93.6605,318.5628 93.6605,318.2454 L93.6605,317.7816 L91.5934,317.7816 L91.5934,319.0592 L92.3665,319.0592 Q92.3665,318.7174 92.4316,318.6198 Q92.57,318.4082 92.8141,318.4082 Q93.0094,318.4082 93.1315,318.5465 Q93.2536,318.6768 93.2536,318.9941 L93.2536,320.0195 Q93.2536,320.3044 93.1885,320.402 Q93.0501,320.6055 92.8141,320.6055 Q92.57,320.6055 92.4316,320.3939 Q92.3665,320.2962 92.3665,319.9463 L91.5934,319.9463 Z " fill="#000000"/><text fill="#000000" font-family="sans-serif" font-size="7.2917" lengthAdjust="spacing" textLength="35.4167" x="99.4792" y="322.5149">LegalForm</text><line style="stroke:#181818;stroke-width:0.2604166666666667;" x1="84.8958" x2="135.9375" y1="327.8646" y2="327.8646"/><text fill="#000000" font-family="sans-serif" font-size="7.2917" lengthAdjust="spacing" textLength="44.2708" x="87.5" y="337.5173">TechnicalKey</text><text fill="#000000" font-family="sans-serif" font-size="7.2917" lengthAdjust="spacing" textLength="6.25" x="87.5" y="346.6888">...</text></g><!--MD5=[e50f24c143873ab5352ff9f9e3841676]
class LegalEntity--><g id="elem_LegalEntity"><rect codeLine="88" fill="#F1F1F1" height="39.1764" id="LegalEntity" rx="1.3021" ry="1.3021" style="stroke:#181818;stroke-width:0.2604166666666667;" width="53.125" x="11.4583" y="110.6771"/><ellipse cx="19.2708" cy="119.0104" fill="#ADD1B2" rx="5.7292" ry="5.7292" style="stroke:#181818;stroke-width:0.5208333333333334;"/><path d="M18.6768,119.4255 L18.6768,120.7275 L20.931,120.7275 L20.931,120.2474 Q20.931,119.93 21.0531,119.7917 Q21.1833,119.6533 21.3786,119.6533 Q21.5739,119.6533 21.696,119.7917 Q21.818,119.93 21.818,120.2474 L21.818,121.6146 L17.6514,121.6146 Q17.3258,121.6146 17.1875,121.4925 Q17.0573,121.3704 17.0573,121.167 Q17.0573,120.9717 17.1956,120.8496 Q17.334,120.7275 17.6514,120.7275 L17.7897,120.7275 L17.7897,117.2607 L17.6514,117.2607 Q17.3258,117.2607 17.1875,117.1387 Q17.0573,117.0166 17.0573,116.8132 Q17.0573,116.6178 17.1875,116.4958 Q17.3258,116.3737 17.6514,116.3737 L21.6227,116.3737 L21.6227,117.7246 Q21.6227,118.042 21.5007,118.1803 Q21.3867,118.3105 21.1833,118.3105 Q20.988,118.3105 20.8659,118.1803 Q20.7438,118.042 20.7438,117.7246 L20.7438,117.2607 L18.6768,117.2607 L18.6768,118.5384 L19.4499,118.5384 Q19.4499,118.1966 19.515,118.099 Q19.6533,117.8874 19.8975,117.8874 Q20.0928,117.8874 20.2148,118.0257 Q20.3369,118.1559 20.3369,118.4733 L20.3369,119.4987 Q20.3369,119.7835 20.2718,119.8812 Q20.1335,120.0846 19.8975,120.0846 Q19.6533,120.0846 19.515,119.873 Q19.4499,119.7754 19.4499,119.4255 L18.6768,119.4255 Z " fill="#000000"/><text fill="#000000" font-family="sans-serif" font-size="7.2917" lengthAdjust="spacing" textLength="36.4583" x="26.5625" y="121.994">LegalEntity</text><line style="stroke:#181818;stroke-width:0.2604166666666667;" x1="11.9792" x2="64.0625" y1="127.3438" y2="127.3438"/><text fill="#000000" font-family="sans-serif" font-size="7.2917" lengthAdjust="spacing" textLength="18.2292" x="14.5833" y="136.9965">BPNL</text><text fill="#000000" font-family="sans-serif" font-size="7.2917" lengthAdjust="spacing" textLength="6.25" x="14.5833" y="146.168">...</text></g><!--MD5=[60959432eeb40b03f26d480adcd3f632]
class LegalEntityRepresentation--><g id="elem_LegalEntityRepresentation"><rect codeLine="93" fill="#F1F1F1" height="39.1764" id="LegalEntityRepresentation" rx="1.3021" ry="1.3021" style="stroke:#181818;stroke-width:0.2604166666666667;" width="103.6458" x="58.5938" y="199.4792"/><ellipse cx="66.4063" cy="207.8125" fill="#ADD1B2" rx="5.7292" ry="5.7292" style="stroke:#181818;stroke-width:0.5208333333333334;"/><path d="M67.8467,205.6641 Q67.9281,205.5501 68.0257,205.4932 Q68.1234,205.4362 68.2373,205.4362 Q68.4326,205.4362 68.5547,205.5745 Q68.6768,205.7048 68.6768,206.0221 L68.6768,206.779 Q68.6768,207.0964 68.5547,207.2347 Q68.4326,207.373 68.2373,207.373 Q68.0583,207.373 67.9525,207.2673 Q67.8467,207.1696 67.7897,206.901 Q67.7653,206.7139 67.6676,206.6162 Q67.4967,206.4209 67.1794,206.307 Q66.862,206.193 66.5365,206.193 Q66.1377,206.193 65.804,206.3639 Q65.4785,206.5348 65.2181,206.9255 Q64.9658,207.3161 64.9658,207.8532 L64.9658,208.4229 Q64.9658,209.0658 65.4297,209.4971 Q65.8936,209.9202 66.7236,209.9202 Q67.2119,209.9202 67.5537,209.79 Q67.7572,209.7087 67.9769,209.4808 Q68.1152,209.3424 68.1885,209.3018 Q68.2699,209.2611 68.3757,209.2611 Q68.5465,209.2611 68.6768,209.3994 Q68.8151,209.5296 68.8151,209.7087 Q68.8151,209.8877 68.6361,210.0993 Q68.3757,210.4004 67.9606,210.5713 Q67.3991,210.8073 66.7236,210.8073 Q65.9342,210.8073 65.3076,210.4818 Q64.7949,210.2214 64.4368,209.668 Q64.0788,209.1064 64.0788,208.4391 L64.0788,207.8369 Q64.0788,207.1452 64.3962,206.5511 Q64.7217,205.9489 65.2913,205.6315 Q65.861,205.306 66.5039,205.306 Q66.8864,205.306 67.2201,205.3955 Q67.5618,205.4769 67.8467,205.6641 Z " fill="#000000"/><text fill="#000000" font-family="sans-serif" font-size="7.2917" lengthAdjust="spacing" textLength="86.9792" x="73.6979" y="210.7961">LegalEntityRepresentation</text><line style="stroke:#181818;stroke-width:0.2604166666666667;" x1="59.1146" x2="161.7188" y1="216.1458" y2="216.1458"/><text fill="#000000" font-family="sans-serif" font-size="7.2917" lengthAdjust="spacing" textLength="36.9792" x="61.7188" y="225.7985">LegalName</text><text fill="#000000" font-family="sans-serif" font-size="7.2917" lengthAdjust="spacing" textLength="36.4583" x="61.7188" y="234.9701">ShortName</text></g><!--MD5=[7eeb4b838a05227218a56e467b2beb72]
class Site--><g id="elem_Site"><rect codeLine="98" fill="#F1F1F1" height="39.1764" id="Site" rx="1.3021" ry="1.3021" style="stroke:#181818;stroke-width:0.2604166666666667;" width="29.1667" x="236.4583" y="110.6771"/><ellipse cx="244.2708" cy="119.0104" fill="#ADD1B2" rx="5.7292" ry="5.7292" style="stroke:#181818;stroke-width:0.5208333333333334;"/><path d="M243.6768,119.4255 L243.6768,120.7275 L245.931,120.7275 L245.931,120.2474 Q245.931,119.93 246.0531,119.7917 Q246.1833,119.6533 246.3786,119.6533 Q246.5739,119.6533 246.696,119.7917 Q246.818,119.93 246.818,120.2474 L246.818,121.6146 L242.6514,121.6146 Q242.3258,121.6146 242.1875,121.4925 Q242.0573,121.3704 242.0573,121.167 Q242.0573,120.9717 242.1956,120.8496 Q242.334,120.7275 242.6514,120.7275 L242.7897,120.7275 L242.7897,117.2607 L242.6514,117.2607 Q242.3258,117.2607 242.1875,117.1387 Q242.0573,117.0166 242.0573,116.8132 Q242.0573,116.6178 242.1875,116.4958 Q242.3258,116.3737 242.6514,116.3737 L246.6227,116.3737 L246.6227,117.7246 Q246.6227,118.042 246.5007,118.1803 Q246.3867,118.3105 246.1833,118.3105 Q245.988,118.3105 245.8659,118.1803 Q245.7438,118.042 245.7438,117.7246 L245.7438,117.2607 L243.6768,117.2607 L243.6768,118.5384 L244.4499,118.5384 Q244.4499,118.1966 244.515,118.099 Q244.6533,117.8874 244.8975,117.8874 Q245.0928,117.8874 245.2148,118.0257 Q245.3369,118.1559 245.3369,118.4733 L245.3369,119.4987 Q245.3369,119.7835 245.2718,119.8812 Q245.1335,120.0846 244.8975,120.0846 Q244.6533,120.0846 244.515,119.873 Q244.4499,119.7754 244.4499,119.4255 L243.6768,119.4255 Z " fill="#000000"/><text fill="#000000" font-family="sans-serif" font-size="7.2917" lengthAdjust="spacing" textLength="12.5" x="251.5625" y="121.994">Site</text><line style="stroke:#181818;stroke-width:0.2604166666666667;" x1="236.9792" x2="265.1042" y1="127.3438" y2="127.3438"/><text fill="#000000" font-family="sans-serif" font-size="7.2917" lengthAdjust="spacing" textLength="18.75" x="239.5833" y="136.9965">BPNS</text><text fill="#000000" font-family="sans-serif" font-size="7.2917" lengthAdjust="spacing" textLength="6.25" x="239.5833" y="146.168">...</text></g><!--MD5=[30d7c77555d0a0b001af0fc6b0214cdc]
class SiteRepresentation--><g id="elem_SiteRepresentation"><rect codeLine="103" fill="#F1F1F1" height="30.0049" id="SiteRepresentation" rx="1.3021" ry="1.3021" style="stroke:#181818;stroke-width:0.2604166666666667;" width="79.6875" x="180.4688" y="203.9063"/><ellipse cx="188.2813" cy="212.2396" fill="#ADD1B2" rx="5.7292" ry="5.7292" style="stroke:#181818;stroke-width:0.5208333333333334;"/><path d="M189.7217,210.0911 Q189.8031,209.9772 189.9007,209.9202 Q189.9984,209.8633 190.1123,209.8633 Q190.3076,209.8633 190.4297,210.0016 Q190.5518,210.1318 190.5518,210.4492 L190.5518,211.2061 Q190.5518,211.5234 190.4297,211.6618 Q190.3076,211.8001 190.1123,211.8001 Q189.9333,211.8001 189.8275,211.6943 Q189.7217,211.5967 189.6647,211.3281 Q189.6403,211.141 189.5426,211.0433 Q189.3717,210.848 189.0544,210.734 Q188.737,210.6201 188.4115,210.6201 Q188.0127,210.6201 187.679,210.791 Q187.3535,210.9619 187.0931,211.3525 Q186.8408,211.7432 186.8408,212.2803 L186.8408,212.8499 Q186.8408,213.4928 187.3047,213.9242 Q187.7686,214.3473 188.5986,214.3473 Q189.0869,214.3473 189.4287,214.2171 Q189.6322,214.1357 189.8519,213.9079 Q189.9902,213.7695 190.0635,213.7288 Q190.1449,213.6882 190.2507,213.6882 Q190.4215,213.6882 190.5518,213.8265 Q190.6901,213.9567 190.6901,214.1357 Q190.6901,214.3148 190.5111,214.5264 Q190.2507,214.8275 189.8356,214.9984 Q189.2741,215.2344 188.5986,215.2344 Q187.8092,215.2344 187.1826,214.9089 Q186.6699,214.6484 186.3118,214.0951 Q185.9538,213.5335 185.9538,212.8662 L185.9538,212.264 Q185.9538,211.5723 186.2712,210.9782 Q186.5967,210.376 187.1663,210.0586 Q187.736,209.7331 188.3789,209.7331 Q188.7614,209.7331 189.0951,209.8226 Q189.4368,209.904 189.7217,210.0911 Z " fill="#000000"/><text fill="#000000" font-family="sans-serif" font-size="7.2917" lengthAdjust="spacing" textLength="63.0208" x="195.5729" y="215.2232">SiteRepresentation</text><line style="stroke:#181818;stroke-width:0.2604166666666667;" x1="180.9896" x2="259.6354" y1="220.5729" y2="220.5729"/><text fill="#000000" font-family="sans-serif" font-size="7.2917" lengthAdjust="spacing" textLength="18.75" x="183.5938" y="230.2256">Name</text></g><!--MD5=[0f39e4cb6f03951afbf6d14bd2505654]
class Address--><g id="elem_Address"><rect codeLine="107" fill="#F1F1F1" height="39.1764" id="Address" rx="1.3021" ry="1.3021" style="stroke:#181818;stroke-width:0.2604166666666667;" width="43.75" x="474.4792" y="110.6771"/><ellipse cx="482.2917" cy="119.0104" fill="#ADD1B2" rx="5.7292" ry="5.7292" style="stroke:#181818;stroke-width:0.5208333333333334;"/><path d="M481.6976,119.4255 L481.6976,120.7275 L483.9518,120.7275 L483.9518,120.2474 Q483.9518,119.93 484.0739,119.7917 Q484.2041,119.6533 484.3994,119.6533 Q484.5947,119.6533 484.7168,119.7917 Q484.8389,119.93 484.8389,120.2474 L484.8389,121.6146 L480.6722,121.6146 Q480.3467,121.6146 480.2083,121.4925 Q480.0781,121.3704 480.0781,121.167 Q480.0781,120.9717 480.2165,120.8496 Q480.3548,120.7275 480.6722,120.7275 L480.8105,120.7275 L480.8105,117.2607 L480.6722,117.2607 Q480.3467,117.2607 480.2083,117.1387 Q480.0781,117.0166 480.0781,116.8132 Q480.0781,116.6178 480.2083,116.4958 Q480.3467,116.3737 480.6722,116.3737 L484.6436,116.3737 L484.6436,117.7246 Q484.6436,118.042 484.5215,118.1803 Q484.4076,118.3105 484.2041,118.3105 Q484.0088,118.3105 483.8867,118.1803 Q483.7646,118.042 483.7646,117.7246 L483.7646,117.2607 L481.6976,117.2607 L481.6976,118.5384 L482.4707,118.5384 Q482.4707,118.1966 482.5358,118.099 Q482.6742,117.8874 482.9183,117.8874 Q483.1136,117.8874 483.2357,118.0257 Q483.3577,118.1559 483.3577,118.4733 L483.3577,119.4987 Q483.3577,119.7835 483.2926,119.8812 Q483.1543,120.0846 482.9183,120.0846 Q482.6742,120.0846 482.5358,119.873 Q482.4707,119.7754 482.4707,119.4255 L481.6976,119.4255 Z " fill="#000000"/><text fill="#000000" font-family="sans-serif" font-size="7.2917" lengthAdjust="spacing" textLength="27.0833" x="489.5833" y="121.994">Address</text><line style="stroke:#181818;stroke-width:0.2604166666666667;" x1="475" x2="517.7083" y1="127.3438" y2="127.3438"/><text fill="#000000" font-family="sans-serif" font-size="7.2917" lengthAdjust="spacing" textLength="18.75" x="477.6042" y="136.9965">BPNA</text><text fill="#000000" font-family="sans-serif" font-size="7.2917" lengthAdjust="spacing" textLength="6.25" x="477.6042" y="146.168">...</text></g><!--MD5=[d7a0d755ee062fa9c02ff989a22ca56c]
class AddressRepresentation--><g id="elem_AddressRepresentation"><rect codeLine="126" fill="#F1F1F1" height="30.0049" id="AddressRepresentation" rx="1.3021" ry="1.3021" style="stroke:#181818;stroke-width:0.2604166666666667;" width="94.2708" x="326.8229" y="203.9063"/><ellipse cx="334.6354" cy="212.2396" fill="#ADD1B2" rx="5.7292" ry="5.7292" style="stroke:#181818;stroke-width:0.5208333333333334;"/><path d="M336.0758,210.0911 Q336.1572,209.9772 336.2549,209.9202 Q336.3525,209.8633 336.4665,209.8633 Q336.6618,209.8633 336.7839,210.0016 Q336.9059,210.1318 336.9059,210.4492 L336.9059,211.2061 Q336.9059,211.5234 336.7839,211.6618 Q336.6618,211.8001 336.4665,211.8001 Q336.2874,211.8001 336.1816,211.6943 Q336.0758,211.5967 336.0189,211.3281 Q335.9945,211.141 335.8968,211.0433 Q335.7259,210.848 335.4085,210.734 Q335.0911,210.6201 334.7656,210.6201 Q334.3669,210.6201 334.0332,210.791 Q333.7077,210.9619 333.4473,211.3525 Q333.195,211.7432 333.195,212.2803 L333.195,212.8499 Q333.195,213.4928 333.6589,213.9242 Q334.1227,214.3473 334.9528,214.3473 Q335.4411,214.3473 335.7829,214.2171 Q335.9863,214.1357 336.2061,213.9079 Q336.3444,213.7695 336.4176,213.7288 Q336.499,213.6882 336.6048,213.6882 Q336.7757,213.6882 336.9059,213.8265 Q337.0443,213.9567 337.0443,214.1357 Q337.0443,214.3148 336.8652,214.5264 Q336.6048,214.8275 336.1898,214.9984 Q335.6283,215.2344 334.9528,215.2344 Q334.1634,215.2344 333.5368,214.9089 Q333.0241,214.6484 332.666,214.0951 Q332.3079,213.5335 332.3079,212.8662 L332.3079,212.264 Q332.3079,211.5723 332.6253,210.9782 Q332.9508,210.376 333.5205,210.0586 Q334.0902,209.7331 334.7331,209.7331 Q335.1156,209.7331 335.4492,209.8226 Q335.791,209.904 336.0758,210.0911 Z " fill="#000000"/><text fill="#000000" font-family="sans-serif" font-size="7.2917" lengthAdjust="spacing" textLength="77.6042" x="341.9271" y="215.2232">AddressRepresentation</text><line style="stroke:#181818;stroke-width:0.2604166666666667;" x1="327.3438" x2="420.5729" y1="220.5729" y2="220.5729"/><text fill="#000000" font-family="sans-serif" font-size="7.2917" lengthAdjust="spacing" textLength="18.75" x="329.9479" y="230.2256">Name</text></g><!--MD5=[129f55246b52b7552808bad1f6f33109]
class AddressType--><g id="elem_AddressType"><rect codeLine="128" fill="#F1F1F1" height="57.5195" id="AddressType" rx="1.3021" ry="1.3021" style="stroke:#181818;stroke-width:0.2604166666666667;" width="92.7083" x="283.8542" y="101.5625"/><ellipse cx="306.1979" cy="109.8958" fill="#EB937F" rx="5.7292" ry="5.7292" style="stroke:#181818;stroke-width:0.5208333333333334;"/><path d="M305.6038,110.3109 L305.6038,111.613 L307.8581,111.613 L307.8581,111.1328 Q307.8581,110.8154 307.9801,110.6771 Q308.1104,110.5387 308.3057,110.5387 Q308.501,110.5387 308.623,110.6771 Q308.7451,110.8154 308.7451,111.1328 L308.7451,112.5 L304.5785,112.5 Q304.2529,112.5 304.1146,112.3779 Q303.9844,112.2559 303.9844,112.0524 Q303.9844,111.8571 304.1227,111.735 Q304.2611,111.613 304.5785,111.613 L304.7168,111.613 L304.7168,108.1462 L304.5785,108.1462 Q304.2529,108.1462 304.1146,108.0241 Q303.9844,107.902 303.9844,107.6986 Q303.9844,107.5033 304.1146,107.3812 Q304.2529,107.2591 304.5785,107.2591 L308.5498,107.2591 L308.5498,108.61 Q308.5498,108.9274 308.4277,109.0658 Q308.3138,109.196 308.1104,109.196 Q307.915,109.196 307.793,109.0658 Q307.6709,108.9274 307.6709,108.61 L307.6709,108.1462 L305.6038,108.1462 L305.6038,109.4238 L306.377,109.4238 Q306.377,109.082 306.4421,108.9844 Q306.5804,108.7728 306.8245,108.7728 Q307.0199,108.7728 307.1419,108.9111 Q307.264,109.0413 307.264,109.3587 L307.264,110.3841 Q307.264,110.6689 307.1989,110.7666 Q307.0605,110.9701 306.8245,110.9701 Q306.5804,110.9701 306.4421,110.7585 Q306.377,110.6608 306.377,110.3109 L305.6038,110.3109 Z " fill="#000000"/><text fill="#000000" font-family="sans-serif" font-size="7.2917" lengthAdjust="spacing" textLength="43.75" x="316.7188" y="112.8794">AddressType</text><line style="stroke:#181818;stroke-width:0.2604166666666667;" x1="284.375" x2="376.0417" y1="118.2292" y2="118.2292"/><text fill="#000000" font-family="sans-serif" font-size="7.2917" lengthAdjust="spacing" textLength="45.3125" x="286.9792" y="127.8819">LegalAddress</text><text fill="#000000" font-family="sans-serif" font-size="7.2917" lengthAdjust="spacing" textLength="55.2083" x="286.9792" y="137.0534">SiteMainAddress</text><text fill="#000000" font-family="sans-serif" font-size="7.2917" lengthAdjust="spacing" textLength="86.4583" x="286.9792" y="146.225">LegalAndSiteMainAddress</text><text fill="#000000" font-family="sans-serif" font-size="7.2917" lengthAdjust="spacing" textLength="59.375" x="286.9792" y="155.3965">AdditionalAddress</text></g><!--MD5=[1782d6790123778b6f73e96190c2576c]
class AlternativePostalAddress--><g id="elem_AlternativePostalAddress"><rect codeLine="135" fill="#F1F1F1" height="39.1764" id="AlternativePostalAddress" rx="1.3021" ry="1.3021" style="stroke:#181818;stroke-width:0.2604166666666667;" width="98.9583" x="373.9583" y="311.1979"/><ellipse cx="381.7708" cy="319.5313" fill="#ADD1B2" rx="5.7292" ry="5.7292" style="stroke:#181818;stroke-width:0.5208333333333334;"/><path d="M383.2113,317.3828 Q383.2926,317.2689 383.3903,317.2119 Q383.488,317.1549 383.6019,317.1549 Q383.7972,317.1549 383.9193,317.2933 Q384.0413,317.4235 384.0413,317.7409 L384.0413,318.4977 Q384.0413,318.8151 383.9193,318.9535 Q383.7972,319.0918 383.6019,319.0918 Q383.4229,319.0918 383.3171,318.986 Q383.2113,318.8883 383.1543,318.6198 Q383.1299,318.4326 383.0322,318.335 Q382.8613,318.1396 382.5439,318.0257 Q382.2266,317.9118 381.901,317.9118 Q381.5023,317.9118 381.1686,318.0827 Q380.8431,318.2536 380.5827,318.6442 Q380.3304,319.0348 380.3304,319.5719 L380.3304,320.1416 Q380.3304,320.7845 380.7943,321.2158 Q381.2581,321.639 382.0882,321.639 Q382.5765,321.639 382.9183,321.5088 Q383.1217,321.4274 383.3415,321.1995 Q383.4798,321.0612 383.5531,321.0205 Q383.6344,320.9798 383.7402,320.9798 Q383.9111,320.9798 384.0413,321.1182 Q384.1797,321.2484 384.1797,321.4274 Q384.1797,321.6064 384.0007,321.818 Q383.7402,322.1191 383.3252,322.29 Q382.7637,322.526 382.0882,322.526 Q381.2988,322.526 380.6722,322.2005 Q380.1595,321.9401 379.8014,321.3867 Q379.4434,320.8252 379.4434,320.1579 L379.4434,319.5557 Q379.4434,318.8639 379.7607,318.2699 Q380.0863,317.6676 380.6559,317.3503 Q381.2256,317.0247 381.8685,317.0247 Q382.251,317.0247 382.5846,317.1143 Q382.9264,317.1956 383.2113,317.3828 Z " fill="#000000"/><text fill="#000000" font-family="sans-serif" font-size="7.2917" lengthAdjust="spacing" textLength="82.2917" x="389.0625" y="322.5149">AlternativePostalAddress</text><line style="stroke:#181818;stroke-width:0.2604166666666667;" x1="374.4792" x2="472.3958" y1="327.8646" y2="327.8646"/><text fill="#000000" font-family="sans-serif" font-size="7.2917" lengthAdjust="spacing" textLength="78.6458" x="377.0833" y="337.5173">DeliveryServiceQualifier</text><text fill="#000000" font-family="sans-serif" font-size="7.2917" lengthAdjust="spacing" textLength="76.5625" x="377.0833" y="346.6888">DeliveryServiceNumber</text></g><!--MD5=[abee6bb4516065aa714de77c0cc5fe79]
class DeliveryServiceType--><g id="elem_DeliveryServiceType"><rect codeLine="140" fill="#F1F1F1" height="48.348" id="DeliveryServiceType" rx="1.3021" ry="1.3021" style="stroke:#181818;stroke-width:0.2604166666666667;" width="84.375" x="433.8542" y="450.2604"/><ellipse cx="441.6667" cy="458.5938" fill="#EB937F" rx="5.7292" ry="5.7292" style="stroke:#181818;stroke-width:0.5208333333333334;"/><path d="M441.0726,459.0088 L441.0726,460.3109 L443.3268,460.3109 L443.3268,459.8307 Q443.3268,459.5133 443.4489,459.375 Q443.5791,459.2367 443.7744,459.2367 Q443.9697,459.2367 444.0918,459.375 Q444.2139,459.5133 444.2139,459.8307 L444.2139,461.1979 L440.0472,461.1979 Q439.7217,461.1979 439.5833,461.0758 Q439.4531,460.9538 439.4531,460.7503 Q439.4531,460.555 439.5915,460.4329 Q439.7298,460.3109 440.0472,460.3109 L440.1855,460.3109 L440.1855,456.8441 L440.0472,456.8441 Q439.7217,456.8441 439.5833,456.722 Q439.4531,456.5999 439.4531,456.3965 Q439.4531,456.2012 439.5833,456.0791 Q439.7217,455.957 440.0472,455.957 L444.0186,455.957 L444.0186,457.3079 Q444.0186,457.6253 443.8965,457.7637 Q443.7826,457.8939 443.5791,457.8939 Q443.3838,457.8939 443.2617,457.7637 Q443.1396,457.6253 443.1396,457.3079 L443.1396,456.8441 L441.0726,456.8441 L441.0726,458.1217 L441.8457,458.1217 Q441.8457,457.7799 441.9108,457.6823 Q442.0492,457.4707 442.2933,457.4707 Q442.4886,457.4707 442.6107,457.609 Q442.7327,457.7393 442.7327,458.0566 L442.7327,459.082 Q442.7327,459.3669 442.6676,459.4645 Q442.5293,459.668 442.2933,459.668 Q442.0492,459.668 441.9108,459.4564 Q441.8457,459.3587 441.8457,459.0088 L441.0726,459.0088 Z " fill="#000000"/><text fill="#000000" font-family="sans-serif" font-size="7.2917" lengthAdjust="spacing" textLength="67.7083" x="448.9583" y="461.5774">DeliveryServiceType</text><line style="stroke:#181818;stroke-width:0.2604166666666667;" x1="434.375" x2="517.7083" y1="466.9271" y2="466.9271"/><text fill="#000000" font-family="sans-serif" font-size="7.2917" lengthAdjust="spacing" textLength="22.3958" x="436.9792" y="476.5798">POBox</text><text fill="#000000" font-family="sans-serif" font-size="7.2917" lengthAdjust="spacing" textLength="35.9375" x="436.9792" y="485.7513">PrivateBag</text><text fill="#000000" font-family="sans-serif" font-size="7.2917" lengthAdjust="spacing" textLength="41.1458" x="436.9792" y="494.9229">BoitePostale</text></g><!--MD5=[55c87c318189d1bf5c6ab52cec671fad]
class PhysicalPostalAddress--><g id="elem_PhysicalPostalAddress"><rect codeLine="146" fill="#F1F1F1" height="103.3773" id="PhysicalPostalAddress" rx="1.3021" ry="1.3021" style="stroke:#181818;stroke-width:0.2604166666666667;" width="91.1458" x="264.3229" y="279.1667"/><ellipse cx="272.1354" cy="287.5" fill="#ADD1B2" rx="5.7292" ry="5.7292" style="stroke:#181818;stroke-width:0.5208333333333334;"/><path d="M273.5758,285.3516 Q273.6572,285.2376 273.7549,285.1807 Q273.8525,285.1237 273.9665,285.1237 Q274.1618,285.1237 274.2839,285.262 Q274.4059,285.3923 274.4059,285.7096 L274.4059,286.4665 Q274.4059,286.7839 274.2839,286.9222 Q274.1618,287.0605 273.9665,287.0605 Q273.7874,287.0605 273.6816,286.9548 Q273.5758,286.8571 273.5189,286.5885 Q273.4945,286.4014 273.3968,286.3037 Q273.2259,286.1084 272.9085,285.9945 Q272.5911,285.8805 272.2656,285.8805 Q271.8669,285.8805 271.5332,286.0514 Q271.2077,286.2223 270.9473,286.613 Q270.695,287.0036 270.695,287.5407 L270.695,288.1104 Q270.695,288.7533 271.1589,289.1846 Q271.6227,289.6077 272.4528,289.6077 Q272.9411,289.6077 273.2829,289.4775 Q273.4863,289.3962 273.7061,289.1683 Q273.8444,289.0299 273.9176,288.9893 Q273.999,288.9486 274.1048,288.9486 Q274.2757,288.9486 274.4059,289.0869 Q274.5443,289.2171 274.5443,289.3962 Q274.5443,289.5752 274.3652,289.7868 Q274.1048,290.0879 273.6898,290.2588 Q273.1283,290.4948 272.4528,290.4948 Q271.6634,290.4948 271.0368,290.1693 Q270.5241,289.9089 270.166,289.3555 Q269.8079,288.7939 269.8079,288.1266 L269.8079,287.5244 Q269.8079,286.8327 270.1253,286.2386 Q270.4508,285.6364 271.0205,285.319 Q271.5902,284.9935 272.2331,284.9935 Q272.6156,284.9935 272.9492,285.083 Q273.291,285.1644 273.5758,285.3516 Z " fill="#000000"/><text fill="#000000" font-family="sans-serif" font-size="7.2917" lengthAdjust="spacing" textLength="74.4792" x="279.4271" y="290.4836">PhysicalPostalAddress</text><line style="stroke:#181818;stroke-width:0.2604166666666667;" x1="264.8438" x2="354.9479" y1="295.8333" y2="295.8333"/><text fill="#000000" font-family="sans-serif" font-size="7.2917" lengthAdjust="spacing" textLength="83.3333" x="267.4479" y="305.486">AdministrativeAreaLevel2</text><text fill="#000000" font-family="sans-serif" font-size="7.2917" lengthAdjust="spacing" textLength="83.3333" x="267.4479" y="314.6576">AdministrativeAreaLevel3</text><text fill="#000000" font-family="sans-serif" font-size="7.2917" lengthAdjust="spacing" textLength="22.3958" x="267.4479" y="323.8291">District</text><text fill="#000000" font-family="sans-serif" font-size="7.2917" lengthAdjust="spacing" textLength="69.2708" x="267.4479" y="333.0007">CompanyPostalCode</text><text fill="#000000" font-family="sans-serif" font-size="7.2917" lengthAdjust="spacing" textLength="66.1458" x="267.4479" y="342.1722">TaxJurisdictionCode</text><text fill="#000000" font-family="sans-serif" font-size="7.2917" lengthAdjust="spacing" textLength="46.3542" x="267.4479" y="351.3438">IndustrialZone</text><text fill="#000000" font-family="sans-serif" font-size="7.2917" lengthAdjust="spacing" textLength="26.0417" x="267.4479" y="360.5153">Building</text><text fill="#000000" font-family="sans-serif" font-size="7.2917" lengthAdjust="spacing" textLength="17.1875" x="267.4479" y="369.6869">Floor</text><text fill="#000000" font-family="sans-serif" font-size="7.2917" lengthAdjust="spacing" textLength="16.1458" x="267.4479" y="378.8584">Door</text></g><!--MD5=[c0cfaefa9bff8b109aa2ead27fcfac60]
class PostalAddress--><g id="elem_PostalAddress"><rect codeLine="158" fill="#F1F1F1" height="39.1764" id="PostalAddress" rx="1.3021" ry="1.3021" style="stroke:#181818;stroke-width:0.2604166666666667;" width="64.0625" x="351.3021" y="454.9479"/><ellipse cx="359.1146" cy="463.2813" fill="#A9DCDF" rx="5.7292" ry="5.7292" style="stroke:#181818;stroke-width:0.5208333333333334;"/><path d="M360.2539,464.2008 L358.0973,464.2008 L357.8776,464.738 L358.0973,464.738 Q358.4147,464.738 358.5531,464.86 Q358.6914,464.9821 358.6914,465.1855 Q358.6914,465.3809 358.5531,465.5029 Q358.4147,465.625 358.0973,465.625 L356.901,465.625 Q356.5837,465.625 356.4535,465.5029 Q356.3151,465.3809 356.3151,465.1774 Q356.3151,464.9821 356.4616,464.86 Q356.5999,464.7298 356.9255,464.738 L358.3171,461.2712 L357.7393,461.2712 Q357.4219,461.2712 357.2835,461.1491 Q357.1452,461.027 357.1452,460.8236 Q357.1452,460.6283 357.2835,460.5062 Q357.4219,460.3841 357.7393,460.3841 L359.6517,460.3841 L361.4176,464.738 Q361.7269,464.738 361.8245,464.8112 Q362.028,464.9495 362.028,465.1855 Q362.028,465.3809 361.8896,465.5029 Q361.7594,465.625 361.4421,465.625 L360.2458,465.625 Q359.9284,465.625 359.79,465.5029 Q359.6517,465.3809 359.6517,465.1774 Q359.6517,464.9821 359.79,464.86 Q359.9284,464.738 360.2458,464.738 L360.4655,464.738 L360.2539,464.2008 Z M359.8796,463.3138 L359.1715,461.556 L358.4554,463.3138 L359.8796,463.3138 Z " fill="#000000"/><text fill="#000000" font-family="sans-serif" font-size="7.2917" font-style="italic" lengthAdjust="spacing" textLength="47.3958" x="366.4063" y="466.2649">PostalAddress</text><line style="stroke:#181818;stroke-width:0.2604166666666667;" x1="351.8229" x2="414.8438" y1="471.6146" y2="471.6146"/><text fill="#000000" font-family="sans-serif" font-size="7.2917" lengthAdjust="spacing" textLength="38.0208" x="354.4271" y="481.2673">PostalCode</text><text fill="#000000" font-family="sans-serif" font-size="7.2917" lengthAdjust="spacing" textLength="12.5" x="354.4271" y="490.4388">City</text></g><!--MD5=[deb4e1f6eb1e3c1256fdb830f96abfbb]
class Country--><g id="elem_Country"><rect codeLine="163" fill="#F1F1F1" height="57.5195" id="Country" rx="1.3021" ry="1.3021" style="stroke:#181818;stroke-width:0.2604166666666667;" width="42.7083" x="454.1667" y="566.6667"/><ellipse cx="461.9792" cy="575" fill="#EB937F" rx="5.7292" ry="5.7292" style="stroke:#181818;stroke-width:0.5208333333333334;"/><path d="M461.3851,575.415 L461.3851,576.7171 L463.6393,576.7171 L463.6393,576.237 Q463.6393,575.9196 463.7614,575.7813 Q463.8916,575.6429 464.0869,575.6429 Q464.2822,575.6429 464.4043,575.7813 Q464.5264,575.9196 464.5264,576.237 L464.5264,577.6042 L460.3597,577.6042 Q460.0342,577.6042 459.8958,577.4821 Q459.7656,577.36 459.7656,577.1566 Q459.7656,576.9613 459.904,576.8392 Q460.0423,576.7171 460.3597,576.7171 L460.498,576.7171 L460.498,573.2503 L460.3597,573.2503 Q460.0342,573.2503 459.8958,573.1283 Q459.7656,573.0062 459.7656,572.8027 Q459.7656,572.6074 459.8958,572.4854 Q460.0342,572.3633 460.3597,572.3633 L464.3311,572.3633 L464.3311,573.7142 Q464.3311,574.0316 464.209,574.1699 Q464.0951,574.3001 463.8916,574.3001 Q463.6963,574.3001 463.5742,574.1699 Q463.4521,574.0316 463.4521,573.7142 L463.4521,573.2503 L461.3851,573.2503 L461.3851,574.528 L462.1582,574.528 Q462.1582,574.1862 462.2233,574.0885 Q462.3617,573.877 462.6058,573.877 Q462.8011,573.877 462.9232,574.0153 Q463.0452,574.1455 463.0452,574.4629 L463.0452,575.4883 Q463.0452,575.7731 462.9801,575.8708 Q462.8418,576.0742 462.6058,576.0742 Q462.3617,576.0742 462.2233,575.8626 Q462.1582,575.765 462.1582,575.415 L461.3851,575.415 Z " fill="#000000"/><text fill="#000000" font-family="sans-serif" font-size="7.2917" lengthAdjust="spacing" textLength="26.0417" x="469.2708" y="577.9836">Country</text><line style="stroke:#181818;stroke-width:0.2604166666666667;" x1="454.6875" x2="496.3542" y1="583.3333" y2="583.3333"/><text fill="#000000" font-family="sans-serif" font-size="7.2917" lengthAdjust="spacing" textLength="9.8958" x="457.2917" y="592.986">DE</text><text fill="#000000" font-family="sans-serif" font-size="7.2917" lengthAdjust="spacing" textLength="9.8958" x="457.2917" y="602.1576">FR</text><text fill="#000000" font-family="sans-serif" font-size="7.2917" lengthAdjust="spacing" textLength="9.375" x="457.2917" y="611.3291">US</text><text fill="#000000" font-family="sans-serif" font-size="7.2917" lengthAdjust="spacing" textLength="6.25" x="457.2917" y="620.5007">...</text></g><!--MD5=[2f1ca98bd76a1741b9fc77072f6445d7]
class AdministrativeAreaLevel1--><g id="elem_AdministrativeAreaLevel1"><rect codeLine="170" fill="#F1F1F1" height="48.348" id="AdministrativeAreaLevel1" rx="1.3021" ry="1.3021" style="stroke:#181818;stroke-width:0.2604166666666667;" width="100" x="219.7917" y="571.0938"/><ellipse cx="227.6042" cy="579.4271" fill="#ADD1B2" rx="5.7292" ry="5.7292" style="stroke:#181818;stroke-width:0.5208333333333334;"/><path d="M227.0101,579.8421 L227.0101,581.1442 L229.2643,581.1442 L229.2643,580.6641 Q229.2643,580.3467 229.3864,580.2083 Q229.5166,580.07 229.7119,580.07 Q229.9072,580.07 230.0293,580.2083 Q230.1514,580.3467 230.1514,580.6641 L230.1514,582.0313 L225.9847,582.0313 Q225.6592,582.0313 225.5208,581.9092 Q225.3906,581.7871 225.3906,581.5837 Q225.3906,581.3883 225.529,581.2663 Q225.6673,581.1442 225.9847,581.1442 L226.123,581.1442 L226.123,577.6774 L225.9847,577.6774 Q225.6592,577.6774 225.5208,577.5553 Q225.3906,577.4333 225.3906,577.2298 Q225.3906,577.0345 225.5208,576.9124 Q225.6592,576.7904 225.9847,576.7904 L229.9561,576.7904 L229.9561,578.1413 Q229.9561,578.4587 229.834,578.597 Q229.7201,578.7272 229.5166,578.7272 Q229.3213,578.7272 229.1992,578.597 Q229.0771,578.4587 229.0771,578.1413 L229.0771,577.6774 L227.0101,577.6774 L227.0101,578.9551 L227.7832,578.9551 Q227.7832,578.6133 227.8483,578.5156 Q227.9867,578.304 228.2308,578.304 Q228.4261,578.304 228.5482,578.4424 Q228.6702,578.5726 228.6702,578.89 L228.6702,579.9154 Q228.6702,580.2002 228.6051,580.2979 Q228.4668,580.5013 228.2308,580.5013 Q227.9867,580.5013 227.8483,580.2897 Q227.7832,580.1921 227.7832,579.8421 L227.0101,579.8421 Z " fill="#000000"/><text fill="#000000" font-family="sans-serif" font-size="7.2917" lengthAdjust="spacing" textLength="83.3333" x="234.8958" y="582.4107">AdministrativeAreaLevel1</text><line style="stroke:#181818;stroke-width:0.2604166666666667;" x1="220.3125" x2="319.2708" y1="587.7604" y2="587.7604"/><text fill="#000000" font-family="sans-serif" font-size="7.2917" lengthAdjust="spacing" textLength="17.7083" x="222.9167" y="597.4131">Code</text><text fill="#000000" font-family="sans-serif" font-size="7.2917" lengthAdjust="spacing" textLength="18.75" x="222.9167" y="606.5847">Name</text><text fill="#000000" font-family="sans-serif" font-size="7.2917" lengthAdjust="spacing" textLength="6.25" x="222.9167" y="615.7562">...</text></g><!--MD5=[d10056941595379d4f24742ce5b84606]
class GeographicCoordinates--><g id="elem_GeographicCoordinates"><rect codeLine="176" fill="#F1F1F1" height="48.348" id="GeographicCoordinates" rx="1.3021" ry="1.3021" style="stroke:#181818;stroke-width:0.2604166666666667;" width="95.3125" x="338.2813" y="571.0938"/><ellipse cx="346.0938" cy="579.4271" fill="#ADD1B2" rx="5.7292" ry="5.7292" style="stroke:#181818;stroke-width:0.5208333333333334;"/><path d="M347.5342,577.2786 Q347.6156,577.1647 347.7132,577.1077 Q347.8109,577.0508 347.9248,577.0508 Q348.1201,577.0508 348.2422,577.1891 Q348.3643,577.3193 348.3643,577.6367 L348.3643,578.3936 Q348.3643,578.7109 348.2422,578.8493 Q348.1201,578.9876 347.9248,578.9876 Q347.7458,578.9876 347.64,578.8818 Q347.5342,578.7842 347.4772,578.5156 Q347.4528,578.3285 347.3551,578.2308 Q347.1842,578.0355 346.8669,577.9215 Q346.5495,577.8076 346.224,577.8076 Q345.8252,577.8076 345.4915,577.9785 Q345.166,578.1494 344.9056,578.54 Q344.6533,578.9307 344.6533,579.4678 L344.6533,580.0374 Q344.6533,580.6803 345.1172,581.1117 Q345.5811,581.5348 346.4111,581.5348 Q346.8994,581.5348 347.2412,581.4046 Q347.4447,581.3232 347.6644,581.0954 Q347.8027,580.957 347.876,580.9163 Q347.9574,580.8757 348.0632,580.8757 Q348.234,580.8757 348.3643,581.014 Q348.5026,581.1442 348.5026,581.3232 Q348.5026,581.5023 348.3236,581.7139 Q348.0632,582.015 347.6481,582.1859 Q347.0866,582.4219 346.4111,582.4219 Q345.6217,582.4219 344.9951,582.0964 Q344.4824,581.8359 344.1243,581.2826 Q343.7663,580.721 343.7663,580.0537 L343.7663,579.4515 Q343.7663,578.7598 344.0837,578.1657 Q344.4092,577.5635 344.9788,577.2461 Q345.5485,576.9206 346.1914,576.9206 Q346.5739,576.9206 346.9076,577.0101 Q347.2493,577.0915 347.5342,577.2786 Z " fill="#000000"/><text fill="#000000" font-family="sans-serif" font-size="7.2917" lengthAdjust="spacing" textLength="78.6458" x="353.3854" y="582.4107">GeographicCoordinates</text><line style="stroke:#181818;stroke-width:0.2604166666666667;" x1="338.8021" x2="433.0729" y1="587.7604" y2="587.7604"/><text fill="#000000" font-family="sans-serif" font-size="7.2917" lengthAdjust="spacing" textLength="26.5625" x="341.4063" y="597.4131">Latitude</text><text fill="#000000" font-family="sans-serif" font-size="7.2917" lengthAdjust="spacing" textLength="32.8125" x="341.4063" y="606.5847">Longitude</text><text fill="#000000" font-family="sans-serif" font-size="7.2917" lengthAdjust="spacing" textLength="24.4792" x="341.4063" y="615.7562">Altitude</text></g><!--MD5=[e723117c0f41e2c24ef9f63f1be0d05e]
class Street--><g id="elem_Street"><rect codeLine="182" fill="#F1F1F1" height="103.3773" id="Street" rx="1.3021" ry="1.3021" style="stroke:#181818;stroke-width:0.2604166666666667;" width="91.6667" x="241.1458" y="422.9167"/><ellipse cx="274.8698" cy="431.25" fill="#ADD1B2" rx="5.7292" ry="5.7292" style="stroke:#181818;stroke-width:0.5208333333333334;"/><path d="M276.3102,429.1016 Q276.3916,428.9876 276.4893,428.9307 Q276.5869,428.8737 276.7008,428.8737 Q276.8962,428.8737 277.0182,429.012 Q277.1403,429.1423 277.1403,429.4596 L277.1403,430.2165 Q277.1403,430.5339 277.0182,430.6722 Q276.8962,430.8105 276.7008,430.8105 Q276.5218,430.8105 276.416,430.7048 Q276.3102,430.6071 276.2533,430.3385 Q276.2288,430.1514 276.1312,430.0537 Q275.9603,429.8584 275.6429,429.7445 Q275.3255,429.6305 275,429.6305 Q274.6012,429.6305 274.2676,429.8014 Q273.9421,429.9723 273.6816,430.363 Q273.4294,430.7536 273.4294,431.2907 L273.4294,431.8604 Q273.4294,432.5033 273.8932,432.9346 Q274.3571,433.3577 275.1872,433.3577 Q275.6755,433.3577 276.0173,433.2275 Q276.2207,433.1462 276.4404,432.9183 Q276.5788,432.7799 276.652,432.7393 Q276.7334,432.6986 276.8392,432.6986 Q277.0101,432.6986 277.1403,432.8369 Q277.2786,432.9671 277.2786,433.1462 Q277.2786,433.3252 277.0996,433.5368 Q276.8392,433.8379 276.4242,434.0088 Q275.8626,434.2448 275.1872,434.2448 Q274.3978,434.2448 273.7712,433.9193 Q273.2585,433.6589 272.9004,433.1055 Q272.5423,432.5439 272.5423,431.8766 L272.5423,431.2744 Q272.5423,430.5827 272.8597,429.9886 Q273.1852,429.3864 273.7549,429.069 Q274.3245,428.7435 274.9674,428.7435 Q275.3499,428.7435 275.6836,428.833 Q276.0254,428.9144 276.3102,429.1016 Z " fill="#000000"/><text fill="#000000" font-family="sans-serif" font-size="7.2917" lengthAdjust="spacing" textLength="19.7917" x="285.5469" y="434.2336">Street</text><line style="stroke:#181818;stroke-width:0.2604166666666667;" x1="241.6667" x2="332.2917" y1="439.5833" y2="439.5833"/><text fill="#000000" font-family="sans-serif" font-size="7.2917" lengthAdjust="spacing" textLength="36.9792" x="244.2708" y="449.236">NamePrefix</text><text fill="#000000" font-family="sans-serif" font-size="7.2917" lengthAdjust="spacing" textLength="69.2708" x="244.2708" y="458.4076">AdditionalNamePrefix</text><text fill="#000000" font-family="sans-serif" font-size="7.2917" lengthAdjust="spacing" textLength="18.75" x="244.2708" y="467.5791">Name</text><text fill="#000000" font-family="sans-serif" font-size="7.2917" lengthAdjust="spacing" textLength="36.4583" x="244.2708" y="476.7507">NameSuffix</text><text fill="#000000" font-family="sans-serif" font-size="7.2917" lengthAdjust="spacing" textLength="68.75" x="244.2708" y="485.9222">AdditionalNameSuffix</text><text fill="#000000" font-family="sans-serif" font-size="7.2917" lengthAdjust="spacing" textLength="46.3542" x="244.2708" y="495.0938">HouseNumber</text><text fill="#000000" font-family="sans-serif" font-size="7.2917" lengthAdjust="spacing" textLength="85.4167" x="244.2708" y="504.2653">HouseNumberSupplement</text><text fill="#000000" font-family="sans-serif" font-size="7.2917" lengthAdjust="spacing" textLength="31.25" x="244.2708" y="513.4369">Milestone</text><text fill="#000000" font-family="sans-serif" font-size="7.2917" lengthAdjust="spacing" textLength="29.1667" x="244.2708" y="522.6084">Direction</text></g><!--MD5=[ccf7721b9f1d01bc6e7d77b45da5ec50]
reverse link LegalEntityRepresentation to BusinessPartner--><g id="link_LegalEntityRepresentation_BusinessPartner"><path codeLine="221" d="M131.474,240.75 C135.625,245.1146 139.8854,249.7344 143.75,254.1667 C155.7292,267.9167 168.3125,283.6667 178.8385,297.2604 " fill="none" id="LegalEntityRepresentation-backto-BusinessPartner" style="stroke:#181818;stroke-width:0.5208333333333334;"/><polygon fill="#181818" points="129.4531,238.6302,131.1877,243.4576,131.2532,240.5121,134.1987,240.5775,129.4531,238.6302" style="stroke:#181818;stroke-width:0.5208333333333334;"/><text fill="#000000" font-family="sans-serif" font-size="6.7708" lengthAdjust="spacing" textLength="33.8542" x="151.0417" y="261.7162">LegalEntity</text><text fill="#000000" font-family="sans-serif" font-size="6.7708" lengthAdjust="spacing" textLength="3.6458" x="128.8735" y="249.902">1</text><text fill="#000000" font-family="sans-serif" font-size="6.7708" lengthAdjust="spacing" textLength="3.6458" x="172.28" y="291.8481">1</text></g><!--MD5=[725792ce25014f99d388f3e68882f615]
reverse link SiteRepresentation to BusinessPartner--><g id="link_SiteRepresentation_BusinessPartner"><path codeLine="222" d="M217.6927,236.9427 C215.2656,253.0625 211.5885,277.4583 208.6094,297.2552 " fill="none" id="SiteRepresentation-backto-BusinessPartner" style="stroke:#181818;stroke-width:0.5208333333333334;"/><polygon fill="#181818" points="218.099,234.2292,215.3421,238.555,217.7119,236.8044,219.4625,239.1742,218.099,234.2292" style="stroke:#181818;stroke-width:0.5208333333333334;"/><text fill="#000000" font-family="sans-serif" font-size="6.7708" lengthAdjust="spacing" textLength="11.9792" x="215.1042" y="261.7162">Site</text><text fill="#000000" font-family="sans-serif" font-size="6.7708" lengthAdjust="spacing" textLength="11.4583" x="205.0769" y="245.1124">0..1</text><text fill="#000000" font-family="sans-serif" font-size="6.7708" lengthAdjust="spacing" textLength="3.6458" x="205.307" y="291.8423">1</text></g><!--MD5=[c89005727211dfbe4bcbfb4c8435d0ca]
reverse link AddressRepresentation to BusinessPartner--><g id="link_AddressRepresentation_BusinessPartner"><path codeLine="223" d="M324.25,233.4427 C309.4531,238.7396 293.6198,245.6094 280.2083,254.1667 C261.8906,265.8542 244.4531,282.5625 230.8594,297.3438 " fill="none" id="AddressRepresentation-backto-BusinessPartner" style="stroke:#181818;stroke-width:0.5208333333333334;"/><polygon fill="#181818" points="326.8073,232.5417,321.6931,232.1445,324.3528,233.4119,323.0854,236.0716,326.8073,232.5417" style="stroke:#181818;stroke-width:0.5208333333333334;"/><text fill="#000000" font-family="sans-serif" font-size="6.7708" lengthAdjust="spacing" textLength="25" x="280.7292" y="261.7162">Address</text><text fill="#000000" font-family="sans-serif" font-size="6.7708" lengthAdjust="spacing" textLength="3.6458" x="318.9528" y="232.0584">1</text><text fill="#000000" font-family="sans-serif" font-size="6.7708" lengthAdjust="spacing" textLength="3.6458" x="230.1493" y="291.7063">1</text></g><!--MD5=[f324b6a541af186e5264f9532835768a]
reverse link LegalEntity to LegalEntityRepresentation--><g id="link_LegalEntity_LegalEntityRepresentation"><path codeLine="225" d="M55.4583,151.8698 C67.3854,166.3229 83.0573,185.3229 94.6146,199.3333 " fill="none" id="LegalEntity-backto-LegalEntityRepresentation" style="stroke:#181818;stroke-width:0.5208333333333334;"/><polygon fill="#181818" points="53.7292,149.7708,55.097,154.7147,55.3831,151.7824,58.3154,152.0684,53.7292,149.7708" style="stroke:#181818;stroke-width:0.5208333333333334;"/><text fill="#000000" font-family="sans-serif" font-size="6.7708" lengthAdjust="spacing" textLength="17.7083" x="80.7292" y="182.0287">BPNL</text><text fill="#000000" font-family="sans-serif" font-size="6.7708" lengthAdjust="spacing" textLength="3.6458" x="52.5567" y="161.0325">1</text><text fill="#000000" font-family="sans-serif" font-size="6.7708" lengthAdjust="spacing" textLength="11.4583" x="79.321" y="193.7877">0..1</text></g><!--MD5=[b4b56c25330c50ebc88546fe7670b5c3]
reverse link Site to SiteRepresentation--><g id="link_Site_SiteRepresentation"><path codeLine="226" d="M243.4896,152.2969 C237.8802,168.3177 230.375,189.75 225.4479,203.8281 " fill="none" id="Site-backto-SiteRepresentation" style="stroke:#181818;stroke-width:0.5208333333333334;"/><polygon fill="#181818" points="244.375,149.7708,240.8586,153.5055,243.5137,152.2285,244.7908,154.8836,244.375,149.7708" style="stroke:#181818;stroke-width:0.5208333333333334;"/><text fill="#000000" font-family="sans-serif" font-size="6.7708" lengthAdjust="spacing" textLength="18.75" x="235.9375" y="182.0287">BPNS</text><text fill="#000000" font-family="sans-serif" font-size="6.7708" lengthAdjust="spacing" textLength="3.6458" x="239.217" y="161.0325">1</text><text fill="#000000" font-family="sans-serif" font-size="6.7708" lengthAdjust="spacing" textLength="11.4583" x="213.8597" y="198.3332">0..1</text></g><!--MD5=[5896b4594e11bb327717684a9525a818]
reverse link Address to AddressRepresentation--><g id="link_Address_AddressRepresentation"><path codeLine="227" d="M474.0365,151.5521 C471.0885,154.0833 468.0625,156.5729 465.1042,158.8542 C443.4531,175.5208 417.2031,192.375 398.4479,203.8906 " fill="none" id="Address-backto-AddressRepresentation" style="stroke:#181818;stroke-width:0.5208333333333334;"/><polygon fill="#181818" points="476.0625,149.7969,471.1564,151.2946,474.0953,151.5033,473.8867,154.4422,476.0625,149.7969" style="stroke:#181818;stroke-width:0.5208333333333334;"/><text fill="#000000" font-family="sans-serif" font-size="6.7708" lengthAdjust="spacing" textLength="18.75" x="443.75" y="182.0287">BPNA</text><text fill="#000000" font-family="sans-serif" font-size="6.7708" lengthAdjust="spacing" textLength="3.6458" x="468.4775" y="161.0631">1</text><text fill="#000000" font-family="sans-serif" font-size="6.7708" lengthAdjust="spacing" textLength="11.4583" x="391.3279" y="198.1707">0..1</text></g><!--MD5=[7a47063e770fae94cb718ea9fc43ad77]
reverse link AddressType to AddressRepresentation--><g id="link_AddressType_AddressRepresentation"><path codeLine="229" d="M347.3229,165.0573 C354.0313,178.5208 361.3698,193.2396 366.6458,203.8177 " fill="none" id="AddressType-backto-AddressRepresentation" style="stroke:#181818;stroke-width:0.5208333333333334;"/><polygon fill="none" points="344.2917,158.9792,343.8222,162.7055,347.0813,164.5721,347.5508,160.8458,344.2917,158.9792" style="stroke:#181818;stroke-width:0.5208333333333334;"/><text fill="#000000" font-family="sans-serif" font-size="6.7708" lengthAdjust="spacing" textLength="14.5833" x="356.25" y="182.0287">Type</text><text fill="#000000" font-family="sans-serif" font-size="6.7708" lengthAdjust="spacing" textLength="3.6458" x="342.2167" y="170.2251">1</text><text fill="#000000" font-family="sans-serif" font-size="6.7708" lengthAdjust="spacing" textLength="2.6042" x="362.1572" y="198.3205">*</text></g><!--MD5=[12b3c060a4938bfa4b04268733601525]
link AddressRepresentation to AlternativePostalAddress--><g id="link_AddressRepresentation_AlternativePostalAddress"><path codeLine="230" d="M381.1458,234.1302 C384.1354,240.2865 387.6042,247.5469 390.625,254.1667 C398.9531,272.4219 407.9479,293.3646 414.4115,308.6458 " fill="none" id="AddressRepresentation-to-AlternativePostalAddress" style="stroke:#181818;stroke-width:0.5208333333333334;"/><polygon fill="#181818" points="415.4271,311.0521,415.5281,305.9235,414.4165,308.652,411.688,307.5404,415.4271,311.0521" style="stroke:#181818;stroke-width:0.5208333333333334;"/><text fill="#000000" font-family="sans-serif" font-size="6.7708" lengthAdjust="spacing" textLength="75.5208" x="394.7917" y="261.7162">AlternativePostalAddress</text><text fill="#000000" font-family="sans-serif" font-size="6.7708" lengthAdjust="spacing" textLength="3.6458" x="378.6064" y="245.1766">1</text><text fill="#000000" font-family="sans-serif" font-size="6.7708" lengthAdjust="spacing" textLength="11.4583" x="401.5214" y="305.5064">0..1</text></g><!--MD5=[3fce465a2f553ed0741c358e9d51d127]
link AlternativePostalAddress to DeliveryServiceType--><g id="link_AlternativePostalAddress_DeliveryServiceType"><path codeLine="231" d="M430.4792,350.349 C439.2917,374.2552 454.4896,415.4844 464.8906,443.7031 " fill="none" id="AlternativePostalAddress-to-DeliveryServiceType" style="stroke:#181818;stroke-width:0.5208333333333334;"/><polygon fill="none" points="467.2917,450.224,468.1648,446.5711,465.1288,444.3601,464.2556,448.013,467.2917,450.224" style="stroke:#181818;stroke-width:0.5208333333333334;"/><text fill="#000000" font-family="sans-serif" font-size="6.7708" lengthAdjust="spacing" textLength="59.8958" x="451.5625" y="405.4662">DeliveryServiceType</text><text fill="#000000" font-family="sans-serif" font-size="6.7708" lengthAdjust="spacing" textLength="2.6042" x="428.8974" y="361.6208">*</text><text fill="#000000" font-family="sans-serif" font-size="6.7708" lengthAdjust="spacing" textLength="3.6458" x="462.0269" y="444.5881">1</text></g><!--MD5=[59fa016e89b95f881fa8289e72d2b5aa]
link AlternativePostalAddress to PostalAddress--><g id="link_AlternativePostalAddress_PostalAddress"><path codeLine="232" d="M418.0729,350.349 C411.276,374.526 399.5,416.4219 391.5677,444.6563 " fill="none" id="AlternativePostalAddress-to-PostalAddress" style="stroke:#181818;stroke-width:0.5208333333333334;"/><polygon fill="none" points="395.0625,445.7031,388.7344,454.7448,388.0417,443.7292,395.0625,445.7031" style="stroke:#181818;stroke-width:0.5208333333333334;"/></g><!--MD5=[07eed449fcad76ad497f051e5c910f37]
link AddressRepresentation to PhysicalPostalAddress--><g id="link_AddressRepresentation_PhysicalPostalAddress"><path codeLine="234" d="M336.7396,234.1354 C328.2813,239.2135 320.276,245.7969 315.1042,254.1667 C310.9792,260.8385 308.4844,268.5052 307.0885,276.3385 " fill="none" id="AddressRepresentation-to-PhysicalPostalAddress" style="stroke:#181818;stroke-width:0.5208333333333334;"/><polygon fill="#181818" points="306.6563,279,309.4617,274.7056,307.0723,276.4293,305.3486,274.0399,306.6563,279" style="stroke:#181818;stroke-width:0.5208333333333334;"/><text fill="#000000" font-family="sans-serif" font-size="6.7708" lengthAdjust="spacing" textLength="70.3125" x="315.625" y="261.7162">PhysicalPostalAddress</text><text fill="#000000" font-family="sans-serif" font-size="6.7708" lengthAdjust="spacing" textLength="3.6458" x="325.0414" y="245.1829">1</text><text fill="#000000" font-family="sans-serif" font-size="6.7708" lengthAdjust="spacing" textLength="3.6458" x="302.6386" y="273.588">1</text></g><!--MD5=[f94830dfdb1f80035e1439f9296d394d]
link PhysicalPostalAddress to Street--><g id="link_PhysicalPostalAddress_Street"><path codeLine="235" d="M301.6875,382.3698 C299.7188,394.6146 297.6146,407.724 295.6302,420.0885 " fill="none" id="PhysicalPostalAddress-to-Street" style="stroke:#181818;stroke-width:0.5208333333333334;"/><polygon fill="#181818" points="295.2083,422.7188,298.0138,418.4243,295.6244,420.148,293.9007,417.7586,295.2083,422.7188" style="stroke:#181818;stroke-width:0.5208333333333334;"/><text fill="#000000" font-family="sans-serif" font-size="6.7708" lengthAdjust="spacing" textLength="18.2292" x="299.4792" y="405.4662">Street</text><text fill="#000000" font-family="sans-serif" font-size="6.7708" lengthAdjust="spacing" textLength="3.6458" x="297.2736" y="393.6686">1</text><text fill="#000000" font-family="sans-serif" font-size="6.7708" lengthAdjust="spacing" textLength="11.4583" x="283.9336" y="417.3044">0..1</text></g><!--MD5=[f7cef7787dcbc8b46ecd954e66b15ffa]
link PhysicalPostalAddress to PostalAddress--><g id="link_PhysicalPostalAddress_PostalAddress"><path codeLine="236" d="M336.2031,382.3698 C347.1406,403.625 359.4219,427.4948 368.7083,445.5365 " fill="none" id="PhysicalPostalAddress-to-PostalAddress" style="stroke:#181818;stroke-width:0.5208333333333334;"/><polygon fill="none" points="372.0052,443.974,373.526,454.901,365.5208,447.3073,372.0052,443.974" style="stroke:#181818;stroke-width:0.5208333333333334;"/></g><!--MD5=[950b2b12a5f19a61bd12eba8eaec9ba6]
link PostalAddress to Country--><g id="link_PostalAddress_Country"><path codeLine="238" d="M395.9948,494.0938 C403.5417,504.4531 413.8073,516.9583 425,526.0417 C436.7344,535.5677 445.1354,530.3958 455.2083,541.6667 C459.9688,546.9948 463.6615,553.5573 466.5104,560.2292 " fill="none" id="PostalAddress-to-Country" style="stroke:#181818;stroke-width:0.5208333333333334;"/><polygon fill="none" points="468.9896,566.6198,469.8015,562.9528,466.7289,560.793,465.917,564.4599,468.9896,566.6198" style="stroke:#181818;stroke-width:0.5208333333333334;"/><text fill="#000000" font-family="sans-serif" font-size="6.7708" lengthAdjust="spacing" textLength="23.4375" x="461.9792" y="549.2162">Country</text><text fill="#000000" font-family="sans-serif" font-size="6.7708" lengthAdjust="spacing" textLength="2.6042" x="395.414" y="505.3647">*</text><text fill="#000000" font-family="sans-serif" font-size="6.7708" lengthAdjust="spacing" textLength="3.6458" x="464.2734" y="561.1022">1</text></g><!--MD5=[73908cffc2f00ca2856e32856f891363]
link PostalAddress to AdministrativeAreaLevel1--><g id="link_PostalAddress_AdministrativeAreaLevel1"><path codeLine="239" d="M371.6042,494.1042 C364.2656,504.724 353.9792,517.4844 342.1875,526.0417 C326.3542,537.526 315.9896,529.0521 301.0417,541.6667 C293.5729,547.9688 287.4583,556.5365 282.6771,564.9531 " fill="none" id="PostalAddress-to-AdministrativeAreaLevel1" style="stroke:#181818;stroke-width:0.5208333333333334;"/><polygon fill="none" points="279.4323,571.0156,282.7433,569.2427,282.3802,565.5045,279.0692,567.2774,279.4323,571.0156" style="stroke:#181818;stroke-width:0.5208333333333334;"/><text fill="#000000" font-family="sans-serif" font-size="6.7708" lengthAdjust="spacing" textLength="75" x="301.5625" y="549.2162">AdministrativeAreaLevel1</text><text fill="#000000" font-family="sans-serif" font-size="6.7708" lengthAdjust="spacing" textLength="2.6042" x="366.6788" y="505.3769">*</text><text fill="#000000" font-family="sans-serif" font-size="6.7708" lengthAdjust="spacing" textLength="11.4583" x="268.5729" y="565.3734">0..1</text></g><!--MD5=[bca9d6b79aea0d9eff039a55658d1b6d]
link PostalAddress to GeographicCoordinates--><g id="link_PostalAddress_GeographicCoordinates"><path codeLine="240" d="M382.224,494.0729 C381.5,509.4583 380.849,531.651 381.7708,551.0417 C382.0365,556.6615 382.4948,562.6667 383.0156,568.3802 " fill="none" id="PostalAddress-to-GeographicCoordinates" style="stroke:#181818;stroke-width:0.5208333333333334;"/><polygon fill="#181818" points="383.2552,570.9792,384.9006,566.1206,383.0168,568.3859,380.7514,566.5021,383.2552,570.9792" style="stroke:#181818;stroke-width:0.5208333333333334;"/><text fill="#000000" font-family="sans-serif" font-size="6.7708" lengthAdjust="spacing" textLength="70.3125" x="382.2917" y="549.2162">GeographicCoordinates</text><text fill="#000000" font-family="sans-serif" font-size="6.7708" lengthAdjust="spacing" textLength="3.6458" x="378.0558" y="505.3401">1</text><text fill="#000000" font-family="sans-serif" font-size="6.7708" lengthAdjust="spacing" textLength="11.4583" x="370.5614" y="565.5086">0..1</text></g><!--MD5=[e8dad52dbe6940975aff2cddf3c9155a]
link LegalEntityState to LegalEntityRepresentation--><g id="link_LegalEntityState_LegalEntityRepresentation"><path codeLine="251" d="M115.9219,156.6354 C114.9167,167.9635 112.6695,193.1076 112.6695,193.1076 " fill="none" id="LegalEntityState-LegalEntityRepresentation" style="stroke:#181818;stroke-width:0.5208333333333334;"/><polygon fill="#181818" points="112.1198,199.3333,114.4699,196.4037,112.6695,193.1076,110.3194,196.0372,112.1198,199.3333" style="stroke:#181818;stroke-width:0.5208333333333334;"/><polygon fill="#181818" points="116.5365,149.7708,114.0489,154.2569,116.3074,152.3649,118.1994,154.6234,116.5365,149.7708" style="stroke:#181818;stroke-width:0.5208333333333334;"/><line style="stroke:#181818;stroke-width:0.5208333333333334;" x1="116.3074" x2="115.9323" y1="152.3649" y2="156.5156"/><text fill="#000000" font-family="sans-serif" font-size="6.7708" lengthAdjust="spacing" textLength="19.7917" x="114.5833" y="182.0287">States</text><text fill="#000000" font-family="sans-serif" font-size="6.7708" lengthAdjust="spacing" textLength="2.6042" x="113.3988" y="161.0325">*</text><text fill="#000000" font-family="sans-serif" font-size="6.7708" lengthAdjust="spacing" textLength="3.6458" x="108.4526" y="193.7877">1</text></g><!--MD5=[cf6bbed88d21c35f5fbbbdda84aa4363]
reverse link LegalEntityStateType to LegalEntityState--><g id="link_LegalEntityStateType_LegalEntityState"><path codeLine="252" d="M115.2917,67.8333 C115.9427,81.5156 116.724,98.0156 117.3177,110.5313 " fill="none" id="LegalEntityStateType-backto-LegalEntityState" style="stroke:#181818;stroke-width:0.5208333333333334;"/><polygon fill="none" points="114.9688,60.9687,113.0354,64.1887,115.2641,67.2118,117.1974,63.9918,114.9688,60.9687" style="stroke:#181818;stroke-width:0.5208333333333334;"/><text fill="#000000" font-family="sans-serif" font-size="6.7708" lengthAdjust="spacing" textLength="14.5833" x="116.6667" y="84.112">Type</text><text fill="#000000" font-family="sans-serif" font-size="6.7708" lengthAdjust="spacing" textLength="3.6458" x="111.1596" y="72.2304">1</text><text fill="#000000" font-family="sans-serif" font-size="6.7708" lengthAdjust="spacing" textLength="2.6042" x="114.3193" y="104.9856">*</text></g><!--MD5=[0ddb92434bff74289926a8ccb24dd7f5]
link SiteState to SiteRepresentation--><g id="link_SiteState_SiteRepresentation"><path codeLine="254" d="M195.4479,156.6198 C196.2292,165.4271 197.724,175.2188 200.5208,183.8542 C202.0417,188.5573 206.9975,198.3618 206.9975,198.3618 " fill="none" id="SiteState-SiteRepresentation" style="stroke:#181818;stroke-width:0.5208333333333334;"/><polygon fill="#181818" points="210.1198,203.776,210.3634,200.0282,206.9975,198.3618,206.7539,202.1097,210.1198,203.776" style="stroke:#181818;stroke-width:0.5208333333333334;"/><polygon fill="#181818" points="194.9635,149.8073,193.2149,154.6297,195.1466,152.405,197.3713,154.3367,194.9635,149.8073" style="stroke:#181818;stroke-width:0.5208333333333334;"/><line style="stroke:#181818;stroke-width:0.5208333333333334;" x1="195.1466" x2="195.4427" y1="152.405" y2="156.5625"/><text fill="#000000" font-family="sans-serif" font-size="6.7708" lengthAdjust="spacing" textLength="19.7917" x="201.0417" y="182.0287">States</text><text fill="#000000" font-family="sans-serif" font-size="6.7708" lengthAdjust="spacing" textLength="2.6042" x="192.1581" y="161.0754">*</text><text fill="#000000" font-family="sans-serif" font-size="6.7708" lengthAdjust="spacing" textLength="3.6458" x="203.8455" y="198.2697">1</text></g><!--MD5=[fe6899da04ba8eff0d2a85360d50479e]
reverse link SiteStateType to SiteState--><g id="link_SiteStateType_SiteState"><path codeLine="255" d="M203.6042,67.8333 C201.651,81.5156 199.3021,98.0156 197.5208,110.5313 " fill="none" id="SiteStateType-backto-SiteState" style="stroke:#181818;stroke-width:0.5208333333333334;"/><polygon fill="none" points="204.5781,60.9687,202.076,63.7697,203.699,67.1566,206.2012,64.3557,204.5781,60.9687" style="stroke:#181818;stroke-width:0.5208333333333334;"/><text fill="#000000" font-family="sans-serif" font-size="6.7708" lengthAdjust="spacing" textLength="14.5833" x="202.6042" y="84.112">Type</text><text fill="#000000" font-family="sans-serif" font-size="6.7708" lengthAdjust="spacing" textLength="3.6458" x="200.1242" y="72.2304">1</text><text fill="#000000" font-family="sans-serif" font-size="6.7708" lengthAdjust="spacing" textLength="2.6042" x="195.1709" y="104.9856">*</text></g><!--MD5=[5594160d3d5ae9502d734e35a9557699]
link AddressState to AddressRepresentation--><g id="link_AddressState_AddressRepresentation"><path codeLine="257" d="M410.8281,155.7344 C402.9792,169.0938 385.7379,198.4387 385.7379,198.4387 " fill="none" id="AddressState-AddressRepresentation" style="stroke:#181818;stroke-width:0.5208333333333334;"/><polygon fill="#181818" points="382.5729,203.8281,385.9519,202.1884,385.7379,198.4387,382.3589,200.0784,382.5729,203.8281" style="stroke:#181818;stroke-width:0.5208333333333334;"/><polygon fill="#181818" points="414.3333,149.7708,410.1631,152.7579,413.0146,152.0164,413.7561,154.8679,414.3333,149.7708" style="stroke:#181818;stroke-width:0.5208333333333334;"/><line style="stroke:#181818;stroke-width:0.5208333333333334;" x1="413.0146" x2="410.9036" y1="152.0164" y2="155.612"/><text fill="#000000" font-family="sans-serif" font-size="6.7708" lengthAdjust="spacing" textLength="19.7917" x="400" y="182.0287">States</text><text fill="#000000" font-family="sans-serif" font-size="6.7708" lengthAdjust="spacing" textLength="2.6042" x="409.5045" y="161.0325">*</text><text fill="#000000" font-family="sans-serif" font-size="6.7708" lengthAdjust="spacing" textLength="3.6458" x="380.4128" y="198.3332">1</text></g><!--MD5=[a8732e1bede56099bf0aaade2efdbaae]
reverse link AddressStateType to AddressState--><g id="link_AddressStateType_AddressState"><path codeLine="258" d="M425.5208,67.8333 C425.5208,81.5156 425.5208,98.0156 425.5208,110.5313 " fill="none" id="AddressStateType-backto-AddressState" style="stroke:#181818;stroke-width:0.5208333333333334;"/><polygon fill="none" points="425.5208,60.9687,423.4375,64.0937,425.5208,67.2187,427.6042,64.0937,425.5208,60.9687" style="stroke:#181818;stroke-width:0.5208333333333334;"/><text fill="#000000" font-family="sans-serif" font-size="6.7708" lengthAdjust="spacing" textLength="14.5833" x="426.0417" y="84.112">Type</text><text fill="#000000" font-family="sans-serif" font-size="6.7708" lengthAdjust="spacing" textLength="3.6458" x="421.5503" y="72.2304">1</text><text fill="#000000" font-family="sans-serif" font-size="6.7708" lengthAdjust="spacing" textLength="2.6042" x="422.6847" y="104.9856">*</text></g><!--MD5=[8bab84a2645e87c0674af70eea231dc3]
link BusinessPartner to BusinessPartnerIdentifier--><g id="link_BusinessPartner_BusinessPartnerIdentifier"><path codeLine="260" d="M180.3334,369.5105 C180.3334,369.5105 145.2031,427.1354 131.9219,448.9271 " fill="none" id="BusinessPartner-BusinessPartnerIdentifier" style="stroke:#181818;stroke-width:0.5208333333333334;"/><polygon fill="#181818" points="128.349,454.7917,132.5686,451.875,129.7052,452.5685,129.0116,449.705,128.349,454.7917" style="stroke:#181818;stroke-width:0.5208333333333334;"/><line style="stroke:#181818;stroke-width:0.5208333333333334;" x1="129.7052" x2="131.8724" y1="452.5685" y2="449.0104"/><polygon fill="#181818" points="183.5833,364.1719,180.1789,365.7579,180.3334,369.5105,183.7379,367.9245,183.5833,364.1719" style="stroke:#181818;stroke-width:0.5208333333333334;"/><text fill="#000000" font-family="sans-serif" font-size="6.7708" lengthAdjust="spacing" textLength="28.6458" x="163.0208" y="405.4662">Identifiers</text><text fill="#000000" font-family="sans-serif" font-size="6.7708" lengthAdjust="spacing" textLength="3.6458" x="177.5438" y="375.3228">1</text><text fill="#000000" font-family="sans-serif" font-size="6.7708" lengthAdjust="spacing" textLength="2.6042" x="127.5938" y="449.2442">*</text></g><!--MD5=[4913be3b4649944dc5e77a77db41c37d]
link BusinessPartnerIdentifier to IdentifierType--><g id="link_BusinessPartnerIdentifier_IdentifierType"><path codeLine="261" d="M116.6667,494.1146 C116.6667,512.9479 116.6667,542.0313 116.6667,564.1042 " fill="none" id="BusinessPartnerIdentifier-to-IdentifierType" style="stroke:#181818;stroke-width:0.5208333333333334;"/><polygon fill="none" points="116.6667,571.0052,118.75,567.8802,116.6667,564.7552,114.5833,567.8802,116.6667,571.0052" style="stroke:#181818;stroke-width:0.5208333333333334;"/><text fill="#000000" font-family="sans-serif" font-size="6.7708" lengthAdjust="spacing" textLength="14.5833" x="117.1875" y="549.2162">Type</text><text fill="#000000" font-family="sans-serif" font-size="6.7708" lengthAdjust="spacing" textLength="2.6042" x="113.8306" y="505.3892">*</text><text fill="#000000" font-family="sans-serif" font-size="6.7708" lengthAdjust="spacing" textLength="3.6458" x="112.7417" y="565.3614">1</text></g><!--MD5=[f3fec9a243deb4689c3351ff52a45e34]
link BusinessPartner to Role--><g id="link_BusinessPartner_Role"><path codeLine="263" d="M203.6458,364.1719 C203.6458,389.6094 203.6458,424.3333 203.6458,447.8698 " fill="none" id="BusinessPartner-to-Role" style="stroke:#181818;stroke-width:0.5208333333333334;"/><polygon fill="none" points="203.6458,454.7917,205.7292,451.6667,203.6458,448.5417,201.5625,451.6667,203.6458,454.7917" style="stroke:#181818;stroke-width:0.5208333333333334;"/><text fill="#000000" font-family="sans-serif" font-size="6.7708" lengthAdjust="spacing" textLength="17.1875" x="204.1667" y="405.4662">Roles</text><text fill="#000000" font-family="sans-serif" font-size="6.7708" lengthAdjust="spacing" textLength="2.6042" x="200.8993" y="375.3228">*</text><text fill="#000000" font-family="sans-serif" font-size="6.7708" lengthAdjust="spacing" textLength="2.6042" x="200.8097" y="449.2442">*</text></g><!--MD5=[ed5960026812e113de76f6d53f7863dc]
link LegalEntityRepresentation to LegalForm--><g id="link_LegalEntityRepresentation_LegalForm"><path codeLine="269" d="M109.401,238.5833 C109.1771,243.6458 108.9688,249.1094 108.8542,254.1667 C108.4792,270.8438 108.8542,289.5781 109.3281,304.2813 " fill="none" id="LegalEntityRepresentation-to-LegalForm" style="stroke:#181818;stroke-width:0.5208333333333334;"/><polygon fill="none" points="109.5677,311.1458,111.5434,307.9517,109.3549,304.8995,107.3792,308.0936,109.5677,311.1458" style="stroke:#181818;stroke-width:0.5208333333333334;"/><text fill="#000000" font-family="sans-serif" font-size="6.7708" lengthAdjust="spacing" textLength="31.7708" x="109.375" y="261.7162">LegalForm</text><text fill="#000000" font-family="sans-serif" font-size="6.7708" lengthAdjust="spacing" textLength="2.6042" x="106.384" y="249.8468">*</text><text fill="#000000" font-family="sans-serif" font-size="6.7708" lengthAdjust="spacing" textLength="11.4583" x="96.9376" y="305.6169">0..1</text></g><!--MD5=[5ee63655e11b645b874d426f981a1bac]
@startuml business-partner

skinparam dpi 50

package "Business Partner and References" {
  entity BusinessPartner {
    ExternalID
    NameParts
    IsOwnCompanyData
    CreatedAt
    UpdateAt
  }

  ' taken out from 24.05 using the separate entity states only
  ' class BusinessPartnerState {
  '   ValidFrom
  '   ValidTo
  ' }

  ' enum BusinessPartnerStateType {
  '   Active
  '   Inactive
  ' }

  class LegalEntityState {
    ValidFrom
    ValidTo
  }

  enum LegalEntityStateType {
    Active
    Inactive
  }
  
  class SiteState {
    ValidFrom
    ValidTo
  }

  enum SiteStateType{
      Active
      Inactive
    }

  class AddressState {
    ValidFrom
    ValidTo
  }

  enum AddressStateType{
    Active
    Inactive
  }

  class BusinessPartnerIdentifier {
    Value
    IssuingBody
  }

  ' taken out from 24.05, as not clear if this is modelled correctly
  ' class Classification{
  '   Value
  '   Code
  ' }
    
  ' enum ClassificationType {
  '   NACE
  '   NAF
  '   NAICS
  '   SIC
  ' }

  entity IdentifierType {
    TechnicalKey
    Name
    ...
  }

  enum Role {
    Supplier
    Customer
  }

  entity LegalForm {
    TechnicalKey
    ...
  }

  entity LegalEntity {
    BPNL
    ...
  }

  class LegalEntityRepresentation {
    LegalName
    ShortName
  }

  entity Site {
    BPNS
    ...
  }

  class SiteRepresentation {
    Name
  }

  entity Address {
    BPNA
    ...
  }

  class AddressRepresentation {
    Name
  }

  ' not yet standardized, as not clear if operating company can correctly implement it
  ' class ConfidenceCriteria {
  '   SharedByOwner
  '   CheckedByExternalSource
  '   NumberOfSharingMembers
  '   LastConfidenceCheckAt
  '   NextConfidenceCheckAt
  '   ConfidenceLevel
  ' }

  class AddressRepresentation { }

  enum AddressType {
    LegalAddress
    SiteMainAddress
    LegalAndSiteMainAddress
    AdditionalAddress
  }
  
  class AlternativePostalAddress{
    DeliveryServiceQualifier
    DeliveryServiceNumber
  }

  enum DeliveryServiceType {
    POBox
    PrivateBag
    BoitePostale
  }

  class PhysicalPostalAddress{
    AdministrativeAreaLevel2
    AdministrativeAreaLevel3
    District
    CompanyPostalCode
    TaxJurisdictionCode
    IndustrialZone
    Building
    Floor
    Door 
  }

  abstract class PostalAddress{
    PostalCode
    City
  }

  enum Country {
    DE
    FR
    US
    ...
  }

  entity AdministrativeAreaLevel1{
    Code
    Name
    ...
  }

  class GeographicCoordinates {
    Latitude
    Longitude
    Altitude
  }

  class Street {
    NamePrefix
    AdditionalNamePrefix
    Name
    NameSuffix
    AdditionalNameSuffix
    HouseNumber
    HouseNumberSupplement
    Milestone
    Direction
  }

  ' not implemented / standardized yet
  ' class LegalEntityScriptVariant {
  '   LegalName
  '   ShortName
  ' }
  
  ' class SiteScriptVariant {
  '   Name
  ' }

  ' class AddressScriptVariant {
  '   Name
  ' }

  ' class BusinessPartnerScriptVariant {
  '   NameParts
  ' }

  ' enum ScriptCode {
  '   Arab
  '   Cyrl
  '   Hans
  '   Jpan
  '   Latn
  '   ...
  ' }

  BusinessPartner "1" -u-> "1" LegalEntityRepresentation : LegalEntity
  BusinessPartner "1" -u-> "0..1" SiteRepresentation : Site
  BusinessPartner "1" -u-> "1" AddressRepresentation : Address

  LegalEntityRepresentation "0..1" -u-> "1" LegalEntity : BPNL
  SiteRepresentation "0..1" -u-> "1" Site : BPNS
  AddressRepresentation "0..1" -u-> "1" Address : BPNA

  AddressRepresentation "*" -u-o "1" AddressType : Type
  AddressRepresentation "1" -d-> "0..1" AlternativePostalAddress : AlternativePostalAddress
  AlternativePostalAddress "*" -d-o "1" DeliveryServiceType : DeliveryServiceType
  AlternativePostalAddress -d-|> PostalAddress
  
  AddressRepresentation "1" -d-> "1" PhysicalPostalAddress : PhysicalPostalAddress
  PhysicalPostalAddress "1" -d-> "0..1" Street : Street
  PhysicalPostalAddress -d-|> PostalAddress
  
  PostalAddress "*" -d-o "1" Country : Country
  PostalAddress "*" -d-o "0..1" AdministrativeAreaLevel1 : AdministrativeAreaLevel1
  PostalAddress "1" -d-> "0..1" GeographicCoordinates : GeographicCoordinates

  ' not yet standardized, as not clear if operating company can correctly implement it
  ' LegalEntityRepresentation "1" -u-> "1" ConfidenceCriteria : ConfidenceCriteria
  ' SiteRepresentation "1" -u-> "1" ConfidenceCriteria : ConfidenceCriteria
  ' AddressRepresentation "1" -u-> "1" ConfidenceCriteria : ConfidenceCriteria

  ' taken out from 24.05 using the separate entity states only
  ' BusinessPartner "1" *-d-> "*" BusinessPartnerState : States
  ' BusinessPartnerState "*" -d-o "1" BusinessPartnerStateType : Type
  
  LegalEntityRepresentation "1" *-u-> "*" LegalEntityState : States
  LegalEntityState "*" -u-o "1" LegalEntityStateType : Type

  SiteRepresentation "1" *-u-> "*" SiteState : States
  SiteState "*" -u-o "1" SiteStateType : Type

  AddressRepresentation "1" *-u-> "*" AddressState : States
  AddressState "*" -u-o "1" AddressStateType : Type

  BusinessPartner "1" *-d-> "*" BusinessPartnerIdentifier : Identifiers
  BusinessPartnerIdentifier "*" -d-o "1" IdentifierType : Type

  BusinessPartner "*" -d-o "*" Role : Roles

  ' taken out from 24.05, as not clear if this is modelled correctly
  ' LegalEntityRepresentation "1" *-d-> "*" Classification : Classifications
  ' Classification "*" -d-o "1" ClassificationType : Type
  
  LegalEntityRepresentation "*" -d-o "0..1" LegalForm : LegalForm

  ' not implemented / standardized yet
  ' LegalEntityRepresentation "1" *- -> "*" LegalEntityScriptVariant : ScriptVariants
  ' LegalEntityScriptVariant "*" - -o "1" ScriptCode : ScriptCode

  ' SiteRepresentation "1" *- -> "*" SiteScriptVariant : ScriptVariants
  ' SiteScriptVariant "*" - -o "1" ScriptCode : ScriptCode

  ' AddressRepresentation "1" *- -> "*" AddressScriptVariant : ScriptVariants
  ' AddressScriptVariant "*" - -o "1" ScriptCode : ScriptCode
  ' AddressScriptVariant "1" -d-> "1" PhysicalPostalAddress : PhysicalPostalAddress
  ' AddressScriptVariant "1" -d-> "0..1" AlternativePostalAddress : AlternativePostalAddress

  ' BusinessPartner "1" *- -> "*" BusinessPartnerScriptVariant : ScriptVariants
  ' BusinessPartnerScriptVariant "*" - -o "1" ScriptCode : ScriptCode
}

hide methods
hide AddressRepresentation methods
hide LegalEntityRepresentation methods 
hide SiteRepresentation methods
@enduml

@startuml business-partner

skinparam dpi 50

package "Business Partner and References" {
  entity BusinessPartner {
    ExternalID
    NameParts
    IsOwnCompanyData
    CreatedAt
    UpdateAt
  }



  class LegalEntityState {
    ValidFrom
    ValidTo
  }

  enum LegalEntityStateType {
    Active
    Inactive
  }
  
  class SiteState {
    ValidFrom
    ValidTo
  }

  enum SiteStateType{
      Active
      Inactive
    }

  class AddressState {
    ValidFrom
    ValidTo
  }

  enum AddressStateType{
    Active
    Inactive
  }

  class BusinessPartnerIdentifier {
    Value
    IssuingBody
  }

    

  entity IdentifierType {
    TechnicalKey
    Name
    ...
  }

  enum Role {
    Supplier
    Customer
  }

  entity LegalForm {
    TechnicalKey
    ...
  }

  entity LegalEntity {
    BPNL
    ...
  }

  class LegalEntityRepresentation {
    LegalName
    ShortName
  }

  entity Site {
    BPNS
    ...
  }

  class SiteRepresentation {
    Name
  }

  entity Address {
    BPNA
    ...
  }

  class AddressRepresentation {
    Name
  }


  class AddressRepresentation { }

  enum AddressType {
    LegalAddress
    SiteMainAddress
    LegalAndSiteMainAddress
    AdditionalAddress
  }
  
  class AlternativePostalAddress{
    DeliveryServiceQualifier
    DeliveryServiceNumber
  }

  enum DeliveryServiceType {
    POBox
    PrivateBag
    BoitePostale
  }

  class PhysicalPostalAddress{
    AdministrativeAreaLevel2
    AdministrativeAreaLevel3
    District
    CompanyPostalCode
    TaxJurisdictionCode
    IndustrialZone
    Building
    Floor
    Door 
  }

  abstract class PostalAddress{
    PostalCode
    City
  }

  enum Country {
    DE
    FR
    US
    ...
  }

  entity AdministrativeAreaLevel1{
    Code
    Name
    ...
  }

  class GeographicCoordinates {
    Latitude
    Longitude
    Altitude
  }

  class Street {
    NamePrefix
    AdditionalNamePrefix
    Name
    NameSuffix
    AdditionalNameSuffix
    HouseNumber
    HouseNumberSupplement
    Milestone
    Direction
  }

  




  BusinessPartner "1" -u-> "1" LegalEntityRepresentation : LegalEntity
  BusinessPartner "1" -u-> "0..1" SiteRepresentation : Site
  BusinessPartner "1" -u-> "1" AddressRepresentation : Address

  LegalEntityRepresentation "0..1" -u-> "1" LegalEntity : BPNL
  SiteRepresentation "0..1" -u-> "1" Site : BPNS
  AddressRepresentation "0..1" -u-> "1" Address : BPNA

  AddressRepresentation "*" -u-o "1" AddressType : Type
  AddressRepresentation "1" -d-> "0..1" AlternativePostalAddress : AlternativePostalAddress
  AlternativePostalAddress "*" -d-o "1" DeliveryServiceType : DeliveryServiceType
  AlternativePostalAddress -d-|> PostalAddress
  
  AddressRepresentation "1" -d-> "1" PhysicalPostalAddress : PhysicalPostalAddress
  PhysicalPostalAddress "1" -d-> "0..1" Street : Street
  PhysicalPostalAddress -d-|> PostalAddress
  
  PostalAddress "*" -d-o "1" Country : Country
  PostalAddress "*" -d-o "0..1" AdministrativeAreaLevel1 : AdministrativeAreaLevel1
  PostalAddress "1" -d-> "0..1" GeographicCoordinates : GeographicCoordinates


  
  LegalEntityRepresentation "1" *-u-> "*" LegalEntityState : States
  LegalEntityState "*" -u-o "1" LegalEntityStateType : Type

  SiteRepresentation "1" *-u-> "*" SiteState : States
  SiteState "*" -u-o "1" SiteStateType : Type

  AddressRepresentation "1" *-u-> "*" AddressState : States
  AddressState "*" -u-o "1" AddressStateType : Type

  BusinessPartner "1" *-d-> "*" BusinessPartnerIdentifier : Identifiers
  BusinessPartnerIdentifier "*" -d-o "1" IdentifierType : Type

  BusinessPartner "*" -d-o "*" Role : Roles

  
  LegalEntityRepresentation "*" -d-o "0..1" LegalForm : LegalForm




}

hide methods
hide AddressRepresentation methods
hide LegalEntityRepresentation methods 
hide SiteRepresentation methods
@enduml

PlantUML version 1.2022.5(Sat Apr 30 12:55:52 CEST 2022)
(GPL source distribution)
Java Runtime: OpenJDK Runtime Environment
JVM: OpenJDK 64-Bit Server VM
Default Encoding: Cp1252
Language: en
Country: GB
--></g></svg>