<?xml version="1.0" encoding="UTF-8" standalone="no"?><svg xmlns="http://www.w3.org/2000/svg" xmlns:xlink="http://www.w3.org/1999/xlink" contentStyleType="text/css" height="223.4375px" preserveAspectRatio="none" style="width:135px;height:223px;background:#FFFFFF;" version="1.1" viewBox="0 0 135 223" width="135.9375px" zoomAndPan="magnify"><defs/><g><!--MD5=[703ec05a9bfec3bced1b626e9d080e8a]
cluster Changelog Entry and References--><g id="cluster_Changelog Entry and References"><path d="M4.4271,3.125 L125.7813,3.125 A1.9531,1.9531 0 0 1 127.0833,4.4271 L130.7292,15.4215 L130.9896,15.4215 A1.3021,1.3021 0 0 1 132.2917,16.7236 L132.2917,218.4896 A1.3021,1.3021 0 0 1 130.9896,219.7917 L4.4271,219.7917 A1.3021,1.3021 0 0 1 3.125,218.4896 L3.125,4.4271 A1.3021,1.3021 0 0 1 4.4271,3.125 " style="stroke:#000000;stroke-width:0.78125;fill:none;"/><line style="stroke:#000000;stroke-width:0.78125;fill:none;" x1="3.125" x2="130.7292" y1="15.4215" y2="15.4215"/><text fill="#000000" font-family="sans-serif" font-size="7.2917" font-weight="bold" lengthAdjust="spacing" textLength="120.8333" x="5.2083" y="11.736">Changelog Entry and References</text></g><!--MD5=[c637aa948e80933875c54e7f5e23ee1d]
class BusinessPartner--><g id="elem_BusinessPartner"><rect codeLine="5" fill="#F1F1F1" height="39.1764" id="BusinessPartner" rx="1.3021" ry="1.3021" style="stroke:#181818;stroke-width:0.2604166666666667;" width="70.8333" x="32.2917" y="21.875"/><ellipse cx="40.1042" cy="30.2083" fill="#ADD1B2" rx="5.7292" ry="5.7292" style="stroke:#181818;stroke-width:0.5208333333333334;"/><path d="M39.5101,30.6234 L39.5101,31.9255 L41.7643,31.9255 L41.7643,31.4453 Q41.7643,31.1279 41.8864,30.9896 Q42.0166,30.8512 42.2119,30.8512 Q42.4072,30.8512 42.5293,30.9896 Q42.6514,31.1279 42.6514,31.4453 L42.6514,32.8125 L38.4847,32.8125 Q38.1592,32.8125 38.0208,32.6904 Q37.8906,32.5684 37.8906,32.3649 Q37.8906,32.1696 38.029,32.0475 Q38.1673,31.9255 38.4847,31.9255 L38.623,31.9255 L38.623,28.4587 L38.4847,28.4587 Q38.1592,28.4587 38.0208,28.3366 Q37.8906,28.2145 37.8906,28.0111 Q37.8906,27.8158 38.0208,27.6937 Q38.1592,27.5716 38.4847,27.5716 L42.4561,27.5716 L42.4561,28.9225 Q42.4561,29.2399 42.334,29.3783 Q42.2201,29.5085 42.0166,29.5085 Q41.8213,29.5085 41.6992,29.3783 Q41.5771,29.2399 41.5771,28.9225 L41.5771,28.4587 L39.5101,28.4587 L39.5101,29.7363 L40.2832,29.7363 Q40.2832,29.3945 40.3483,29.2969 Q40.4867,29.0853 40.7308,29.0853 Q40.9261,29.0853 41.0482,29.2236 Q41.1702,29.3538 41.1702,29.6712 L41.1702,30.6966 Q41.1702,30.9814 41.1051,31.0791 Q40.9668,31.2826 40.7308,31.2826 Q40.4867,31.2826 40.3483,31.071 Q40.2832,30.9733 40.2832,30.6234 L39.5101,30.6234 Z " fill="#000000"/><text fill="#000000" font-family="sans-serif" font-size="7.2917" lengthAdjust="spacing" textLength="54.1667" x="47.3958" y="33.1919">BusinessPartner</text><line style="stroke:#181818;stroke-width:0.2604166666666667;" x1="32.8125" x2="102.6042" y1="38.5417" y2="38.5417"/><text fill="#000000" font-family="sans-serif" font-size="7.2917" lengthAdjust="spacing" textLength="35.4167" x="35.4167" y="48.1944">External ID</text><text fill="#000000" font-family="sans-serif" font-size="7.2917" lengthAdjust="spacing" textLength="6.25" x="35.4167" y="57.3659">...</text></g><!--MD5=[c04aae3176c896fce3ae39cde70cdd8f]
class ChangelogEntry--><g id="elem_ChangelogEntry"><rect codeLine="10" fill="#F1F1F1" height="30.0049" id="ChangelogEntry" rx="1.3021" ry="1.3021" style="stroke:#181818;stroke-width:0.2604166666666667;" width="69.7917" x="32.2917" y="101.5625"/><ellipse cx="40.1042" cy="109.8958" fill="#ADD1B2" rx="5.7292" ry="5.7292" style="stroke:#181818;stroke-width:0.5208333333333334;"/><path d="M39.5101,110.3109 L39.5101,111.613 L41.7643,111.613 L41.7643,111.1328 Q41.7643,110.8154 41.8864,110.6771 Q42.0166,110.5387 42.2119,110.5387 Q42.4072,110.5387 42.5293,110.6771 Q42.6514,110.8154 42.6514,111.1328 L42.6514,112.5 L38.4847,112.5 Q38.1592,112.5 38.0208,112.3779 Q37.8906,112.2559 37.8906,112.0524 Q37.8906,111.8571 38.029,111.735 Q38.1673,111.613 38.4847,111.613 L38.623,111.613 L38.623,108.1462 L38.4847,108.1462 Q38.1592,108.1462 38.0208,108.0241 Q37.8906,107.902 37.8906,107.6986 Q37.8906,107.5033 38.0208,107.3812 Q38.1592,107.2591 38.4847,107.2591 L42.4561,107.2591 L42.4561,108.61 Q42.4561,108.9274 42.334,109.0658 Q42.2201,109.196 42.0166,109.196 Q41.8213,109.196 41.6992,109.0658 Q41.5771,108.9274 41.5771,108.61 L41.5771,108.1462 L39.5101,108.1462 L39.5101,109.4238 L40.2832,109.4238 Q40.2832,109.082 40.3483,108.9844 Q40.4867,108.7728 40.7308,108.7728 Q40.9261,108.7728 41.0482,108.9111 Q41.1702,109.0413 41.1702,109.3587 L41.1702,110.3841 Q41.1702,110.6689 41.1051,110.7666 Q40.9668,110.9701 40.7308,110.9701 Q40.4867,110.9701 40.3483,110.7585 Q40.2832,110.6608 40.2832,110.3109 L39.5101,110.3109 Z " fill="#000000"/><text fill="#000000" font-family="sans-serif" font-size="7.2917" lengthAdjust="spacing" textLength="53.125" x="47.3958" y="112.8794">ChangelogEntry</text><line style="stroke:#181818;stroke-width:0.2604166666666667;" x1="32.8125" x2="101.5625" y1="118.2292" y2="118.2292"/><text fill="#000000" font-family="sans-serif" font-size="7.2917" lengthAdjust="spacing" textLength="35.9375" x="35.4167" y="127.8819">Timestamp</text></g><!--MD5=[874ee54abcfc63ec6cb09354998bb015]
class ChangelogType--><g id="elem_ChangelogType"><rect codeLine="14" fill="#F1F1F1" height="39.1764" id="ChangelogType" rx="1.3021" ry="1.3021" style="stroke:#181818;stroke-width:0.2604166666666667;" width="69.2708" x="32.5521" y="172.3958"/><ellipse cx="40.3646" cy="180.7292" fill="#EB937F" rx="5.7292" ry="5.7292" style="stroke:#181818;stroke-width:0.5208333333333334;"/><path d="M39.7705,181.1442 L39.7705,182.4463 L42.0247,182.4463 L42.0247,181.9661 Q42.0247,181.6488 42.1468,181.5104 Q42.277,181.3721 42.4723,181.3721 Q42.6676,181.3721 42.7897,181.5104 Q42.9118,181.6488 42.9118,181.9661 L42.9118,183.3333 L38.7451,183.3333 Q38.4196,183.3333 38.2813,183.2113 Q38.151,183.0892 38.151,182.8857 Q38.151,182.6904 38.2894,182.5684 Q38.4277,182.4463 38.7451,182.4463 L38.8835,182.4463 L38.8835,178.9795 L38.7451,178.9795 Q38.4196,178.9795 38.2813,178.8574 Q38.151,178.7354 38.151,178.5319 Q38.151,178.3366 38.2813,178.2145 Q38.4196,178.0924 38.7451,178.0924 L42.7165,178.0924 L42.7165,179.4434 Q42.7165,179.7607 42.5944,179.8991 Q42.4805,180.0293 42.277,180.0293 Q42.0817,180.0293 41.9596,179.8991 Q41.8376,179.7607 41.8376,179.4434 L41.8376,178.9795 L39.7705,178.9795 L39.7705,180.2572 L40.5436,180.2572 Q40.5436,179.9154 40.6087,179.8177 Q40.7471,179.6061 40.9912,179.6061 Q41.1865,179.6061 41.3086,179.7445 Q41.4307,179.8747 41.4307,180.1921 L41.4307,181.2174 Q41.4307,181.5023 41.3656,181.5999 Q41.2272,181.8034 40.9912,181.8034 Q40.7471,181.8034 40.6087,181.5918 Q40.5436,181.4941 40.5436,181.1442 L39.7705,181.1442 Z " fill="#000000"/><text fill="#000000" font-family="sans-serif" font-size="7.2917" lengthAdjust="spacing" textLength="52.6042" x="47.6563" y="183.7128">ChangelogType</text><line style="stroke:#181818;stroke-width:0.2604166666666667;" x1="33.0729" x2="101.3021" y1="189.0625" y2="189.0625"/><text fill="#000000" font-family="sans-serif" font-size="7.2917" lengthAdjust="spacing" textLength="22.3958" x="35.6771" y="198.7152">Create</text><text fill="#000000" font-family="sans-serif" font-size="7.2917" lengthAdjust="spacing" textLength="23.4375" x="35.6771" y="207.8868">Update</text></g><!--MD5=[70b98e4ea2488685c4a70fc5a90298a4]
reverse link BusinessPartner to ChangelogEntry--><g id="link_BusinessPartner_ChangelogEntry"><path codeLine="19" d="M67.5573,63.7552 C67.4688,75.9375 67.3646,90.776 67.2917,101.5521 " fill="none" id="BusinessPartner-backto-ChangelogEntry" style="stroke:#181818;stroke-width:0.5208333333333334;"/><polygon fill="#181818" points="67.5729,61.0417,65.4495,65.7111,67.5506,63.6457,69.616,65.7469,67.5729,61.0417" style="stroke:#181818;stroke-width:0.5208333333333334;"/><text fill="#000000" font-family="sans-serif" font-size="6.7708" lengthAdjust="spacing" textLength="31.25" x="67.7083" y="84.112">ExternalID</text><text fill="#000000" font-family="sans-serif" font-size="6.7708" lengthAdjust="spacing" textLength="3.6458" x="63.5783" y="72.3163">1</text><text fill="#000000" font-family="sans-serif" font-size="6.7708" lengthAdjust="spacing" textLength="2.6042" x="64.4105" y="95.8334">*</text></g><!--MD5=[9c02c24044c847b06b1521237d29fdc4]
link ChangelogEntry to ChangelogType--><g id="link_ChangelogEntry_ChangelogType"><path codeLine="21" d="M67.1875,131.849 C67.1875,141.4375 67.1875,154.224 67.1875,165.4896 " fill="none" id="ChangelogEntry-to-ChangelogType" style="stroke:#181818;stroke-width:0.5208333333333334;"/><polygon fill="none" points="67.1875,172.2656,69.2708,169.1406,67.1875,166.0156,65.1042,169.1406,67.1875,172.2656" style="stroke:#181818;stroke-width:0.5208333333333334;"/><text fill="#000000" font-family="sans-serif" font-size="6.7708" lengthAdjust="spacing" textLength="46.3542" x="67.7083" y="154.9454">ChangelogType</text><text fill="#000000" font-family="sans-serif" font-size="6.7708" lengthAdjust="spacing" textLength="2.6042" x="64.327" y="142.725">*</text><text fill="#000000" font-family="sans-serif" font-size="6.7708" lengthAdjust="spacing" textLength="3.6458" x="63.217" y="166.7228">1</text></g><!--MD5=[c245102b79d48992f979e71fcdf5d693]
@startuml changelog-entry

skinparam dpi 50

package "Changelog Entry and References" {
  entity BusinessPartner {
    External ID
    ...
  }
  
  entity ChangelogEntry {
    Timestamp
  }

  enum ChangelogType {
    Create
    Update
  }

  ChangelogEntry "*" -u-> "1" BusinessPartner : ExternalID

  ChangelogEntry "*" -d-o "1" ChangelogType : ChangelogType
}

hide methods
@enduml

PlantUML version 1.2022.5(Sat Apr 30 12:55:52 CEST 2022)
(GPL source distribution)
Java Runtime: OpenJDK Runtime Environment
JVM: OpenJDK 64-Bit Server VM
Default Encoding: Cp1252
Language: en
Country: GB
--></g></svg>