<?xml version="1.0" encoding="us-ascii" standalone="no"?><svg xmlns="http://www.w3.org/2000/svg" xmlns:xlink="http://www.w3.org/1999/xlink" contentStyleType="text/css" height="305.7292px" preserveAspectRatio="none" style="width:454px;height:305px;background:#FFFFFF;" version="1.1" viewBox="0 0 454 305" width="454.1667px" zoomAndPan="magnify"><defs/><g><!--cluster Business Partner Relationship and References--><g id="cluster_Business Partner Relationship and References"><path d="M4.4271,3.125 L176.3021,3.125 A1.9531,1.9531 0 0 1 177.6042,4.4271 L181.25,15.4215 L449.2188,15.4215 A1.3021,1.3021 0 0 1 450.5208,16.7236 L450.5208,300.7813 A1.3021,1.3021 0 0 1 449.2188,302.0833 L4.4271,302.0833 A1.3021,1.3021 0 0 1 3.125,300.7813 L3.125,4.4271 A1.3021,1.3021 0 0 1 4.4271,3.125 " fill="none" style="stroke:#000000;stroke-width:0.78125;"/><line style="stroke:#000000;stroke-width:0.78125;" x1="3.125" x2="181.25" y1="15.4215" y2="15.4215"/><text fill="#000000" font-family="sans-serif" font-size="7.2917" font-weight="bold" lengthAdjust="spacing" textLength="171.3542" x="5.2083" y="11.736">Business Partner Relationship and References</text></g><!--class BusinessPartner--><g id="elem_BusinessPartner"><rect codeLine="5" fill="#F1F1F1" height="39.1764" id="BusinessPartner" rx="1.3021" ry="1.3021" style="stroke:#181818;stroke-width:0.2604166666666667;" width="70.8333" x="59.8958" y="26.5625"/><ellipse cx="67.7083" cy="34.8958" fill="#ADD1B2" rx="5.7292" ry="5.7292" style="stroke:#181818;stroke-width:0.5208333333333334;"/><path d="M67.1143,35.3109 L67.1143,36.613 L69.3685,36.613 L69.3685,36.1328 Q69.3685,35.8154 69.4906,35.6771 Q69.6208,35.5387 69.8161,35.5387 Q70.0114,35.5387 70.1335,35.6771 Q70.2555,35.8154 70.2555,36.1328 L70.2555,37.5 L66.0889,37.5 Q65.7633,37.5 65.625,37.3779 Q65.4948,37.2559 65.4948,37.0524 Q65.4948,36.8571 65.6331,36.735 Q65.7715,36.613 66.0889,36.613 L66.2272,36.613 L66.2272,33.1462 L66.0889,33.1462 Q65.7633,33.1462 65.625,33.0241 Q65.4948,32.902 65.4948,32.6986 Q65.4948,32.5033 65.625,32.3812 Q65.7633,32.2591 66.0889,32.2591 L70.0602,32.2591 L70.0602,33.61 Q70.0602,33.9274 69.9382,34.0658 Q69.8242,34.196 69.6208,34.196 Q69.4255,34.196 69.3034,34.0658 Q69.1813,33.9274 69.1813,33.61 L69.1813,33.1462 L67.1143,33.1462 L67.1143,34.4238 L67.8874,34.4238 Q67.8874,34.082 67.9525,33.9844 Q68.0908,33.7728 68.335,33.7728 Q68.5303,33.7728 68.6523,33.9111 Q68.7744,34.0413 68.7744,34.3587 L68.7744,35.3841 Q68.7744,35.6689 68.7093,35.7666 Q68.571,35.9701 68.335,35.9701 Q68.0908,35.9701 67.9525,35.7585 Q67.8874,35.6608 67.8874,35.3109 L67.1143,35.3109 Z " fill="#000000"/><text fill="#000000" font-family="sans-serif" font-size="7.2917" lengthAdjust="spacing" textLength="54.1667" x="75" y="37.8794">BusinessPartner</text><line style="stroke:#181818;stroke-width:0.2604166666666667;" x1="60.4167" x2="130.2083" y1="43.2292" y2="43.2292"/><text fill="#000000" font-family="sans-serif" font-size="7.2917" lengthAdjust="spacing" textLength="33.3333" x="63.0208" y="52.8819">ExternalID</text><text fill="#000000" font-family="sans-serif" font-size="7.2917" lengthAdjust="spacing" textLength="6.25" x="63.0208" y="62.0534">...</text></g><!--class BusinessPartnerRelationship--><g id="elem_BusinessPartnerRelationship"><rect codeLine="10" fill="#F1F1F1" height="48.348" id="BusinessPartnerRelationship" rx="1.3021" ry="1.3021" style="stroke:#181818;stroke-width:0.2604166666666667;" width="111.4583" x="171.3542" y="21.875"/><ellipse cx="179.1667" cy="30.2083" fill="#ADD1B2" rx="5.7292" ry="5.7292" style="stroke:#181818;stroke-width:0.5208333333333334;"/><path d="M178.5726,30.6234 L178.5726,31.9255 L180.8268,31.9255 L180.8268,31.4453 Q180.8268,31.1279 180.9489,30.9896 Q181.0791,30.8512 181.2744,30.8512 Q181.4697,30.8512 181.5918,30.9896 Q181.7139,31.1279 181.7139,31.4453 L181.7139,32.8125 L177.5472,32.8125 Q177.2217,32.8125 177.0833,32.6904 Q176.9531,32.5684 176.9531,32.3649 Q176.9531,32.1696 177.0915,32.0475 Q177.2298,31.9255 177.5472,31.9255 L177.6855,31.9255 L177.6855,28.4587 L177.5472,28.4587 Q177.2217,28.4587 177.0833,28.3366 Q176.9531,28.2145 176.9531,28.0111 Q176.9531,27.8158 177.0833,27.6937 Q177.2217,27.5716 177.5472,27.5716 L181.5186,27.5716 L181.5186,28.9225 Q181.5186,29.2399 181.3965,29.3783 Q181.2826,29.5085 181.0791,29.5085 Q180.8838,29.5085 180.7617,29.3783 Q180.6396,29.2399 180.6396,28.9225 L180.6396,28.4587 L178.5726,28.4587 L178.5726,29.7363 L179.3457,29.7363 Q179.3457,29.3945 179.4108,29.2969 Q179.5492,29.0853 179.7933,29.0853 Q179.9886,29.0853 180.1107,29.2236 Q180.2327,29.3538 180.2327,29.6712 L180.2327,30.6966 Q180.2327,30.9814 180.1676,31.0791 Q180.0293,31.2826 179.7933,31.2826 Q179.5492,31.2826 179.4108,31.071 Q179.3457,30.9733 179.3457,30.6234 L178.5726,30.6234 Z " fill="#000000"/><text fill="#000000" font-family="sans-serif" font-size="7.2917" lengthAdjust="spacing" textLength="94.7917" x="186.4583" y="33.1919">BusinessPartnerRelationship</text><line style="stroke:#181818;stroke-width:0.2604166666666667;" x1="171.875" x2="282.2917" y1="38.5417" y2="38.5417"/><text fill="#000000" font-family="sans-serif" font-size="7.2917" lengthAdjust="spacing" textLength="33.3333" x="174.4792" y="48.1944">ExternalID</text><text fill="#000000" font-family="sans-serif" font-size="7.2917" lengthAdjust="spacing" textLength="33.3333" x="174.4792" y="57.3659">CreatedAt</text><text fill="#000000" font-family="sans-serif" font-size="7.2917" lengthAdjust="spacing" textLength="34.375" x="174.4792" y="66.5375">UpdatedAt</text></g><!--class BusinessPartnerRelationshipState--><g id="elem_BusinessPartnerRelationshipState"><rect codeLine="16" fill="#F1F1F1" height="39.1764" id="BusinessPartnerRelationshipState" rx="1.3021" ry="1.3021" style="stroke:#181818;stroke-width:0.2604166666666667;" width="128.6458" x="11.7188" y="142.9688"/><ellipse cx="19.5313" cy="151.3021" fill="#ADD1B2" rx="5.7292" ry="5.7292" style="stroke:#181818;stroke-width:0.5208333333333334;"/><path d="M20.9717,149.1536 Q21.0531,149.0397 21.1507,148.9827 Q21.2484,148.9258 21.3623,148.9258 Q21.5576,148.9258 21.6797,149.0641 Q21.8018,149.1943 21.8018,149.5117 L21.8018,150.2686 Q21.8018,150.5859 21.6797,150.7243 Q21.5576,150.8626 21.3623,150.8626 Q21.1833,150.8626 21.0775,150.7568 Q20.9717,150.6592 20.9147,150.3906 Q20.8903,150.2035 20.7926,150.1058 Q20.6217,149.9105 20.3044,149.7965 Q19.987,149.6826 19.6615,149.6826 Q19.2627,149.6826 18.929,149.8535 Q18.6035,150.0244 18.3431,150.415 Q18.0908,150.8057 18.0908,151.3428 L18.0908,151.9124 Q18.0908,152.5553 18.5547,152.9867 Q19.0186,153.4098 19.8486,153.4098 Q20.3369,153.4098 20.6787,153.2796 Q20.8822,153.1982 21.1019,152.9704 Q21.2402,152.832 21.3135,152.7913 Q21.3949,152.7507 21.5007,152.7507 Q21.6715,152.7507 21.8018,152.889 Q21.9401,153.0192 21.9401,153.1982 Q21.9401,153.3773 21.7611,153.5889 Q21.5007,153.89 21.0856,154.0609 Q20.5241,154.2969 19.8486,154.2969 Q19.0592,154.2969 18.4326,153.9714 Q17.9199,153.7109 17.5618,153.1576 Q17.2038,152.596 17.2038,151.9287 L17.2038,151.3265 Q17.2038,150.6348 17.5212,150.0407 Q17.8467,149.4385 18.4163,149.1211 Q18.986,148.7956 19.6289,148.7956 Q20.0114,148.7956 20.3451,148.8851 Q20.6868,148.9665 20.9717,149.1536 Z " fill="#000000"/><text fill="#000000" font-family="sans-serif" font-size="7.2917" lengthAdjust="spacing" textLength="111.9792" x="26.8229" y="154.2857">BusinessPartnerRelationshipState</text><line style="stroke:#181818;stroke-width:0.2604166666666667;" x1="12.2396" x2="139.8438" y1="159.6354" y2="159.6354"/><text fill="#000000" font-family="sans-serif" font-size="7.2917" lengthAdjust="spacing" textLength="33.3333" x="14.8438" y="169.2881">ValidFrom</text><text fill="#000000" font-family="sans-serif" font-size="7.2917" lengthAdjust="spacing" textLength="25" x="14.8438" y="178.4597">ValidTo</text></g><!--class BusinessPartnerRelationshipStateType--><g id="elem_BusinessPartnerRelationshipStateType"><rect codeLine="21" fill="#F1F1F1" height="39.1764" id="BusinessPartnerRelationshipStateType" rx="1.3021" ry="1.3021" style="stroke:#181818;stroke-width:0.2604166666666667;" width="145.3125" x="11.7188" y="254.6875"/><ellipse cx="19.5313" cy="263.0208" fill="#EB937F" rx="5.7292" ry="5.7292" style="stroke:#181818;stroke-width:0.5208333333333334;"/><path d="M18.9372,263.4359 L18.9372,264.738 L21.1914,264.738 L21.1914,264.2578 Q21.1914,263.9404 21.3135,263.8021 Q21.4437,263.6637 21.639,263.6637 Q21.8343,263.6637 21.9564,263.8021 Q22.0785,263.9404 22.0785,264.2578 L22.0785,265.625 L17.9118,265.625 Q17.5863,265.625 17.4479,265.5029 Q17.3177,265.3809 17.3177,265.1774 Q17.3177,264.9821 17.4561,264.86 Q17.5944,264.738 17.9118,264.738 L18.0501,264.738 L18.0501,261.2712 L17.9118,261.2712 Q17.5863,261.2712 17.4479,261.1491 Q17.3177,261.027 17.3177,260.8236 Q17.3177,260.6283 17.4479,260.5062 Q17.5863,260.3841 17.9118,260.3841 L21.8831,260.3841 L21.8831,261.735 Q21.8831,262.0524 21.7611,262.1908 Q21.6471,262.321 21.4437,262.321 Q21.2484,262.321 21.1263,262.1908 Q21.0042,262.0524 21.0042,261.735 L21.0042,261.2712 L18.9372,261.2712 L18.9372,262.5488 L19.7103,262.5488 Q19.7103,262.207 19.7754,262.1094 Q19.9137,261.8978 20.1579,261.8978 Q20.3532,261.8978 20.4753,262.0361 Q20.5973,262.1663 20.5973,262.4837 L20.5973,263.5091 Q20.5973,263.7939 20.5322,263.8916 Q20.3939,264.0951 20.1579,264.0951 Q19.9137,264.0951 19.7754,263.8835 Q19.7103,263.7858 19.7103,263.4359 L18.9372,263.4359 Z " fill="#000000"/><text fill="#000000" font-family="sans-serif" font-size="7.2917" lengthAdjust="spacing" textLength="128.6458" x="26.8229" y="266.0044">BusinessPartnerRelationshipStateType</text><line style="stroke:#181818;stroke-width:0.2604166666666667;" x1="12.2396" x2="156.5104" y1="271.3542" y2="271.3542"/><text fill="#000000" font-family="sans-serif" font-size="7.2917" lengthAdjust="spacing" textLength="19.7917" x="14.8438" y="281.0069">Active</text><text fill="#000000" font-family="sans-serif" font-size="7.2917" lengthAdjust="spacing" textLength="25" x="14.8438" y="290.1784">Inactive</text></g><!--class BusinessPartnerRelationshipReason--><g id="elem_BusinessPartnerRelationshipReason"><rect codeLine="26" fill="#F1F1F1" height="103.3773" id="BusinessPartnerRelationshipReason" rx="1.3021" ry="1.3021" style="stroke:#181818;stroke-width:0.2604166666666667;" width="136.9792" x="158.5938" y="110.9375"/><ellipse cx="166.4063" cy="119.2708" fill="#EB937F" rx="5.7292" ry="5.7292" style="stroke:#181818;stroke-width:0.5208333333333334;"/><path d="M165.8122,119.6859 L165.8122,120.988 L168.0664,120.988 L168.0664,120.5078 Q168.0664,120.1904 168.1885,120.0521 Q168.3187,119.9137 168.514,119.9137 Q168.7093,119.9137 168.8314,120.0521 Q168.9535,120.1904 168.9535,120.5078 L168.9535,121.875 L164.7868,121.875 Q164.4613,121.875 164.3229,121.7529 Q164.1927,121.6309 164.1927,121.4274 Q164.1927,121.2321 164.3311,121.11 Q164.4694,120.988 164.7868,120.988 L164.9251,120.988 L164.9251,117.5212 L164.7868,117.5212 Q164.4613,117.5212 164.3229,117.3991 Q164.1927,117.277 164.1927,117.0736 Q164.1927,116.8783 164.3229,116.7562 Q164.4613,116.6341 164.7868,116.6341 L168.7581,116.6341 L168.7581,117.985 Q168.7581,118.3024 168.6361,118.4408 Q168.5221,118.571 168.3187,118.571 Q168.1234,118.571 168.0013,118.4408 Q167.8792,118.3024 167.8792,117.985 L167.8792,117.5212 L165.8122,117.5212 L165.8122,118.7988 L166.5853,118.7988 Q166.5853,118.457 166.6504,118.3594 Q166.7887,118.1478 167.0329,118.1478 Q167.2282,118.1478 167.3503,118.2861 Q167.4723,118.4163 167.4723,118.7337 L167.4723,119.7591 Q167.4723,120.0439 167.4072,120.1416 Q167.2689,120.3451 167.0329,120.3451 Q166.7887,120.3451 166.6504,120.1335 Q166.5853,120.0358 166.5853,119.6859 L165.8122,119.6859 Z " fill="#000000"/><text fill="#000000" font-family="sans-serif" font-size="7.2917" lengthAdjust="spacing" textLength="120.3125" x="173.6979" y="122.2544">BusinessPartnerRelationshipReason</text><line style="stroke:#181818;stroke-width:0.2604166666666667;" x1="159.1146" x2="295.0521" y1="127.6042" y2="127.6042"/><text fill="#000000" font-family="sans-serif" font-size="7.2917" lengthAdjust="spacing" textLength="89.0625" x="161.7188" y="137.2569">ReplacedDueToAcquisition</text><text fill="#000000" font-family="sans-serif" font-size="7.2917" lengthAdjust="spacing" textLength="77.0833" x="161.7188" y="146.4284">ReplacedDueToMerger</text><text fill="#000000" font-family="sans-serif" font-size="7.2917" lengthAdjust="spacing" textLength="78.125" x="161.7188" y="155.6">ReplacedDueToSpinOff</text><text fill="#000000" font-family="sans-serif" font-size="7.2917" lengthAdjust="spacing" textLength="88.5417" x="161.7188" y="164.7715">ReplacedDueToDivestiture</text><text fill="#000000" font-family="sans-serif" font-size="7.2917" lengthAdjust="spacing" textLength="85.4167" x="161.7188" y="173.9431">ReplacedDueToCarveOut</text><text fill="#000000" font-family="sans-serif" font-size="7.2917" lengthAdjust="spacing" textLength="93.2292" x="161.7188" y="183.1146">ReplacedDueToPrivatization</text><text fill="#000000" font-family="sans-serif" font-size="7.2917" lengthAdjust="spacing" textLength="116.6667" x="161.7188" y="192.2862">ReplacedDueToInitialPublicOffering</text><text fill="#000000" font-family="sans-serif" font-size="7.2917" lengthAdjust="spacing" textLength="91.1458" x="161.7188" y="201.4577">ReplacedDueToWrongData</text><text fill="#000000" font-family="sans-serif" font-size="7.2917" lengthAdjust="spacing" textLength="6.25" x="161.7188" y="210.6293">...</text></g><!--class BusinessPartnerRelationshipType--><g id="elem_BusinessPartnerRelationshipType"><rect codeLine="38" fill="#F1F1F1" height="57.5195" id="BusinessPartnerRelationshipType" rx="1.3021" ry="1.3021" style="stroke:#181818;stroke-width:0.2604166666666667;" width="128.125" x="314.0625" y="133.8542"/><ellipse cx="321.875" cy="142.1875" fill="#EB937F" rx="5.7292" ry="5.7292" style="stroke:#181818;stroke-width:0.5208333333333334;"/><path d="M321.2809,142.6025 L321.2809,143.9046 L323.5352,143.9046 L323.5352,143.4245 Q323.5352,143.1071 323.6572,142.9688 Q323.7874,142.8304 323.9827,142.8304 Q324.1781,142.8304 324.3001,142.9688 Q324.4222,143.1071 324.4222,143.4245 L324.4222,144.7917 L320.2555,144.7917 Q319.93,144.7917 319.7917,144.6696 Q319.6615,144.5475 319.6615,144.3441 Q319.6615,144.1488 319.7998,144.0267 Q319.9382,143.9046 320.2555,143.9046 L320.3939,143.9046 L320.3939,140.4378 L320.2555,140.4378 Q319.93,140.4378 319.7917,140.3158 Q319.6615,140.1937 319.6615,139.9902 Q319.6615,139.7949 319.7917,139.6729 Q319.93,139.5508 320.2555,139.5508 L324.2269,139.5508 L324.2269,140.9017 Q324.2269,141.2191 324.1048,141.3574 Q323.9909,141.4876 323.7874,141.4876 Q323.5921,141.4876 323.4701,141.3574 Q323.348,141.2191 323.348,140.9017 L323.348,140.4378 L321.2809,140.4378 L321.2809,141.7155 L322.054,141.7155 Q322.054,141.3737 322.1191,141.276 Q322.2575,141.0645 322.5016,141.0645 Q322.6969,141.0645 322.819,141.2028 Q322.9411,141.333 322.9411,141.6504 L322.9411,142.6758 Q322.9411,142.9606 322.876,143.0583 Q322.7376,143.2617 322.5016,143.2617 Q322.2575,143.2617 322.1191,143.0501 Q322.054,142.9525 322.054,142.6025 L321.2809,142.6025 Z " fill="#000000"/><text fill="#000000" font-family="sans-serif" font-size="7.2917" lengthAdjust="spacing" textLength="111.4583" x="329.1667" y="145.1711">BusinessPartnerRelationshipType</text><line style="stroke:#181818;stroke-width:0.2604166666666667;" x1="314.5833" x2="441.6667" y1="150.5208" y2="150.5208"/><text fill="#000000" font-family="sans-serif" font-size="7.2917" lengthAdjust="spacing" textLength="92.7083" x="317.1875" y="160.1735">IsAlternativeHeadquarterFor</text><text fill="#000000" font-family="sans-serif" font-size="7.2917" lengthAdjust="spacing" textLength="44.7917" x="317.1875" y="169.3451">IsReplacedBy</text><text fill="#000000" font-family="sans-serif" font-size="7.2917" lengthAdjust="spacing" textLength="44.2708" x="317.1875" y="178.5166">IsManagedBy</text><text fill="#000000" font-family="sans-serif" font-size="7.2917" lengthAdjust="spacing" textLength="6.25" x="317.1875" y="187.6882">...</text></g><!--reverse link BusinessPartner to BusinessPartnerRelationship--><g id="link_BusinessPartner_BusinessPartnerRelationship"><path codeLine="45" d="M134.0189,56.0266 C137.4459,56.6725 137.8125,56.6406 141.1458,57.0313 C150.8542,58.1719 161.1719,58.0313 171.1667,57.1823 " fill="none" id="BusinessPartner-backto-BusinessPartnerRelationship" style="stroke:#181818;stroke-width:0.5208333333333334;"/><polygon fill="#181818" points="130.9479,55.4479,135.1685,58.3633,133.507,55.9302,135.9401,54.2687,130.9479,55.4479" style="stroke:#181818;stroke-width:0.5208333333333334;"/><text fill="#000000" font-family="sans-serif" font-size="6.7708" lengthAdjust="spacing" textLength="18.75" x="141.6667" y="55.2058">Target</text><text fill="#000000" font-family="sans-serif" font-size="6.7708" lengthAdjust="spacing" textLength="3.6458" x="134.8108" y="54.6818">1</text><text fill="#000000" font-family="sans-serif" font-size="6.7708" lengthAdjust="spacing" textLength="2.6042" x="164.5393" y="56.3739">*</text></g><!--reverse link BusinessPartner to BusinessPartnerRelationship--><g id="link_BusinessPartner_BusinessPartnerRelationship"><path codeLine="46" d="M133.9219,46.0938 C146.349,46.0938 157.4948,46.0938 171.1823,46.0938 " fill="none" id="BusinessPartner-backto-BusinessPartnerRelationship-1" style="stroke:#181818;stroke-width:0.5208333333333334;"/><polygon fill="#181818" points="130.7969,46.0938,135.4844,48.1771,133.401,46.0938,135.4844,44.0104,130.7969,46.0938" style="stroke:#181818;stroke-width:0.5208333333333334;"/><text fill="#000000" font-family="sans-serif" font-size="6.7708" lengthAdjust="spacing" textLength="21.3542" x="140.3646" y="42.7058">Source</text><text fill="#000000" font-family="sans-serif" font-size="6.7708" lengthAdjust="spacing" textLength="3.6458" x="134.8774" y="44.3372">1</text><text fill="#000000" font-family="sans-serif" font-size="6.7708" lengthAdjust="spacing" textLength="2.6042" x="164.556" y="44.5057">*</text></g><!--link BusinessPartnerRelationship to BusinessPartnerRelationshipType--><g id="link_BusinessPartnerRelationship_BusinessPartnerRelationshipType"><path codeLine="47" d="M258.1979,70.3802 C282.2917,88.7813 310.7727,110.5344 336.2206,129.9719 " fill="none" id="BusinessPartnerRelationship-to-BusinessPartnerRelationshipType" style="stroke:#181818;stroke-width:0.5208333333333334;"/><polygon fill="none" points="341.1875,133.7656,339.9687,130.2131,336.2206,129.9719,337.4395,133.5244,341.1875,133.7656" style="stroke:#181818;stroke-width:0.5208333333333334;"/><text fill="#000000" font-family="sans-serif" font-size="6.7708" lengthAdjust="spacing" textLength="14.5833" x="289.5833" y="93.487">Type</text><text fill="#000000" font-family="sans-serif" font-size="6.7708" lengthAdjust="spacing" textLength="2.6042" x="259.7861" y="81.4293">*</text><text fill="#000000" font-family="sans-serif" font-size="6.7708" lengthAdjust="spacing" textLength="3.6458" x="332.5755" y="128.2427">1</text></g><!--link BusinessPartnerRelationship to BusinessPartnerRelationshipReason--><g id="link_BusinessPartnerRelationship_BusinessPartnerRelationshipReason"><path codeLine="48" d="M227.0833,70.3802 C227.0833,82.1198 227.0833,90.5156 227.0833,104.6354 " fill="none" id="BusinessPartnerRelationship-to-BusinessPartnerRelationshipReason" style="stroke:#181818;stroke-width:0.5208333333333334;"/><polygon fill="none" points="227.0833,110.8854,229.1667,107.7604,227.0833,104.6354,225,107.7604,227.0833,110.8854" style="stroke:#181818;stroke-width:0.5208333333333334;"/><text fill="#000000" font-family="sans-serif" font-size="6.7708" lengthAdjust="spacing" textLength="22.9167" x="227.6042" y="93.487">Reason</text><text fill="#000000" font-family="sans-serif" font-size="6.7708" lengthAdjust="spacing" textLength="2.6042" x="224.2961" y="81.4293">*</text><text fill="#000000" font-family="sans-serif" font-size="6.7708" lengthAdjust="spacing" textLength="11.4583" x="215.1864" y="105.3074">0..1</text></g><!--link BusinessPartnerRelationship to BusinessPartnerRelationshipState--><g id="link_BusinessPartnerRelationship_BusinessPartnerRelationshipState"><path codeLine="50" d="M191.0021,74.1743 C162.9396,95.6118 129.6292,121.051 103.6032,140.9312 " fill="none" id="BusinessPartnerRelationship-BusinessPartnerRelationshipState" style="stroke:#181818;stroke-width:0.5208333333333334;"/><polygon fill="#181818" points="195.9688,70.3802,192.2207,70.6217,191.0021,74.1743,194.7501,73.9328,195.9688,70.3802" style="stroke:#181818;stroke-width:0.5208333333333334;"/><polygon fill="#181818" points="101.1198,142.8281,106.1095,141.6383,103.1893,141.2473,103.5802,138.3271,101.1198,142.8281" style="stroke:#181818;stroke-width:0.5208333333333334;"/><text fill="#000000" font-family="sans-serif" font-size="6.7708" lengthAdjust="spacing" textLength="19.7917" x="173.9583" y="93.487">States</text><text fill="#000000" font-family="sans-serif" font-size="6.7708" lengthAdjust="spacing" textLength="3.6458" x="187.6911" y="81.4293">1</text><text fill="#000000" font-family="sans-serif" font-size="6.7708" lengthAdjust="spacing" textLength="2.6042" x="102.7507" y="137.2834">*</text></g><!--link BusinessPartnerRelationshipState to BusinessPartnerRelationshipStateType--><g id="link_BusinessPartnerRelationshipState_BusinessPartnerRelationshipStateType"><path codeLine="51" d="M77.474,182.0469 C79,202.3177 80.9315,227.9968 82.4627,248.3197 " fill="none" id="BusinessPartnerRelationshipState-to-BusinessPartnerRelationshipStateType" style="stroke:#181818;stroke-width:0.5208333333333334;"/><polygon fill="none" points="82.9323,254.5521,84.7749,251.2794,82.4627,248.3197,80.6201,251.5924,82.9323,254.5521" style="stroke:#181818;stroke-width:0.5208333333333334;"/><text fill="#000000" font-family="sans-serif" font-size="6.7708" lengthAdjust="spacing" textLength="14.5833" x="82.2917" y="237.237">Type</text><text fill="#000000" font-family="sans-serif" font-size="6.7708" lengthAdjust="spacing" textLength="2.6042" x="74.893" y="193.3057">*</text><text fill="#000000" font-family="sans-serif" font-size="6.7708" lengthAdjust="spacing" textLength="3.6458" x="78.7048" y="249.0083">1</text></g><!--SRC=[fPDDJm8n48Rl_8h97atOwC6B1nCKZHoC153FutQ0njAkqvQ8nl_kiEmAfhYGU6hdwvdPTwV-LTiI6HUWIWtdfvrEYSKhpWYog-Yr9UzXY1miCOp8OD3E-hak0QqInvIOR44-WyyE0DcWmmgQmgPk7GAuUG_45isWNvbvdilvrVcpx5UtlOXh9WoaUg6o7alrOrNOmg0Ctq8T1oceqKzejBfbjzXQ4xSTC2uEWYQhie7rYg2NL5q75XlZADI8q3jRSqPK6Yn8zIDDNAzuYzhhTM8Ql2UU4QV-SQdjmtIQ1leoanVP8rCQl4PUqaCCQMJ8UYcpVk3-CGPMvaCpZ2z65zANMDjPclRCpixw633TX7PrTZGU-9wfjc6jxXsXUekIJtphk8utBQzMjUCUhInsO- -qRTkyx2I3hkbUGdQM9Pjz0HCKuSF_66CNkQ1Z6AhhzZ4IYMGkEOucdkPvExJUoWlON0vg9hGJGLzMFGw-G55WVVfswYRtM1csJxBMGdxqN2k21OMvKtvZj7r4dVWD]--></g></svg>