<?xml version="1.0" encoding="us-ascii" standalone="no"?><svg xmlns="http://www.w3.org/2000/svg" xmlns:xlink="http://www.w3.org/1999/xlink" contentStyleType="text/css" height="287.5px" preserveAspectRatio="none" style="width:294px;height:287px;background:#FFFFFF;" version="1.1" viewBox="0 0 294 287" width="294.7917px" zoomAndPan="magnify"><defs/><g><!--cluster Identifier Type and References--><g id="cluster_Identifier Type and References"><path d="M4.4271,3.125 L117.9688,3.125 A1.9531,1.9531 0 0 1 119.2708,4.4271 L122.9167,15.4215 L289.8438,15.4215 A1.3021,1.3021 0 0 1 291.1458,16.7236 L291.1458,282.5521 A1.3021,1.3021 0 0 1 289.8438,283.8542 L4.4271,283.8542 A1.3021,1.3021 0 0 1 3.125,282.5521 L3.125,4.4271 A1.3021,1.3021 0 0 1 4.4271,3.125 " fill="none" style="stroke:#000000;stroke-width:0.78125;"/><line style="stroke:#000000;stroke-width:0.78125;" x1="3.125" x2="122.9167" y1="15.4215" y2="15.4215"/><text fill="#000000" font-family="sans-serif" font-size="7.2917" font-weight="bold" lengthAdjust="spacing" textLength="113.0208" x="5.2083" y="11.736">Identifier Type and References</text></g><!--class BusinessPartnerIdentifier--><g id="elem_BusinessPartnerIdentifier"><rect codeLine="6" fill="#F1F1F1" height="39.1764" id="BusinessPartnerIdentifier" rx="1.3021" ry="1.3021" style="stroke:#181818;stroke-width:0.2604166666666667;" width="98.9583" x="11.4583" y="21.875"/><ellipse cx="19.2708" cy="30.2083" fill="#ADD1B2" rx="5.7292" ry="5.7292" style="stroke:#181818;stroke-width:0.5208333333333334;"/><path d="M20.7113,28.0599 Q20.7926,27.946 20.8903,27.889 Q20.988,27.832 21.1019,27.832 Q21.2972,27.832 21.4193,27.9704 Q21.5413,28.1006 21.5413,28.418 L21.5413,29.1748 Q21.5413,29.4922 21.4193,29.6305 Q21.2972,29.7689 21.1019,29.7689 Q20.9229,29.7689 20.8171,29.6631 Q20.7113,29.5654 20.6543,29.2969 Q20.6299,29.1097 20.5322,29.012 Q20.3613,28.8167 20.0439,28.7028 Q19.7266,28.5889 19.401,28.5889 Q19.0023,28.5889 18.6686,28.7598 Q18.3431,28.9307 18.0827,29.3213 Q17.8304,29.7119 17.8304,30.249 L17.8304,30.8187 Q17.8304,31.4616 18.2943,31.8929 Q18.7581,32.3161 19.5882,32.3161 Q20.0765,32.3161 20.4183,32.1859 Q20.6217,32.1045 20.8415,31.8766 Q20.9798,31.7383 21.0531,31.6976 Q21.1344,31.6569 21.2402,31.6569 Q21.4111,31.6569 21.5413,31.7952 Q21.6797,31.9255 21.6797,32.1045 Q21.6797,32.2835 21.5007,32.4951 Q21.2402,32.7962 20.8252,32.9671 Q20.2637,33.2031 19.5882,33.2031 Q18.7988,33.2031 18.1722,32.8776 Q17.6595,32.6172 17.3014,32.0638 Q16.9434,31.5023 16.9434,30.835 L16.9434,30.2327 Q16.9434,29.541 17.2607,28.9469 Q17.5863,28.3447 18.1559,28.0273 Q18.7256,27.7018 19.3685,27.7018 Q19.751,27.7018 20.0846,27.7913 Q20.4264,27.8727 20.7113,28.0599 Z " fill="#000000"/><text fill="#000000" font-family="sans-serif" font-size="7.2917" lengthAdjust="spacing" textLength="82.2917" x="26.5625" y="33.1919">BusinessPartnerIdentifier</text><line style="stroke:#181818;stroke-width:0.2604166666666667;" x1="11.9792" x2="109.8958" y1="38.5417" y2="38.5417"/><text fill="#000000" font-family="sans-serif" font-size="7.2917" lengthAdjust="spacing" textLength="18.75" x="14.5833" y="48.1944">Value</text><text fill="#000000" font-family="sans-serif" font-size="7.2917" lengthAdjust="spacing" textLength="39.5833" x="14.5833" y="57.3659">IssuingBody</text></g><!--class IdentifierType--><g id="elem_IdentifierType"><rect codeLine="11" fill="#F1F1F1" height="75.8626" id="IdentifierType" rx="1.3021" ry="1.3021" style="stroke:#181818;stroke-width:0.2604166666666667;" width="93.2292" x="12.2396" y="101.5625"/><ellipse cx="34.349" cy="109.8958" fill="#ADD1B2" rx="5.7292" ry="5.7292" style="stroke:#181818;stroke-width:0.5208333333333334;"/><path d="M33.7549,110.3109 L33.7549,111.613 L36.0091,111.613 L36.0091,111.1328 Q36.0091,110.8154 36.1312,110.6771 Q36.2614,110.5387 36.4567,110.5387 Q36.652,110.5387 36.7741,110.6771 Q36.8962,110.8154 36.8962,111.1328 L36.8962,112.5 L32.7295,112.5 Q32.404,112.5 32.2656,112.3779 Q32.1354,112.2559 32.1354,112.0524 Q32.1354,111.8571 32.2738,111.735 Q32.4121,111.613 32.7295,111.613 L32.8678,111.613 L32.8678,108.1462 L32.7295,108.1462 Q32.404,108.1462 32.2656,108.0241 Q32.1354,107.902 32.1354,107.6986 Q32.1354,107.5033 32.2656,107.3812 Q32.404,107.2591 32.7295,107.2591 L36.7008,107.2591 L36.7008,108.61 Q36.7008,108.9274 36.5788,109.0658 Q36.4648,109.196 36.2614,109.196 Q36.0661,109.196 35.944,109.0658 Q35.8219,108.9274 35.8219,108.61 L35.8219,108.1462 L33.7549,108.1462 L33.7549,109.4238 L34.528,109.4238 Q34.528,109.082 34.5931,108.9844 Q34.7314,108.7728 34.9756,108.7728 Q35.1709,108.7728 35.293,108.9111 Q35.415,109.0413 35.415,109.3587 L35.415,110.3841 Q35.415,110.6689 35.3499,110.7666 Q35.2116,110.9701 34.9756,110.9701 Q34.7314,110.9701 34.5931,110.7585 Q34.528,110.6608 34.528,110.3109 L33.7549,110.3109 Z " fill="#000000"/><text fill="#000000" font-family="sans-serif" font-size="7.2917" lengthAdjust="spacing" textLength="44.7917" x="44.8177" y="112.8794">IdentifierType</text><line style="stroke:#181818;stroke-width:0.2604166666666667;" x1="12.7604" x2="104.9479" y1="118.2292" y2="118.2292"/><text fill="#000000" font-family="sans-serif" font-size="7.2917" lengthAdjust="spacing" textLength="44.2708" x="15.3646" y="127.8819">TechnicalKey</text><text fill="#000000" font-family="sans-serif" font-size="7.2917" lengthAdjust="spacing" textLength="18.75" x="15.3646" y="137.0534">Name</text><text fill="#000000" font-family="sans-serif" font-size="7.2917" lengthAdjust="spacing" textLength="41.1458" x="15.3646" y="146.225">Abbreviation</text><text fill="#000000" font-family="sans-serif" font-size="7.2917" lengthAdjust="spacing" textLength="64.5833" x="15.3646" y="155.3965">TransliteratedName</text><text fill="#000000" font-family="sans-serif" font-size="7.2917" lengthAdjust="spacing" textLength="86.9792" x="15.3646" y="164.5681">TransliteratedAbbreviation</text><text fill="#000000" font-family="sans-serif" font-size="7.2917" lengthAdjust="spacing" textLength="23.4375" x="15.3646" y="173.7396">Format</text></g><!--class BusinessPartnerType--><g id="elem_BusinessPartnerType"><rect codeLine="20" fill="#F1F1F1" height="39.1764" id="BusinessPartnerType" rx="1.3021" ry="1.3021" style="stroke:#181818;stroke-width:0.2604166666666667;" width="87.5" x="195.3125" y="227.3438"/><ellipse cx="203.125" cy="235.6771" fill="#EB937F" rx="5.7292" ry="5.7292" style="stroke:#181818;stroke-width:0.5208333333333334;"/><path d="M202.5309,236.0921 L202.5309,237.3942 L204.7852,237.3942 L204.7852,236.9141 Q204.7852,236.5967 204.9072,236.4583 Q205.0374,236.32 205.2327,236.32 Q205.4281,236.32 205.5501,236.4583 Q205.6722,236.5967 205.6722,236.9141 L205.6722,238.2813 L201.5055,238.2813 Q201.18,238.2813 201.0417,238.1592 Q200.9115,238.0371 200.9115,237.8337 Q200.9115,237.6383 201.0498,237.5163 Q201.1882,237.3942 201.5055,237.3942 L201.6439,237.3942 L201.6439,233.9274 L201.5055,233.9274 Q201.18,233.9274 201.0417,233.8053 Q200.9115,233.6833 200.9115,233.4798 Q200.9115,233.2845 201.0417,233.1624 Q201.18,233.0404 201.5055,233.0404 L205.4769,233.0404 L205.4769,234.3913 Q205.4769,234.7087 205.3548,234.847 Q205.2409,234.9772 205.0374,234.9772 Q204.8421,234.9772 204.7201,234.847 Q204.598,234.7087 204.598,234.3913 L204.598,233.9274 L202.5309,233.9274 L202.5309,235.2051 L203.304,235.2051 Q203.304,234.8633 203.3691,234.7656 Q203.5075,234.554 203.7516,234.554 Q203.9469,234.554 204.069,234.6924 Q204.1911,234.8226 204.1911,235.14 L204.1911,236.1654 Q204.1911,236.4502 204.126,236.5479 Q203.9876,236.7513 203.7516,236.7513 Q203.5075,236.7513 203.3691,236.5397 Q203.304,236.4421 203.304,236.0921 L202.5309,236.0921 Z " fill="#000000"/><text fill="#000000" font-family="sans-serif" font-size="7.2917" lengthAdjust="spacing" textLength="70.8333" x="210.4167" y="238.6607">BusinessPartnerType</text><line style="stroke:#181818;stroke-width:0.2604166666666667;" x1="195.8333" x2="282.2917" y1="244.0104" y2="244.0104"/><text fill="#000000" font-family="sans-serif" font-size="7.2917" lengthAdjust="spacing" textLength="36.4583" x="198.4375" y="253.6631">LegalEntity</text><text fill="#000000" font-family="sans-serif" font-size="7.2917" lengthAdjust="spacing" textLength="27.0833" x="198.4375" y="262.8347">Address</text></g><!--class IdentifierTypeCategory--><g id="elem_IdentifierTypeCategory"><rect codeLine="25" fill="#F1F1F1" height="66.6911" id="IdentifierTypeCategory" rx="1.3021" ry="1.3021" style="stroke:#181818;stroke-width:0.2604166666666667;" width="91.6667" x="191.1458" y="106.25"/><ellipse cx="198.9583" cy="114.5833" fill="#EB937F" rx="5.7292" ry="5.7292" style="stroke:#181818;stroke-width:0.5208333333333334;"/><path d="M198.3643,114.9984 L198.3643,116.3005 L200.6185,116.3005 L200.6185,115.8203 Q200.6185,115.5029 200.7406,115.3646 Q200.8708,115.2262 201.0661,115.2262 Q201.2614,115.2262 201.3835,115.3646 Q201.5055,115.5029 201.5055,115.8203 L201.5055,117.1875 L197.3389,117.1875 Q197.0133,117.1875 196.875,117.0654 Q196.7448,116.9434 196.7448,116.7399 Q196.7448,116.5446 196.8831,116.4225 Q197.0215,116.3005 197.3389,116.3005 L197.4772,116.3005 L197.4772,112.8337 L197.3389,112.8337 Q197.0133,112.8337 196.875,112.7116 Q196.7448,112.5895 196.7448,112.3861 Q196.7448,112.1908 196.875,112.0687 Q197.0133,111.9466 197.3389,111.9466 L201.3102,111.9466 L201.3102,113.2975 Q201.3102,113.6149 201.1882,113.7533 Q201.0742,113.8835 200.8708,113.8835 Q200.6755,113.8835 200.5534,113.7533 Q200.4313,113.6149 200.4313,113.2975 L200.4313,112.8337 L198.3643,112.8337 L198.3643,114.1113 L199.1374,114.1113 Q199.1374,113.7695 199.2025,113.6719 Q199.3408,113.4603 199.585,113.4603 Q199.7803,113.4603 199.9023,113.5986 Q200.0244,113.7288 200.0244,114.0462 L200.0244,115.0716 Q200.0244,115.3564 199.9593,115.4541 Q199.821,115.6576 199.585,115.6576 Q199.3408,115.6576 199.2025,115.446 Q199.1374,115.3483 199.1374,114.9984 L198.3643,114.9984 Z " fill="#000000"/><text fill="#000000" font-family="sans-serif" font-size="7.2917" lengthAdjust="spacing" textLength="75" x="206.25" y="117.5669">IdentifierTypeCategory</text><line style="stroke:#181818;stroke-width:0.2604166666666667;" x1="191.6667" x2="282.2917" y1="122.9167" y2="122.9167"/><text fill="#000000" font-family="sans-serif" font-size="7.2917" lengthAdjust="spacing" textLength="14.0625" x="194.2708" y="132.5694">VAT</text><text fill="#000000" font-family="sans-serif" font-size="7.2917" lengthAdjust="spacing" textLength="10.9375" x="194.2708" y="141.7409">TIN</text><text fill="#000000" font-family="sans-serif" font-size="7.2917" lengthAdjust="spacing" textLength="14.5833" x="194.2708" y="150.9125">NBR</text><text fill="#000000" font-family="sans-serif" font-size="7.2917" lengthAdjust="spacing" textLength="11.4583" x="194.2708" y="160.084">IBR</text><text fill="#000000" font-family="sans-serif" font-size="7.2917" lengthAdjust="spacing" textLength="15.1042" x="194.2708" y="169.2556">OTH</text></g><!--class IdentifierTypeDetail--><g id="elem_IdentifierTypeDetail"><rect codeLine="33" fill="#F1F1F1" height="30.0049" id="IdentifierTypeDetail" rx="1.3021" ry="1.3021" style="stroke:#181818;stroke-width:0.2604166666666667;" width="80.2083" x="11.4583" y="231.7708"/><ellipse cx="19.2708" cy="240.1042" fill="#ADD1B2" rx="5.7292" ry="5.7292" style="stroke:#181818;stroke-width:0.5208333333333334;"/><path d="M20.7113,237.9557 Q20.7926,237.8418 20.8903,237.7848 Q20.988,237.7279 21.1019,237.7279 Q21.2972,237.7279 21.4193,237.8662 Q21.5413,237.9964 21.5413,238.3138 L21.5413,239.0706 Q21.5413,239.388 21.4193,239.5264 Q21.2972,239.6647 21.1019,239.6647 Q20.9229,239.6647 20.8171,239.5589 Q20.7113,239.4613 20.6543,239.1927 Q20.6299,239.0055 20.5322,238.9079 Q20.3613,238.7126 20.0439,238.5986 Q19.7266,238.4847 19.401,238.4847 Q19.0023,238.4847 18.6686,238.6556 Q18.3431,238.8265 18.0827,239.2171 Q17.8304,239.6077 17.8304,240.1449 L17.8304,240.7145 Q17.8304,241.3574 18.2943,241.7887 Q18.7581,242.2119 19.5882,242.2119 Q20.0765,242.2119 20.4183,242.0817 Q20.6217,242.0003 20.8415,241.7725 Q20.9798,241.6341 21.0531,241.5934 Q21.1344,241.5527 21.2402,241.5527 Q21.4111,241.5527 21.5413,241.6911 Q21.6797,241.8213 21.6797,242.0003 Q21.6797,242.1794 21.5007,242.391 Q21.2402,242.6921 20.8252,242.863 Q20.2637,243.099 19.5882,243.099 Q18.7988,243.099 18.1722,242.7734 Q17.6595,242.513 17.3014,241.9596 Q16.9434,241.3981 16.9434,240.7308 L16.9434,240.1286 Q16.9434,239.4368 17.2607,238.8428 Q17.5863,238.2406 18.1559,237.9232 Q18.7256,237.5977 19.3685,237.5977 Q19.751,237.5977 20.0846,237.6872 Q20.4264,237.7686 20.7113,237.9557 Z " fill="#000000"/><text fill="#000000" font-family="sans-serif" font-size="7.2917" lengthAdjust="spacing" textLength="63.5417" x="26.5625" y="243.0878">IdentifierTypeDetail</text><line style="stroke:#181818;stroke-width:0.2604166666666667;" x1="11.9792" x2="91.1458" y1="248.4375" y2="248.4375"/><text fill="#000000" font-family="sans-serif" font-size="7.2917" lengthAdjust="spacing" textLength="34.8958" x="14.5833" y="258.0902">Mandatory</text></g><!--class Country--><g id="elem_Country"><rect codeLine="37" fill="#F1F1F1" height="57.5195" id="Country" rx="1.3021" ry="1.3021" style="stroke:#181818;stroke-width:0.2604166666666667;" width="42.7083" x="134.375" y="218.2292"/><ellipse cx="142.1875" cy="226.5625" fill="#EB937F" rx="5.7292" ry="5.7292" style="stroke:#181818;stroke-width:0.5208333333333334;"/><path d="M141.5934,226.9775 L141.5934,228.2796 L143.8477,228.2796 L143.8477,227.7995 Q143.8477,227.4821 143.9697,227.3438 Q144.0999,227.2054 144.2952,227.2054 Q144.4906,227.2054 144.6126,227.3438 Q144.7347,227.4821 144.7347,227.7995 L144.7347,229.1667 L140.568,229.1667 Q140.2425,229.1667 140.1042,229.0446 Q139.974,228.9225 139.974,228.7191 Q139.974,228.5238 140.1123,228.4017 Q140.2507,228.2796 140.568,228.2796 L140.7064,228.2796 L140.7064,224.8128 L140.568,224.8128 Q140.2425,224.8128 140.1042,224.6908 Q139.974,224.5687 139.974,224.3652 Q139.974,224.1699 140.1042,224.0479 Q140.2425,223.9258 140.568,223.9258 L144.5394,223.9258 L144.5394,225.2767 Q144.5394,225.5941 144.4173,225.7324 Q144.3034,225.8626 144.0999,225.8626 Q143.9046,225.8626 143.7826,225.7324 Q143.6605,225.5941 143.6605,225.2767 L143.6605,224.8128 L141.5934,224.8128 L141.5934,226.0905 L142.3665,226.0905 Q142.3665,225.7487 142.4316,225.651 Q142.57,225.4395 142.8141,225.4395 Q143.0094,225.4395 143.1315,225.5778 Q143.2536,225.708 143.2536,226.0254 L143.2536,227.0508 Q143.2536,227.3356 143.1885,227.4333 Q143.0501,227.6367 142.8141,227.6367 Q142.57,227.6367 142.4316,227.4251 Q142.3665,227.3275 142.3665,226.9775 L141.5934,226.9775 Z " fill="#000000"/><text fill="#000000" font-family="sans-serif" font-size="7.2917" lengthAdjust="spacing" textLength="26.0417" x="149.4792" y="229.5461">Country</text><line style="stroke:#181818;stroke-width:0.2604166666666667;" x1="134.8958" x2="176.5625" y1="234.8958" y2="234.8958"/><text fill="#000000" font-family="sans-serif" font-size="7.2917" lengthAdjust="spacing" textLength="9.8958" x="137.5" y="244.5485">DE</text><text fill="#000000" font-family="sans-serif" font-size="7.2917" lengthAdjust="spacing" textLength="9.8958" x="137.5" y="253.7201">FR</text><text fill="#000000" font-family="sans-serif" font-size="7.2917" lengthAdjust="spacing" textLength="9.375" x="137.5" y="262.8916">US</text><text fill="#000000" font-family="sans-serif" font-size="7.2917" lengthAdjust="spacing" textLength="6.25" x="137.5" y="272.0632">...</text></g><!--link IdentifierType to BusinessPartnerType--><g id="link_IdentifierType_BusinessPartnerType"><path codeLine="44" d="M105.4948,167.6042 C137.3021,186.3594 173.2308,207.539 201.434,224.1692 " fill="none" id="IdentifierType-to-BusinessPartnerType" style="stroke:#181818;stroke-width:0.5208333333333334;"/><polygon fill="none" points="206.8177,227.3438,205.184,223.9619,201.434,224.1692,203.0677,227.551,206.8177,227.3438" style="stroke:#181818;stroke-width:0.5208333333333334;"/><text fill="#000000" font-family="sans-serif" font-size="6.7708" lengthAdjust="spacing" textLength="64.5833" x="159.8958" y="200.7787">BusinessPartnerType</text><text fill="#000000" font-family="sans-serif" font-size="6.7708" lengthAdjust="spacing" textLength="2.6042" x="109.6149" y="168.3651">*</text><text fill="#000000" font-family="sans-serif" font-size="6.7708" lengthAdjust="spacing" textLength="3.6458" x="196.8906" y="221.6762">1</text></g><!--link IdentifierType to IdentifierTypeCategory--><g id="link_IdentifierType_IdentifierTypeCategory"><path codeLine="45" d="M105.6563,139.5833 C132.0417,139.5833 158.625,139.5833 184.8594,139.5833 " fill="none" id="IdentifierType-to-IdentifierTypeCategory" style="stroke:#181818;stroke-width:0.5208333333333334;"/><polygon fill="none" points="191.1094,139.5833,187.9844,137.5,184.8594,139.5833,187.9844,141.6667,191.1094,139.5833" style="stroke:#181818;stroke-width:0.5208333333333334;"/><text fill="#000000" font-family="sans-serif" font-size="6.7708" lengthAdjust="spacing" textLength="66.6667" x="114.974" y="136.1954">IdentifierTypeCategory</text><text fill="#000000" font-family="sans-serif" font-size="6.7708" lengthAdjust="spacing" textLength="2.6042" x="109.6399" y="137.9486">*</text><text fill="#000000" font-family="sans-serif" font-size="6.7708" lengthAdjust="spacing" textLength="2.6042" x="184.304" y="137.9147">*</text></g><!--link BusinessPartnerIdentifier to IdentifierType--><g id="link_BusinessPartnerIdentifier_IdentifierType"><path codeLine="47" d="M60.526,61.1198 C60.2813,72.6198 60.0929,81.3921 59.7961,95.1733 " fill="none" id="BusinessPartnerIdentifier-to-IdentifierType" style="stroke:#181818;stroke-width:0.5208333333333334;"/><polygon fill="none" points="59.6615,101.4219,61.8116,98.3425,59.7961,95.1733,57.6459,98.2527,59.6615,101.4219" style="stroke:#181818;stroke-width:0.5208333333333334;"/><text fill="#000000" font-family="sans-serif" font-size="6.7708" lengthAdjust="spacing" textLength="14.5833" x="60.4167" y="84.112">Type</text><text fill="#000000" font-family="sans-serif" font-size="6.7708" lengthAdjust="spacing" textLength="2.6042" x="57.6274" y="72.2589">*</text><text fill="#000000" font-family="sans-serif" font-size="6.7708" lengthAdjust="spacing" textLength="3.6458" x="55.9156" y="95.9684">1</text></g><!--link IdentifierType to IdentifierTypeDetail--><g id="link_IdentifierType_IdentifierTypeDetail"><path codeLine="49" d="M55.8436,183.9489 C54.5676,202.5739 53.74,214.6375 52.7869,228.523 " fill="none" id="IdentifierType-IdentifierTypeDetail" style="stroke:#181818;stroke-width:0.5208333333333334;"/><polygon fill="#181818" points="56.2708,177.7135,53.9788,180.6888,55.8436,183.9489,58.1357,180.9736,56.2708,177.7135" style="stroke:#181818;stroke-width:0.5208333333333334;"/><polygon fill="#181818" points="52.5729,231.6406,54.9724,227.1068,52.7513,229.0426,50.8155,226.8215,52.5729,231.6406" style="stroke:#181818;stroke-width:0.5208333333333334;"/><text fill="#000000" font-family="sans-serif" font-size="6.7708" lengthAdjust="spacing" textLength="20.8333" x="55.7292" y="200.7787">Details</text><text fill="#000000" font-family="sans-serif" font-size="6.7708" lengthAdjust="spacing" textLength="3.6458" x="52.2188" y="188.6582">1</text><text fill="#000000" font-family="sans-serif" font-size="6.7708" lengthAdjust="spacing" textLength="2.6042" x="49.9049" y="226.1343">*</text></g><!--link IdentifierTypeDetail to Country--><g id="link_IdentifierTypeDetail_Country"><path codeLine="50" d="M91.6875,246.875 C106.1875,246.875 115.7448,246.875 128.026,246.875 " fill="none" id="IdentifierTypeDetail-to-Country" style="stroke:#181818;stroke-width:0.5208333333333334;"/><polygon fill="none" points="134.276,246.875,131.151,244.7917,128.026,246.875,131.151,248.9583,134.276,246.875" style="stroke:#181818;stroke-width:0.5208333333333334;"/><text fill="#000000" font-family="sans-serif" font-size="6.7708" lengthAdjust="spacing" textLength="23.4375" x="101.3021" y="243.487">Country</text><text fill="#000000" font-family="sans-serif" font-size="6.7708" lengthAdjust="spacing" textLength="2.6042" x="95.9597" y="245.1606">*</text><text fill="#000000" font-family="sans-serif" font-size="6.7708" lengthAdjust="spacing" textLength="3.6458" x="126.6296" y="244.8504">1</text></g><!--SRC=[TLAxReCm5DtvYYl6I8dQeGj3fJpLg6rQfRJx3Ru1As0ZsrH2KV-zZWr9I62oiS_h7gmFN9Iei01MSdXw288IamEc1E6QaJ1ypqb1N9S4A1XiQK-AH48wX6CG02GvQWspIdD1Md-YCeBK5VDeCG0_c5VaTckjAoxIcMIr_VuxIPomfeOBoRbvOan99dY2-IlLxc23XHUQxdQAVZaQBeM7AXGwvuOK6c9dNFVuZhMIga1pYL8LjyDSfNcZ5FEbY-ipCAOiiCFkZZ6tfgbKTTl3DFQXrXi_pMphMsdMZ_Yb5VF5TjKMP93dZTQx_Hzeh7R7VYuhOSv-YwKVqgj_VxbbCfcqb9lEmr48OpQM43w6lJL4VQS3Ej8j0tL40nUdKCEFgPFlnZDoZxHlA8iTMTPpJvwcq0ZyHj-n6u0pLernMt7KxWBRPSOPGK4caqp_0m00]--></g></svg>