<?xml version="1.0" encoding="us-ascii" standalone="no"?><svg xmlns="http://www.w3.org/2000/svg" xmlns:xlink="http://www.w3.org/1999/xlink" contentStyleType="text/css" height="358.3333px" preserveAspectRatio="none" style="width:317px;height:358px;background:#FFFFFF;" version="1.1" viewBox="0 0 317 358" width="317.7083px" zoomAndPan="magnify"><defs/><g><!--cluster Legal Entity and References--><g id="cluster_Legal Entity and References"><path d="M4.4271,3.125 L107.5521,3.125 A1.9531,1.9531 0 0 1 108.8542,4.4271 L112.5,15.4215 L312.7604,15.4215 A1.3021,1.3021 0 0 1 314.0625,16.7236 L314.0625,353.3854 A1.3021,1.3021 0 0 1 312.7604,354.6875 L4.4271,354.6875 A1.3021,1.3021 0 0 1 3.125,353.3854 L3.125,4.4271 A1.3021,1.3021 0 0 1 4.4271,3.125 " fill="none" style="stroke:#000000;stroke-width:0.78125;"/><line style="stroke:#000000;stroke-width:0.78125;" x1="3.125" x2="112.5" y1="15.4215" y2="15.4215"/><text fill="#000000" font-family="sans-serif" font-size="7.2917" font-weight="bold" lengthAdjust="spacing" textLength="102.6042" x="5.2083" y="11.736">Legal Entity and References</text></g><!--class LegalEntity--><g id="elem_LegalEntity"><rect codeLine="5" fill="#F1F1F1" height="75.8626" id="LegalEntity" rx="1.3021" ry="1.3021" style="stroke:#181818;stroke-width:0.2604166666666667;" width="61.9792" x="121.0938" y="101.5625"/><ellipse cx="132.8906" cy="109.8958" fill="#ADD1B2" rx="5.7292" ry="5.7292" style="stroke:#181818;stroke-width:0.5208333333333334;"/><path d="M132.2965,110.3109 L132.2965,111.613 L134.5508,111.613 L134.5508,111.1328 Q134.5508,110.8154 134.6729,110.6771 Q134.8031,110.5387 134.9984,110.5387 Q135.1937,110.5387 135.3158,110.6771 Q135.4378,110.8154 135.4378,111.1328 L135.4378,112.5 L131.2712,112.5 Q130.9456,112.5 130.8073,112.3779 Q130.6771,112.2559 130.6771,112.0524 Q130.6771,111.8571 130.8154,111.735 Q130.9538,111.613 131.2712,111.613 L131.4095,111.613 L131.4095,108.1462 L131.2712,108.1462 Q130.9456,108.1462 130.8073,108.0241 Q130.6771,107.902 130.6771,107.6986 Q130.6771,107.5033 130.8073,107.3812 Q130.9456,107.2591 131.2712,107.2591 L135.2425,107.2591 L135.2425,108.61 Q135.2425,108.9274 135.1204,109.0658 Q135.0065,109.196 134.8031,109.196 Q134.6077,109.196 134.4857,109.0658 Q134.3636,108.9274 134.3636,108.61 L134.3636,108.1462 L132.2965,108.1462 L132.2965,109.4238 L133.0697,109.4238 Q133.0697,109.082 133.1348,108.9844 Q133.2731,108.7728 133.5173,108.7728 Q133.7126,108.7728 133.8346,108.9111 Q133.9567,109.0413 133.9567,109.3587 L133.9567,110.3841 Q133.9567,110.6689 133.8916,110.7666 Q133.7533,110.9701 133.5173,110.9701 Q133.2731,110.9701 133.1348,110.7585 Q133.0697,110.6608 133.0697,110.3109 L132.2965,110.3109 Z " fill="#000000"/><text fill="#000000" font-family="sans-serif" font-size="7.2917" lengthAdjust="spacing" textLength="36.4583" x="141.0677" y="112.8794">LegalEntity</text><line style="stroke:#181818;stroke-width:0.2604166666666667;" x1="121.6146" x2="182.5521" y1="118.2292" y2="118.2292"/><text fill="#000000" font-family="sans-serif" font-size="7.2917" lengthAdjust="spacing" textLength="18.2292" x="124.2188" y="127.8819">BPNL</text><text fill="#000000" font-family="sans-serif" font-size="7.2917" lengthAdjust="spacing" textLength="36.9792" x="124.2188" y="137.0534">LegalName</text><text fill="#000000" font-family="sans-serif" font-size="7.2917" lengthAdjust="spacing" textLength="36.4583" x="124.2188" y="146.225">ShortName</text><text fill="#000000" font-family="sans-serif" font-size="7.2917" lengthAdjust="spacing" textLength="55.7292" x="124.2188" y="155.3965">IsParticipantData</text><text fill="#000000" font-family="sans-serif" font-size="7.2917" lengthAdjust="spacing" textLength="33.3333" x="124.2188" y="164.5681">CreatedAt</text><text fill="#000000" font-family="sans-serif" font-size="7.2917" lengthAdjust="spacing" textLength="30.2083" x="124.2188" y="173.7396">UpdateAt</text></g><!--class Site--><g id="elem_Site"><rect codeLine="14" fill="#F1F1F1" height="39.1764" id="Site" rx="1.3021" ry="1.3021" style="stroke:#181818;stroke-width:0.2604166666666667;" width="29.1667" x="137.5" y="21.875"/><ellipse cx="145.3125" cy="30.2083" fill="#ADD1B2" rx="5.7292" ry="5.7292" style="stroke:#181818;stroke-width:0.5208333333333334;"/><path d="M144.7184,30.6234 L144.7184,31.9255 L146.9727,31.9255 L146.9727,31.4453 Q146.9727,31.1279 147.0947,30.9896 Q147.2249,30.8512 147.4202,30.8512 Q147.6156,30.8512 147.7376,30.9896 Q147.8597,31.1279 147.8597,31.4453 L147.8597,32.8125 L143.693,32.8125 Q143.3675,32.8125 143.2292,32.6904 Q143.099,32.5684 143.099,32.3649 Q143.099,32.1696 143.2373,32.0475 Q143.3757,31.9255 143.693,31.9255 L143.8314,31.9255 L143.8314,28.4587 L143.693,28.4587 Q143.3675,28.4587 143.2292,28.3366 Q143.099,28.2145 143.099,28.0111 Q143.099,27.8158 143.2292,27.6937 Q143.3675,27.5716 143.693,27.5716 L147.6644,27.5716 L147.6644,28.9225 Q147.6644,29.2399 147.5423,29.3783 Q147.4284,29.5085 147.2249,29.5085 Q147.0296,29.5085 146.9076,29.3783 Q146.7855,29.2399 146.7855,28.9225 L146.7855,28.4587 L144.7184,28.4587 L144.7184,29.7363 L145.4915,29.7363 Q145.4915,29.3945 145.5566,29.2969 Q145.695,29.0853 145.9391,29.0853 Q146.1344,29.0853 146.2565,29.2236 Q146.3786,29.3538 146.3786,29.6712 L146.3786,30.6966 Q146.3786,30.9814 146.3135,31.0791 Q146.1751,31.2826 145.9391,31.2826 Q145.695,31.2826 145.5566,31.071 Q145.4915,30.9733 145.4915,30.6234 L144.7184,30.6234 Z " fill="#000000"/><text fill="#000000" font-family="sans-serif" font-size="7.2917" lengthAdjust="spacing" textLength="12.5" x="152.6042" y="33.1919">Site</text><line style="stroke:#181818;stroke-width:0.2604166666666667;" x1="138.0208" x2="166.1458" y1="38.5417" y2="38.5417"/><text fill="#000000" font-family="sans-serif" font-size="7.2917" lengthAdjust="spacing" textLength="18.75" x="140.625" y="48.1944">BPNS</text><text fill="#000000" font-family="sans-serif" font-size="7.2917" lengthAdjust="spacing" textLength="6.25" x="140.625" y="57.3659">...</text></g><!--class Address--><g id="elem_Address"><rect codeLine="19" fill="#F1F1F1" height="39.1764" id="Address" rx="1.3021" ry="1.3021" style="stroke:#181818;stroke-width:0.2604166666666667;" width="43.75" x="226.0417" y="21.875"/><ellipse cx="233.8542" cy="30.2083" fill="#ADD1B2" rx="5.7292" ry="5.7292" style="stroke:#181818;stroke-width:0.5208333333333334;"/><path d="M233.2601,30.6234 L233.2601,31.9255 L235.5143,31.9255 L235.5143,31.4453 Q235.5143,31.1279 235.6364,30.9896 Q235.7666,30.8512 235.9619,30.8512 Q236.1572,30.8512 236.2793,30.9896 Q236.4014,31.1279 236.4014,31.4453 L236.4014,32.8125 L232.2347,32.8125 Q231.9092,32.8125 231.7708,32.6904 Q231.6406,32.5684 231.6406,32.3649 Q231.6406,32.1696 231.779,32.0475 Q231.9173,31.9255 232.2347,31.9255 L232.373,31.9255 L232.373,28.4587 L232.2347,28.4587 Q231.9092,28.4587 231.7708,28.3366 Q231.6406,28.2145 231.6406,28.0111 Q231.6406,27.8158 231.7708,27.6937 Q231.9092,27.5716 232.2347,27.5716 L236.2061,27.5716 L236.2061,28.9225 Q236.2061,29.2399 236.084,29.3783 Q235.9701,29.5085 235.7666,29.5085 Q235.5713,29.5085 235.4492,29.3783 Q235.3271,29.2399 235.3271,28.9225 L235.3271,28.4587 L233.2601,28.4587 L233.2601,29.7363 L234.0332,29.7363 Q234.0332,29.3945 234.0983,29.2969 Q234.2367,29.0853 234.4808,29.0853 Q234.6761,29.0853 234.7982,29.2236 Q234.9202,29.3538 234.9202,29.6712 L234.9202,30.6966 Q234.9202,30.9814 234.8551,31.0791 Q234.7168,31.2826 234.4808,31.2826 Q234.2367,31.2826 234.0983,31.071 Q234.0332,30.9733 234.0332,30.6234 L233.2601,30.6234 Z " fill="#000000"/><text fill="#000000" font-family="sans-serif" font-size="7.2917" lengthAdjust="spacing" textLength="27.0833" x="241.1458" y="33.1919">Address</text><line style="stroke:#181818;stroke-width:0.2604166666666667;" x1="226.5625" x2="269.2708" y1="38.5417" y2="38.5417"/><text fill="#000000" font-family="sans-serif" font-size="7.2917" lengthAdjust="spacing" textLength="18.75" x="229.1667" y="48.1944">BPNA</text><text fill="#000000" font-family="sans-serif" font-size="7.2917" lengthAdjust="spacing" textLength="6.25" x="229.1667" y="57.3659">...</text></g><!--class LegalEntityState--><g id="elem_LegalEntityState"><rect codeLine="24" fill="#F1F1F1" height="39.1764" id="LegalEntityState" rx="1.3021" ry="1.3021" style="stroke:#181818;stroke-width:0.2604166666666667;" width="70.3125" x="11.7188" y="120.0521"/><ellipse cx="19.5313" cy="128.3854" fill="#ADD1B2" rx="5.7292" ry="5.7292" style="stroke:#181818;stroke-width:0.5208333333333334;"/><path d="M20.9717,126.237 Q21.0531,126.123 21.1507,126.0661 Q21.2484,126.0091 21.3623,126.0091 Q21.5576,126.0091 21.6797,126.1475 Q21.8018,126.2777 21.8018,126.5951 L21.8018,127.3519 Q21.8018,127.6693 21.6797,127.8076 Q21.5576,127.946 21.3623,127.946 Q21.1833,127.946 21.0775,127.8402 Q20.9717,127.7425 20.9147,127.474 Q20.8903,127.2868 20.7926,127.1891 Q20.6217,126.9938 20.3044,126.8799 Q19.987,126.766 19.6615,126.766 Q19.2627,126.766 18.929,126.9368 Q18.6035,127.1077 18.3431,127.4984 Q18.0908,127.889 18.0908,128.4261 L18.0908,128.9958 Q18.0908,129.6387 18.5547,130.07 Q19.0186,130.4932 19.8486,130.4932 Q20.3369,130.4932 20.6787,130.363 Q20.8822,130.2816 21.1019,130.0537 Q21.2402,129.9154 21.3135,129.8747 Q21.3949,129.834 21.5007,129.834 Q21.6715,129.834 21.8018,129.9723 Q21.9401,130.1025 21.9401,130.2816 Q21.9401,130.4606 21.7611,130.6722 Q21.5007,130.9733 21.0856,131.1442 Q20.5241,131.3802 19.8486,131.3802 Q19.0592,131.3802 18.4326,131.0547 Q17.9199,130.7943 17.5618,130.2409 Q17.2038,129.6794 17.2038,129.012 L17.2038,128.4098 Q17.2038,127.7181 17.5212,127.124 Q17.8467,126.5218 18.4163,126.2044 Q18.986,125.8789 19.6289,125.8789 Q20.0114,125.8789 20.3451,125.9684 Q20.6868,126.0498 20.9717,126.237 Z " fill="#000000"/><text fill="#000000" font-family="sans-serif" font-size="7.2917" lengthAdjust="spacing" textLength="53.6458" x="26.8229" y="131.369">LegalEntityState</text><line style="stroke:#181818;stroke-width:0.2604166666666667;" x1="12.2396" x2="81.5104" y1="136.7188" y2="136.7188"/><text fill="#000000" font-family="sans-serif" font-size="7.2917" lengthAdjust="spacing" textLength="33.3333" x="14.8438" y="146.3715">ValidFrom</text><text fill="#000000" font-family="sans-serif" font-size="7.2917" lengthAdjust="spacing" textLength="25" x="14.8438" y="155.543">ValidTo</text></g><!--class LegalEntityStateType--><g id="elem_LegalEntityStateType"><rect codeLine="29" fill="#F1F1F1" height="39.1764" id="LegalEntityStateType" rx="1.3021" ry="1.3021" style="stroke:#181818;stroke-width:0.2604166666666667;" width="86.9792" x="11.7188" y="218.2292"/><ellipse cx="19.5313" cy="226.5625" fill="#EB937F" rx="5.7292" ry="5.7292" style="stroke:#181818;stroke-width:0.5208333333333334;"/><path d="M18.9372,226.9775 L18.9372,228.2796 L21.1914,228.2796 L21.1914,227.7995 Q21.1914,227.4821 21.3135,227.3438 Q21.4437,227.2054 21.639,227.2054 Q21.8343,227.2054 21.9564,227.3438 Q22.0785,227.4821 22.0785,227.7995 L22.0785,229.1667 L17.9118,229.1667 Q17.5863,229.1667 17.4479,229.0446 Q17.3177,228.9225 17.3177,228.7191 Q17.3177,228.5238 17.4561,228.4017 Q17.5944,228.2796 17.9118,228.2796 L18.0501,228.2796 L18.0501,224.8128 L17.9118,224.8128 Q17.5863,224.8128 17.4479,224.6908 Q17.3177,224.5687 17.3177,224.3652 Q17.3177,224.1699 17.4479,224.0479 Q17.5863,223.9258 17.9118,223.9258 L21.8831,223.9258 L21.8831,225.2767 Q21.8831,225.5941 21.7611,225.7324 Q21.6471,225.8626 21.4437,225.8626 Q21.2484,225.8626 21.1263,225.7324 Q21.0042,225.5941 21.0042,225.2767 L21.0042,224.8128 L18.9372,224.8128 L18.9372,226.0905 L19.7103,226.0905 Q19.7103,225.7487 19.7754,225.651 Q19.9137,225.4395 20.1579,225.4395 Q20.3532,225.4395 20.4753,225.5778 Q20.5973,225.708 20.5973,226.0254 L20.5973,227.0508 Q20.5973,227.3356 20.5322,227.4333 Q20.3939,227.6367 20.1579,227.6367 Q19.9137,227.6367 19.7754,227.4251 Q19.7103,227.3275 19.7103,226.9775 L18.9372,226.9775 Z " fill="#000000"/><text fill="#000000" font-family="sans-serif" font-size="7.2917" lengthAdjust="spacing" textLength="70.3125" x="26.8229" y="229.5461">LegalEntityStateType</text><line style="stroke:#181818;stroke-width:0.2604166666666667;" x1="12.2396" x2="98.1771" y1="234.8958" y2="234.8958"/><text fill="#000000" font-family="sans-serif" font-size="7.2917" lengthAdjust="spacing" textLength="19.7917" x="14.8438" y="244.5485">Active</text><text fill="#000000" font-family="sans-serif" font-size="7.2917" lengthAdjust="spacing" textLength="25" x="14.8438" y="253.7201">Inactive</text></g><!--class LegalEntityIdentifier--><g id="elem_LegalEntityIdentifier"><rect codeLine="34" fill="#F1F1F1" height="39.1764" id="LegalEntityIdentifier" rx="1.3021" ry="1.3021" style="stroke:#181818;stroke-width:0.2604166666666667;" width="81.25" x="191.6667" y="218.2292"/><ellipse cx="199.4792" cy="226.5625" fill="#ADD1B2" rx="5.7292" ry="5.7292" style="stroke:#181818;stroke-width:0.5208333333333334;"/><path d="M200.9196,224.4141 Q201.001,224.3001 201.0986,224.2432 Q201.1963,224.1862 201.3102,224.1862 Q201.5055,224.1862 201.6276,224.3245 Q201.7497,224.4548 201.7497,224.7721 L201.7497,225.529 Q201.7497,225.8464 201.6276,225.9847 Q201.5055,226.123 201.3102,226.123 Q201.1312,226.123 201.0254,226.0173 Q200.9196,225.9196 200.8626,225.651 Q200.8382,225.4639 200.7406,225.3662 Q200.5697,225.1709 200.2523,225.057 Q199.9349,224.943 199.6094,224.943 Q199.2106,224.943 198.877,225.1139 Q198.5514,225.2848 198.291,225.6755 Q198.0387,226.0661 198.0387,226.6032 L198.0387,227.1729 Q198.0387,227.8158 198.5026,228.2471 Q198.9665,228.6702 199.7965,228.6702 Q200.2848,228.6702 200.6266,228.54 Q200.8301,228.4587 201.0498,228.2308 Q201.1882,228.0924 201.2614,228.0518 Q201.3428,228.0111 201.4486,228.0111 Q201.6195,228.0111 201.7497,228.1494 Q201.888,228.2796 201.888,228.4587 Q201.888,228.6377 201.709,228.8493 Q201.4486,229.1504 201.0335,229.3213 Q200.472,229.5573 199.7965,229.5573 Q199.0072,229.5573 198.3805,229.2318 Q197.8678,228.9714 197.5098,228.418 Q197.1517,227.8564 197.1517,227.1891 L197.1517,226.5869 Q197.1517,225.8952 197.4691,225.3011 Q197.7946,224.6989 198.3643,224.3815 Q198.9339,224.056 199.5768,224.056 Q199.9593,224.056 200.293,224.1455 Q200.6348,224.2269 200.9196,224.4141 Z " fill="#000000"/><text fill="#000000" font-family="sans-serif" font-size="7.2917" lengthAdjust="spacing" textLength="64.5833" x="206.7708" y="229.5461">LegalEntityIdentifier</text><line style="stroke:#181818;stroke-width:0.2604166666666667;" x1="192.1875" x2="272.3958" y1="234.8958" y2="234.8958"/><text fill="#000000" font-family="sans-serif" font-size="7.2917" lengthAdjust="spacing" textLength="18.75" x="194.7917" y="244.5485">Value</text><text fill="#000000" font-family="sans-serif" font-size="7.2917" lengthAdjust="spacing" textLength="39.5833" x="194.7917" y="253.7201">IssuingBody</text></g><!--class IdentifierType--><g id="elem_IdentifierType"><rect codeLine="39" fill="#F1F1F1" height="48.348" id="IdentifierType" rx="1.3021" ry="1.3021" style="stroke:#181818;stroke-width:0.2604166666666667;" width="61.4583" x="201.5625" y="297.9167"/><ellipse cx="209.375" cy="306.25" fill="#ADD1B2" rx="5.7292" ry="5.7292" style="stroke:#181818;stroke-width:0.5208333333333334;"/><path d="M208.7809,306.665 L208.7809,307.9671 L211.0352,307.9671 L211.0352,307.487 Q211.0352,307.1696 211.1572,307.0313 Q211.2874,306.8929 211.4827,306.8929 Q211.6781,306.8929 211.8001,307.0313 Q211.9222,307.1696 211.9222,307.487 L211.9222,308.8542 L207.7555,308.8542 Q207.43,308.8542 207.2917,308.7321 Q207.1615,308.61 207.1615,308.4066 Q207.1615,308.2113 207.2998,308.0892 Q207.4382,307.9671 207.7555,307.9671 L207.8939,307.9671 L207.8939,304.5003 L207.7555,304.5003 Q207.43,304.5003 207.2917,304.3783 Q207.1615,304.2562 207.1615,304.0527 Q207.1615,303.8574 207.2917,303.7354 Q207.43,303.6133 207.7555,303.6133 L211.7269,303.6133 L211.7269,304.9642 Q211.7269,305.2816 211.6048,305.4199 Q211.4909,305.5501 211.2874,305.5501 Q211.0921,305.5501 210.9701,305.4199 Q210.848,305.2816 210.848,304.9642 L210.848,304.5003 L208.7809,304.5003 L208.7809,305.778 L209.554,305.778 Q209.554,305.4362 209.6191,305.3385 Q209.7575,305.127 210.0016,305.127 Q210.1969,305.127 210.319,305.2653 Q210.4411,305.3955 210.4411,305.7129 L210.4411,306.7383 Q210.4411,307.0231 210.376,307.1208 Q210.2376,307.3242 210.0016,307.3242 Q209.7575,307.3242 209.6191,307.1126 Q209.554,307.015 209.554,306.665 L208.7809,306.665 Z " fill="#000000"/><text fill="#000000" font-family="sans-serif" font-size="7.2917" lengthAdjust="spacing" textLength="44.7917" x="216.6667" y="309.2336">IdentifierType</text><line style="stroke:#181818;stroke-width:0.2604166666666667;" x1="202.0833" x2="262.5" y1="314.5833" y2="314.5833"/><text fill="#000000" font-family="sans-serif" font-size="7.2917" lengthAdjust="spacing" textLength="44.2708" x="204.6875" y="324.236">TechnicalKey</text><text fill="#000000" font-family="sans-serif" font-size="7.2917" lengthAdjust="spacing" textLength="18.75" x="204.6875" y="333.4076">Name</text><text fill="#000000" font-family="sans-serif" font-size="7.2917" lengthAdjust="spacing" textLength="6.25" x="204.6875" y="342.5791">...</text></g><!--class LegalForm--><g id="elem_LegalForm"><rect codeLine="58" fill="#F1F1F1" height="39.1764" id="LegalForm" rx="1.3021" ry="1.3021" style="stroke:#181818;stroke-width:0.2604166666666667;" width="52.0833" x="121.3542" y="218.2292"/><ellipse cx="129.1667" cy="226.5625" fill="#ADD1B2" rx="5.7292" ry="5.7292" style="stroke:#181818;stroke-width:0.5208333333333334;"/><path d="M128.5726,226.9775 L128.5726,228.2796 L130.8268,228.2796 L130.8268,227.7995 Q130.8268,227.4821 130.9489,227.3438 Q131.0791,227.2054 131.2744,227.2054 Q131.4697,227.2054 131.5918,227.3438 Q131.7139,227.4821 131.7139,227.7995 L131.7139,229.1667 L127.5472,229.1667 Q127.2217,229.1667 127.0833,229.0446 Q126.9531,228.9225 126.9531,228.7191 Q126.9531,228.5238 127.0915,228.4017 Q127.2298,228.2796 127.5472,228.2796 L127.6855,228.2796 L127.6855,224.8128 L127.5472,224.8128 Q127.2217,224.8128 127.0833,224.6908 Q126.9531,224.5687 126.9531,224.3652 Q126.9531,224.1699 127.0833,224.0479 Q127.2217,223.9258 127.5472,223.9258 L131.5186,223.9258 L131.5186,225.2767 Q131.5186,225.5941 131.3965,225.7324 Q131.2826,225.8626 131.0791,225.8626 Q130.8838,225.8626 130.7617,225.7324 Q130.6396,225.5941 130.6396,225.2767 L130.6396,224.8128 L128.5726,224.8128 L128.5726,226.0905 L129.3457,226.0905 Q129.3457,225.7487 129.4108,225.651 Q129.5492,225.4395 129.7933,225.4395 Q129.9886,225.4395 130.1107,225.5778 Q130.2327,225.708 130.2327,226.0254 L130.2327,227.0508 Q130.2327,227.3356 130.1676,227.4333 Q130.0293,227.6367 129.7933,227.6367 Q129.5492,227.6367 129.4108,227.4251 Q129.3457,227.3275 129.3457,226.9775 L128.5726,226.9775 Z " fill="#000000"/><text fill="#000000" font-family="sans-serif" font-size="7.2917" lengthAdjust="spacing" textLength="35.4167" x="136.4583" y="229.5461">LegalForm</text><line style="stroke:#181818;stroke-width:0.2604166666666667;" x1="121.875" x2="172.9167" y1="234.8958" y2="234.8958"/><text fill="#000000" font-family="sans-serif" font-size="7.2917" lengthAdjust="spacing" textLength="44.2708" x="124.4792" y="244.5485">TechnicalKey</text><text fill="#000000" font-family="sans-serif" font-size="7.2917" lengthAdjust="spacing" textLength="6.25" x="124.4792" y="253.7201">...</text></g><!--class LegalAddress--><g id="elem_LegalAddress"><rect codeLine="63" fill="#F1F1F1" height="16.6667" id="LegalAddress" rx="1.3021" ry="1.3021" style="stroke:#181818;stroke-width:0.2604166666666667;" width="61.9792" x="243.4896" y="131.25"/><ellipse cx="251.3021" cy="139.5833" fill="#ADD1B2" rx="5.7292" ry="5.7292" style="stroke:#181818;stroke-width:0.5208333333333334;"/><path d="M252.7425,137.4349 Q252.8239,137.321 252.9215,137.264 Q253.0192,137.207 253.1331,137.207 Q253.3285,137.207 253.4505,137.3454 Q253.5726,137.4756 253.5726,137.793 L253.5726,138.5498 Q253.5726,138.8672 253.4505,139.0055 Q253.3285,139.1439 253.1331,139.1439 Q252.9541,139.1439 252.8483,139.0381 Q252.7425,138.9404 252.6855,138.6719 Q252.6611,138.4847 252.5635,138.387 Q252.3926,138.1917 252.0752,138.0778 Q251.7578,137.9639 251.4323,137.9639 Q251.0335,137.9639 250.6999,138.1348 Q250.3743,138.3057 250.1139,138.6963 Q249.8617,139.0869 249.8617,139.624 L249.8617,140.1937 Q249.8617,140.8366 250.3255,141.2679 Q250.7894,141.6911 251.6195,141.6911 Q252.1077,141.6911 252.4495,141.5609 Q252.653,141.4795 252.8727,141.2516 Q253.0111,141.1133 253.0843,141.0726 Q253.1657,141.0319 253.2715,141.0319 Q253.4424,141.0319 253.5726,141.1702 Q253.7109,141.3005 253.7109,141.4795 Q253.7109,141.6585 253.5319,141.8701 Q253.2715,142.1712 252.8564,142.3421 Q252.2949,142.5781 251.6195,142.5781 Q250.8301,142.5781 250.2035,142.2526 Q249.6908,141.9922 249.3327,141.4388 Q248.9746,140.8773 248.9746,140.21 L248.9746,139.6077 Q248.9746,138.916 249.292,138.3219 Q249.6175,137.7197 250.1872,137.4023 Q250.7568,137.0768 251.3997,137.0768 Q251.7822,137.0768 252.1159,137.1663 Q252.4577,137.2477 252.7425,137.4349 Z " fill="#000000"/><text fill="#000000" font-family="sans-serif" font-size="7.2917" lengthAdjust="spacing" textLength="45.3125" x="258.5938" y="142.5669">LegalAddress</text></g><!--link Address to LegalEntity--><g id="link_Address_LegalEntity"><path codeLine="90" d="M228.9844,61.1198 C215.9479,74.3333 202.7119,87.7431 187.6286,103.0348 " fill="none" id="Address-to-LegalEntity" style="stroke:#181818;stroke-width:0.5208333333333334;"/><polygon fill="none" points="183.2396,107.4844,186.9173,106.7226,187.6286,103.0348,183.9509,103.7966,183.2396,107.4844" style="stroke:#181818;stroke-width:0.5208333333333334;"/><text fill="#000000" font-family="sans-serif" font-size="6.7708" lengthAdjust="spacing" textLength="47.9167" x="211.4583" y="84.112">LegalEntityBPN</text><text fill="#000000" font-family="sans-serif" font-size="6.7708" lengthAdjust="spacing" textLength="10.4167" x="214.4185" y="72.2589">1..*</text><text fill="#000000" font-family="sans-serif" font-size="6.7708" lengthAdjust="spacing" textLength="3.6458" x="187.2589" y="101.7819">1</text></g><!--link Site to LegalEntity--><g id="link_Site_LegalEntity"><path codeLine="91" d="M151.0677,60.9792 C150.8438,66.0417 150.6354,71.5052 150.5208,76.5625 C150.3385,84.6458 150.2654,87.0691 150.4373,95.3034 " fill="none" id="Site-to-LegalEntity" style="stroke:#181818;stroke-width:0.5208333333333334;"/><polygon fill="none" points="150.5677,101.5521,152.5854,98.3843,150.4373,95.3034,148.4196,98.4712,150.5677,101.5521" style="stroke:#181818;stroke-width:0.5208333333333334;"/><text fill="#000000" font-family="sans-serif" font-size="6.7708" lengthAdjust="spacing" textLength="47.9167" x="151.0417" y="84.112">LegalEntityBPN</text><text fill="#000000" font-family="sans-serif" font-size="6.7708" lengthAdjust="spacing" textLength="2.6042" x="148.0507" y="72.2426">*</text><text fill="#000000" font-family="sans-serif" font-size="6.7708" lengthAdjust="spacing" textLength="3.6458" x="146.5776" y="95.9145">1</text></g><!--link LegalEntityState to LegalEntity--><g id="link_LegalEntityState_LegalEntity"><path codeLine="93" d="M85.1771,139.5833 C97.7813,139.5833 102.5156,139.5833 114.75,139.5833 " fill="none" id="LegalEntityState-LegalEntity" style="stroke:#181818;stroke-width:0.5208333333333334;"/><polygon fill="#181818" points="82.0521,139.5833,86.7396,141.6667,84.6563,139.5833,86.7396,137.5,82.0521,139.5833" style="stroke:#181818;stroke-width:0.5208333333333334;"/><polygon fill="#181818" points="121,139.5833,117.875,137.5,114.75,139.5833,117.875,141.6667,121,139.5833" style="stroke:#181818;stroke-width:0.5208333333333334;"/><text fill="#000000" font-family="sans-serif" font-size="6.7708" lengthAdjust="spacing" textLength="19.7917" x="91.6667" y="136.1954">States</text><text fill="#000000" font-family="sans-serif" font-size="6.7708" lengthAdjust="spacing" textLength="2.6042" x="86.27" y="137.8009">*</text><text fill="#000000" font-family="sans-serif" font-size="6.7708" lengthAdjust="spacing" textLength="3.6458" x="113.3437" y="137.793">1</text></g><!--link LegalEntityState to LegalEntityStateType--><g id="link_LegalEntityState_LegalEntityStateType"><path codeLine="94" d="M48.5208,159.2969 C49.9844,176.3229 51.5686,194.8459 53.0321,211.8615 " fill="none" id="LegalEntityState-to-LegalEntityStateType" style="stroke:#181818;stroke-width:0.5208333333333334;"/><polygon fill="none" points="53.5677,218.0885,55.3756,214.7965,53.0321,211.8615,51.2242,215.1536,53.5677,218.0885" style="stroke:#181818;stroke-width:0.5208333333333334;"/><text fill="#000000" font-family="sans-serif" font-size="6.7708" lengthAdjust="spacing" textLength="14.5833" x="52.0833" y="200.7787">Type</text><text fill="#000000" font-family="sans-serif" font-size="6.7708" lengthAdjust="spacing" textLength="2.6042" x="45.9757" y="170.4359">*</text><text fill="#000000" font-family="sans-serif" font-size="6.7708" lengthAdjust="spacing" textLength="3.6458" x="49.3049" y="212.5438">1</text></g><!--link LegalEntity to LegalEntityIdentifier--><g id="link_LegalEntity_LegalEntityIdentifier"><path codeLine="96" d="M187.0738,182.4804 C198.4905,196.3033 204.9791,204.1632 214.4999,215.6944 " fill="none" id="LegalEntity-LegalEntityIdentifier" style="stroke:#181818;stroke-width:0.5208333333333334;"/><polygon fill="#181818" points="183.0938,177.6615,183.4775,181.3976,187.0738,182.4804,186.6901,178.7442,183.0938,177.6615" style="stroke:#181818;stroke-width:0.5208333333333334;"/><polygon fill="#181818" points="216.4896,218.1042,215.1116,213.1631,214.8316,216.096,211.8986,215.8159,216.4896,218.1042" style="stroke:#181818;stroke-width:0.5208333333333334;"/><text fill="#000000" font-family="sans-serif" font-size="6.7708" lengthAdjust="spacing" textLength="28.6458" x="202.0833" y="200.7787">Identifiers</text><text fill="#000000" font-family="sans-serif" font-size="6.7708" lengthAdjust="spacing" textLength="3.6458" x="182.1386" y="188.6013">1</text><text fill="#000000" font-family="sans-serif" font-size="6.7708" lengthAdjust="spacing" textLength="2.6042" x="210.8387" y="212.5622">*</text></g><!--link LegalEntityIdentifier to IdentifierType--><g id="link_LegalEntityIdentifier_IdentifierType"><path codeLine="97" d="M232.2917,257.401 C232.2917,269.4115 232.2917,278.7552 232.2917,291.5677 " fill="none" id="LegalEntityIdentifier-to-IdentifierType" style="stroke:#181818;stroke-width:0.5208333333333334;"/><polygon fill="none" points="232.2917,297.8177,234.375,294.6927,232.2917,291.5677,230.2083,294.6927,232.2917,297.8177" style="stroke:#181818;stroke-width:0.5208333333333334;"/><text fill="#000000" font-family="sans-serif" font-size="6.7708" lengthAdjust="spacing" textLength="14.5833" x="232.8125" y="280.4662">Type</text><text fill="#000000" font-family="sans-serif" font-size="6.7708" lengthAdjust="spacing" textLength="2.6042" x="229.4637" y="268.5276">*</text><text fill="#000000" font-family="sans-serif" font-size="6.7708" lengthAdjust="spacing" textLength="3.6458" x="228.3781" y="292.3495">1</text></g><!--link LegalEntity to LegalForm--><g id="link_LegalEntity_LegalForm"><path codeLine="103" d="M150.2708,177.6615 C149.6042,191.4844 149.1767,200.3302 148.6194,211.8615 " fill="none" id="LegalEntity-to-LegalForm" style="stroke:#181818;stroke-width:0.5208333333333334;"/><polygon fill="none" points="148.3177,218.1042,150.5495,215.0834,148.6194,211.8615,146.3877,214.8822,148.3177,218.1042" style="stroke:#181818;stroke-width:0.5208333333333334;"/><text fill="#000000" font-family="sans-serif" font-size="6.7708" lengthAdjust="spacing" textLength="31.7708" x="149.4792" y="200.7787">LegalForm</text><text fill="#000000" font-family="sans-serif" font-size="6.7708" lengthAdjust="spacing" textLength="2.6042" x="147.3795" y="188.6013">*</text><text fill="#000000" font-family="sans-serif" font-size="6.7708" lengthAdjust="spacing" textLength="11.4583" x="136.0031" y="212.5622">0..1</text></g><!--link LegalEntity to LegalAddress--><g id="link_LegalEntity_LegalAddress"><path codeLine="105" d="M183.125,139.5833 C201.6094,139.5833 221.8646,139.5833 240.3438,139.5833 " fill="none" id="LegalEntity-to-LegalAddress" style="stroke:#181818;stroke-width:0.5208333333333334;"/><polygon fill="#181818" points="243.4688,139.5833,238.7813,137.5,240.8646,139.5833,238.7813,141.6667,243.4688,139.5833" style="stroke:#181818;stroke-width:0.5208333333333334;"/><text fill="#000000" font-family="sans-serif" font-size="6.7708" lengthAdjust="spacing" textLength="41.1458" x="192.7083" y="136.1954">LegalAddress</text><text fill="#000000" font-family="sans-serif" font-size="6.7708" lengthAdjust="spacing" textLength="3.6458" x="187.3358" y="137.7681">1</text><text fill="#000000" font-family="sans-serif" font-size="6.7708" lengthAdjust="spacing" textLength="3.6458" x="235.6161" y="137.7566">1</text></g><!--reverse link Address to LegalAddress--><g id="link_Address_LegalAddress"><path codeLine="106" d="M268.6754,68.9346 C271.8056,73.7315 269.5573,71.1927 271.3542,76.5625 C277.6198,95.3177 276.5573,118.9948 275.4167,131.1146 " fill="none" id="Address-backto-LegalAddress" style="stroke:#181818;stroke-width:0.5208333333333334;"/><polygon fill="none" points="263.5521,61.0833,266.0583,70.6424,271.2925,67.2268,263.5521,61.0833" style="stroke:#181818;stroke-width:0.5208333333333334;"/></g><!--SRC=[hLHBRvmm4Bxlhx3s4YdgqhHgBXmY4PgessutKKbpd-3PO2qOP9iqzF7VOniCXcNxa2gjbXbxnjzyyv9xnYiGK11QCN9-jbXKaExX4SboWu-Gaokkc6e8S4g-u0u5yXJbalnO48BjbRNhpCmn8PUtsuqLxDKM2hHQafL2zTfQte9GB6KLSFKU5DZJM20ef96osjUAQiqglnO3Oi8KTb0MBEd480WcbX6b0gNqZQD3upG7RUFnI1Jq2FUGCtejocBGxie1fYuE7E-QoZb7gM9F7LyEJfa7NLCJz8wX691hbojPC_vuMT9cGd1myb3lCCquIo7_X8qzw9FkaJuX2lR8ILahijFqoDjtmTdvAmAIy5Bfy104OJkYCYQ9_XKbnJn7Ij9I24nLtjX7MXgn-TTXfA1OoMqO9nu38yVQtueTkatTsA-dOEotKNpLYzUzj8wJJaxMyV2UtulNfIYEPMA-wdsRTB6P14YbUnu4PTyrvmQLpxRaEqRD9CH2jw9Wq4UTP22GNZOttpWAnpp3T6yEhvwrCOSyAMkHkhniw-81nStEUEeQVqQZokvo0r9vQEQXI3b7V3vwDvnly0bpF- -66okg70kTCqtjzU-O-gsT2bQfUnsadjUUhp_X9vCP7vUwzJTTq3j70XvSm8t8E_43S4V_ezuDVIQK4ziQTg-xqYtV1C7fagpegjJoShILGb_JAq2xsHMo_6k71HdT6_lJLRwwi4ySB8wGsAySUxLtnp27pH4Iyz6-iw3q4DHR7A6t42RmdjKeXia6yT7_queuJcAoDiB9GTi64wDHy3FxusZwUh-p872vjwiY7EIvGg-4YTPvk7uBHwfpSxUhUlNpmlNc7tRA0LxTuSsicN3cy9_6-h0MCqqyclIGZ7GvVMPiRRFS5SUR-D1J5dfkCqs15AYoaifM6QMlQ9VW2m00]--></g></svg>