<?xml version="1.0" encoding="us-ascii" standalone="no"?><svg xmlns="http://www.w3.org/2000/svg" xmlns:xlink="http://www.w3.org/1999/xlink" contentStyleType="text/css" height="371.875px" preserveAspectRatio="none" style="width:450px;height:371px;background:#FFFFFF;" version="1.1" viewBox="0 0 450 371" width="450px" zoomAndPan="magnify"><defs/><g><!--cluster Business Parter (Legal and Site Main Address)--><g id="cluster_Business Parter (Legal and Site Main Address)"><path d="M4.4271,3.125 L174.2188,3.125 A1.9531,1.9531 0 0 1 175.5208,4.4271 L179.1667,15.4215 L445.0521,15.4215 A1.3021,1.3021 0 0 1 446.3542,16.7236 L446.3542,366.9271 A1.3021,1.3021 0 0 1 445.0521,368.2292 L4.4271,368.2292 A1.3021,1.3021 0 0 1 3.125,366.9271 L3.125,4.4271 A1.3021,1.3021 0 0 1 4.4271,3.125 " fill="none" style="stroke:#000000;stroke-width:0.78125;"/><line style="stroke:#000000;stroke-width:0.78125;" x1="3.125" x2="179.1667" y1="15.4215" y2="15.4215"/><text fill="#000000" font-family="sans-serif" font-size="7.2917" font-weight="bold" lengthAdjust="spacing" textLength="169.2708" x="5.2083" y="11.736">Business Parter (Legal and Site Main Address)</text></g><g id="elem_LegalEntity"><rect fill="#F1F1F1" height="33.7646" style="stroke:#181818;stroke-width:0.2604166666666667;" width="142.7083" x="213.0208" y="63.0208"/><text fill="#000000" font-family="sans-serif" font-size="7.2917" lengthAdjust="spacing" textLength="36.4583" x="266.1458" y="71.6319">LegalEntity</text><line style="stroke:#181818;stroke-width:0.2604166666666667;" x1="213.5417" x2="355.2083" y1="74.2757" y2="74.2757"/><text fill="#000000" font-family="sans-serif" font-size="7.2917" lengthAdjust="spacing" textLength="136.4583" x="216.1458" y="83.9284">LegalName = "Schaeffler Group USA Inc."</text><text fill="#000000" font-family="sans-serif" font-size="7.2917" lengthAdjust="spacing" textLength="50" x="216.1458" y="93.1">ShortName = ""</text></g><g id="elem_Address1"><rect fill="#F1F1F1" height="70.4508" style="stroke:#181818;stroke-width:0.2604166666666667;" width="100.5208" x="93.4896" y="289.5833"/><text fill="#000000" font-family="sans-serif" font-size="7.2917" lengthAdjust="spacing" textLength="31.25" x="128.125" y="298.1944">Address1</text><line style="stroke:#181818;stroke-width:0.2604166666666667;" x1="94.0104" x2="193.4896" y1="300.8382" y2="300.8382"/><text fill="#000000" font-family="sans-serif" font-size="7.2917" lengthAdjust="spacing" textLength="64.5833" x="96.6146" y="310.4909">Name = "Fort Mill 1"</text><text fill="#000000" font-family="sans-serif" font-size="7.2917" lengthAdjust="spacing" textLength="48.9583" x="96.6146" y="319.6625">Country = "US"</text><text fill="#000000" font-family="sans-serif" font-size="7.2917" lengthAdjust="spacing" textLength="52.0833" x="96.6146" y="328.834">City = "Fort Mill"</text><text fill="#000000" font-family="sans-serif" font-size="7.2917" lengthAdjust="spacing" textLength="72.3958" x="96.6146" y="338.0056">PostalCode = "88046"</text><text fill="#000000" font-family="sans-serif" font-size="7.2917" lengthAdjust="spacing" textLength="94.2708" x="96.6146" y="347.1771">Street = "Springhill Farm Rd"</text><text fill="#000000" font-family="sans-serif" font-size="7.2917" lengthAdjust="spacing" textLength="72.3958" x="96.6146" y="356.3487">HouseNumber = "308"</text></g><g id="elem_Address2"><rect fill="#F1F1F1" height="70.4508" style="stroke:#181818;stroke-width:0.2604166666666667;" width="100.5208" x="258.5938" y="178.6458"/><text fill="#000000" font-family="sans-serif" font-size="7.2917" lengthAdjust="spacing" textLength="31.25" x="293.2292" y="187.2569">Address2</text><line style="stroke:#181818;stroke-width:0.2604166666666667;" x1="259.1146" x2="358.5938" y1="189.9007" y2="189.9007"/><text fill="#000000" font-family="sans-serif" font-size="7.2917" lengthAdjust="spacing" textLength="64.5833" x="261.7188" y="199.5534">Name = "Fort Mill 2"</text><text fill="#000000" font-family="sans-serif" font-size="7.2917" lengthAdjust="spacing" textLength="48.9583" x="261.7188" y="208.725">Country = "US"</text><text fill="#000000" font-family="sans-serif" font-size="7.2917" lengthAdjust="spacing" textLength="52.0833" x="261.7188" y="217.8965">City = "Fort Mill"</text><text fill="#000000" font-family="sans-serif" font-size="7.2917" lengthAdjust="spacing" textLength="72.3958" x="261.7188" y="227.0681">PostalCode = "88046"</text><text fill="#000000" font-family="sans-serif" font-size="7.2917" lengthAdjust="spacing" textLength="94.2708" x="261.7188" y="236.2396">Street = "Springhill Farm Rd"</text><text fill="#000000" font-family="sans-serif" font-size="7.2917" lengthAdjust="spacing" textLength="72.3958" x="261.7188" y="245.4112">HouseNumber = "308"</text></g><g id="elem_Site1"><rect fill="#F1F1F1" height="24.5931" style="stroke:#181818;stroke-width:0.2604166666666667;" width="152.6042" x="67.9688" y="201.5625"/><text fill="#000000" font-family="sans-serif" font-size="7.2917" lengthAdjust="spacing" textLength="16.6667" x="135.9375" y="210.1735">Site1</text><line style="stroke:#181818;stroke-width:0.2604166666666667;" x1="68.4896" x2="220.0521" y1="212.8174" y2="212.8174"/><text fill="#000000" font-family="sans-serif" font-size="7.2917" lengthAdjust="spacing" textLength="146.3542" x="71.0938" y="222.4701">Name = "Schaeffler Group USA Inc. Fort Mill"</text></g><g id="elem_BusinessPartner"><rect fill="#F1F1F1" height="116.3086" style="stroke:#181818;stroke-width:0.2604166666666667;" width="150" x="26.0417" y="21.875"/><text fill="#000000" font-family="sans-serif" font-size="7.2917" lengthAdjust="spacing" textLength="54.1667" x="73.9583" y="30.486">BusinessPartner</text><line style="stroke:#181818;stroke-width:0.2604166666666667;" x1="26.5625" x2="175.5208" y1="33.1299" y2="33.1299"/><text fill="#000000" font-family="sans-serif" font-size="7.2917" lengthAdjust="spacing" textLength="143.75" x="29.1667" y="42.7826">AddressType = "LegalAndSiteMainAddress"</text><text fill="#000000" font-family="sans-serif" font-size="7.2917" lengthAdjust="spacing" textLength="46.3542" x="29.1667" y="51.9541">NameParts = [</text><text fill="#000000" font-family="sans-serif" font-size="7.2917" lengthAdjust="spacing" textLength="93.2292" x="29.1667" y="61.1257">"Schaeffler Group USA Inc.",</text><text fill="#000000" font-family="sans-serif" font-size="7.2917" lengthAdjust="spacing" textLength="39.5833" x="29.1667" y="70.2972">"Fort Mill 1",</text><text fill="#000000" font-family="sans-serif" font-size="7.2917" lengthAdjust="spacing" textLength="7.2917" x="29.1667" y="79.4688">"",</text><text fill="#000000" font-family="sans-serif" font-size="7.2917" lengthAdjust="spacing" textLength="7.2917" x="29.1667" y="88.6403">""]</text><text fill="#000000" font-family="sans-serif" font-size="7.2917" lengthAdjust="spacing" textLength="48.9583" x="29.1667" y="97.8119">Country = "US"</text><text fill="#000000" font-family="sans-serif" font-size="7.2917" lengthAdjust="spacing" textLength="52.0833" x="29.1667" y="106.9834">City = "Fort Mill"</text><text fill="#000000" font-family="sans-serif" font-size="7.2917" lengthAdjust="spacing" textLength="72.3958" x="29.1667" y="116.155">PostalCode = "88046"</text><text fill="#000000" font-family="sans-serif" font-size="7.2917" lengthAdjust="spacing" textLength="94.2708" x="29.1667" y="125.3265">Street = "Springhill Farm Rd"</text><text fill="#000000" font-family="sans-serif" font-size="7.2917" lengthAdjust="spacing" textLength="72.3958" x="29.1667" y="134.4981">HouseNumber = "308"</text></g><!--link BusinessPartner to LegalEntity--><g id="link_BusinessPartner_LegalEntity"><path codeLine="46" d="M176.1406,79.9479 C188.3021,79.9479 197.7448,79.9479 209.8177,79.9479 " fill="none" id="BusinessPartner-to-LegalEntity" style="stroke:#181818;stroke-width:0.5208333333333334;"/><polygon fill="#181818" points="212.9427,79.9479,208.2552,77.8646,210.3385,79.9479,208.2552,82.0313,212.9427,79.9479" style="stroke:#181818;stroke-width:0.5208333333333334;"/><text fill="#000000" font-family="sans-serif" font-size="6.7708" lengthAdjust="spacing" textLength="17.7083" x="185.6771" y="76.56">BPNL</text></g><!--link BusinessPartner to Site1--><g id="link_BusinessPartner_Site1"><path codeLine="47" d="M119.8125,138.1406 C127.5156,161.8021 134.7415,183.9971 139.4185,198.3721 " fill="none" id="BusinessPartner-to-Site1" style="stroke:#181818;stroke-width:0.5208333333333334;"/><polygon fill="#181818" points="140.3854,201.3438,140.9162,196.2417,139.5797,198.8674,136.954,197.5308,140.3854,201.3438" style="stroke:#181818;stroke-width:0.5208333333333334;"/><text fill="#000000" font-family="sans-serif" font-size="6.7708" lengthAdjust="spacing" textLength="18.75" x="128.125" y="161.1954">BPNS</text></g><!--reverse link Address1 to BusinessPartner--><g id="link_Address1_BusinessPartner"><path codeLine="48" d="M90.7739,299.7267 C69.951,287.409 50.6771,271.6146 39.0625,248.9583 C20.8594,213.4583 36.3542,171.3333 56.401,138.0885 " fill="none" id="Address1-backto-BusinessPartner" style="stroke:#181818;stroke-width:0.5208333333333334;"/><polygon fill="#181818" points="93.4635,301.3177,90.4898,297.138,91.2222,299.9918,88.3684,300.7242,93.4635,301.3177" style="stroke:#181818;stroke-width:0.5208333333333334;"/><text fill="#000000" font-family="sans-serif" font-size="6.7708" lengthAdjust="spacing" textLength="18.75" x="39.5833" y="216.6641">BPNA</text></g><!--link LegalEntity to Address1--><g id="link_LegalEntity_Address1"><path codeLine="49" d="M303.9375,96.8802 C338.8646,128.1771 405.0104,197.8333 368.2292,248.9583 C328.7396,303.8438 250.4286,319.0358 197.262,323.0462 " fill="none" id="LegalEntity-to-Address1" style="stroke:#181818;stroke-width:0.5208333333333334;stroke-dasharray:7.0,7.0;"/><polygon fill="#181818" points="194.1458,323.2813,198.9768,325.0061,196.7426,323.0854,198.6634,320.8512,194.1458,323.2813" style="stroke:#181818;stroke-width:0.5208333333333334;"/><text fill="#000000" font-family="sans-serif" font-size="6.7708" lengthAdjust="spacing" textLength="41.1458" x="379.1667" y="216.6641">LegalAddress</text></g><!--link Site1 to Address1--><g id="link_Site1_Address1"><path codeLine="50" d="M131.5156,226.1563 C122.375,235.5625 110.8177,249.5885 105.7292,264.5833 C102.8281,273.1302 103.2604,278.924 107.4427,286.7781 " fill="none" id="Site1-to-Address1" style="stroke:#181818;stroke-width:0.5208333333333334;stroke-dasharray:7.0,7.0;"/><polygon fill="#181818" points="108.9115,289.5365,108.5472,284.4198,107.6875,287.2379,104.8694,286.3782,108.9115,289.5365" style="stroke:#181818;stroke-width:0.5208333333333334;"/><text fill="#000000" font-family="sans-serif" font-size="6.7708" lengthAdjust="spacing" textLength="51.5625" x="106.25" y="272.1329">SiteMainAddress</text></g><!--reverse link Site1 to Address1--><g id="link_Site1_Address1"><path codeLine="51" d="M151.8667,228.8722 C157.4969,240.7836 163.151,257.0156 160.4167,273.9583 C159.5885,279.0885 158.3125,284.3958 156.8333,289.5625 " fill="none" id="Site1-backto-Address1" style="stroke:#181818;stroke-width:0.5208333333333334;"/><polygon fill="#181818" points="150.5313,226.0469,150.6509,231.1751,151.6441,228.4013,154.4179,229.3945,150.5313,226.0469" style="stroke:#181818;stroke-width:0.5208333333333334;"/><text fill="#000000" font-family="sans-serif" font-size="6.7708" lengthAdjust="spacing" textLength="18.75" x="161.4583" y="272.1329">BPNS</text></g><!--reverse link Site1 to Address2--><g id="link_Site1_Address2"><path codeLine="52" d="M223.9063,213.8021 C236.6667,213.8021 246.4844,213.8021 258.3854,213.8021 " fill="none" id="Site1-backto-Address2" style="stroke:#181818;stroke-width:0.5208333333333334;"/><polygon fill="#181818" points="220.7813,213.8021,225.4688,215.8854,223.3854,213.8021,225.4688,211.7188,220.7813,213.8021" style="stroke:#181818;stroke-width:0.5208333333333334;"/><text fill="#000000" font-family="sans-serif" font-size="6.7708" lengthAdjust="spacing" textLength="18.75" x="230.2083" y="210.4141">BPNS</text></g><!--reverse link LegalEntity to Site1--><g id="link_LegalEntity_Site1"><path codeLine="53" d="M264.7894,99.0353 C236.1592,126.176 181.9167,177.5938 156.8073,201.401 " fill="none" id="LegalEntity-backto-Site1" style="stroke:#181818;stroke-width:0.5208333333333334;"/><polygon fill="#181818" points="267.0573,96.8854,262.2221,98.5984,265.1674,98.677,265.0887,101.6222,267.0573,96.8854" style="stroke:#181818;stroke-width:0.5208333333333334;"/><text fill="#000000" font-family="sans-serif" font-size="6.7708" lengthAdjust="spacing" textLength="17.7083" x="206.25" y="161.1954">BPNL</text></g><!--SRC=[pPFBRi8m44Nt_efHLgrK4D27KALM2gYqbG2XfgogBanim2Mn8zjPeAh_NZyII5BIDRjuvlZEzSn4xHZFiCGfa8p1RG-X3CSxlA4GZ7B5E5KA5bXgAk5YIZSu0Sm9H4nJc6768IH46kOoW6y485PVDDRWm2UkcTwxCFZ87ASK7Y28uYscwtLYD9-bo3DOHY6yyhWRE3RQ2gbBreP-q56wgDSlT4jiOgx0Z2K9zBt8MEHSoxtDBQCYPErKMHzU2ALnCXR42Gs7lPkxmeUMb6fdE9ECRxPMVe9b2c_44oyYLtIUfolp4eDTzuOjTWUjTWTdPTVEjTdQrcb1pLbLfjmSkpZStFE2HI_UzvdJTIiHSc9hsbKgqi6XkBsj3FdX8l3Vtbn1oLGNuHYjVdwUHSERBUh8pcFjlxc7qM8-RIFze1mJdM9omnn-5OU526hwNTAj8NuS_cnGNw09DMQ5u9Xq9Hks3jlVIVuc_T5TE_7k7_GB]--></g></svg>