<?xml version="1.0" encoding="UTF-8" standalone="no"?><svg xmlns="http://www.w3.org/2000/svg" xmlns:xlink="http://www.w3.org/1999/xlink" contentStyleType="text/css" height="232.8125px" preserveAspectRatio="none" style="width:194px;height:232px;background:#FFFFFF;" version="1.1" viewBox="0 0 194 232" width="194.7917px" zoomAndPan="magnify"><defs/><g><!--MD5=[96f21603881ed89223aaabc526237b20]
cluster Sharing State Entry and References--><g id="cluster_Sharing State Entry and References"><path d="M4.4271,3.125 L135.1563,3.125 A1.9531,1.9531 0 0 1 136.4583,4.4271 L140.1042,15.4215 L189.8438,15.4215 A1.3021,1.3021 0 0 1 191.1458,16.7236 L191.1458,227.8646 A1.3021,1.3021 0 0 1 189.8438,229.1667 L4.4271,229.1667 A1.3021,1.3021 0 0 1 3.125,227.8646 L3.125,4.4271 A1.3021,1.3021 0 0 1 4.4271,3.125 " style="stroke:#000000;stroke-width:0.78125;fill:none;"/><line style="stroke:#000000;stroke-width:0.78125;fill:none;" x1="3.125" x2="140.1042" y1="15.4215" y2="15.4215"/><text fill="#000000" font-family="sans-serif" font-size="7.2917" font-weight="bold" lengthAdjust="spacing" textLength="130.2083" x="5.2083" y="11.736">Sharing State Entry and References</text></g><!--MD5=[c637aa948e80933875c54e7f5e23ee1d]
class BusinessPartner--><g id="elem_BusinessPartner"><rect codeLine="5" fill="#F1F1F1" height="39.1764" id="BusinessPartner" rx="1.3021" ry="1.3021" style="stroke:#181818;stroke-width:0.2604166666666667;" width="70.8333" x="55.2083" y="21.875"/><ellipse cx="63.0208" cy="30.2083" fill="#ADD1B2" rx="5.7292" ry="5.7292" style="stroke:#181818;stroke-width:0.5208333333333334;"/><path d="M62.4268,30.6234 L62.4268,31.9255 L64.681,31.9255 L64.681,31.4453 Q64.681,31.1279 64.8031,30.9896 Q64.9333,30.8512 65.1286,30.8512 Q65.3239,30.8512 65.446,30.9896 Q65.568,31.1279 65.568,31.4453 L65.568,32.8125 L61.4014,32.8125 Q61.0758,32.8125 60.9375,32.6904 Q60.8073,32.5684 60.8073,32.3649 Q60.8073,32.1696 60.9456,32.0475 Q61.084,31.9255 61.4014,31.9255 L61.5397,31.9255 L61.5397,28.4587 L61.4014,28.4587 Q61.0758,28.4587 60.9375,28.3366 Q60.8073,28.2145 60.8073,28.0111 Q60.8073,27.8158 60.9375,27.6937 Q61.0758,27.5716 61.4014,27.5716 L65.3727,27.5716 L65.3727,28.9225 Q65.3727,29.2399 65.2507,29.3783 Q65.1367,29.5085 64.9333,29.5085 Q64.738,29.5085 64.6159,29.3783 Q64.4938,29.2399 64.4938,28.9225 L64.4938,28.4587 L62.4268,28.4587 L62.4268,29.7363 L63.1999,29.7363 Q63.1999,29.3945 63.265,29.2969 Q63.4033,29.0853 63.6475,29.0853 Q63.8428,29.0853 63.9648,29.2236 Q64.0869,29.3538 64.0869,29.6712 L64.0869,30.6966 Q64.0869,30.9814 64.0218,31.0791 Q63.8835,31.2826 63.6475,31.2826 Q63.4033,31.2826 63.265,31.071 Q63.1999,30.9733 63.1999,30.6234 L62.4268,30.6234 Z " fill="#000000"/><text fill="#000000" font-family="sans-serif" font-size="7.2917" lengthAdjust="spacing" textLength="54.1667" x="70.3125" y="33.1919">BusinessPartner</text><line style="stroke:#181818;stroke-width:0.2604166666666667;" x1="55.7292" x2="125.5208" y1="38.5417" y2="38.5417"/><text fill="#000000" font-family="sans-serif" font-size="7.2917" lengthAdjust="spacing" textLength="33.3333" x="58.3333" y="48.1944">ExternalID</text><text fill="#000000" font-family="sans-serif" font-size="7.2917" lengthAdjust="spacing" textLength="6.25" x="58.3333" y="57.3659">...</text></g><!--MD5=[4fb22a566d7437fc63eee50607836343]
class SharingStateEntry--><g id="elem_SharingStateEntry"><rect codeLine="10" fill="#F1F1F1" height="30.0049" id="SharingStateEntry" rx="1.3021" ry="1.3021" style="stroke:#181818;stroke-width:0.2604166666666667;" width="89.0625" x="46.0938" y="101.5625"/><ellipse cx="59.5313" cy="109.8958" fill="#ADD1B2" rx="5.7292" ry="5.7292" style="stroke:#181818;stroke-width:0.5208333333333334;"/><path d="M58.9372,110.3109 L58.9372,111.613 L61.1914,111.613 L61.1914,111.1328 Q61.1914,110.8154 61.3135,110.6771 Q61.4437,110.5387 61.639,110.5387 Q61.8343,110.5387 61.9564,110.6771 Q62.0785,110.8154 62.0785,111.1328 L62.0785,112.5 L57.9118,112.5 Q57.5863,112.5 57.4479,112.3779 Q57.3177,112.2559 57.3177,112.0524 Q57.3177,111.8571 57.4561,111.735 Q57.5944,111.613 57.9118,111.613 L58.0501,111.613 L58.0501,108.1462 L57.9118,108.1462 Q57.5863,108.1462 57.4479,108.0241 Q57.3177,107.902 57.3177,107.6986 Q57.3177,107.5033 57.4479,107.3812 Q57.5863,107.2591 57.9118,107.2591 L61.8831,107.2591 L61.8831,108.61 Q61.8831,108.9274 61.7611,109.0658 Q61.6471,109.196 61.4437,109.196 Q61.2484,109.196 61.1263,109.0658 Q61.0042,108.9274 61.0042,108.61 L61.0042,108.1462 L58.9372,108.1462 L58.9372,109.4238 L59.7103,109.4238 Q59.7103,109.082 59.7754,108.9844 Q59.9137,108.7728 60.1579,108.7728 Q60.3532,108.7728 60.4753,108.9111 Q60.5973,109.0413 60.5973,109.3587 L60.5973,110.3841 Q60.5973,110.6689 60.5322,110.7666 Q60.3939,110.9701 60.1579,110.9701 Q59.9137,110.9701 59.7754,110.7585 Q59.7103,110.6608 59.7103,110.3109 L58.9372,110.3109 Z " fill="#000000"/><text fill="#000000" font-family="sans-serif" font-size="7.2917" lengthAdjust="spacing" textLength="59.8958" x="68.0729" y="112.8794">SharingStateEntry</text><line style="stroke:#181818;stroke-width:0.2604166666666667;" x1="46.6146" x2="134.6354" y1="118.2292" y2="118.2292"/><text fill="#000000" font-family="sans-serif" font-size="7.2917" lengthAdjust="spacing" textLength="82.8125" x="49.2188" y="127.8819">SharingProcessStartedAt</text></g><!--MD5=[6bd4da86628e9a8c8bd4ebdda3e72ee3]
class SharingStateType--><g id="elem_SharingStateType"><rect codeLine="14" fill="#F1F1F1" height="48.348" id="SharingStateType" rx="1.3021" ry="1.3021" style="stroke:#181818;stroke-width:0.2604166666666667;" width="76.0417" x="11.4583" y="172.3958"/><ellipse cx="19.2708" cy="180.7292" fill="#EB937F" rx="5.7292" ry="5.7292" style="stroke:#181818;stroke-width:0.5208333333333334;"/><path d="M18.6768,181.1442 L18.6768,182.4463 L20.931,182.4463 L20.931,181.9661 Q20.931,181.6488 21.0531,181.5104 Q21.1833,181.3721 21.3786,181.3721 Q21.5739,181.3721 21.696,181.5104 Q21.818,181.6488 21.818,181.9661 L21.818,183.3333 L17.6514,183.3333 Q17.3258,183.3333 17.1875,183.2113 Q17.0573,183.0892 17.0573,182.8857 Q17.0573,182.6904 17.1956,182.5684 Q17.334,182.4463 17.6514,182.4463 L17.7897,182.4463 L17.7897,178.9795 L17.6514,178.9795 Q17.3258,178.9795 17.1875,178.8574 Q17.0573,178.7354 17.0573,178.5319 Q17.0573,178.3366 17.1875,178.2145 Q17.3258,178.0924 17.6514,178.0924 L21.6227,178.0924 L21.6227,179.4434 Q21.6227,179.7607 21.5007,179.8991 Q21.3867,180.0293 21.1833,180.0293 Q20.988,180.0293 20.8659,179.8991 Q20.7438,179.7607 20.7438,179.4434 L20.7438,178.9795 L18.6768,178.9795 L18.6768,180.2572 L19.4499,180.2572 Q19.4499,179.9154 19.515,179.8177 Q19.6533,179.6061 19.8975,179.6061 Q20.0928,179.6061 20.2148,179.7445 Q20.3369,179.8747 20.3369,180.1921 L20.3369,181.2174 Q20.3369,181.5023 20.2718,181.5999 Q20.1335,181.8034 19.8975,181.8034 Q19.6533,181.8034 19.515,181.5918 Q19.4499,181.4941 19.4499,181.1442 L18.6768,181.1442 Z " fill="#000000"/><text fill="#000000" font-family="sans-serif" font-size="7.2917" lengthAdjust="spacing" textLength="59.375" x="26.5625" y="183.7128">SharingStateType</text><line style="stroke:#181818;stroke-width:0.2604166666666667;" x1="11.9792" x2="86.9792" y1="189.0625" y2="189.0625"/><text fill="#000000" font-family="sans-serif" font-size="7.2917" lengthAdjust="spacing" textLength="27.0833" x="14.5833" y="198.7152">Pending</text><text fill="#000000" font-family="sans-serif" font-size="7.2917" lengthAdjust="spacing" textLength="27.6042" x="14.5833" y="207.8868">Success</text><text fill="#000000" font-family="sans-serif" font-size="7.2917" lengthAdjust="spacing" textLength="16.6667" x="14.5833" y="217.0583">Error</text></g><!--MD5=[c315662f16dc10ca6eed12db2fb13539]
class SharingErrorCode--><g id="elem_SharingErrorCode"><rect codeLine="20" fill="#F1F1F1" height="48.348" id="SharingErrorCode" rx="1.3021" ry="1.3021" style="stroke:#181818;stroke-width:0.2604166666666667;" width="76.5625" x="105.9896" y="172.3958"/><ellipse cx="113.8021" cy="180.7292" fill="#EB937F" rx="5.7292" ry="5.7292" style="stroke:#181818;stroke-width:0.5208333333333334;"/><path d="M113.208,181.1442 L113.208,182.4463 L115.4622,182.4463 L115.4622,181.9661 Q115.4622,181.6488 115.5843,181.5104 Q115.7145,181.3721 115.9098,181.3721 Q116.1051,181.3721 116.2272,181.5104 Q116.3493,181.6488 116.3493,181.9661 L116.3493,183.3333 L112.1826,183.3333 Q111.8571,183.3333 111.7188,183.2113 Q111.5885,183.0892 111.5885,182.8857 Q111.5885,182.6904 111.7269,182.5684 Q111.8652,182.4463 112.1826,182.4463 L112.321,182.4463 L112.321,178.9795 L112.1826,178.9795 Q111.8571,178.9795 111.7188,178.8574 Q111.5885,178.7354 111.5885,178.5319 Q111.5885,178.3366 111.7188,178.2145 Q111.8571,178.0924 112.1826,178.0924 L116.154,178.0924 L116.154,179.4434 Q116.154,179.7607 116.0319,179.8991 Q115.918,180.0293 115.7145,180.0293 Q115.5192,180.0293 115.3971,179.8991 Q115.2751,179.7607 115.2751,179.4434 L115.2751,178.9795 L113.208,178.9795 L113.208,180.2572 L113.9811,180.2572 Q113.9811,179.9154 114.0462,179.8177 Q114.1846,179.6061 114.4287,179.6061 Q114.624,179.6061 114.7461,179.7445 Q114.8682,179.8747 114.8682,180.1921 L114.8682,181.2174 Q114.8682,181.5023 114.8031,181.5999 Q114.6647,181.8034 114.4287,181.8034 Q114.1846,181.8034 114.0462,181.5918 Q113.9811,181.4941 113.9811,181.1442 L113.208,181.1442 Z " fill="#000000"/><text fill="#000000" font-family="sans-serif" font-size="7.2917" lengthAdjust="spacing" textLength="59.8958" x="121.0938" y="183.7128">SharingErrorCode</text><line style="stroke:#181818;stroke-width:0.2604166666666667;" x1="106.5104" x2="182.0313" y1="189.0625" y2="189.0625"/><text fill="#000000" font-family="sans-serif" font-size="7.2917" lengthAdjust="spacing" textLength="68.75" x="109.1146" y="198.7152">SharingProcessError</text><text fill="#000000" font-family="sans-serif" font-size="7.2917" lengthAdjust="spacing" textLength="52.0833" x="109.1146" y="207.8868">SharingTimeout</text><text fill="#000000" font-family="sans-serif" font-size="7.2917" lengthAdjust="spacing" textLength="45.3125" x="109.1146" y="217.0583">BPNNotInPool</text></g><!--MD5=[e3475a6949f16edc934fe45ea0b6ed31]
reverse link BusinessPartner to SharingStateEntry--><g id="link_BusinessPartner_SharingStateEntry"><path codeLine="26" d="M90.625,63.7552 C90.625,75.9375 90.625,90.776 90.625,101.5521 " fill="none" id="BusinessPartner-backto-SharingStateEntry" style="stroke:#181818;stroke-width:0.5208333333333334;"/><polygon fill="#181818" points="90.625,61.0417,88.5417,65.7292,90.625,63.6458,92.7083,65.7292,90.625,61.0417" style="stroke:#181818;stroke-width:0.5208333333333334;"/><text fill="#000000" font-family="sans-serif" font-size="6.7708" lengthAdjust="spacing" textLength="31.25" x="91.1458" y="84.112">ExternalID</text><text fill="#000000" font-family="sans-serif" font-size="6.7708" lengthAdjust="spacing" textLength="3.6458" x="86.6545" y="72.3163">1</text><text fill="#000000" font-family="sans-serif" font-size="6.7708" lengthAdjust="spacing" textLength="2.6042" x="87.7197" y="95.8334">*</text></g><!--MD5=[6c97e9052700f9c58f6a488d3740c981]
link SharingStateEntry to SharingStateType--><g id="link_SharingStateEntry_SharingStateType"><path codeLine="28" d="M63.9167,131.9167 C58.5521,136.1771 53.6198,141.3438 50.5208,147.3958 C47.7188,152.8646 46.4271,159.151 46.0052,165.3542 " fill="none" id="SharingStateEntry-to-SharingStateType" style="stroke:#181818;stroke-width:0.5208333333333334;"/><polygon fill="none" points="45.875,172.2656,48.0163,169.1801,45.9917,166.0167,43.8504,169.1023,45.875,172.2656" style="stroke:#181818;stroke-width:0.5208333333333334;"/><text fill="#000000" font-family="sans-serif" font-size="6.7708" lengthAdjust="spacing" textLength="53.6458" x="51.0417" y="154.9454">SharingStateType</text><text fill="#000000" font-family="sans-serif" font-size="6.7708" lengthAdjust="spacing" textLength="2.6042" x="55.7979" y="142.8061">*</text><text fill="#000000" font-family="sans-serif" font-size="6.7708" lengthAdjust="spacing" textLength="3.6458" x="41.4321" y="166.7928">1</text></g><!--MD5=[0afa91daa61e6d6b3ab4ec2849067bf4]
link SharingStateEntry to SharingErrorCode--><g id="link_SharingStateEntry_SharingErrorCode"><path codeLine="29" d="M100.5885,131.8438 C107.2292,141.6094 116.1875,154.7865 124.2656,166.6667 " fill="none" id="SharingStateEntry-to-SharingErrorCode" style="stroke:#181818;stroke-width:0.5208333333333334;"/><polygon fill="none" points="128.1406,172.3698,128.1063,168.6142,124.6264,167.2014,124.6607,170.957,128.1406,172.3698" style="stroke:#181818;stroke-width:0.5208333333333334;"/><text fill="#000000" font-family="sans-serif" font-size="6.7708" lengthAdjust="spacing" textLength="53.125" x="117.7083" y="154.9454">SharingErrorCode</text><text fill="#000000" font-family="sans-serif" font-size="6.7708" lengthAdjust="spacing" textLength="2.6042" x="99.6896" y="142.7188">*</text><text fill="#000000" font-family="sans-serif" font-size="6.7708" lengthAdjust="spacing" textLength="11.4583" x="113.3351" y="166.7355">0..1</text></g><!--MD5=[4b28fb0fa2dcdb65852fc3f4a1c15d40]
@startuml sharing-state-entry

skinparam dpi 50

package "Sharing State Entry and References" {
  entity BusinessPartner {
    ExternalID
    ...
  }
  
  entity SharingStateEntry {
    SharingProcessStartedAt
  }

  enum SharingStateType {
    Pending
    Success
    Error
  }

  enum SharingErrorCode {
    SharingProcessError
    SharingTimeout
    BPNNotInPool
  }

  SharingStateEntry "*" -u-> "1" BusinessPartner : ExternalID

  SharingStateEntry "*" -d-o "1" SharingStateType : SharingStateType
  SharingStateEntry "*" -d-o "0..1" SharingErrorCode : SharingErrorCode
}

hide methods
@enduml

PlantUML version 1.2022.5(Sat Apr 30 12:55:52 CEST 2022)
(GPL source distribution)
Java Runtime: OpenJDK Runtime Environment
JVM: OpenJDK 64-Bit Server VM
Default Encoding: Cp1252
Language: en
Country: GB
--></g></svg>