<?xml version="1.0" encoding="us-ascii" standalone="no"?><svg xmlns="http://www.w3.org/2000/svg" xmlns:xlink="http://www.w3.org/1999/xlink" contentStyleType="text/css" height="280.7292px" preserveAspectRatio="none" style="width:157px;height:280px;background:#FFFFFF;" version="1.1" viewBox="0 0 157 280" width="157.2917px" zoomAndPan="magnify"><defs/><g><!--cluster Business Partners--><g id="cluster_Business Partners"><path d="M4.4271,3.125 L72.1354,3.125 A1.9531,1.9531 0 0 1 73.4375,4.4271 L77.0833,15.4215 L152.3438,15.4215 A1.3021,1.3021 0 0 1 153.6458,16.7236 L153.6458,275.7813 A1.3021,1.3021 0 0 1 152.3438,277.0833 L4.4271,277.0833 A1.3021,1.3021 0 0 1 3.125,275.7813 L3.125,4.4271 A1.3021,1.3021 0 0 1 4.4271,3.125 " fill="none" style="stroke:#000000;stroke-width:0.78125;"/><line style="stroke:#000000;stroke-width:0.78125;" x1="3.125" x2="77.0833" y1="15.4215" y2="15.4215"/><text fill="#000000" font-family="sans-serif" font-size="7.2917" font-weight="bold" lengthAdjust="spacing" textLength="67.1875" x="5.2083" y="11.736">Business Partners</text></g><!--class LegalEntity--><g id="elem_LegalEntity"><rect codeLine="5" fill="#F1F1F1" height="39.1764" id="LegalEntity" rx="1.3021" ry="1.3021" style="stroke:#181818;stroke-width:0.2604166666666667;" width="53.125" x="44.7917" y="70.3125"/><ellipse cx="52.6042" cy="78.6458" fill="#ADD1B2" rx="5.7292" ry="5.7292" style="stroke:#181818;stroke-width:0.5208333333333334;"/><path d="M52.0101,79.0609 L52.0101,80.363 L54.2643,80.363 L54.2643,79.8828 Q54.2643,79.5654 54.3864,79.4271 Q54.5166,79.2887 54.7119,79.2887 Q54.9072,79.2887 55.0293,79.4271 Q55.1514,79.5654 55.1514,79.8828 L55.1514,81.25 L50.9847,81.25 Q50.6592,81.25 50.5208,81.1279 Q50.3906,81.0059 50.3906,80.8024 Q50.3906,80.6071 50.529,80.485 Q50.6673,80.363 50.9847,80.363 L51.123,80.363 L51.123,76.8962 L50.9847,76.8962 Q50.6592,76.8962 50.5208,76.7741 Q50.3906,76.652 50.3906,76.4486 Q50.3906,76.2533 50.5208,76.1312 Q50.6592,76.0091 50.9847,76.0091 L54.9561,76.0091 L54.9561,77.36 Q54.9561,77.6774 54.834,77.8158 Q54.7201,77.946 54.5166,77.946 Q54.3213,77.946 54.1992,77.8158 Q54.0771,77.6774 54.0771,77.36 L54.0771,76.8962 L52.0101,76.8962 L52.0101,78.1738 L52.7832,78.1738 Q52.7832,77.832 52.8483,77.7344 Q52.9867,77.5228 53.2308,77.5228 Q53.4261,77.5228 53.5482,77.6611 Q53.6702,77.7913 53.6702,78.1087 L53.6702,79.1341 Q53.6702,79.4189 53.6051,79.5166 Q53.4668,79.7201 53.2308,79.7201 Q52.9867,79.7201 52.8483,79.5085 Q52.7832,79.4108 52.7832,79.0609 L52.0101,79.0609 Z " fill="#000000"/><text fill="#000000" font-family="sans-serif" font-size="7.2917" lengthAdjust="spacing" textLength="36.4583" x="59.8958" y="81.6294">LegalEntity</text><line style="stroke:#181818;stroke-width:0.2604166666666667;" x1="45.3125" x2="97.3958" y1="86.9792" y2="86.9792"/><text fill="#000000" font-family="sans-serif" font-size="7.2917" lengthAdjust="spacing" textLength="18.2292" x="47.9167" y="96.6319">BPNL</text><text fill="#000000" font-family="sans-serif" font-size="7.2917" lengthAdjust="spacing" textLength="6.25" x="47.9167" y="105.8034">...</text></g><!--class Site--><g id="elem_Site"><rect codeLine="10" fill="#F1F1F1" height="39.1764" id="Site" rx="1.3021" ry="1.3021" style="stroke:#181818;stroke-width:0.2604166666666667;" width="29.1667" x="11.4583" y="150"/><ellipse cx="19.2708" cy="158.3333" fill="#ADD1B2" rx="5.7292" ry="5.7292" style="stroke:#181818;stroke-width:0.5208333333333334;"/><path d="M18.6768,158.7484 L18.6768,160.0505 L20.931,160.0505 L20.931,159.5703 Q20.931,159.2529 21.0531,159.1146 Q21.1833,158.9762 21.3786,158.9762 Q21.5739,158.9762 21.696,159.1146 Q21.818,159.2529 21.818,159.5703 L21.818,160.9375 L17.6514,160.9375 Q17.3258,160.9375 17.1875,160.8154 Q17.0573,160.6934 17.0573,160.4899 Q17.0573,160.2946 17.1956,160.1725 Q17.334,160.0505 17.6514,160.0505 L17.7897,160.0505 L17.7897,156.5837 L17.6514,156.5837 Q17.3258,156.5837 17.1875,156.4616 Q17.0573,156.3395 17.0573,156.1361 Q17.0573,155.9408 17.1875,155.8187 Q17.3258,155.6966 17.6514,155.6966 L21.6227,155.6966 L21.6227,157.0475 Q21.6227,157.3649 21.5007,157.5033 Q21.3867,157.6335 21.1833,157.6335 Q20.988,157.6335 20.8659,157.5033 Q20.7438,157.3649 20.7438,157.0475 L20.7438,156.5837 L18.6768,156.5837 L18.6768,157.8613 L19.4499,157.8613 Q19.4499,157.5195 19.515,157.4219 Q19.6533,157.2103 19.8975,157.2103 Q20.0928,157.2103 20.2148,157.3486 Q20.3369,157.4788 20.3369,157.7962 L20.3369,158.8216 Q20.3369,159.1064 20.2718,159.2041 Q20.1335,159.4076 19.8975,159.4076 Q19.6533,159.4076 19.515,159.196 Q19.4499,159.0983 19.4499,158.7484 L18.6768,158.7484 Z " fill="#000000"/><text fill="#000000" font-family="sans-serif" font-size="7.2917" lengthAdjust="spacing" textLength="12.5" x="26.5625" y="161.3169">Site</text><line style="stroke:#181818;stroke-width:0.2604166666666667;" x1="11.9792" x2="40.1042" y1="166.6667" y2="166.6667"/><text fill="#000000" font-family="sans-serif" font-size="7.2917" lengthAdjust="spacing" textLength="18.75" x="14.5833" y="176.3194">BPNS</text><text fill="#000000" font-family="sans-serif" font-size="7.2917" lengthAdjust="spacing" textLength="6.25" x="14.5833" y="185.4909">...</text></g><!--class Address--><g id="elem_Address"><rect codeLine="15" fill="#F1F1F1" height="39.1764" id="Address" rx="1.3021" ry="1.3021" style="stroke:#181818;stroke-width:0.2604166666666667;" width="43.75" x="55.2083" y="229.6875"/><ellipse cx="63.0208" cy="238.0208" fill="#ADD1B2" rx="5.7292" ry="5.7292" style="stroke:#181818;stroke-width:0.5208333333333334;"/><path d="M62.4268,238.4359 L62.4268,239.738 L64.681,239.738 L64.681,239.2578 Q64.681,238.9404 64.8031,238.8021 Q64.9333,238.6637 65.1286,238.6637 Q65.3239,238.6637 65.446,238.8021 Q65.568,238.9404 65.568,239.2578 L65.568,240.625 L61.4014,240.625 Q61.0758,240.625 60.9375,240.5029 Q60.8073,240.3809 60.8073,240.1774 Q60.8073,239.9821 60.9456,239.86 Q61.084,239.738 61.4014,239.738 L61.5397,239.738 L61.5397,236.2712 L61.4014,236.2712 Q61.0758,236.2712 60.9375,236.1491 Q60.8073,236.027 60.8073,235.8236 Q60.8073,235.6283 60.9375,235.5062 Q61.0758,235.3841 61.4014,235.3841 L65.3727,235.3841 L65.3727,236.735 Q65.3727,237.0524 65.2507,237.1908 Q65.1367,237.321 64.9333,237.321 Q64.738,237.321 64.6159,237.1908 Q64.4938,237.0524 64.4938,236.735 L64.4938,236.2712 L62.4268,236.2712 L62.4268,237.5488 L63.1999,237.5488 Q63.1999,237.207 63.265,237.1094 Q63.4033,236.8978 63.6475,236.8978 Q63.8428,236.8978 63.9648,237.0361 Q64.0869,237.1663 64.0869,237.4837 L64.0869,238.5091 Q64.0869,238.7939 64.0218,238.8916 Q63.8835,239.0951 63.6475,239.0951 Q63.4033,239.0951 63.265,238.8835 Q63.1999,238.7858 63.1999,238.4359 L62.4268,238.4359 Z " fill="#000000"/><text fill="#000000" font-family="sans-serif" font-size="7.2917" lengthAdjust="spacing" textLength="27.0833" x="70.3125" y="241.0044">Address</text><line style="stroke:#181818;stroke-width:0.2604166666666667;" x1="55.7292" x2="98.4375" y1="246.3542" y2="246.3542"/><text fill="#000000" font-family="sans-serif" font-size="7.2917" lengthAdjust="spacing" textLength="18.75" x="58.3333" y="256.0069">BPNA</text><text fill="#000000" font-family="sans-serif" font-size="7.2917" lengthAdjust="spacing" textLength="6.25" x="58.3333" y="265.1784">...</text></g><!--class BusinessPartner--><g id="elem_BusinessPartner"><rect codeLine="20" fill="#F1F1F1" height="16.6667" id="BusinessPartner" rx="1.3021" ry="1.3021" style="stroke:#181818;stroke-width:0.2604166666666667;" width="70.8333" x="35.9375" y="21.875"/><ellipse cx="43.75" cy="30.2083" fill="#A9DCDF" rx="5.7292" ry="5.7292" style="stroke:#181818;stroke-width:0.5208333333333334;"/><path d="M44.8893,31.1279 L42.7327,31.1279 L42.513,31.665 L42.7327,31.665 Q43.0501,31.665 43.1885,31.7871 Q43.3268,31.9092 43.3268,32.1126 Q43.3268,32.3079 43.1885,32.43 Q43.0501,32.5521 42.7327,32.5521 L41.5365,32.5521 Q41.2191,32.5521 41.0889,32.43 Q40.9505,32.3079 40.9505,32.1045 Q40.9505,31.9092 41.097,31.7871 Q41.2354,31.6569 41.5609,31.665 L42.9525,28.1982 L42.3747,28.1982 Q42.0573,28.1982 41.9189,28.0762 Q41.7806,27.9541 41.7806,27.7507 Q41.7806,27.5553 41.9189,27.4333 Q42.0573,27.3112 42.3747,27.3112 L44.2871,27.3112 L46.0531,31.665 Q46.3623,31.665 46.46,31.7383 Q46.6634,31.8766 46.6634,32.1126 Q46.6634,32.3079 46.5251,32.43 Q46.3949,32.5521 46.0775,32.5521 L44.8812,32.5521 Q44.5638,32.5521 44.4255,32.43 Q44.2871,32.3079 44.2871,32.1045 Q44.2871,31.9092 44.4255,31.7871 Q44.5638,31.665 44.8812,31.665 L45.1009,31.665 L44.8893,31.1279 Z M44.515,30.2409 L43.807,28.4831 L43.0908,30.2409 L44.515,30.2409 Z " fill="#000000"/><text fill="#000000" font-family="sans-serif" font-size="7.2917" font-style="italic" lengthAdjust="spacing" textLength="54.1667" x="51.0417" y="33.1919">BusinessPartner</text></g><!--reverse link BusinessPartner to LegalEntity--><g id="link_BusinessPartner_LegalEntity"><path codeLine="22" d="M71.3542,48.0052 C71.3542,56.0677 71.3542,59.5 71.3542,70.224 " fill="none" id="BusinessPartner-backto-LegalEntity" style="stroke:#181818;stroke-width:0.5208333333333334;"/><polygon fill="none" points="71.3542,38.6302,68.2292,48.0052,74.4792,48.0052,71.3542,38.6302" style="stroke:#181818;stroke-width:0.5208333333333334;"/></g><!--reverse link BusinessPartner to Site--><g id="link_BusinessPartner_Site"><path codeLine="23" d="M55.0924,44.8391 C46.9518,52.1985 42.4063,57.6719 35.9375,70.3125 C23.0365,95.5313 22.6302,129.0938 23.9844,149.8646 " fill="none" id="BusinessPartner-backto-Site" style="stroke:#181818;stroke-width:0.5208333333333334;"/><polygon fill="none" points="62.0469,38.5521,52.9968,42.521,57.1881,47.1572,62.0469,38.5521" style="stroke:#181818;stroke-width:0.5208333333333334;"/></g><!--reverse link BusinessPartner to Address--><g id="link_BusinessPartner_Address"><path codeLine="24" d="M86.9932,45.0825 C94.9463,52.593 99.7031,58.0885 107.2917,70.3125 C127.3542,102.6354 131.474,112.6198 138.5417,150 C141.7656,167.0573 145.3073,173.0729 138.5417,189.0625 C130.5208,208.026 113.1875,223.9271 98.9688,234.526 " fill="none" id="BusinessPartner-backto-Address" style="stroke:#181818;stroke-width:0.5208333333333334;"/><polygon fill="none" points="80.1771,38.6458,84.8476,47.3546,89.1388,42.8105,80.1771,38.6458" style="stroke:#181818;stroke-width:0.5208333333333334;"/></g><!--reverse link LegalEntity to Site--><g id="link_LegalEntity_Site"><path codeLine="26" d="M40.0428,113.2203 C35.0376,117.8974 34.9531,119.0417 31.7708,125 C27.7396,132.5417 26.1302,141.8177 25.5938,149.9063 " fill="none" id="LegalEntity-backto-Site" style="stroke:#181818;stroke-width:0.5208333333333334;"/><polygon fill="none" points="44.6094,108.9531,40.9037,109.5645,40.0428,113.2203,43.7485,112.6089,44.6094,108.9531" style="stroke:#181818;stroke-width:0.5208333333333334;"/><text fill="#000000" font-family="sans-serif" font-size="6.7708" lengthAdjust="spacing" textLength="47.9167" x="32.2917" y="132.5495">LegalEntityBPN</text><text fill="#000000" font-family="sans-serif" font-size="6.7708" lengthAdjust="spacing" textLength="3.6458" x="36.9462" y="109.7547">1</text><text fill="#000000" font-family="sans-serif" font-size="6.7708" lengthAdjust="spacing" textLength="2.6042" x="22.6779" y="144.3699">*</text></g><!--reverse link LegalEntity to Address--><g id="link_LegalEntity_Address"><path codeLine="27" d="M80.8348,115.452 C82.4546,120.4156 81.9844,119.875 82.8125,125 C88.7135,161.6146 84.0573,205.0469 80.3958,229.4896 " fill="none" id="LegalEntity-backto-Address" style="stroke:#181818;stroke-width:0.5208333333333334;"/><polygon fill="none" points="78.8958,109.5104,77.8848,113.1276,80.8348,115.452,81.8459,111.8349,78.8958,109.5104" style="stroke:#181818;stroke-width:0.5208333333333334;"/><text fill="#000000" font-family="sans-serif" font-size="6.7708" lengthAdjust="spacing" textLength="47.9167" x="85.9375" y="172.3933">LegalEntityBPN</text><text fill="#000000" font-family="sans-serif" font-size="6.7708" lengthAdjust="spacing" textLength="3.6458" x="76.2329" y="120.6414">1</text><text fill="#000000" font-family="sans-serif" font-size="6.7708" lengthAdjust="spacing" textLength="10.4167" x="69.6533" y="224.0838">1..*</text></g><!--reverse link Site to Address--><g id="link_Site_Address"><path codeLine="28" d="M35.1499,194.961 C38.3843,202.961 40.3021,206.375 45.3125,214.0625 C48.8333,219.4635 53.2031,224.8281 57.5677,229.6667 " fill="none" id="Site-backto-Address" style="stroke:#181818;stroke-width:0.5208333333333334;"/><polygon fill="none" points="32.8073,189.1667,32.0472,192.8447,35.1499,194.961,35.9101,191.283,32.8073,189.1667" style="stroke:#181818;stroke-width:0.5208333333333334;"/><text fill="#000000" font-family="sans-serif" font-size="6.7708" lengthAdjust="spacing" textLength="26.0417" x="45.8333" y="212.237">SiteBPN</text><text fill="#000000" font-family="sans-serif" font-size="6.7708" lengthAdjust="spacing" textLength="11.4583" x="21.5336" y="200.4413">0..1</text><text fill="#000000" font-family="sans-serif" font-size="6.7708" lengthAdjust="spacing" textLength="10.4167" x="42.5926" y="223.9953">1..*</text></g><!--SRC=[fP7D3e8m3CVlF4MpemaB7BnmC874cp4aF45XZIvyIBPnCEYxku48-77oiArTVst_tNGfcnOLrY1Q2Tl0yreiIZmHiAJJiY6j8KLb6bAQGUy1K6EakSA1JbZjHzjT0oJfyJ0Od7DxtksQyKmQchbinSrKB8Ho7LzW_5aGSsqK5WQA2YqwgNoAX7wejrJdT_vjzyvPPf3qApWf-HwVijc6EU82B6Ihdj7IitCiAhAGyt_J0ivjffCG3Rj3xTndAGXgCkUBqAFp_ZerrRdzoGS0]--></g></svg>