<svg xmlns="http://www.w3.org/2000/svg" width="1254" height="1397" preserveAspectRatio="none" style="width:1254px;height:1397px;background:#fff"><path fill="#DDD" d="M1 6h637v1385.172H1z" style="stroke:#181818;stroke-width:.5"/><text x="293.5" y="18.067" font-family="sans-serif" font-size="13" font-weight="bold" textLength="52">Sender</text><path fill="#DDD" d="M791 6h457v1385.172H791z" style="stroke:#181818;stroke-width:.5"/><text x="987.5" y="18.067" font-family="sans-serif" font-size="13" font-weight="bold" textLength="64">Receiver</text><path fill="#FFF" d="M94 323.623h10v28H94zm257 155.532h10v826.588h-10z" style="stroke:#181818;stroke-width:1"/><path fill="#FFF" d="M356 607.686h10v28h-10zm251-66.266h10v29.133h-10zm0 208.93h10v29.133h-10zm0 58.266h10v29.133h-10zm0 58.265h10v376.128h-10zm102.5-479.125h10v62.266h-10zM812 257.358h10v29.133h-10zm0 671.789h10v251.13h-10zm333 62.266h10v126.131h-10z" style="stroke:#181818;stroke-width:1"/><path d="M99 56.43v1300.445M356 56.43v1300.445M612 56.43v1300.445M714 56.43v1300.445M817 56.43v1300.445M1150 56.43v1300.445" style="stroke:#181818;stroke-width:.5;stroke-dasharray:5,5"/><rect width="188" height="30.297" x="5" y="25.133" fill="#E2E2F0" rx="2.5" ry="2.5" style="stroke:#181818;stroke-width:.5"/><text x="12" y="45.128" font-family="sans-serif" font-size="14" textLength="174">Some (Traceability) App</text><rect width="188" height="30.297" x="5" y="1355.875" fill="#E2E2F0" rx="2.5" ry="2.5" style="stroke:#181818;stroke-width:.5"/><text x="12" y="1375.87" font-family="sans-serif" font-size="14" textLength="174">Some (Traceability) App</text><rect width="196" height="30.297" x="258" y="25.133" fill="#E2E2F0" rx="2.5" ry="2.5" style="stroke:#181818;stroke-width:.5"/><text x="265" y="45.128" font-family="sans-serif" font-size="14" textLength="182">Notification EDC Adapter</text><rect width="196" height="30.297" x="258" y="1355.875" fill="#E2E2F0" rx="2.5" ry="2.5" style="stroke:#181818;stroke-width:.5"/><text x="265" y="1375.87" font-family="sans-serif" font-size="14" textLength="182">Notification EDC Adapter</text><rect width="44" height="30.297" x="590" y="25.133" fill="#E2E2F0" rx="2.5" ry="2.5" style="stroke:#181818;stroke-width:.5"/><text x="597" y="45.128" font-family="sans-serif" font-size="14" textLength="30">EDC</text><rect width="44" height="30.297" x="590" y="1355.875" fill="#E2E2F0" rx="2.5" ry="2.5" style="stroke:#181818;stroke-width:.5"/><text x="597" y="1375.87" font-family="sans-serif" font-size="14" textLength="30">EDC</text><rect width="141" height="30.297" x="644" y="25.133" fill="#E2E2F0" rx="2.5" ry="2.5" style="stroke:#181818;stroke-width:.5"/><text x="651" y="45.128" font-family="sans-serif" font-size="14" textLength="127">Discovery Service</text><rect width="141" height="30.297" x="644" y="1355.875" fill="#E2E2F0" rx="2.5" ry="2.5" style="stroke:#181818;stroke-width:.5"/><text x="651" y="1375.87" font-family="sans-serif" font-size="14" textLength="127">Discovery Service</text><rect width="44" height="30.297" x="795" y="25.133" fill="#E2E2F0" rx="2.5" ry="2.5" style="stroke:#181818;stroke-width:.5"/><text x="802" y="45.128" font-family="sans-serif" font-size="14" textLength="30">EDC</text><rect width="44" height="30.297" x="795" y="1355.875" fill="#E2E2F0" rx="2.5" ry="2.5" style="stroke:#181818;stroke-width:.5"/><text x="802" y="1375.87" font-family="sans-serif" font-size="14" textLength="30">EDC</text><rect width="188" height="30.297" x="1056" y="25.133" fill="#E2E2F0" rx="2.5" ry="2.5" style="stroke:#181818;stroke-width:.5"/><text x="1063" y="45.128" font-family="sans-serif" font-size="14" textLength="174">Some (Traceability) App</text><rect width="188" height="30.297" x="1056" y="1355.875" fill="#E2E2F0" rx="2.5" ry="2.5" style="stroke:#181818;stroke-width:.5"/><text x="1063" y="1375.87" font-family="sans-serif" font-size="14" textLength="174">Some (Traceability) App</text><path fill="#FFF" d="M94 323.623h10v28H94zm257 155.532h10v826.588h-10z" style="stroke:#181818;stroke-width:1"/><path fill="#FFF" d="M356 607.686h10v28h-10zm251-66.266h10v29.133h-10zm0 208.93h10v29.133h-10zm0 58.266h10v29.133h-10zm0 58.265h10v376.128h-10zm102.5-479.125h10v62.266h-10zM812 257.358h10v29.133h-10zm0 671.789h10v251.13h-10zm333 62.266h10v126.131h-10z" style="stroke:#181818;stroke-width:1"/><path fill="#FEFFDD" d="M361 71.43h227v129H361z" style="stroke:#181818;stroke-width:.5"/><text x="365" y="87.497" font-family="sans-serif" font-size="13" textLength="213">Not mandatory as the interaction</text><text x="365" y="102.629" font-family="sans-serif" font-size="13" textLength="219">with the EDC can be implemented</text><text x="365" y="117.762" font-family="sans-serif" font-size="13" textLength="187">also in the (Traceability) App.</text><text x="365" y="132.895" font-family="sans-serif" font-size="13" textLength="4"> </text><text x="365" y="148.028" font-family="sans-serif" font-size="13" textLength="202">However, a similar functionality</text><text x="365" y="163.161" font-family="sans-serif" font-size="13" textLength="126">(e.g., fetch catalog)</text><text x="365" y="178.293" font-family="sans-serif" font-size="13" textLength="178">- as shown below - must be</text><text x="365" y="193.426" font-family="sans-serif" font-size="13" textLength="60">provided.</text><path fill="#181818" d="m833 253.358-10 4 10 4-4-4z" style="stroke:#181818;stroke-width:1"/><path d="M827 257.358h322" style="stroke:#181818;stroke-width:1"/><text x="839" y="236.925" font-family="sans-serif" font-size="13" font-weight="bold" textLength="31">[01]</text><text x="874" y="221.559" font-family="sans-serif" font-size="13" textLength="136">Create EDC Asset for</text><text x="874" y="236.692" font-family="sans-serif" font-size="13" textLength="144">&quot;Quality Alert Resolve&quot;</text><text x="874" y="252.292" font-family="sans-serif" font-size="13" textLength="27">with</text><text x="905" y="251.796" font-family="monospace" font-size="13" textLength="88">DataAddress</text><text x="997" y="252.292" font-family="sans-serif" font-size="13" textLength="15">as</text><text x="1016" y="251.796" font-family="monospace" font-size="13" textLength="72">HTTP POST</text><text x="1092" y="252.292" font-family="sans-serif" font-size="13" textLength="56">endpoint</text><path fill="#181818" d="m1138 282.49 10 4-10 4 4-4z" style="stroke:#181818;stroke-width:1"/><path d="M817 286.491h327" style="stroke:#181818;stroke-width:1;stroke-dasharray:2,2"/><text x="824" y="281.425" font-family="sans-serif" font-size="13" font-weight="bold" textLength="31">[02]</text><text x="859" y="281.425" font-family="sans-serif" font-size="13" textLength="18">OK</text><path d="M104 315.623h42m0 0v13m-41 0h41" style="stroke:#181818;stroke-width:1"/><path fill="#181818" d="m115 324.624-10 4 10 4-4-4z" style="stroke:#181818;stroke-width:1"/><text x="111" y="310.558" font-family="sans-serif" font-size="13" font-weight="bold" textLength="30">[03]</text><text x="145" y="310.558" font-family="sans-serif" font-size="13" textLength="209">Trigger Resolution of Notification</text><path fill="#181818" d="m697.5 383.756 10 4-10 4 4-4z" style="stroke:#181818;stroke-width:1"/><path d="M99 387.756h604.5" style="stroke:#181818;stroke-width:1"/><text x="106" y="382.69" font-family="sans-serif" font-size="13" font-weight="bold" textLength="31">[04]</text><text x="141" y="382.69" font-family="sans-serif" font-size="13" textLength="142">Resolve EDC Endpoint</text><path fill="#FEFFDD" d="M104 400.756h397v23H104z" style="stroke:#181818;stroke-width:.5"/><text x="108" y="416.823" font-family="sans-serif" font-size="13" textLength="389">BPN of supply chain partner (as given in existing notification)</text><path fill="#181818" d="m110 446.022-10 4 10 4-4-4z" style="stroke:#181818;stroke-width:1"/><path d="M104 450.022h609.5" style="stroke:#181818;stroke-width:1;stroke-dasharray:2,2"/><text x="116" y="444.956" font-family="sans-serif" font-size="13" font-weight="bold" textLength="31">[05]</text><text x="151" y="444.956" font-family="sans-serif" font-size="13" textLength="18">OK</text><path fill="#181818" d="m339 475.155 10 4-10 4 4-4z" style="stroke:#181818;stroke-width:1"/><path d="M99 479.155h246" style="stroke:#181818;stroke-width:1"/><text x="106" y="474.089" font-family="sans-serif" font-size="13" font-weight="bold" textLength="31">[06]</text><text x="141" y="474.089" font-family="sans-serif" font-size="13" textLength="108">Send Notification</text><text x="253" y="474.089" font-family="sans-serif" font-size="13" font-weight="bold" textLength="81">Resolution</text><path fill="#FEFFDD" d="M104 492.155h192v23H104z" style="stroke:#181818;stroke-width:.5"/><text x="108" y="508.222" font-family="sans-serif" font-size="13" textLength="184">Payload as described above.</text><path fill="#181818" d="m595 537.42 10 4-10 4 4-4z" style="stroke:#181818;stroke-width:1"/><path d="M361 541.42h240" style="stroke:#181818;stroke-width:1"/><text x="368" y="536.354" font-family="sans-serif" font-size="13" font-weight="bold" textLength="31">[07]</text><text x="403" y="536.354" font-family="sans-serif" font-size="13" textLength="88">Fetch Catalog</text><path fill="#181818" d="m623 566.553-10 4 10 4-4-4zm182 0 10 4-10 4 4-4z" style="stroke:#181818;stroke-width:1"/><path d="M617 570.553h194" style="stroke:#181818;stroke-width:1;stroke-dasharray:2,2"/><text x="629" y="565.487" font-family="sans-serif" font-size="13" font-weight="bold" textLength="31">[08]</text><text x="664" y="565.487" font-family="sans-serif" font-size="13" textLength="88">Fetch Catalog</text><path d="M366 599.686h42m0 0v13m-41 0h41" style="stroke:#181818;stroke-width:1"/><path fill="#181818" d="m377 608.686-10 4 10 4-4-4z" style="stroke:#181818;stroke-width:1"/><text x="373" y="594.62" font-family="sans-serif" font-size="13" font-weight="bold" textLength="31">[09]</text><text x="408" y="594.62" font-family="sans-serif" font-size="13" textLength="156">Find and Select Contract</text><path fill="#FEFFDD" d="M366 655.686h287v68H366z" style="stroke:#181818;stroke-width:.5"/><text x="370" y="671.753" font-family="sans-serif" font-size="13" textLength="228">Find the correct contract offer with:</text><text x="370" y="686.886" font-family="sans-serif" font-size="13" textLength="4"> </text><text x="370" y="702.019" font-family="sans-serif" font-size="13" textLength="279">&quot;asset:prop:notificationtype&quot;: &quot;qualityalert&quot;,</text><text x="370" y="717.151" font-family="sans-serif" font-size="13" textLength="271">&quot;asset:prop:notificationmethod&quot;: &quot;resolve&quot;</text><path fill="#181818" d="m595 746.35 10 4-10 4 4-4z" style="stroke:#181818;stroke-width:1"/><path d="M361 750.35h240" style="stroke:#181818;stroke-width:1"/><text x="368" y="745.284" font-family="sans-serif" font-size="13" font-weight="bold" textLength="31">[10]</text><text x="403" y="745.284" font-family="sans-serif" font-size="13" textLength="192">Intiatiate Contract Negotiation</text><path fill="#181818" d="m623 775.483-10 4 10 4-4-4zm182 0 10 4-10 4 4-4z" style="stroke:#181818;stroke-width:1"/><path d="M617 779.483h194" style="stroke:#181818;stroke-width:1;stroke-dasharray:2,2"/><text x="629" y="774.417" font-family="sans-serif" font-size="13" font-weight="bold" textLength="30">[11]</text><text x="663" y="774.417" font-family="sans-serif" font-size="13" textLength="132">Contract Negotiation</text><path fill="#181818" d="m595 804.616 10 4-10 4 4-4z" style="stroke:#181818;stroke-width:1"/><path d="M361 808.616h240" style="stroke:#181818;stroke-width:1"/><text x="368" y="803.55" font-family="sans-serif" font-size="13" font-weight="bold" textLength="30">[12]</text><text x="402" y="803.55" font-family="sans-serif" font-size="13" textLength="141">Inititate Data Transfer</text><path fill="#181818" d="m623 833.749-10 4 10 4-4-4zm182 0 10 4-10 4 4-4z" style="stroke:#181818;stroke-width:1"/><path d="M617 837.749h194" style="stroke:#181818;stroke-width:1;stroke-dasharray:2,2"/><text x="629" y="832.683" font-family="sans-serif" font-size="13" font-weight="bold" textLength="29">[13]</text><text x="662" y="832.683" font-family="sans-serif" font-size="13" textLength="113">Establish Channel</text><path fill="#181818" d="m595 862.881 10 4-10 4 4-4z" style="stroke:#181818;stroke-width:1"/><path d="M361 866.881h240" style="stroke:#181818;stroke-width:1"/><text x="368" y="861.815" font-family="sans-serif" font-size="13" font-weight="bold" textLength="30">[14]</text><text x="402" y="861.815" font-family="sans-serif" font-size="13" textLength="95">POST /public/...</text><path fill="#FEFFDD" d="M366 879.881h192v23H366z" style="stroke:#181818;stroke-width:.5"/><text x="370" y="895.948" font-family="sans-serif" font-size="13" textLength="184">Payload as described above.</text><path fill="#181818" d="m800 925.147 10 4-10 4 4-4z" style="stroke:#181818;stroke-width:1"/><path d="M617 929.147h189" style="stroke:#181818;stroke-width:1"/><text x="624" y="924.081" font-family="sans-serif" font-size="13" font-weight="bold" textLength="30">[15]</text><text x="658" y="924.081" font-family="sans-serif" font-size="13" textLength="95">POST /public/...</text><path fill="#FEFFDD" d="M622 942.147h192v23H622z" style="stroke:#181818;stroke-width:.5"/><text x="626" y="958.214" font-family="sans-serif" font-size="13" textLength="184">Payload as described above.</text><path fill="#181818" d="m1133 987.413 10 4-10 4 4-4z" style="stroke:#181818;stroke-width:1"/><path d="M822 991.413h317" style="stroke:#181818;stroke-width:1"/><text x="829" y="986.347" font-family="sans-serif" font-size="13" font-weight="bold" textLength="30">[16]</text><text x="863" y="986.347" font-family="sans-serif" font-size="13" textLength="254">POST /notifications/qualityalerts/resolve</text><path fill="#FEFFDD" d="M827 1004.413h192v23H827z" style="stroke:#181818;stroke-width:.5"/><text x="831" y="1020.479" font-family="sans-serif" font-size="13" textLength="184">Payload as described above.</text><path fill="#FEFFDD" d="M827 1037.545h309v53H827z" style="stroke:#181818;stroke-width:.5"/><text x="831" y="1053.612" font-family="sans-serif" font-size="13" textLength="278">The http path depends on the DataAddress</text><text x="831" y="1068.745" font-family="sans-serif" font-size="13" textLength="301">in the EDC Data Asset. Thus, it depends on the</text><text x="831" y="1083.878" font-family="sans-serif" font-size="13" textLength="78">(Trace) app.</text><path fill="#181818" d="m833 1113.544-10 4 10 4-4-4z" style="stroke:#181818;stroke-width:1"/><path d="M827 1117.544h322" style="stroke:#181818;stroke-width:1;stroke-dasharray:2,2"/><text x="839" y="1112.244" font-family="sans-serif" font-size="13" font-weight="bold" textLength="30">[17]</text><text x="873" y="1111.982" font-family="monospace" font-size="13" textLength="24">200</text><text x="901" y="1112.478" font-family="sans-serif" font-size="13" textLength="18">OK</text><path fill="#FEFFDD" d="M953 1130.544h192v23H953z" style="stroke:#181818;stroke-width:.5"/><text x="957" y="1146.611" font-family="sans-serif" font-size="13" textLength="184">Payload as described above.</text><path fill="#181818" d="m628 1176.277-10 4 10 4-4-4z" style="stroke:#181818;stroke-width:1"/><path d="M622 1180.277h194" style="stroke:#181818;stroke-width:1;stroke-dasharray:2,2"/><text x="634" y="1174.977" font-family="sans-serif" font-size="13" font-weight="bold" textLength="30">[18]</text><text x="668" y="1174.715" font-family="monospace" font-size="13" textLength="24">200</text><text x="696" y="1175.211" font-family="sans-serif" font-size="13" textLength="18">OK</text><path fill="#FEFFDD" d="M620 1193.277h192v23H620z" style="stroke:#181818;stroke-width:.5"/><text x="624" y="1209.343" font-family="sans-serif" font-size="13" textLength="184">Payload as described above.</text><path fill="#181818" d="m372 1239.01-10 4 10 4-4-4z" style="stroke:#181818;stroke-width:1"/><path d="M366 1243.009h245" style="stroke:#181818;stroke-width:1;stroke-dasharray:2,2"/><text x="378" y="1237.71" font-family="sans-serif" font-size="13" font-weight="bold" textLength="30">[19]</text><text x="412" y="1237.447" font-family="monospace" font-size="13" textLength="24">200</text><text x="440" y="1237.944" font-family="sans-serif" font-size="13" textLength="18">OK</text><path fill="#FEFFDD" d="M415 1256.009h192v23H415z" style="stroke:#181818;stroke-width:.5"/><text x="419" y="1272.076" font-family="sans-serif" font-size="13" textLength="184">Payload as described above.</text><path fill="#181818" d="m110 1301.742-10 4 10 4-4-4z" style="stroke:#181818;stroke-width:1"/><path d="M104 1305.742h251" style="stroke:#181818;stroke-width:1;stroke-dasharray:2,2"/><text x="116" y="1300.443" font-family="sans-serif" font-size="13" font-weight="bold" textLength="31">[20]</text><text x="151" y="1300.18" font-family="monospace" font-size="13" textLength="24">200</text><text x="179" y="1300.676" font-family="sans-serif" font-size="13" textLength="18">OK</text><path fill="#FEFFDD" d="M159 1318.742h192v23H159z" style="stroke:#181818;stroke-width:.5"/><text x="163" y="1334.809" font-family="sans-serif" font-size="13" textLength="184">Payload as described above.</text></svg>