<svg xmlns="http://www.w3.org/2000/svg" width="1329" height="1568" preserveAspectRatio="none" style="width:1329px;height:1568px;background:#fff"><path fill="#DDD" d="M1 6h712v1556.57H1z" style="stroke:#181818;stroke-width:.5"/><text x="331" y="18.067" font-family="sans-serif" font-size="13" font-weight="bold" textLength="52">Sender</text><path fill="#DDD" d="M866 6h457v1556.57H866z" style="stroke:#181818;stroke-width:.5"/><text x="1062.5" y="18.067" font-family="sans-serif" font-size="13" font-weight="bold" textLength="64">Receiver</text><path fill="#FFF" d="M94 323.623h10v28H94zm0 72.133h10v28H94zm0 87.266h10v28H94zm0 178.664h10v28H94zm0 843.588h10v14H94zm334-779.455h10v727.189h-10z" style="stroke:#181818;stroke-width:1"/><path fill="#FFF" d="M433 854.35h10v28h-10zm249-66.266h10v29.133h-10zm0 208.93h10v29.133h-10zm0 58.266h10v29.133h-10zm0 58.265h10v309.863h-10zm102.5-566.39h10v62.266h-10zM887 257.358h10v29.133h-10zm0 918.453h10v217.997h-10zm333 62.266h10v126.131h-10z" style="stroke:#181818;stroke-width:1"/><path d="M99 56.43v1471.844M433 56.43v1471.844M687 56.43v1471.844M789 56.43v1471.844M892 56.43v1471.844M1225 56.43v1471.844" style="stroke:#181818;stroke-width:.5;stroke-dasharray:5,5"/><rect width="188" height="30.297" x="5" y="25.133" fill="#E2E2F0" rx="2.5" ry="2.5" style="stroke:#181818;stroke-width:.5"/><text x="12" y="45.128" font-family="sans-serif" font-size="14" textLength="174">Some (Traceability) App</text><rect width="188" height="30.297" x="5" y="1527.274" fill="#E2E2F0" rx="2.5" ry="2.5" style="stroke:#181818;stroke-width:.5"/><text x="12" y="1547.269" font-family="sans-serif" font-size="14" textLength="174">Some (Traceability) App</text><rect width="196" height="30.297" x="335" y="25.133" fill="#E2E2F0" rx="2.5" ry="2.5" style="stroke:#181818;stroke-width:.5"/><text x="342" y="45.128" font-family="sans-serif" font-size="14" textLength="182">Notification EDC Adapter</text><rect width="196" height="30.297" x="335" y="1527.274" fill="#E2E2F0" rx="2.5" ry="2.5" style="stroke:#181818;stroke-width:.5"/><text x="342" y="1547.269" font-family="sans-serif" font-size="14" textLength="182">Notification EDC Adapter</text><rect width="44" height="30.297" x="665" y="25.133" fill="#E2E2F0" rx="2.5" ry="2.5" style="stroke:#181818;stroke-width:.5"/><text x="672" y="45.128" font-family="sans-serif" font-size="14" textLength="30">EDC</text><rect width="44" height="30.297" x="665" y="1527.274" fill="#E2E2F0" rx="2.5" ry="2.5" style="stroke:#181818;stroke-width:.5"/><text x="672" y="1547.269" font-family="sans-serif" font-size="14" textLength="30">EDC</text><rect width="141" height="30.297" x="719" y="25.133" fill="#E2E2F0" rx="2.5" ry="2.5" style="stroke:#181818;stroke-width:.5"/><text x="726" y="45.128" font-family="sans-serif" font-size="14" textLength="127">Discovery Service</text><rect width="141" height="30.297" x="719" y="1527.274" fill="#E2E2F0" rx="2.5" ry="2.5" style="stroke:#181818;stroke-width:.5"/><text x="726" y="1547.269" font-family="sans-serif" font-size="14" textLength="127">Discovery Service</text><rect width="44" height="30.297" x="870" y="25.133" fill="#E2E2F0" rx="2.5" ry="2.5" style="stroke:#181818;stroke-width:.5"/><text x="877" y="45.128" font-family="sans-serif" font-size="14" textLength="30">EDC</text><rect width="44" height="30.297" x="870" y="1527.274" fill="#E2E2F0" rx="2.5" ry="2.5" style="stroke:#181818;stroke-width:.5"/><text x="877" y="1547.269" font-family="sans-serif" font-size="14" textLength="30">EDC</text><rect width="188" height="30.297" x="1131" y="25.133" fill="#E2E2F0" rx="2.5" ry="2.5" style="stroke:#181818;stroke-width:.5"/><text x="1138" y="45.128" font-family="sans-serif" font-size="14" textLength="174">Some (Traceability) App</text><rect width="188" height="30.297" x="1131" y="1527.274" fill="#E2E2F0" rx="2.5" ry="2.5" style="stroke:#181818;stroke-width:.5"/><text x="1138" y="1547.269" font-family="sans-serif" font-size="14" textLength="174">Some (Traceability) App</text><path fill="#FFF" d="M94 323.623h10v28H94zm0 72.133h10v28H94zm0 87.266h10v28H94zm0 178.664h10v28H94zm0 843.588h10v14H94zm334-779.455h10v727.189h-10z" style="stroke:#181818;stroke-width:1"/><path fill="#FFF" d="M433 854.35h10v28h-10zm249-66.266h10v29.133h-10zm0 208.93h10v29.133h-10zm0 58.266h10v29.133h-10zm0 58.265h10v309.863h-10zm102.5-566.39h10v62.266h-10zM887 257.358h10v29.133h-10zm0 918.453h10v217.997h-10zm333 62.266h10v126.131h-10z" style="stroke:#181818;stroke-width:1"/><path fill="#FEFFDD" d="M438 71.43h227v129H438z" style="stroke:#181818;stroke-width:.5"/><text x="442" y="87.497" font-family="sans-serif" font-size="13" textLength="213">Not mandatory as the interaction</text><text x="442" y="102.629" font-family="sans-serif" font-size="13" textLength="219">with the EDC can be implemented</text><text x="442" y="117.762" font-family="sans-serif" font-size="13" textLength="187">also in the (Traceability) App.</text><text x="442" y="132.895" font-family="sans-serif" font-size="13" textLength="4"> </text><text x="442" y="148.028" font-family="sans-serif" font-size="13" textLength="202">However, a similar functionality</text><text x="442" y="163.161" font-family="sans-serif" font-size="13" textLength="126">(e.g., fetch catalog)</text><text x="442" y="178.293" font-family="sans-serif" font-size="13" textLength="178">- as shown below - must be</text><text x="442" y="193.426" font-family="sans-serif" font-size="13" textLength="60">provided.</text><path fill="#181818" d="m908 253.358-10 4 10 4-4-4z" style="stroke:#181818;stroke-width:1"/><path d="M902 257.358h322" style="stroke:#181818;stroke-width:1"/><text x="914" y="236.925" font-family="sans-serif" font-size="13" font-weight="bold" textLength="31">[01]</text><text x="949" y="221.559" font-family="sans-serif" font-size="13" textLength="136">Create EDC Asset for</text><text x="949" y="236.692" font-family="sans-serif" font-size="13" textLength="141">&quot;Quality Alert Receipt&quot;</text><text x="949" y="252.292" font-family="sans-serif" font-size="13" textLength="27">with</text><text x="980" y="251.796" font-family="monospace" font-size="13" textLength="88">DataAddress</text><text x="1072" y="252.292" font-family="sans-serif" font-size="13" textLength="15">as</text><text x="1091" y="251.796" font-family="monospace" font-size="13" textLength="72">HTTP POST</text><text x="1167" y="252.292" font-family="sans-serif" font-size="13" textLength="56">endpoint</text><path fill="#181818" d="m1213 282.49 10 4-10 4 4-4z" style="stroke:#181818;stroke-width:1"/><path d="M892 286.491h327" style="stroke:#181818;stroke-width:1;stroke-dasharray:2,2"/><text x="899" y="281.425" font-family="sans-serif" font-size="13" font-weight="bold" textLength="31">[02]</text><text x="934" y="281.425" font-family="sans-serif" font-size="13" textLength="18">OK</text><path d="M104 315.623h42m0 0v13m-41 0h41" style="stroke:#181818;stroke-width:1"/><path fill="#181818" d="m115 324.624-10 4 10 4-4-4z" style="stroke:#181818;stroke-width:1"/><text x="111" y="310.558" font-family="sans-serif" font-size="13" font-weight="bold" textLength="30">[03]</text><text x="145" y="310.558" font-family="sans-serif" font-size="13" textLength="234">Identify Defective Part(s) / Batch(es)</text><path d="M104 387.756h42m0 0v13m-41 0h41" style="stroke:#181818;stroke-width:1"/><path fill="#181818" d="m115 396.756-10 4 10 4-4-4z" style="stroke:#181818;stroke-width:1"/><text x="111" y="382.69" font-family="sans-serif" font-size="13" font-weight="bold" textLength="31">[04]</text><text x="146" y="382.69" font-family="sans-serif" font-size="13" textLength="285">Identify BPN for Defective Part(s) / Batch(es)</text><path d="M104 475.022h42m0 0v13m-41 0h41" style="stroke:#181818;stroke-width:1"/><path fill="#181818" d="m115 484.022-10 4 10 4-4-4z" style="stroke:#181818;stroke-width:1"/><text x="111" y="462.39" font-family="sans-serif" font-size="13" font-weight="bold" textLength="31">[05]</text><text x="146" y="454.823" font-family="sans-serif" font-size="13" textLength="119">Create Notification</text><text x="146" y="469.956" font-family="sans-serif" font-size="13" textLength="125">Status := CREATED</text><path fill="#181818" d="m772.5 543.155 10 4-10 4 4-4z" style="stroke:#181818;stroke-width:1"/><path d="M99 547.155h679.5" style="stroke:#181818;stroke-width:1"/><text x="106" y="542.089" font-family="sans-serif" font-size="13" font-weight="bold" textLength="31">[06]</text><text x="141" y="542.089" font-family="sans-serif" font-size="13" textLength="142">Resolve EDC Endpoint</text><path fill="#FEFFDD" d="M104 560.155h234v23H104z" style="stroke:#181818;stroke-width:.5"/><text x="108" y="576.222" font-family="sans-serif" font-size="13" textLength="226">BPN of defective part(s) / batch(es)</text><path fill="#181818" d="m110 605.42-10 4 10 4-4-4z" style="stroke:#181818;stroke-width:1"/><path d="M104 609.42h684.5" style="stroke:#181818;stroke-width:1;stroke-dasharray:2,2"/><text x="116" y="604.354" font-family="sans-serif" font-size="13" font-weight="bold" textLength="31">[07]</text><text x="151" y="604.354" font-family="sans-serif" font-size="13" textLength="18">OK</text><path d="M104 653.686h42m0 0v13m-41 0h41" style="stroke:#181818;stroke-width:1"/><path fill="#181818" d="m115 662.686-10 4 10 4-4-4z" style="stroke:#181818;stroke-width:1"/><text x="111" y="641.054" font-family="sans-serif" font-size="13" font-weight="bold" textLength="31">[08]</text><text x="146" y="633.487" font-family="sans-serif" font-size="13" textLength="167">Update Notification Status</text><text x="146" y="648.62" font-family="sans-serif" font-size="13" textLength="97">Status := SENT</text><path fill="#181818" d="m416 721.819 10 4-10 4 4-4z" style="stroke:#181818;stroke-width:1"/><path d="M99 725.819h323" style="stroke:#181818;stroke-width:1"/><text x="106" y="720.753" font-family="sans-serif" font-size="13" font-weight="bold" textLength="31">[09]</text><text x="141" y="720.753" font-family="sans-serif" font-size="13" textLength="108">Send Notification</text><text x="253" y="720.753" font-family="sans-serif" font-size="13" font-weight="bold" textLength="57">Receipt</text><path fill="#FEFFDD" d="M104 738.819h192v23H104z" style="stroke:#181818;stroke-width:.5"/><text x="108" y="754.886" font-family="sans-serif" font-size="13" textLength="184">Payload as described above.</text><path fill="#181818" d="m670 784.084 10 4-10 4 4-4z" style="stroke:#181818;stroke-width:1"/><path d="M438 788.084h238" style="stroke:#181818;stroke-width:1"/><text x="445" y="783.019" font-family="sans-serif" font-size="13" font-weight="bold" textLength="31">[10]</text><text x="480" y="783.019" font-family="sans-serif" font-size="13" textLength="88">Fetch Catalog</text><path fill="#181818" d="m698 813.217-10 4 10 4-4-4zm182 0 10 4-10 4 4-4z" style="stroke:#181818;stroke-width:1"/><path d="M692 817.217h194" style="stroke:#181818;stroke-width:1;stroke-dasharray:2,2"/><text x="704" y="812.151" font-family="sans-serif" font-size="13" font-weight="bold" textLength="30">[11]</text><text x="738" y="812.151" font-family="sans-serif" font-size="13" textLength="88">Fetch Catalog</text><path d="M443 846.35h42m0 0v13m-41 0h41" style="stroke:#181818;stroke-width:1"/><path fill="#181818" d="m454 855.35-10 4 10 4-4-4z" style="stroke:#181818;stroke-width:1"/><text x="450" y="841.284" font-family="sans-serif" font-size="13" font-weight="bold" textLength="30">[12]</text><text x="484" y="841.284" font-family="sans-serif" font-size="13" textLength="156">Find and Select Contract</text><path fill="#FEFFDD" d="M443 902.35h287v68H443z" style="stroke:#181818;stroke-width:.5"/><text x="447" y="918.417" font-family="sans-serif" font-size="13" textLength="228">Find the correct contract offer with:</text><text x="447" y="933.55" font-family="sans-serif" font-size="13" textLength="4"> </text><text x="447" y="948.683" font-family="sans-serif" font-size="13" textLength="279">&quot;asset:prop:notificationtype&quot;: &quot;qualityalert&quot;,</text><text x="447" y="963.815" font-family="sans-serif" font-size="13" textLength="271">&quot;asset:prop:notificationmethod&quot;: &quot;receive&quot;</text><path fill="#181818" d="m670 993.014 10 4-10 4 4-4z" style="stroke:#181818;stroke-width:1"/><path d="M438 997.014h238" style="stroke:#181818;stroke-width:1"/><text x="445" y="991.948" font-family="sans-serif" font-size="13" font-weight="bold" textLength="29">[13]</text><text x="478" y="991.948" font-family="sans-serif" font-size="13" textLength="192">Intiatiate Contract Negotiation</text><path fill="#181818" d="m698 1022.147-10 4 10 4-4-4zm182 0 10 4-10 4 4-4z" style="stroke:#181818;stroke-width:1"/><path d="M692 1026.147h194" style="stroke:#181818;stroke-width:1;stroke-dasharray:2,2"/><text x="704" y="1021.081" font-family="sans-serif" font-size="13" font-weight="bold" textLength="30">[14]</text><text x="738" y="1021.081" font-family="sans-serif" font-size="13" textLength="132">Contract Negotiation</text><path fill="#181818" d="m670 1051.28 10 4-10 4 4-4z" style="stroke:#181818;stroke-width:1"/><path d="M438 1055.28h238" style="stroke:#181818;stroke-width:1"/><text x="445" y="1050.214" font-family="sans-serif" font-size="13" font-weight="bold" textLength="30">[15]</text><text x="479" y="1050.214" font-family="sans-serif" font-size="13" textLength="141">Inititate Data Transfer</text><path fill="#181818" d="m698 1080.413-10 4 10 4-4-4zm182 0 10 4-10 4 4-4z" style="stroke:#181818;stroke-width:1"/><path d="M692 1084.412h194" style="stroke:#181818;stroke-width:1;stroke-dasharray:2,2"/><text x="704" y="1079.347" font-family="sans-serif" font-size="13" font-weight="bold" textLength="30">[16]</text><text x="738" y="1079.347" font-family="sans-serif" font-size="13" textLength="113">Establish Channel</text><path fill="#181818" d="m670 1109.545 10 4-10 4 4-4z" style="stroke:#181818;stroke-width:1"/><path d="M438 1113.545h238" style="stroke:#181818;stroke-width:1"/><text x="445" y="1108.479" font-family="sans-serif" font-size="13" font-weight="bold" textLength="30">[17]</text><text x="479" y="1108.479" font-family="sans-serif" font-size="13" textLength="95">POST /public/...</text><path fill="#FEFFDD" d="M443 1126.545h192v23H443z" style="stroke:#181818;stroke-width:.5"/><text x="447" y="1142.612" font-family="sans-serif" font-size="13" textLength="184">Payload as described above.</text><path fill="#181818" d="m875 1171.811 10 4-10 4 4-4z" style="stroke:#181818;stroke-width:1"/><path d="M692 1175.811h189" style="stroke:#181818;stroke-width:1"/><text x="699" y="1170.745" font-family="sans-serif" font-size="13" font-weight="bold" textLength="30">[18]</text><text x="733" y="1170.745" font-family="sans-serif" font-size="13" textLength="95">POST /public/...</text><path fill="#FEFFDD" d="M697 1188.811h192v23H697z" style="stroke:#181818;stroke-width:.5"/><text x="701" y="1204.878" font-family="sans-serif" font-size="13" textLength="184">Payload as described above.</text><path fill="#181818" d="m1208 1234.077 10 4-10 4 4-4z" style="stroke:#181818;stroke-width:1"/><path d="M897 1238.077h317" style="stroke:#181818;stroke-width:1"/><text x="904" y="1233.011" font-family="sans-serif" font-size="13" font-weight="bold" textLength="30">[19]</text><text x="938" y="1233.011" font-family="sans-serif" font-size="13" textLength="254">POST /notifications/qualityalerts/receive</text><path fill="#FEFFDD" d="M902 1251.077h192v23H902z" style="stroke:#181818;stroke-width:.5"/><text x="906" y="1267.143" font-family="sans-serif" font-size="13" textLength="184">Payload as described above.</text><path fill="#FEFFDD" d="M902 1284.209h309v53H902z" style="stroke:#181818;stroke-width:.5"/><text x="906" y="1300.276" font-family="sans-serif" font-size="13" textLength="278">The http path depends on the DataAddress</text><text x="906" y="1315.409" font-family="sans-serif" font-size="13" textLength="301">in the EDC Data Asset. Thus, it depends on the</text><text x="906" y="1330.542" font-family="sans-serif" font-size="13" textLength="78">(Trace) app.</text><path fill="#181818" d="m908 1360.208-10 4 10 4-4-4z" style="stroke:#181818;stroke-width:1"/><path d="M902 1364.208h322" style="stroke:#181818;stroke-width:1;stroke-dasharray:2,2"/><text x="914" y="1358.908" font-family="sans-serif" font-size="13" font-weight="bold" textLength="31">[20]</text><text x="949" y="1358.646" font-family="monospace" font-size="13" textLength="24">201</text><text x="977" y="1359.142" font-family="sans-serif" font-size="13" textLength="18">OK</text><path fill="#181818" d="m703 1389.808-10 4 10 4-4-4z" style="stroke:#181818;stroke-width:1"/><path d="M697 1393.808h194" style="stroke:#181818;stroke-width:1;stroke-dasharray:2,2"/><text x="709" y="1388.508" font-family="sans-serif" font-size="13" font-weight="bold" textLength="30">[21]</text><text x="743" y="1388.246" font-family="monospace" font-size="13" textLength="24">201</text><text x="771" y="1388.742" font-family="sans-serif" font-size="13" textLength="18">OK</text><path fill="#181818" d="m449 1419.408-10 4 10 4-4-4z" style="stroke:#181818;stroke-width:1"/><path d="M443 1423.408h243" style="stroke:#181818;stroke-width:1;stroke-dasharray:2,2"/><text x="455" y="1418.108" font-family="sans-serif" font-size="13" font-weight="bold" textLength="30">[22]</text><text x="489" y="1417.846" font-family="monospace" font-size="13" textLength="24">201</text><text x="517" y="1418.342" font-family="sans-serif" font-size="13" textLength="18">OK</text><path fill="#181818" d="m110 1449.008-10 4 10 4-4-4z" style="stroke:#181818;stroke-width:1"/><path d="M104 1453.008h328" style="stroke:#181818;stroke-width:1;stroke-dasharray:2,2"/><text x="116" y="1447.708" font-family="sans-serif" font-size="13" font-weight="bold" textLength="29">[23]</text><text x="149" y="1447.446" font-family="monospace" font-size="13" textLength="24">201</text><text x="177" y="1447.942" font-family="sans-serif" font-size="13" textLength="18">OK</text><path d="M99 1492.274h47m0 0v13m-41 0h41" style="stroke:#181818;stroke-width:1"/><path fill="#181818" d="m115 1501.274-10 4 10 4-4-4z" style="stroke:#181818;stroke-width:1"/><text x="111" y="1479.641" font-family="sans-serif" font-size="13" font-weight="bold" textLength="30">[24]</text><text x="145" y="1472.075" font-family="sans-serif" font-size="13" textLength="167">Update Notification Status</text><text x="145" y="1487.208" font-family="sans-serif" font-size="13" textLength="128">Status := RECEIVED</text></svg>