<svg xmlns="http://www.w3.org/2000/svg" width="1177" height="1416" preserveAspectRatio="none" style="width:1177px;height:1416px;background:#fff"><path fill="none" d="M483 10h203v27.609H483z" style="stroke:none;stroke-width:1"/><text x="488" y="29.533" font-family="sans-serif" font-size="14" font-weight="bold" textLength="193">Lookup of IC Part Type Twin</text><path fill="#ADD8E6" d="M1 44.609h474.5V1410H1z" style="stroke:#181818;stroke-width:.5"/><text x="211.25" y="58.105" font-family="sans-serif" font-size="13" font-weight="bold" textLength="54">Supplier</text><path fill="#90EE90" d="M553.5 44.609h487V1410h-487z" style="stroke:#181818;stroke-width:.5"/><text x="767" y="58.105" font-family="sans-serif" font-size="13" font-weight="bold" textLength="60">Customer</text><path fill="#FFF" d="M118.5 593.547h10v30.352h-10zm0 230.164h10v30.352h-10zm104-580.383h10v30.352h-10zm0 1009.008h10v30.352h-10zm204-721.844h10V654.25h-10zm0 230.164h10v123.758h-10zm0 428.625h10v123.758h-10zm166-840.898h10v60.703h-10zm0 91.055h10v60.703h-10zm0 567.734h10v60.703h-10zm0 91.055h10v60.703h-10z" style="stroke:#181818;stroke-width:1"/><path d="M46 97.57v1276.821M123 97.57v1276.821M227 97.57v1276.821M431.5 97.57v1276.821M597.5 97.57v1276.821M715.5 97.57v1276.821M819.5 97.57v1276.821M994.5 97.57v1276.821" style="stroke:#181818;stroke-width:.5;stroke-dasharray:5,5"/><rect width="83" height="31.609" x="5" y="64.961" fill="#E2E2F0" rx="2.5" ry="2.5" style="stroke:#181818;stroke-width:.5"/><text x="12" y="86.494" font-family="sans-serif" font-size="14" textLength="69">Application</text><rect width="83" height="31.609" x="5" y="1373.391" fill="#E2E2F0" rx="2.5" ry="2.5" style="stroke:#181818;stroke-width:.5"/><text x="12" y="1394.924" font-family="sans-serif" font-size="14" textLength="69">Application</text><rect width="51" height="31.609" x="98" y="64.961" fill="#E2E2F0" rx="2.5" ry="2.5" style="stroke:#181818;stroke-width:.5"/><text x="105" y="86.494" font-family="sans-serif" font-size="14" textLength="37">dDTR</text><rect width="51" height="31.609" x="98" y="1373.391" fill="#E2E2F0" rx="2.5" ry="2.5" style="stroke:#181818;stroke-width:.5"/><text x="105" y="1394.924" font-family="sans-serif" font-size="14" textLength="37">dDTR</text><rect width="137" height="31.609" x="159" y="64.961" fill="#E2E2F0" rx="2.5" ry="2.5" style="stroke:#181818;stroke-width:.5"/><text x="166" y="86.494" font-family="sans-serif" font-size="14" textLength="123">Submodel Endpoint</text><rect width="137" height="31.609" x="159" y="1373.391" fill="#E2E2F0" rx="2.5" ry="2.5" style="stroke:#181818;stroke-width:.5"/><text x="166" y="1394.924" font-family="sans-serif" font-size="14" textLength="123">Submodel Endpoint</text><rect width="80" height="31.609" x="391.5" y="64.961" fill="#E2E2F0" rx="2.5" ry="2.5" style="stroke:#181818;stroke-width:.5"/><text x="398.5" y="86.494" font-family="sans-serif" font-size="14" textLength="66">Connector</text><rect width="80" height="31.609" x="391.5" y="1373.391" fill="#E2E2F0" rx="2.5" ry="2.5" style="stroke:#181818;stroke-width:.5"/><text x="398.5" y="1394.924" font-family="sans-serif" font-size="14" textLength="66">Connector</text><rect width="80" height="31.609" x="557.5" y="64.961" fill="#E2E2F0" rx="2.5" ry="2.5" style="stroke:#181818;stroke-width:.5"/><text x="564.5" y="86.494" font-family="sans-serif" font-size="14" textLength="66">Connector</text><rect width="80" height="31.609" x="557.5" y="1373.391" fill="#E2E2F0" rx="2.5" ry="2.5" style="stroke:#181818;stroke-width:.5"/><text x="564.5" y="1394.924" font-family="sans-serif" font-size="14" textLength="66">Connector</text><rect width="137" height="31.609" x="647.5" y="64.961" fill="#E2E2F0" rx="2.5" ry="2.5" style="stroke:#181818;stroke-width:.5"/><text x="654.5" y="86.494" font-family="sans-serif" font-size="14" textLength="123">Submodel Endpoint</text><rect width="137" height="31.609" x="647.5" y="1373.391" fill="#E2E2F0" rx="2.5" ry="2.5" style="stroke:#181818;stroke-width:.5"/><text x="654.5" y="1394.924" font-family="sans-serif" font-size="14" textLength="123">Submodel Endpoint</text><rect width="51" height="31.609" x="794.5" y="64.961" fill="#E2E2F0" rx="2.5" ry="2.5" style="stroke:#181818;stroke-width:.5"/><text x="801.5" y="86.494" font-family="sans-serif" font-size="14" textLength="37">dDTR</text><rect width="51" height="31.609" x="794.5" y="1373.391" fill="#E2E2F0" rx="2.5" ry="2.5" style="stroke:#181818;stroke-width:.5"/><text x="801.5" y="1394.924" font-family="sans-serif" font-size="14" textLength="37">dDTR</text><rect width="83" height="31.609" x="953.5" y="64.961" fill="#E2E2F0" rx="2.5" ry="2.5" style="stroke:#181818;stroke-width:.5"/><text x="960.5" y="86.494" font-family="sans-serif" font-size="14" textLength="69">Application</text><rect width="83" height="31.609" x="953.5" y="1373.391" fill="#E2E2F0" rx="2.5" ry="2.5" style="stroke:#181818;stroke-width:.5"/><text x="960.5" y="1394.924" font-family="sans-serif" font-size="14" textLength="69">Application</text><path fill="#FFF" d="M118.5 593.547h10v30.352h-10zm0 230.164h10v30.352h-10zm104-580.383h10v30.352h-10zm0 1009.008h10v30.352h-10zm204-721.844h10V654.25h-10zm0 230.164h10v123.758h-10zm0 428.625h10v123.758h-10zm166-840.898h10v60.703h-10zm0 91.055h10v60.703h-10zm0 567.734h10v60.703h-10zm0 91.055h10v60.703h-10z" style="stroke:#181818;stroke-width:1"/><path fill="#EEE" d="M0 128.746h1170v3H0z" style="stroke:#eee;stroke-width:1"/><path d="M0 128.746h1170m-1170 3h1170" style="stroke:#000;stroke-width:1"/><path fill="#EEE" d="M371.5 117.57h427v24.352h-427z" style="stroke:#000;stroke-width:2"/><text x="377.5" y="135.065" font-family="sans-serif" font-size="13" font-weight="bold" textLength="409">Supplier updates Submodel information (repository pattern only)</text><path fill="#FEFFDD" d="M8 156.922v42h461v-32l-10-10H8" style="stroke:#181818;stroke-width:.5"/><path fill="#FEFFDD" d="M459 156.922v10h10l-10-10" style="stroke:#181818;stroke-width:.5"/><text x="117.75" y="175.417" font-family="sans-serif" font-size="13" textLength="233">Keeping Submodel updated only needed</text><text x="117.75" y="191.769" font-family="sans-serif" font-size="13" textLength="119">for repository pattern</text><path fill="#181818" d="m210.5 239.328 10 4-10 4 4-4z" style="stroke:#181818;stroke-width:1"/><path d="M46.5 243.328h170" style="stroke:#181818;stroke-width:1"/><text x="53.5" y="230.296" font-family="sans-serif" font-size="13" font-weight="bold" textLength="7">1</text><text x="64.5" y="222.12" font-family="sans-serif" font-size="13" textLength="103">Update Submodel</text><text x="64.5" y="238.472" font-family="sans-serif" font-size="13" textLength="63">information</text><path fill="#181818" d="m57.5 269.68-10 4 10 4-4-4z" style="stroke:#181818;stroke-width:1"/><path d="M51.5 273.68h175" style="stroke:#181818;stroke-width:1;stroke-dasharray:2,2"/><text x="63.5" y="268.823" font-family="sans-serif" font-size="13" font-weight="bold" textLength="7">2</text><text x="74.5" y="268.823" font-family="sans-serif" font-size="13" textLength="19">OK</text><path fill="#EEE" d="M0 302.856h1170v3H0z" style="stroke:#eee;stroke-width:1"/><path d="M0 302.856h1170m-1170 3h1170" style="stroke:#000;stroke-width:1"/><path fill="#EEE" d="M414.5 291.68h341v24.352h-341z" style="stroke:#000;stroke-width:2"/><text x="420.5" y="309.175" font-family="sans-serif" font-size="13" font-weight="bold" textLength="323">Customer reads (updated) Submodel from Supplier</text><path fill="#181818" d="m613.5 344.383-10 4 10 4-4-4z" style="stroke:#181818;stroke-width:1"/><path d="M607.5 348.383H994" style="stroke:#181818;stroke-width:1"/><text x="619.5" y="343.526" font-family="sans-serif" font-size="13" font-weight="bold" textLength="7">3</text><text x="630.5" y="343.526" font-family="sans-serif" font-size="13" textLength="297">Query Connector Catalog for Supplier dDTR access</text><path fill="#181818" d="m442.5 374.734-10 4 10 4-4-4zm138 0 10 4-10 4 4-4z" style="stroke:#181818;stroke-width:1"/><path d="M436.5 378.734h150" style="stroke:#181818;stroke-width:1"/><text x="448.5" y="373.878" font-family="sans-serif" font-size="13" font-weight="bold" textLength="7">4</text><text x="459.5" y="373.878" font-family="sans-serif" font-size="13" textLength="119">DSP communication</text><path fill="#181818" d="m983 405.086 10 4-10 4 4-4z" style="stroke:#181818;stroke-width:1"/><path d="M597.5 409.086H989" style="stroke:#181818;stroke-width:1;stroke-dasharray:2,2"/><text x="604.5" y="404.229" font-family="sans-serif" font-size="13" font-weight="bold" textLength="7">5</text><text x="615.5" y="404.229" font-family="sans-serif" font-size="13" textLength="44">Catalog</text><path fill="#181818" d="m613.5 435.438-10 4 10 4-4-4z" style="stroke:#181818;stroke-width:1"/><path d="M607.5 439.438H994" style="stroke:#181818;stroke-width:1"/><text x="619.5" y="434.581" font-family="sans-serif" font-size="13" font-weight="bold" textLength="7">6</text><text x="630.5" y="434.581" font-family="sans-serif" font-size="13" textLength="201">Negotiate Contract and init transfer</text><path fill="#181818" d="m442.5 465.79-10 4 10 4-4-4zm138 0 10 4-10 4 4-4z" style="stroke:#181818;stroke-width:1"/><path d="M436.5 469.789h150" style="stroke:#181818;stroke-width:1"/><text x="448.5" y="464.933" font-family="sans-serif" font-size="13" font-weight="bold" textLength="7">7</text><text x="459.5" y="464.933" font-family="sans-serif" font-size="13" textLength="119">DSP communication</text><path fill="#181818" d="m983 496.14 10 4-10 4 4-4z" style="stroke:#181818;stroke-width:1"/><path d="M597.5 500.141H989" style="stroke:#181818;stroke-width:1;stroke-dasharray:2,2"/><text x="604.5" y="495.284" font-family="sans-serif" font-size="13" font-weight="bold" textLength="7">8</text><text x="615.5" y="495.284" font-family="sans-serif" font-size="13" textLength="19">OK</text><path fill="#181818" d="m447.5 526.492-10 4 10 4-4-4z" style="stroke:#181818;stroke-width:1"/><path d="M441.5 530.492H994" style="stroke:#181818;stroke-width:1"/><text x="453.5" y="525.636" font-family="sans-serif" font-size="13" font-weight="bold" textLength="7">9</text><text x="464.5" y="525.636" font-family="sans-serif" font-size="13" textLength="350">Query DTR for IC Part Type Twin based on specific asset ids</text><path fill="#181818" d="m139.5 589.547-10 4 10 4-4-4z" style="stroke:#181818;stroke-width:1"/><path d="M133.5 593.547h292" style="stroke:#181818;stroke-width:1"/><text x="145.5" y="572.339" font-family="sans-serif" font-size="13" font-weight="bold" textLength="14">10</text><text x="163.5" y="555.987" font-family="sans-serif" font-size="13" textLength="145">forward request based on</text><text x="163.5" y="572.339" font-family="sans-serif" font-size="13" textLength="157">Connector asset definitions</text><text x="163.5" y="588.69" font-family="sans-serif" font-size="13" textLength="101">(consumer proxy)</text><path fill="#181818" d="m414.5 619.898 10 4-10 4 4-4z" style="stroke:#181818;stroke-width:1"/><path d="M123.5 623.898h297" style="stroke:#181818;stroke-width:1;stroke-dasharray:2,2"/><text x="130.5" y="619.042" font-family="sans-serif" font-size="13" font-weight="bold" textLength="14">11</text><text x="148.5" y="619.042" font-family="sans-serif" font-size="13" textLength="4"> </text><path fill="#181818" d="m983 650.25 10 4-10 4 4-4z" style="stroke:#181818;stroke-width:1"/><path d="M431.5 654.25H989" style="stroke:#181818;stroke-width:1;stroke-dasharray:2,2"/><text x="438.5" y="649.394" font-family="sans-serif" font-size="13" font-weight="bold" textLength="14">12</text><text x="456.5" y="649.394" font-family="sans-serif" font-size="13" textLength="109">ShellDescriptor Ids</text><path d="M953 717.305h42m-42 0v13m0 0h41" style="stroke:#181818;stroke-width:1"/><path fill="#181818" d="m986 726.305 10 4-10 4 4-4z" style="stroke:#181818;stroke-width:1"/><text x="834" y="696.097" font-family="sans-serif" font-size="13" font-weight="bold" textLength="14">13</text><text x="852" y="679.745" font-family="sans-serif" font-size="13" textLength="143">select ShellDescriptor ID</text><text x="852" y="696.097" font-family="sans-serif" font-size="13" textLength="143">to get ShellDescriptor for</text><text x="852" y="712.448" font-family="sans-serif" font-size="13" textLength="102">IC Part Type Twin</text><path fill="#181818" d="m447.5 756.656-10 4 10 4-4-4z" style="stroke:#181818;stroke-width:1"/><path d="M441.5 760.656H994" style="stroke:#181818;stroke-width:1"/><text x="453.5" y="755.8" font-family="sans-serif" font-size="13" font-weight="bold" textLength="14">14</text><text x="471.5" y="755.8" font-family="sans-serif" font-size="13" textLength="311">Lookup IC Part Type Twin based on ShellDescriptor Id</text><path fill="#181818" d="m139.5 819.71-10 4 10 4-4-4z" style="stroke:#181818;stroke-width:1"/><path d="M133.5 823.711h292" style="stroke:#181818;stroke-width:1"/><text x="145.5" y="802.503" font-family="sans-serif" font-size="13" font-weight="bold" textLength="14">15</text><text x="163.5" y="786.151" font-family="sans-serif" font-size="13" textLength="145">forward request based on</text><text x="163.5" y="802.503" font-family="sans-serif" font-size="13" textLength="157">Connector asset definitions</text><text x="163.5" y="818.855" font-family="sans-serif" font-size="13" textLength="101">(consumer proxy)</text><path fill="#181818" d="m414.5 850.063 10 4-10 4 4-4z" style="stroke:#181818;stroke-width:1"/><path d="M123.5 854.063h297" style="stroke:#181818;stroke-width:1;stroke-dasharray:2,2"/><text x="130.5" y="849.206" font-family="sans-serif" font-size="13" font-weight="bold" textLength="14">16</text><text x="148.5" y="849.206" font-family="sans-serif" font-size="13" textLength="4"> </text><path fill="#181818" d="m983 880.414 10 4-10 4 4-4z" style="stroke:#181818;stroke-width:1"/><path d="M431.5 884.414H989" style="stroke:#181818;stroke-width:1;stroke-dasharray:2,2"/><text x="438.5" y="879.558" font-family="sans-serif" font-size="13" font-weight="bold" textLength="14">17</text><text x="456.5" y="879.558" font-family="sans-serif" font-size="13" textLength="88">ShellDescriptor</text><path d="M953 947.469h42m-42 0v13m0 0h41" style="stroke:#181818;stroke-width:1"/><path fill="#181818" d="m986 956.469 10 4-10 4 4-4z" style="stroke:#181818;stroke-width:1"/><text x="839" y="926.261" font-family="sans-serif" font-size="13" font-weight="bold" textLength="14">18</text><text x="857" y="909.909" font-family="sans-serif" font-size="13" textLength="128">Extract DSP Endpoint</text><text x="857" y="926.261" font-family="sans-serif" font-size="13" textLength="138">and Connector Asset ID</text><text x="857" y="942.612" font-family="sans-serif" font-size="13" textLength="76">for Submodel</text><path fill="#181818" d="m613.5 1003.172-10 4 10 4-4-4z" style="stroke:#181818;stroke-width:1"/><path d="M607.5 1007.172H994" style="stroke:#181818;stroke-width:1"/><text x="619.5" y="994.14" font-family="sans-serif" font-size="13" font-weight="bold" textLength="14">19</text><text x="637.5" y="985.964" font-family="sans-serif" font-size="13" textLength="283">Query Connector Catalog for Submodel based on</text><text x="637.5" y="1002.315" font-family="sans-serif" font-size="13" textLength="113">Connector Asset ID</text><path fill="#181818" d="m442.5 1033.523-10 4 10 4-4-4zm138 0 10 4-10 4 4-4z" style="stroke:#181818;stroke-width:1"/><path d="M436.5 1037.523h150" style="stroke:#181818;stroke-width:1"/><text x="448.5" y="1032.667" font-family="sans-serif" font-size="13" font-weight="bold" textLength="14">20</text><text x="466.5" y="1032.667" font-family="sans-serif" font-size="13" textLength="119">DSP communication</text><path fill="#181818" d="m983 1063.875 10 4-10 4 4-4z" style="stroke:#181818;stroke-width:1"/><path d="M597.5 1067.875H989" style="stroke:#181818;stroke-width:1;stroke-dasharray:2,2"/><text x="604.5" y="1063.019" font-family="sans-serif" font-size="13" font-weight="bold" textLength="14">21</text><text x="622.5" y="1063.019" font-family="sans-serif" font-size="13" textLength="44">Catalog</text><path fill="#181818" d="m613.5 1094.227-10 4 10 4-4-4z" style="stroke:#181818;stroke-width:1"/><path d="M607.5 1098.227H994" style="stroke:#181818;stroke-width:1"/><text x="619.5" y="1093.37" font-family="sans-serif" font-size="13" font-weight="bold" textLength="14">22</text><text x="637.5" y="1093.37" font-family="sans-serif" font-size="13" textLength="281">Negotiate Contract for Submodel and init transfer</text><path fill="#181818" d="m442.5 1124.578-10 4 10 4-4-4zm138 0 10 4-10 4 4-4z" style="stroke:#181818;stroke-width:1"/><path d="M436.5 1128.578h150" style="stroke:#181818;stroke-width:1"/><text x="448.5" y="1123.722" font-family="sans-serif" font-size="13" font-weight="bold" textLength="14">23</text><text x="466.5" y="1123.722" font-family="sans-serif" font-size="13" textLength="119">DSP communication</text><path fill="#181818" d="m983 1154.93 10 4-10 4 4-4z" style="stroke:#181818;stroke-width:1"/><path d="M597.5 1158.93H989" style="stroke:#181818;stroke-width:1;stroke-dasharray:2,2"/><text x="604.5" y="1154.073" font-family="sans-serif" font-size="13" font-weight="bold" textLength="14">24</text><text x="622.5" y="1154.073" font-family="sans-serif" font-size="13" textLength="19">OK</text><path fill="#181818" d="m447.5 1185.281-10 4 10 4-4-4z" style="stroke:#181818;stroke-width:1"/><path d="M441.5 1189.281H994" style="stroke:#181818;stroke-width:1"/><text x="453.5" y="1184.425" font-family="sans-serif" font-size="13" font-weight="bold" textLength="14">25</text><text x="471.5" y="1184.425" font-family="sans-serif" font-size="13" textLength="92">Read Submodel</text><path fill="#181818" d="m243.5 1248.336-10 4 10 4-4-4z" style="stroke:#181818;stroke-width:1"/><path d="M237.5 1252.336h188" style="stroke:#181818;stroke-width:1"/><text x="249.5" y="1231.128" font-family="sans-serif" font-size="13" font-weight="bold" textLength="14">26</text><text x="267.5" y="1214.776" font-family="sans-serif" font-size="13" textLength="145">forward request based on</text><text x="267.5" y="1231.128" font-family="sans-serif" font-size="13" textLength="157">Connector asset definitions</text><text x="267.5" y="1247.479" font-family="sans-serif" font-size="13" textLength="101">(consumer proxy)</text><path fill="#181818" d="m414.5 1278.688 10 4-10 4 4-4z" style="stroke:#181818;stroke-width:1"/><path d="M227.5 1282.688h193" style="stroke:#181818;stroke-width:1;stroke-dasharray:2,2"/><text x="234.5" y="1277.831" font-family="sans-serif" font-size="13" font-weight="bold" textLength="14">27</text><text x="252.5" y="1277.831" font-family="sans-serif" font-size="13" textLength="4"> </text><path fill="#181818" d="m983 1309.04 10 4-10 4 4-4z" style="stroke:#181818;stroke-width:1"/><path d="M431.5 1313.039H989" style="stroke:#181818;stroke-width:1;stroke-dasharray:2,2"/><text x="438.5" y="1308.183" font-family="sans-serif" font-size="13" font-weight="bold" textLength="14">28</text><text x="456.5" y="1308.183" font-family="sans-serif" font-size="13" textLength="58">Submodel</text><path d="M953 1343.391h42m-42 0v13m0 0h41" style="stroke:#181818;stroke-width:1"/><path fill="#181818" d="m986 1352.39 10 4-10 4 4-4z" style="stroke:#181818;stroke-width:1"/><text x="892" y="1338.534" font-family="sans-serif" font-size="13" font-weight="bold" textLength="14">29</text><text x="910" y="1338.534" font-family="sans-serif" font-size="13" textLength="85">Use Submodel</text></svg>