<?xml version="1.0" encoding="UTF-8" standalone="no"?><svg xmlns="http://www.w3.org/2000/svg" xmlns:xlink="http://www.w3.org/1999/xlink" contentStyleType="text/css" height="548px" preserveAspectRatio="none" style="width:1008px;height:548px;background:#FFFFFF;" version="1.1" viewBox="0 0 1008 548" width="1008px" zoomAndPan="magnify"><defs/><g><rect fill="none" height="27.6094" id="_title" style="stroke:none;stroke-width:1.0;" width="237" x="381.5" y="10"/><text fill="#000000" font-family="sans-serif" font-size="14" font-weight="bold" lengthAdjust="spacing" textLength="227" x="386.5" y="29.5332">Registration of IC Part Type Twin</text><rect fill="#ADD8E6" height="497.4922" style="stroke:#181818;stroke-width:0.5;" width="597" x="12" y="44.6094"/><text fill="#000000" font-family="sans-serif" font-size="13" font-weight="bold" lengthAdjust="spacing" textLength="54" x="283.5" y="58.1045">Supplier</text><rect fill="#90EE90" height="497.4922" style="stroke:#181818;stroke-width:0.5;" width="389" x="611" y="44.6094"/><text fill="#000000" font-family="sans-serif" font-size="13" font-weight="bold" lengthAdjust="spacing" textLength="60" x="775.5" y="58.1045">Customer</text><rect fill="#FFFFFF" height="30.3516" style="stroke:#181818;stroke-width:1.0;" width="10" x="337.5" y="458.1406"/><rect fill="#FFFFFF" height="30.3516" style="stroke:#181818;stroke-width:1.0;" width="10" x="441.5" y="287.6797"/><rect fill="#FFFFFF" height="30.3516" style="stroke:#181818;stroke-width:1.0;" width="10" x="560" y="174.2734"/><rect fill="#FFFFFF" height="30.3516" style="stroke:#181818;stroke-width:1.0;" width="10" x="560" y="348.3828"/><line style="stroke:#181818;stroke-width:0.5;stroke-dasharray:5.0,5.0;" x1="57" x2="57" y1="97.5703" y2="506.4922"/><line style="stroke:#181818;stroke-width:0.5;stroke-dasharray:5.0,5.0;" x1="342" x2="342" y1="97.5703" y2="506.4922"/><line style="stroke:#181818;stroke-width:0.5;stroke-dasharray:5.0,5.0;" x1="446" x2="446" y1="97.5703" y2="506.4922"/><line style="stroke:#181818;stroke-width:0.5;stroke-dasharray:5.0,5.0;" x1="565" x2="565" y1="97.5703" y2="506.4922"/><line style="stroke:#181818;stroke-width:0.5;stroke-dasharray:5.0,5.0;" x1="655" x2="655" y1="97.5703" y2="506.4922"/><line style="stroke:#181818;stroke-width:0.5;stroke-dasharray:5.0,5.0;" x1="773" x2="773" y1="97.5703" y2="506.4922"/><line style="stroke:#181818;stroke-width:0.5;stroke-dasharray:5.0,5.0;" x1="877" x2="877" y1="97.5703" y2="506.4922"/><line style="stroke:#181818;stroke-width:0.5;stroke-dasharray:5.0,5.0;" x1="954" x2="954" y1="97.5703" y2="506.4922"/><rect fill="#E2E2F0" height="31.6094" rx="2.5" ry="2.5" style="stroke:#181818;stroke-width:0.5;" width="83" x="16" y="64.9609"/><text fill="#000000" font-family="sans-serif" font-size="14" lengthAdjust="spacing" textLength="69" x="23" y="86.4941">Application</text><rect fill="#E2E2F0" height="31.6094" rx="2.5" ry="2.5" style="stroke:#181818;stroke-width:0.5;" width="83" x="16" y="505.4922"/><text fill="#000000" font-family="sans-serif" font-size="14" lengthAdjust="spacing" textLength="69" x="23" y="527.0254">Application</text><rect fill="#E2E2F0" height="31.6094" rx="2.5" ry="2.5" style="stroke:#181818;stroke-width:0.5;" width="51" x="317" y="64.9609"/><text fill="#000000" font-family="sans-serif" font-size="14" lengthAdjust="spacing" textLength="37" x="324" y="86.4941">dDTR</text><rect fill="#E2E2F0" height="31.6094" rx="2.5" ry="2.5" style="stroke:#181818;stroke-width:0.5;" width="51" x="317" y="505.4922"/><text fill="#000000" font-family="sans-serif" font-size="14" lengthAdjust="spacing" textLength="37" x="324" y="527.0254">dDTR</text><rect fill="#E2E2F0" height="31.6094" rx="2.5" ry="2.5" style="stroke:#181818;stroke-width:0.5;" width="137" x="378" y="64.9609"/><text fill="#000000" font-family="sans-serif" font-size="14" lengthAdjust="spacing" textLength="123" x="385" y="86.4941">Submodel Endpoint</text><rect fill="#E2E2F0" height="31.6094" rx="2.5" ry="2.5" style="stroke:#181818;stroke-width:0.5;" width="137" x="378" y="505.4922"/><text fill="#000000" font-family="sans-serif" font-size="14" lengthAdjust="spacing" textLength="123" x="385" y="527.0254">Submodel Endpoint</text><rect fill="#E2E2F0" height="31.6094" rx="2.5" ry="2.5" style="stroke:#181818;stroke-width:0.5;" width="80" x="525" y="64.9609"/><text fill="#000000" font-family="sans-serif" font-size="14" lengthAdjust="spacing" textLength="66" x="532" y="86.4941">Connector</text><rect fill="#E2E2F0" height="31.6094" rx="2.5" ry="2.5" style="stroke:#181818;stroke-width:0.5;" width="80" x="525" y="505.4922"/><text fill="#000000" font-family="sans-serif" font-size="14" lengthAdjust="spacing" textLength="66" x="532" y="527.0254">Connector</text><rect fill="#E2E2F0" height="31.6094" rx="2.5" ry="2.5" style="stroke:#181818;stroke-width:0.5;" width="80" x="615" y="64.9609"/><text fill="#000000" font-family="sans-serif" font-size="14" lengthAdjust="spacing" textLength="66" x="622" y="86.4941">Connector</text><rect fill="#E2E2F0" height="31.6094" rx="2.5" ry="2.5" style="stroke:#181818;stroke-width:0.5;" width="80" x="615" y="505.4922"/><text fill="#000000" font-family="sans-serif" font-size="14" lengthAdjust="spacing" textLength="66" x="622" y="527.0254">Connector</text><rect fill="#E2E2F0" height="31.6094" rx="2.5" ry="2.5" style="stroke:#181818;stroke-width:0.5;" width="137" x="705" y="64.9609"/><text fill="#000000" font-family="sans-serif" font-size="14" lengthAdjust="spacing" textLength="123" x="712" y="86.4941">Submodel Endpoint</text><rect fill="#E2E2F0" height="31.6094" rx="2.5" ry="2.5" style="stroke:#181818;stroke-width:0.5;" width="137" x="705" y="505.4922"/><text fill="#000000" font-family="sans-serif" font-size="14" lengthAdjust="spacing" textLength="123" x="712" y="527.0254">Submodel Endpoint</text><rect fill="#E2E2F0" height="31.6094" rx="2.5" ry="2.5" style="stroke:#181818;stroke-width:0.5;" width="51" x="852" y="64.9609"/><text fill="#000000" font-family="sans-serif" font-size="14" lengthAdjust="spacing" textLength="37" x="859" y="86.4941">dDTR</text><rect fill="#E2E2F0" height="31.6094" rx="2.5" ry="2.5" style="stroke:#181818;stroke-width:0.5;" width="51" x="852" y="505.4922"/><text fill="#000000" font-family="sans-serif" font-size="14" lengthAdjust="spacing" textLength="37" x="859" y="527.0254">dDTR</text><rect fill="#E2E2F0" height="31.6094" rx="2.5" ry="2.5" style="stroke:#181818;stroke-width:0.5;" width="83" x="913" y="64.9609"/><text fill="#000000" font-family="sans-serif" font-size="14" lengthAdjust="spacing" textLength="69" x="920" y="86.4941">Application</text><rect fill="#E2E2F0" height="31.6094" rx="2.5" ry="2.5" style="stroke:#181818;stroke-width:0.5;" width="83" x="913" y="505.4922"/><text fill="#000000" font-family="sans-serif" font-size="14" lengthAdjust="spacing" textLength="69" x="920" y="527.0254">Application</text><rect fill="#FFFFFF" height="30.3516" style="stroke:#181818;stroke-width:1.0;" width="10" x="337.5" y="458.1406"/><rect fill="#FFFFFF" height="30.3516" style="stroke:#181818;stroke-width:1.0;" width="10" x="441.5" y="287.6797"/><rect fill="#FFFFFF" height="30.3516" style="stroke:#181818;stroke-width:1.0;" width="10" x="560" y="174.2734"/><rect fill="#FFFFFF" height="30.3516" style="stroke:#181818;stroke-width:1.0;" width="10" x="560" y="348.3828"/><rect fill="#EEEEEE" height="3" style="stroke:#EEEEEE;stroke-width:1.0;" width="1001" x="0" y="128.7461"/><line style="stroke:#000000;stroke-width:1.0;" x1="0" x2="1001" y1="128.7461" y2="128.7461"/><line style="stroke:#000000;stroke-width:1.0;" x1="0" x2="1001" y1="131.7461" y2="131.7461"/><rect fill="#EEEEEE" height="24.3516" style="stroke:#000000;stroke-width:2.0;" width="432" x="284.5" y="117.5703"/><text fill="#000000" font-family="sans-serif" font-size="13" font-weight="bold" lengthAdjust="spacing" textLength="414" x="290.5" y="135.0654">Supplier registers IC Part Type Twin with Submodel for Customer</text><polygon fill="#181818" points="548,170.2734,558,174.2734,548,178.2734,552,174.2734" style="stroke:#181818;stroke-width:1.0;"/><line style="stroke:#181818;stroke-width:1.0;" x1="57.5" x2="554" y1="174.2734" y2="174.2734"/><text fill="#000000" font-family="sans-serif" font-size="13" font-weight="bold" lengthAdjust="spacing" textLength="7" x="64.5" y="169.417">1</text><text fill="#000000" font-family="sans-serif" font-size="13" lengthAdjust="spacing" textLength="224" x="75.5" y="169.417">Register dDTR for partner at Connector</text><polygon fill="#181818" points="68.5,200.625,58.5,204.625,68.5,208.625,64.5,204.625" style="stroke:#181818;stroke-width:1.0;"/><line style="stroke:#181818;stroke-width:1.0;stroke-dasharray:2.0,2.0;" x1="62.5" x2="564" y1="204.625" y2="204.625"/><text fill="#000000" font-family="sans-serif" font-size="13" font-weight="bold" lengthAdjust="spacing" textLength="7" x="74.5" y="199.7686">2</text><text fill="#000000" font-family="sans-serif" font-size="13" lengthAdjust="spacing" textLength="19" x="85.5" y="199.7686">OK</text><path d="M5,217.625 L5,259.625 L499,259.625 L499,227.625 L489,217.625 L5,217.625 " fill="#FEFFDD" style="stroke:#181818;stroke-width:0.5;"/><path d="M489,217.625 L489,227.625 L499,227.625 L489,217.625 " fill="#FEFFDD" style="stroke:#181818;stroke-width:0.5;"/><text fill="#000000" font-family="sans-serif" font-size="13" lengthAdjust="spacing" textLength="233" x="131" y="236.1201">Keeping Submodel updated only needed</text><text fill="#000000" font-family="sans-serif" font-size="13" lengthAdjust="spacing" textLength="119" x="131" y="252.4717">for repository pattern</text><polygon fill="#181818" points="429.5,283.6797,439.5,287.6797,429.5,291.6797,433.5,287.6797" style="stroke:#181818;stroke-width:1.0;"/><line style="stroke:#181818;stroke-width:1.0;" x1="57.5" x2="435.5" y1="287.6797" y2="287.6797"/><text fill="#000000" font-family="sans-serif" font-size="13" font-weight="bold" lengthAdjust="spacing" textLength="7" x="64.5" y="282.8232">3</text><text fill="#000000" font-family="sans-serif" font-size="13" lengthAdjust="spacing" textLength="100" x="75.5" y="282.8232">Create Submodel</text><polygon fill="#181818" points="68.5,314.0313,58.5,318.0313,68.5,322.0313,64.5,318.0313" style="stroke:#181818;stroke-width:1.0;"/><line style="stroke:#181818;stroke-width:1.0;stroke-dasharray:2.0,2.0;" x1="62.5" x2="445.5" y1="318.0313" y2="318.0313"/><text fill="#000000" font-family="sans-serif" font-size="13" font-weight="bold" lengthAdjust="spacing" textLength="7" x="74.5" y="313.1748">4</text><text fill="#000000" font-family="sans-serif" font-size="13" lengthAdjust="spacing" textLength="19" x="85.5" y="313.1748">OK</text><polygon fill="#181818" points="548,344.3828,558,348.3828,548,352.3828,552,348.3828" style="stroke:#181818;stroke-width:1.0;"/><line style="stroke:#181818;stroke-width:1.0;" x1="57.5" x2="554" y1="348.3828" y2="348.3828"/><text fill="#000000" font-family="sans-serif" font-size="13" font-weight="bold" lengthAdjust="spacing" textLength="7" x="64.5" y="343.5264">5</text><text fill="#000000" font-family="sans-serif" font-size="13" lengthAdjust="spacing" textLength="421" x="75.5" y="343.5264">Register endpoint of Submodel for READ access for partner at Connector</text><polygon fill="#181818" points="68.5,374.7344,58.5,378.7344,68.5,382.7344,64.5,378.7344" style="stroke:#181818;stroke-width:1.0;"/><line style="stroke:#181818;stroke-width:1.0;stroke-dasharray:2.0,2.0;" x1="62.5" x2="564" y1="378.7344" y2="378.7344"/><text fill="#000000" font-family="sans-serif" font-size="13" font-weight="bold" lengthAdjust="spacing" textLength="7" x="74.5" y="373.8779">6</text><text fill="#000000" font-family="sans-serif" font-size="13" lengthAdjust="spacing" textLength="19" x="85.5" y="373.8779">OK</text><polygon fill="#181818" points="325.5,454.1406,335.5,458.1406,325.5,462.1406,329.5,458.1406" style="stroke:#181818;stroke-width:1.0;"/><line style="stroke:#181818;stroke-width:1.0;" x1="57.5" x2="331.5" y1="458.1406" y2="458.1406"/><text fill="#000000" font-family="sans-serif" font-size="13" font-weight="bold" lengthAdjust="spacing" textLength="7" x="64.5" y="428.7568">7</text><text fill="#000000" font-family="sans-serif" font-size="13" lengthAdjust="spacing" textLength="250" x="75.5" y="404.2295">Register IC Part Type Twin Shell Descriptor</text><text fill="#000000" font-family="sans-serif" font-size="13" lengthAdjust="spacing" textLength="138" x="79.5" y="420.5811">with Submodel endpoint</text><text fill="#000000" font-family="sans-serif" font-size="13" lengthAdjust="spacing" textLength="110" x="75.5" y="436.9326">for Partner in dDTR</text><text fill="#000000" font-family="sans-serif" font-size="13" lengthAdjust="spacing" textLength="88" x="75.5" y="453.2842">(DSP endpoint)</text><polygon fill="#181818" points="68.5,484.4922,58.5,488.4922,68.5,492.4922,64.5,488.4922" style="stroke:#181818;stroke-width:1.0;"/><line style="stroke:#181818;stroke-width:1.0;stroke-dasharray:2.0,2.0;" x1="62.5" x2="341.5" y1="488.4922" y2="488.4922"/><text fill="#000000" font-family="sans-serif" font-size="13" font-weight="bold" lengthAdjust="spacing" textLength="7" x="74.5" y="483.6357">8</text><text fill="#000000" font-family="sans-serif" font-size="13" lengthAdjust="spacing" textLength="19" x="85.5" y="483.6357">OK</text><!--MD5=[27e056887adbe341286f7eb5732256e0]
@startuml Figure_3
title Registration of IC Part Type Twin

autonumber

box "Supplier" #LightBlue
    participant SupplierApplication as "Application"
    participant SupplierDTR as "dDTR"
    participant SupplierSubmodelEndpoint as "Submodel Endpoint"
    participant SupplierEDC as "Connector"
end box

box "Customer" #LightGreen
    participant CustomerEDC as "Connector"
    participant CustomerSubmodelEndpoint as "Submodel Endpoint"
    participant CustomerDTR as "dDTR"
    participant CustomerApplication as "Application"
end box

== Supplier registers IC Part Type Twin with Submodel for Customer ==
    SupplierApplication -> SupplierEDC: Register dDTR for partner at Connector
    activate SupplierEDC 
    return OK

    note over SupplierSubmodelEndpoint, SupplierApplication: Keeping Submodel updated only needed\nfor repository pattern
    SupplierApplication -> SupplierSubmodelEndpoint: Create Submodel
    activate SupplierSubmodelEndpoint
    return OK

    SupplierApplication -> SupplierEDC: Register endpoint of Submodel for READ access for partner at Connector
    activate SupplierEDC
    return OK

    SupplierApplication -> SupplierDTR: Register IC Part Type Twin Shell Descriptor\n with Submodel endpoint\nfor Partner in dDTR\n(DSP endpoint)
    activate SupplierDTR
    return OK
@enduml

PlantUML version 1.2022.7(Mon Aug 22 19:01:30 CEST 2022)
(GPL source distribution)
Java Runtime: Java(TM) SE Runtime Environment
JVM: Java HotSpot(TM) 64-Bit Server VM
Default Encoding: Cp1252
Language: en
Country: US
--></g></svg>