<?xml version="1.0" encoding="UTF-8" standalone="no"?><svg xmlns="http://www.w3.org/2000/svg" xmlns:xlink="http://www.w3.org/1999/xlink" contentStyleType="text/css" height="1416px" preserveAspectRatio="none" style="width:1177px;height:1416px;background:#FFFFFF;" version="1.1" viewBox="0 0 1177 1416" width="1177px" zoomAndPan="magnify"><defs/><g><rect fill="none" height="27.6094" id="_title" style="stroke:none;stroke-width:1.0;" width="203" x="483" y="10"/><text fill="#000000" font-family="sans-serif" font-size="14" font-weight="bold" lengthAdjust="spacing" textLength="193" x="488" y="29.5332">Lookup of IC Part Type Twin</text><rect fill="#ADD8E6" height="1365.3906" style="stroke:#181818;stroke-width:0.5;" width="474.5" x="1" y="44.6094"/><text fill="#000000" font-family="sans-serif" font-size="13" font-weight="bold" lengthAdjust="spacing" textLength="54" x="211.25" y="58.1045">Supplier</text><rect fill="#90EE90" height="1365.3906" style="stroke:#181818;stroke-width:0.5;" width="487" x="553.5" y="44.6094"/><text fill="#000000" font-family="sans-serif" font-size="13" font-weight="bold" lengthAdjust="spacing" textLength="60" x="767" y="58.1045">Customer</text><rect fill="#FFFFFF" height="30.3516" style="stroke:#181818;stroke-width:1.0;" width="10" x="118.5" y="593.5469"/><rect fill="#FFFFFF" height="30.3516" style="stroke:#181818;stroke-width:1.0;" width="10" x="118.5" y="823.7109"/><rect fill="#FFFFFF" height="30.3516" style="stroke:#181818;stroke-width:1.0;" width="10" x="222.5" y="243.3281"/><rect fill="#FFFFFF" height="30.3516" style="stroke:#181818;stroke-width:1.0;" width="10" x="222.5" y="1252.3359"/><rect fill="#FFFFFF" height="123.7578" style="stroke:#181818;stroke-width:1.0;" width="10" x="426.5" y="530.4922"/><rect fill="#FFFFFF" height="123.7578" style="stroke:#181818;stroke-width:1.0;" width="10" x="426.5" y="760.6563"/><rect fill="#FFFFFF" height="123.7578" style="stroke:#181818;stroke-width:1.0;" width="10" x="426.5" y="1189.2813"/><rect fill="#FFFFFF" height="60.7031" style="stroke:#181818;stroke-width:1.0;" width="10" x="592.5" y="348.3828"/><rect fill="#FFFFFF" height="60.7031" style="stroke:#181818;stroke-width:1.0;" width="10" x="592.5" y="439.4375"/><rect fill="#FFFFFF" height="60.7031" style="stroke:#181818;stroke-width:1.0;" width="10" x="592.5" y="1007.1719"/><rect fill="#FFFFFF" height="60.7031" style="stroke:#181818;stroke-width:1.0;" width="10" x="592.5" y="1098.2266"/><line style="stroke:#181818;stroke-width:0.5;stroke-dasharray:5.0,5.0;" x1="46" x2="46" y1="97.5703" y2="1374.3906"/><line style="stroke:#181818;stroke-width:0.5;stroke-dasharray:5.0,5.0;" x1="123" x2="123" y1="97.5703" y2="1374.3906"/><line style="stroke:#181818;stroke-width:0.5;stroke-dasharray:5.0,5.0;" x1="227" x2="227" y1="97.5703" y2="1374.3906"/><line style="stroke:#181818;stroke-width:0.5;stroke-dasharray:5.0,5.0;" x1="431.5" x2="431.5" y1="97.5703" y2="1374.3906"/><line style="stroke:#181818;stroke-width:0.5;stroke-dasharray:5.0,5.0;" x1="597.5" x2="597.5" y1="97.5703" y2="1374.3906"/><line style="stroke:#181818;stroke-width:0.5;stroke-dasharray:5.0,5.0;" x1="715.5" x2="715.5" y1="97.5703" y2="1374.3906"/><line style="stroke:#181818;stroke-width:0.5;stroke-dasharray:5.0,5.0;" x1="819.5" x2="819.5" y1="97.5703" y2="1374.3906"/><line style="stroke:#181818;stroke-width:0.5;stroke-dasharray:5.0,5.0;" x1="994.5" x2="994.5" y1="97.5703" y2="1374.3906"/><rect fill="#E2E2F0" height="31.6094" rx="2.5" ry="2.5" style="stroke:#181818;stroke-width:0.5;" width="83" x="5" y="64.9609"/><text fill="#000000" font-family="sans-serif" font-size="14" lengthAdjust="spacing" textLength="69" x="12" y="86.4941">Application</text><rect fill="#E2E2F0" height="31.6094" rx="2.5" ry="2.5" style="stroke:#181818;stroke-width:0.5;" width="83" x="5" y="1373.3906"/><text fill="#000000" font-family="sans-serif" font-size="14" lengthAdjust="spacing" textLength="69" x="12" y="1394.9238">Application</text><rect fill="#E2E2F0" height="31.6094" rx="2.5" ry="2.5" style="stroke:#181818;stroke-width:0.5;" width="51" x="98" y="64.9609"/><text fill="#000000" font-family="sans-serif" font-size="14" lengthAdjust="spacing" textLength="37" x="105" y="86.4941">dDTR</text><rect fill="#E2E2F0" height="31.6094" rx="2.5" ry="2.5" style="stroke:#181818;stroke-width:0.5;" width="51" x="98" y="1373.3906"/><text fill="#000000" font-family="sans-serif" font-size="14" lengthAdjust="spacing" textLength="37" x="105" y="1394.9238">dDTR</text><rect fill="#E2E2F0" height="31.6094" rx="2.5" ry="2.5" style="stroke:#181818;stroke-width:0.5;" width="137" x="159" y="64.9609"/><text fill="#000000" font-family="sans-serif" font-size="14" lengthAdjust="spacing" textLength="123" x="166" y="86.4941">Submodel Endpoint</text><rect fill="#E2E2F0" height="31.6094" rx="2.5" ry="2.5" style="stroke:#181818;stroke-width:0.5;" width="137" x="159" y="1373.3906"/><text fill="#000000" font-family="sans-serif" font-size="14" lengthAdjust="spacing" textLength="123" x="166" y="1394.9238">Submodel Endpoint</text><rect fill="#E2E2F0" height="31.6094" rx="2.5" ry="2.5" style="stroke:#181818;stroke-width:0.5;" width="80" x="391.5" y="64.9609"/><text fill="#000000" font-family="sans-serif" font-size="14" lengthAdjust="spacing" textLength="66" x="398.5" y="86.4941">Connector</text><rect fill="#E2E2F0" height="31.6094" rx="2.5" ry="2.5" style="stroke:#181818;stroke-width:0.5;" width="80" x="391.5" y="1373.3906"/><text fill="#000000" font-family="sans-serif" font-size="14" lengthAdjust="spacing" textLength="66" x="398.5" y="1394.9238">Connector</text><rect fill="#E2E2F0" height="31.6094" rx="2.5" ry="2.5" style="stroke:#181818;stroke-width:0.5;" width="80" x="557.5" y="64.9609"/><text fill="#000000" font-family="sans-serif" font-size="14" lengthAdjust="spacing" textLength="66" x="564.5" y="86.4941">Connector</text><rect fill="#E2E2F0" height="31.6094" rx="2.5" ry="2.5" style="stroke:#181818;stroke-width:0.5;" width="80" x="557.5" y="1373.3906"/><text fill="#000000" font-family="sans-serif" font-size="14" lengthAdjust="spacing" textLength="66" x="564.5" y="1394.9238">Connector</text><rect fill="#E2E2F0" height="31.6094" rx="2.5" ry="2.5" style="stroke:#181818;stroke-width:0.5;" width="137" x="647.5" y="64.9609"/><text fill="#000000" font-family="sans-serif" font-size="14" lengthAdjust="spacing" textLength="123" x="654.5" y="86.4941">Submodel Endpoint</text><rect fill="#E2E2F0" height="31.6094" rx="2.5" ry="2.5" style="stroke:#181818;stroke-width:0.5;" width="137" x="647.5" y="1373.3906"/><text fill="#000000" font-family="sans-serif" font-size="14" lengthAdjust="spacing" textLength="123" x="654.5" y="1394.9238">Submodel Endpoint</text><rect fill="#E2E2F0" height="31.6094" rx="2.5" ry="2.5" style="stroke:#181818;stroke-width:0.5;" width="51" x="794.5" y="64.9609"/><text fill="#000000" font-family="sans-serif" font-size="14" lengthAdjust="spacing" textLength="37" x="801.5" y="86.4941">dDTR</text><rect fill="#E2E2F0" height="31.6094" rx="2.5" ry="2.5" style="stroke:#181818;stroke-width:0.5;" width="51" x="794.5" y="1373.3906"/><text fill="#000000" font-family="sans-serif" font-size="14" lengthAdjust="spacing" textLength="37" x="801.5" y="1394.9238">dDTR</text><rect fill="#E2E2F0" height="31.6094" rx="2.5" ry="2.5" style="stroke:#181818;stroke-width:0.5;" width="83" x="953.5" y="64.9609"/><text fill="#000000" font-family="sans-serif" font-size="14" lengthAdjust="spacing" textLength="69" x="960.5" y="86.4941">Application</text><rect fill="#E2E2F0" height="31.6094" rx="2.5" ry="2.5" style="stroke:#181818;stroke-width:0.5;" width="83" x="953.5" y="1373.3906"/><text fill="#000000" font-family="sans-serif" font-size="14" lengthAdjust="spacing" textLength="69" x="960.5" y="1394.9238">Application</text><rect fill="#FFFFFF" height="30.3516" style="stroke:#181818;stroke-width:1.0;" width="10" x="118.5" y="593.5469"/><rect fill="#FFFFFF" height="30.3516" style="stroke:#181818;stroke-width:1.0;" width="10" x="118.5" y="823.7109"/><rect fill="#FFFFFF" height="30.3516" style="stroke:#181818;stroke-width:1.0;" width="10" x="222.5" y="243.3281"/><rect fill="#FFFFFF" height="30.3516" style="stroke:#181818;stroke-width:1.0;" width="10" x="222.5" y="1252.3359"/><rect fill="#FFFFFF" height="123.7578" style="stroke:#181818;stroke-width:1.0;" width="10" x="426.5" y="530.4922"/><rect fill="#FFFFFF" height="123.7578" style="stroke:#181818;stroke-width:1.0;" width="10" x="426.5" y="760.6563"/><rect fill="#FFFFFF" height="123.7578" style="stroke:#181818;stroke-width:1.0;" width="10" x="426.5" y="1189.2813"/><rect fill="#FFFFFF" height="60.7031" style="stroke:#181818;stroke-width:1.0;" width="10" x="592.5" y="348.3828"/><rect fill="#FFFFFF" height="60.7031" style="stroke:#181818;stroke-width:1.0;" width="10" x="592.5" y="439.4375"/><rect fill="#FFFFFF" height="60.7031" style="stroke:#181818;stroke-width:1.0;" width="10" x="592.5" y="1007.1719"/><rect fill="#FFFFFF" height="60.7031" style="stroke:#181818;stroke-width:1.0;" width="10" x="592.5" y="1098.2266"/><rect fill="#EEEEEE" height="3" style="stroke:#EEEEEE;stroke-width:1.0;" width="1170" x="0" y="128.7461"/><line style="stroke:#000000;stroke-width:1.0;" x1="0" x2="1170" y1="128.7461" y2="128.7461"/><line style="stroke:#000000;stroke-width:1.0;" x1="0" x2="1170" y1="131.7461" y2="131.7461"/><rect fill="#EEEEEE" height="24.3516" style="stroke:#000000;stroke-width:2.0;" width="427" x="371.5" y="117.5703"/><text fill="#000000" font-family="sans-serif" font-size="13" font-weight="bold" lengthAdjust="spacing" textLength="409" x="377.5" y="135.0654">Supplier updates Submodel information (repository pattern only)</text><path d="M8,156.9219 L8,198.9219 L469,198.9219 L469,166.9219 L459,156.9219 L8,156.9219 " fill="#FEFFDD" style="stroke:#181818;stroke-width:0.5;"/><path d="M459,156.9219 L459,166.9219 L469,166.9219 L459,156.9219 " fill="#FEFFDD" style="stroke:#181818;stroke-width:0.5;"/><text fill="#000000" font-family="sans-serif" font-size="13" lengthAdjust="spacing" textLength="233" x="117.75" y="175.417">Keeping Submodel updated only needed</text><text fill="#000000" font-family="sans-serif" font-size="13" lengthAdjust="spacing" textLength="119" x="117.75" y="191.7686">for repository pattern</text><polygon fill="#181818" points="210.5,239.3281,220.5,243.3281,210.5,247.3281,214.5,243.3281" style="stroke:#181818;stroke-width:1.0;"/><line style="stroke:#181818;stroke-width:1.0;" x1="46.5" x2="216.5" y1="243.3281" y2="243.3281"/><text fill="#000000" font-family="sans-serif" font-size="13" font-weight="bold" lengthAdjust="spacing" textLength="7" x="53.5" y="230.2959">1</text><text fill="#000000" font-family="sans-serif" font-size="13" lengthAdjust="spacing" textLength="103" x="64.5" y="222.1201">Update Submodel</text><text fill="#000000" font-family="sans-serif" font-size="13" lengthAdjust="spacing" textLength="63" x="64.5" y="238.4717">information</text><polygon fill="#181818" points="57.5,269.6797,47.5,273.6797,57.5,277.6797,53.5,273.6797" style="stroke:#181818;stroke-width:1.0;"/><line style="stroke:#181818;stroke-width:1.0;stroke-dasharray:2.0,2.0;" x1="51.5" x2="226.5" y1="273.6797" y2="273.6797"/><text fill="#000000" font-family="sans-serif" font-size="13" font-weight="bold" lengthAdjust="spacing" textLength="7" x="63.5" y="268.8232">2</text><text fill="#000000" font-family="sans-serif" font-size="13" lengthAdjust="spacing" textLength="19" x="74.5" y="268.8232">OK</text><rect fill="#EEEEEE" height="3" style="stroke:#EEEEEE;stroke-width:1.0;" width="1170" x="0" y="302.8555"/><line style="stroke:#000000;stroke-width:1.0;" x1="0" x2="1170" y1="302.8555" y2="302.8555"/><line style="stroke:#000000;stroke-width:1.0;" x1="0" x2="1170" y1="305.8555" y2="305.8555"/><rect fill="#EEEEEE" height="24.3516" style="stroke:#000000;stroke-width:2.0;" width="341" x="414.5" y="291.6797"/><text fill="#000000" font-family="sans-serif" font-size="13" font-weight="bold" lengthAdjust="spacing" textLength="323" x="420.5" y="309.1748">Customer reads (updated) Submodel from Supplier</text><polygon fill="#181818" points="613.5,344.3828,603.5,348.3828,613.5,352.3828,609.5,348.3828" style="stroke:#181818;stroke-width:1.0;"/><line style="stroke:#181818;stroke-width:1.0;" x1="607.5" x2="994" y1="348.3828" y2="348.3828"/><text fill="#000000" font-family="sans-serif" font-size="13" font-weight="bold" lengthAdjust="spacing" textLength="7" x="619.5" y="343.5264">3</text><text fill="#000000" font-family="sans-serif" font-size="13" lengthAdjust="spacing" textLength="297" x="630.5" y="343.5264">Query Connector Catalog for Supplier dDTR access</text><polygon fill="#181818" points="442.5,374.7344,432.5,378.7344,442.5,382.7344,438.5,378.7344" style="stroke:#181818;stroke-width:1.0;"/><polygon fill="#181818" points="580.5,374.7344,590.5,378.7344,580.5,382.7344,584.5,378.7344" style="stroke:#181818;stroke-width:1.0;"/><line style="stroke:#181818;stroke-width:1.0;" x1="436.5" x2="586.5" y1="378.7344" y2="378.7344"/><text fill="#000000" font-family="sans-serif" font-size="13" font-weight="bold" lengthAdjust="spacing" textLength="7" x="448.5" y="373.8779">4</text><text fill="#000000" font-family="sans-serif" font-size="13" lengthAdjust="spacing" textLength="119" x="459.5" y="373.8779">DSP communication</text><polygon fill="#181818" points="983,405.0859,993,409.0859,983,413.0859,987,409.0859" style="stroke:#181818;stroke-width:1.0;"/><line style="stroke:#181818;stroke-width:1.0;stroke-dasharray:2.0,2.0;" x1="597.5" x2="989" y1="409.0859" y2="409.0859"/><text fill="#000000" font-family="sans-serif" font-size="13" font-weight="bold" lengthAdjust="spacing" textLength="7" x="604.5" y="404.2295">5</text><text fill="#000000" font-family="sans-serif" font-size="13" lengthAdjust="spacing" textLength="44" x="615.5" y="404.2295">Catalog</text><polygon fill="#181818" points="613.5,435.4375,603.5,439.4375,613.5,443.4375,609.5,439.4375" style="stroke:#181818;stroke-width:1.0;"/><line style="stroke:#181818;stroke-width:1.0;" x1="607.5" x2="994" y1="439.4375" y2="439.4375"/><text fill="#000000" font-family="sans-serif" font-size="13" font-weight="bold" lengthAdjust="spacing" textLength="7" x="619.5" y="434.5811">6</text><text fill="#000000" font-family="sans-serif" font-size="13" lengthAdjust="spacing" textLength="201" x="630.5" y="434.5811">Negotiate Contract and init transfer</text><polygon fill="#181818" points="442.5,465.7891,432.5,469.7891,442.5,473.7891,438.5,469.7891" style="stroke:#181818;stroke-width:1.0;"/><polygon fill="#181818" points="580.5,465.7891,590.5,469.7891,580.5,473.7891,584.5,469.7891" style="stroke:#181818;stroke-width:1.0;"/><line style="stroke:#181818;stroke-width:1.0;" x1="436.5" x2="586.5" y1="469.7891" y2="469.7891"/><text fill="#000000" font-family="sans-serif" font-size="13" font-weight="bold" lengthAdjust="spacing" textLength="7" x="448.5" y="464.9326">7</text><text fill="#000000" font-family="sans-serif" font-size="13" lengthAdjust="spacing" textLength="119" x="459.5" y="464.9326">DSP communication</text><polygon fill="#181818" points="983,496.1406,993,500.1406,983,504.1406,987,500.1406" style="stroke:#181818;stroke-width:1.0;"/><line style="stroke:#181818;stroke-width:1.0;stroke-dasharray:2.0,2.0;" x1="597.5" x2="989" y1="500.1406" y2="500.1406"/><text fill="#000000" font-family="sans-serif" font-size="13" font-weight="bold" lengthAdjust="spacing" textLength="7" x="604.5" y="495.2842">8</text><text fill="#000000" font-family="sans-serif" font-size="13" lengthAdjust="spacing" textLength="19" x="615.5" y="495.2842">OK</text><polygon fill="#181818" points="447.5,526.4922,437.5,530.4922,447.5,534.4922,443.5,530.4922" style="stroke:#181818;stroke-width:1.0;"/><line style="stroke:#181818;stroke-width:1.0;" x1="441.5" x2="994" y1="530.4922" y2="530.4922"/><text fill="#000000" font-family="sans-serif" font-size="13" font-weight="bold" lengthAdjust="spacing" textLength="7" x="453.5" y="525.6357">9</text><text fill="#000000" font-family="sans-serif" font-size="13" lengthAdjust="spacing" textLength="350" x="464.5" y="525.6357">Query DTR for IC Part Type Twin based on specific asset ids</text><polygon fill="#181818" points="139.5,589.5469,129.5,593.5469,139.5,597.5469,135.5,593.5469" style="stroke:#181818;stroke-width:1.0;"/><line style="stroke:#181818;stroke-width:1.0;" x1="133.5" x2="425.5" y1="593.5469" y2="593.5469"/><text fill="#000000" font-family="sans-serif" font-size="13" font-weight="bold" lengthAdjust="spacing" textLength="14" x="145.5" y="572.3389">10</text><text fill="#000000" font-family="sans-serif" font-size="13" lengthAdjust="spacing" textLength="145" x="163.5" y="555.9873">forward request based on</text><text fill="#000000" font-family="sans-serif" font-size="13" lengthAdjust="spacing" textLength="157" x="163.5" y="572.3389">Connector asset definitions</text><text fill="#000000" font-family="sans-serif" font-size="13" lengthAdjust="spacing" textLength="101" x="163.5" y="588.6904">(consumer proxy)</text><polygon fill="#181818" points="414.5,619.8984,424.5,623.8984,414.5,627.8984,418.5,623.8984" style="stroke:#181818;stroke-width:1.0;"/><line style="stroke:#181818;stroke-width:1.0;stroke-dasharray:2.0,2.0;" x1="123.5" x2="420.5" y1="623.8984" y2="623.8984"/><text fill="#000000" font-family="sans-serif" font-size="13" font-weight="bold" lengthAdjust="spacing" textLength="14" x="130.5" y="619.042">11</text><text fill="#000000" font-family="sans-serif" font-size="13" lengthAdjust="spacing" textLength="4" x="148.5" y="619.042"> </text><polygon fill="#181818" points="983,650.25,993,654.25,983,658.25,987,654.25" style="stroke:#181818;stroke-width:1.0;"/><line style="stroke:#181818;stroke-width:1.0;stroke-dasharray:2.0,2.0;" x1="431.5" x2="989" y1="654.25" y2="654.25"/><text fill="#000000" font-family="sans-serif" font-size="13" font-weight="bold" lengthAdjust="spacing" textLength="14" x="438.5" y="649.3936">12</text><text fill="#000000" font-family="sans-serif" font-size="13" lengthAdjust="spacing" textLength="109" x="456.5" y="649.3936">ShellDescriptor Ids</text><line style="stroke:#181818;stroke-width:1.0;" x1="953" x2="995" y1="717.3047" y2="717.3047"/><line style="stroke:#181818;stroke-width:1.0;" x1="953" x2="953" y1="717.3047" y2="730.3047"/><line style="stroke:#181818;stroke-width:1.0;" x1="953" x2="994" y1="730.3047" y2="730.3047"/><polygon fill="#181818" points="986,726.3047,996,730.3047,986,734.3047,990,730.3047" style="stroke:#181818;stroke-width:1.0;"/><text fill="#000000" font-family="sans-serif" font-size="13" font-weight="bold" lengthAdjust="spacing" textLength="14" x="834" y="696.0967">13</text><text fill="#000000" font-family="sans-serif" font-size="13" lengthAdjust="spacing" textLength="143" x="852" y="679.7451">select ShellDescriptor ID</text><text fill="#000000" font-family="sans-serif" font-size="13" lengthAdjust="spacing" textLength="143" x="852" y="696.0967">to get ShellDescriptor for</text><text fill="#000000" font-family="sans-serif" font-size="13" lengthAdjust="spacing" textLength="102" x="852" y="712.4482">IC Part Type Twin</text><polygon fill="#181818" points="447.5,756.6563,437.5,760.6563,447.5,764.6563,443.5,760.6563" style="stroke:#181818;stroke-width:1.0;"/><line style="stroke:#181818;stroke-width:1.0;" x1="441.5" x2="994" y1="760.6563" y2="760.6563"/><text fill="#000000" font-family="sans-serif" font-size="13" font-weight="bold" lengthAdjust="spacing" textLength="14" x="453.5" y="755.7998">14</text><text fill="#000000" font-family="sans-serif" font-size="13" lengthAdjust="spacing" textLength="311" x="471.5" y="755.7998">Lookup IC Part Type Twin based on ShellDescriptor Id</text><polygon fill="#181818" points="139.5,819.7109,129.5,823.7109,139.5,827.7109,135.5,823.7109" style="stroke:#181818;stroke-width:1.0;"/><line style="stroke:#181818;stroke-width:1.0;" x1="133.5" x2="425.5" y1="823.7109" y2="823.7109"/><text fill="#000000" font-family="sans-serif" font-size="13" font-weight="bold" lengthAdjust="spacing" textLength="14" x="145.5" y="802.5029">15</text><text fill="#000000" font-family="sans-serif" font-size="13" lengthAdjust="spacing" textLength="145" x="163.5" y="786.1514">forward request based on</text><text fill="#000000" font-family="sans-serif" font-size="13" lengthAdjust="spacing" textLength="157" x="163.5" y="802.5029">Connector asset definitions</text><text fill="#000000" font-family="sans-serif" font-size="13" lengthAdjust="spacing" textLength="101" x="163.5" y="818.8545">(consumer proxy)</text><polygon fill="#181818" points="414.5,850.0625,424.5,854.0625,414.5,858.0625,418.5,854.0625" style="stroke:#181818;stroke-width:1.0;"/><line style="stroke:#181818;stroke-width:1.0;stroke-dasharray:2.0,2.0;" x1="123.5" x2="420.5" y1="854.0625" y2="854.0625"/><text fill="#000000" font-family="sans-serif" font-size="13" font-weight="bold" lengthAdjust="spacing" textLength="14" x="130.5" y="849.2061">16</text><text fill="#000000" font-family="sans-serif" font-size="13" lengthAdjust="spacing" textLength="4" x="148.5" y="849.2061"> </text><polygon fill="#181818" points="983,880.4141,993,884.4141,983,888.4141,987,884.4141" style="stroke:#181818;stroke-width:1.0;"/><line style="stroke:#181818;stroke-width:1.0;stroke-dasharray:2.0,2.0;" x1="431.5" x2="989" y1="884.4141" y2="884.4141"/><text fill="#000000" font-family="sans-serif" font-size="13" font-weight="bold" lengthAdjust="spacing" textLength="14" x="438.5" y="879.5576">17</text><text fill="#000000" font-family="sans-serif" font-size="13" lengthAdjust="spacing" textLength="88" x="456.5" y="879.5576">ShellDescriptor</text><line style="stroke:#181818;stroke-width:1.0;" x1="953" x2="995" y1="947.4688" y2="947.4688"/><line style="stroke:#181818;stroke-width:1.0;" x1="953" x2="953" y1="947.4688" y2="960.4688"/><line style="stroke:#181818;stroke-width:1.0;" x1="953" x2="994" y1="960.4688" y2="960.4688"/><polygon fill="#181818" points="986,956.4688,996,960.4688,986,964.4688,990,960.4688" style="stroke:#181818;stroke-width:1.0;"/><text fill="#000000" font-family="sans-serif" font-size="13" font-weight="bold" lengthAdjust="spacing" textLength="14" x="839" y="926.2607">18</text><text fill="#000000" font-family="sans-serif" font-size="13" lengthAdjust="spacing" textLength="128" x="857" y="909.9092">Extract DSP Endpoint</text><text fill="#000000" font-family="sans-serif" font-size="13" lengthAdjust="spacing" textLength="138" x="857" y="926.2607">and Connector Asset ID</text><text fill="#000000" font-family="sans-serif" font-size="13" lengthAdjust="spacing" textLength="76" x="857" y="942.6123">for Submodel</text><polygon fill="#181818" points="613.5,1003.1719,603.5,1007.1719,613.5,1011.1719,609.5,1007.1719" style="stroke:#181818;stroke-width:1.0;"/><line style="stroke:#181818;stroke-width:1.0;" x1="607.5" x2="994" y1="1007.1719" y2="1007.1719"/><text fill="#000000" font-family="sans-serif" font-size="13" font-weight="bold" lengthAdjust="spacing" textLength="14" x="619.5" y="994.1396">19</text><text fill="#000000" font-family="sans-serif" font-size="13" lengthAdjust="spacing" textLength="283" x="637.5" y="985.9639">Query Connector Catalog for Submodel based on</text><text fill="#000000" font-family="sans-serif" font-size="13" lengthAdjust="spacing" textLength="113" x="637.5" y="1002.3154">Connector Asset ID</text><polygon fill="#181818" points="442.5,1033.5234,432.5,1037.5234,442.5,1041.5234,438.5,1037.5234" style="stroke:#181818;stroke-width:1.0;"/><polygon fill="#181818" points="580.5,1033.5234,590.5,1037.5234,580.5,1041.5234,584.5,1037.5234" style="stroke:#181818;stroke-width:1.0;"/><line style="stroke:#181818;stroke-width:1.0;" x1="436.5" x2="586.5" y1="1037.5234" y2="1037.5234"/><text fill="#000000" font-family="sans-serif" font-size="13" font-weight="bold" lengthAdjust="spacing" textLength="14" x="448.5" y="1032.667">20</text><text fill="#000000" font-family="sans-serif" font-size="13" lengthAdjust="spacing" textLength="119" x="466.5" y="1032.667">DSP communication</text><polygon fill="#181818" points="983,1063.875,993,1067.875,983,1071.875,987,1067.875" style="stroke:#181818;stroke-width:1.0;"/><line style="stroke:#181818;stroke-width:1.0;stroke-dasharray:2.0,2.0;" x1="597.5" x2="989" y1="1067.875" y2="1067.875"/><text fill="#000000" font-family="sans-serif" font-size="13" font-weight="bold" lengthAdjust="spacing" textLength="14" x="604.5" y="1063.0186">21</text><text fill="#000000" font-family="sans-serif" font-size="13" lengthAdjust="spacing" textLength="44" x="622.5" y="1063.0186">Catalog</text><polygon fill="#181818" points="613.5,1094.2266,603.5,1098.2266,613.5,1102.2266,609.5,1098.2266" style="stroke:#181818;stroke-width:1.0;"/><line style="stroke:#181818;stroke-width:1.0;" x1="607.5" x2="994" y1="1098.2266" y2="1098.2266"/><text fill="#000000" font-family="sans-serif" font-size="13" font-weight="bold" lengthAdjust="spacing" textLength="14" x="619.5" y="1093.3701">22</text><text fill="#000000" font-family="sans-serif" font-size="13" lengthAdjust="spacing" textLength="281" x="637.5" y="1093.3701">Negotiate Contract for Submodel and init transfer</text><polygon fill="#181818" points="442.5,1124.5781,432.5,1128.5781,442.5,1132.5781,438.5,1128.5781" style="stroke:#181818;stroke-width:1.0;"/><polygon fill="#181818" points="580.5,1124.5781,590.5,1128.5781,580.5,1132.5781,584.5,1128.5781" style="stroke:#181818;stroke-width:1.0;"/><line style="stroke:#181818;stroke-width:1.0;" x1="436.5" x2="586.5" y1="1128.5781" y2="1128.5781"/><text fill="#000000" font-family="sans-serif" font-size="13" font-weight="bold" lengthAdjust="spacing" textLength="14" x="448.5" y="1123.7217">23</text><text fill="#000000" font-family="sans-serif" font-size="13" lengthAdjust="spacing" textLength="119" x="466.5" y="1123.7217">DSP communication</text><polygon fill="#181818" points="983,1154.9297,993,1158.9297,983,1162.9297,987,1158.9297" style="stroke:#181818;stroke-width:1.0;"/><line style="stroke:#181818;stroke-width:1.0;stroke-dasharray:2.0,2.0;" x1="597.5" x2="989" y1="1158.9297" y2="1158.9297"/><text fill="#000000" font-family="sans-serif" font-size="13" font-weight="bold" lengthAdjust="spacing" textLength="14" x="604.5" y="1154.0732">24</text><text fill="#000000" font-family="sans-serif" font-size="13" lengthAdjust="spacing" textLength="19" x="622.5" y="1154.0732">OK</text><polygon fill="#181818" points="447.5,1185.2813,437.5,1189.2813,447.5,1193.2813,443.5,1189.2813" style="stroke:#181818;stroke-width:1.0;"/><line style="stroke:#181818;stroke-width:1.0;" x1="441.5" x2="994" y1="1189.2813" y2="1189.2813"/><text fill="#000000" font-family="sans-serif" font-size="13" font-weight="bold" lengthAdjust="spacing" textLength="14" x="453.5" y="1184.4248">25</text><text fill="#000000" font-family="sans-serif" font-size="13" lengthAdjust="spacing" textLength="92" x="471.5" y="1184.4248">Read Submodel</text><polygon fill="#181818" points="243.5,1248.3359,233.5,1252.3359,243.5,1256.3359,239.5,1252.3359" style="stroke:#181818;stroke-width:1.0;"/><line style="stroke:#181818;stroke-width:1.0;" x1="237.5" x2="425.5" y1="1252.3359" y2="1252.3359"/><text fill="#000000" font-family="sans-serif" font-size="13" font-weight="bold" lengthAdjust="spacing" textLength="14" x="249.5" y="1231.1279">26</text><text fill="#000000" font-family="sans-serif" font-size="13" lengthAdjust="spacing" textLength="145" x="267.5" y="1214.7764">forward request based on</text><text fill="#000000" font-family="sans-serif" font-size="13" lengthAdjust="spacing" textLength="157" x="267.5" y="1231.1279">Connector asset definitions</text><text fill="#000000" font-family="sans-serif" font-size="13" lengthAdjust="spacing" textLength="101" x="267.5" y="1247.4795">(consumer proxy)</text><polygon fill="#181818" points="414.5,1278.6875,424.5,1282.6875,414.5,1286.6875,418.5,1282.6875" style="stroke:#181818;stroke-width:1.0;"/><line style="stroke:#181818;stroke-width:1.0;stroke-dasharray:2.0,2.0;" x1="227.5" x2="420.5" y1="1282.6875" y2="1282.6875"/><text fill="#000000" font-family="sans-serif" font-size="13" font-weight="bold" lengthAdjust="spacing" textLength="14" x="234.5" y="1277.8311">27</text><text fill="#000000" font-family="sans-serif" font-size="13" lengthAdjust="spacing" textLength="4" x="252.5" y="1277.8311"> </text><polygon fill="#181818" points="983,1309.0391,993,1313.0391,983,1317.0391,987,1313.0391" style="stroke:#181818;stroke-width:1.0;"/><line style="stroke:#181818;stroke-width:1.0;stroke-dasharray:2.0,2.0;" x1="431.5" x2="989" y1="1313.0391" y2="1313.0391"/><text fill="#000000" font-family="sans-serif" font-size="13" font-weight="bold" lengthAdjust="spacing" textLength="14" x="438.5" y="1308.1826">28</text><text fill="#000000" font-family="sans-serif" font-size="13" lengthAdjust="spacing" textLength="58" x="456.5" y="1308.1826">Submodel</text><line style="stroke:#181818;stroke-width:1.0;" x1="953" x2="995" y1="1343.3906" y2="1343.3906"/><line style="stroke:#181818;stroke-width:1.0;" x1="953" x2="953" y1="1343.3906" y2="1356.3906"/><line style="stroke:#181818;stroke-width:1.0;" x1="953" x2="994" y1="1356.3906" y2="1356.3906"/><polygon fill="#181818" points="986,1352.3906,996,1356.3906,986,1360.3906,990,1356.3906" style="stroke:#181818;stroke-width:1.0;"/><text fill="#000000" font-family="sans-serif" font-size="13" font-weight="bold" lengthAdjust="spacing" textLength="14" x="892" y="1338.5342">29</text><text fill="#000000" font-family="sans-serif" font-size="13" lengthAdjust="spacing" textLength="85" x="910" y="1338.5342">Use Submodel</text><!--MD5=[013299ce7b47dd6f045048608c61a0ee]
@startuml Figure_4

title Lookup of IC Part Type Twin

autonumber

box "Supplier" #LightBlue
    participant SupplierApplication as "Application"
    participant SupplierDTR as "dDTR"
    participant SupplierSubmodelEndpoint as "Submodel Endpoint"
    participant SupplierEDC as "Connector"
end box

box "Customer" #LightGreen
    participant CustomerEDC as "Connector"
    participant CustomerSubmodelEndpoint as "Submodel Endpoint"
    participant CustomerDTR as "dDTR"
    participant CustomerApplication as "Application"
end box


== Supplier updates Submodel information (repository pattern only) ==

    note over SupplierEDC, SupplierApplication: Keeping Submodel updated only needed\nfor repository pattern
    SupplierApplication -> SupplierSubmodelEndpoint: Update Submodel\ninformation
    activate SupplierSubmodelEndpoint
    return OK


== Customer reads (updated) Submodel from Supplier ==

    CustomerApplication -> CustomerEDC: Query Connector Catalog for Supplier dDTR access
    activate CustomerEDC

        CustomerEDC <-> SupplierEDC: DSP communication
        
    return Catalog

    CustomerApplication -> CustomerEDC: Negotiate Contract and init transfer
    activate CustomerEDC
        CustomerEDC <-> SupplierEDC: DSP communication
    return OK

    CustomerApplication -> SupplierEDC: Query DTR for IC Part Type Twin based on specific asset ids
    activate SupplierEDC
      SupplierEDC -> SupplierDTR: forward request based on\nConnector asset definitions\n(consumer proxy)
      activate SupplierDTR
      SupplierDTR - -> SupplierEDC
      deactivate SupplierDTR
    return ShellDescriptor Ids

    CustomerApplication <- CustomerApplication: select ShellDescriptor ID\nto get ShellDescriptor for\nIC Part Type Twin

    CustomerApplication -> SupplierEDC: Lookup IC Part Type Twin based on ShellDescriptor Id
    activate SupplierEDC
      SupplierEDC -> SupplierDTR: forward request based on\nConnector asset definitions\n(consumer proxy)
      activate SupplierDTR
      SupplierDTR - -> SupplierEDC
      deactivate SupplierDTR
    return ShellDescriptor

    CustomerApplication <- CustomerApplication: Extract DSP Endpoint\nand Connector Asset ID\nfor Submodel

    CustomerApplication -> CustomerEDC: Query Connector Catalog for Submodel based on\nConnector Asset ID
    activate CustomerEDC

        CustomerEDC <-> SupplierEDC: DSP communication

    return Catalog

    CustomerApplication -> CustomerEDC: Negotiate Contract for Submodel and init transfer
    activate CustomerEDC
        CustomerEDC <-> SupplierEDC: DSP communication
    return OK

    CustomerApplication -> SupplierEDC: Read Submodel
    activate SupplierEDC
      SupplierEDC -> SupplierSubmodelEndpoint: forward request based on\nConnector asset definitions\n(consumer proxy)
      activate SupplierSubmodelEndpoint
      SupplierSubmodelEndpoint - -> SupplierEDC
      deactivate SupplierSubmodelEndpoint
    return Submodel

    CustomerApplication <- CustomerApplication: Use Submodel

@enduml

PlantUML version 1.2022.7(Mon Aug 22 19:01:30 CEST 2022)
(GPL source distribution)
Java Runtime: Java(TM) SE Runtime Environment
JVM: Java HotSpot(TM) 64-Bit Server VM
Default Encoding: Cp1252
Language: en
Country: US
--></g></svg>