<?xml version="1.0" encoding="UTF-8" standalone="no"?><svg xmlns="http://www.w3.org/2000/svg" xmlns:xlink="http://www.w3.org/1999/xlink" contentStyleType="text/css" height="278.125px" preserveAspectRatio="none" style="width:294px;height:278px;background:#FFFFFF;" version="1.1" viewBox="0 0 294 278" width="294.7917px" zoomAndPan="magnify"><defs/><g><!--MD5=[93f34fe0419ac241c2a95e8b04049612]
cluster Identifier Type and References--><g id="cluster_Identifier Type and References"><path d="M4.4271,3.125 L117.9688,3.125 A1.9531,1.9531 0 0 1 119.2708,4.4271 L122.9167,15.4215 L289.8438,15.4215 A1.3021,1.3021 0 0 1 291.1458,16.7236 L291.1458,273.1771 A1.3021,1.3021 0 0 1 289.8438,274.4792 L4.4271,274.4792 A1.3021,1.3021 0 0 1 3.125,273.1771 L3.125,4.4271 A1.3021,1.3021 0 0 1 4.4271,3.125 " style="stroke:#000000;stroke-width:0.78125;fill:none;"/><line style="stroke:#000000;stroke-width:0.78125;fill:none;" x1="3.125" x2="122.9167" y1="15.4215" y2="15.4215"/><text fill="#000000" font-family="sans-serif" font-size="7.2917" font-weight="bold" lengthAdjust="spacing" textLength="113.0208" x="5.2083" y="11.736">Identifier Type and References</text></g><!--MD5=[88bf8b396752b291d9e1f0421c9bcc73]
class LegalEntityIdentifier--><g id="elem_LegalEntityIdentifier"><rect codeLine="6" fill="#F1F1F1" height="39.1764" id="LegalEntityIdentifier" rx="1.3021" ry="1.3021" style="stroke:#181818;stroke-width:0.2604166666666667;" width="81.25" x="106.7708" y="21.875"/><ellipse cx="114.5833" cy="30.2083" fill="#ADD1B2" rx="5.7292" ry="5.7292" style="stroke:#181818;stroke-width:0.5208333333333334;"/><path d="M116.0238,28.0599 Q116.1051,27.946 116.2028,27.889 Q116.3005,27.832 116.4144,27.832 Q116.6097,27.832 116.7318,27.9704 Q116.8538,28.1006 116.8538,28.418 L116.8538,29.1748 Q116.8538,29.4922 116.7318,29.6305 Q116.6097,29.7689 116.4144,29.7689 Q116.2354,29.7689 116.1296,29.6631 Q116.0238,29.5654 115.9668,29.2969 Q115.9424,29.1097 115.8447,29.012 Q115.6738,28.8167 115.3564,28.7028 Q115.0391,28.5889 114.7135,28.5889 Q114.3148,28.5889 113.9811,28.7598 Q113.6556,28.9307 113.3952,29.3213 Q113.1429,29.7119 113.1429,30.249 L113.1429,30.8187 Q113.1429,31.4616 113.6068,31.8929 Q114.0706,32.3161 114.9007,32.3161 Q115.389,32.3161 115.7308,32.1859 Q115.9342,32.1045 116.154,31.8766 Q116.2923,31.7383 116.3656,31.6976 Q116.4469,31.6569 116.5527,31.6569 Q116.7236,31.6569 116.8538,31.7952 Q116.9922,31.9255 116.9922,32.1045 Q116.9922,32.2835 116.8132,32.4951 Q116.5527,32.7962 116.1377,32.9671 Q115.5762,33.2031 114.9007,33.2031 Q114.1113,33.2031 113.4847,32.8776 Q112.972,32.6172 112.6139,32.0638 Q112.2559,31.5023 112.2559,30.835 L112.2559,30.2327 Q112.2559,29.541 112.5732,28.9469 Q112.8988,28.3447 113.4684,28.0273 Q114.0381,27.7018 114.681,27.7018 Q115.0635,27.7018 115.3971,27.7913 Q115.7389,27.8727 116.0238,28.0599 Z " fill="#000000"/><text fill="#000000" font-family="sans-serif" font-size="7.2917" lengthAdjust="spacing" textLength="64.5833" x="121.875" y="33.1919">LegalEntityIdentifier</text><line style="stroke:#181818;stroke-width:0.2604166666666667;" x1="107.2917" x2="187.5" y1="38.5417" y2="38.5417"/><text fill="#000000" font-family="sans-serif" font-size="7.2917" lengthAdjust="spacing" textLength="18.75" x="109.8958" y="48.1944">Value</text><text fill="#000000" font-family="sans-serif" font-size="7.2917" lengthAdjust="spacing" textLength="39.5833" x="109.8958" y="57.3659">IssuingBody</text></g><!--MD5=[60e6288cb9d7dc6b81fd7ea580a36f71]
class AddressIdentifier--><g id="elem_AddressIdentifier"><rect codeLine="11" fill="#F1F1F1" height="30.0049" id="AddressIdentifier" rx="1.3021" ry="1.3021" style="stroke:#181818;stroke-width:0.2604166666666667;" width="71.875" x="16.6667" y="26.3021"/><ellipse cx="24.4792" cy="34.6354" fill="#ADD1B2" rx="5.7292" ry="5.7292" style="stroke:#181818;stroke-width:0.5208333333333334;"/><path d="M25.9196,32.487 Q26.001,32.373 26.0986,32.3161 Q26.1963,32.2591 26.3102,32.2591 Q26.5055,32.2591 26.6276,32.3975 Q26.7497,32.5277 26.7497,32.8451 L26.7497,33.6019 Q26.7497,33.9193 26.6276,34.0576 Q26.5055,34.196 26.3102,34.196 Q26.1312,34.196 26.0254,34.0902 Q25.9196,33.9925 25.8626,33.724 Q25.8382,33.5368 25.7406,33.4391 Q25.5697,33.2438 25.2523,33.1299 Q24.9349,33.016 24.6094,33.016 Q24.2106,33.016 23.877,33.1868 Q23.5514,33.3577 23.291,33.7484 Q23.0387,34.139 23.0387,34.6761 L23.0387,35.2458 Q23.0387,35.8887 23.5026,36.32 Q23.9665,36.7432 24.7965,36.7432 Q25.2848,36.7432 25.6266,36.613 Q25.8301,36.5316 26.0498,36.3037 Q26.1882,36.1654 26.2614,36.1247 Q26.3428,36.084 26.4486,36.084 Q26.6195,36.084 26.7497,36.2223 Q26.888,36.3525 26.888,36.5316 Q26.888,36.7106 26.709,36.9222 Q26.4486,37.2233 26.0335,37.3942 Q25.472,37.6302 24.7965,37.6302 Q24.0072,37.6302 23.3805,37.3047 Q22.8678,37.0443 22.5098,36.4909 Q22.1517,35.9294 22.1517,35.262 L22.1517,34.6598 Q22.1517,33.9681 22.4691,33.374 Q22.7946,32.7718 23.3643,32.4544 Q23.9339,32.1289 24.5768,32.1289 Q24.9593,32.1289 25.293,32.2184 Q25.6348,32.2998 25.9196,32.487 Z " fill="#000000"/><text fill="#000000" font-family="sans-serif" font-size="7.2917" lengthAdjust="spacing" textLength="55.2083" x="31.7708" y="37.619">AddressIdentifier</text><line style="stroke:#181818;stroke-width:0.2604166666666667;" x1="17.1875" x2="88.0208" y1="42.9688" y2="42.9688"/><text fill="#000000" font-family="sans-serif" font-size="7.2917" lengthAdjust="spacing" textLength="18.75" x="19.7917" y="52.6215">Value</text></g><!--MD5=[a6da717249a907f03f0e92554f6403c2]
class IdentifierType--><g id="elem_IdentifierType"><rect codeLine="15" fill="#F1F1F1" height="66.6911" id="IdentifierType" rx="1.3021" ry="1.3021" style="stroke:#181818;stroke-width:0.2604166666666667;" width="93.2292" x="29.4271" y="101.5625"/><ellipse cx="51.5365" cy="109.8958" fill="#ADD1B2" rx="5.7292" ry="5.7292" style="stroke:#181818;stroke-width:0.5208333333333334;"/><path d="M50.9424,110.3109 L50.9424,111.613 L53.1966,111.613 L53.1966,111.1328 Q53.1966,110.8154 53.3187,110.6771 Q53.4489,110.5387 53.6442,110.5387 Q53.8395,110.5387 53.9616,110.6771 Q54.0837,110.8154 54.0837,111.1328 L54.0837,112.5 L49.917,112.5 Q49.5915,112.5 49.4531,112.3779 Q49.3229,112.2559 49.3229,112.0524 Q49.3229,111.8571 49.4613,111.735 Q49.5996,111.613 49.917,111.613 L50.0553,111.613 L50.0553,108.1462 L49.917,108.1462 Q49.5915,108.1462 49.4531,108.0241 Q49.3229,107.902 49.3229,107.6986 Q49.3229,107.5033 49.4531,107.3812 Q49.5915,107.2591 49.917,107.2591 L53.8883,107.2591 L53.8883,108.61 Q53.8883,108.9274 53.7663,109.0658 Q53.6523,109.196 53.4489,109.196 Q53.2536,109.196 53.1315,109.0658 Q53.0094,108.9274 53.0094,108.61 L53.0094,108.1462 L50.9424,108.1462 L50.9424,109.4238 L51.7155,109.4238 Q51.7155,109.082 51.7806,108.9844 Q51.9189,108.7728 52.1631,108.7728 Q52.3584,108.7728 52.4805,108.9111 Q52.6025,109.0413 52.6025,109.3587 L52.6025,110.3841 Q52.6025,110.6689 52.5374,110.7666 Q52.3991,110.9701 52.1631,110.9701 Q51.9189,110.9701 51.7806,110.7585 Q51.7155,110.6608 51.7155,110.3109 L50.9424,110.3109 Z " fill="#000000"/><text fill="#000000" font-family="sans-serif" font-size="7.2917" lengthAdjust="spacing" textLength="44.7917" x="62.0052" y="112.8794">IdentifierType</text><line style="stroke:#181818;stroke-width:0.2604166666666667;" x1="29.9479" x2="122.1354" y1="118.2292" y2="118.2292"/><text fill="#000000" font-family="sans-serif" font-size="7.2917" lengthAdjust="spacing" textLength="44.2708" x="32.5521" y="127.8819">TechnicalKey</text><text fill="#000000" font-family="sans-serif" font-size="7.2917" lengthAdjust="spacing" textLength="18.75" x="32.5521" y="137.0534">Name</text><text fill="#000000" font-family="sans-serif" font-size="7.2917" lengthAdjust="spacing" textLength="41.1458" x="32.5521" y="146.225">Abbreviation</text><text fill="#000000" font-family="sans-serif" font-size="7.2917" lengthAdjust="spacing" textLength="64.5833" x="32.5521" y="155.3965">TransliteratedName</text><text fill="#000000" font-family="sans-serif" font-size="7.2917" lengthAdjust="spacing" textLength="86.9792" x="32.5521" y="164.5681">TransliteratedAbbreviation</text></g><!--MD5=[ae681cc4bdd48155011ac5577829c266]
class BusinessPartnerType--><g id="elem_BusinessPartnerType"><rect codeLine="23" fill="#F1F1F1" height="39.1764" id="BusinessPartnerType" rx="1.3021" ry="1.3021" style="stroke:#181818;stroke-width:0.2604166666666667;" width="87.5" x="195.3125" y="217.9688"/><ellipse cx="203.125" cy="226.3021" fill="#EB937F" rx="5.7292" ry="5.7292" style="stroke:#181818;stroke-width:0.5208333333333334;"/><path d="M202.5309,226.7171 L202.5309,228.0192 L204.7852,228.0192 L204.7852,227.5391 Q204.7852,227.2217 204.9072,227.0833 Q205.0374,226.945 205.2327,226.945 Q205.4281,226.945 205.5501,227.0833 Q205.6722,227.2217 205.6722,227.5391 L205.6722,228.9063 L201.5055,228.9063 Q201.18,228.9063 201.0417,228.7842 Q200.9115,228.6621 200.9115,228.4587 Q200.9115,228.2633 201.0498,228.1413 Q201.1882,228.0192 201.5055,228.0192 L201.6439,228.0192 L201.6439,224.5524 L201.5055,224.5524 Q201.18,224.5524 201.0417,224.4303 Q200.9115,224.3083 200.9115,224.1048 Q200.9115,223.9095 201.0417,223.7874 Q201.18,223.6654 201.5055,223.6654 L205.4769,223.6654 L205.4769,225.0163 Q205.4769,225.3337 205.3548,225.472 Q205.2409,225.6022 205.0374,225.6022 Q204.8421,225.6022 204.7201,225.472 Q204.598,225.3337 204.598,225.0163 L204.598,224.5524 L202.5309,224.5524 L202.5309,225.8301 L203.304,225.8301 Q203.304,225.4883 203.3691,225.3906 Q203.5075,225.179 203.7516,225.179 Q203.9469,225.179 204.069,225.3174 Q204.1911,225.4476 204.1911,225.765 L204.1911,226.7904 Q204.1911,227.0752 204.126,227.1729 Q203.9876,227.3763 203.7516,227.3763 Q203.5075,227.3763 203.3691,227.1647 Q203.304,227.0671 203.304,226.7171 L202.5309,226.7171 Z " fill="#000000"/><text fill="#000000" font-family="sans-serif" font-size="7.2917" lengthAdjust="spacing" textLength="70.8333" x="210.4167" y="229.2857">BusinessPartnerType</text><line style="stroke:#181818;stroke-width:0.2604166666666667;" x1="195.8333" x2="282.2917" y1="234.6354" y2="234.6354"/><text fill="#000000" font-family="sans-serif" font-size="7.2917" lengthAdjust="spacing" textLength="36.4583" x="198.4375" y="244.2881">LegalEntity</text><text fill="#000000" font-family="sans-serif" font-size="7.2917" lengthAdjust="spacing" textLength="27.0833" x="198.4375" y="253.4597">Address</text></g><!--MD5=[1e9a4f57c4aea2b4e2b6a248d19c143d]
class IdentifierTypeDetail--><g id="elem_IdentifierTypeDetail"><rect codeLine="28" fill="#F1F1F1" height="30.0049" id="IdentifierTypeDetail" rx="1.3021" ry="1.3021" style="stroke:#181818;stroke-width:0.2604166666666667;" width="80.2083" x="11.4583" y="222.3958"/><ellipse cx="19.2708" cy="230.7292" fill="#ADD1B2" rx="5.7292" ry="5.7292" style="stroke:#181818;stroke-width:0.5208333333333334;"/><path d="M20.7113,228.5807 Q20.7926,228.4668 20.8903,228.4098 Q20.988,228.3529 21.1019,228.3529 Q21.2972,228.3529 21.4193,228.4912 Q21.5413,228.6214 21.5413,228.9388 L21.5413,229.6956 Q21.5413,230.013 21.4193,230.1514 Q21.2972,230.2897 21.1019,230.2897 Q20.9229,230.2897 20.8171,230.1839 Q20.7113,230.0863 20.6543,229.8177 Q20.6299,229.6305 20.5322,229.5329 Q20.3613,229.3376 20.0439,229.2236 Q19.7266,229.1097 19.401,229.1097 Q19.0023,229.1097 18.6686,229.2806 Q18.3431,229.4515 18.0827,229.8421 Q17.8304,230.2327 17.8304,230.7699 L17.8304,231.3395 Q17.8304,231.9824 18.2943,232.4137 Q18.7581,232.8369 19.5882,232.8369 Q20.0765,232.8369 20.4183,232.7067 Q20.6217,232.6253 20.8415,232.3975 Q20.9798,232.2591 21.0531,232.2184 Q21.1344,232.1777 21.2402,232.1777 Q21.4111,232.1777 21.5413,232.3161 Q21.6797,232.4463 21.6797,232.6253 Q21.6797,232.8044 21.5007,233.016 Q21.2402,233.3171 20.8252,233.488 Q20.2637,233.724 19.5882,233.724 Q18.7988,233.724 18.1722,233.3984 Q17.6595,233.138 17.3014,232.5846 Q16.9434,232.0231 16.9434,231.3558 L16.9434,230.7536 Q16.9434,230.0618 17.2607,229.4678 Q17.5863,228.8656 18.1559,228.5482 Q18.7256,228.2227 19.3685,228.2227 Q19.751,228.2227 20.0846,228.3122 Q20.4264,228.3936 20.7113,228.5807 Z " fill="#000000"/><text fill="#000000" font-family="sans-serif" font-size="7.2917" lengthAdjust="spacing" textLength="63.5417" x="26.5625" y="233.7128">IdentifierTypeDetail</text><line style="stroke:#181818;stroke-width:0.2604166666666667;" x1="11.9792" x2="91.1458" y1="239.0625" y2="239.0625"/><text fill="#000000" font-family="sans-serif" font-size="7.2917" lengthAdjust="spacing" textLength="34.8958" x="14.5833" y="248.7152">Mandatory</text></g><!--MD5=[deb4e1f6eb1e3c1256fdb830f96abfbb]
class Country--><g id="elem_Country"><rect codeLine="32" fill="#F1F1F1" height="57.5195" id="Country" rx="1.3021" ry="1.3021" style="stroke:#181818;stroke-width:0.2604166666666667;" width="42.7083" x="134.375" y="208.8542"/><ellipse cx="142.1875" cy="217.1875" fill="#EB937F" rx="5.7292" ry="5.7292" style="stroke:#181818;stroke-width:0.5208333333333334;"/><path d="M141.5934,217.6025 L141.5934,218.9046 L143.8477,218.9046 L143.8477,218.4245 Q143.8477,218.1071 143.9697,217.9688 Q144.0999,217.8304 144.2952,217.8304 Q144.4906,217.8304 144.6126,217.9688 Q144.7347,218.1071 144.7347,218.4245 L144.7347,219.7917 L140.568,219.7917 Q140.2425,219.7917 140.1042,219.6696 Q139.974,219.5475 139.974,219.3441 Q139.974,219.1488 140.1123,219.0267 Q140.2507,218.9046 140.568,218.9046 L140.7064,218.9046 L140.7064,215.4378 L140.568,215.4378 Q140.2425,215.4378 140.1042,215.3158 Q139.974,215.1937 139.974,214.9902 Q139.974,214.7949 140.1042,214.6729 Q140.2425,214.5508 140.568,214.5508 L144.5394,214.5508 L144.5394,215.9017 Q144.5394,216.2191 144.4173,216.3574 Q144.3034,216.4876 144.0999,216.4876 Q143.9046,216.4876 143.7826,216.3574 Q143.6605,216.2191 143.6605,215.9017 L143.6605,215.4378 L141.5934,215.4378 L141.5934,216.7155 L142.3665,216.7155 Q142.3665,216.3737 142.4316,216.276 Q142.57,216.0645 142.8141,216.0645 Q143.0094,216.0645 143.1315,216.2028 Q143.2536,216.333 143.2536,216.6504 L143.2536,217.6758 Q143.2536,217.9606 143.1885,218.0583 Q143.0501,218.2617 142.8141,218.2617 Q142.57,218.2617 142.4316,218.0501 Q142.3665,217.9525 142.3665,217.6025 L141.5934,217.6025 Z " fill="#000000"/><text fill="#000000" font-family="sans-serif" font-size="7.2917" lengthAdjust="spacing" textLength="26.0417" x="149.4792" y="220.1711">Country</text><line style="stroke:#181818;stroke-width:0.2604166666666667;" x1="134.8958" x2="176.5625" y1="225.5208" y2="225.5208"/><text fill="#000000" font-family="sans-serif" font-size="7.2917" lengthAdjust="spacing" textLength="9.8958" x="137.5" y="235.1735">DE</text><text fill="#000000" font-family="sans-serif" font-size="7.2917" lengthAdjust="spacing" textLength="9.8958" x="137.5" y="244.3451">FR</text><text fill="#000000" font-family="sans-serif" font-size="7.2917" lengthAdjust="spacing" textLength="9.375" x="137.5" y="253.5166">US</text><text fill="#000000" font-family="sans-serif" font-size="7.2917" lengthAdjust="spacing" textLength="6.25" x="137.5" y="262.6882">...</text></g><!--MD5=[8a59bcb59f4da834b52746efc5434df9]
link IdentifierType to BusinessPartnerType--><g id="link_IdentifierType_BusinessPartnerType"><path codeLine="39" d="M122.7552,164.5208 C148.0833,180.2969 178.9271,199.5156 202.4896,214.1927 " fill="none" id="IdentifierType-to-BusinessPartnerType" style="stroke:#181818;stroke-width:0.5208333333333334;"/><polygon fill="none" points="208.3125,217.8229,206.7599,214.4031,203.006,214.5209,204.5586,217.9408,208.3125,217.8229" style="stroke:#181818;stroke-width:0.5208333333333334;"/><text fill="#000000" font-family="sans-serif" font-size="6.7708" lengthAdjust="spacing" textLength="64.5833" x="167.7083" y="191.4037">BusinessPartnerType</text><text fill="#000000" font-family="sans-serif" font-size="6.7708" lengthAdjust="spacing" textLength="2.6042" x="126.8816" y="165.4109">*</text><text fill="#000000" font-family="sans-serif" font-size="6.7708" lengthAdjust="spacing" textLength="3.6458" x="198.8646" y="212.2773">1</text></g><!--MD5=[03f29f450851da43105f604eb3f96749]
link LegalEntityIdentifier to IdentifierType--><g id="link_LegalEntityIdentifier_IdentifierType"><path codeLine="41" d="M132.6094,61.0833 C124.8229,71.1719 114.9844,83.9167 105.7031,95.9427 " fill="none" id="LegalEntityIdentifier-to-IdentifierType" style="stroke:#181818;stroke-width:0.5208333333333334;"/><polygon fill="none" points="101.4896,101.401,105.0477,100.1986,105.3062,96.4517,101.7481,97.6542,101.4896,101.401" style="stroke:#181818;stroke-width:0.5208333333333334;"/><text fill="#000000" font-family="sans-serif" font-size="6.7708" lengthAdjust="spacing" textLength="14.5833" x="120.3125" y="84.112">Type</text><text fill="#000000" font-family="sans-serif" font-size="6.7708" lengthAdjust="spacing" textLength="2.6042" x="127.24" y="72.2161">*</text><text fill="#000000" font-family="sans-serif" font-size="6.7708" lengthAdjust="spacing" textLength="3.6458" x="100.4277" y="95.9859">1</text></g><!--MD5=[8d5ce1765856d032faf7ab84f4e1a9db]
link AddressIdentifier to IdentifierType--><g id="link_AddressIdentifier_IdentifierType"><path codeLine="42" d="M56.3177,56.5781 C58.9375,66.901 62.5729,81.2552 66.0156,94.8229 " fill="none" id="AddressIdentifier-to-IdentifierType" style="stroke:#181818;stroke-width:0.5208333333333334;"/><polygon fill="none" points="67.6823,101.401,68.9332,97.8597,66.1455,95.3429,64.8945,98.8843,67.6823,101.401" style="stroke:#181818;stroke-width:0.5208333333333334;"/><text fill="#000000" font-family="sans-serif" font-size="6.7708" lengthAdjust="spacing" textLength="14.5833" x="64.0625" y="84.112">Type</text><text fill="#000000" font-family="sans-serif" font-size="6.7708" lengthAdjust="spacing" textLength="2.6042" x="54.1883" y="67.4522">*</text><text fill="#000000" font-family="sans-serif" font-size="6.7708" lengthAdjust="spacing" textLength="3.6458" x="62.9228" y="95.9859">1</text></g><!--MD5=[fe03a7dba2a1965ade405821afc4eb11]
link IdentifierType to IdentifierTypeDetail--><g id="link_IdentifierType_IdentifierTypeDetail"><path codeLine="44" d="M66.6597,174.3245 C66.6597,174.3245 59.5365,203.9063 56.6927,215.6875 " fill="none" id="IdentifierType-IdentifierTypeDetail" style="stroke:#181818;stroke-width:0.5208333333333334;"/><polygon fill="#181818" points="55.0781,222.3906,58.2005,218.3208,55.6875,219.8588,54.1495,217.3458,55.0781,222.3906" style="stroke:#181818;stroke-width:0.5208333333333334;"/><line style="stroke:#181818;stroke-width:0.5208333333333334;" x1="55.6875" x2="56.6641" y1="219.8588" y2="215.8099"/><polygon fill="#181818" points="68.1302,168.25,65.3701,170.7971,66.6597,174.3245,69.4198,171.7774,68.1302,168.25" style="stroke:#181818;stroke-width:0.5208333333333334;"/><text fill="#000000" font-family="sans-serif" font-size="6.7708" lengthAdjust="spacing" textLength="20.8333" x="64.0625" y="191.4037">Details</text><text fill="#000000" font-family="sans-serif" font-size="6.7708" lengthAdjust="spacing" textLength="3.6458" x="63.4197" y="179.3912">1</text><text fill="#000000" font-family="sans-serif" font-size="6.7708" lengthAdjust="spacing" textLength="2.6042" x="52.9858" y="216.6731">*</text></g><!--MD5=[40971292fc288a0303ff45896daca3fd]
link IdentifierTypeDetail to Country--><g id="link_IdentifierTypeDetail_Country"><path codeLine="45" d="M91.6875,237.5 C103.6406,237.5 116.4792,237.5 127.5,237.5 " fill="none" id="IdentifierTypeDetail-to-Country" style="stroke:#181818;stroke-width:0.5208333333333334;"/><polygon fill="none" points="134.276,237.5,131.151,235.4167,128.026,237.5,131.151,239.5833,134.276,237.5" style="stroke:#181818;stroke-width:0.5208333333333334;"/><text fill="#000000" font-family="sans-serif" font-size="6.7708" lengthAdjust="spacing" textLength="23.4375" x="101.3021" y="234.112">Country</text><text fill="#000000" font-family="sans-serif" font-size="6.7708" lengthAdjust="spacing" textLength="2.6042" x="95.9597" y="235.7856">*</text><text fill="#000000" font-family="sans-serif" font-size="6.7708" lengthAdjust="spacing" textLength="3.6458" x="126.6296" y="235.4754">1</text></g><!--MD5=[a07324c3ba049785f54fc4f40eebc6d9]
@startuml identifier-type

skinparam dpi 50

package "Identifier Type and References" {

  class LegalEntityIdentifier {
    Value
    IssuingBody
  }

  class AddressIdentifier{
    Value
  }

  entity IdentifierType {
    TechnicalKey
    Name
    Abbreviation
    TransliteratedName
    TransliteratedAbbreviation
  }

  enum BusinessPartnerType {
    LegalEntity
    Address
  }

  class IdentifierTypeDetail {
    Mandatory
  }

  enum Country {
    DE
    FR
    US
    ...
  }

  IdentifierType "*" -d-o "1" BusinessPartnerType : BusinessPartnerType

  LegalEntityIdentifier "*" -d-o "1" IdentifierType : Type
  AddressIdentifier "*" -d-o "1" IdentifierType : Type

  IdentifierType "1" *-d-> "*" IdentifierTypeDetail : Details
  IdentifierTypeDetail "*" -r-o "1" Country : Country
}

hide methods
@enduml

PlantUML version 1.2022.5(Sat Apr 30 12:55:52 CEST 2022)
(GPL source distribution)
Java Runtime: OpenJDK Runtime Environment
JVM: OpenJDK 64-Bit Server VM
Default Encoding: Cp1252
Language: en
Country: GB
--></g></svg>