<?xml version="1.0" encoding="UTF-8" standalone="no"?><svg xmlns="http://www.w3.org/2000/svg" xmlns:xlink="http://www.w3.org/1999/xlink" contentStyleType="text/css" height="278.125px" preserveAspectRatio="none" style="width:294px;height:278px;background:#FFFFFF;" version="1.1" viewBox="0 0 294 278" width="294.7917px" zoomAndPan="magnify"><defs/><g><!--MD5=[93f34fe0419ac241c2a95e8b04049612]
cluster Identifier Type and References--><g id="cluster_Identifier Type and References"><path d="M4.4271,3.125 L117.9688,3.125 A1.9531,1.9531 0 0 1 119.2708,4.4271 L122.9167,15.4215 L289.8438,15.4215 A1.3021,1.3021 0 0 1 291.1458,16.7236 L291.1458,273.1771 A1.3021,1.3021 0 0 1 289.8438,274.4792 L4.4271,274.4792 A1.3021,1.3021 0 0 1 3.125,273.1771 L3.125,4.4271 A1.3021,1.3021 0 0 1 4.4271,3.125 " style="stroke:#000000;stroke-width:0.78125;fill:none;"/><line style="stroke:#000000;stroke-width:0.78125;fill:none;" x1="3.125" x2="122.9167" y1="15.4215" y2="15.4215"/><text fill="#000000" font-family="sans-serif" font-size="7.2917" font-weight="bold" lengthAdjust="spacing" textLength="113.0208" x="5.2083" y="11.736">Identifier Type and References</text></g><!--MD5=[c1e42dbb14b391b5e375056528b465aa]
class BusinessPartnerIdentifier--><g id="elem_BusinessPartnerIdentifier"><rect codeLine="6" fill="#F1F1F1" height="39.1764" id="BusinessPartnerIdentifier" rx="1.3021" ry="1.3021" style="stroke:#181818;stroke-width:0.2604166666666667;" width="98.9583" x="28.125" y="21.875"/><ellipse cx="35.9375" cy="30.2083" fill="#ADD1B2" rx="5.7292" ry="5.7292" style="stroke:#181818;stroke-width:0.5208333333333334;"/><path d="M37.3779,28.0599 Q37.4593,27.946 37.557,27.889 Q37.6546,27.832 37.7686,27.832 Q37.9639,27.832 38.0859,27.9704 Q38.208,28.1006 38.208,28.418 L38.208,29.1748 Q38.208,29.4922 38.0859,29.6305 Q37.9639,29.7689 37.7686,29.7689 Q37.5895,29.7689 37.4837,29.6631 Q37.3779,29.5654 37.321,29.2969 Q37.2965,29.1097 37.1989,29.012 Q37.028,28.8167 36.7106,28.7028 Q36.3932,28.5889 36.0677,28.5889 Q35.6689,28.5889 35.3353,28.7598 Q35.0098,28.9307 34.7493,29.3213 Q34.4971,29.7119 34.4971,30.249 L34.4971,30.8187 Q34.4971,31.4616 34.9609,31.8929 Q35.4248,32.3161 36.2549,32.3161 Q36.7432,32.3161 37.085,32.1859 Q37.2884,32.1045 37.5081,31.8766 Q37.6465,31.7383 37.7197,31.6976 Q37.8011,31.6569 37.9069,31.6569 Q38.0778,31.6569 38.208,31.7952 Q38.3464,31.9255 38.3464,32.1045 Q38.3464,32.2835 38.1673,32.4951 Q37.9069,32.7962 37.4919,32.9671 Q36.9303,33.2031 36.2549,33.2031 Q35.4655,33.2031 34.8389,32.8776 Q34.3262,32.6172 33.9681,32.0638 Q33.61,31.5023 33.61,30.835 L33.61,30.2327 Q33.61,29.541 33.9274,28.9469 Q34.2529,28.3447 34.8226,28.0273 Q35.3923,27.7018 36.0352,27.7018 Q36.4176,27.7018 36.7513,27.7913 Q37.0931,27.8727 37.3779,28.0599 Z " fill="#000000"/><text fill="#000000" font-family="sans-serif" font-size="7.2917" lengthAdjust="spacing" textLength="82.2917" x="43.2292" y="33.1919">BusinessPartnerIdentifier</text><line style="stroke:#181818;stroke-width:0.2604166666666667;" x1="28.6458" x2="126.5625" y1="38.5417" y2="38.5417"/><text fill="#000000" font-family="sans-serif" font-size="7.2917" lengthAdjust="spacing" textLength="18.75" x="31.25" y="48.1944">Value</text><text fill="#000000" font-family="sans-serif" font-size="7.2917" lengthAdjust="spacing" textLength="39.5833" x="31.25" y="57.3659">IssuingBody</text></g><!--MD5=[a6da717249a907f03f0e92554f6403c2]
class IdentifierType--><g id="elem_IdentifierType"><rect codeLine="11" fill="#F1F1F1" height="66.6911" id="IdentifierType" rx="1.3021" ry="1.3021" style="stroke:#181818;stroke-width:0.2604166666666667;" width="93.2292" x="30.9896" y="101.5625"/><ellipse cx="53.099" cy="109.8958" fill="#ADD1B2" rx="5.7292" ry="5.7292" style="stroke:#181818;stroke-width:0.5208333333333334;"/><path d="M52.5049,110.3109 L52.5049,111.613 L54.7591,111.613 L54.7591,111.1328 Q54.7591,110.8154 54.8812,110.6771 Q55.0114,110.5387 55.2067,110.5387 Q55.402,110.5387 55.5241,110.6771 Q55.6462,110.8154 55.6462,111.1328 L55.6462,112.5 L51.4795,112.5 Q51.154,112.5 51.0156,112.3779 Q50.8854,112.2559 50.8854,112.0524 Q50.8854,111.8571 51.0238,111.735 Q51.1621,111.613 51.4795,111.613 L51.6178,111.613 L51.6178,108.1462 L51.4795,108.1462 Q51.154,108.1462 51.0156,108.0241 Q50.8854,107.902 50.8854,107.6986 Q50.8854,107.5033 51.0156,107.3812 Q51.154,107.2591 51.4795,107.2591 L55.4508,107.2591 L55.4508,108.61 Q55.4508,108.9274 55.3288,109.0658 Q55.2148,109.196 55.0114,109.196 Q54.8161,109.196 54.694,109.0658 Q54.5719,108.9274 54.5719,108.61 L54.5719,108.1462 L52.5049,108.1462 L52.5049,109.4238 L53.278,109.4238 Q53.278,109.082 53.3431,108.9844 Q53.4814,108.7728 53.7256,108.7728 Q53.9209,108.7728 54.043,108.9111 Q54.165,109.0413 54.165,109.3587 L54.165,110.3841 Q54.165,110.6689 54.0999,110.7666 Q53.9616,110.9701 53.7256,110.9701 Q53.4814,110.9701 53.3431,110.7585 Q53.278,110.6608 53.278,110.3109 L52.5049,110.3109 Z " fill="#000000"/><text fill="#000000" font-family="sans-serif" font-size="7.2917" lengthAdjust="spacing" textLength="44.7917" x="63.5677" y="112.8794">IdentifierType</text><line style="stroke:#181818;stroke-width:0.2604166666666667;" x1="31.5104" x2="123.6979" y1="118.2292" y2="118.2292"/><text fill="#000000" font-family="sans-serif" font-size="7.2917" lengthAdjust="spacing" textLength="44.2708" x="34.1146" y="127.8819">TechnicalKey</text><text fill="#000000" font-family="sans-serif" font-size="7.2917" lengthAdjust="spacing" textLength="18.75" x="34.1146" y="137.0534">Name</text><text fill="#000000" font-family="sans-serif" font-size="7.2917" lengthAdjust="spacing" textLength="41.1458" x="34.1146" y="146.225">Abbreviation</text><text fill="#000000" font-family="sans-serif" font-size="7.2917" lengthAdjust="spacing" textLength="64.5833" x="34.1146" y="155.3965">TransliteratedName</text><text fill="#000000" font-family="sans-serif" font-size="7.2917" lengthAdjust="spacing" textLength="86.9792" x="34.1146" y="164.5681">TransliteratedAbbreviation</text></g><!--MD5=[ae681cc4bdd48155011ac5577829c266]
class BusinessPartnerType--><g id="elem_BusinessPartnerType"><rect codeLine="19" fill="#F1F1F1" height="39.1764" id="BusinessPartnerType" rx="1.3021" ry="1.3021" style="stroke:#181818;stroke-width:0.2604166666666667;" width="87.5" x="195.3125" y="217.9688"/><ellipse cx="203.125" cy="226.3021" fill="#EB937F" rx="5.7292" ry="5.7292" style="stroke:#181818;stroke-width:0.5208333333333334;"/><path d="M202.5309,226.7171 L202.5309,228.0192 L204.7852,228.0192 L204.7852,227.5391 Q204.7852,227.2217 204.9072,227.0833 Q205.0374,226.945 205.2327,226.945 Q205.4281,226.945 205.5501,227.0833 Q205.6722,227.2217 205.6722,227.5391 L205.6722,228.9063 L201.5055,228.9063 Q201.18,228.9063 201.0417,228.7842 Q200.9115,228.6621 200.9115,228.4587 Q200.9115,228.2633 201.0498,228.1413 Q201.1882,228.0192 201.5055,228.0192 L201.6439,228.0192 L201.6439,224.5524 L201.5055,224.5524 Q201.18,224.5524 201.0417,224.4303 Q200.9115,224.3083 200.9115,224.1048 Q200.9115,223.9095 201.0417,223.7874 Q201.18,223.6654 201.5055,223.6654 L205.4769,223.6654 L205.4769,225.0163 Q205.4769,225.3337 205.3548,225.472 Q205.2409,225.6022 205.0374,225.6022 Q204.8421,225.6022 204.7201,225.472 Q204.598,225.3337 204.598,225.0163 L204.598,224.5524 L202.5309,224.5524 L202.5309,225.8301 L203.304,225.8301 Q203.304,225.4883 203.3691,225.3906 Q203.5075,225.179 203.7516,225.179 Q203.9469,225.179 204.069,225.3174 Q204.1911,225.4476 204.1911,225.765 L204.1911,226.7904 Q204.1911,227.0752 204.126,227.1729 Q203.9876,227.3763 203.7516,227.3763 Q203.5075,227.3763 203.3691,227.1647 Q203.304,227.0671 203.304,226.7171 L202.5309,226.7171 Z " fill="#000000"/><text fill="#000000" font-family="sans-serif" font-size="7.2917" lengthAdjust="spacing" textLength="70.8333" x="210.4167" y="229.2857">BusinessPartnerType</text><line style="stroke:#181818;stroke-width:0.2604166666666667;" x1="195.8333" x2="282.2917" y1="234.6354" y2="234.6354"/><text fill="#000000" font-family="sans-serif" font-size="7.2917" lengthAdjust="spacing" textLength="36.4583" x="198.4375" y="244.2881">LegalEntity</text><text fill="#000000" font-family="sans-serif" font-size="7.2917" lengthAdjust="spacing" textLength="27.0833" x="198.4375" y="253.4597">Address</text></g><!--MD5=[1e9a4f57c4aea2b4e2b6a248d19c143d]
class IdentifierTypeDetail--><g id="elem_IdentifierTypeDetail"><rect codeLine="24" fill="#F1F1F1" height="30.0049" id="IdentifierTypeDetail" rx="1.3021" ry="1.3021" style="stroke:#181818;stroke-width:0.2604166666666667;" width="80.2083" x="11.4583" y="222.3958"/><ellipse cx="19.2708" cy="230.7292" fill="#ADD1B2" rx="5.7292" ry="5.7292" style="stroke:#181818;stroke-width:0.5208333333333334;"/><path d="M20.7113,228.5807 Q20.7926,228.4668 20.8903,228.4098 Q20.988,228.3529 21.1019,228.3529 Q21.2972,228.3529 21.4193,228.4912 Q21.5413,228.6214 21.5413,228.9388 L21.5413,229.6956 Q21.5413,230.013 21.4193,230.1514 Q21.2972,230.2897 21.1019,230.2897 Q20.9229,230.2897 20.8171,230.1839 Q20.7113,230.0863 20.6543,229.8177 Q20.6299,229.6305 20.5322,229.5329 Q20.3613,229.3376 20.0439,229.2236 Q19.7266,229.1097 19.401,229.1097 Q19.0023,229.1097 18.6686,229.2806 Q18.3431,229.4515 18.0827,229.8421 Q17.8304,230.2327 17.8304,230.7699 L17.8304,231.3395 Q17.8304,231.9824 18.2943,232.4137 Q18.7581,232.8369 19.5882,232.8369 Q20.0765,232.8369 20.4183,232.7067 Q20.6217,232.6253 20.8415,232.3975 Q20.9798,232.2591 21.0531,232.2184 Q21.1344,232.1777 21.2402,232.1777 Q21.4111,232.1777 21.5413,232.3161 Q21.6797,232.4463 21.6797,232.6253 Q21.6797,232.8044 21.5007,233.016 Q21.2402,233.3171 20.8252,233.488 Q20.2637,233.724 19.5882,233.724 Q18.7988,233.724 18.1722,233.3984 Q17.6595,233.138 17.3014,232.5846 Q16.9434,232.0231 16.9434,231.3558 L16.9434,230.7536 Q16.9434,230.0618 17.2607,229.4678 Q17.5863,228.8656 18.1559,228.5482 Q18.7256,228.2227 19.3685,228.2227 Q19.751,228.2227 20.0846,228.3122 Q20.4264,228.3936 20.7113,228.5807 Z " fill="#000000"/><text fill="#000000" font-family="sans-serif" font-size="7.2917" lengthAdjust="spacing" textLength="63.5417" x="26.5625" y="233.7128">IdentifierTypeDetail</text><line style="stroke:#181818;stroke-width:0.2604166666666667;" x1="11.9792" x2="91.1458" y1="239.0625" y2="239.0625"/><text fill="#000000" font-family="sans-serif" font-size="7.2917" lengthAdjust="spacing" textLength="34.8958" x="14.5833" y="248.7152">Mandatory</text></g><!--MD5=[deb4e1f6eb1e3c1256fdb830f96abfbb]
class Country--><g id="elem_Country"><rect codeLine="28" fill="#F1F1F1" height="57.5195" id="Country" rx="1.3021" ry="1.3021" style="stroke:#181818;stroke-width:0.2604166666666667;" width="42.7083" x="134.375" y="208.8542"/><ellipse cx="142.1875" cy="217.1875" fill="#EB937F" rx="5.7292" ry="5.7292" style="stroke:#181818;stroke-width:0.5208333333333334;"/><path d="M141.5934,217.6025 L141.5934,218.9046 L143.8477,218.9046 L143.8477,218.4245 Q143.8477,218.1071 143.9697,217.9688 Q144.0999,217.8304 144.2952,217.8304 Q144.4906,217.8304 144.6126,217.9688 Q144.7347,218.1071 144.7347,218.4245 L144.7347,219.7917 L140.568,219.7917 Q140.2425,219.7917 140.1042,219.6696 Q139.974,219.5475 139.974,219.3441 Q139.974,219.1488 140.1123,219.0267 Q140.2507,218.9046 140.568,218.9046 L140.7064,218.9046 L140.7064,215.4378 L140.568,215.4378 Q140.2425,215.4378 140.1042,215.3158 Q139.974,215.1937 139.974,214.9902 Q139.974,214.7949 140.1042,214.6729 Q140.2425,214.5508 140.568,214.5508 L144.5394,214.5508 L144.5394,215.9017 Q144.5394,216.2191 144.4173,216.3574 Q144.3034,216.4876 144.0999,216.4876 Q143.9046,216.4876 143.7826,216.3574 Q143.6605,216.2191 143.6605,215.9017 L143.6605,215.4378 L141.5934,215.4378 L141.5934,216.7155 L142.3665,216.7155 Q142.3665,216.3737 142.4316,216.276 Q142.57,216.0645 142.8141,216.0645 Q143.0094,216.0645 143.1315,216.2028 Q143.2536,216.333 143.2536,216.6504 L143.2536,217.6758 Q143.2536,217.9606 143.1885,218.0583 Q143.0501,218.2617 142.8141,218.2617 Q142.57,218.2617 142.4316,218.0501 Q142.3665,217.9525 142.3665,217.6025 L141.5934,217.6025 Z " fill="#000000"/><text fill="#000000" font-family="sans-serif" font-size="7.2917" lengthAdjust="spacing" textLength="26.0417" x="149.4792" y="220.1711">Country</text><line style="stroke:#181818;stroke-width:0.2604166666666667;" x1="134.8958" x2="176.5625" y1="225.5208" y2="225.5208"/><text fill="#000000" font-family="sans-serif" font-size="7.2917" lengthAdjust="spacing" textLength="9.8958" x="137.5" y="235.1735">DE</text><text fill="#000000" font-family="sans-serif" font-size="7.2917" lengthAdjust="spacing" textLength="9.8958" x="137.5" y="244.3451">FR</text><text fill="#000000" font-family="sans-serif" font-size="7.2917" lengthAdjust="spacing" textLength="9.375" x="137.5" y="253.5166">US</text><text fill="#000000" font-family="sans-serif" font-size="7.2917" lengthAdjust="spacing" textLength="6.25" x="137.5" y="262.6882">...</text></g><!--MD5=[8a59bcb59f4da834b52746efc5434df9]
link IdentifierType to BusinessPartnerType--><g id="link_IdentifierType_BusinessPartnerType"><path codeLine="35" d="M124.3021,164.7917 C149.375,180.5625 179.8073,199.7031 203.0313,214.3125 " fill="none" id="IdentifierType-to-BusinessPartnerType" style="stroke:#181818;stroke-width:0.5208333333333334;"/><polygon fill="none" points="208.7708,217.9219,207.237,214.4936,203.4825,214.5909,205.0163,218.0192,208.7708,217.9219" style="stroke:#181818;stroke-width:0.5208333333333334;"/><text fill="#000000" font-family="sans-serif" font-size="6.7708" lengthAdjust="spacing" textLength="64.5833" x="168.2292" y="191.4037">BusinessPartnerType</text><text fill="#000000" font-family="sans-serif" font-size="6.7708" lengthAdjust="spacing" textLength="2.6042" x="128.4271" y="165.705">*</text><text fill="#000000" font-family="sans-serif" font-size="6.7708" lengthAdjust="spacing" textLength="3.6458" x="199.2039" y="212.2457">1</text></g><!--MD5=[4913be3b4649944dc5e77a77db41c37d]
link BusinessPartnerIdentifier to IdentifierType--><g id="link_BusinessPartnerIdentifier_IdentifierType"><path codeLine="37" d="M77.6042,61.0833 C77.6042,70.7656 77.6042,82.8906 77.6042,94.474 " fill="none" id="BusinessPartnerIdentifier-to-IdentifierType" style="stroke:#181818;stroke-width:0.5208333333333334;"/><polygon fill="none" points="77.6042,101.401,79.6875,98.276,77.6042,95.151,75.5208,98.276,77.6042,101.401" style="stroke:#181818;stroke-width:0.5208333333333334;"/><text fill="#000000" font-family="sans-serif" font-size="6.7708" lengthAdjust="spacing" textLength="14.5833" x="78.125" y="84.112">Type</text><text fill="#000000" font-family="sans-serif" font-size="6.7708" lengthAdjust="spacing" textLength="2.6042" x="74.7762" y="72.2161">*</text><text fill="#000000" font-family="sans-serif" font-size="6.7708" lengthAdjust="spacing" textLength="3.6458" x="73.759" y="95.9859">1</text></g><!--MD5=[fe03a7dba2a1965ade405821afc4eb11]
link IdentifierType to IdentifierTypeDetail--><g id="link_IdentifierType_IdentifierTypeDetail"><path codeLine="39" d="M67.6345,174.304 C67.6345,174.304 60.0417,203.9063 57.0208,215.6875 " fill="none" id="IdentifierType-IdentifierTypeDetail" style="stroke:#181818;stroke-width:0.5208333333333334;"/><polygon fill="#181818" points="55.3021,222.3906,58.4837,218.3669,55.9485,219.868,54.4475,217.3327,55.3021,222.3906" style="stroke:#181818;stroke-width:0.5208333333333334;"/><line style="stroke:#181818;stroke-width:0.5208333333333334;" x1="55.9485" x2="56.9844" y1="219.868" y2="215.8333"/><polygon fill="#181818" points="69.1875,168.25,66.393,170.7593,67.6345,174.304,70.429,171.7947,69.1875,168.25" style="stroke:#181818;stroke-width:0.5208333333333334;"/><text fill="#000000" font-family="sans-serif" font-size="6.7708" lengthAdjust="spacing" textLength="20.8333" x="65.1042" y="191.4037">Details</text><text fill="#000000" font-family="sans-serif" font-size="6.7708" lengthAdjust="spacing" textLength="3.6458" x="64.4217" y="179.3912">1</text><text fill="#000000" font-family="sans-serif" font-size="6.7708" lengthAdjust="spacing" textLength="2.6042" x="53.2616" y="216.6731">*</text></g><!--MD5=[40971292fc288a0303ff45896daca3fd]
link IdentifierTypeDetail to Country--><g id="link_IdentifierTypeDetail_Country"><path codeLine="40" d="M91.6875,237.5 C103.6406,237.5 116.4792,237.5 127.5,237.5 " fill="none" id="IdentifierTypeDetail-to-Country" style="stroke:#181818;stroke-width:0.5208333333333334;"/><polygon fill="none" points="134.276,237.5,131.151,235.4167,128.026,237.5,131.151,239.5833,134.276,237.5" style="stroke:#181818;stroke-width:0.5208333333333334;"/><text fill="#000000" font-family="sans-serif" font-size="6.7708" lengthAdjust="spacing" textLength="23.4375" x="101.3021" y="234.112">Country</text><text fill="#000000" font-family="sans-serif" font-size="6.7708" lengthAdjust="spacing" textLength="2.6042" x="95.9597" y="235.7856">*</text><text fill="#000000" font-family="sans-serif" font-size="6.7708" lengthAdjust="spacing" textLength="3.6458" x="126.6296" y="235.4754">1</text></g><!--MD5=[76bce1e4fe9a1b097e6897571af15e95]
@startuml identifier-type

skinparam dpi 50

package "Identifier Type and References" {

  class BusinessPartnerIdentifier {
    Value
    IssuingBody
  }

  entity IdentifierType {
    TechnicalKey
    Name
    Abbreviation
    TransliteratedName
    TransliteratedAbbreviation
  }

  enum BusinessPartnerType {
    LegalEntity
    Address
  }

  class IdentifierTypeDetail {
    Mandatory
  }

  enum Country {
    DE
    FR
    US
    ...
  }

  IdentifierType "*" -d-o "1" BusinessPartnerType : BusinessPartnerType

  BusinessPartnerIdentifier "*" -d-o "1" IdentifierType : Type

  IdentifierType "1" *-d-> "*" IdentifierTypeDetail : Details
  IdentifierTypeDetail "*" -r-o "1" Country : Country
}

hide methods
@enduml

PlantUML version 1.2022.5(Sat Apr 30 12:55:52 CEST 2022)
(GPL source distribution)
Java Runtime: OpenJDK Runtime Environment
JVM: OpenJDK 64-Bit Server VM
Default Encoding: Cp1252
Language: en
Country: GB
--></g></svg>