<svg width="1280" height="720" xmlns="http://www.w3.org/2000/svg" xmlns:xlink="http://www.w3.org/1999/xlink" overflow="hidden"><defs><clipPath id="clip0"><rect x="0" y="0" width="1280" height="720"/></clipPath><clipPath id="clip1"><rect x="0" y="84" width="1280" height="586"/></clipPath><clipPath id="clip2"><rect x="0" y="84" width="1280" height="586"/></clipPath><clipPath id="clip3"><rect x="64" y="147" width="1202" height="444"/></clipPath><clipPath id="clip4"><rect x="64" y="147" width="1202" height="444"/></clipPath><clipPath id="clip5"><rect x="0" y="84" width="1280" height="586"/></clipPath><clipPath id="clip6"><rect x="0" y="84" width="1280" height="586"/></clipPath><clipPath id="clip7"><rect x="0" y="84" width="1280" height="586"/></clipPath><clipPath id="clip8"><rect x="0" y="84" width="1280" height="586"/></clipPath><clipPath id="clip9"><rect x="0" y="84" width="1280" height="586"/></clipPath><clipPath id="clip10"><rect x="0" y="84" width="1280" height="586"/></clipPath><clipPath id="clip11"><rect x="0" y="84" width="1280" height="586"/></clipPath><clipPath id="clip12"><rect x="0" y="84" width="1280" height="586"/></clipPath><clipPath id="clip13"><rect x="0" y="84" width="1280" height="586"/></clipPath><clipPath id="clip14"><rect x="0" y="84" width="1280" height="586"/></clipPath><clipPath id="clip15"><rect x="0" y="84" width="1280" height="586"/></clipPath><clipPath id="clip16"><rect x="0" y="84" width="1280" height="586"/></clipPath><clipPath id="clip17"><rect x="0" y="84" width="1280" height="586"/></clipPath><clipPath id="clip18"><rect x="0" y="84" width="1280" height="586"/></clipPath><clipPath id="clip19"><rect x="0" y="84" width="1280" height="586"/></clipPath><clipPath id="clip20"><rect x="0" y="84" width="1280" height="586"/></clipPath><clipPath id="clip21"><rect x="0" y="84" width="1280" height="586"/></clipPath><clipPath id="clip22"><rect x="0" y="84" width="1280" height="586"/></clipPath><clipPath id="clip23"><rect x="0" y="84" width="1280" height="586"/></clipPath><clipPath id="clip24"><rect x="0" y="84" width="1280" height="586"/></clipPath><clipPath id="clip25"><rect x="0" y="84" width="1280" height="586"/></clipPath><clipPath id="clip26"><rect x="0" y="84" width="1280" height="586"/></clipPath><clipPath id="clip27"><rect x="0" y="84" width="1280" height="586"/></clipPath></defs><g clip-path="url(#clip0)"><rect x="0" y="0" width="1280" height="720" fill="#FFFFFF"/><g clip-path="url(#clip1)"><path d="M64.5001 516.5 1265.5 516.5M64.5001 443.5 1265.5 443.5M64.5001 369.5 1265.5 369.5M64.5001 295.5 1265.5 295.5M64.5001 221.5 1265.5 221.5M64.5001 147.5 1265.5 147.5" stroke="#D9D9D9" stroke-linejoin="round" stroke-miterlimit="10" fill="none"/></g><g clip-path="url(#clip2)"><path d="M64.5001 590.5 1265.5 590.5" stroke="#D9D9D9" stroke-linejoin="round" stroke-miterlimit="10" fill="none" fill-rule="evenodd"/></g><g clip-path="url(#clip3)"><path d="M139.5 369.5 289.5 369.5 439.5 295.5 589.5 295.5 739.5 369.5 890.5 369.5 1040.5 369.5 1190.5 369.5" stroke="#B3CB2D" stroke-width="3" stroke-linecap="round" stroke-linejoin="round" stroke-miterlimit="10" fill="none"/></g><g clip-path="url(#clip4)"><path d="M139.5 369.5 289.5 295.5 439.5 295.5 589.5 221.5 739.5 369.5 890.5 295.5 1040.5 221.5 1190.5 295.5" stroke="#809500" stroke-width="3" stroke-linecap="round" stroke-linejoin="round" stroke-miterlimit="10" stroke-dasharray="0 6" fill="none"/></g><g clip-path="url(#clip5)"><text fill="#595959" font-family="Manrope,Manrope_MSFontService,sans-serif" font-weight="400" font-size="16" transform="translate(38.0334 595)">0</text></g><g clip-path="url(#clip6)"><text fill="#595959" font-family="Manrope,Manrope_MSFontService,sans-serif" font-weight="400" font-size="16" transform="translate(12.3401 521)">1000</text></g><g clip-path="url(#clip7)"><text fill="#595959" font-family="Manrope,Manrope_MSFontService,sans-serif" font-weight="400" font-size="16" transform="translate(9.46667 448)">2000</text></g><g clip-path="url(#clip8)"><text fill="#595959" font-family="Manrope,Manrope_MSFontService,sans-serif" font-weight="400" font-size="16" transform="translate(9.74005 374)">3000</text></g><g clip-path="url(#clip9)"><text fill="#595959" font-family="Manrope,Manrope_MSFontService,sans-serif" font-weight="400" font-size="16" transform="translate(9.16 300)">4000</text></g><g clip-path="url(#clip10)"><text fill="#595959" font-family="Manrope,Manrope_MSFontService,sans-serif" font-weight="400" font-size="16" transform="translate(9.34667 226)">5000</text></g><g clip-path="url(#clip11)"><text fill="#595959" font-family="Manrope,Manrope_MSFontService,sans-serif" font-weight="400" font-size="16" transform="translate(8.66667 152)">6000</text></g><g clip-path="url(#clip12)"><text fill="#595959" font-family="Manrope,Manrope_MSFontService,sans-serif" font-weight="400" font-size="16" transform="translate(113.94 619)">Week 1</text></g><g clip-path="url(#clip13)"><text fill="#595959" font-family="Manrope,Manrope_MSFontService,sans-serif" font-weight="400" font-size="16" transform="translate(262.628 619)">Week 2</text></g><g clip-path="url(#clip14)"><text fill="#595959" font-family="Manrope,Manrope_MSFontService,sans-serif" font-weight="400" font-size="16" transform="translate(412.889 619)">Week 3</text></g><g clip-path="url(#clip15)"><text fill="#595959" font-family="Manrope,Manrope_MSFontService,sans-serif" font-weight="400" font-size="16" transform="translate(562.723 619)">Week 4</text></g><g clip-path="url(#clip16)"><text fill="#595959" font-family="Manrope,Manrope_MSFontService,sans-serif" font-weight="400" font-size="16" transform="translate(712.941 619)">Week 5</text></g><g clip-path="url(#clip17)"><text fill="#595959" font-family="Manrope,Manrope_MSFontService,sans-serif" font-weight="400" font-size="16" transform="translate(862.725 619)">Week 6</text></g><g clip-path="url(#clip18)"><text fill="#595959" font-family="Manrope,Manrope_MSFontService,sans-serif" font-weight="400" font-size="16" transform="translate(1013.79 619)">Week 7</text></g><g clip-path="url(#clip19)"><text fill="#595959" font-family="Manrope,Manrope_MSFontService,sans-serif" font-weight="400" font-size="16" transform="translate(1163.29 619)">Week 8</text></g><g clip-path="url(#clip20)"><text fill="#595959" font-family="Manrope,Manrope_MSFontService,sans-serif" font-weight="400" font-size="25" transform="translate(504.36 120)">Example</text></g><g clip-path="url(#clip21)"><text fill="#595959" font-family="Manrope,Manrope_MSFontService,sans-serif" font-weight="400" font-size="25" transform="translate(601.46 120)">:</text></g><g clip-path="url(#clip22)"><text fill="#595959" font-family="Manrope,Manrope_MSFontService,sans-serif" font-weight="400" font-size="25" transform="translate(613.847 120)">Capacity</text></g><g clip-path="url(#clip23)"><text fill="#595959" font-family="Manrope,Manrope_MSFontService,sans-serif" font-weight="400" font-size="25" transform="translate(721.44 120)">Data</text></g><g clip-path="url(#clip24)"><path d="M470.5 647.5 504.5 647.5" stroke="#B3CB2D" stroke-width="3" stroke-linecap="round" stroke-linejoin="round" stroke-miterlimit="10" fill="none" fill-rule="evenodd"/></g><g clip-path="url(#clip25)"><text fill="#595959" font-family="Manrope,Manrope_MSFontService,sans-serif" font-weight="400" font-size="16" transform="translate(508.003 652)">Actual Capacity</text></g><g clip-path="url(#clip26)"><path d="M651.5 647.5 684.5 647.5" stroke="#809500" stroke-width="3" stroke-linecap="round" stroke-linejoin="round" stroke-miterlimit="10" stroke-dasharray="0 6" fill="none" fill-rule="evenodd"/></g><g clip-path="url(#clip27)"><text fill="#595959" font-family="Manrope,Manrope_MSFontService,sans-serif" font-weight="400" font-size="16" transform="translate(688.396 652)">Maxium Capacity</text></g></g></svg>