<svg width="1280" height="720" xmlns="http://www.w3.org/2000/svg" xmlns:xlink="http://www.w3.org/1999/xlink" overflow="hidden"><defs><clipPath id="clip0"><rect x="0" y="0" width="1280" height="720"/></clipPath><clipPath id="clip1"><rect x="0" y="84" width="1280" height="586"/></clipPath><clipPath id="clip2"><rect x="64" y="143" width="1202" height="391"/></clipPath><clipPath id="clip3"><rect x="64" y="143" width="1202" height="391"/></clipPath><clipPath id="clip4"><rect x="64" y="143" width="1202" height="391"/></clipPath><clipPath id="clip5"><rect x="64" y="143" width="1202" height="391"/></clipPath><clipPath id="clip6"><rect x="64" y="143" width="1202" height="391"/></clipPath><clipPath id="clip7"><rect x="0" y="84" width="1280" height="586"/></clipPath><clipPath id="clip8"><rect x="64" y="143" width="1202" height="391"/></clipPath><clipPath id="clip9"><rect x="64" y="143" width="1202" height="391"/></clipPath><clipPath id="clip10"><rect x="0" y="84" width="1280" height="586"/></clipPath><clipPath id="clip11"><rect x="0" y="84" width="1280" height="586"/></clipPath><clipPath id="clip12"><rect x="0" y="84" width="1280" height="586"/></clipPath><clipPath id="clip13"><rect x="0" y="84" width="1280" height="586"/></clipPath><clipPath id="clip14"><rect x="0" y="84" width="1280" height="586"/></clipPath><clipPath id="clip15"><rect x="0" y="84" width="1280" height="586"/></clipPath><clipPath id="clip16"><rect x="0" y="84" width="1280" height="586"/></clipPath><clipPath id="clip17"><rect x="0" y="84" width="1280" height="586"/></clipPath><clipPath id="clip18"><rect x="0" y="84" width="1280" height="586"/></clipPath><clipPath id="clip19"><rect x="0" y="84" width="1280" height="586"/></clipPath><clipPath id="clip20"><rect x="0" y="84" width="1280" height="586"/></clipPath><clipPath id="clip21"><rect x="0" y="84" width="1280" height="586"/></clipPath><clipPath id="clip22"><rect x="0" y="84" width="1280" height="586"/></clipPath><clipPath id="clip23"><rect x="0" y="84" width="1280" height="586"/></clipPath><clipPath id="clip24"><rect x="0" y="84" width="1280" height="586"/></clipPath><clipPath id="clip25"><rect x="0" y="84" width="1280" height="586"/></clipPath><clipPath id="clip26"><rect x="0" y="84" width="1280" height="586"/></clipPath><clipPath id="clip27"><rect x="0" y="84" width="1280" height="586"/></clipPath><clipPath id="clip28"><rect x="0" y="84" width="1280" height="586"/></clipPath><clipPath id="clip29"><rect x="0" y="84" width="1280" height="586"/></clipPath><clipPath id="clip30"><rect x="0" y="84" width="1280" height="586"/></clipPath><clipPath id="clip31"><rect x="0" y="84" width="1280" height="586"/></clipPath><clipPath id="clip32"><rect x="0" y="84" width="1280" height="586"/></clipPath><clipPath id="clip33"><rect x="0" y="84" width="1280" height="586"/></clipPath><clipPath id="clip34"><rect x="0" y="84" width="1280" height="586"/></clipPath><clipPath id="clip35"><rect x="0" y="84" width="1280" height="586"/></clipPath><clipPath id="clip36"><rect x="0" y="84" width="1280" height="586"/></clipPath><clipPath id="clip37"><rect x="0" y="84" width="1280" height="586"/></clipPath><clipPath id="clip38"><rect x="0" y="84" width="1280" height="586"/></clipPath><clipPath id="clip39"><rect x="0" y="84" width="1280" height="586"/></clipPath><clipPath id="clip40"><rect x="0" y="84" width="1280" height="586"/></clipPath><clipPath id="clip41"><rect x="0" y="84" width="1280" height="586"/></clipPath><clipPath id="clip42"><rect x="0" y="84" width="1280" height="586"/></clipPath><clipPath id="clip43"><rect x="0" y="84" width="1280" height="586"/></clipPath><clipPath id="clip44"><rect x="0" y="84" width="1280" height="586"/></clipPath></defs><g clip-path="url(#clip0)"><rect x="0" y="0" width="1280" height="720" fill="#FFFFFF"/><g clip-path="url(#clip1)"><path d="M64.5001 468.5 1265.5 468.5M64.5001 403.5 1265.5 403.5M64.5001 338.5 1265.5 338.5M64.5001 273.5 1265.5 273.5M64.5001 208.5 1265.5 208.5M64.5001 143.5 1265.5 143.5" stroke="#D9D9D9" stroke-linejoin="round" stroke-miterlimit="10" fill="none"/></g><g clip-path="url(#clip2)"><rect x="723" y="273" width="34" height="260" fill="#D91E18"/></g><g clip-path="url(#clip3)"><rect x="873" y="273" width="34" height="260" fill="#FFC000"/></g><g clip-path="url(#clip4)"><rect x="1023" y="273" width="34" height="260" fill="#FFC000"/></g><g clip-path="url(#clip5)"><rect x="1174" y="208" width="33" height="325" fill="#D91E18"/></g><g clip-path="url(#clip6)"><path d="M123 338 156 338 156 533 123 533ZM273 338 306 338 306 533 273 533ZM423 338 456 338 456 533 423 533ZM573 338 606 338 606 533 573 533Z" fill="#B3CB2D"/></g><g clip-path="url(#clip7)"><path d="M64.5001 533.5 1265.5 533.5" stroke="#D9D9D9" stroke-linejoin="round" stroke-miterlimit="10" fill="none" fill-rule="evenodd"/></g><g clip-path="url(#clip8)"><path d="M139.5 338.5 289.5 338.5 439.5 273.5 589.5 273.5 739.5 338.5 890.5 338.5 1040.5 338.5 1190.5 338.5" stroke="#000000" stroke-width="3" stroke-linecap="round" stroke-linejoin="round" stroke-miterlimit="10" fill="none"/></g><g clip-path="url(#clip9)"><path d="M139.5 338.5 289.5 273.5 439.5 273.5 589.5 208.5 739.5 338.5 890.5 273.5 1040.5 208.5 1190.5 273.5" stroke="#979797" stroke-width="3" stroke-linecap="round" stroke-linejoin="round" stroke-miterlimit="10" stroke-dasharray="0 6" fill="none"/></g><g clip-path="url(#clip10)"><text fill="#595959" font-family="Manrope,Manrope_MSFontService,sans-serif" font-weight="400" font-size="16" transform="translate(38.0334 538)">0</text></g><g clip-path="url(#clip11)"><text fill="#595959" font-family="Manrope,Manrope_MSFontService,sans-serif" font-weight="400" font-size="16" transform="translate(12.3401 473)">1000</text></g><g clip-path="url(#clip12)"><text fill="#595959" font-family="Manrope,Manrope_MSFontService,sans-serif" font-weight="400" font-size="16" transform="translate(9.46667 408)">2000</text></g><g clip-path="url(#clip13)"><text fill="#595959" font-family="Manrope,Manrope_MSFontService,sans-serif" font-weight="400" font-size="16" transform="translate(9.74005 343)">3000</text></g><g clip-path="url(#clip14)"><text fill="#595959" font-family="Manrope,Manrope_MSFontService,sans-serif" font-weight="400" font-size="16" transform="translate(9.16 278)">4000</text></g><g clip-path="url(#clip15)"><text fill="#595959" font-family="Manrope,Manrope_MSFontService,sans-serif" font-weight="400" font-size="16" transform="translate(9.34667 213)">5000</text></g><g clip-path="url(#clip16)"><text fill="#595959" font-family="Manrope,Manrope_MSFontService,sans-serif" font-weight="400" font-size="16" transform="translate(8.66667 148)">6000</text></g><g clip-path="url(#clip17)"><text fill="#595959" font-family="Manrope,Manrope_MSFontService,sans-serif" font-weight="400" font-size="16" transform="translate(113.94 562)">Week 1</text></g><g clip-path="url(#clip18)"><text fill="#595959" font-family="Manrope,Manrope_MSFontService,sans-serif" font-weight="400" font-size="16" transform="translate(262.628 562)">Week 2</text></g><g clip-path="url(#clip19)"><text fill="#595959" font-family="Manrope,Manrope_MSFontService,sans-serif" font-weight="400" font-size="16" transform="translate(412.889 562)">Week 3</text></g><g clip-path="url(#clip20)"><text fill="#595959" font-family="Manrope,Manrope_MSFontService,sans-serif" font-weight="400" font-size="16" transform="translate(562.723 562)">Week 4</text></g><g clip-path="url(#clip21)"><text fill="#595959" font-family="Manrope,Manrope_MSFontService,sans-serif" font-weight="400" font-size="16" transform="translate(712.941 562)">Week 5</text></g><g clip-path="url(#clip22)"><text fill="#595959" font-family="Manrope,Manrope_MSFontService,sans-serif" font-weight="400" font-size="16" transform="translate(862.725 562)">Week 6</text></g><g clip-path="url(#clip23)"><text fill="#595959" font-family="Manrope,Manrope_MSFontService,sans-serif" font-weight="400" font-size="16" transform="translate(1013.79 562)">Week 7</text></g><g clip-path="url(#clip24)"><text fill="#595959" font-family="Manrope,Manrope_MSFontService,sans-serif" font-weight="400" font-size="16" transform="translate(1163.29 562)">Week 8</text></g><g clip-path="url(#clip25)"><text fill="#595959" font-family="Calibri,Calibri_MSFontService,sans-serif" font-weight="400" font-size="24" transform="translate(395.46 117)">Example</text></g><g clip-path="url(#clip26)"><text fill="#595959" font-family="Calibri,Calibri_MSFontService,sans-serif" font-weight="400" font-size="24" transform="translate(477.86 117)">: Post</text></g><g clip-path="url(#clip27)"><text fill="#595959" font-family="Calibri,Calibri_MSFontService,sans-serif" font-weight="400" font-size="24" transform="translate(531.44 117)">-</text></g><g clip-path="url(#clip28)"><text fill="#595959" font-family="Calibri,Calibri_MSFontService,sans-serif" font-weight="400" font-size="24" transform="translate(538.787 117)">Production</text></g><g clip-path="url(#clip29)"><text fill="#595959" font-family="Calibri,Calibri_MSFontService,sans-serif" font-weight="400" font-size="24" transform="translate(651.413 117)">within</text></g><g clip-path="url(#clip30)"><text fill="#595959" font-family="Calibri,Calibri_MSFontService,sans-serif" font-weight="400" font-size="24" transform="translate(718.26 117)">a</text></g><g clip-path="url(#clip31)"><text fill="#595959" font-family="Calibri,Calibri_MSFontService,sans-serif" font-weight="400" font-size="24" transform="translate(735.18 117)">Capacity</text></g><g clip-path="url(#clip32)"><text fill="#595959" font-family="Calibri,Calibri_MSFontService,sans-serif" font-weight="400" font-size="24" transform="translate(823.553 117)">Group</text></g><g clip-path="url(#clip33)"><rect x="239" y="585" width="34" height="10" fill="#D91E18"/></g><g clip-path="url(#clip34)"><text fill="#595959" font-family="Manrope,Manrope_MSFontService,sans-serif" font-weight="400" font-size="16" transform="translate(276.319 595)">Demand over actual capacity</text></g><g clip-path="url(#clip35)"><rect x="645" y="585" width="34" height="10" fill="#B3CB2D"/></g><g clip-path="url(#clip36)"><text fill="#595959" font-family="Manrope,Manrope_MSFontService,sans-serif" font-weight="400" font-size="16" transform="translate(682.5 595)">Demand within actual capacity</text></g><g clip-path="url(#clip37)"><rect x="239" y="615" width="34" height="10" fill="#FFA600"/></g><g clip-path="url(#clip38)"><text fill="#595959" font-family="Manrope,Manrope_MSFontService,sans-serif" font-weight="400" font-size="16" transform="translate(276.319 624)">Demand over actual but within maximum capacity</text></g><g clip-path="url(#clip39)"><path d="M645.5 619.5 678.5 619.5" stroke="#000000" stroke-width="3" stroke-linecap="round" stroke-linejoin="round" stroke-miterlimit="10" fill="none" fill-rule="evenodd"/></g><g clip-path="url(#clip40)"><text fill="#595959" font-family="Manrope,Manrope_MSFontService,sans-serif" font-weight="400" font-size="16" transform="translate(682.5 624)">Actual Capacity</text></g><g clip-path="url(#clip41)"><path d="M239.5 649.5 272.5 649.5" stroke="#979797" stroke-width="3" stroke-linecap="round" stroke-linejoin="round" stroke-miterlimit="10" stroke-dasharray="0 6" fill="none" fill-rule="evenodd"/></g><g clip-path="url(#clip42)"><text fill="#595959" font-family="Manrope,Manrope_MSFontService,sans-serif" font-weight="400" font-size="16" transform="translate(276.319 654)">Maxium Capacity</text></g><g clip-path="url(#clip43)"><path d="M645.5 649.5 678.5 649.5" stroke="#219DD4" stroke-width="3" stroke-linecap="round" stroke-linejoin="round" stroke-miterlimit="10" fill="none" fill-rule="evenodd"/></g><g clip-path="url(#clip44)"><text fill="#595959" font-family="Manrope,Manrope_MSFontService,sans-serif" font-weight="400" font-size="16" transform="translate(682.5 654)">Delta-Production</text></g><rect x="724.5" y="273.5" width="31" height="64" stroke="#219DD4" stroke-width="2.66667" stroke-linejoin="round" stroke-miterlimit="10" fill="#219DD4" fill-opacity="0"/><text fill="#219DD4" font-family="Manrope Light,Manrope Light_MSFontService,sans-serif" font-weight="300" font-size="24" transform="translate(726.95 312)">-</text><text fill="#219DD4" font-family="Manrope Light,Manrope Light_MSFontService,sans-serif" font-weight="300" font-size="24" transform="translate(736.95 312)">D</text><rect x="1025.5" y="209.5" width="31" height="64" stroke="#219DD4" stroke-width="2.66667" stroke-linejoin="round" stroke-miterlimit="10" fill="#219DD4" fill-opacity="0"/><text fill="#219DD4" font-family="Manrope Light,Manrope Light_MSFontService,sans-serif" font-weight="300" font-size="24" transform="translate(1025.37 248)">+D</text></g></svg>