<svg xmlns="http://www.w3.org/2000/svg" xml:space="preserve" width="3301" height="1782" overflow="hidden"><defs><clipPath id="a"><path d="M372 381h3301v1782H372z"/></clipPath><clipPath id="b"><path d="M374 127h2139v694H374z"/></clipPath><clipPath id="c"><path d="M2512 127h282v694h-282z"/></clipPath><clipPath id="d"><path d="M2793 127h293v694h-293z"/></clipPath><clipPath id="e"><path d="M3085 127h292v694h-292z"/></clipPath><clipPath id="f"><path d="M3376 127h292v694h-292z"/></clipPath><clipPath id="g"><path d="M374 309h2139v694H374z"/></clipPath><clipPath id="h"><path d="M374 332h605v1387H374z"/></clipPath><clipPath id="i"><path d="M374 332h605v1387H374z"/></clipPath><clipPath id="j"><path d="M978 491h1535v694H978z"/></clipPath><clipPath id="k"><path d="M978 673h1535v694H978z"/></clipPath><clipPath id="l"><path d="M978 860h1535v694H978z"/></clipPath><clipPath id="m"><path d="M978 860h1535v694H978z"/></clipPath><clipPath id="n"><path d="M374 883h605v1387H374z"/></clipPath><clipPath id="o"><path d="M374 883h605v1387H374z"/></clipPath><clipPath id="p"><path d="M978 1047h1535v694H978z"/></clipPath><clipPath id="q"><path d="M978 1229h1535v694H978z"/></clipPath><clipPath id="r"><path d="M978 1411h1535v694H978z"/></clipPath><clipPath id="s"><path d="M978 1411h1535v694H978z"/></clipPath><clipPath id="t"><path d="M374 1593h2139v694H374z"/></clipPath></defs><g clip-path="url(#a)" transform="translate(-372 -381)"><path fill="#F4F2F3" fill-rule="evenodd" d="M374.956 383.502H2512.17v181.89H374.956Zm2137.214 0h281.59v181.89h-281.59Zm281.59 0h291.28v181.89h-291.28Zm291.28 0h291.28v181.89h-291.28Zm291.28 0h291.27v181.89h-291.27Z"/><path fill="#FFA602" fill-rule="evenodd" d="M978.064 929.171H2512.17v181.889H978.064Zm1534.106 0h281.59v181.889h-281.59Zm281.59 0h291.28v181.889h-291.28Zm291.28 0h291.28v181.889h-291.28Zm291.28 0h291.27v181.889h-291.27ZM978.064 1111.06H2512.17v192.23H978.064Zm1534.106 0h281.59v192.23h-281.59Zm281.59 0h291.28v192.23h-291.28Zm291.28 0h291.28v192.23h-291.28Zm291.28 0h291.27v192.23h-291.27ZM978.064 1485.18H2512.17v181.89H978.064Zm1534.106 0h281.59v181.89h-281.59Zm281.59 0h291.28v181.89h-291.28Zm291.28 0h291.28v181.89h-291.28Zm291.28 0h291.27v181.89h-291.27Z"/><path fill="#FFA602" fill-rule="evenodd" d="M978.064 1667.07H2512.17v181.89H978.064Zm1534.106 0h281.59v181.89h-281.59Zm281.59 0h291.28v181.89h-291.28Zm291.28 0h291.28v181.89h-291.28Zm291.28 0h291.27v181.89h-291.27Z"/><path fill="none" stroke="#000" stroke-linejoin="round" stroke-miterlimit="10" stroke-width="4.583" d="M978.064 744.99v1106.26M2512.17 381.21v1651.93m281.59-1651.93v1651.93m291.28-1651.93v1651.93m291.28-1651.93v1651.93M372.665 565.392H3669.89M372.665 747.281H3669.89M975.772 929.171H3669.89M975.772 1111.06H3669.89M372.665 1303.29H3669.89M975.772 1485.18H3669.89M975.772 1667.07H3669.89M372.665 1848.96H3669.89M374.956 381.21v1651.93M3667.59 381.21v1651.93M372.665 383.502H3669.89M372.665 2030.85H3669.89"/><g clip-path="url(#b)"><text font-family="Calibri,Calibri_MSFontService,sans-serif" font-size="83" font-weight="700" transform="translate(407.672 502)">Customer Information</text></g><g clip-path="url(#c)"><text font-family="Calibri,Calibri_MSFontService,sans-serif" font-size="83" font-weight="700" transform="translate(2544.89 502)">Day 1</text></g><g clip-path="url(#d)"><text font-family="Calibri,Calibri_MSFontService,sans-serif" font-size="83" font-weight="700" transform="translate(2826.47 502)">Day 2</text></g><g clip-path="url(#e)"><text font-family="Calibri,Calibri_MSFontService,sans-serif" font-size="83" font-weight="700" transform="translate(3117.75 502)">Day 3</text></g><g clip-path="url(#f)"><text font-family="Calibri,Calibri_MSFontService,sans-serif" font-size="83" font-weight="700" transform="translate(3409.03 502)">Day 4</text></g><g clip-path="url(#g)"><text font-family="Calibri,Calibri_MSFontService,sans-serif" font-size="83" font-weight="400" transform="translate(407.672 684)">Consumption </text></g><text font-family="Calibri,Calibri_MSFontService,sans-serif" font-size="83" font-weight="400" transform="translate(875.951 684)">in production</text><text font-family="Calibri,Calibri_MSFontService,sans-serif" font-size="83" font-weight="400" transform="translate(2611.14 684)">80</text><text font-family="Calibri,Calibri_MSFontService,sans-serif" font-size="83" font-weight="400" transform="translate(2897.57 684)">80</text><text font-family="Calibri,Calibri_MSFontService,sans-serif" font-size="83" font-weight="400" transform="translate(3167.94 684)">100</text><text font-family="Calibri,Calibri_MSFontService,sans-serif" font-size="83" font-weight="400" transform="translate(3459.22 684)">100</text><g clip-path="url(#h)"><text font-family="Calibri,Calibri_MSFontService,sans-serif" font-size="83" font-weight="400" transform="translate(407.672 1003)">To</text></g><text font-family="Calibri,Calibri_MSFontService,sans-serif" font-size="83" font-weight="400" transform="translate(502.891 1003)">supplier</text><text font-family="Calibri,Calibri_MSFontService,sans-serif" font-size="83" font-weight="400" transform="translate(792.214 1003)">#1 </text><g clip-path="url(#i)"><text font-family="Calibri,Calibri_MSFontService,sans-serif" font-size="83" font-weight="400" transform="translate(407.672 1102)">(60%)</text></g><g clip-path="url(#j)"><text font-family="Calibri,Calibri_MSFontService,sans-serif" font-size="83" font-weight="400" transform="translate(1010.78 866)">Call</text></g><text font-family="Calibri,Calibri_MSFontService,sans-serif" font-size="83" font-weight="400" transform="translate(1132.24 866)">-</text><text font-family="Calibri,Calibri_MSFontService,sans-serif" font-size="83" font-weight="400" transform="translate(1157.45 866)">off / </text><text font-family="Calibri,Calibri_MSFontService,sans-serif" font-size="83" font-weight="400" transform="translate(1320.5 866)">order</text><text font-family="Calibri,Calibri_MSFontService,sans-serif" font-size="83" font-weight="400" transform="translate(1523.91 866)">amount</text><text font-family="Calibri,Calibri_MSFontService,sans-serif" font-size="83" font-weight="400" transform="translate(2611.14 866)">60</text><text font-family="Calibri,Calibri_MSFontService,sans-serif" font-size="83" font-weight="400" transform="translate(2897.57 866)">60</text><text font-family="Calibri,Calibri_MSFontService,sans-serif" font-size="83" font-weight="400" transform="translate(3188.85 866)">60</text><text font-family="Calibri,Calibri_MSFontService,sans-serif" font-size="83" font-weight="400" transform="translate(3480.13 866)">60</text><g clip-path="url(#k)"><text font-family="Calibri,Calibri_MSFontService,sans-serif" font-size="83" font-weight="700" transform="translate(1010.78 1048)">Demand </text></g><text font-family="Calibri,Calibri_MSFontService,sans-serif" font-size="83" font-weight="700" transform="translate(1319.01 1048)">category</text><text font-family="Calibri,Calibri_MSFontService,sans-serif" font-size="83" font-weight="700" transform="translate(1631.43 1048)">= </text><text font-family="Calibri,Calibri_MSFontService,sans-serif" font-size="83" font-weight="700" transform="translate(1691.59 1048)">Series / Default</text><text font-family="Calibri,Calibri_MSFontService,sans-serif" font-size="83" font-weight="700" transform="translate(2611.14 1048)">48</text><text font-family="Calibri,Calibri_MSFontService,sans-serif" font-size="83" font-weight="700" transform="translate(2897.57 1048)">48</text><text font-family="Calibri,Calibri_MSFontService,sans-serif" font-size="83" font-weight="700" transform="translate(3188.85 1048)">60</text><text font-family="Calibri,Calibri_MSFontService,sans-serif" font-size="83" font-weight="700" transform="translate(3480.13 1048)">60</text><g clip-path="url(#l)"><text font-family="Calibri,Calibri_MSFontService,sans-serif" font-size="83" font-weight="700" transform="translate(1010.78 1235)">Demand </text></g><text font-family="Calibri,Calibri_MSFontService,sans-serif" font-size="83" font-weight="700" transform="translate(1319.01 1235)">category</text><text font-family="Calibri,Calibri_MSFontService,sans-serif" font-size="83" font-weight="700" transform="translate(1631.43 1235)">= </text><text font-family="Calibri,Calibri_MSFontService,sans-serif" font-size="83" font-weight="700" transform="translate(1691.59 1235)">Extraordinary</text><g clip-path="url(#m)"><text font-family="Calibri,Calibri_MSFontService,sans-serif" font-size="83" font-weight="700" transform="translate(2174.97 1235)">Demand</text></g><text font-family="Calibri,Calibri_MSFontService,sans-serif" font-size="83" font-weight="700" transform="translate(2611.14 1235)">12</text><text font-family="Calibri,Calibri_MSFontService,sans-serif" font-size="83" font-weight="700" transform="translate(2897.57 1235)">12</text><text font-family="Calibri,Calibri_MSFontService,sans-serif" font-size="83" font-weight="700" transform="translate(3209.76 1235)">5</text><text font-family="Calibri,Calibri_MSFontService,sans-serif" font-size="83" font-weight="700" transform="translate(3501.04 1235)">5</text><g clip-path="url(#n)"><text font-family="Calibri,Calibri_MSFontService,sans-serif" font-size="83" font-weight="400" transform="translate(407.672 1554)">To supplier</text></g><text font-family="Calibri,Calibri_MSFontService,sans-serif" font-size="83" font-weight="400" transform="translate(792.214 1554)">#2 </text><g clip-path="url(#o)"><text font-family="Calibri,Calibri_MSFontService,sans-serif" font-size="83" font-weight="400" transform="translate(407.672 1653)">(40%)</text></g><g clip-path="url(#p)"><text font-family="Calibri,Calibri_MSFontService,sans-serif" font-size="83" font-weight="400" transform="translate(1010.78 1422)">Call</text></g><text font-family="Calibri,Calibri_MSFontService,sans-serif" font-size="83" font-weight="400" transform="translate(1132.24 1422)">-</text><text font-family="Calibri,Calibri_MSFontService,sans-serif" font-size="83" font-weight="400" transform="translate(1157.45 1422)">off / </text><text font-family="Calibri,Calibri_MSFontService,sans-serif" font-size="83" font-weight="400" transform="translate(1320.5 1422)">order</text><text font-family="Calibri,Calibri_MSFontService,sans-serif" font-size="83" font-weight="400" transform="translate(1523.91 1422)">amount</text><text font-family="Calibri,Calibri_MSFontService,sans-serif" font-size="83" font-weight="400" transform="translate(2611.14 1422)">40</text><text font-family="Calibri,Calibri_MSFontService,sans-serif" font-size="83" font-weight="400" transform="translate(2897.57 1422)">40</text><text font-family="Calibri,Calibri_MSFontService,sans-serif" font-size="83" font-weight="400" transform="translate(3188.85 1422)">40</text><text font-family="Calibri,Calibri_MSFontService,sans-serif" font-size="83" font-weight="400" transform="translate(3459.22 1422)">400</text><g clip-path="url(#q)"><text font-family="Calibri,Calibri_MSFontService,sans-serif" font-size="83" font-weight="700" transform="translate(1010.78 1604)">Demand </text></g><text font-family="Calibri,Calibri_MSFontService,sans-serif" font-size="83" font-weight="700" transform="translate(1319.01 1604)">category</text><text font-family="Calibri,Calibri_MSFontService,sans-serif" font-size="83" font-weight="700" transform="translate(1631.43 1604)">= </text><text font-family="Calibri,Calibri_MSFontService,sans-serif" font-size="83" font-weight="700" transform="translate(1691.59 1604)">Series / Default</text><text font-family="Calibri,Calibri_MSFontService,sans-serif" font-size="83" font-weight="700" transform="translate(2611.14 1604)">32</text><text font-family="Calibri,Calibri_MSFontService,sans-serif" font-size="83" font-weight="700" transform="translate(2897.57 1604)">32</text><text font-family="Calibri,Calibri_MSFontService,sans-serif" font-size="83" font-weight="700" transform="translate(3188.85 1604)">40</text><text font-family="Calibri,Calibri_MSFontService,sans-serif" font-size="83" font-weight="700" transform="translate(3480.13 1604)">40</text><g clip-path="url(#r)"><text font-family="Calibri,Calibri_MSFontService,sans-serif" font-size="83" font-weight="700" transform="translate(1010.78 1786)">Demand </text></g><text font-family="Calibri,Calibri_MSFontService,sans-serif" font-size="83" font-weight="700" transform="translate(1319.01 1786)">category</text><text font-family="Calibri,Calibri_MSFontService,sans-serif" font-size="83" font-weight="700" transform="translate(1631.43 1786)">= </text><text font-family="Calibri,Calibri_MSFontService,sans-serif" font-size="83" font-weight="700" transform="translate(1691.59 1786)">Extraordinary</text><g clip-path="url(#s)"><text font-family="Calibri,Calibri_MSFontService,sans-serif" font-size="83" font-weight="700" transform="translate(2174.97 1786)">Demand</text></g><text font-family="Calibri,Calibri_MSFontService,sans-serif" font-size="83" font-weight="700" transform="translate(2632.05 1786)">8</text><text font-family="Calibri,Calibri_MSFontService,sans-serif" font-size="83" font-weight="700" transform="translate(2918.48 1786)">8</text><text font-family="Calibri,Calibri_MSFontService,sans-serif" font-size="83" font-weight="700" transform="translate(3209.76 1786)">5</text><text font-family="Calibri,Calibri_MSFontService,sans-serif" font-size="83" font-weight="700" transform="translate(3501.04 1786)">5</text><g clip-path="url(#t)"><text font-family="Calibri,Calibri_MSFontService,sans-serif" font-size="83" font-weight="400" transform="translate(407.672 1967)">End of day Item Stock</text></g><text font-family="Calibri,Calibri_MSFontService,sans-serif" font-size="83" font-weight="400" transform="translate(2611.14 1967)">20</text><text font-family="Calibri,Calibri_MSFontService,sans-serif" font-size="83" font-weight="400" transform="translate(2897.57 1967)">40</text><text font-family="Calibri,Calibri_MSFontService,sans-serif" font-size="83" font-weight="400" transform="translate(3188.85 1967)">40</text><text font-family="Calibri,Calibri_MSFontService,sans-serif" font-size="83" font-weight="400" transform="translate(3480.13 1967)">40</text><path fill="#FFA602" stroke="#41719C" stroke-miterlimit="8" stroke-width="4.583" d="M2054.5 2050.5h122v75h-122z"/><text font-family="Calibri,Calibri_MSFontService,sans-serif" font-size="64" font-weight="400" transform="translate(2209.33 2107)">Transferable </text><text font-family="Calibri,Calibri_MSFontService,sans-serif" font-size="64" font-style="italic" font-weight="400" transform="translate(2544.28 2107)">Short</text><text font-family="Calibri,Calibri_MSFontService,sans-serif" font-size="64" font-style="italic" font-weight="400" transform="translate(2682.92 2107)">-</text><text font-family="Calibri,Calibri_MSFontService,sans-serif" font-size="64" font-style="italic" font-weight="400" transform="translate(2702.4 2107)">Term Material Demand </text><text font-family="Calibri,Calibri_MSFontService,sans-serif" font-size="64" font-weight="400" transform="translate(3319.62 2107)">Information</text></g></svg>