<svg xmlns="http://www.w3.org/2000/svg" width="1019" height="628" preserveAspectRatio="none" style="width:1019px;height:628px;background:#fff"><path fill="none" d="M296 10h419v27.609H296z" style="stroke:none;stroke-width:1"/><text x="301" y="29.533" font-family="sans-serif" font-size="14" font-weight="bold" textLength="409">Shared Digital Approach - Registration of IC Part Type Twin</text><path fill="#ADD8E6" d="M12 44.609h389v578.195H12z" style="stroke:#181818;stroke-width:.5"/><text x="179.5" y="58.105" font-family="sans-serif" font-size="13" font-weight="bold" textLength="54">Supplier</text><path fill="#90EE90" d="M403 44.609h597v578.195H403z" style="stroke:#181818;stroke-width:.5"/><text x="671.5" y="58.105" font-family="sans-serif" font-size="13" font-weight="bold" textLength="60">Customer</text><path fill="#FFF" d="M442 254.977h10v30.352h-10zm0 174.109h10v30.352h-10zm118.5-60.703h10v30.352h-10zm104 170.461h10v30.352h-10z" style="stroke:#181818;stroke-width:1"/><path d="M57 97.57v489.625M134 97.57v489.625M238 97.57v489.625M357 97.57v489.625M447 97.57v489.625M565 97.57v489.625M669 97.57v489.625M954 97.57v489.625" style="stroke:#181818;stroke-width:.5;stroke-dasharray:5,5"/><rect width="83" height="31.609" x="16" y="64.961" fill="#E2E2F0" rx="2.5" ry="2.5" style="stroke:#181818;stroke-width:.5"/><text x="23" y="86.494" font-family="sans-serif" font-size="14" textLength="69">Application</text><rect width="83" height="31.609" x="16" y="586.195" fill="#E2E2F0" rx="2.5" ry="2.5" style="stroke:#181818;stroke-width:.5"/><text x="23" y="607.729" font-family="sans-serif" font-size="14" textLength="69">Application</text><rect width="51" height="31.609" x="109" y="64.961" fill="#E2E2F0" rx="2.5" ry="2.5" style="stroke:#181818;stroke-width:.5"/><text x="116" y="86.494" font-family="sans-serif" font-size="14" textLength="37">dDTR</text><rect width="51" height="31.609" x="109" y="586.195" fill="#E2E2F0" rx="2.5" ry="2.5" style="stroke:#181818;stroke-width:.5"/><text x="116" y="607.729" font-family="sans-serif" font-size="14" textLength="37">dDTR</text><rect width="137" height="31.609" x="170" y="64.961" fill="#E2E2F0" rx="2.5" ry="2.5" style="stroke:#181818;stroke-width:.5"/><text x="177" y="86.494" font-family="sans-serif" font-size="14" textLength="123">Submodel Endpoint</text><rect width="137" height="31.609" x="170" y="586.195" fill="#E2E2F0" rx="2.5" ry="2.5" style="stroke:#181818;stroke-width:.5"/><text x="177" y="607.729" font-family="sans-serif" font-size="14" textLength="123">Submodel Endpoint</text><rect width="80" height="31.609" x="317" y="64.961" fill="#E2E2F0" rx="2.5" ry="2.5" style="stroke:#181818;stroke-width:.5"/><text x="324" y="86.494" font-family="sans-serif" font-size="14" textLength="66">Connector</text><rect width="80" height="31.609" x="317" y="586.195" fill="#E2E2F0" rx="2.5" ry="2.5" style="stroke:#181818;stroke-width:.5"/><text x="324" y="607.729" font-family="sans-serif" font-size="14" textLength="66">Connector</text><rect width="80" height="31.609" x="407" y="64.961" fill="#E2E2F0" rx="2.5" ry="2.5" style="stroke:#181818;stroke-width:.5"/><text x="414" y="86.494" font-family="sans-serif" font-size="14" textLength="66">Connector</text><rect width="80" height="31.609" x="407" y="586.195" fill="#E2E2F0" rx="2.5" ry="2.5" style="stroke:#181818;stroke-width:.5"/><text x="414" y="607.729" font-family="sans-serif" font-size="14" textLength="66">Connector</text><rect width="137" height="31.609" x="497" y="64.961" fill="#E2E2F0" rx="2.5" ry="2.5" style="stroke:#181818;stroke-width:.5"/><text x="504" y="86.494" font-family="sans-serif" font-size="14" textLength="123">Submodel Endpoint</text><rect width="137" height="31.609" x="497" y="586.195" fill="#E2E2F0" rx="2.5" ry="2.5" style="stroke:#181818;stroke-width:.5"/><text x="504" y="607.729" font-family="sans-serif" font-size="14" textLength="123">Submodel Endpoint</text><rect width="51" height="31.609" x="644" y="64.961" fill="#E2E2F0" rx="2.5" ry="2.5" style="stroke:#181818;stroke-width:.5"/><text x="651" y="86.494" font-family="sans-serif" font-size="14" textLength="37">dDTR</text><rect width="51" height="31.609" x="644" y="586.195" fill="#E2E2F0" rx="2.5" ry="2.5" style="stroke:#181818;stroke-width:.5"/><text x="651" y="607.729" font-family="sans-serif" font-size="14" textLength="37">dDTR</text><rect width="83" height="31.609" x="913" y="64.961" fill="#E2E2F0" rx="2.5" ry="2.5" style="stroke:#181818;stroke-width:.5"/><text x="920" y="86.494" font-family="sans-serif" font-size="14" textLength="69">Application</text><rect width="83" height="31.609" x="913" y="586.195" fill="#E2E2F0" rx="2.5" ry="2.5" style="stroke:#181818;stroke-width:.5"/><text x="920" y="607.729" font-family="sans-serif" font-size="14" textLength="69">Application</text><path fill="#FFF" d="M442 254.977h10v30.352h-10zm0 174.109h10v30.352h-10zm118.5-60.703h10v30.352h-10zm104 170.461h10v30.352h-10z" style="stroke:#181818;stroke-width:1"/><path fill="#EEE" d="M0 128.746h1012v3H0z" style="stroke:#eee;stroke-width:1"/><path d="M0 128.746h1012m-1012 3h1012" style="stroke:#000;stroke-width:1"/><path fill="#EEE" d="M290 117.57h432v24.352H290z" style="stroke:#000;stroke-width:2"/><text x="296" y="135.065" font-family="sans-serif" font-size="13" font-weight="bold" textLength="414">Supplier registers IC Part Type Twin with Submodel for Customer</text><path fill="#FEFFDD" d="M5 156.922v26h286v-16l-10-10H5" style="stroke:#181818;stroke-width:.5"/><path fill="#FEFFDD" d="M281 156.922v10h10l-10-10" style="stroke:#181818;stroke-width:.5"/><text x="51.5" y="175.417" font-family="sans-serif" font-size="13" textLength="184">Supplier created Part Type Twin</text><path fill="#EEE" d="M0 209.449h1012v3H0z" style="stroke:#eee;stroke-width:1"/><path d="M0 209.449h1012m-1012 3h1012" style="stroke:#000;stroke-width:1"/><path fill="#EEE" d="M290 198.273h432v24.352H290z" style="stroke:#000;stroke-width:2"/><text x="296" y="215.769" font-family="sans-serif" font-size="13" font-weight="bold" textLength="414">Customer registers IC Part Type Twin with Submodel for Supplier</text><path fill="#181818" d="m463 250.977-10 4 10 4-4-4z" style="stroke:#181818;stroke-width:1"/><path d="M457 254.977h496.5" style="stroke:#181818;stroke-width:1"/><text x="469" y="250.12" font-family="sans-serif" font-size="13" font-weight="bold" textLength="7">1</text><text x="480" y="250.12" font-family="sans-serif" font-size="13" textLength="224">Register dDTR for partner at Connector</text><path fill="#181818" d="m942.5 281.328 10 4-10 4 4-4z" style="stroke:#181818;stroke-width:1"/><path d="M447 285.328h501.5" style="stroke:#181818;stroke-width:1;stroke-dasharray:2,2"/><text x="454" y="280.472" font-family="sans-serif" font-size="13" font-weight="bold" textLength="7">2</text><text x="465" y="280.472" font-family="sans-serif" font-size="13" textLength="19">OK</text><path fill="#FEFFDD" d="M513 298.328v42h494v-32l-10-10H513" style="stroke:#181818;stroke-width:.5"/><path fill="#FEFFDD" d="M997 298.328v10h10l-10-10" style="stroke:#181818;stroke-width:.5"/><text x="639" y="316.823" font-family="sans-serif" font-size="13" textLength="233">Keeping Submodel updated only needed</text><text x="639" y="333.175" font-family="sans-serif" font-size="13" textLength="119">for repository pattern</text><path fill="#181818" d="m581.5 364.383-10 4 10 4-4-4z" style="stroke:#181818;stroke-width:1"/><path d="M575.5 368.383h378" style="stroke:#181818;stroke-width:1"/><text x="587.5" y="363.526" font-family="sans-serif" font-size="13" font-weight="bold" textLength="7">3</text><text x="598.5" y="363.526" font-family="sans-serif" font-size="13" textLength="100">Create Submodel</text><path fill="#181818" d="m942.5 394.734 10 4-10 4 4-4z" style="stroke:#181818;stroke-width:1"/><path d="M565.5 398.734h383" style="stroke:#181818;stroke-width:1;stroke-dasharray:2,2"/><text x="572.5" y="393.878" font-family="sans-serif" font-size="13" font-weight="bold" textLength="7">4</text><text x="583.5" y="393.878" font-family="sans-serif" font-size="13" textLength="19">OK</text><path fill="#181818" d="m463 425.086-10 4 10 4-4-4z" style="stroke:#181818;stroke-width:1"/><path d="M457 429.086h496.5" style="stroke:#181818;stroke-width:1"/><text x="469" y="424.229" font-family="sans-serif" font-size="13" font-weight="bold" textLength="7">5</text><text x="480" y="424.229" font-family="sans-serif" font-size="13" textLength="421">Register endpoint of Submodel for READ access for partner at Connector</text><path fill="#181818" d="m942.5 455.438 10 4-10 4 4-4z" style="stroke:#181818;stroke-width:1"/><path d="M447 459.438h501.5" style="stroke:#181818;stroke-width:1;stroke-dasharray:2,2"/><text x="454" y="454.581" font-family="sans-serif" font-size="13" font-weight="bold" textLength="7">6</text><text x="465" y="454.581" font-family="sans-serif" font-size="13" textLength="19">OK</text><path fill="#181818" d="m685.5 534.844-10 4 10 4-4-4z" style="stroke:#181818;stroke-width:1"/><path d="M679.5 538.844h274" style="stroke:#181818;stroke-width:1"/><text x="691.5" y="509.46" font-family="sans-serif" font-size="13" font-weight="bold" textLength="7">7</text><text x="702.5" y="484.933" font-family="sans-serif" font-size="13" textLength="250">Register IC Part Type Twin Shell Descriptor</text><text x="706.5" y="501.284" font-family="sans-serif" font-size="13" textLength="138">with Submodel endpoint</text><text x="702.5" y="517.636" font-family="sans-serif" font-size="13" textLength="110">for Partner in dDTR</text><text x="702.5" y="533.987" font-family="sans-serif" font-size="13" textLength="88">(DSP endpoint)</text><path fill="#181818" d="m942.5 565.195 10 4-10 4 4-4z" style="stroke:#181818;stroke-width:1"/><path d="M669.5 569.195h279" style="stroke:#181818;stroke-width:1;stroke-dasharray:2,2"/><text x="676.5" y="564.339" font-family="sans-serif" font-size="13" font-weight="bold" textLength="7">8</text><text x="687.5" y="564.339" font-family="sans-serif" font-size="13" textLength="19">OK</text></svg>