<svg xmlns="http://www.w3.org/2000/svg" xml:space="preserve" width="4032" height="2159" overflow="hidden"><defs><clipPath id="a"><path d="M145 68h4032v2159H145z"/></clipPath><clipPath id="b"><path d="M146 177h733v540H146z"/></clipPath><clipPath id="c"><path d="M878-54h367v1079H878z"/></clipPath><clipPath id="d"><path d="M878-54h367v1079H878z"/></clipPath><clipPath id="e"><path d="M1244-54h367v1079h-367z"/></clipPath><clipPath id="f"><path d="M1244-54h367v1079h-367z"/></clipPath><clipPath id="g"><path d="M1610-54h367v1079h-367z"/></clipPath><clipPath id="h"><path d="M1610-54h367v1079h-367z"/></clipPath><clipPath id="i"><path d="M1976 177h733v540h-733z"/></clipPath><clipPath id="j"><path d="M2708 177h733v540h-733z"/></clipPath><clipPath id="k"><path d="M3440 177h733v540h-733z"/></clipPath><clipPath id="l"><path d="M146 355h392v540H146z"/></clipPath><clipPath id="m"><path d="M537 355h342v540H537z"/></clipPath><clipPath id="n"><path d="M878 355h367v540H878z"/></clipPath><clipPath id="o"><path d="M1244 355h367v540h-367z"/></clipPath><clipPath id="p"><path d="M1610 355h367v540h-367z"/></clipPath><clipPath id="q"><path d="M1976 355h367v540h-367z"/></clipPath><clipPath id="r"><path d="M1976 355h367v540h-367z"/></clipPath><clipPath id="s"><path d="M2342 355h367v540h-367z"/></clipPath><clipPath id="t"><path d="M2708 355h367v540h-367z"/></clipPath><clipPath id="u"><path d="M2708 355h367v540h-367z"/></clipPath><clipPath id="v"><path d="M3074 355h367v540h-367z"/></clipPath><clipPath id="w"><path d="M3440 355h367v540h-367z"/></clipPath><clipPath id="x"><path d="M3806 355h367v540h-367z"/></clipPath><clipPath id="y"><path d="M146 456h392v540H146z"/></clipPath><clipPath id="z"><path d="M537 456h342v540H537z"/></clipPath><clipPath id="A"><path d="M878 456h367v540H878z"/></clipPath><clipPath id="B"><path d="M1244 456h367v540h-367z"/></clipPath><clipPath id="C"><path d="M1610 456h367v540h-367z"/></clipPath><clipPath id="D"><path d="M1976 456h367v540h-367z"/></clipPath><clipPath id="E"><path d="M2342 456h367v540h-367z"/></clipPath><clipPath id="F"><path d="M2708 456h367v540h-367z"/></clipPath><clipPath id="G"><path d="M3074 456h367v540h-367z"/></clipPath><clipPath id="H"><path d="M3440 456h367v540h-367z"/></clipPath><clipPath id="I"><path d="M3806 456h367v540h-367z"/></clipPath><clipPath id="J"><path d="M146 681h392v540H146z"/></clipPath><clipPath id="K"><path d="M537 681h342v540H537z"/></clipPath><clipPath id="L"><path d="M878 681h367v540H878z"/></clipPath><clipPath id="M"><path d="M1244 681h367v540h-367z"/></clipPath><clipPath id="N"><path d="M1610 681h367v540h-367z"/></clipPath><clipPath id="O"><path d="M1976 681h367v540h-367z"/></clipPath><clipPath id="P"><path d="M2342 681h367v540h-367z"/></clipPath><clipPath id="Q"><path d="M2708 681h367v540h-367z"/></clipPath><clipPath id="R"><path d="M3074 681h367v540h-367z"/></clipPath><clipPath id="S"><path d="M3440 681h367v540h-367z"/></clipPath><clipPath id="T"><path d="M3806 681h367v540h-367z"/></clipPath><clipPath id="U"><path d="M146 905h392v540H146z"/></clipPath><clipPath id="V"><path d="M537 905h342v540H537z"/></clipPath><clipPath id="W"><path d="M878 905h367v540H878z"/></clipPath><clipPath id="X"><path d="M1244 905h367v540h-367z"/></clipPath><clipPath id="Y"><path d="M1610 905h367v540h-367z"/></clipPath><clipPath id="Z"><path d="M1976 905h367v540h-367z"/></clipPath><clipPath id="aa"><path d="M2342 905h367v540h-367z"/></clipPath><clipPath id="ab"><path d="M2708 905h367v540h-367z"/></clipPath><clipPath id="ac"><path d="M3074 905h367v540h-367z"/></clipPath><clipPath id="ad"><path d="M3440 905h367v540h-367z"/></clipPath><clipPath id="ae"><path d="M3806 905h367v540h-367z"/></clipPath><clipPath id="af"><path d="M146 1129h392v540H146z"/></clipPath><clipPath id="ag"><path d="M537 1129h342v540H537z"/></clipPath><clipPath id="ah"><path d="M878 1129h367v540H878z"/></clipPath><clipPath id="ai"><path d="M1244 1129h367v540h-367z"/></clipPath><clipPath id="aj"><path d="M1610 1129h367v540h-367z"/></clipPath><clipPath id="ak"><path d="M1976 1129h367v540h-367z"/></clipPath><clipPath id="al"><path d="M2342 1129h367v540h-367z"/></clipPath><clipPath id="am"><path d="M2708 1129h367v540h-367z"/></clipPath><clipPath id="an"><path d="M3074 1129h367v540h-367z"/></clipPath><clipPath id="ao"><path d="M3440 1129h367v540h-367z"/></clipPath><clipPath id="ap"><path d="M3806 1129h367v540h-367z"/></clipPath><clipPath id="aq"><path d="M146 1404h392v540H146z"/></clipPath><clipPath id="ar"><path d="M146 1274h392v1079H146z"/></clipPath><clipPath id="as"><path d="M146 1274h392v1079H146z"/></clipPath><clipPath id="at"><path d="M537 1505h342v540H537z"/></clipPath><clipPath id="au"><path d="M878 1505h367v540H878z"/></clipPath><clipPath id="av"><path d="M1244 1505h367v540h-367z"/></clipPath><clipPath id="aw"><path d="M1610 1505h367v540h-367z"/></clipPath><clipPath id="ax"><path d="M1976 1505h367v540h-367z"/></clipPath><clipPath id="ay"><path d="M2342 1505h367v540h-367z"/></clipPath><clipPath id="az"><path d="M2708 1505h367v540h-367z"/></clipPath><clipPath id="aA"><path d="M3074 1505h367v540h-367z"/></clipPath><clipPath id="aB"><path d="M3440 1505h367v540h-367z"/></clipPath><clipPath id="aC"><path d="M3806 1505h367v540h-367z"/></clipPath><clipPath id="aD"><path d="M146 1729h392v540H146z"/></clipPath><clipPath id="aE"><path d="M537 1729h342v540H537z"/></clipPath><clipPath id="aF"><path d="M878 1729h367v540H878z"/></clipPath><clipPath id="aG"><path d="M1244 1729h367v540h-367z"/></clipPath><clipPath id="aH"><path d="M1610 1729h367v540h-367z"/></clipPath><clipPath id="aI"><path d="M1976 1729h367v540h-367z"/></clipPath><clipPath id="aJ"><path d="M2342 1729h367v540h-367z"/></clipPath><clipPath id="aK"><path d="M2708 1729h367v540h-367z"/></clipPath><clipPath id="aL"><path d="M3074 1729h367v540h-367z"/></clipPath><clipPath id="aM"><path d="M3440 1729h367v540h-367z"/></clipPath><clipPath id="aN"><path d="M3806 1729h367v540h-367z"/></clipPath></defs><g clip-path="url(#a)" transform="translate(-145 -68)"><path fill="#FFAB00" fill-rule="evenodd" d="M146.776 70.177h670.969v169.125H146.776Z"/><path fill="#FFAB00" fill-rule="evenodd" d="M146.776 239.302h670.969v162.937H146.776Z"/><path fill="none" stroke="#C1C7D0" stroke-linejoin="round" stroke-miterlimit="10" stroke-width="3.438" d="M817.745 68.458v335.5m670.965-335.5v335.5M145.058 239.302H2161.4M146.776 68.458v335.5m2012.904-335.5v335.5M145.058 70.177H2161.4M145.058 402.239H2161.4"/><text font-family="Calibri,Calibri_MSFontService,sans-serif" font-size="50" font-weight="400" transform="translate(181.151 142)">Normal </text><text font-family="Calibri,Calibri_MSFontService,sans-serif" font-size="50" font-weight="400" transform="translate(345.006 142)">Consumption</text><text font-family="Calibri,Calibri_MSFontService,sans-serif" font-size="50" font-weight="400" transform="translate(181.151 203)">Customer</text><text font-family="Calibri,Calibri_MSFontService,sans-serif" font-size="50" font-weight="400" transform="translate(852.12 142)">1000</text><text font-family="Calibri,Calibri_MSFontService,sans-serif" font-size="50" font-weight="400" transform="translate(1523.09 142)">100%</text><text font-family="Calibri,Calibri_MSFontService,sans-serif" font-size="50" font-weight="400" transform="translate(181.151 311)">Production</text><text font-family="Calibri,Calibri_MSFontService,sans-serif" font-size="50" font-weight="400" transform="translate(417.193 311)">Output Supplier</text><text font-family="Calibri,Calibri_MSFontService,sans-serif" font-size="50" font-weight="400" transform="translate(852.12 311)">1200</text><text font-family="Calibri,Calibri_MSFontService,sans-serif" font-size="50" font-weight="400" transform="translate(1523.09 311)">100%</text><path fill="#FFAB00" fill-rule="evenodd" d="M146.776 396.052h731.966v178.309H146.776Zm731.966 0h365.988v178.309H878.742Zm365.988 0h365.98v178.309h-365.98Zm365.98 0h365.98v178.309h-365.98Z"/><path fill="#FFAB00" fill-rule="evenodd" d="M1976.69 396.052h731.97v178.309h-731.97Zm731.97 0h731.96v178.309h-731.96Zm731.96 0h731.97v178.309h-731.97ZM146.776 574.361h390.551V675.67H146.776Zm390.551 0h341.415V675.67H537.327Zm341.415 0h365.988V675.67H878.742Zm365.988 0h365.98V675.67h-365.98Zm365.98 0h365.98V675.67h-365.98Zm365.98 0h365.99V675.67h-365.99Z"/><path fill="#FFAB00" fill-rule="evenodd" d="M2342.68 574.361h365.98V675.67h-365.98Zm365.98 0h365.98V675.67h-365.98Zm365.98 0h365.98V675.67h-365.98Zm365.98 0h365.99V675.67h-365.99Zm365.99 0h365.98V675.67h-365.98ZM146.776 675.67h390.551v224.338H146.776Zm0 224.338h390.551v224.342H146.776Z"/><path fill="#FFBDAD" fill-rule="evenodd" d="M3074.64 900.008h365.98v224.342h-365.98Z"/><path fill="#FFAB00" fill-rule="evenodd" d="M146.776 1124.35h390.551v224.33H146.776Z"/><path fill="#FFF" fill-rule="evenodd" d="M537.327 1124.35h341.415v224.33H537.327Zm341.415 0h365.988v224.33H878.742Zm365.988 0h365.98v224.33h-365.98Zm365.98 0h365.98v224.33h-365.98Zm365.98 0h365.99v224.33h-365.99Z"/><path fill="#FFF" fill-rule="evenodd" d="M2342.68 1124.35h365.98v224.33h-365.98Zm365.98 0h365.98v224.33h-365.98Zm365.98 0h365.98v224.33h-365.98Zm365.98 0h365.99v224.33h-365.99Zm365.99 0h365.98v224.33h-365.98Z"/><path fill="#FFAB00" fill-rule="evenodd" d="M146.776 1348.68h390.551v274.35H146.776Z"/><path fill="#EAE6FF" fill-rule="evenodd" d="M537.327 1348.68h341.415v274.35H537.327Zm341.415 0h365.988v274.35H878.742Zm365.988 0h365.98v274.35h-365.98Zm365.98 0h365.98v274.35h-365.98Zm731.97 0h365.98v274.35h-365.98Zm731.96 0h365.98v274.35h-365.98Zm731.97 0h365.98v274.35h-365.98Z"/><path fill="#FFAB00" fill-rule="evenodd" d="M146.776 1623.03h390.551v101.31H146.776Zm390.551 0h341.415v101.31H537.327Zm341.415 0h365.988v101.31H878.742Zm365.988 0h365.98v101.31h-365.98Zm365.98 0h365.98v101.31h-365.98Zm365.98 0h365.99v101.31h-365.99Z"/><path fill="#FFAB00" fill-rule="evenodd" d="M2342.68 1623.03h365.98v101.31h-365.98Zm365.98 0h365.98v101.31h-365.98Zm365.98 0h365.98v101.31h-365.98Zm365.98 0h365.99v101.31h-365.99Zm365.99 0h365.98v101.31h-365.98ZM146.776 1724.34h390.551v224.34H146.776Z"/><path fill="#FFF" fill-rule="evenodd" d="M537.327 1724.34h341.415v224.34H537.327Zm341.415 0h365.988v224.34H878.742Zm365.988 0h365.98v224.34h-365.98Zm365.98 0h365.98v224.34h-365.98Zm365.98 0h365.99v224.34h-365.99Z"/><path fill="#FFF" fill-rule="evenodd" d="M2342.68 1724.34h365.98v224.34h-365.98Zm365.98 0h365.98v224.34h-365.98Zm365.98 0h365.98v224.34h-365.98Zm365.98 0h365.99v224.34h-365.99Zm365.99 0h365.98v224.34h-365.98Z"/><path fill="#FFAB00" fill-rule="evenodd" d="M146.776 1948.68h390.551v274.34H146.776Z"/><path fill="#EAE6FF" fill-rule="evenodd" d="M537.327 1948.68h341.415v274.34H537.327Zm341.415 0h365.988v274.34H878.742Zm365.988 0h365.98v274.34h-365.98Zm365.98 0h365.98v274.34h-365.98Zm731.97 0h365.98v274.34h-365.98Zm731.96 0h365.98v274.34h-365.98Zm731.97 0h365.98v274.34h-365.98Z"/><path fill="none" stroke="#C1C7D0" stroke-linejoin="round" stroke-miterlimit="10" stroke-width="3.438" d="M537.327 572.643V2224.74M878.742 394.334V2224.74M1244.73 394.334V2224.74m365.98-1830.406V2224.74m365.98-1830.406V2224.74m365.99-1652.097V2224.74m365.98-1830.406V2224.74m365.98-1652.097V2224.74m365.98-1830.406V2224.74m365.99-1652.097V2224.74M145.057 574.361H4174.31M145.057 675.67H4174.31M145.057 900.008H4174.31M145.057 1124.35H4174.31M145.057 1348.68H4174.31M145.057 1623.03H4174.31M145.057 1724.34H4174.31M145.057 1948.68H4174.31M146.776 394.334V2224.74M4172.59 394.334V2224.74M145.057 396.052H4174.31M145.057 2223.02H4174.31"/><g clip-path="url(#b)"><text font-family="Calibri,Calibri_MSFontService,sans-serif" font-size="64" font-weight="400" transform="translate(164.14 469)">Situation</text></g><g clip-path="url(#c)"><text font-family="Calibri,Calibri_MSFontService,sans-serif" font-size="64" font-weight="400" transform="translate(896.106 469)">Prod</text></g><text font-family="Calibri,Calibri_MSFontService,sans-serif" font-size="64" font-weight="400" transform="translate(1032.57 469)">Sup</text><g clip-path="url(#d)"><text font-family="Calibri,Calibri_MSFontService,sans-serif" font-size="64" font-weight="400" transform="translate(896.106 546)">100%</text></g><g clip-path="url(#e)"><text font-family="Calibri,Calibri_MSFontService,sans-serif" font-size="64" font-weight="400" transform="translate(1262.09 469)">Prod Sup </text></g><g clip-path="url(#f)"><text font-family="Calibri,Calibri_MSFontService,sans-serif" font-size="64" font-weight="400" transform="translate(1262.09 546)">100%</text></g><g clip-path="url(#g)"><text font-family="Calibri,Calibri_MSFontService,sans-serif" font-size="64" font-weight="400" transform="translate(1628.07 469)">Prod</text></g><text font-family="Calibri,Calibri_MSFontService,sans-serif" font-size="64" font-weight="400" transform="translate(1764.54 469)">Sup</text><g clip-path="url(#h)"><text font-family="Calibri,Calibri_MSFontService,sans-serif" font-size="64" font-weight="400" transform="translate(1628.07 546)">100%</text></g><g clip-path="url(#i)"><text font-family="Calibri,Calibri_MSFontService,sans-serif" font-size="64" font-weight="400" transform="translate(1994.06 469)">Shortage</text></g><text font-family="Calibri,Calibri_MSFontService,sans-serif" font-size="64" font-weight="400" transform="translate(2241.39 469)">Sup</text><text font-family="Calibri,Calibri_MSFontService,sans-serif" font-size="64" font-weight="400" transform="translate(2352.54 469)">prod</text><text font-family="Calibri,Calibri_MSFontService,sans-serif" font-size="64" font-weight="400" transform="translate(2489.58 469)">0%</text><g clip-path="url(#j)"><text font-family="Calibri,Calibri_MSFontService,sans-serif" font-size="64" font-weight="400" transform="translate(2726.02 469)">Prod</text></g><text font-family="Calibri,Calibri_MSFontService,sans-serif" font-size="64" font-weight="400" transform="translate(2862.49 469)">Sup</text><text font-family="Calibri,Calibri_MSFontService,sans-serif" font-size="64" font-weight="400" transform="translate(2973.64 469)">100%</text><g clip-path="url(#k)"><text font-family="Calibri,Calibri_MSFontService,sans-serif" font-size="64" font-weight="400" transform="translate(3457.99 469)">Prod</text></g><text font-family="Calibri,Calibri_MSFontService,sans-serif" font-size="64" font-weight="400" transform="translate(3594.46 469)">Sup</text><text font-family="Calibri,Calibri_MSFontService,sans-serif" font-size="64" font-weight="400" transform="translate(3705.6 469)">100%</text><g clip-path="url(#l)"><text font-family="Calibri,Calibri_MSFontService,sans-serif" font-size="64" font-weight="400" transform="translate(164.14 648)">Customer</text></g><g clip-path="url(#m)"><text font-family="Calibri,Calibri_MSFontService,sans-serif" font-size="64" font-weight="400" transform="translate(554.69 648)">Day 1</text></g><g clip-path="url(#n)"><text font-family="Calibri,Calibri_MSFontService,sans-serif" font-size="64" font-weight="400" transform="translate(896.106 648)">Day 2</text></g><g clip-path="url(#o)"><text font-family="Calibri,Calibri_MSFontService,sans-serif" font-size="64" font-weight="400" transform="translate(1262.09 648)">Day 3</text></g><g clip-path="url(#p)"><text font-family="Calibri,Calibri_MSFontService,sans-serif" font-size="64" font-weight="400" transform="translate(1628.07 648)">Day 4</text></g><g clip-path="url(#q)"><text font-family="Calibri,Calibri_MSFontService,sans-serif" font-size="64" font-weight="700" transform="translate(1994.06 648)">Day 5</text></g><text font-family="Calibri,Calibri_MSFontService,sans-serif" font-size="64" font-weight="700" transform="translate(2156.74 648)">-</text><g clip-path="url(#r)"><text font-family="Calibri,Calibri_MSFontService,sans-serif" font-size="64" font-weight="700" transform="translate(2190.54 648)">Plan</text></g><g clip-path="url(#s)"><text font-family="Calibri,Calibri_MSFontService,sans-serif" font-size="64" font-weight="700" transform="translate(2360.04 648)">Day 5 </text></g><text font-family="Calibri,Calibri_MSFontService,sans-serif" font-size="64" font-weight="700" transform="translate(2522.72 648)">-</text><text font-family="Calibri,Calibri_MSFontService,sans-serif" font-size="64" font-weight="700" transform="translate(2556.53 648)">Is</text><g clip-path="url(#t)"><text font-family="Calibri,Calibri_MSFontService,sans-serif" font-size="64" font-weight="700" transform="translate(2726.02 648)">Day 6 </text></g><text font-family="Calibri,Calibri_MSFontService,sans-serif" font-size="64" font-weight="700" transform="translate(2888.71 648)">-</text><g clip-path="url(#u)"><text font-family="Calibri,Calibri_MSFontService,sans-serif" font-size="64" font-weight="700" transform="translate(2922.51 648)">Plan</text></g><g clip-path="url(#v)"><text font-family="Calibri,Calibri_MSFontService,sans-serif" font-size="64" font-weight="700" transform="translate(3092 648)">Day 6 </text></g><text font-family="Calibri,Calibri_MSFontService,sans-serif" font-size="64" font-weight="700" transform="translate(3254.69 648)">-</text><text font-family="Calibri,Calibri_MSFontService,sans-serif" font-size="64" font-weight="700" transform="translate(3288.49 648)">Is</text><g clip-path="url(#w)"><text font-family="Calibri,Calibri_MSFontService,sans-serif" font-size="64" font-weight="400" transform="translate(3457.99 648)">Day 7 Plan</text></g><g clip-path="url(#x)"><text font-family="Calibri,Calibri_MSFontService,sans-serif" font-size="64" font-weight="400" transform="translate(3823.97 648)">Day 7 Is</text></g><g clip-path="url(#y)"><text font-family="Calibri,Calibri_MSFontService,sans-serif" font-size="64" font-weight="400" transform="translate(164.14 749)">Call off </text></g><g clip-path="url(#z)"><text font-family="Calibri,Calibri_MSFontService,sans-serif" font-size="64" font-weight="400" transform="translate(554.69 749)">1200</text></g><g clip-path="url(#A)"><text font-family="Calibri,Calibri_MSFontService,sans-serif" font-size="64" font-weight="400" transform="translate(896.106 749)">1000</text></g><g clip-path="url(#B)"><text font-family="Calibri,Calibri_MSFontService,sans-serif" font-size="64" font-weight="400" transform="translate(1262.09 749)">1200</text></g><g clip-path="url(#C)"><text font-family="Calibri,Calibri_MSFontService,sans-serif" font-size="64" font-weight="400" transform="translate(1628.07 749)">1000</text></g><g clip-path="url(#D)"><text font-family="Calibri,Calibri_MSFontService,sans-serif" font-size="64" font-weight="400" transform="translate(1994.06 749)">1200</text></g><g clip-path="url(#E)"><text font-family="Calibri,Calibri_MSFontService,sans-serif" font-size="64" font-weight="400" transform="translate(2360.04 749)">1200</text></g><g clip-path="url(#F)"><text font-family="Calibri,Calibri_MSFontService,sans-serif" font-size="64" font-weight="400" transform="translate(2726.02 749)">1000</text></g><g clip-path="url(#G)"><text font-family="Calibri,Calibri_MSFontService,sans-serif" font-size="64" font-weight="400" transform="translate(3092 749)">1000</text></g><g clip-path="url(#H)"><text font-family="Calibri,Calibri_MSFontService,sans-serif" font-size="64" font-weight="400" transform="translate(3457.99 749)">1200</text></g><g clip-path="url(#I)"><text font-family="Calibri,Calibri_MSFontService,sans-serif" font-size="64" font-weight="400" transform="translate(3823.97 749)">1200</text></g><g clip-path="url(#J)"><text font-family="Calibri,Calibri_MSFontService,sans-serif" font-size="64" font-weight="400" transform="translate(164.14 973)">Delivery</text></g><g clip-path="url(#K)"><text font-family="Calibri,Calibri_MSFontService,sans-serif" font-size="64" font-weight="400" transform="translate(554.69 973)">1200</text></g><g clip-path="url(#L)"><text font-family="Calibri,Calibri_MSFontService,sans-serif" font-size="64" font-weight="400" transform="translate(896.106 973)">1000</text></g><g clip-path="url(#M)"><text font-family="Calibri,Calibri_MSFontService,sans-serif" font-size="64" font-weight="400" transform="translate(1262.09 973)">1200</text></g><g clip-path="url(#N)"><text font-family="Calibri,Calibri_MSFontService,sans-serif" font-size="64" font-weight="400" transform="translate(1628.07 973)">1000</text></g><g clip-path="url(#O)"><text font-family="Calibri,Calibri_MSFontService,sans-serif" font-size="64" font-weight="400" transform="translate(1994.06 973)">1200</text></g><g clip-path="url(#P)"><text font-family="Calibri,Calibri_MSFontService,sans-serif" font-size="64" font-weight="400" transform="translate(2360.04 973)">1200</text></g><g clip-path="url(#Q)"><text font-family="Calibri,Calibri_MSFontService,sans-serif" font-size="64" font-weight="400" transform="translate(2726.02 973)">1000</text></g><g clip-path="url(#R)"><text font-family="Calibri,Calibri_MSFontService,sans-serif" font-size="64" font-weight="400" transform="translate(3092 973)">400**</text></g><g clip-path="url(#S)"><text font-family="Calibri,Calibri_MSFontService,sans-serif" font-size="64" font-weight="400" transform="translate(3457.99 973)">1200</text></g><g clip-path="url(#T)"><text font-family="Calibri,Calibri_MSFontService,sans-serif" font-size="64" font-weight="400" transform="translate(3823.97 973)">1200</text></g><g clip-path="url(#U)"><text font-family="Calibri,Calibri_MSFontService,sans-serif" font-size="64" font-weight="400" transform="translate(164.14 1198)">Consumption</text></g><g clip-path="url(#V)"><text font-family="Calibri,Calibri_MSFontService,sans-serif" font-size="64" font-weight="400" transform="translate(554.69 1198)">1000</text></g><g clip-path="url(#W)"><text font-family="Calibri,Calibri_MSFontService,sans-serif" font-size="64" font-weight="400" transform="translate(896.106 1198)">1000</text></g><g clip-path="url(#X)"><text font-family="Calibri,Calibri_MSFontService,sans-serif" font-size="64" font-weight="400" transform="translate(1262.09 1198)">1000</text></g><g clip-path="url(#Y)"><text font-family="Calibri,Calibri_MSFontService,sans-serif" font-size="64" font-weight="400" transform="translate(1628.07 1198)">1000</text></g><g clip-path="url(#Z)"><text font-family="Calibri,Calibri_MSFontService,sans-serif" font-size="64" font-weight="400" transform="translate(1994.06 1198)">1000</text></g><g clip-path="url(#aa)"><text font-family="Calibri,Calibri_MSFontService,sans-serif" font-size="64" font-weight="400" transform="translate(2360.04 1198)">1000</text></g><g clip-path="url(#ab)"><text font-family="Calibri,Calibri_MSFontService,sans-serif" font-size="64" font-weight="400" transform="translate(2726.02 1198)">1000</text></g><g clip-path="url(#ac)"><text font-family="Calibri,Calibri_MSFontService,sans-serif" font-size="64" font-weight="400" transform="translate(3092 1198)">1000</text></g><g clip-path="url(#ad)"><text font-family="Calibri,Calibri_MSFontService,sans-serif" font-size="64" font-weight="400" transform="translate(3457.99 1198)">1000</text></g><g clip-path="url(#ae)"><text font-family="Calibri,Calibri_MSFontService,sans-serif" font-size="64" font-weight="400" transform="translate(3823.97 1198)">1000</text></g><g clip-path="url(#af)"><text font-family="Calibri,Calibri_MSFontService,sans-serif" font-size="64" font-weight="400" transform="translate(164.14 1422)">Item Stock</text></g><g clip-path="url(#ag)"><text font-family="Calibri,Calibri_MSFontService,sans-serif" font-size="64" font-weight="400" transform="translate(554.69 1422)">200</text></g><g clip-path="url(#ah)"><text font-family="Calibri,Calibri_MSFontService,sans-serif" font-size="64" font-weight="400" transform="translate(896.106 1422)">200</text></g><g clip-path="url(#ai)"><text font-family="Calibri,Calibri_MSFontService,sans-serif" font-size="64" font-weight="400" transform="translate(1262.09 1422)">400</text></g><g clip-path="url(#aj)"><text font-family="Calibri,Calibri_MSFontService,sans-serif" font-size="64" font-weight="400" transform="translate(1628.07 1422)">400</text></g><g clip-path="url(#ak)"><text font-family="Calibri,Calibri_MSFontService,sans-serif" font-size="64" font-weight="400" transform="translate(1994.06 1422)">600</text></g><g clip-path="url(#al)"><text font-family="Calibri,Calibri_MSFontService,sans-serif" font-size="64" font-weight="400" transform="translate(2360.04 1422)">600</text></g><g clip-path="url(#am)"><text font-family="Calibri,Calibri_MSFontService,sans-serif" font-size="64" font-weight="400" transform="translate(2726.02 1422)">600</text></g><g clip-path="url(#an)"><text font-family="Calibri,Calibri_MSFontService,sans-serif" font-size="64" font-weight="400" transform="translate(3092 1422)">0</text></g><g clip-path="url(#ao)"><text font-family="Calibri,Calibri_MSFontService,sans-serif" font-size="64" font-weight="400" transform="translate(3457.99 1422)">800</text></g><g clip-path="url(#ap)"><text font-family="Calibri,Calibri_MSFontService,sans-serif" font-size="64" font-weight="400" transform="translate(3823.97 1422)">200</text></g><g clip-path="url(#aq)"><text font-family="Calibri,Calibri_MSFontService,sans-serif" font-size="64" font-weight="400" transform="translate(164.14 1696)">Supplier</text></g><g clip-path="url(#ar)"><text font-family="Calibri,Calibri_MSFontService,sans-serif" font-size="64" font-weight="400" transform="translate(164.14 1797)">Production</text></g><g clip-path="url(#as)"><text font-family="Calibri,Calibri_MSFontService,sans-serif" font-size="64" font-weight="400" transform="translate(164.14 1874)">Output</text></g><g clip-path="url(#at)"><text font-family="Calibri,Calibri_MSFontService,sans-serif" font-size="64" font-weight="400" transform="translate(554.69 1797)">1200</text></g><g clip-path="url(#au)"><text font-family="Calibri,Calibri_MSFontService,sans-serif" font-size="64" font-weight="400" transform="translate(896.106 1797)">1200</text></g><g clip-path="url(#av)"><text font-family="Calibri,Calibri_MSFontService,sans-serif" font-size="64" font-weight="400" transform="translate(1262.09 1797)">1200</text></g><g clip-path="url(#aw)"><text font-family="Calibri,Calibri_MSFontService,sans-serif" font-size="64" font-weight="400" transform="translate(1628.07 1797)">1200</text></g><g clip-path="url(#ax)"><text font-family="Calibri,Calibri_MSFontService,sans-serif" font-size="64" font-weight="400" transform="translate(1994.06 1797)">1200</text></g><g clip-path="url(#ay)"><text font-family="Calibri,Calibri_MSFontService,sans-serif" font-size="64" font-weight="400" transform="translate(2360.04 1797)">0</text></g><g clip-path="url(#az)"><text font-family="Calibri,Calibri_MSFontService,sans-serif" font-size="64" font-weight="400" transform="translate(2726.02 1797)">1200</text></g><g clip-path="url(#aA)"><text font-family="Calibri,Calibri_MSFontService,sans-serif" font-size="64" font-weight="400" transform="translate(3092 1797)">1200</text></g><g clip-path="url(#aB)"><text font-family="Calibri,Calibri_MSFontService,sans-serif" font-size="64" font-weight="400" transform="translate(3457.99 1797)">1200</text></g><g clip-path="url(#aC)"><text font-family="Calibri,Calibri_MSFontService,sans-serif" font-size="64" font-weight="400" transform="translate(3823.97 1797)">1200</text></g><g clip-path="url(#aD)"><text font-family="Calibri,Calibri_MSFontService,sans-serif" font-size="64" font-weight="400" transform="translate(164.14 2022)">Item Stock </text></g><g clip-path="url(#aE)"><text font-family="Calibri,Calibri_MSFontService,sans-serif" font-size="64" font-weight="400" transform="translate(554.69 2022)">0</text></g><g clip-path="url(#aF)"><text font-family="Calibri,Calibri_MSFontService,sans-serif" font-size="64" font-weight="400" transform="translate(896.106 2022)">200</text></g><g clip-path="url(#aG)"><text font-family="Calibri,Calibri_MSFontService,sans-serif" font-size="64" font-weight="400" transform="translate(1262.09 2022)">200</text></g><g clip-path="url(#aH)"><text font-family="Calibri,Calibri_MSFontService,sans-serif" font-size="64" font-weight="400" transform="translate(1628.07 2022)">400</text></g><g clip-path="url(#aI)"><text font-family="Calibri,Calibri_MSFontService,sans-serif" font-size="64" font-weight="400" transform="translate(1994.06 2022)">400</text></g><g clip-path="url(#aJ)"><text font-family="Calibri,Calibri_MSFontService,sans-serif" font-size="64" font-weight="400" transform="translate(2360.04 2022)">400</text></g><g clip-path="url(#aK)"><text font-family="Calibri,Calibri_MSFontService,sans-serif" font-size="64" font-weight="400" transform="translate(2726.02 2022)">400</text></g><g clip-path="url(#aL)"><text font-family="Calibri,Calibri_MSFontService,sans-serif" font-size="64" font-weight="400" transform="translate(3092 2022)">0</text></g><g clip-path="url(#aM)"><text font-family="Calibri,Calibri_MSFontService,sans-serif" font-size="64" font-weight="400" transform="translate(3457.99 2022)">600</text></g><g clip-path="url(#aN)"><text font-family="Calibri,Calibri_MSFontService,sans-serif" font-size="64" font-weight="400" transform="translate(3823.97 2022)">0</text></g><path fill="#FFBDAD" fill-rule="evenodd" d="M2159.68 70.177h2012.91v162.938H2159.68Z"/><path fill="#EAE6FF" fill-rule="evenodd" d="M2159.68 233.115h2012.91v162.937H2159.68Z"/><path fill="none" stroke="#C1C7D0" stroke-linejoin="round" stroke-miterlimit="10" stroke-width="3.438" d="M2157.96 233.115h2016.35M2159.68 68.459V397.77M4172.59 68.459V397.77M2157.96 70.177h2016.35M2157.96 396.052h2016.35"/><text font-family="Calibri,Calibri_MSFontService,sans-serif" font-size="55" font-weight="700" transform="translate(2194.06 146)">**Shortage situation Delivery quantity remained below plan</text><text font-family="Calibri,Calibri_MSFontService,sans-serif" font-size="55" font-weight="700" transform="translate(2194.06 309)">Transferable information from item stock per day</text><path fill="#4472C4" d="m672.854 1736.33.188-31.26.688-31.14 1.063-31.07 1.438-30.89 1.813-30.64 2.189-30.33 2.564-29.95 2.938-29.58 3.19-29.01 3.564-28.52 3.814-27.89 4.128-27.2 4.44-26.52 4.691-25.64 4.878-24.83 5.13-23.96 5.379-22.96 5.569-21.89 5.756-20.84 5.946-19.66 6.135-18.46 6.263-17.16 6.391-15.79 6.518-14.48 3.329-6.66 3.327-6.28 3.391-5.96 3.334-5.54 3.464-5.16 3.402-4.73 3.474-4.35 3.48-3.93 3.493-3.49 3.563-3.05 3.512-2.62 3.601-2.19 3.614-1.68 3.621-1.23 3.644-.78 3.595-.25 14.016-.63-.088.01 13.875-1.69-.093.02 13.625-2.82-.082.02 13.375-3.81-.078.03 12.875-4.69-.08.03 12.312-5.56-.072.04 11.687-6.32-.073.05 10.937-7-.07.05 10.062-7.57-.08.07 9.063-8.19-.072.07 7.937-8.56-.073.09 6.812-9-.074.11 5.438-9.252-.107.242 2.03-6.551 2.189.679-2.069 6.677-5.539 9.425-6.887 9.1-8.011 8.64-9.139 8.25-10.138 7.62-11.009 7.05-11.761 6.35-12.389 5.6-12.954 4.71-13.455 3.84-13.713 2.83-13.966 1.7-14.043.63.03-.01-3.5.25.159-.02-3.5.75.128-.03-3.5 1.18.114-.04-3.5 1.62.112-.06-3.5 2.13.09-.06-3.437 2.56.061-.05-3.5 3 .064-.06-3.437 3.44.047-.05-3.438 3.87.039-.04-3.437 4.31.033-.04-3.375 4.68.022-.03-3.437 5.13.03-.05-3.313 5.5.015-.02-3.375 5.93.016-.03-3.312 6.25.012-.02-3.313 6.62.02-.04-6.5 14.44.018-.04-6.375 15.75.014-.04-6.25 17.13.011-.03-6.125 18.43.009-.03-5.937 19.63.008-.03-5.75 20.81.006-.02-5.563 21.88.005-.02-5.375 22.93.005-.02-5.125 23.94.004-.02-4.875 24.81.003-.01-4.688 25.62.003-.01-4.437 26.5.002-.02-4.125 27.19.003-.02-3.813 27.87.002-.01-3.562 28.5.002-.02-3.188 29 .001-.01-2.937 29.56.001-.01-2.562 29.94.001-.02-2.187 30.31v-.01l-1.812 30.62.001-.01-1.438 30.87.001-.01-1.063 31.06.001-.01-.688 31.12v-.01l-.187 31.25Zm280.174-746.781L972.796 966l6.978 29.944Zm49.822 751.781.19-31.26.69-31.14 1.06-31.07 1.44-30.89 1.81-30.64 2.19-30.33 2.57-29.95 2.94-29.58 3.18-29.01 3.57-28.52 3.81-27.89 4.13-27.2 4.44-26.52 4.69-25.64 4.88-24.83 5.13-23.96 5.38-22.96 5.57-21.89 5.75-20.84 5.95-19.66 6.14-18.46 6.26-17.16 6.39-15.79 6.52-14.48 3.33-6.66 3.32-6.28 3.39-5.96 3.34-5.54 3.46-5.16 3.4-4.73 3.48-4.35 3.48-3.93 3.49-3.49 3.56-3.05 3.52-2.62 3.6-2.19 3.61-1.68 3.62-1.22 3.65-.79 3.59-.25 14.02-.63-.09.01 13.87-1.69-.09.02 13.63-2.82-.09.02 13.38-3.81-.08.03 12.88-4.69-.08.03 12.31-5.56-.07.04 11.68-6.32-.07.05 10.94-7-.07.05 10.06-7.57-.08.07 9.06-8.19-.07.07 7.94-8.56-.08.09 6.82-9-.08.11 5.44-9.252-.11.242 2.03-6.551 2.19.679-2.07 6.682-5.54 9.42-6.88 9.1-8.01 8.64-9.14 8.25-10.14 7.62-11.01 7.05-11.76 6.35-12.39 5.6-12.95 4.71-13.46 3.84-13.71 2.83-13.97 1.7-14.04.63.03-.01-3.5.25.16-.02-3.5.75.13-.03-3.5 1.18.11-.04-3.5 1.62.11-.06-3.5 2.13.09-.06-3.44 2.56.07-.05-3.5 3 .06-.06-3.44 3.44.05-.05-3.44 3.87.04-.04-3.44 4.31.04-.04-3.38 4.68.02-.03-3.43 5.13.03-.05-3.32 5.5.02-.02-3.38 5.93.02-.03-3.31 6.25.01-.02-3.31 6.62.02-.04-6.5 14.44.01-.04-6.37 15.75.01-.04-6.25 17.13.02-.03-6.13 18.43.01-.03-5.94 19.63.01-.03-5.75 20.81.01-.02-5.57 21.88.01-.02-5.38 22.93.01-.02-5.13 23.94.01-.02-4.88 24.81v-.01l-4.68 25.62v-.01l-4.44 26.5.01-.02-4.13 27.19v-.02l-3.81 27.87v-.01l-3.56 28.5v-.02l-3.19 29 .01-.01-2.94 29.56v-.01l-2.56 29.94v-.02l-2.19 30.31v-.01l-1.81 30.62v-.01l-1.44 30.87v-.01l-1.06 31.06v-.01l-.69 31.12v-.01l-.18 31.25Zm280.18-746.781L1302.8 971l6.97 29.94Zm65.82 746.781.19-31.26.69-31.14 1.06-31.07 1.44-30.89 1.81-30.64 2.19-30.33 2.57-29.95 2.94-29.58 3.18-29.01 3.57-28.52 3.81-27.89 4.13-27.2 4.44-26.52 4.69-25.64 4.88-24.83 5.13-23.96 5.38-22.96 5.57-21.89 5.75-20.84 5.95-19.66 6.14-18.46 6.26-17.16 6.39-15.79 6.52-14.48 3.33-6.66 3.32-6.28 3.39-5.96 3.34-5.54 3.46-5.16 3.4-4.73 3.48-4.35 3.48-3.93 3.49-3.49 3.56-3.05 3.52-2.62 3.6-2.19 3.61-1.68 3.62-1.22 3.65-.79 3.59-.25 14.02-.63-.09.01 13.87-1.69-.09.02 13.63-2.82-.09.02 13.38-3.81-.08.03 12.88-4.69-.08.03 12.31-5.56-.07.04 11.68-6.32-.07.05 10.94-7-.07.05 10.06-7.57-.08.07 9.06-8.19-.07.07 7.94-8.56-.08.09 6.82-9-.08.11 5.44-9.252-.11.242 2.03-6.551 2.19.679-2.07 6.682-5.54 9.42-6.88 9.1-8.01 8.64-9.14 8.25-10.14 7.62-11.01 7.05-11.76 6.35-12.39 5.6-12.95 4.71-13.46 3.84-13.71 2.83-13.97 1.7-14.04.63.03-.01-3.5.25.16-.02-3.5.75.13-.03-3.5 1.18.11-.04-3.5 1.62.11-.06-3.5 2.13.09-.06-3.44 2.56.07-.05-3.5 3 .06-.06-3.44 3.44.05-.05-3.44 3.87.04-.04-3.44 4.31.04-.04-3.38 4.68.02-.03-3.43 5.13.03-.05-3.32 5.5.02-.02-3.38 5.93.02-.03-3.31 6.25.01-.02-3.31 6.62.02-.04-6.5 14.44.01-.04-6.37 15.75.01-.04-6.25 17.13.01-.03-6.12 18.43.01-.03-5.94 19.63.01-.03-5.75 20.81.01-.02-5.57 21.88.01-.02-5.38 22.93.01-.02-5.13 23.94.01-.02-4.88 24.81v-.01l-4.68 25.62v-.01l-4.44 26.5.01-.02-4.13 27.19v-.02l-3.81 27.87v-.01l-3.56 28.5v-.02l-3.19 29 .01-.01-2.94 29.56v-.01l-2.56 29.94v-.02l-2.19 30.31v-.01l-1.81 30.62v-.01l-1.44 30.87v-.01l-1.06 31.06v-.01l-.69 31.12v-.01l-.18 31.25Zm280.18-746.781L1648.8 971l6.97 29.94Zm113.82 748.931.5-33.76 1.44-33.72 2.32-33.53 3.25-33.41 4.07-33.09 4.88-32.78 5.69-32.4 6.5-31.91 7.14-31.4 7.94-30.78 8.57-30.15 9.2-29.41 9.82-28.65 10.39-27.78 10.95-26.85 11.45-25.84 11.95-24.78 12.4-23.73 12.83-22.47 13.28-21.29 13.59-19.92 13.96-18.53 7.09-8.78 7.14-8.34 7.27-8.02 7.28-7.59 7.4-7.21 7.4-6.78 7.47-6.4 7.53-5.97 7.6-5.58 7.61-5.1 7.67-4.65 7.73-4.21 7.74-3.78 7.81-3.27 7.75-2.77 7.87-2.33 7.82-1.83 7.89-1.26 7.82-.82 7.87-.25 31.13-.32h-.02l30.94-.87h-.02l30.44-1.44h-.02l29.69-1.87h-.03l28.69-2.38-.02.01 27.5-2.82-.02.01 13.25-1.57h-.01l12.81-1.62h-.01l12.37-1.75h-.01l11.94-1.81h-.02l11.44-1.87h-.01l10.94-1.94-.02.01 10.37-2h-.02l9.81-2.124-.02.003 9.19-2.125-.02.007 8.56-2.188-.03.008 7.94-2.25-.04.013 7.12-2.313-.03.01 6.5-2.312-.3.158 3.98-2.943 1.36 1.842-4.11 3.045-6.68 2.375-7.16 2.324-7.97 2.26-8.59 2.194-9.21 2.126-9.83 2.13-10.4 2.01-10.95 1.94-11.45 1.88-11.95 1.81-12.39 1.75-12.83 1.63-13.26 1.56-27.52 2.82-28.71 2.37-29.71 1.88-30.45 1.44-30.96.87-31.14.32h.03l-7.82.25.09-.01-7.75.81.06-.01-7.81 1.25.08-.01-7.75 1.81.06-.02-7.81 2.32.06-.02-7.69 2.75.06-.02-7.75 3.25.06-.03-7.69 3.75.05-.03-7.69 4.19.04-.02-7.62 4.62.04-.03-7.56 5.07.04-.03-7.56 5.56.03-.03-7.5 5.94.04-.03-7.44 6.38.03-.03-7.38 6.75.03-.02-7.38 7.19.03-.03-7.25 7.56.02-.02-7.25 8 .02-.03-7.12 8.32.02-.03-7.06 8.75.02-.03-13.94 18.5.03-.04-13.56 19.87.03-.04-13.25 21.25.02-.04-12.81 22.44.02-.04-12.38 23.69.02-.03-11.94 24.75.02-.03-11.44 25.81.01-.03-10.93 26.81.01-.03-10.38 27.75.01-.03-9.81 28.62.01-.03-9.19 29.38.01-.03-8.56 30.12.01-.02-7.94 30.75.01-.04-7.13 31.38.01-.03-6.5 31.88v-.03l-5.68 32.37v-.03l-4.87 32.75v-.02l-4.06 33.06v-.03l-3.25 33.37v-.03l-2.31 33.5v-.03l-1.44 33.69.01-.03-.5 33.75Zm636.47-766.575L2409.5 971l-13.38 27.682Zm29.53 989.235.5-43.01 1.57-42.97 2.56-42.77 3.5-42.53 4.38-42.15 5.32-41.78 6.19-41.27 7-40.65 7.82-40.02 8.51-39.22 9.31-38.4 9.95-37.46 10.63-36.53 11.32-35.34 11.83-34.21 12.44-32.97 12.95-31.59 6.64-15.27 6.82-14.89 6.88-14.58 7.01-14.08 7.13-13.77 7.2-13.33 7.32-12.9 7.45-12.52 7.52-12.02 7.57-11.58 7.71-11.15 7.77-10.65 7.83-10.21 7.96-9.65 7.96-9.22 8.02-8.65 8.16-8.16 8.16-7.59 8.22-7.03 8.23-6.53 8.35-5.97 8.3-5.35 8.44-4.78 8.43-4.15 8.44-3.59 8.51-2.9 8.45-2.34 8.59-1.64 8.52-1.01 8.5-.31 33.76-.5h-.02l33.56-1.32-.03.01 32.94-2.07-.03.01 32.19-2.88h-.03l31.19-3.5-.03.01 15.07-2h-.02l14.75-2.13h-.01l14.31-2.25-.02.01 13.88-2.44h-.02l13.44-2.56h-.02l12.94-2.68h-.02l12.44-2.75-.02.01 11.81-2.88-.02.01 11.31-3h-.02l10.62-3.06-.03.01 9.94-3.19-.03.01 9.31-3.25-.04.02 8.5-3.32-.04.02 7.82-3.375-.05.023 7-3.437-.06.031 6.18-3.5-.3.248 3.29-3.798 1.73 1.499-3.42 3.948-6.38 3.614-7.06 3.467-7.86 3.39-8.54 3.33-9.34 3.26-9.97 3.2-10.65 3.07-11.34 3-11.83 2.89-12.46 2.75-12.95 2.69-13.46 2.57-13.89 2.44-14.33 2.25-14.77 2.13-15.08 2-31.21 3.5-32.21 2.88-32.97 2.06-33.59 1.32-33.76.5h.02l-8.43.31.09-.01-8.44 1 .08-.01-8.5 1.62.09-.02-8.37 2.32.06-.02-8.44 2.87.08-.03-8.37 3.56.05-.02-8.37 4.12.06-.03-8.38 4.75.06-.03-8.25 5.31.04-.03-8.31 5.94.05-.04-8.19 6.5.03-.02-8.19 7 .04-.04-8.12 7.57.03-.03-8.13 8.12.03-.03-8 8.63.03-.03-7.94 9.18.02-.02-7.94 9.63.02-.03-7.81 10.18.02-.02-7.75 10.63.02-.03-7.69 11.13.01-.03-7.56 11.57.01-.02-7.5 12 .02-.02-7.44 12.5.01-.02-7.31 12.87.01-.02-7.19 13.31.01-.02-7.12 13.75.01-.01-7 14.06.01-.02-6.88 14.56.01-.01-6.82 14.87.01-.02-6.62 15.25.01-.02-12.94 31.56.01-.03-12.44 32.94.02-.03-11.82 34.19.01-.03-11.31 35.32.01-.03-10.63 36.5.01-.03-9.94 37.44.01-.03-9.31 38.38v-.03l-8.5 39.19.01-.02-7.82 40 .01-.03-7 40.63v-.03l-6.18 41.25v-.02l-5.31 41.75v-.03l-4.38 42.13.01-.03-3.5 42.5v-.02l-2.56 42.75v-.03l-1.56 42.94v-.03l-.5 43Zm694.58-982.573L3131.49 971l-6.78 29.99Z"/><path fill="#4472C4" d="m2477.028 1402.886 28.4-.689 28.238-1.94 27.798-3.131 27.111-4.195 26.238-5.26 25.106-6.198 12.095-3.447 11.714-3.633 11.338-3.821 10.905-3.949 10.469-4.2 10.031-4.326 9.474-4.454 8.976-4.646 8.412-4.77 7.855-4.839 7.237-4.971 6.615-5.103 5.933-5.176 5.248-5.312 4.499-5.322 3.816-5.407 3.003-5.495 2.181-5.515 1.352-5.603.445-5.527.438-5.438-.029.177 1.313-5.437-.048.152 2.125-5.375-.061.128 2.938-5.375-.064.104 3.687-5.312-.071.092 4.5-5.25-.055.06 5.188-5.25-.062.058 5.875-5.125-.054.044 6.563-5.063-.051.037 7.187-4.937-.048.031 7.813-4.812-.036.021 8.375-4.75-.038.021 8.937-4.625-.039.019 9.438-4.438-.034.016 10-4.313-.027.011 10.437-4.187-.036.014 10.875-3.938-.025.009 11.313-3.813-.027.009 11.688-3.625-.026.007 12.063-3.437-.039.01 25.062-6.187-.049.011 26.187-5.25-.05.009 27.063-4.188-.047.007 27.688-3.125-.05.004 28.187-1.937-.051.002 5.469-.131-.055-2.291-5.495.132-28.238 1.941-27.735 3.13-27.111 4.195-26.238 5.26-25.106 6.198-12.095 3.447-11.714 3.633-11.338 3.821-10.905 3.949-10.469 4.2-10.031 4.326-9.474 4.454-8.976 4.645-8.412 4.772-7.855 4.838-7.237 4.971-6.615 5.103-5.933 5.176-5.246 5.309-4.564 5.325-3.756 5.411-3.001 5.491-2.18 5.515-1.352 5.603-.445 5.527-.438 5.438.029-.177-1.313 5.437.048-.152-2.125 5.375.061-.128-2.938 5.374.069-.11-3.75 5.312.061-.08-4.437 5.25.06-.065-5.188 5.25.062-.058-5.875 5.125.054-.044-6.563 5.063.051-.038-7.187 4.938.048-.031-7.813 4.812.036-.02-8.375 4.75.038-.022-8.937 4.625.039-.019-9.438 4.438.034-.016-10 4.313.027-.011-10.437 4.187.036-.014-10.875 3.938.025-.009-11.313 3.813.027-.009-11.688 3.625.025-.008-12.062 3.438.039-.01-25.062 6.187.049-.011-26.187 5.25.05-.009-27.063 4.188.047-.007-27.75 3.125.05-.004-28.188 1.937.051-.002-28.375.688Zm579.501-218.484 27.163-14.405-27.822-13.087Zm126.321 552.078.5-33.76 1.44-33.72 2.32-33.53 3.25-33.41 4.07-33.09 4.88-32.78 5.69-32.4 6.51-31.91 7.13-31.4 7.94-30.78 8.57-30.15 9.2-29.41 9.82-28.65 10.39-27.78 10.95-26.85 11.45-25.84 11.95-24.78 12.4-23.73 12.83-22.47 13.28-21.29 13.59-19.92 13.96-18.53 7.09-8.78 7.14-8.34 7.27-8.02 7.28-7.59 7.4-7.21 7.4-6.78 7.47-6.4 7.53-5.97 7.6-5.58 7.61-5.1 7.67-4.65 7.73-4.21 7.74-3.78 7.81-3.27 7.75-2.77 7.87-2.33 7.82-1.83 7.89-1.26 7.82-.82 7.87-.25 31.13-.32h-.02l30.94-.87h-.02l30.44-1.44h-.02l29.69-1.87h-.03l28.69-2.38-.02.01 27.5-2.82-.02.01 13.25-1.57h-.01l12.81-1.62h-.01l12.37-1.75h-.01l11.94-1.81-.02.002 11.44-1.875-.01.003 10.94-1.938-.02.004 10.37-2-.02.005 9.81-2.125-.02.003 9.19-2.125-.02.007 8.56-2.188-.03.008 7.94-2.25-.04.012 7.12-2.312-.03.01 6.5-2.312-.3.158 3.98-2.943 1.36 1.841-4.11 3.046-6.68 2.375-7.16 2.324-7.97 2.26-8.59 2.194-9.21 2.13-9.83 2.129-10.4 2.004-10.95 1.941-11.45 1.882-11.95 1.81-12.39 1.75-12.83 1.63-13.26 1.56-27.52 2.82-28.71 2.37-29.71 1.88-30.45 1.44-30.96.87-31.14.32h.03l-7.82.25.09-.01-7.75.81.06-.01-7.81 1.25.08-.01-7.75 1.81.06-.02-7.81 2.32.06-.02-7.69 2.75.06-.03-7.75 3.25.06-.02-7.69 3.75.05-.03-7.69 4.19.04-.02-7.62 4.62.04-.03-7.56 5.07.04-.03-7.56 5.56.03-.03-7.5 5.94.04-.03-7.44 6.38.03-.03-7.38 6.75.03-.02-7.38 7.19.03-.03-7.25 7.56.02-.02-7.25 8 .02-.03-7.12 8.32.02-.03-7.06 8.75.02-.03-13.94 18.5.03-.04-13.56 19.87.03-.04-13.25 21.25.02-.04-12.81 22.44.02-.04-12.38 23.69.02-.03-11.94 24.75.02-.04-11.44 25.82.01-.03-10.93 26.81.01-.03-10.38 27.75.01-.03-9.81 28.62.01-.03-9.19 29.38.01-.03-8.56 30.12.01-.02-7.94 30.75.01-.04-7.13 31.38.01-.03-6.5 31.88v-.03l-5.68 32.37v-.03l-4.87 32.75v-.02l-4.06 33.06v-.03l-3.25 33.37v-.03l-2.31 33.5v-.03l-1.43 33.69v-.03l-.5 33.75Zm636.47-766.575L3849.5 964l-13.38 27.682Z"/></g></svg>