<svg xmlns="http://www.w3.org/2000/svg" xml:space="preserve" width="4016" height="2409" overflow="hidden"><defs><clipPath id="a"><path d="M191 58h4016v2409H191z"/></clipPath><clipPath id="b"><path d="M193 183h730v540H193z"/></clipPath><clipPath id="c"><path d="M922-48h366v1079H922z"/></clipPath><clipPath id="d"><path d="M922-48h366v1079H922z"/></clipPath><clipPath id="e"><path d="M1287-48h365v1079h-365z"/></clipPath><clipPath id="f"><path d="M1287-48h365v1079h-365z"/></clipPath><clipPath id="g"><path d="M1651-48h366v1079h-366z"/></clipPath><clipPath id="h"><path d="M1651-48h366v1079h-366z"/></clipPath><clipPath id="i"><path d="M2016 183h730v540h-730z"/></clipPath><clipPath id="j"><path d="M2745 183h730v540h-730z"/></clipPath><clipPath id="k"><path d="M3474 183h730v540h-730z"/></clipPath><clipPath id="l"><path d="M558 354h365v540H558z"/></clipPath><clipPath id="m"><path d="M922 354h366v540H922z"/></clipPath><clipPath id="n"><path d="M1287 354h365v540h-365z"/></clipPath><clipPath id="o"><path d="M1651 354h366v540h-366z"/></clipPath><clipPath id="p"><path d="M2016 354h365v540h-365z"/></clipPath><clipPath id="q"><path d="M2380 354h366v540h-366z"/></clipPath><clipPath id="r"><path d="M2745 354h365v540h-365z"/></clipPath><clipPath id="s"><path d="M3109 354h366v540h-366z"/></clipPath><clipPath id="t"><path d="M3474 354h365v540h-365z"/></clipPath><clipPath id="u"><path d="M3838 354h366v540h-366z"/></clipPath><clipPath id="v"><path d="M193 295h366v1079H193z"/></clipPath><clipPath id="w"><path d="M193 295h366v1079H193z"/></clipPath><clipPath id="x"><path d="M558 526h365v540H558z"/></clipPath><clipPath id="y"><path d="M922 526h366v540H922z"/></clipPath><clipPath id="z"><path d="M1287 526h365v540h-365z"/></clipPath><clipPath id="A"><path d="M1651 526h366v540h-366z"/></clipPath><clipPath id="B"><path d="M2016 526h365v540h-365z"/></clipPath><clipPath id="C"><path d="M2380 526h366v540h-366z"/></clipPath><clipPath id="D"><path d="M2745 526h365v540h-365z"/></clipPath><clipPath id="E"><path d="M3109 526h366v540h-366z"/></clipPath><clipPath id="F"><path d="M3474 526h365v540h-365z"/></clipPath><clipPath id="G"><path d="M3838 526h366v540h-366z"/></clipPath><clipPath id="H"><path d="M193 497h366v1079H193z"/></clipPath><clipPath id="I"><path d="M193 497h366v1079H193z"/></clipPath><clipPath id="J"><path d="M558 728h365v540H558z"/></clipPath><clipPath id="K"><path d="M922 728h366v540H922z"/></clipPath><clipPath id="L"><path d="M1287 728h365v540h-365z"/></clipPath><clipPath id="M"><path d="M1651 728h366v540h-366z"/></clipPath><clipPath id="N"><path d="M2016 728h365v540h-365z"/></clipPath><clipPath id="O"><path d="M2380 728h366v540h-366z"/></clipPath><clipPath id="P"><path d="M2745 728h365v540h-365z"/></clipPath><clipPath id="Q"><path d="M3109 728h366v540h-366z"/></clipPath><clipPath id="R"><path d="M3474 728h365v540h-365z"/></clipPath><clipPath id="S"><path d="M3838 728h366v540h-366z"/></clipPath><clipPath id="T"><path d="M193 668h366v1079H193z"/></clipPath><clipPath id="U"><path d="M193 668h366v1079H193z"/></clipPath><clipPath id="V"><path d="M558 899h365v540H558z"/></clipPath><clipPath id="W"><path d="M922 899h366v540H922z"/></clipPath><clipPath id="X"><path d="M1287 899h365v540h-365z"/></clipPath><clipPath id="Y"><path d="M1651 899h366v540h-366z"/></clipPath><clipPath id="Z"><path d="M2016 899h365v540h-365z"/></clipPath><clipPath id="aa"><path d="M2380 899h366v540h-366z"/></clipPath><clipPath id="ab"><path d="M2745 899h365v540h-365z"/></clipPath><clipPath id="ac"><path d="M3109 899h366v540h-366z"/></clipPath><clipPath id="ad"><path d="M3474 899h365v540h-365z"/></clipPath><clipPath id="ae"><path d="M3838 899h366v540h-366z"/></clipPath><clipPath id="af"><path d="M193 870h366v1079H193z"/></clipPath><clipPath id="ag"><path d="M193 870h366v1079H193z"/></clipPath><clipPath id="ah"><path d="M558 1101h365v540H558z"/></clipPath><clipPath id="ai"><path d="M922 1101h366v540H922z"/></clipPath><clipPath id="aj"><path d="M1287 1101h365v540h-365z"/></clipPath><clipPath id="ak"><path d="M1651 1101h366v540h-366z"/></clipPath><clipPath id="al"><path d="M2016 1101h365v540h-365z"/></clipPath><clipPath id="am"><path d="M2380 1101h366v540h-366z"/></clipPath><clipPath id="an"><path d="M2745 1101h365v540h-365z"/></clipPath><clipPath id="ao"><path d="M3109 1101h366v540h-366z"/></clipPath><clipPath id="ap"><path d="M3474 1101h365v540h-365z"/></clipPath><clipPath id="aq"><path d="M3838 1101h366v540h-366z"/></clipPath><clipPath id="ar"><path d="M193 841h366v1618H193z"/></clipPath><clipPath id="as"><path d="M193 841h366v1618H193z"/></clipPath><clipPath id="at"><path d="M193 841h366v1618H193z"/></clipPath><clipPath id="au"><path d="M558 1303h365v540H558z"/></clipPath><clipPath id="av"><path d="M922 1303h366v540H922z"/></clipPath><clipPath id="aw"><path d="M1287 1303h365v540h-365z"/></clipPath><clipPath id="ax"><path d="M1651 1303h366v540h-366z"/></clipPath><clipPath id="ay"><path d="M2016 1303h365v540h-365z"/></clipPath><clipPath id="az"><path d="M2380 1303h366v540h-366z"/></clipPath><clipPath id="aA"><path d="M2745 1303h365v540h-365z"/></clipPath><clipPath id="aB"><path d="M3109 1303h366v540h-366z"/></clipPath><clipPath id="aC"><path d="M3474 1303h365v540h-365z"/></clipPath><clipPath id="aD"><path d="M3838 1303h366v540h-366z"/></clipPath><clipPath id="aE"><path d="M193 859h366v2157H193z"/></clipPath><clipPath id="aF"><path d="M193 859h366v2157H193z"/></clipPath><clipPath id="aG"><path d="M193 859h366v2157H193z"/></clipPath><clipPath id="aH"><path d="M193 859h366v2157H193z"/></clipPath><clipPath id="aI"><path d="M558 1552h365v540H558z"/></clipPath><clipPath id="aJ"><path d="M922 1552h366v540H922z"/></clipPath><clipPath id="aK"><path d="M1287 1552h365v540h-365z"/></clipPath><clipPath id="aL"><path d="M1651 1552h366v540h-366z"/></clipPath><clipPath id="aM"><path d="M2016 1552h365v540h-365z"/></clipPath><clipPath id="aN"><path d="M2380 1552h366v540h-366z"/></clipPath><clipPath id="aO"><path d="M2745 1552h365v540h-365z"/></clipPath><clipPath id="aP"><path d="M3109 1552h366v540h-366z"/></clipPath><clipPath id="aQ"><path d="M3474 1552h365v540h-365z"/></clipPath><clipPath id="aR"><path d="M3838 1552h366v540h-366z"/></clipPath><clipPath id="aS"><path d="M193 1196h366v2157H193z"/></clipPath><clipPath id="aT"><path d="M193 1196h366v2157H193z"/></clipPath><clipPath id="aU"><path d="M193 1196h366v2157H193z"/></clipPath><clipPath id="aV"><path d="M193 1196h366v2157H193z"/></clipPath><clipPath id="aW"><path d="M558 1889h365v540H558z"/></clipPath><clipPath id="aX"><path d="M922 1889h366v540H922z"/></clipPath><clipPath id="aY"><path d="M1287 1889h365v540h-365z"/></clipPath><clipPath id="aZ"><path d="M1651 1889h366v540h-366z"/></clipPath><clipPath id="ba"><path d="M2016 1889h365v540h-365z"/></clipPath><clipPath id="bb"><path d="M2380 1889h366v540h-366z"/></clipPath><clipPath id="bc"><path d="M2745 1889h365v540h-365z"/></clipPath><clipPath id="bd"><path d="M3109 1889h366v540h-366z"/></clipPath><clipPath id="be"><path d="M3474 1889h365v540h-365z"/></clipPath><clipPath id="bf"><path d="M3838 1889h366v540h-366z"/></clipPath><clipPath id="bg"><path d="M2662 73h1542v540H2662z"/></clipPath></defs><g clip-path="url(#a)" transform="translate(-191 -58)"><path fill="#FFAB00" fill-rule="evenodd" d="M193.568 60.338h822.952v114.955H193.568Zm0 114.955h822.952v114.954H193.568Zm0 114.954h822.952v114.954H193.568Z"/><path fill="none" stroke="#C1C7D0" stroke-linejoin="round" stroke-miterlimit="10" stroke-width="3.438" d="M1016.52 58.62v348.3m822.95-348.3v348.3M191.849 175.293H2664.15M191.849 290.247H2664.15M193.568 58.62v348.3M2662.43 58.62v348.3M191.849 60.338H2664.15M191.849 405.201H2664.15"/><text font-family="Calibri,Calibri_MSFontService,sans-serif" font-size="50" font-weight="400" transform="translate(227.943 132)">Consumption</text><text font-family="Calibri,Calibri_MSFontService,sans-serif" font-size="50" font-weight="400" transform="translate(512.109 132)">Customer A</text><text font-family="Calibri,Calibri_MSFontService,sans-serif" font-size="50" font-weight="400" transform="translate(1050.9 132)">1000</text><text font-family="Calibri,Calibri_MSFontService,sans-serif" font-size="50" font-weight="400" transform="translate(1873.85 132)">33%</text><text font-family="Calibri,Calibri_MSFontService,sans-serif" font-size="50" font-weight="400" transform="translate(227.943 247)">Consumtpion Customer B</text><text font-family="Calibri,Calibri_MSFontService,sans-serif" font-size="50" font-weight="400" transform="translate(1050.9 247)">1000</text><text font-family="Calibri,Calibri_MSFontService,sans-serif" font-size="50" font-weight="400" transform="translate(1873.85 247)">33%</text><text font-family="Calibri,Calibri_MSFontService,sans-serif" font-size="50" font-weight="400" transform="translate(227.943 362)">Production Output Supplier</text><text font-family="Calibri,Calibri_MSFontService,sans-serif" font-size="50" font-weight="400" transform="translate(1050.9 362)">3000</text><text font-family="Calibri,Calibri_MSFontService,sans-serif" font-size="50" font-weight="400" transform="translate(1873.85 362)">100%</text><path fill="#FFAB00" fill-rule="evenodd" d="M193.568 405.202h729.078v171.599H193.568Zm729.078 0h364.534v171.599H922.646Zm364.534 0h364.54v171.599h-364.54Zm364.54 0h364.54v171.599h-364.54Zm364.54 0h729.08v171.599h-729.08Zm729.08 0h729.08v171.599h-729.08Zm729.08 0h729.08v171.599h-729.08ZM193.568 576.801h364.539V748.4H193.568Zm364.539 0h364.539V748.4H558.107Zm364.539 0h364.534V748.4H922.646Zm364.534 0h364.54V748.4h-364.54Zm364.54 0h364.54V748.4h-364.54Zm364.54 0h364.54V748.4h-364.54Zm364.54 0h364.54V748.4H2380.8Zm364.54 0h364.54V748.4h-364.54Zm364.54 0h364.54V748.4h-364.54Zm364.54 0h364.54V748.4h-364.54Zm364.54 0h364.54V748.4h-364.54ZM193.568 748.4h364.539v201.939H193.568Zm0 201.939h364.539v171.601H193.568Z"/><path fill="#F4F5F7" fill-rule="evenodd" d="M558.107 950.339h364.539v171.601H558.107Zm364.539 0h364.534v171.601H922.646Zm364.534 0h364.54v171.601h-364.54Zm364.54 0h364.54v171.601h-364.54Zm364.54 0h364.54v171.601h-364.54Zm364.54 0h364.54v171.601H2380.8Zm364.54 0h364.54v171.601h-364.54Zm364.54 0h364.54v171.601h-364.54Zm364.54 0h364.54v171.601h-364.54Zm364.54 0h364.54v171.601h-364.54Z"/><path fill="#FFAB00" fill-rule="evenodd" d="M193.568 1121.94h364.539v201.94H193.568Zm0 201.94h364.539v201.93H193.568Z"/><path fill="#F4F5F7" fill-rule="evenodd" d="M558.107 1323.88h364.539v201.93H558.107Zm364.539 0h364.534v201.93H922.646Zm364.534 0h364.54v201.93h-364.54Zm364.54 0h364.54v201.93h-364.54Zm364.54 0h364.54v201.93h-364.54Zm364.54 0h364.54v201.93H2380.8Zm364.54 0h364.54v201.93h-364.54Zm364.54 0h364.54v201.93h-364.54Zm364.54 0h364.54v201.93h-364.54Zm364.54 0h364.54v201.93h-364.54Z"/><path fill="#FFAB00" fill-rule="evenodd" d="M193.568 1525.81h364.539v248.6H193.568Zm0 248.6h364.539v336.98H193.568Z"/><path fill="#EAE6FF" fill-rule="evenodd" d="M558.107 1774.41h364.539v336.98H558.107Zm364.539 0h364.534v336.98H922.646Zm364.534 0h364.54v336.98h-364.54Zm364.54 0h364.54v336.98h-364.54Z"/><path fill="#F4F5F7" fill-rule="evenodd" d="M2016.26 1774.41h364.54v336.98h-364.54Z"/><path fill="#EAE6FF" fill-rule="evenodd" d="M2380.8 1774.41h364.54v336.98H2380.8Z"/><path fill="#F4F5F7" fill-rule="evenodd" d="M2745.34 1774.41h364.54v336.98h-364.54Z"/><path fill="#EAE6FF" fill-rule="evenodd" d="M3109.88 1774.41h364.54v336.98h-364.54Z"/><path fill="#F4F5F7" fill-rule="evenodd" d="M3474.42 1774.41h364.54v336.98h-364.54Z"/><path fill="#EAE6FF" fill-rule="evenodd" d="M3838.96 1774.41h364.54v336.98h-364.54Z"/><path fill="#FFAB00" fill-rule="evenodd" d="M193.568 2111.39h364.539v336.99H193.568Z"/><path fill="#EAE6FF" fill-rule="evenodd" d="M558.107 2111.39h364.539v336.99H558.107Zm364.539 0h364.534v336.99H922.646Zm364.534 0h364.54v336.99h-364.54Zm364.54 0h364.54v336.99h-364.54Zm729.08 0h364.54v336.99H2380.8Zm729.08 0h364.54v336.99h-364.54Zm729.08 0h364.54v336.99h-364.54Z"/><path fill="none" stroke="#C1C7D0" stroke-linejoin="round" stroke-miterlimit="10" stroke-width="3.438" d="M558.107 575.082V2450.09M922.646 403.483V2450.09M1287.18 403.483V2450.09m364.54-2046.607V2450.09m364.54-2046.607V2450.09M2380.8 575.082V2450.09m364.54-2046.607V2450.09m364.54-1875.008V2450.09m364.54-2046.607V2450.09m364.54-1875.008V2450.09M191.85 576.801h4013.36M191.85 748.4h4013.36M191.85 950.339h4013.36M191.85 1121.94h4013.36M191.85 1323.88h4013.36M191.85 1525.81h4013.36m-4013.36 248.6h4013.36M191.85 2111.39h4013.36M193.568 403.483V2450.09M4203.5 403.483V2450.09M191.85 405.202h4013.36M191.85 2448.38h4013.36"/><g clip-path="url(#b)"><text font-family="Calibri,Calibri_MSFontService,sans-serif" font-size="64" font-weight="400" transform="translate(206.139 475)">Situation</text></g><g clip-path="url(#c)"><text font-family="Calibri,Calibri_MSFontService,sans-serif" font-size="64" font-weight="400" transform="translate(935.217 475)">Prod</text></g><text font-family="Calibri,Calibri_MSFontService,sans-serif" font-size="64" font-weight="400" transform="translate(1071.69 475)">Sup</text><g clip-path="url(#d)"><text font-family="Calibri,Calibri_MSFontService,sans-serif" font-size="64" font-weight="400" transform="translate(935.217 552)">100%</text></g><g clip-path="url(#e)"><text font-family="Calibri,Calibri_MSFontService,sans-serif" font-size="64" font-weight="400" transform="translate(1299.76 475)">Prod Sup </text></g><g clip-path="url(#f)"><text font-family="Calibri,Calibri_MSFontService,sans-serif" font-size="64" font-weight="400" transform="translate(1299.76 552)">100%</text></g><g clip-path="url(#g)"><text font-family="Calibri,Calibri_MSFontService,sans-serif" font-size="64" font-weight="400" transform="translate(1664.29 475)">Prod Sup </text></g><g clip-path="url(#h)"><text font-family="Calibri,Calibri_MSFontService,sans-serif" font-size="64" font-weight="400" transform="translate(1664.29 552)">100%</text></g><g clip-path="url(#i)"><text font-family="Calibri,Calibri_MSFontService,sans-serif" font-size="64" font-weight="400" transform="translate(2028.83 475)">Shortage Sup prod 0%</text></g><g clip-path="url(#j)"><text font-family="Calibri,Calibri_MSFontService,sans-serif" font-size="64" font-weight="400" transform="translate(2757.91 475)">Shortage Sup prod 0%</text></g><g clip-path="url(#k)"><text font-family="Calibri,Calibri_MSFontService,sans-serif" font-size="64" font-weight="400" transform="translate(3486.99 475)">Prod Sup 100%</text></g><g clip-path="url(#l)"><text font-family="Calibri,Calibri_MSFontService,sans-serif" font-size="64" font-weight="400" transform="translate(570.678 647)">Day 1</text></g><g clip-path="url(#m)"><text font-family="Calibri,Calibri_MSFontService,sans-serif" font-size="64" font-weight="400" transform="translate(935.217 647)">Day 2</text></g><g clip-path="url(#n)"><text font-family="Calibri,Calibri_MSFontService,sans-serif" font-size="64" font-weight="400" transform="translate(1299.76 647)">Day 3</text></g><g clip-path="url(#o)"><text font-family="Calibri,Calibri_MSFontService,sans-serif" font-size="64" font-weight="400" transform="translate(1664.29 647)">Day 4</text></g><g clip-path="url(#p)"><text font-family="Calibri,Calibri_MSFontService,sans-serif" font-size="64" font-weight="700" transform="translate(2028.83 647)">Day 5 </text></g><text font-family="Calibri,Calibri_MSFontService,sans-serif" font-size="64" font-weight="700" transform="translate(2191.52 647)">-</text><text font-family="Calibri,Calibri_MSFontService,sans-serif" font-size="64" font-weight="700" transform="translate(2225.32 647)">Plan</text><g clip-path="url(#q)"><text font-family="Calibri,Calibri_MSFontService,sans-serif" font-size="64" font-weight="700" transform="translate(2393.37 647)">Day 5 </text></g><text font-family="Calibri,Calibri_MSFontService,sans-serif" font-size="64" font-weight="700" transform="translate(2556.06 647)">-</text><text font-family="Calibri,Calibri_MSFontService,sans-serif" font-size="64" font-weight="700" transform="translate(2589.86 647)">Is</text><g clip-path="url(#r)"><text font-family="Calibri,Calibri_MSFontService,sans-serif" font-size="64" font-weight="700" transform="translate(2757.91 647)">Day 6 </text></g><text font-family="Calibri,Calibri_MSFontService,sans-serif" font-size="64" font-weight="700" transform="translate(2920.6 647)">-</text><text font-family="Calibri,Calibri_MSFontService,sans-serif" font-size="64" font-weight="700" transform="translate(2954.4 647)">Plan</text><g clip-path="url(#s)"><text font-family="Calibri,Calibri_MSFontService,sans-serif" font-size="64" font-weight="700" transform="translate(3122.45 647)">Day 6 </text></g><text font-family="Calibri,Calibri_MSFontService,sans-serif" font-size="64" font-weight="700" transform="translate(3285.14 647)">-</text><text font-family="Calibri,Calibri_MSFontService,sans-serif" font-size="64" font-weight="700" transform="translate(3318.94 647)">Is</text><g clip-path="url(#t)"><text font-family="Calibri,Calibri_MSFontService,sans-serif" font-size="64" font-weight="400" transform="translate(3486.99 647)">Day 7 Plan</text></g><g clip-path="url(#u)"><text font-family="Calibri,Calibri_MSFontService,sans-serif" font-size="64" font-weight="400" transform="translate(3851.53 647)">Day 7 Is</text></g><g clip-path="url(#v)"><text font-family="Calibri,Calibri_MSFontService,sans-serif" font-size="64" font-weight="400" transform="translate(206.139 818)">Call off </text></g><g clip-path="url(#w)"><text font-family="Calibri,Calibri_MSFontService,sans-serif" font-size="64" font-weight="400" transform="translate(206.139 895)">Customer A</text></g><g clip-path="url(#x)"><text font-family="Calibri,Calibri_MSFontService,sans-serif" font-size="64" font-weight="400" transform="translate(570.678 818)">1000</text></g><g clip-path="url(#y)"><text font-family="Calibri,Calibri_MSFontService,sans-serif" font-size="64" font-weight="400" transform="translate(935.217 818)">1000</text></g><g clip-path="url(#z)"><text font-family="Calibri,Calibri_MSFontService,sans-serif" font-size="64" font-weight="400" transform="translate(1299.76 818)">1000</text></g><g clip-path="url(#A)"><text font-family="Calibri,Calibri_MSFontService,sans-serif" font-size="64" font-weight="400" transform="translate(1664.29 818)">1000</text></g><g clip-path="url(#B)"><text font-family="Calibri,Calibri_MSFontService,sans-serif" font-size="64" font-weight="400" transform="translate(2028.83 818)">1000</text></g><g clip-path="url(#C)"><text font-family="Calibri,Calibri_MSFontService,sans-serif" font-size="64" font-weight="400" transform="translate(2393.37 818)">1000</text></g><g clip-path="url(#D)"><text font-family="Calibri,Calibri_MSFontService,sans-serif" font-size="64" font-weight="400" transform="translate(2757.91 818)">1000</text></g><g clip-path="url(#E)"><text font-family="Calibri,Calibri_MSFontService,sans-serif" font-size="64" font-weight="400" transform="translate(3122.45 818)">1000</text></g><g clip-path="url(#F)"><text font-family="Calibri,Calibri_MSFontService,sans-serif" font-size="64" font-weight="400" transform="translate(3486.99 818)">1000</text></g><g clip-path="url(#G)"><text font-family="Calibri,Calibri_MSFontService,sans-serif" font-size="64" font-weight="400" transform="translate(3851.53 818)">1000</text></g><g clip-path="url(#H)"><text font-family="Calibri,Calibri_MSFontService,sans-serif" font-size="64" font-weight="400" transform="translate(206.139 1020)">Call of </text></g><g clip-path="url(#I)"><text font-family="Calibri,Calibri_MSFontService,sans-serif" font-size="64" font-weight="400" transform="translate(206.139 1097)">Customer B</text></g><g clip-path="url(#J)"><text font-family="Calibri,Calibri_MSFontService,sans-serif" font-size="64" font-weight="400" transform="translate(570.678 1020)">1000</text></g><g clip-path="url(#K)"><text font-family="Calibri,Calibri_MSFontService,sans-serif" font-size="64" font-weight="400" transform="translate(935.217 1020)">1000</text></g><g clip-path="url(#L)"><text font-family="Calibri,Calibri_MSFontService,sans-serif" font-size="64" font-weight="400" transform="translate(1299.76 1020)">1000</text></g><g clip-path="url(#M)"><text font-family="Calibri,Calibri_MSFontService,sans-serif" font-size="64" font-weight="400" transform="translate(1664.29 1020)">1000</text></g><g clip-path="url(#N)"><text font-family="Calibri,Calibri_MSFontService,sans-serif" font-size="64" font-weight="400" transform="translate(2028.83 1020)">1000</text></g><g clip-path="url(#O)"><text font-family="Calibri,Calibri_MSFontService,sans-serif" font-size="64" font-weight="400" transform="translate(2393.37 1020)">1000</text></g><g clip-path="url(#P)"><text font-family="Calibri,Calibri_MSFontService,sans-serif" font-size="64" font-weight="400" transform="translate(2757.91 1020)">1000</text></g><g clip-path="url(#Q)"><text font-family="Calibri,Calibri_MSFontService,sans-serif" font-size="64" font-weight="400" transform="translate(3122.45 1020)">1000</text></g><g clip-path="url(#R)"><text font-family="Calibri,Calibri_MSFontService,sans-serif" font-size="64" font-weight="400" transform="translate(3486.99 1020)">1000</text></g><g clip-path="url(#S)"><text font-family="Calibri,Calibri_MSFontService,sans-serif" font-size="64" font-weight="400" transform="translate(3851.53 1020)">1000</text></g><g clip-path="url(#T)"><text font-family="Calibri,Calibri_MSFontService,sans-serif" font-size="64" font-weight="400" transform="translate(206.139 1192)">Delivery to </text></g><g clip-path="url(#U)"><text font-family="Calibri,Calibri_MSFontService,sans-serif" font-size="64" font-weight="400" transform="translate(206.139 1269)">Customer A</text></g><g clip-path="url(#V)"><text font-family="Calibri,Calibri_MSFontService,sans-serif" font-size="64" font-weight="400" transform="translate(570.678 1192)">1000</text></g><g clip-path="url(#W)"><text font-family="Calibri,Calibri_MSFontService,sans-serif" font-size="64" font-weight="400" transform="translate(935.217 1192)">1000</text></g><g clip-path="url(#X)"><text font-family="Calibri,Calibri_MSFontService,sans-serif" font-size="64" font-weight="400" transform="translate(1299.76 1192)">1000</text></g><g clip-path="url(#Y)"><text font-family="Calibri,Calibri_MSFontService,sans-serif" font-size="64" font-weight="400" transform="translate(1664.29 1192)">1000</text></g><g clip-path="url(#Z)"><text font-family="Calibri,Calibri_MSFontService,sans-serif" font-size="64" font-weight="400" transform="translate(2028.83 1192)">1000</text></g><g clip-path="url(#aa)"><text font-family="Calibri,Calibri_MSFontService,sans-serif" font-size="64" font-weight="400" transform="translate(2393.37 1192)">1000</text></g><g clip-path="url(#ab)"><text font-family="Calibri,Calibri_MSFontService,sans-serif" font-size="64" font-weight="400" transform="translate(2757.91 1192)">1000</text></g><g clip-path="url(#ac)"><text font-family="Calibri,Calibri_MSFontService,sans-serif" font-size="64" font-weight="400" transform="translate(3122.45 1192)">1000</text></g><g clip-path="url(#ad)"><text font-family="Calibri,Calibri_MSFontService,sans-serif" font-size="64" font-weight="400" transform="translate(3486.99 1192)">1000</text></g><g clip-path="url(#ae)"><text font-family="Calibri,Calibri_MSFontService,sans-serif" font-size="64" font-weight="400" transform="translate(3851.53 1192)">1000</text></g><g clip-path="url(#af)"><text font-family="Calibri,Calibri_MSFontService,sans-serif" font-size="64" font-weight="400" transform="translate(206.139 1394)">Delivery to </text></g><g clip-path="url(#ag)"><text font-family="Calibri,Calibri_MSFontService,sans-serif" font-size="64" font-weight="400" transform="translate(206.139 1471)">Customer B</text></g><g clip-path="url(#ah)"><text font-family="Calibri,Calibri_MSFontService,sans-serif" font-size="64" font-weight="400" transform="translate(570.678 1394)">1000</text></g><g clip-path="url(#ai)"><text font-family="Calibri,Calibri_MSFontService,sans-serif" font-size="64" font-weight="400" transform="translate(935.217 1394)">1000</text></g><g clip-path="url(#aj)"><text font-family="Calibri,Calibri_MSFontService,sans-serif" font-size="64" font-weight="400" transform="translate(1299.76 1394)">1000</text></g><g clip-path="url(#ak)"><text font-family="Calibri,Calibri_MSFontService,sans-serif" font-size="64" font-weight="400" transform="translate(1664.29 1394)">1000</text></g><g clip-path="url(#al)"><text font-family="Calibri,Calibri_MSFontService,sans-serif" font-size="64" font-weight="400" transform="translate(2028.83 1394)">1000</text></g><g clip-path="url(#am)"><text font-family="Calibri,Calibri_MSFontService,sans-serif" font-size="64" font-weight="400" transform="translate(2393.37 1394)">1000</text></g><g clip-path="url(#an)"><text font-family="Calibri,Calibri_MSFontService,sans-serif" font-size="64" font-weight="400" transform="translate(2757.91 1394)">1000</text></g><g clip-path="url(#ao)"><text font-family="Calibri,Calibri_MSFontService,sans-serif" font-size="64" font-weight="400" transform="translate(3122.45 1394)">1000</text></g><g clip-path="url(#ap)"><text font-family="Calibri,Calibri_MSFontService,sans-serif" font-size="64" font-weight="400" transform="translate(3486.99 1394)">1000</text></g><g clip-path="url(#aq)"><text font-family="Calibri,Calibri_MSFontService,sans-serif" font-size="64" font-weight="400" transform="translate(3851.53 1394)">1000</text></g><g clip-path="url(#ar)"><text font-family="Calibri,Calibri_MSFontService,sans-serif" font-size="64" font-weight="400" transform="translate(206.139 1596)">Item Stock </text></g><g clip-path="url(#as)"><text font-family="Calibri,Calibri_MSFontService,sans-serif" font-size="64" font-weight="400" transform="translate(206.139 1673)">Supplier site </text></g><g clip-path="url(#at)"><text font-family="Calibri,Calibri_MSFontService,sans-serif" font-size="64" font-weight="400" transform="translate(206.139 1750)">TOTAL</text></g><g clip-path="url(#au)"><text font-family="Calibri,Calibri_MSFontService,sans-serif" font-size="64" font-weight="400" transform="translate(570.678 1596)">1000</text></g><g clip-path="url(#av)"><text font-family="Calibri,Calibri_MSFontService,sans-serif" font-size="64" font-weight="400" transform="translate(935.217 1596)">2000</text></g><g clip-path="url(#aw)"><text font-family="Calibri,Calibri_MSFontService,sans-serif" font-size="64" font-weight="400" transform="translate(1299.76 1596)">3000</text></g><g clip-path="url(#ax)"><text font-family="Calibri,Calibri_MSFontService,sans-serif" font-size="64" font-weight="400" transform="translate(1664.29 1596)">4000</text></g><g clip-path="url(#ay)"><text font-family="Calibri,Calibri_MSFontService,sans-serif" font-size="64" font-weight="400" transform="translate(2028.83 1596)">5000</text></g><g clip-path="url(#az)"><text font-family="Calibri,Calibri_MSFontService,sans-serif" font-size="64" font-weight="400" transform="translate(2393.37 1596)">2000</text></g><g clip-path="url(#aA)"><text font-family="Calibri,Calibri_MSFontService,sans-serif" font-size="64" font-weight="400" transform="translate(2757.91 1596)">3000</text></g><g clip-path="url(#aB)"><text font-family="Calibri,Calibri_MSFontService,sans-serif" font-size="64" font-weight="400" transform="translate(3122.45 1596)">0</text></g><g clip-path="url(#aC)"><text font-family="Calibri,Calibri_MSFontService,sans-serif" font-size="64" font-weight="400" transform="translate(3486.99 1596)">1000</text></g><g clip-path="url(#aD)"><text font-family="Calibri,Calibri_MSFontService,sans-serif" font-size="64" font-weight="400" transform="translate(3851.53 1596)">1000</text></g><g clip-path="url(#aE)"><text font-family="Calibri,Calibri_MSFontService,sans-serif" font-size="64" font-weight="400" transform="translate(206.139 1844)">Item Stock </text></g><g clip-path="url(#aF)"><text font-family="Calibri,Calibri_MSFontService,sans-serif" font-size="64" font-weight="400" transform="translate(206.139 1921)">Supplier site </text></g><g clip-path="url(#aG)"><text font-family="Calibri,Calibri_MSFontService,sans-serif" font-size="64" font-weight="400" transform="translate(206.139 1998)">for </text></g><g clip-path="url(#aH)"><text font-family="Calibri,Calibri_MSFontService,sans-serif" font-size="64" font-weight="400" transform="translate(206.139 2075)">Customer A</text></g><g clip-path="url(#aI)"><text font-family="Calibri,Calibri_MSFontService,sans-serif" font-size="64" font-weight="400" transform="translate(570.678 1844)">500</text></g><g clip-path="url(#aJ)"><text font-family="Calibri,Calibri_MSFontService,sans-serif" font-size="64" font-weight="400" transform="translate(935.217 1844)">1000</text></g><g clip-path="url(#aK)"><text font-family="Calibri,Calibri_MSFontService,sans-serif" font-size="64" font-weight="400" transform="translate(1299.76 1844)">1500</text></g><g clip-path="url(#aL)"><text font-family="Calibri,Calibri_MSFontService,sans-serif" font-size="64" font-weight="400" transform="translate(1664.29 1844)">2000</text></g><g clip-path="url(#aM)"><text font-family="Calibri,Calibri_MSFontService,sans-serif" font-size="64" font-weight="400" transform="translate(2028.83 1844)">2500</text></g><g clip-path="url(#aN)"><text font-family="Calibri,Calibri_MSFontService,sans-serif" font-size="64" font-weight="400" transform="translate(2393.37 1844)">1000</text></g><g clip-path="url(#aO)"><text font-family="Calibri,Calibri_MSFontService,sans-serif" font-size="64" font-weight="400" transform="translate(2757.91 1844)">1500</text></g><g clip-path="url(#aP)"><text font-family="Calibri,Calibri_MSFontService,sans-serif" font-size="64" font-weight="400" transform="translate(3122.45 1844)">0</text></g><g clip-path="url(#aQ)"><text font-family="Calibri,Calibri_MSFontService,sans-serif" font-size="64" font-weight="400" transform="translate(3486.99 1844)">500</text></g><g clip-path="url(#aR)"><text font-family="Calibri,Calibri_MSFontService,sans-serif" font-size="64" font-weight="400" transform="translate(3851.53 1844)">500</text></g><g clip-path="url(#aS)"><text font-family="Calibri,Calibri_MSFontService,sans-serif" font-size="64" font-weight="400" transform="translate(206.139 2181)">Item Stock </text></g><g clip-path="url(#aT)"><text font-family="Calibri,Calibri_MSFontService,sans-serif" font-size="64" font-weight="400" transform="translate(206.139 2258)">Supplier site </text></g><g clip-path="url(#aU)"><text font-family="Calibri,Calibri_MSFontService,sans-serif" font-size="64" font-weight="400" transform="translate(206.139 2335)">for </text></g><g clip-path="url(#aV)"><text font-family="Calibri,Calibri_MSFontService,sans-serif" font-size="64" font-weight="400" transform="translate(206.139 2412)">Customer B</text></g><g clip-path="url(#aW)"><text font-family="Calibri,Calibri_MSFontService,sans-serif" font-size="64" font-weight="400" transform="translate(570.678 2181)">500</text></g><g clip-path="url(#aX)"><text font-family="Calibri,Calibri_MSFontService,sans-serif" font-size="64" font-weight="400" transform="translate(935.217 2181)">1000</text></g><g clip-path="url(#aY)"><text font-family="Calibri,Calibri_MSFontService,sans-serif" font-size="64" font-weight="400" transform="translate(1299.76 2181)">1500</text></g><g clip-path="url(#aZ)"><text font-family="Calibri,Calibri_MSFontService,sans-serif" font-size="64" font-weight="400" transform="translate(1664.29 2181)">2000</text></g><g clip-path="url(#ba)"><text font-family="Calibri,Calibri_MSFontService,sans-serif" font-size="64" font-weight="400" transform="translate(2028.83 2181)">2500</text></g><g clip-path="url(#bb)"><text font-family="Calibri,Calibri_MSFontService,sans-serif" font-size="64" font-weight="400" transform="translate(2393.37 2181)">1000</text></g><g clip-path="url(#bc)"><text font-family="Calibri,Calibri_MSFontService,sans-serif" font-size="64" font-weight="400" transform="translate(2757.91 2181)">1500</text></g><g clip-path="url(#bd)"><text font-family="Calibri,Calibri_MSFontService,sans-serif" font-size="64" font-weight="400" transform="translate(3122.45 2181)">0</text></g><g clip-path="url(#be)"><text font-family="Calibri,Calibri_MSFontService,sans-serif" font-size="64" font-weight="400" transform="translate(3486.99 2181)">500</text></g><g clip-path="url(#bf)"><text font-family="Calibri,Calibri_MSFontService,sans-serif" font-size="64" font-weight="400" transform="translate(3851.53 2181)">500</text></g><path fill="#EAE6FF" fill-rule="evenodd" d="M2662.43 280.076H4203.5v125.125H2662.43Z"/><path fill="none" stroke="#C1C7D0" stroke-linejoin="round" stroke-miterlimit="10" stroke-width="3.438" d="M2662.43 278.358V406.92M4203.5 278.358V406.92M2660.71 280.076h1544.5m-1544.5 125.125h1544.5"/><g clip-path="url(#bg)"><text font-family="Calibri,Calibri_MSFontService,sans-serif" font-size="64" font-weight="700" transform="translate(2696.8 365)">Transferable information from item stock per day</text></g></g></svg>