<?xml version="1.0" encoding="UTF-8" standalone="no"?>
<!DOCTYPE svg PUBLIC "-//W3C//DTD SVG 1.1//EN" "http://www.w3.org/Graphics/SVG/1.1/DTD/svg11.dtd">
<!-- Generated by Microsoft Visio, SVG Export Connector-to-Connector_Encryption.svg Page-1 -->
<svg xmlns="http://www.w3.org/2000/svg" xmlns:xlink="http://www.w3.org/1999/xlink" xmlns:ev="http://www.w3.org/2001/xml-events"
		width="13.0025in" height="4.53798in" viewBox="0 0 936.183 326.734" xml:space="preserve" color-interpolation-filters="sRGB"
		class="st14">
	<style type="text/css">
	<![CDATA[
		.st1 {fill:#ffffff;stroke:none;stroke-linecap:round;stroke-linejoin:round;stroke-width:0.75}
		.st2 {fill:#d8d8d8;stroke:#000000;stroke-dasharray:5.25,3.75;stroke-linecap:round;stroke-linejoin:round;stroke-width:0.75}
		.st3 {fill:#000000;font-family:Calibri;font-size:1.00001em}
		.st4 {fill:#ffffff;stroke:#000000;stroke-linecap:round;stroke-linejoin:round;stroke-width:0.75}
		.st5 {font-size:1em}
		.st6 {fill:#ffffff;stroke:#000000;stroke-linecap:round;stroke-linejoin:round;stroke-width:0.24}
		.st7 {fill:#000000;font-family:Calibri;font-size:0.833336em}
		.st8 {fill:#d8d8d8;stroke:#000000;stroke-linecap:round;stroke-linejoin:round;stroke-width:0.75}
		.st9 {fill:#000000;font-family:Calibri;font-size:0.666664em}
		.st10 {fill:#000000;stroke:#000000;stroke-linecap:round;stroke-linejoin:round;stroke-width:0.25}
		.st11 {stroke:#000000;stroke-linecap:round;stroke-linejoin:round;stroke-width:0.75}
		.st12 {stroke:#000000;stroke-dasharray:0.75,1.5;stroke-linecap:round;stroke-linejoin:round;stroke-width:0.75}
		.st13 {fill:none;stroke:none;stroke-linecap:round;stroke-linejoin:round;stroke-width:0.75}
		.st14 {fill:none;fill-rule:evenodd;font-size:12px;overflow:visible;stroke-linecap:square;stroke-miterlimit:3}
	]]>
	</style>

	<g>
		<title>Page-1</title>
		<g id="shape1055-1" transform="translate(0.375,-0.375)">
			<title>Sheet.1055</title>
			<rect x="0" y="0.750005" width="935.433" height="325.984" class="st1"/>
		</g>
		<g id="shape1000-3" transform="translate(553.131,-28.1545)">
			<title>Sheet.1000</title>
			<desc>Data Consumer</desc>
			<path d="M0 326.73 L354.33 326.73 L354.33 170.83 L0 170.83 L0 326.73 Z" class="st2"/>
			<text x="139.47" y="185.63" class="st3">Data Consumer</text>		</g>
		<g id="shape1001-6" transform="translate(28.7215,-28.1545)">
			<title>Sheet.1001</title>
			<desc>Data Provider</desc>
			<path d="M0 326.73 L354.33 326.73 L354.33 170.83 L0 170.83 L0 326.73 Z" class="st2"/>
			<text x="143.69" y="185.63" class="st3">Data Provider</text>		</g>
		<g id="shape1002-9" transform="translate(283.84,-42.3278)">
			<title>Sheet.1002</title>
			<desc>Catena-X Connector</desc>
			<rect x="0" y="213.348" width="85.0394" height="113.386" class="st4"/>
			<text x="20.47" y="228.15" class="st3">Catena-X <tspan x="17.06" dy="1.2em" class="st5">Connector </tspan></text>		</g>
		<g id="shape1003-13" transform="translate(567.304,-42.3278)">
			<title>Sheet.1003</title>
			<desc>Catena-X Connector</desc>
			<rect x="0" y="213.348" width="85.0394" height="113.386" class="st4"/>
			<text x="20.47" y="228.15" class="st3">Catena-X <tspan x="17.06" dy="1.2em" class="st5">Connector</tspan></text>		</g>
		<g id="shape1004-17" transform="translate(567.304,-99.0207) scale(-1,1)">
			<title>Simple Arrow</title>
			<desc>HTTPS</desc>
			<path d="M0 326.73 L11.34 315.4 L11.34 321.06 L198.43 321.06 L198.43 326.73 L198.43 332.4 L11.34 332.4 L11.34 338.07
						 L0 326.73 Z" class="st6"/>
			<text x="-112.08" y="329.73" transform="scale(-1,1)" class="st7">HTTPS</text>		</g>
		<g id="shape1005-20" transform="translate(411.399,-198.233)">
			<title>Sheet.1005</title>
			<desc>TLS encrypted HTTP Request</desc>
			<rect x="0" y="227.522" width="113.386" height="99.2126" class="st8"/>
			<text x="10.27" y="238.72" class="st9">TLS encrypted HTTP Request</text>		</g>
		<g id="group1006-23" transform="translate(453.918,-237.023)">
			<title>Document.16</title>
			<desc>Plaintext Secret (HTTP payload)</desc>
			<g id="shape1007-24">
				<title>Sheet.1007</title>
				<path d="M2.74 324.05 L2.74 293.61 L14.17 293.61 L14.17 303.01 L25.6 303.01 L25.6 324.05 L2.74 324.05 ZM16.92 294.73
							 L22.63 300.33 L16.92 300.33 L16.92 294.73 ZM16.92 290.93 L0 290.93 L0 326.73 L28.35 326.73 L28.35 300.77
							 L16.92 290.93 Z" class="st10"/>
			</g>
			<g id="shape1008-26" transform="translate(5.48641,-17.4555)">
				<title>Sheet.1008</title>
				<rect x="0" y="324.944" width="17.3736" height="1.7903" class="st10"/>
			</g>
			<g id="shape1009-28" transform="translate(5.48641,-21.0361)">
				<title>Sheet.1009</title>
				<rect x="0" y="324.944" width="5.94361" height="1.7903" class="st10"/>
			</g>
			<g id="shape1010-30" transform="translate(5.48641,-13.8748)">
				<title>Sheet.1010</title>
				<rect x="0" y="324.944" width="17.3736" height="1.7903" class="st10"/>
			</g>
			<g id="shape1011-32" transform="translate(5.48641,-10.2942)">
				<title>Sheet.1011</title>
				<rect x="0" y="324.944" width="17.3736" height="1.7903" class="st10"/>
			</g>
			<g id="shape1012-34" transform="translate(5.48641,-6.71363)">
				<title>Sheet.1012</title>
				<rect x="0" y="324.944" width="17.3736" height="1.7903" class="st10"/>
			</g>
			<g id="shape1006-36">
				<text x="-11.57" y="338.27" class="st9">Plaintext Secret <tspan x="-10.76" dy="1.875em" class="st5">(HTTP payload)</tspan></text>			</g>
		</g>
		<g id="shape1013-39" transform="translate(411.399,-283.273)">
			<title>Sheet.1013</title>
			<path d="M0 326.73 L113.39 326.73" class="st11"/>
		</g>
		<g id="shape1014-42" transform="translate(461.005,-198.233)">
			<title>Dynamic connector.74</title>
			<path d="M7.09 326.73 L7.09 420.28" class="st12"/>
		</g>
		<g id="group1015-45" transform="translate(595.651,-81.1176)">
			<title>Document.75</title>
			<desc>Plaintext Secret</desc>
			<g id="shape1016-46">
				<title>Sheet.1016</title>
				<path d="M2.74 324.05 L2.74 293.61 L14.17 293.61 L14.17 303.01 L25.6 303.01 L25.6 324.05 L2.74 324.05 ZM16.92 294.73
							 L22.63 300.33 L16.92 300.33 L16.92 294.73 ZM16.92 290.93 L0 290.93 L0 326.73 L28.35 326.73 L28.35 300.77
							 L16.92 290.93 Z" class="st10"/>
			</g>
			<g id="shape1017-48" transform="translate(5.48641,-17.4555)">
				<title>Sheet.1017</title>
				<rect x="0" y="324.944" width="17.3736" height="1.7903" class="st10"/>
			</g>
			<g id="shape1018-50" transform="translate(5.48641,-21.0361)">
				<title>Sheet.1018</title>
				<rect x="0" y="324.944" width="5.94361" height="1.7903" class="st10"/>
			</g>
			<g id="shape1019-52" transform="translate(5.48641,-13.8748)">
				<title>Sheet.1019</title>
				<rect x="0" y="324.944" width="17.3736" height="1.7903" class="st10"/>
			</g>
			<g id="shape1020-54" transform="translate(5.48641,-10.2942)">
				<title>Sheet.1020</title>
				<rect x="0" y="324.944" width="17.3736" height="1.7903" class="st10"/>
			</g>
			<g id="shape1021-56" transform="translate(5.48641,-6.71363)">
				<title>Sheet.1021</title>
				<rect x="0" y="324.944" width="17.3736" height="1.7903" class="st10"/>
			</g>
			<g id="shape1015-58">
				<text x="-11.3" y="339.34" class="st9">Plaintext Secret</text>			</g>
		</g>
		<g id="group1022-60" transform="translate(312.186,-81.1176)">
			<title>Document.82</title>
			<desc>Plaintext Secret</desc>
			<g id="shape1023-61">
				<title>Sheet.1023</title>
				<path d="M2.74 324.05 L2.74 293.61 L14.17 293.61 L14.17 303.01 L25.6 303.01 L25.6 324.05 L2.74 324.05 ZM16.92 294.73
							 L22.63 300.33 L16.92 300.33 L16.92 294.73 ZM16.92 290.93 L0 290.93 L0 326.73 L28.35 326.73 L28.35 300.77
							 L16.92 290.93 Z" class="st10"/>
			</g>
			<g id="shape1024-63" transform="translate(5.48641,-17.4555)">
				<title>Sheet.1024</title>
				<rect x="0" y="324.944" width="17.3736" height="1.7903" class="st10"/>
			</g>
			<g id="shape1025-65" transform="translate(5.48641,-21.0361)">
				<title>Sheet.1025</title>
				<rect x="0" y="324.944" width="5.94361" height="1.7903" class="st10"/>
			</g>
			<g id="shape1026-67" transform="translate(5.48641,-13.8748)">
				<title>Sheet.1026</title>
				<rect x="0" y="324.944" width="17.3736" height="1.7903" class="st10"/>
			</g>
			<g id="shape1027-69" transform="translate(5.48641,-10.2942)">
				<title>Sheet.1027</title>
				<rect x="0" y="324.944" width="17.3736" height="1.7903" class="st10"/>
			</g>
			<g id="shape1028-71" transform="translate(5.48641,-6.71363)">
				<title>Sheet.1028</title>
				<rect x="0" y="324.944" width="17.3736" height="1.7903" class="st10"/>
			</g>
			<g id="shape1022-73">
				<text x="-11.3" y="339.34" class="st9">Plaintext Secret</text>			</g>
		</g>
		<g id="shape1029-75" transform="translate(694.863,-99.0207) scale(-1,1)">
			<title>Simple Arrow.91</title>
			<path d="M0 326.73 L11.34 315.4 L11.34 321.06 L42.52 321.06 L42.52 326.73 L42.52 332.4 L11.34 332.4 L11.34 338.07 L0
						 326.73 Z" class="st6"/>
		</g>
		<g id="group1030-77" transform="translate(170.454,-63.5876)">
			<title>Cloud.92</title>
			<g id="shape1031-78" transform="translate(0,-15.1187)">
				<title>Sheet.1031</title>
				<path d="M61.14 297.17 C60.76 293.83 57.72 291.21 53.98 291.21 C52.91 291.21 51.91 291.43 51.01 291.8 C49.25 288.52
							 45.6 286.11 38.77 286.3 C29.89 286.55 19.38 290.55 17.26 297.64 C14.73 298.12 13.1 299.5 12.13 301.32
							 C11.74 301.28 11.34 301.26 10.93 301.26 C5.08 301.26 0.59 305.53 0.33 310.78 C0 317.58 5.08 320.3 10.93
							 320.3 C11.76 320.3 12.57 320.21 13.35 320.04 C14.57 320.83 16.15 321.32 17.89 321.32 C19.49 321.32 20.97
							 320.9 22.14 320.21 C24.39 324.04 29.02 326.73 34.36 326.42 C39.97 326.09 43.34 324.9 45.33 323.05 C45.46
							 323.03 45.57 323.03 45.7 323.02 C51.98 322.21 54.74 320.59 55.63 317.91 C55.79 317.91 55.96 317.92 56.13
							 317.92 C64.27 317.92 70.87 315.54 70.87 307.21 C70.87 302.58 66.8 298.67 61.14 297.17 Z" class="st4"/>
			</g>
		</g>
		<g id="shape1032-80" transform="translate(42.8947,-42.3278)">
			<title>Sheet.1032</title>
			<desc>Source System</desc>
			<rect x="0" y="213.348" width="85.0394" height="113.386" class="st4"/>
			<text x="6.87" y="228.15" class="st3">Source System</text>		</g>
		<g id="group1033-83" transform="translate(71.2412,-81.1176)">
			<title>Document.96</title>
			<desc>Plaintext Secret</desc>
			<g id="shape1034-84">
				<title>Sheet.1034</title>
				<path d="M2.74 324.05 L2.74 293.61 L14.17 293.61 L14.17 303.01 L25.6 303.01 L25.6 324.05 L2.74 324.05 ZM16.92 294.73
							 L22.63 300.33 L16.92 300.33 L16.92 294.73 ZM16.92 290.93 L0 290.93 L0 326.73 L28.35 326.73 L28.35 300.77
							 L16.92 290.93 Z" class="st10"/>
			</g>
			<g id="shape1035-86" transform="translate(5.48641,-17.4555)">
				<title>Sheet.1035</title>
				<rect x="0" y="324.944" width="17.3736" height="1.7903" class="st10"/>
			</g>
			<g id="shape1036-88" transform="translate(5.48641,-21.0361)">
				<title>Sheet.1036</title>
				<rect x="0" y="324.944" width="5.94361" height="1.7903" class="st10"/>
			</g>
			<g id="shape1037-90" transform="translate(5.48641,-13.8748)">
				<title>Sheet.1037</title>
				<rect x="0" y="324.944" width="17.3736" height="1.7903" class="st10"/>
			</g>
			<g id="shape1038-92" transform="translate(5.48641,-10.2942)">
				<title>Sheet.1038</title>
				<rect x="0" y="324.944" width="17.3736" height="1.7903" class="st10"/>
			</g>
			<g id="shape1039-94" transform="translate(5.48641,-6.71363)">
				<title>Sheet.1039</title>
				<rect x="0" y="324.944" width="17.3736" height="1.7903" class="st10"/>
			</g>
			<g id="shape1033-96">
				<text x="-11.3" y="339.34" class="st9">Plaintext Secret</text>			</g>
		</g>
		<g id="shape1040-98" transform="translate(170.454,-99.0207) scale(-1,1)">
			<title>Simple Arrow.103</title>
			<path d="M0 326.73 L11.34 315.4 L11.34 321.06 L42.52 321.06 L42.52 326.73 L42.52 332.4 L11.34 332.4 L11.34 338.07 L0
						 326.73 Z" class="st6"/>
		</g>
		<g id="shape1041-100" transform="translate(283.84,-99.0207) scale(-1,1)">
			<title>Simple Arrow.104</title>
			<path d="M0 326.73 L11.34 315.4 L11.34 321.06 L42.52 321.06 L42.52 326.73 L42.52 332.4 L11.34 332.4 L11.34 338.07 L0
						 326.73 Z" class="st6"/>
		</g>
		<g id="group1042-102" transform="translate(694.863,-63.5876)">
			<title>Cloud.105</title>
			<g id="shape1043-103" transform="translate(0,-15.1187)">
				<title>Sheet.1043</title>
				<path d="M61.14 297.17 C60.76 293.83 57.72 291.21 53.98 291.21 C52.91 291.21 51.91 291.43 51.01 291.8 C49.25 288.52
							 45.6 286.11 38.77 286.3 C29.89 286.55 19.38 290.55 17.26 297.64 C14.73 298.12 13.1 299.5 12.13 301.32
							 C11.74 301.28 11.34 301.26 10.93 301.26 C5.08 301.26 0.59 305.53 0.33 310.78 C0 317.58 5.08 320.3 10.93
							 320.3 C11.76 320.3 12.57 320.21 13.35 320.04 C14.57 320.83 16.15 321.32 17.89 321.32 C19.49 321.32 20.97
							 320.9 22.14 320.21 C24.39 324.04 29.02 326.73 34.36 326.42 C39.97 326.09 43.34 324.9 45.33 323.05 C45.46
							 323.03 45.57 323.03 45.7 323.02 C51.98 322.21 54.74 320.59 55.63 317.91 C55.79 317.91 55.96 317.92 56.13
							 317.92 C64.27 317.92 70.87 315.54 70.87 307.21 C70.87 302.58 66.8 298.67 61.14 297.17 Z" class="st4"/>
			</g>
		</g>
		<g id="shape1044-105" transform="translate(808.249,-42.3278)">
			<title>Sheet.1044</title>
			<desc>Destination System</desc>
			<rect x="0" y="213.348" width="85.0394" height="113.386" class="st4"/>
			<text x="14.38" y="228.15" class="st3">Destination <tspan x="24.91" dy="1.2em" class="st5">System</tspan></text>		</g>
		<g id="group1045-109" transform="translate(836.596,-81.1176)">
			<title>Document.108</title>
			<desc>Plaintext Secret</desc>
			<g id="shape1046-110">
				<title>Sheet.1046</title>
				<path d="M2.74 324.05 L2.74 293.61 L14.17 293.61 L14.17 303.01 L25.6 303.01 L25.6 324.05 L2.74 324.05 ZM16.92 294.73
							 L22.63 300.33 L16.92 300.33 L16.92 294.73 ZM16.92 290.93 L0 290.93 L0 326.73 L28.35 326.73 L28.35 300.77
							 L16.92 290.93 Z" class="st10"/>
			</g>
			<g id="shape1047-112" transform="translate(5.48641,-17.4555)">
				<title>Sheet.1047</title>
				<rect x="0" y="324.944" width="17.3736" height="1.7903" class="st10"/>
			</g>
			<g id="shape1048-114" transform="translate(5.48641,-21.0361)">
				<title>Sheet.1048</title>
				<rect x="0" y="324.944" width="5.94361" height="1.7903" class="st10"/>
			</g>
			<g id="shape1049-116" transform="translate(5.48641,-13.8748)">
				<title>Sheet.1049</title>
				<rect x="0" y="324.944" width="17.3736" height="1.7903" class="st10"/>
			</g>
			<g id="shape1050-118" transform="translate(5.48641,-10.2942)">
				<title>Sheet.1050</title>
				<rect x="0" y="324.944" width="17.3736" height="1.7903" class="st10"/>
			</g>
			<g id="shape1051-120" transform="translate(5.48641,-6.71363)">
				<title>Sheet.1051</title>
				<rect x="0" y="324.944" width="17.3736" height="1.7903" class="st10"/>
			</g>
			<g id="shape1045-122">
				<text x="-11.3" y="339.34" class="st9">Plaintext Secret</text>			</g>
		</g>
		<g id="shape1052-124" transform="translate(808.249,-99.0207) rotate(2.40319E-06) scale(-1,1)">
			<title>Simple Arrow.115</title>
			<path d="M0 326.73 L11.34 315.4 L11.34 321.06 L42.52 321.06 L42.52 326.73 L42.52 332.4 L11.34 332.4 L11.34 338.07 L0
						 326.73 Z" class="st6"/>
		</g>
		<g id="shape1053-126" transform="translate(129.887,-56.501)">
			<title>Sheet.1053</title>
			<desc>Intermediate Systems</desc>
			<rect x="0" y="306.734" width="152" height="20" class="st13"/>
			<text x="31.63" y="319.73" class="st7">Intermediate Systems</text>		</g>
		<g id="shape1054-129" transform="translate(654.296,-56.501)">
			<title>Sheet.1054</title>
			<desc>Intermediate Systems</desc>
			<rect x="0" y="306.734" width="152" height="20" class="st13"/>
			<text x="31.63" y="319.73" class="st7">Intermediate Systems</text>		</g>
	</g>
</svg>
