<svg xmlns="http://www.w3.org/2000/svg" width="1083" height="512" preserveAspectRatio="none" style="width:1083px;height:512px;background:#fff"><rect width="337" height="55.219" x="525.5" y="104" fill="#F1F1F1" rx="12.5" ry="12.5" style="stroke:#181818;stroke-width:.5"/><path d="M525.5 131.609h337" style="stroke:#181818;stroke-width:.5"/><text x="664.5" y="123.533" font-family="sans-serif" font-size="14" textLength="59">Received</text><text x="530.5" y="151.143" font-family="sans-serif" font-size="14" textLength="317">The provider accepted the request for processing.</text><rect width="448" height="55.219" x="323" y="237" fill="#F1F1F1" rx="12.5" ry="12.5" style="stroke:#181818;stroke-width:.5"/><path d="M323 264.609h448" style="stroke:#181818;stroke-width:.5"/><text x="521" y="256.533" font-family="sans-serif" font-size="14" textLength="52">Working</text><text x="328" y="284.143" font-family="sans-serif" font-size="14" textLength="428">The provider is processing the request and preparing the response.</text><rect width="494" height="55.219" x="7" y="370" fill="#F1F1F1" rx="12.5" ry="12.5" style="stroke:#181818;stroke-width:.5"/><path d="M7 397.609h494" style="stroke:#181818;stroke-width:.5"/><text x="220" y="389.533" font-family="sans-serif" font-size="14" textLength="68">Completed</text><text x="12" y="417.143" font-family="sans-serif" font-size="14" textLength="474">The provider was able to successfully process AND respond to the request.</text><rect width="423" height="55.219" x="536.5" y="370" fill="#F1F1F1" rx="12.5" ry="12.5" style="stroke:#181818;stroke-width:.5"/><path d="M536.5 397.609h423" style="stroke:#181818;stroke-width:.5"/><text x="732" y="389.533" font-family="sans-serif" font-size="14" textLength="32">Error</text><text x="541.5" y="417.143" font-family="sans-serif" font-size="14" textLength="403">The provider was unable to process OR respond to the request.</text><circle cx="694" cy="16" r="10" fill="#222" style="stroke:none;stroke-width:1"/><circle cx="500" cy="496" r="10" fill="none" style="stroke:#222;stroke-width:1"/><circle cx="500.5" cy="496.5" r="6" fill="#222" style="stroke:none;stroke-width:1"/><path fill="none" d="M694 26.29v72.34" style="stroke:#181818;stroke-width:1"/><path fill="#181818" d="m694 103.73 4-9-4 4-4-4z" style="stroke:#181818;stroke-width:1"/><text x="695" y="70.495" font-family="sans-serif" font-size="13" textLength="285">Consumer requested short-term Material Demand</text><path fill="none" d="M628.73 159.1c-14.88 8.1-29.81 18.06-41.73 29.9-12.17 12.08-21.56 28.65-28.17 43.09" style="stroke:#181818;stroke-width:1"/><path fill="#181818" d="m556.69 236.9 7.307-6.604-5.279 2.034-2.034-5.279z" style="stroke:#181818;stroke-width:1"/><text x="588" y="203.495" font-family="sans-serif" font-size="13" textLength="226">Provider started processing the request</text><path fill="none" d="M786.45 159.11c12.9 7.62 24.48 17.38 32.55 29.89 36.39 56.39 29.15 90.55 0 151-4.82 10-12.37 18.77-20.78 26.24" style="stroke:#181818;stroke-width:1"/><path fill="#181818" d="m794.04 369.8 9.448-2.782-5.639-.457.457-5.638z" style="stroke:#181818;stroke-width:1"/><text x="845" y="269.995" font-family="sans-serif" font-size="13" textLength="230">Provider could NOT process the request</text><path fill="none" d="M340.3 292.07c-32.25 7.77-58.99 17.6-71.3 29.93-10.96 10.98-15.01 27.58-16.2 42.33" style="stroke:#181818;stroke-width:1"/><path fill="#181818" d="m252.49 369.67 4.507-8.757-4.222 3.765-3.765-4.221z" style="stroke:#181818;stroke-width:1"/><text x="270" y="336.495" font-family="sans-serif" font-size="13" textLength="289">Provider processed AND responded to the request</text><path fill="none" d="M553.78 292.15c5.3 15.86 14.16 35.27 28.22 47.85 12.65 11.31 27.65 20.38 43.39 27.64" style="stroke:#181818;stroke-width:1"/><path fill="#181818" d="m630.3 369.83-6.585-7.324 2.02 5.284-5.284 2.02z" style="stroke:#181818;stroke-width:1"/><text x="583" y="336.495" font-family="sans-serif" font-size="13" textLength="231">Error occured during request processing</text><path fill="none" d="M321.87 425.12c56.73 22.26 133.2 52.25 164.2 64.42" style="stroke:#181818;stroke-width:1"/><path fill="#181818" d="m490.99 491.46-6.916-7.013 2.262 5.186-5.185 2.261z" style="stroke:#181818;stroke-width:1"/><path fill="none" d="M679.58 425.12c-57.2 22.26-134.28 52.25-165.54 64.42" style="stroke:#181818;stroke-width:1"/><path fill="#181818" d="m509.09 491.46 9.838.46-5.18-2.275 2.276-5.18z" style="stroke:#181818;stroke-width:1"/></svg>