<svg xmlns="http://www.w3.org/2000/svg" xml:space="preserve" width="2651" height="1226" overflow="hidden"><defs><clipPath id="a"><path d="M372 381h2651v1226H372z"/></clipPath><clipPath id="b"><path d="M374 127h1553v694H374z"/></clipPath><clipPath id="c"><path d="M1926 127h274v694h-274z"/></clipPath><clipPath id="d"><path d="M2199 127h274v694h-274z"/></clipPath><clipPath id="e"><path d="M2472 127h273v694h-273z"/></clipPath><clipPath id="f"><path d="M2744 127h274v694h-274z"/></clipPath><clipPath id="g"><path d="M374 309h1553v694H374z"/></clipPath><clipPath id="h"><path d="M374 491h1553v694H374z"/></clipPath><clipPath id="i"><path d="M374 673h1553v694H374z"/></clipPath><clipPath id="j"><path d="M374 855h1553v694H374z"/></clipPath><clipPath id="k"><path d="M374 1037h1553v694H374z"/></clipPath></defs><g clip-path="url(#a)" transform="translate(-372 -381)"><path fill="#F4F2F3" fill-rule="evenodd" d="M374.956 383.502H1926.47v181.89H374.956Zm1551.514 0h272.83v181.89h-272.83Zm272.83 0h272.83v181.89H2199.3Zm272.83 0h272.84v181.89h-272.84Zm272.84 0h272.83v181.89h-272.83Z"/><path fill="#FFA602" fill-rule="evenodd" d="M374.956 929.171H1926.47v181.889H374.956Zm1551.514 0h272.83v181.889h-272.83Zm272.83 0h272.83v181.889H2199.3Zm272.83 0h272.84v181.889h-272.84Zm272.84 0h272.83v181.889h-272.83ZM374.956 1111.06H1926.47v181.89H374.956Zm1551.514 0h272.83v181.89h-272.83Zm272.83 0h272.83v181.89H2199.3Zm272.83 0h272.84v181.89h-272.84Zm272.84 0h272.83v181.89h-272.83Z"/><path fill="none" stroke="#000" stroke-linejoin="round" stroke-miterlimit="10" stroke-width="4.583" d="M1926.47 381.21v1095.92M2199.3 381.21v1095.92m272.83-1095.92v1095.92m272.84-1095.92v1095.92M372.665 565.392H3020.1M372.665 747.281H3020.1M372.665 929.171H3020.1M372.665 1111.06H3020.1M372.665 1292.95H3020.1M374.956 381.21v1095.92M3017.8 381.21v1095.92M372.665 383.502H3020.1M372.665 1474.84H3020.1"/><g clip-path="url(#b)"><text font-family="Calibri,Calibri_MSFontService,sans-serif" font-size="83" font-weight="700" transform="translate(407.672 502)">Customer Information</text></g><g clip-path="url(#c)"><text font-family="Calibri,Calibri_MSFontService,sans-serif" font-size="83" font-weight="700" transform="translate(1959.18 502)">Day 1</text></g><g clip-path="url(#d)"><text font-family="Calibri,Calibri_MSFontService,sans-serif" font-size="83" font-weight="700" transform="translate(2232.02 502)">Day 2</text></g><g clip-path="url(#e)"><text font-family="Calibri,Calibri_MSFontService,sans-serif" font-size="83" font-weight="700" transform="translate(2504.85 502)">Day 3</text></g><g clip-path="url(#f)"><text font-family="Calibri,Calibri_MSFontService,sans-serif" font-size="83" font-weight="700" transform="translate(2777.69 502)">Day 4</text></g><g clip-path="url(#g)"><text font-family="Calibri,Calibri_MSFontService,sans-serif" font-size="83" font-weight="400" transform="translate(407.672 684)">Consumption in production</text></g><text font-family="Calibri,Calibri_MSFontService,sans-serif" font-size="83" font-weight="400" transform="translate(2021.06 684)">80</text><text font-family="Calibri,Calibri_MSFontService,sans-serif" font-size="83" font-weight="400" transform="translate(2293.89 684)">80</text><text font-family="Calibri,Calibri_MSFontService,sans-serif" font-size="83" font-weight="400" transform="translate(2545.82 684)">100</text><text font-family="Calibri,Calibri_MSFontService,sans-serif" font-size="83" font-weight="400" transform="translate(2818.65 684)">100</text><g clip-path="url(#h)"><text font-family="Calibri,Calibri_MSFontService,sans-serif" font-size="83" font-weight="400" transform="translate(407.672 866)">Call</text></g><text font-family="Calibri,Calibri_MSFontService,sans-serif" font-size="83" font-weight="400" transform="translate(529.131 866)">-</text><text font-family="Calibri,Calibri_MSFontService,sans-serif" font-size="83" font-weight="400" transform="translate(554.339 866)">off / </text><text font-family="Calibri,Calibri_MSFontService,sans-serif" font-size="83" font-weight="400" transform="translate(717.391 866)">order</text><text font-family="Calibri,Calibri_MSFontService,sans-serif" font-size="83" font-weight="400" transform="translate(920.799 866)">amount</text><text font-family="Calibri,Calibri_MSFontService,sans-serif" font-size="83" font-weight="400" transform="translate(2021.06 866)">90</text><text font-family="Calibri,Calibri_MSFontService,sans-serif" font-size="83" font-weight="400" transform="translate(2293.89 866)">75</text><text font-family="Calibri,Calibri_MSFontService,sans-serif" font-size="83" font-weight="400" transform="translate(2545.82 866)">105</text><text font-family="Calibri,Calibri_MSFontService,sans-serif" font-size="83" font-weight="400" transform="translate(2818.65 866)">105</text><g clip-path="url(#i)"><text font-family="Calibri,Calibri_MSFontService,sans-serif" font-size="83" font-weight="700" transform="translate(407.672 1048)">Demand </text></g><text font-family="Calibri,Calibri_MSFontService,sans-serif" font-size="83" font-weight="700" transform="translate(715.901 1048)">category</text><text font-family="Calibri,Calibri_MSFontService,sans-serif" font-size="83" font-weight="700" transform="translate(1028.32 1048)">= Series / Default</text><text font-family="Calibri,Calibri_MSFontService,sans-serif" font-size="83" font-weight="700" transform="translate(2021.06 1048)">80</text><text font-family="Calibri,Calibri_MSFontService,sans-serif" font-size="83" font-weight="700" transform="translate(2293.89 1048)">80</text><text font-family="Calibri,Calibri_MSFontService,sans-serif" font-size="83" font-weight="700" transform="translate(2545.82 1048)">100</text><text font-family="Calibri,Calibri_MSFontService,sans-serif" font-size="83" font-weight="700" transform="translate(2818.65 1048)">100</text><g clip-path="url(#j)"><text font-family="Calibri,Calibri_MSFontService,sans-serif" font-size="83" font-weight="700" transform="translate(407.672 1230)">Demand </text></g><text font-family="Calibri,Calibri_MSFontService,sans-serif" font-size="83" font-weight="700" transform="translate(715.901 1230)">category</text><text font-family="Calibri,Calibri_MSFontService,sans-serif" font-size="83" font-weight="700" transform="translate(1028.32 1230)">= </text><text font-family="Calibri,Calibri_MSFontService,sans-serif" font-size="83" font-weight="700" transform="translate(1088.48 1230)">Extraordinary</text><text font-family="Calibri,Calibri_MSFontService,sans-serif" font-size="83" font-weight="700" transform="translate(1571.86 1230)">Demand</text><text font-family="Calibri,Calibri_MSFontService,sans-serif" font-size="83" font-weight="700" transform="translate(2021.06 1230)">10</text><text font-family="Calibri,Calibri_MSFontService,sans-serif" font-size="83" font-weight="700" transform="translate(2314.81 1230)">0</text><text font-family="Calibri,Calibri_MSFontService,sans-serif" font-size="83" font-weight="700" transform="translate(2587.64 1230)">5</text><text font-family="Calibri,Calibri_MSFontService,sans-serif" font-size="83" font-weight="700" transform="translate(2860.48 1230)">5</text><g clip-path="url(#k)"><text font-family="Calibri,Calibri_MSFontService,sans-serif" font-size="83" font-weight="400" transform="translate(407.672 1411)">End of day Item Stock</text></g><text font-family="Calibri,Calibri_MSFontService,sans-serif" font-size="83" font-weight="400" transform="translate(2021.06 1411)">10</text><text font-family="Calibri,Calibri_MSFontService,sans-serif" font-size="83" font-weight="400" transform="translate(2314.81 1411)">0</text><text font-family="Calibri,Calibri_MSFontService,sans-serif" font-size="83" font-weight="400" transform="translate(2587.64 1411)">5</text><text font-family="Calibri,Calibri_MSFontService,sans-serif" font-size="83" font-weight="400" transform="translate(2839.56 1411)">10</text><path fill="#FFA602" stroke="#41719C" stroke-miterlimit="8" stroke-width="4.583" d="M1404.5 1494.5h123v75h-123z"/><text font-family="Calibri,Calibri_MSFontService,sans-serif" font-size="64" font-weight="400" transform="translate(1559.54 1551)">Transferable </text><text font-family="Calibri,Calibri_MSFontService,sans-serif" font-size="64" font-style="italic" font-weight="400" transform="translate(1894.49 1551)">Short</text><text font-family="Calibri,Calibri_MSFontService,sans-serif" font-size="64" font-style="italic" font-weight="400" transform="translate(2033.13 1551)">-</text><text font-family="Calibri,Calibri_MSFontService,sans-serif" font-size="64" font-style="italic" font-weight="400" transform="translate(2052.61 1551)">Term Material Demand </text><text font-family="Calibri,Calibri_MSFontService,sans-serif" font-size="64" font-weight="400" transform="translate(2669.83 1551)">Information</text></g></svg>