<svg xmlns="http://www.w3.org/2000/svg" xml:space="preserve" width="2737" height="1045" overflow="hidden"><defs><clipPath id="a"><path d="M355 151h2737v1045H355z"/></clipPath><clipPath id="b"><path d="M358-102h1599v694H358z"/></clipPath><clipPath id="c"><path d="M1956-102h274v694h-274z"/></clipPath><clipPath id="d"><path d="M2229-102h274v694h-274z"/></clipPath><clipPath id="e"><path d="M2502-102h274v694h-274z"/></clipPath><clipPath id="f"><path d="M2775-102h273v694h-273z"/></clipPath><clipPath id="g"><path d="M358 80h1599v694H358z"/></clipPath><clipPath id="h"><path d="M358 261h1599v694H358z"/></clipPath><clipPath id="i"><path d="M358 443h1599v694H358z"/></clipPath><clipPath id="j"><path d="M358 625h1599v694H358z"/></clipPath></defs><g clip-path="url(#a)" transform="translate(-355 -151)"><path fill="#F4F2F3" fill-rule="evenodd" d="M358.247 153.755H1956.64v181.89H358.247Zm1598.393 0h272.84v181.89h-272.84Zm272.84 0h272.83v181.89h-272.83Zm272.83 0h272.84v181.89h-272.84Zm272.84 0h272.83v181.89h-272.83Z"/><path fill="#FFA602" fill-rule="evenodd" d="M358.247 699.425H1956.64v181.889H358.247Zm1598.393 0h272.84v181.889h-272.84Zm272.84 0h272.83v181.889h-272.83Zm272.83 0h272.84v181.889h-272.84Zm272.84 0h272.83v181.889h-272.83Z"/><path fill="none" stroke="#000" stroke-linejoin="round" stroke-miterlimit="10" stroke-width="4.583" d="M1956.64 151.464V1065.5m272.84-914.036V1065.5m272.83-914.036V1065.5m272.84-914.036V1065.5M355.956 335.645H3050.27M355.956 517.535H3050.27M355.956 699.425H3050.27M355.956 881.314H3050.27M358.247 151.464V1065.5M3047.98 151.464V1065.5M355.956 153.755H3050.27M355.956 1063.2H3050.27"/><g clip-path="url(#b)"><text font-family="Calibri,Calibri_MSFontService,sans-serif" font-size="83" font-weight="700" transform="translate(391.247 272)">Customer Information</text></g><g clip-path="url(#c)"><text font-family="Calibri,Calibri_MSFontService,sans-serif" font-size="83" font-weight="700" transform="translate(1989.64 272)">Day 1</text></g><g clip-path="url(#d)"><text font-family="Calibri,Calibri_MSFontService,sans-serif" font-size="83" font-weight="700" transform="translate(2262.48 272)">Day 2</text></g><g clip-path="url(#e)"><text font-family="Calibri,Calibri_MSFontService,sans-serif" font-size="83" font-weight="700" transform="translate(2535.31 272)">Day 3</text></g><g clip-path="url(#f)"><text font-family="Calibri,Calibri_MSFontService,sans-serif" font-size="83" font-weight="700" transform="translate(2808.15 272)">Day 4</text></g><g clip-path="url(#g)"><text font-family="Calibri,Calibri_MSFontService,sans-serif" font-size="83" font-weight="400" transform="translate(391.247 454)">Consumption in </text></g><text font-family="Calibri,Calibri_MSFontService,sans-serif" font-size="83" font-weight="400" transform="translate(940.881 454)">production</text><text font-family="Calibri,Calibri_MSFontService,sans-serif" font-size="83" font-weight="400" transform="translate(2051.24 454)">80</text><text font-family="Calibri,Calibri_MSFontService,sans-serif" font-size="83" font-weight="400" transform="translate(2324.07 454)">80</text><text font-family="Calibri,Calibri_MSFontService,sans-serif" font-size="83" font-weight="400" transform="translate(2575.99 454)">100</text><text font-family="Calibri,Calibri_MSFontService,sans-serif" font-size="83" font-weight="400" transform="translate(2848.83 454)">100</text><g clip-path="url(#h)"><text font-family="Calibri,Calibri_MSFontService,sans-serif" font-size="83" font-weight="400" transform="translate(391.247 636)">Call</text></g><text font-family="Calibri,Calibri_MSFontService,sans-serif" font-size="83" font-weight="400" transform="translate(512.706 636)">-</text><text font-family="Calibri,Calibri_MSFontService,sans-serif" font-size="83" font-weight="400" transform="translate(537.914 636)">off / order amount</text><text font-family="Calibri,Calibri_MSFontService,sans-serif" font-size="83" font-weight="400" transform="translate(2030.33 636)">360</text><text font-family="Calibri,Calibri_MSFontService,sans-serif" font-size="83" font-weight="400" transform="translate(2344.98 636)">0</text><text font-family="Calibri,Calibri_MSFontService,sans-serif" font-size="83" font-weight="400" transform="translate(2617.82 636)">0</text><text font-family="Calibri,Calibri_MSFontService,sans-serif" font-size="83" font-weight="400" transform="translate(2890.65 636)">0</text><g clip-path="url(#i)"><text font-family="Calibri,Calibri_MSFontService,sans-serif" font-size="83" font-weight="700" transform="translate(391.247 818)">Demand </text></g><text font-family="Calibri,Calibri_MSFontService,sans-serif" font-size="83" font-weight="700" transform="translate(699.477 818)">category</text><text font-family="Calibri,Calibri_MSFontService,sans-serif" font-size="83" font-weight="700" transform="translate(1011.9 818)">= </text><text font-family="Calibri,Calibri_MSFontService,sans-serif" font-size="83" font-weight="700" transform="translate(1072.06 818)">Series </text><text font-family="Calibri,Calibri_MSFontService,sans-serif" font-size="83" font-weight="700" transform="translate(1294.35 818)">/ Default</text><text font-family="Calibri,Calibri_MSFontService,sans-serif" font-size="83" font-weight="700" transform="translate(2051.24 818)">80</text><text font-family="Calibri,Calibri_MSFontService,sans-serif" font-size="83" font-weight="700" transform="translate(2324.07 818)">80</text><text font-family="Calibri,Calibri_MSFontService,sans-serif" font-size="83" font-weight="700" transform="translate(2575.99 818)">100</text><text font-family="Calibri,Calibri_MSFontService,sans-serif" font-size="83" font-weight="700" transform="translate(2848.83 818)">100</text><g clip-path="url(#j)"><text font-family="Calibri,Calibri_MSFontService,sans-serif" font-size="83" font-weight="400" transform="translate(391.247 1000)">End of </text></g><text font-family="Calibri,Calibri_MSFontService,sans-serif" font-size="83" font-weight="400" transform="translate(624.997 1000)">day Item Stock</text><text font-family="Calibri,Calibri_MSFontService,sans-serif" font-size="83" font-weight="400" transform="translate(2030.33 1000)">280</text><text font-family="Calibri,Calibri_MSFontService,sans-serif" font-size="83" font-weight="400" transform="translate(2303.16 1000)">200</text><text font-family="Calibri,Calibri_MSFontService,sans-serif" font-size="83" font-weight="400" transform="translate(2575.99 1000)">100</text><text font-family="Calibri,Calibri_MSFontService,sans-serif" font-size="83" font-weight="400" transform="translate(2890.65 1000)">0</text><path fill="#FFA602" stroke="#41719C" stroke-miterlimit="8" stroke-width="4.583" d="M1478.5 1082.5h122v76h-122z"/><text font-family="Calibri,Calibri_MSFontService,sans-serif" font-size="64" font-weight="400" transform="translate(1632.87 1140)">Transferable </text><text font-family="Calibri,Calibri_MSFontService,sans-serif" font-size="64" font-style="italic" font-weight="400" transform="translate(1967.82 1140)">Short</text><text font-family="Calibri,Calibri_MSFontService,sans-serif" font-size="64" font-style="italic" font-weight="400" transform="translate(2106.47 1140)">-</text><text font-family="Calibri,Calibri_MSFontService,sans-serif" font-size="64" font-style="italic" font-weight="400" transform="translate(2125.95 1140)">Term Material Demand </text><text font-family="Calibri,Calibri_MSFontService,sans-serif" font-size="64" font-weight="400" transform="translate(2743.16 1140)">Information</text></g></svg>