<svg xmlns="http://www.w3.org/2000/svg" xml:space="preserve" width="2698" height="1044" overflow="hidden"><defs><clipPath id="a"><path d="M372 381h2698v1044H372z"/></clipPath><clipPath id="b"><path d="M374 127h1600v694H374z"/></clipPath><clipPath id="c"><path d="M1973 127h274v694h-274z"/></clipPath><clipPath id="d"><path d="M2246 127h274v694h-274z"/></clipPath><clipPath id="e"><path d="M2519 127h273v694h-273z"/></clipPath><clipPath id="f"><path d="M2791 127h274v694h-274z"/></clipPath><clipPath id="g"><path d="M374 309h1600v694H374z"/></clipPath><clipPath id="h"><path d="M374 491h1600v694H374z"/></clipPath><clipPath id="i"><path d="M374 673h1600v694H374z"/></clipPath><clipPath id="j"><path d="M374 855h1600v694H374z"/></clipPath></defs><g clip-path="url(#a)" transform="translate(-372 -381)"><path fill="#F4F2F3" fill-rule="evenodd" d="M374.956 383.502H1973.35v181.89H374.956Zm1598.394 0h272.84v181.89h-272.84Zm272.84 0h272.83v181.89h-272.83Zm272.83 0h272.84v181.89h-272.84Zm272.84 0h272.83v181.89h-272.83Z"/><path fill="#FFA602" fill-rule="evenodd" d="M374.956 929.171H1973.35v181.889H374.956Zm1598.394 0h272.84v181.889h-272.84Zm272.84 0h272.83v181.889h-272.83Zm272.83 0h272.84v181.889h-272.84Zm272.84 0h272.83v181.889h-272.83Z"/><path fill="none" stroke="#000" stroke-linejoin="round" stroke-miterlimit="10" stroke-width="4.583" d="M1973.35 381.21v914.03m272.84-914.03v914.03m272.83-914.03v914.03m272.84-914.03v914.03M372.665 565.392H3066.98M372.665 747.281H3066.98M372.665 929.171H3066.98M372.665 1111.06H3066.98M374.956 381.21v914.03M3064.69 381.21v914.03M372.665 383.502H3066.98M372.665 1292.95H3066.98"/><g clip-path="url(#b)"><text font-family="Calibri,Calibri_MSFontService,sans-serif" font-size="83" font-weight="700" transform="translate(407.672 502)">Customer Information</text></g><g clip-path="url(#c)"><text font-family="Calibri,Calibri_MSFontService,sans-serif" font-size="83" font-weight="700" transform="translate(2006.07 502)">Day 1</text></g><g clip-path="url(#d)"><text font-family="Calibri,Calibri_MSFontService,sans-serif" font-size="83" font-weight="700" transform="translate(2278.9 502)">Day 2</text></g><g clip-path="url(#e)"><text font-family="Calibri,Calibri_MSFontService,sans-serif" font-size="83" font-weight="700" transform="translate(2551.74 502)">Day 3</text></g><g clip-path="url(#f)"><text font-family="Calibri,Calibri_MSFontService,sans-serif" font-size="83" font-weight="700" transform="translate(2824.57 502)">Day 4</text></g><g clip-path="url(#g)"><text font-family="Calibri,Calibri_MSFontService,sans-serif" font-size="83" font-weight="400" transform="translate(407.956 684)">Consumption in </text></g><text font-family="Calibri,Calibri_MSFontService,sans-serif" font-size="83" font-weight="400" transform="translate(957.59 684)">production</text><text font-family="Calibri,Calibri_MSFontService,sans-serif" font-size="83" font-weight="400" transform="translate(2067.95 684)">80</text><text font-family="Calibri,Calibri_MSFontService,sans-serif" font-size="83" font-weight="400" transform="translate(2340.78 684)">80</text><text font-family="Calibri,Calibri_MSFontService,sans-serif" font-size="83" font-weight="400" transform="translate(2592.7 684)">100</text><text font-family="Calibri,Calibri_MSFontService,sans-serif" font-size="83" font-weight="400" transform="translate(2865.54 684)">100</text><g clip-path="url(#h)"><text font-family="Calibri,Calibri_MSFontService,sans-serif" font-size="83" font-weight="400" transform="translate(407.956 866)">Call</text></g><text font-family="Calibri,Calibri_MSFontService,sans-serif" font-size="83" font-weight="400" transform="translate(529.415 866)">-</text><text font-family="Calibri,Calibri_MSFontService,sans-serif" font-size="83" font-weight="400" transform="translate(554.623 866)">off / </text><text font-family="Calibri,Calibri_MSFontService,sans-serif" font-size="83" font-weight="400" transform="translate(717.675 866)">order</text><text font-family="Calibri,Calibri_MSFontService,sans-serif" font-size="83" font-weight="400" transform="translate(921.083 866)">amount</text><text font-family="Calibri,Calibri_MSFontService,sans-serif" font-size="83" font-weight="400" transform="translate(2067.95 866)">80</text><text font-family="Calibri,Calibri_MSFontService,sans-serif" font-size="83" font-weight="400" transform="translate(2340.78 866)">80</text><text font-family="Calibri,Calibri_MSFontService,sans-serif" font-size="83" font-weight="400" transform="translate(2592.7 866)">100</text><text font-family="Calibri,Calibri_MSFontService,sans-serif" font-size="83" font-weight="400" transform="translate(2865.54 866)">100</text><g clip-path="url(#i)"><text font-family="Calibri,Calibri_MSFontService,sans-serif" font-size="83" font-weight="700" transform="translate(407.956 1048)">Demand </text></g><text font-family="Calibri,Calibri_MSFontService,sans-serif" font-size="83" font-weight="700" transform="translate(716.185 1048)">category</text><text font-family="Calibri,Calibri_MSFontService,sans-serif" font-size="83" font-weight="700" transform="translate(1028.61 1048)">= </text><text font-family="Calibri,Calibri_MSFontService,sans-serif" font-size="83" font-weight="700" transform="translate(1088.76 1048)">Series </text><text font-family="Calibri,Calibri_MSFontService,sans-serif" font-size="83" font-weight="700" transform="translate(1311.06 1048)">/ Default</text><text font-family="Calibri,Calibri_MSFontService,sans-serif" font-size="83" font-weight="700" transform="translate(2067.95 1048)">80</text><text font-family="Calibri,Calibri_MSFontService,sans-serif" font-size="83" font-weight="700" transform="translate(2340.78 1048)">80</text><text font-family="Calibri,Calibri_MSFontService,sans-serif" font-size="83" font-weight="700" transform="translate(2592.7 1048)">100</text><text font-family="Calibri,Calibri_MSFontService,sans-serif" font-size="83" font-weight="700" transform="translate(2865.54 1048)">100</text><g clip-path="url(#j)"><text font-family="Calibri,Calibri_MSFontService,sans-serif" font-size="83" font-weight="400" transform="translate(407.956 1230)">End of </text></g><text font-family="Calibri,Calibri_MSFontService,sans-serif" font-size="83" font-weight="400" transform="translate(641.706 1230)">day Item Stock</text><text font-family="Calibri,Calibri_MSFontService,sans-serif" font-size="83" font-weight="400" transform="translate(2088.86 1230)">0</text><text font-family="Calibri,Calibri_MSFontService,sans-serif" font-size="83" font-weight="400" transform="translate(2361.69 1230)">0</text><text font-family="Calibri,Calibri_MSFontService,sans-serif" font-size="83" font-weight="400" transform="translate(2634.53 1230)">0</text><text font-family="Calibri,Calibri_MSFontService,sans-serif" font-size="83" font-weight="400" transform="translate(2907.36 1230)">0</text><path fill="#FFA602" stroke="#41719C" stroke-miterlimit="8" stroke-width="4.583" d="M1451.5 1312.5h122v75h-122z"/><text font-family="Calibri,Calibri_MSFontService,sans-serif" font-size="64" font-weight="400" transform="translate(1606.42 1369)">Transferable </text><text font-family="Calibri,Calibri_MSFontService,sans-serif" font-size="64" font-style="italic" font-weight="400" transform="translate(1941.37 1369)">Short</text><text font-family="Calibri,Calibri_MSFontService,sans-serif" font-size="64" font-style="italic" font-weight="400" transform="translate(2080.02 1369)">-</text><text font-family="Calibri,Calibri_MSFontService,sans-serif" font-size="64" font-style="italic" font-weight="400" transform="translate(2099.5 1369)">Term Material Demand </text><text font-family="Calibri,Calibri_MSFontService,sans-serif" font-size="64" font-weight="400" transform="translate(2716.71 1369)">Information</text></g></svg>