<svg width="2728" height="1227" xmlns="http://www.w3.org/2000/svg" xmlns:xlink="http://www.w3.org/1999/xlink" xml:space="preserve" overflow="hidden"><defs><clipPath id="clip0"><rect x="652" y="547" width="2728" height="1227"/></clipPath><clipPath id="clip1"><rect x="654" y="294" width="1590" height="694"/></clipPath><clipPath id="clip2"><rect x="2243" y="294" width="273" height="694"/></clipPath><clipPath id="clip3"><rect x="2515" y="294" width="274" height="694"/></clipPath><clipPath id="clip4"><rect x="2788" y="294" width="274" height="694"/></clipPath><clipPath id="clip5"><rect x="3061" y="294" width="274" height="694"/></clipPath><clipPath id="clip6"><rect x="654" y="476" width="1590" height="694"/></clipPath><clipPath id="clip7"><rect x="654" y="658" width="1590" height="694"/></clipPath><clipPath id="clip8"><rect x="654" y="839" width="1590" height="694"/></clipPath><clipPath id="clip9"><rect x="654" y="1021" width="1590" height="694"/></clipPath><clipPath id="clip10"><rect x="654" y="1203" width="1590" height="694"/></clipPath></defs><g clip-path="url(#clip0)" transform="translate(-652 -547)"><path d="M654.83 549.83 2243.17 549.83 2243.17 731.719 654.83 731.719Z" fill="#F4F2F3" fill-rule="evenodd"/><path d="M2243.17 549.83 2516 549.83 2516 731.719 2243.17 731.719Z" fill="#F4F2F3" fill-rule="evenodd"/><path d="M2516 549.83 2788.83 549.83 2788.83 731.719 2516 731.719Z" fill="#F4F2F3" fill-rule="evenodd"/><path d="M2788.83 549.83 3061.67 549.83 3061.67 731.719 2788.83 731.719Z" fill="#F4F2F3" fill-rule="evenodd"/><path d="M3061.67 549.83 3334.5 549.83 3334.5 731.719 3061.67 731.719Z" fill="#F4F2F3" fill-rule="evenodd"/><path d="M654.83 1095.5 2243.17 1095.5 2243.17 1277.39 654.83 1277.39Z" fill="#FFA602" fill-rule="evenodd"/><path d="M2243.17 1095.5 2516 1095.5 2516 1277.39 2243.17 1277.39Z" fill="#FFA602" fill-rule="evenodd"/><path d="M2516 1095.5 2788.83 1095.5 2788.83 1277.39 2516 1277.39Z" fill="#FFA602" fill-rule="evenodd"/><path d="M2788.83 1095.5 3061.67 1095.5 3061.67 1277.39 2788.83 1277.39Z" fill="#FFA602" fill-rule="evenodd"/><path d="M3061.67 1095.5 3334.5 1095.5 3334.5 1277.39 3061.67 1277.39Z" fill="#FFA602" fill-rule="evenodd"/><path d="M654.83 1277.39 2243.17 1277.39 2243.17 1459.28 654.83 1459.28Z" fill="#FFA602" fill-rule="evenodd"/><path d="M2243.17 1277.39 2516 1277.39 2516 1459.28 2243.17 1459.28Z" fill="#FFA602" fill-rule="evenodd"/><path d="M2516 1277.39 2788.83 1277.39 2788.83 1459.28 2516 1459.28Z" fill="#FFA602" fill-rule="evenodd"/><path d="M2788.83 1277.39 3061.67 1277.39 3061.67 1459.28 2788.83 1459.28Z" fill="#FFA602" fill-rule="evenodd"/><path d="M3061.67 1277.39 3334.5 1277.39 3334.5 1459.28 3061.67 1459.28Z" fill="#FFA602" fill-rule="evenodd"/><path d="M2243.17 547.538 2243.17 1643.46" stroke="#000000" stroke-width="4.58333" stroke-linejoin="round" stroke-miterlimit="10" fill="none" fill-rule="evenodd"/><path d="M2516 547.538 2516 1643.46" stroke="#000000" stroke-width="4.58333" stroke-linejoin="round" stroke-miterlimit="10" fill="none" fill-rule="evenodd"/><path d="M2788.83 547.538 2788.83 1643.46" stroke="#000000" stroke-width="4.58333" stroke-linejoin="round" stroke-miterlimit="10" fill="none" fill-rule="evenodd"/><path d="M3061.67 547.538 3061.67 1643.46" stroke="#000000" stroke-width="4.58333" stroke-linejoin="round" stroke-miterlimit="10" fill="none" fill-rule="evenodd"/><path d="M652.538 731.719 3336.8 731.719" stroke="#000000" stroke-width="4.58333" stroke-linejoin="round" stroke-miterlimit="10" fill="none" fill-rule="evenodd"/><path d="M652.538 913.609 3336.8 913.609" stroke="#000000" stroke-width="4.58333" stroke-linejoin="round" stroke-miterlimit="10" fill="none" fill-rule="evenodd"/><path d="M652.538 1095.5 3336.8 1095.5" stroke="#000000" stroke-width="4.58333" stroke-linejoin="round" stroke-miterlimit="10" fill="none" fill-rule="evenodd"/><path d="M652.538 1277.39 3336.8 1277.39" stroke="#000000" stroke-width="4.58333" stroke-linejoin="round" stroke-miterlimit="10" fill="none" fill-rule="evenodd"/><path d="M652.538 1459.28 3336.8 1459.28" stroke="#000000" stroke-width="4.58333" stroke-linejoin="round" stroke-miterlimit="10" fill="none" fill-rule="evenodd"/><path d="M654.83 547.538 654.83 1643.46" stroke="#000000" stroke-width="4.58333" stroke-linejoin="round" stroke-miterlimit="10" fill="none" fill-rule="evenodd"/><path d="M3334.5 547.538 3334.5 1643.46" stroke="#000000" stroke-width="4.58333" stroke-linejoin="round" stroke-miterlimit="10" fill="none" fill-rule="evenodd"/><path d="M652.538 549.83 3336.8 549.83" stroke="#000000" stroke-width="4.58333" stroke-linejoin="round" stroke-miterlimit="10" fill="none" fill-rule="evenodd"/><path d="M652.538 1641.17 3336.8 1641.17" stroke="#000000" stroke-width="4.58333" stroke-linejoin="round" stroke-miterlimit="10" fill="none" fill-rule="evenodd"/><g clip-path="url(#clip1)"><text font-family="Calibri,Calibri_MSFontService,sans-serif" font-weight="700" font-size="83" transform="matrix(1 0 0 1 687.83 668)">Customer Information</text></g><g clip-path="url(#clip2)"><text font-family="Calibri,Calibri_MSFontService,sans-serif" font-weight="700" font-size="83" transform="matrix(1 0 0 1 2276.16 668)">Day 1</text></g><g clip-path="url(#clip3)"><text font-family="Calibri,Calibri_MSFontService,sans-serif" font-weight="700" font-size="83" transform="matrix(1 0 0 1 2549 668)">Day 2</text></g><g clip-path="url(#clip4)"><text font-family="Calibri,Calibri_MSFontService,sans-serif" font-weight="700" font-size="83" transform="matrix(1 0 0 1 2821.83 668)">Day 3</text></g><g clip-path="url(#clip5)"><text font-family="Calibri,Calibri_MSFontService,sans-serif" font-weight="700" font-size="83" transform="matrix(1 0 0 1 3094.67 668)">Day 4</text></g><g clip-path="url(#clip6)"><text font-family="Calibri,Calibri_MSFontService,sans-serif" font-weight="400" font-size="83" transform="matrix(1 0 0 1 687.83 850)">Consumption in </text></g><text font-family="Calibri,Calibri_MSFontService,sans-serif" font-weight="400" font-size="83" transform="matrix(1 0 0 1 1237.46 850)">production</text><text font-family="Calibri,Calibri_MSFontService,sans-serif" font-weight="400" font-size="83" transform="matrix(1 0 0 1 2337.76 850)">80</text><text font-family="Calibri,Calibri_MSFontService,sans-serif" font-weight="400" font-size="83" transform="matrix(1 0 0 1 2610.59 850)">80</text><text font-family="Calibri,Calibri_MSFontService,sans-serif" font-weight="400" font-size="83" transform="matrix(1 0 0 1 2862.52 850)">100</text><text font-family="Calibri,Calibri_MSFontService,sans-serif" font-weight="400" font-size="83" transform="matrix(1 0 0 1 3135.35 850)">100</text><g clip-path="url(#clip7)"><text font-family="Calibri,Calibri_MSFontService,sans-serif" font-weight="400" font-size="83" transform="matrix(1 0 0 1 687.83 1032)">Call</text></g><text font-family="Calibri,Calibri_MSFontService,sans-serif" font-weight="400" font-size="83" transform="matrix(1 0 0 1 809.288 1032)">-</text><text font-family="Calibri,Calibri_MSFontService,sans-serif" font-weight="400" font-size="83" transform="matrix(1 0 0 1 834.496 1032)">off / order amount</text><text font-family="Calibri,Calibri_MSFontService,sans-serif" font-weight="400" font-size="83" transform="matrix(1 0 0 1 2337.76 1032)">80</text><text font-family="Calibri,Calibri_MSFontService,sans-serif" font-weight="400" font-size="83" transform="matrix(1 0 0 1 2589.68 1032)">200</text><text font-family="Calibri,Calibri_MSFontService,sans-serif" font-weight="400" font-size="83" transform="matrix(1 0 0 1 2862.52 1032)">100</text><text font-family="Calibri,Calibri_MSFontService,sans-serif" font-weight="400" font-size="83" transform="matrix(1 0 0 1 3135.35 1032)">100</text><g clip-path="url(#clip8)"><text font-family="Calibri,Calibri_MSFontService,sans-serif" font-weight="700" font-size="83" transform="matrix(1 0 0 1 687.83 1214)">Demand </text></g><text font-family="Calibri,Calibri_MSFontService,sans-serif" font-weight="700" font-size="83" transform="matrix(1 0 0 1 996.059 1214)">category</text><text font-family="Calibri,Calibri_MSFontService,sans-serif" font-weight="700" font-size="83" transform="matrix(1 0 0 1 1308.48 1214)">= </text><text font-family="Calibri,Calibri_MSFontService,sans-serif" font-weight="700" font-size="83" transform="matrix(1 0 0 1 1368.64 1214)">Series </text><text font-family="Calibri,Calibri_MSFontService,sans-serif" font-weight="700" font-size="83" transform="matrix(1 0 0 1 1590.93 1214)">/ Default</text><text font-family="Calibri,Calibri_MSFontService,sans-serif" font-weight="700" font-size="83" transform="matrix(1 0 0 1 2337.76 1214)">80</text><text font-family="Calibri,Calibri_MSFontService,sans-serif" font-weight="700" font-size="83" transform="matrix(1 0 0 1 2610.59 1214)">80</text><text font-family="Calibri,Calibri_MSFontService,sans-serif" font-weight="700" font-size="83" transform="matrix(1 0 0 1 2862.52 1214)">100</text><text font-family="Calibri,Calibri_MSFontService,sans-serif" font-weight="700" font-size="83" transform="matrix(1 0 0 1 3135.35 1214)">100</text><g clip-path="url(#clip9)"><text font-family="Calibri,Calibri_MSFontService,sans-serif" font-weight="700" font-size="83" transform="matrix(1 0 0 1 687.83 1396)">Demand </text></g><text font-family="Calibri,Calibri_MSFontService,sans-serif" font-weight="700" font-size="83" transform="matrix(1 0 0 1 996.059 1396)">category</text><text font-family="Calibri,Calibri_MSFontService,sans-serif" font-weight="700" font-size="83" transform="matrix(1 0 0 1 1308.48 1396)">= </text><text font-family="Calibri,Calibri_MSFontService,sans-serif" font-weight="700" font-size="83" transform="matrix(1 0 0 1 1368.64 1396)">Extraordinary</text><text font-family="Calibri,Calibri_MSFontService,sans-serif" font-weight="700" font-size="83" transform="matrix(1 0 0 1 1852.02 1396)">Demand</text><text font-family="Calibri,Calibri_MSFontService,sans-serif" font-weight="700" font-size="83" transform="matrix(1 0 0 1 2358.67 1396)">0</text><text font-family="Calibri,Calibri_MSFontService,sans-serif" font-weight="700" font-size="83" transform="matrix(1 0 0 1 2589.68 1396)">120</text><text font-family="Calibri,Calibri_MSFontService,sans-serif" font-weight="700" font-size="83" transform="matrix(1 0 0 1 2904.34 1396)">0</text><text font-family="Calibri,Calibri_MSFontService,sans-serif" font-weight="700" font-size="83" transform="matrix(1 0 0 1 3177.17 1396)">0</text><g clip-path="url(#clip10)"><text font-family="Calibri,Calibri_MSFontService,sans-serif" font-weight="400" font-size="83" transform="matrix(1 0 0 1 687.83 1578)">End of </text></g><text font-family="Calibri,Calibri_MSFontService,sans-serif" font-weight="400" font-size="83" transform="matrix(1 0 0 1 921.58 1578)">day Item Stock</text><text font-family="Calibri,Calibri_MSFontService,sans-serif" font-weight="400" font-size="83" transform="matrix(1 0 0 1 2358.67 1578)">0</text><text font-family="Calibri,Calibri_MSFontService,sans-serif" font-weight="400" font-size="83" transform="matrix(1 0 0 1 2589.68 1578)">120</text><text font-family="Calibri,Calibri_MSFontService,sans-serif" font-weight="400" font-size="83" transform="matrix(1 0 0 1 2862.52 1578)">120</text><text font-family="Calibri,Calibri_MSFontService,sans-serif" font-weight="400" font-size="83" transform="matrix(1 0 0 1 3135.35 1578)">120</text><rect x="1766.5" y="1660.5" width="122" height="76" stroke="#41719C" stroke-width="4.58333" stroke-miterlimit="8" fill="#FFA602"/><text font-family="Calibri,Calibri_MSFontService,sans-serif" font-weight="400" font-size="64" transform="matrix(1 0 0 1 1921 1718)">Transferable </text><text font-family="Calibri,Calibri_MSFontService,sans-serif" font-style="italic" font-weight="400" font-size="64" transform="matrix(1 0 0 1 2255.95 1718)">Short</text><text font-family="Calibri,Calibri_MSFontService,sans-serif" font-style="italic" font-weight="400" font-size="64" transform="matrix(1 0 0 1 2394.59 1718)">-</text><text font-family="Calibri,Calibri_MSFontService,sans-serif" font-style="italic" font-weight="400" font-size="64" transform="matrix(1 0 0 1 2414.07 1718)">Term Material Demand </text><text font-family="Calibri,Calibri_MSFontService,sans-serif" font-weight="400" font-size="64" transform="matrix(1 0 0 1 3031.29 1718)">Information</text></g></svg>