<svg width="3301" height="1782" xmlns="http://www.w3.org/2000/svg" xmlns:xlink="http://www.w3.org/1999/xlink" xml:space="preserve" overflow="hidden"><defs><clipPath id="clip0"><rect x="372" y="381" width="3301" height="1782"/></clipPath><clipPath id="clip1"><rect x="374" y="127" width="2139" height="694"/></clipPath><clipPath id="clip2"><rect x="2512" y="127" width="282" height="694"/></clipPath><clipPath id="clip3"><rect x="2793" y="127" width="293" height="694"/></clipPath><clipPath id="clip4"><rect x="3085" y="127" width="292" height="694"/></clipPath><clipPath id="clip5"><rect x="3376" y="127" width="292" height="694"/></clipPath><clipPath id="clip6"><rect x="374" y="309" width="2139" height="694"/></clipPath><clipPath id="clip7"><rect x="374" y="332" width="605" height="1387"/></clipPath><clipPath id="clip8"><rect x="374" y="332" width="605" height="1387"/></clipPath><clipPath id="clip9"><rect x="978" y="491" width="1535" height="694"/></clipPath><clipPath id="clip10"><rect x="978" y="673" width="1535" height="694"/></clipPath><clipPath id="clip11"><rect x="978" y="860" width="1535" height="694"/></clipPath><clipPath id="clip12"><rect x="978" y="860" width="1535" height="694"/></clipPath><clipPath id="clip13"><rect x="374" y="883" width="605" height="1387"/></clipPath><clipPath id="clip14"><rect x="374" y="883" width="605" height="1387"/></clipPath><clipPath id="clip15"><rect x="978" y="1047" width="1535" height="694"/></clipPath><clipPath id="clip16"><rect x="978" y="1229" width="1535" height="694"/></clipPath><clipPath id="clip17"><rect x="978" y="1411" width="1535" height="694"/></clipPath><clipPath id="clip18"><rect x="978" y="1411" width="1535" height="694"/></clipPath><clipPath id="clip19"><rect x="374" y="1593" width="2139" height="694"/></clipPath></defs><g clip-path="url(#clip0)" transform="translate(-372 -381)"><path d="M374.956 383.502 2512.17 383.502 2512.17 565.392 374.956 565.392Z" fill="#F4F2F3" fill-rule="evenodd"/><path d="M2512.17 383.502 2793.76 383.502 2793.76 565.392 2512.17 565.392Z" fill="#F4F2F3" fill-rule="evenodd"/><path d="M2793.76 383.502 3085.04 383.502 3085.04 565.392 2793.76 565.392Z" fill="#F4F2F3" fill-rule="evenodd"/><path d="M3085.04 383.502 3376.32 383.502 3376.32 565.392 3085.04 565.392Z" fill="#F4F2F3" fill-rule="evenodd"/><path d="M3376.32 383.502 3667.59 383.502 3667.59 565.392 3376.32 565.392Z" fill="#F4F2F3" fill-rule="evenodd"/><path d="M978.064 929.171 2512.17 929.171 2512.17 1111.06 978.064 1111.06Z" fill="#FFA602" fill-rule="evenodd"/><path d="M2512.17 929.171 2793.76 929.171 2793.76 1111.06 2512.17 1111.06Z" fill="#FFA602" fill-rule="evenodd"/><path d="M2793.76 929.171 3085.04 929.171 3085.04 1111.06 2793.76 1111.06Z" fill="#FFA602" fill-rule="evenodd"/><path d="M3085.04 929.171 3376.32 929.171 3376.32 1111.06 3085.04 1111.06Z" fill="#FFA602" fill-rule="evenodd"/><path d="M3376.32 929.171 3667.59 929.171 3667.59 1111.06 3376.32 1111.06Z" fill="#FFA602" fill-rule="evenodd"/><path d="M978.064 1111.06 2512.17 1111.06 2512.17 1303.29 978.064 1303.29Z" fill="#FFA602" fill-rule="evenodd"/><path d="M2512.17 1111.06 2793.76 1111.06 2793.76 1303.29 2512.17 1303.29Z" fill="#FFA602" fill-rule="evenodd"/><path d="M2793.76 1111.06 3085.04 1111.06 3085.04 1303.29 2793.76 1303.29Z" fill="#FFA602" fill-rule="evenodd"/><path d="M3085.04 1111.06 3376.32 1111.06 3376.32 1303.29 3085.04 1303.29Z" fill="#FFA602" fill-rule="evenodd"/><path d="M3376.32 1111.06 3667.59 1111.06 3667.59 1303.29 3376.32 1303.29Z" fill="#FFA602" fill-rule="evenodd"/><path d="M978.064 1485.18 2512.17 1485.18 2512.17 1667.07 978.064 1667.07Z" fill="#FFA602" fill-rule="evenodd"/><path d="M2512.17 1485.18 2793.76 1485.18 2793.76 1667.07 2512.17 1667.07Z" fill="#FFA602" fill-rule="evenodd"/><path d="M2793.76 1485.18 3085.04 1485.18 3085.04 1667.07 2793.76 1667.07Z" fill="#FFA602" fill-rule="evenodd"/><path d="M3085.04 1485.18 3376.32 1485.18 3376.32 1667.07 3085.04 1667.07Z" fill="#FFA602" fill-rule="evenodd"/><path d="M3376.32 1485.18 3667.59 1485.18 3667.59 1667.07 3376.32 1667.07Z" fill="#FFA602" fill-rule="evenodd"/><path d="M978.064 1667.07 2512.17 1667.07 2512.17 1848.96 978.064 1848.96Z" fill="#FFA602" fill-rule="evenodd"/><path d="M2512.17 1667.07 2793.76 1667.07 2793.76 1848.96 2512.17 1848.96Z" fill="#FFA602" fill-rule="evenodd"/><path d="M2793.76 1667.07 3085.04 1667.07 3085.04 1848.96 2793.76 1848.96Z" fill="#FFA602" fill-rule="evenodd"/><path d="M3085.04 1667.07 3376.32 1667.07 3376.32 1848.96 3085.04 1848.96Z" fill="#FFA602" fill-rule="evenodd"/><path d="M3376.32 1667.07 3667.59 1667.07 3667.59 1848.96 3376.32 1848.96Z" fill="#FFA602" fill-rule="evenodd"/><path d="M978.064 744.99 978.064 1851.25" stroke="#000000" stroke-width="4.58333" stroke-linejoin="round" stroke-miterlimit="10" fill="none" fill-rule="evenodd"/><path d="M2512.17 381.21 2512.17 2033.14" stroke="#000000" stroke-width="4.58333" stroke-linejoin="round" stroke-miterlimit="10" fill="none" fill-rule="evenodd"/><path d="M2793.76 381.21 2793.76 2033.14" stroke="#000000" stroke-width="4.58333" stroke-linejoin="round" stroke-miterlimit="10" fill="none" fill-rule="evenodd"/><path d="M3085.04 381.21 3085.04 2033.14" stroke="#000000" stroke-width="4.58333" stroke-linejoin="round" stroke-miterlimit="10" fill="none" fill-rule="evenodd"/><path d="M3376.32 381.21 3376.32 2033.14" stroke="#000000" stroke-width="4.58333" stroke-linejoin="round" stroke-miterlimit="10" fill="none" fill-rule="evenodd"/><path d="M372.665 565.392 3669.89 565.392" stroke="#000000" stroke-width="4.58333" stroke-linejoin="round" stroke-miterlimit="10" fill="none" fill-rule="evenodd"/><path d="M372.665 747.281 3669.89 747.281" stroke="#000000" stroke-width="4.58333" stroke-linejoin="round" stroke-miterlimit="10" fill="none" fill-rule="evenodd"/><path d="M975.772 929.171 3669.89 929.171" stroke="#000000" stroke-width="4.58333" stroke-linejoin="round" stroke-miterlimit="10" fill="none" fill-rule="evenodd"/><path d="M975.772 1111.06 3669.89 1111.06" stroke="#000000" stroke-width="4.58333" stroke-linejoin="round" stroke-miterlimit="10" fill="none" fill-rule="evenodd"/><path d="M372.665 1303.29 3669.89 1303.29" stroke="#000000" stroke-width="4.58333" stroke-linejoin="round" stroke-miterlimit="10" fill="none" fill-rule="evenodd"/><path d="M975.772 1485.18 3669.89 1485.18" stroke="#000000" stroke-width="4.58333" stroke-linejoin="round" stroke-miterlimit="10" fill="none" fill-rule="evenodd"/><path d="M975.772 1667.07 3669.89 1667.07" stroke="#000000" stroke-width="4.58333" stroke-linejoin="round" stroke-miterlimit="10" fill="none" fill-rule="evenodd"/><path d="M372.665 1848.96 3669.89 1848.96" stroke="#000000" stroke-width="4.58333" stroke-linejoin="round" stroke-miterlimit="10" fill="none" fill-rule="evenodd"/><path d="M374.956 381.21 374.956 2033.14" stroke="#000000" stroke-width="4.58333" stroke-linejoin="round" stroke-miterlimit="10" fill="none" fill-rule="evenodd"/><path d="M3667.59 381.21 3667.59 2033.14" stroke="#000000" stroke-width="4.58333" stroke-linejoin="round" stroke-miterlimit="10" fill="none" fill-rule="evenodd"/><path d="M372.665 383.502 3669.89 383.502" stroke="#000000" stroke-width="4.58333" stroke-linejoin="round" stroke-miterlimit="10" fill="none" fill-rule="evenodd"/><path d="M372.665 2030.85 3669.89 2030.85" stroke="#000000" stroke-width="4.58333" stroke-linejoin="round" stroke-miterlimit="10" fill="none" fill-rule="evenodd"/><g clip-path="url(#clip1)"><text font-family="Calibri,Calibri_MSFontService,sans-serif" font-weight="700" font-size="83" transform="matrix(1 0 0 1 407.672 502)">Customer Information</text></g><g clip-path="url(#clip2)"><text font-family="Calibri,Calibri_MSFontService,sans-serif" font-weight="700" font-size="83" transform="matrix(1 0 0 1 2544.89 502)">Day 1</text></g><g clip-path="url(#clip3)"><text font-family="Calibri,Calibri_MSFontService,sans-serif" font-weight="700" font-size="83" transform="matrix(1 0 0 1 2826.47 502)">Day 2</text></g><g clip-path="url(#clip4)"><text font-family="Calibri,Calibri_MSFontService,sans-serif" font-weight="700" font-size="83" transform="matrix(1 0 0 1 3117.75 502)">Day 3</text></g><g clip-path="url(#clip5)"><text font-family="Calibri,Calibri_MSFontService,sans-serif" font-weight="700" font-size="83" transform="matrix(1 0 0 1 3409.03 502)">Day 4</text></g><g clip-path="url(#clip6)"><text font-family="Calibri,Calibri_MSFontService,sans-serif" font-weight="400" font-size="83" transform="matrix(1 0 0 1 407.672 684)">Consumption </text></g><text font-family="Calibri,Calibri_MSFontService,sans-serif" font-weight="400" font-size="83" transform="matrix(1 0 0 1 875.951 684)">in production</text><text font-family="Calibri,Calibri_MSFontService,sans-serif" font-weight="400" font-size="83" transform="matrix(1 0 0 1 2611.14 684)">80</text><text font-family="Calibri,Calibri_MSFontService,sans-serif" font-weight="400" font-size="83" transform="matrix(1 0 0 1 2897.57 684)">80</text><text font-family="Calibri,Calibri_MSFontService,sans-serif" font-weight="400" font-size="83" transform="matrix(1 0 0 1 3167.94 684)">100</text><text font-family="Calibri,Calibri_MSFontService,sans-serif" font-weight="400" font-size="83" transform="matrix(1 0 0 1 3459.22 684)">100</text><g clip-path="url(#clip7)"><text font-family="Calibri,Calibri_MSFontService,sans-serif" font-weight="400" font-size="83" transform="matrix(1 0 0 1 407.672 1003)">To</text></g><text font-family="Calibri,Calibri_MSFontService,sans-serif" font-weight="400" font-size="83" transform="matrix(1 0 0 1 502.891 1003)">supplier</text><text font-family="Calibri,Calibri_MSFontService,sans-serif" font-weight="400" font-size="83" transform="matrix(1 0 0 1 792.214 1003)">#1 </text><g clip-path="url(#clip8)"><text font-family="Calibri,Calibri_MSFontService,sans-serif" font-weight="400" font-size="83" transform="matrix(1 0 0 1 407.672 1102)">(60%)</text></g><g clip-path="url(#clip9)"><text font-family="Calibri,Calibri_MSFontService,sans-serif" font-weight="400" font-size="83" transform="matrix(1 0 0 1 1010.78 866)">Call</text></g><text font-family="Calibri,Calibri_MSFontService,sans-serif" font-weight="400" font-size="83" transform="matrix(1 0 0 1 1132.24 866)">-</text><text font-family="Calibri,Calibri_MSFontService,sans-serif" font-weight="400" font-size="83" transform="matrix(1 0 0 1 1157.45 866)">off / </text><text font-family="Calibri,Calibri_MSFontService,sans-serif" font-weight="400" font-size="83" transform="matrix(1 0 0 1 1320.5 866)">order</text><text font-family="Calibri,Calibri_MSFontService,sans-serif" font-weight="400" font-size="83" transform="matrix(1 0 0 1 1523.91 866)">amount</text><text font-family="Calibri,Calibri_MSFontService,sans-serif" font-weight="400" font-size="83" transform="matrix(1 0 0 1 2611.14 866)">60</text><text font-family="Calibri,Calibri_MSFontService,sans-serif" font-weight="400" font-size="83" transform="matrix(1 0 0 1 2897.57 866)">60</text><text font-family="Calibri,Calibri_MSFontService,sans-serif" font-weight="400" font-size="83" transform="matrix(1 0 0 1 3188.85 866)">60</text><text font-family="Calibri,Calibri_MSFontService,sans-serif" font-weight="400" font-size="83" transform="matrix(1 0 0 1 3480.13 866)">60</text><g clip-path="url(#clip10)"><text font-family="Calibri,Calibri_MSFontService,sans-serif" font-weight="700" font-size="83" transform="matrix(1 0 0 1 1010.78 1048)">Demand </text></g><text font-family="Calibri,Calibri_MSFontService,sans-serif" font-weight="700" font-size="83" transform="matrix(1 0 0 1 1319.01 1048)">category</text><text font-family="Calibri,Calibri_MSFontService,sans-serif" font-weight="700" font-size="83" transform="matrix(1 0 0 1 1631.43 1048)">= </text><text font-family="Calibri,Calibri_MSFontService,sans-serif" font-weight="700" font-size="83" transform="matrix(1 0 0 1 1691.59 1048)">Series / Default</text><text font-family="Calibri,Calibri_MSFontService,sans-serif" font-weight="700" font-size="83" transform="matrix(1 0 0 1 2611.14 1048)">48</text><text font-family="Calibri,Calibri_MSFontService,sans-serif" font-weight="700" font-size="83" transform="matrix(1 0 0 1 2897.57 1048)">48</text><text font-family="Calibri,Calibri_MSFontService,sans-serif" font-weight="700" font-size="83" transform="matrix(1 0 0 1 3188.85 1048)">60</text><text font-family="Calibri,Calibri_MSFontService,sans-serif" font-weight="700" font-size="83" transform="matrix(1 0 0 1 3480.13 1048)">60</text><g clip-path="url(#clip11)"><text font-family="Calibri,Calibri_MSFontService,sans-serif" font-weight="700" font-size="83" transform="matrix(1 0 0 1 1010.78 1235)">Demand </text></g><text font-family="Calibri,Calibri_MSFontService,sans-serif" font-weight="700" font-size="83" transform="matrix(1 0 0 1 1319.01 1235)">category</text><text font-family="Calibri,Calibri_MSFontService,sans-serif" font-weight="700" font-size="83" transform="matrix(1 0 0 1 1631.43 1235)">= </text><text font-family="Calibri,Calibri_MSFontService,sans-serif" font-weight="700" font-size="83" transform="matrix(1 0 0 1 1691.59 1235)">Extraordinary</text><g clip-path="url(#clip12)"><text font-family="Calibri,Calibri_MSFontService,sans-serif" font-weight="700" font-size="83" transform="matrix(1 0 0 1 2174.97 1235)">Demand</text></g><text font-family="Calibri,Calibri_MSFontService,sans-serif" font-weight="700" font-size="83" transform="matrix(1 0 0 1 2611.14 1235)">12</text><text font-family="Calibri,Calibri_MSFontService,sans-serif" font-weight="700" font-size="83" transform="matrix(1 0 0 1 2897.57 1235)">12</text><text font-family="Calibri,Calibri_MSFontService,sans-serif" font-weight="700" font-size="83" transform="matrix(1 0 0 1 3209.76 1235)">5</text><text font-family="Calibri,Calibri_MSFontService,sans-serif" font-weight="700" font-size="83" transform="matrix(1 0 0 1 3501.04 1235)">5</text><g clip-path="url(#clip13)"><text font-family="Calibri,Calibri_MSFontService,sans-serif" font-weight="400" font-size="83" transform="matrix(1 0 0 1 407.672 1554)">To supplier</text></g><text font-family="Calibri,Calibri_MSFontService,sans-serif" font-weight="400" font-size="83" transform="matrix(1 0 0 1 792.214 1554)">#2 </text><g clip-path="url(#clip14)"><text font-family="Calibri,Calibri_MSFontService,sans-serif" font-weight="400" font-size="83" transform="matrix(1 0 0 1 407.672 1653)">(40%)</text></g><g clip-path="url(#clip15)"><text font-family="Calibri,Calibri_MSFontService,sans-serif" font-weight="400" font-size="83" transform="matrix(1 0 0 1 1010.78 1422)">Call</text></g><text font-family="Calibri,Calibri_MSFontService,sans-serif" font-weight="400" font-size="83" transform="matrix(1 0 0 1 1132.24 1422)">-</text><text font-family="Calibri,Calibri_MSFontService,sans-serif" font-weight="400" font-size="83" transform="matrix(1 0 0 1 1157.45 1422)">off / </text><text font-family="Calibri,Calibri_MSFontService,sans-serif" font-weight="400" font-size="83" transform="matrix(1 0 0 1 1320.5 1422)">order</text><text font-family="Calibri,Calibri_MSFontService,sans-serif" font-weight="400" font-size="83" transform="matrix(1 0 0 1 1523.91 1422)">amount</text><text font-family="Calibri,Calibri_MSFontService,sans-serif" font-weight="400" font-size="83" transform="matrix(1 0 0 1 2611.14 1422)">40</text><text font-family="Calibri,Calibri_MSFontService,sans-serif" font-weight="400" font-size="83" transform="matrix(1 0 0 1 2897.57 1422)">40</text><text font-family="Calibri,Calibri_MSFontService,sans-serif" font-weight="400" font-size="83" transform="matrix(1 0 0 1 3188.85 1422)">40</text><text font-family="Calibri,Calibri_MSFontService,sans-serif" font-weight="400" font-size="83" transform="matrix(1 0 0 1 3459.22 1422)">400</text><g clip-path="url(#clip16)"><text font-family="Calibri,Calibri_MSFontService,sans-serif" font-weight="700" font-size="83" transform="matrix(1 0 0 1 1010.78 1604)">Demand </text></g><text font-family="Calibri,Calibri_MSFontService,sans-serif" font-weight="700" font-size="83" transform="matrix(1 0 0 1 1319.01 1604)">category</text><text font-family="Calibri,Calibri_MSFontService,sans-serif" font-weight="700" font-size="83" transform="matrix(1 0 0 1 1631.43 1604)">= </text><text font-family="Calibri,Calibri_MSFontService,sans-serif" font-weight="700" font-size="83" transform="matrix(1 0 0 1 1691.59 1604)">Series / Default</text><text font-family="Calibri,Calibri_MSFontService,sans-serif" font-weight="700" font-size="83" transform="matrix(1 0 0 1 2611.14 1604)">32</text><text font-family="Calibri,Calibri_MSFontService,sans-serif" font-weight="700" font-size="83" transform="matrix(1 0 0 1 2897.57 1604)">32</text><text font-family="Calibri,Calibri_MSFontService,sans-serif" font-weight="700" font-size="83" transform="matrix(1 0 0 1 3188.85 1604)">40</text><text font-family="Calibri,Calibri_MSFontService,sans-serif" font-weight="700" font-size="83" transform="matrix(1 0 0 1 3480.13 1604)">40</text><g clip-path="url(#clip17)"><text font-family="Calibri,Calibri_MSFontService,sans-serif" font-weight="700" font-size="83" transform="matrix(1 0 0 1 1010.78 1786)">Demand </text></g><text font-family="Calibri,Calibri_MSFontService,sans-serif" font-weight="700" font-size="83" transform="matrix(1 0 0 1 1319.01 1786)">category</text><text font-family="Calibri,Calibri_MSFontService,sans-serif" font-weight="700" font-size="83" transform="matrix(1 0 0 1 1631.43 1786)">= </text><text font-family="Calibri,Calibri_MSFontService,sans-serif" font-weight="700" font-size="83" transform="matrix(1 0 0 1 1691.59 1786)">Extraordinary</text><g clip-path="url(#clip18)"><text font-family="Calibri,Calibri_MSFontService,sans-serif" font-weight="700" font-size="83" transform="matrix(1 0 0 1 2174.97 1786)">Demand</text></g><text font-family="Calibri,Calibri_MSFontService,sans-serif" font-weight="700" font-size="83" transform="matrix(1 0 0 1 2632.05 1786)">8</text><text font-family="Calibri,Calibri_MSFontService,sans-serif" font-weight="700" font-size="83" transform="matrix(1 0 0 1 2918.48 1786)">8</text><text font-family="Calibri,Calibri_MSFontService,sans-serif" font-weight="700" font-size="83" transform="matrix(1 0 0 1 3209.76 1786)">5</text><text font-family="Calibri,Calibri_MSFontService,sans-serif" font-weight="700" font-size="83" transform="matrix(1 0 0 1 3501.04 1786)">5</text><g clip-path="url(#clip19)"><text font-family="Calibri,Calibri_MSFontService,sans-serif" font-weight="400" font-size="83" transform="matrix(1 0 0 1 407.672 1967)">End of day Item Stock</text></g><text font-family="Calibri,Calibri_MSFontService,sans-serif" font-weight="400" font-size="83" transform="matrix(1 0 0 1 2611.14 1967)">20</text><text font-family="Calibri,Calibri_MSFontService,sans-serif" font-weight="400" font-size="83" transform="matrix(1 0 0 1 2897.57 1967)">40</text><text font-family="Calibri,Calibri_MSFontService,sans-serif" font-weight="400" font-size="83" transform="matrix(1 0 0 1 3188.85 1967)">40</text><text font-family="Calibri,Calibri_MSFontService,sans-serif" font-weight="400" font-size="83" transform="matrix(1 0 0 1 3480.13 1967)">40</text><rect x="2054.5" y="2050.5" width="122" height="75" stroke="#41719C" stroke-width="4.58333" stroke-miterlimit="8" fill="#FFA602"/><text font-family="Calibri,Calibri_MSFontService,sans-serif" font-weight="400" font-size="64" transform="matrix(1 0 0 1 2209.33 2107)">Transferable </text><text font-family="Calibri,Calibri_MSFontService,sans-serif" font-style="italic" font-weight="400" font-size="64" transform="matrix(1 0 0 1 2544.28 2107)">Short</text><text font-family="Calibri,Calibri_MSFontService,sans-serif" font-style="italic" font-weight="400" font-size="64" transform="matrix(1 0 0 1 2682.92 2107)">-</text><text font-family="Calibri,Calibri_MSFontService,sans-serif" font-style="italic" font-weight="400" font-size="64" transform="matrix(1 0 0 1 2702.4 2107)">Term Material Demand </text><text font-family="Calibri,Calibri_MSFontService,sans-serif" font-weight="400" font-size="64" transform="matrix(1 0 0 1 3319.62 2107)">Information</text></g></svg>