<svg xmlns="http://www.w3.org/2000/svg" width="460" height="298" preserveAspectRatio="none" style="width:460px;height:298px;background:#fff"><path fill="#DDD" d="M10 6h103v286.195H10z" style="stroke:#181818;stroke-width:.5"/><text x="13" y="19.495" font-family="sans-serif" font-size="13" font-weight="bold" textLength="97">Data Consumer</text><path fill="#DDD" d="M227 6h93v286.195h-93z" style="stroke:#181818;stroke-width:.5"/><text x="230" y="19.495" font-family="sans-serif" font-size="13" font-weight="bold" textLength="87">Data Provider</text><path fill="#FFF" d="M268.5 137.273h10v76.703h-10z" style="stroke:#181818;stroke-width:1"/><path fill="none" d="M10 93.57h444.5v128.406H10z" style="stroke:#000;stroke-width:1.5"/><path d="M61 76.57v162.407M273 76.57v162.407" style="stroke:#181818;stroke-width:.5;stroke-dasharray:5,5"/><rect width="83" height="49.219" x="20" y="26.352" fill="#E2E2F0" rx="2.5" ry="2.5" style="stroke:#181818;stroke-width:.5"/><text x="33" y="47.885" font-family="sans-serif" font-size="14" textLength="57">Business</text><text x="27" y="65.494" font-family="sans-serif" font-size="14" textLength="69">Application</text><rect width="83" height="49.219" x="20" y="237.977" fill="#E2E2F0" rx="2.5" ry="2.5" style="stroke:#181818;stroke-width:.5"/><text x="33" y="259.51" font-family="sans-serif" font-size="14" textLength="57">Business</text><text x="27" y="277.119" font-family="sans-serif" font-size="14" textLength="69">Application</text><rect width="83" height="49.219" x="232" y="26.352" fill="#E2E2F0" rx="2.5" ry="2.5" style="stroke:#181818;stroke-width:.5"/><text x="245" y="47.885" font-family="sans-serif" font-size="14" textLength="57">Business</text><text x="239" y="65.494" font-family="sans-serif" font-size="14" textLength="69">Application</text><rect width="83" height="49.219" x="232" y="237.977" fill="#E2E2F0" rx="2.5" ry="2.5" style="stroke:#181818;stroke-width:.5"/><text x="245" y="259.51" font-family="sans-serif" font-size="14" textLength="57">Business</text><text x="239" y="277.119" font-family="sans-serif" font-size="14" textLength="69">Application</text><path fill="#FFF" d="M268.5 137.273h10v76.703h-10z" style="stroke:#181818;stroke-width:1"/><path fill="#EEE" d="M10 93.57h61v8.352l-10 10H10V93.57" style="stroke:#000;stroke-width:1.5"/><path fill="none" d="M10 93.57h444.5v128.406H10z" style="stroke:#000;stroke-width:1.5"/><text x="25" y="108.065" font-family="sans-serif" font-size="13" font-weight="bold" textLength="16">alt</text><text x="86" y="106.989" font-family="sans-serif" font-size="11" font-weight="bold" textLength="338">[OPTIONAL: Check status of a &quot;Delivery Information Request&quot;]</text><path fill="#181818" d="m256.5 133.273 10 4-10 4 4-4z" style="stroke:#181818;stroke-width:1"/><path d="M61.5 137.273h201" style="stroke:#181818;stroke-width:1"/><text x="105.5" y="132.417" font-family="sans-serif" font-size="13" font-weight="bold" textLength="7">1</text><text x="116.5" y="132.417" font-family="sans-serif" font-size="13" textLength="108">Get request status</text><path fill="#FEFFDD" d="M283 116.922v26h166v-16l-10-10H283" style="stroke:#181818;stroke-width:.5"/><path fill="#FEFFDD" d="M439 116.922v10h10l-10-10" style="stroke:#181818;stroke-width:.5"/><text x="289" y="135.417" font-family="sans-serif" font-size="13" textLength="145">Request Status Endpoint</text><path d="M278.5 170.625h42m0 0v13m-41 0h41" style="stroke:#181818;stroke-width:1"/><path fill="#181818" d="m289.5 179.625-10 4 10 4-4-4z" style="stroke:#181818;stroke-width:1"/><text x="285.5" y="165.769" font-family="sans-serif" font-size="13" font-weight="bold" textLength="7">2</text><text x="296.5" y="165.769" font-family="sans-serif" font-size="13" textLength="146">Determine request status</text><path fill="#181818" d="m72.5 209.977-10 4 10 4-4-4z" style="stroke:#181818;stroke-width:1"/><path d="M66.5 213.977h206" style="stroke:#181818;stroke-width:1"/><text x="79.5" y="209.12" font-family="sans-serif" font-size="13" font-weight="bold" textLength="7">3</text><text x="90.5" y="209.12" font-family="sans-serif" font-size="13" textLength="165">Respond with request status</text></svg>