<?xml version="1.0" encoding="UTF-8" standalone="no"?><svg xmlns="http://www.w3.org/2000/svg" xmlns:xlink="http://www.w3.org/1999/xlink" contentStyleType="text/css" height="178.6458px" preserveAspectRatio="none" style="width:222px;height:178px;background:#FFFFFF;" version="1.1" viewBox="0 0 222 178" width="222.9167px" zoomAndPan="magnify"><defs/><g><!--MD5=[5c2310ec698d1da475648c15275cd765]
cluster Address and References--><g id="cluster_Address and References"><path d="M4.4271,3.125 L95.5729,3.125 A1.9531,1.9531 0 0 1 96.875,4.4271 L100.5208,15.4215 L217.9688,15.4215 A1.3021,1.3021 0 0 1 219.2708,16.7236 L219.2708,173.6979 A1.3021,1.3021 0 0 1 217.9688,175 L4.4271,175 A1.3021,1.3021 0 0 1 3.125,173.6979 L3.125,4.4271 A1.3021,1.3021 0 0 1 4.4271,3.125 " style="stroke:#000000;stroke-width:0.78125;fill:none;"/><line style="stroke:#000000;stroke-width:0.78125;fill:none;" x1="3.125" x2="100.5208" y1="15.4215" y2="15.4215"/><text fill="#000000" font-family="sans-serif" font-size="7.2917" font-weight="bold" lengthAdjust="spacing" textLength="90.625" x="5.2083" y="11.736">Address and References</text></g><!--MD5=[e50f24c143873ab5352ff9f9e3841676]
class LegalEntity--><g id="elem_LegalEntity"><rect codeLine="5" fill="#F1F1F1" height="16.6667" id="LegalEntity" rx="1.3021" ry="1.3021" style="stroke:#181818;stroke-width:0.2604166666666667;" width="53.125" x="20.8333" y="21.875"/><ellipse cx="28.6458" cy="30.2083" fill="#ADD1B2" rx="5.7292" ry="5.7292" style="stroke:#181818;stroke-width:0.5208333333333334;"/><path d="M28.0518,30.6234 L28.0518,31.9255 L30.306,31.9255 L30.306,31.4453 Q30.306,31.1279 30.4281,30.9896 Q30.5583,30.8512 30.7536,30.8512 Q30.9489,30.8512 31.071,30.9896 Q31.193,31.1279 31.193,31.4453 L31.193,32.8125 L27.0264,32.8125 Q26.7008,32.8125 26.5625,32.6904 Q26.4323,32.5684 26.4323,32.3649 Q26.4323,32.1696 26.5706,32.0475 Q26.709,31.9255 27.0264,31.9255 L27.1647,31.9255 L27.1647,28.4587 L27.0264,28.4587 Q26.7008,28.4587 26.5625,28.3366 Q26.4323,28.2145 26.4323,28.0111 Q26.4323,27.8158 26.5625,27.6937 Q26.7008,27.5716 27.0264,27.5716 L30.9977,27.5716 L30.9977,28.9225 Q30.9977,29.2399 30.8757,29.3783 Q30.7617,29.5085 30.5583,29.5085 Q30.363,29.5085 30.2409,29.3783 Q30.1188,29.2399 30.1188,28.9225 L30.1188,28.4587 L28.0518,28.4587 L28.0518,29.7363 L28.8249,29.7363 Q28.8249,29.3945 28.89,29.2969 Q29.0283,29.0853 29.2725,29.0853 Q29.4678,29.0853 29.5898,29.2236 Q29.7119,29.3538 29.7119,29.6712 L29.7119,30.6966 Q29.7119,30.9814 29.6468,31.0791 Q29.5085,31.2826 29.2725,31.2826 Q29.0283,31.2826 28.89,31.071 Q28.8249,30.9733 28.8249,30.6234 L28.0518,30.6234 Z " fill="#000000"/><text fill="#000000" font-family="sans-serif" font-size="7.2917" lengthAdjust="spacing" textLength="36.4583" x="35.9375" y="33.1919">LegalEntity</text></g><!--MD5=[7eeb4b838a05227218a56e467b2beb72]
class Site--><g id="elem_Site"><rect codeLine="7" fill="#F1F1F1" height="16.6667" id="Site" rx="1.3021" ry="1.3021" style="stroke:#181818;stroke-width:0.2604166666666667;" width="29.1667" x="138.0208" y="21.875"/><ellipse cx="145.8333" cy="30.2083" fill="#ADD1B2" rx="5.7292" ry="5.7292" style="stroke:#181818;stroke-width:0.5208333333333334;"/><path d="M145.2393,30.6234 L145.2393,31.9255 L147.4935,31.9255 L147.4935,31.4453 Q147.4935,31.1279 147.6156,30.9896 Q147.7458,30.8512 147.9411,30.8512 Q148.1364,30.8512 148.2585,30.9896 Q148.3805,31.1279 148.3805,31.4453 L148.3805,32.8125 L144.2139,32.8125 Q143.8883,32.8125 143.75,32.6904 Q143.6198,32.5684 143.6198,32.3649 Q143.6198,32.1696 143.7581,32.0475 Q143.8965,31.9255 144.2139,31.9255 L144.3522,31.9255 L144.3522,28.4587 L144.2139,28.4587 Q143.8883,28.4587 143.75,28.3366 Q143.6198,28.2145 143.6198,28.0111 Q143.6198,27.8158 143.75,27.6937 Q143.8883,27.5716 144.2139,27.5716 L148.1852,27.5716 L148.1852,28.9225 Q148.1852,29.2399 148.0632,29.3783 Q147.9492,29.5085 147.7458,29.5085 Q147.5505,29.5085 147.4284,29.3783 Q147.3063,29.2399 147.3063,28.9225 L147.3063,28.4587 L145.2393,28.4587 L145.2393,29.7363 L146.0124,29.7363 Q146.0124,29.3945 146.0775,29.2969 Q146.2158,29.0853 146.46,29.0853 Q146.6553,29.0853 146.7773,29.2236 Q146.8994,29.3538 146.8994,29.6712 L146.8994,30.6966 Q146.8994,30.9814 146.8343,31.0791 Q146.696,31.2826 146.46,31.2826 Q146.2158,31.2826 146.0775,31.071 Q146.0124,30.9733 146.0124,30.6234 L145.2393,30.6234 Z " fill="#000000"/><text fill="#000000" font-family="sans-serif" font-size="7.2917" lengthAdjust="spacing" textLength="12.5" x="153.125" y="33.1919">Site</text></g><!--MD5=[0f39e4cb6f03951afbf6d14bd2505654]
class Address--><g id="elem_Address"><rect codeLine="9" fill="#F1F1F1" height="39.1764" id="Address" rx="1.3021" ry="1.3021" style="stroke:#181818;stroke-width:0.2604166666666667;" width="43.75" x="90.1042" y="79.1667"/><ellipse cx="97.9167" cy="87.5" fill="#ADD1B2" rx="5.7292" ry="5.7292" style="stroke:#181818;stroke-width:0.5208333333333334;"/><path d="M97.3226,87.915 L97.3226,89.2171 L99.5768,89.2171 L99.5768,88.737 Q99.5768,88.4196 99.6989,88.2813 Q99.8291,88.1429 100.0244,88.1429 Q100.2197,88.1429 100.3418,88.2813 Q100.4639,88.4196 100.4639,88.737 L100.4639,90.1042 L96.2972,90.1042 Q95.9717,90.1042 95.8333,89.9821 Q95.7031,89.86 95.7031,89.6566 Q95.7031,89.4613 95.8415,89.3392 Q95.9798,89.2171 96.2972,89.2171 L96.4355,89.2171 L96.4355,85.7503 L96.2972,85.7503 Q95.9717,85.7503 95.8333,85.6283 Q95.7031,85.5062 95.7031,85.3027 Q95.7031,85.1074 95.8333,84.9854 Q95.9717,84.8633 96.2972,84.8633 L100.2686,84.8633 L100.2686,86.2142 Q100.2686,86.5316 100.1465,86.6699 Q100.0326,86.8001 99.8291,86.8001 Q99.6338,86.8001 99.5117,86.6699 Q99.3896,86.5316 99.3896,86.2142 L99.3896,85.7503 L97.3226,85.7503 L97.3226,87.028 L98.0957,87.028 Q98.0957,86.6862 98.1608,86.5885 Q98.2992,86.377 98.5433,86.377 Q98.7386,86.377 98.8607,86.5153 Q98.9827,86.6455 98.9827,86.9629 L98.9827,87.9883 Q98.9827,88.2731 98.9176,88.3708 Q98.7793,88.5742 98.5433,88.5742 Q98.2992,88.5742 98.1608,88.3626 Q98.0957,88.265 98.0957,87.915 L97.3226,87.915 Z " fill="#000000"/><text fill="#000000" font-family="sans-serif" font-size="7.2917" lengthAdjust="spacing" textLength="27.0833" x="105.2083" y="90.4836">Address</text><line style="stroke:#181818;stroke-width:0.2604166666666667;" x1="90.625" x2="133.3333" y1="95.8333" y2="95.8333"/><text fill="#000000" font-family="sans-serif" font-size="7.2917" lengthAdjust="spacing" textLength="18.75" x="93.2292" y="105.486">BPNA</text><text fill="#000000" font-family="sans-serif" font-size="7.2917" lengthAdjust="spacing" textLength="6.25" x="93.2292" y="114.6576">...</text></g><!--MD5=[8ea1c6e284da3f70072a23652f28b26a]
class LegalAddress--><g id="elem_LegalAddress"><rect codeLine="14" fill="#F1F1F1" height="16.6667" id="LegalAddress" rx="1.3021" ry="1.3021" style="stroke:#181818;stroke-width:0.2604166666666667;" width="61.9792" x="24.2188" y="150"/><ellipse cx="32.0313" cy="158.3333" fill="#ADD1B2" rx="5.7292" ry="5.7292" style="stroke:#181818;stroke-width:0.5208333333333334;"/><path d="M33.4717,156.1849 Q33.5531,156.071 33.6507,156.014 Q33.7484,155.957 33.8623,155.957 Q34.0576,155.957 34.1797,156.0954 Q34.3018,156.2256 34.3018,156.543 L34.3018,157.2998 Q34.3018,157.6172 34.1797,157.7555 Q34.0576,157.8939 33.8623,157.8939 Q33.6833,157.8939 33.5775,157.7881 Q33.4717,157.6904 33.4147,157.4219 Q33.3903,157.2347 33.2926,157.137 Q33.1217,156.9417 32.8044,156.8278 Q32.487,156.7139 32.1615,156.7139 Q31.7627,156.7139 31.429,156.8848 Q31.1035,157.0557 30.8431,157.4463 Q30.5908,157.8369 30.5908,158.374 L30.5908,158.9437 Q30.5908,159.5866 31.0547,160.0179 Q31.5186,160.4411 32.3486,160.4411 Q32.8369,160.4411 33.1787,160.3109 Q33.3822,160.2295 33.6019,160.0016 Q33.7402,159.8633 33.8135,159.8226 Q33.8949,159.7819 34.0007,159.7819 Q34.1715,159.7819 34.3018,159.9202 Q34.4401,160.0505 34.4401,160.2295 Q34.4401,160.4085 34.2611,160.6201 Q34.0007,160.9212 33.5856,161.0921 Q33.0241,161.3281 32.3486,161.3281 Q31.5592,161.3281 30.9326,161.0026 Q30.4199,160.7422 30.0618,160.1888 Q29.7038,159.6273 29.7038,158.96 L29.7038,158.3577 Q29.7038,157.666 30.0212,157.0719 Q30.3467,156.4697 30.9163,156.1523 Q31.486,155.8268 32.1289,155.8268 Q32.5114,155.8268 32.8451,155.9163 Q33.1868,155.9977 33.4717,156.1849 Z " fill="#000000"/><text fill="#000000" font-family="sans-serif" font-size="7.2917" lengthAdjust="spacing" textLength="45.3125" x="39.3229" y="161.3169">LegalAddress</text></g><!--MD5=[115e4b36702e2bf9d36eea1b60469e9e]
class MainAddress--><g id="elem_MainAddress"><rect codeLine="16" fill="#F1F1F1" height="16.6667" id="MainAddress" rx="1.3021" ry="1.3021" style="stroke:#181818;stroke-width:0.2604166666666667;" width="59.375" x="128.6458" y="150"/><ellipse cx="136.4583" cy="158.3333" fill="#ADD1B2" rx="5.7292" ry="5.7292" style="stroke:#181818;stroke-width:0.5208333333333334;"/><path d="M137.8988,156.1849 Q137.9801,156.071 138.0778,156.014 Q138.1755,155.957 138.2894,155.957 Q138.4847,155.957 138.6068,156.0954 Q138.7288,156.2256 138.7288,156.543 L138.7288,157.2998 Q138.7288,157.6172 138.6068,157.7555 Q138.4847,157.8939 138.2894,157.8939 Q138.1104,157.8939 138.0046,157.7881 Q137.8988,157.6904 137.8418,157.4219 Q137.8174,157.2347 137.7197,157.137 Q137.5488,156.9417 137.2314,156.8278 Q136.9141,156.7139 136.5885,156.7139 Q136.1898,156.7139 135.8561,156.8848 Q135.5306,157.0557 135.2702,157.4463 Q135.0179,157.8369 135.0179,158.374 L135.0179,158.9437 Q135.0179,159.5866 135.4818,160.0179 Q135.9456,160.4411 136.7757,160.4411 Q137.264,160.4411 137.6058,160.3109 Q137.8092,160.2295 138.029,160.0016 Q138.1673,159.8633 138.2406,159.8226 Q138.3219,159.7819 138.4277,159.7819 Q138.5986,159.7819 138.7288,159.9202 Q138.8672,160.0505 138.8672,160.2295 Q138.8672,160.4085 138.6882,160.6201 Q138.4277,160.9212 138.0127,161.0921 Q137.4512,161.3281 136.7757,161.3281 Q135.9863,161.3281 135.3597,161.0026 Q134.847,160.7422 134.4889,160.1888 Q134.1309,159.6273 134.1309,158.96 L134.1309,158.3577 Q134.1309,157.666 134.4482,157.0719 Q134.7738,156.4697 135.3434,156.1523 Q135.9131,155.8268 136.556,155.8268 Q136.9385,155.8268 137.2721,155.9163 Q137.6139,155.9977 137.8988,156.1849 Z " fill="#000000"/><text fill="#000000" font-family="sans-serif" font-size="7.2917" lengthAdjust="spacing" textLength="42.7083" x="143.75" y="161.3169">MainAddress</text></g><!--MD5=[96b3cf7be3ca839081af2b043f0dbdf0]
reverse link LegalEntity to Address--><g id="link_LegalEntity_Address"><path codeLine="18" d="M59.7031,43.5833 C69.3281,53.6354 82.8542,67.7604 93.7396,79.125 " fill="none" id="LegalEntity-backto-Address" style="stroke:#181818;stroke-width:0.5208333333333334;"/><polygon fill="none" points="54.9323,38.599,55.5915,42.2964,59.258,43.1101,58.5989,39.4126,54.9323,38.599" style="stroke:#181818;stroke-width:0.5208333333333334;"/><text fill="#000000" font-family="sans-serif" font-size="6.7708" lengthAdjust="spacing" textLength="47.9167" x="78.125" y="61.7162">LegalEntityBPN</text><text fill="#000000" font-family="sans-serif" font-size="6.7708" lengthAdjust="spacing" textLength="3.6458" x="53.1076" y="49.6595">1</text><text fill="#000000" font-family="sans-serif" font-size="6.7708" lengthAdjust="spacing" textLength="10.4167" x="78.9997" y="73.4498">1..*</text></g><!--MD5=[51c9a53bad0c1fb11ddd3126427e8464]
reverse link Site to Address--><g id="link_Site_Address"><path codeLine="19" d="M144.3542,44.4271 C138.3385,54.4115 130.1094,68.0781 123.4531,79.125 " fill="none" id="Site-backto-Address" style="stroke:#181818;stroke-width:0.5208333333333334;"/><polygon fill="none" points="147.8646,38.599,144.4688,40.2036,144.6439,43.9553,148.0397,42.3507,147.8646,38.599" style="stroke:#181818;stroke-width:0.5208333333333334;"/><text fill="#000000" font-family="sans-serif" font-size="6.7708" lengthAdjust="spacing" textLength="26.0417" x="138.5417" y="61.7162">SiteBPN</text><text fill="#000000" font-family="sans-serif" font-size="6.7708" lengthAdjust="spacing" textLength="11.4583" x="133.0693" y="49.6595">0..1</text><text fill="#000000" font-family="sans-serif" font-size="6.7708" lengthAdjust="spacing" textLength="10.4167" x="114.1917" y="73.4498">1..*</text></g><!--MD5=[aec822756c2d0220dfc0b84f804ea39f]
link LegalEntity to LegalAddress--><g id="link_LegalEntity_LegalAddress"><path codeLine="21" d="M45.099,38.7656 C41.0104,54.2708 33.3958,89.3281 39.0625,118.2292 C41.0885,128.5677 45.8333,139.6094 49.6563,147.401 " fill="none" id="LegalEntity-to-LegalAddress" style="stroke:#181818;stroke-width:0.5208333333333334;"/><polygon fill="#181818" points="50.9115,149.9115,50.672,144.7874,49.7439,147.5837,46.9476,146.6556,50.9115,149.9115" style="stroke:#181818;stroke-width:0.5208333333333334;"/><text fill="#000000" font-family="sans-serif" font-size="6.7708" lengthAdjust="spacing" textLength="41.1458" x="39.5833" y="101.56">LegalAddress</text><text fill="#000000" font-family="sans-serif" font-size="6.7708" lengthAdjust="spacing" textLength="3.6458" x="40.1914" y="49.7191">1</text><text fill="#000000" font-family="sans-serif" font-size="6.7708" lengthAdjust="spacing" textLength="3.6458" x="45.1619" y="144.311">1</text></g><!--MD5=[76d5bc540cc206429460adf03920e9af]
reverse link Address to LegalAddress--><g id="link_Address_LegalAddress"><path codeLine="22" d="M86.224,125.8021 C77.7083,134.5885 68.875,143.7083 62.8229,149.9531 " fill="none" id="Address-backto-LegalAddress" style="stroke:#181818;stroke-width:0.5208333333333334;"/><polygon fill="none" points="83.6823,123.1875,93.5469,118.2448,88.9167,128.2604,83.6823,123.1875" style="stroke:#181818;stroke-width:0.5208333333333334;"/></g><!--MD5=[7e0a9fcfd0b26f43f0b6dc2edcb43379]
link Site to MainAddress--><g id="link_Site_MainAddress"><path codeLine="24" d="M159.3177,38.6146 C162.5313,42.9115 166.0417,48.5 167.7083,54.1667 C177.4063,87.125 167.526,128.3021 161.8021,147.3073 " fill="none" id="Site-to-MainAddress" style="stroke:#181818;stroke-width:0.5208333333333334;"/><polygon fill="#181818" points="160.9896,149.9479,164.3618,146.0825,161.757,147.4594,160.3801,144.8546,160.9896,149.9479" style="stroke:#181818;stroke-width:0.5208333333333334;"/><text fill="#000000" font-family="sans-serif" font-size="6.7708" lengthAdjust="spacing" textLength="39.5833" x="171.875" y="101.56">MainAddress</text><text fill="#000000" font-family="sans-serif" font-size="6.7708" lengthAdjust="spacing" textLength="3.6458" x="157.2308" y="49.6801">1</text><text fill="#000000" font-family="sans-serif" font-size="6.7708" lengthAdjust="spacing" textLength="3.6458" x="157.6302" y="144.36">1</text></g><!--MD5=[a869baed92e5b2b36e9f3d7159b00aa7]
reverse link Address to MainAddress--><g id="link_Address_MainAddress"><path codeLine="25" d="M133.5365,126.4688 C140.3229,135.0469 147.3021,143.8646 152.1146,149.9531 " fill="none" id="Address-backto-MainAddress" style="stroke:#181818;stroke-width:0.5208333333333334;"/><polygon fill="none" points="130.6302,128.6719,127.0313,118.2448,136.349,124.151,130.6302,128.6719" style="stroke:#181818;stroke-width:0.5208333333333334;"/></g><!--MD5=[4eee93a72d2b97e6a60c45b890f796c5]
@startuml address-simple

skinparam dpi 50

package "Address and References" {
  entity LegalEntity {}
  
  entity Site {}
  
  entity Address {
    BPNA
    ...
  }

  class LegalAddress {}

  class MainAddress {}

  Address "1..*" -u-o "1" LegalEntity : LegalEntityBPN
  Address "1..*" -u-o "0..1" Site: SiteBPN

  LegalEntity "1" - -> "1" LegalAddress : LegalAddress
  LegalAddress -u-|> Address

  Site "1" - -> "1" MainAddress : MainAddress    
  MainAddress -u-|> Address
}

hide methods
hide LegalAddress members
hide MainAddress members
hide LegalEntity members
hide Site members
@enduml

PlantUML version 1.2022.5(Sat Apr 30 12:55:52 CEST 2022)
(GPL source distribution)
Java Runtime: OpenJDK Runtime Environment
JVM: OpenJDK 64-Bit Server VM
Default Encoding: Cp1252
Language: en
Country: GB
--></g></svg>