<svg xmlns="http://www.w3.org/2000/svg" width="1439" height="1301" preserveAspectRatio="none" style="width:1439px;height:1301px;background:#fff"><path fill="none" d="M505 10h421v27.609H505z" style="stroke:none;stroke-width:1"/><text x="510" y="29.533" font-family="sans-serif" font-size="14" font-weight="bold" textLength="411">Shared Digital Twin Approach - Lookup of IC Part Type Twin</text><path fill="#ADD8E6" d="M1 44.609h694v1250.93H1z" style="stroke:#181818;stroke-width:.5"/><text x="321" y="58.105" font-family="sans-serif" font-size="13" font-weight="bold" textLength="54">Supplier</text><path fill="#90EE90" d="M773 44.609h647.5v1250.93H773z" style="stroke:#181818;stroke-width:.5"/><text x="1066.75" y="58.105" font-family="sans-serif" font-size="13" font-weight="bold" textLength="60">Customer</text><path fill="#FFF" d="M646 332.031h10v60.703h-10zm0 91.055h10v60.703h-10zm0 485.977h10v60.703h-10zm0 91.054h10v60.703h-10zm166-485.976h10v107.406h-10zm0 213.812h10v107.406h-10zm0 363.219h10v107.406h-10zm353-864.195h10v30.352h-10zm0 910.898h10v30.352h-10zm104-577.031h10v30.352h-10zm0 213.812h10v30.352h-10z" style="stroke:#181818;stroke-width:1"/><path d="M46 97.57v1162.36M428 97.57v1162.36M532 97.57v1162.36M651 97.57v1162.36M817 97.57v1162.36M1169.5 97.57v1162.36m104-1162.36v1162.36m101-1162.36v1162.36" style="stroke:#181818;stroke-width:.5;stroke-dasharray:5,5"/><rect width="83" height="31.609" x="5" y="64.961" fill="#E2E2F0" rx="2.5" ry="2.5" style="stroke:#181818;stroke-width:.5"/><text x="12" y="86.494" font-family="sans-serif" font-size="14" textLength="69">Application</text><rect width="83" height="31.609" x="5" y="1258.93" fill="#E2E2F0" rx="2.5" ry="2.5" style="stroke:#181818;stroke-width:.5"/><text x="12" y="1280.463" font-family="sans-serif" font-size="14" textLength="69">Application</text><rect width="51" height="31.609" x="403" y="64.961" fill="#E2E2F0" rx="2.5" ry="2.5" style="stroke:#181818;stroke-width:.5"/><text x="410" y="86.494" font-family="sans-serif" font-size="14" textLength="37">dDTR</text><rect width="51" height="31.609" x="403" y="1258.93" fill="#E2E2F0" rx="2.5" ry="2.5" style="stroke:#181818;stroke-width:.5"/><text x="410" y="1280.463" font-family="sans-serif" font-size="14" textLength="37">dDTR</text><rect width="137" height="31.609" x="464" y="64.961" fill="#E2E2F0" rx="2.5" ry="2.5" style="stroke:#181818;stroke-width:.5"/><text x="471" y="86.494" font-family="sans-serif" font-size="14" textLength="123">Submodel Endpoint</text><rect width="137" height="31.609" x="464" y="1258.93" fill="#E2E2F0" rx="2.5" ry="2.5" style="stroke:#181818;stroke-width:.5"/><text x="471" y="1280.463" font-family="sans-serif" font-size="14" textLength="123">Submodel Endpoint</text><rect width="80" height="31.609" x="611" y="64.961" fill="#E2E2F0" rx="2.5" ry="2.5" style="stroke:#181818;stroke-width:.5"/><text x="618" y="86.494" font-family="sans-serif" font-size="14" textLength="66">Connector</text><rect width="80" height="31.609" x="611" y="1258.93" fill="#E2E2F0" rx="2.5" ry="2.5" style="stroke:#181818;stroke-width:.5"/><text x="618" y="1280.463" font-family="sans-serif" font-size="14" textLength="66">Connector</text><rect width="80" height="31.609" x="777" y="64.961" fill="#E2E2F0" rx="2.5" ry="2.5" style="stroke:#181818;stroke-width:.5"/><text x="784" y="86.494" font-family="sans-serif" font-size="14" textLength="66">Connector</text><rect width="80" height="31.609" x="777" y="1258.93" fill="#E2E2F0" rx="2.5" ry="2.5" style="stroke:#181818;stroke-width:.5"/><text x="784" y="1280.463" font-family="sans-serif" font-size="14" textLength="66">Connector</text><rect width="137" height="31.609" x="1101.5" y="64.961" fill="#E2E2F0" rx="2.5" ry="2.5" style="stroke:#181818;stroke-width:.5"/><text x="1108.5" y="86.494" font-family="sans-serif" font-size="14" textLength="123">Submodel Endpoint</text><rect width="137" height="31.609" x="1101.5" y="1258.93" fill="#E2E2F0" rx="2.5" ry="2.5" style="stroke:#181818;stroke-width:.5"/><text x="1108.5" y="1280.463" font-family="sans-serif" font-size="14" textLength="123">Submodel Endpoint</text><rect width="51" height="31.609" x="1248.5" y="64.961" fill="#E2E2F0" rx="2.5" ry="2.5" style="stroke:#181818;stroke-width:.5"/><text x="1255.5" y="86.494" font-family="sans-serif" font-size="14" textLength="37">dDTR</text><rect width="51" height="31.609" x="1248.5" y="1258.93" fill="#E2E2F0" rx="2.5" ry="2.5" style="stroke:#181818;stroke-width:.5"/><text x="1255.5" y="1280.463" font-family="sans-serif" font-size="14" textLength="37">dDTR</text><rect width="83" height="31.609" x="1333.5" y="64.961" fill="#E2E2F0" rx="2.5" ry="2.5" style="stroke:#181818;stroke-width:.5"/><text x="1340.5" y="86.494" font-family="sans-serif" font-size="14" textLength="69">Application</text><rect width="83" height="31.609" x="1333.5" y="1258.93" fill="#E2E2F0" rx="2.5" ry="2.5" style="stroke:#181818;stroke-width:.5"/><text x="1340.5" y="1280.463" font-family="sans-serif" font-size="14" textLength="69">Application</text><path fill="#FFF" d="M646 332.031h10v60.703h-10zm0 91.055h10v60.703h-10zm0 485.977h10v60.703h-10zm0 91.054h10v60.703h-10zm166-485.976h10v107.406h-10zm0 213.812h10v107.406h-10zm0 363.219h10v107.406h-10zm353-864.195h10v30.352h-10zm0 910.898h10v30.352h-10zm104-577.031h10v30.352h-10zm0 213.812h10v30.352h-10z" style="stroke:#181818;stroke-width:1"/><path fill="#EEE" d="M0 128.746h1432v3H0z" style="stroke:#eee;stroke-width:1"/><path d="M0 128.746h1432m-1432 3h1432" style="stroke:#000;stroke-width:1"/><path fill="#EEE" d="M499.5 117.57h433v24.352h-433z" style="stroke:#000;stroke-width:2"/><text x="505.5" y="135.065" font-family="sans-serif" font-size="13" font-weight="bold" textLength="415">Customer updates Submodel information (repository pattern only)</text><path fill="#FEFFDD" d="M1117 156.922v42h310v-32l-10-10h-300" style="stroke:#181818;stroke-width:.5"/><path fill="#FEFFDD" d="M1417 156.922v10h10l-10-10" style="stroke:#181818;stroke-width:.5"/><text x="1151" y="175.417" font-family="sans-serif" font-size="13" textLength="233">Keeping Submodel updated only needed</text><text x="1151" y="191.769" font-family="sans-serif" font-size="13" textLength="119">for repository pattern</text><path fill="#181818" d="m1186 222.977-10 4 10 4-4-4z" style="stroke:#181818;stroke-width:1"/><path d="M1180 226.977h194" style="stroke:#181818;stroke-width:1"/><text x="1192" y="222.12" font-family="sans-serif" font-size="13" font-weight="bold" textLength="7">1</text><text x="1203" y="222.12" font-family="sans-serif" font-size="13" textLength="170">Update Submodel information</text><path fill="#181818" d="m1363 253.328 10 4-10 4 4-4z" style="stroke:#181818;stroke-width:1"/><path d="M1170 257.328h199" style="stroke:#181818;stroke-width:1;stroke-dasharray:2,2"/><text x="1177" y="252.472" font-family="sans-serif" font-size="13" font-weight="bold" textLength="7">2</text><text x="1188" y="252.472" font-family="sans-serif" font-size="13" textLength="19">OK</text><path fill="#EEE" d="M0 286.504h1432v3H0z" style="stroke:#eee;stroke-width:1"/><path d="M0 286.504h1432m-1432 3h1432" style="stroke:#000;stroke-width:1"/><path fill="#EEE" d="M545.5 275.328h341v24.352h-341z" style="stroke:#000;stroke-width:2"/><text x="551.5" y="292.823" font-family="sans-serif" font-size="13" font-weight="bold" textLength="323">Supplier reads (updated) Submodel from Customer</text><path fill="#181818" d="m634 328.031 10 4-10 4 4-4z" style="stroke:#181818;stroke-width:1"/><path d="M46.5 332.031H640" style="stroke:#181818;stroke-width:1"/><text x="53.5" y="327.175" font-family="sans-serif" font-size="13" font-weight="bold" textLength="7">3</text><text x="64.5" y="327.175" font-family="sans-serif" font-size="13" textLength="306">Query Connector Catalog for Customer dDTR access</text><path fill="#181818" d="m667 358.383-10 4 10 4-4-4zm138 0 10 4-10 4 4-4z" style="stroke:#181818;stroke-width:1"/><path d="M661 362.383h150" style="stroke:#181818;stroke-width:1"/><text x="673" y="357.526" font-family="sans-serif" font-size="13" font-weight="bold" textLength="7">4</text><text x="684" y="357.526" font-family="sans-serif" font-size="13" textLength="119">DSP communication</text><path fill="#181818" d="m57.5 388.734-10 4 10 4-4-4z" style="stroke:#181818;stroke-width:1"/><path d="M51.5 392.734H650" style="stroke:#181818;stroke-width:1;stroke-dasharray:2,2"/><text x="63.5" y="387.878" font-family="sans-serif" font-size="13" font-weight="bold" textLength="7">5</text><text x="74.5" y="387.878" font-family="sans-serif" font-size="13" textLength="44">Catalog</text><path fill="#181818" d="m634 419.086 10 4-10 4 4-4z" style="stroke:#181818;stroke-width:1"/><path d="M46.5 423.086H640" style="stroke:#181818;stroke-width:1"/><text x="53.5" y="418.229" font-family="sans-serif" font-size="13" font-weight="bold" textLength="7">6</text><text x="64.5" y="418.229" font-family="sans-serif" font-size="13" textLength="201">Negotiate Contract and init transfer</text><path fill="#181818" d="m667 449.438-10 4 10 4-4-4zm138 0 10 4-10 4 4-4z" style="stroke:#181818;stroke-width:1"/><path d="M661 453.438h150" style="stroke:#181818;stroke-width:1"/><text x="673" y="448.581" font-family="sans-serif" font-size="13" font-weight="bold" textLength="7">7</text><text x="684" y="448.581" font-family="sans-serif" font-size="13" textLength="119">DSP communication</text><path fill="#181818" d="m57.5 479.79-10 4 10 4-4-4z" style="stroke:#181818;stroke-width:1"/><path d="M51.5 483.789H650" style="stroke:#181818;stroke-width:1;stroke-dasharray:2,2"/><text x="63.5" y="478.933" font-family="sans-serif" font-size="13" font-weight="bold" textLength="7">8</text><text x="74.5" y="478.933" font-family="sans-serif" font-size="13" textLength="19">OK</text><path fill="#181818" d="m800 510.14 10 4-10 4 4-4z" style="stroke:#181818;stroke-width:1"/><path d="M46.5 514.141H806" style="stroke:#181818;stroke-width:1"/><text x="53.5" y="509.284" font-family="sans-serif" font-size="13" font-weight="bold" textLength="7">9</text><text x="64.5" y="509.284" font-family="sans-serif" font-size="13" textLength="350">Query DTR for IC Part Type Twin based on specific asset ids</text><path fill="#181818" d="m1257 556.844 10 4-10 4 4-4z" style="stroke:#181818;stroke-width:1"/><path d="M822 560.844h441" style="stroke:#181818;stroke-width:1"/><text x="829" y="547.812" font-family="sans-serif" font-size="13" font-weight="bold" textLength="14">10</text><text x="847" y="539.636" font-family="sans-serif" font-size="13" textLength="306">forward request based on Connector asset definitions</text><text x="847" y="555.987" font-family="sans-serif" font-size="13" textLength="101">(consumer proxy)</text><path fill="#181818" d="m833 587.195-10 4 10 4-4-4z" style="stroke:#181818;stroke-width:1"/><path d="M827 591.195h446" style="stroke:#181818;stroke-width:1;stroke-dasharray:2,2"/><text x="839" y="586.339" font-family="sans-serif" font-size="13" font-weight="bold" textLength="14">11</text><text x="857" y="586.339" font-family="sans-serif" font-size="13" textLength="4"> </text><path fill="#181818" d="m57.5 617.547-10 4 10 4-4-4z" style="stroke:#181818;stroke-width:1"/><path d="M51.5 621.547H816" style="stroke:#181818;stroke-width:1;stroke-dasharray:2,2"/><text x="63.5" y="616.69" font-family="sans-serif" font-size="13" font-weight="bold" textLength="14">12</text><text x="81.5" y="616.69" font-family="sans-serif" font-size="13" textLength="109">ShellDescriptor Ids</text><path d="M46.5 684.602h42m0 0v13m-41 0h41" style="stroke:#181818;stroke-width:1"/><path fill="#181818" d="m57.5 693.602-10 4 10 4-4-4z" style="stroke:#181818;stroke-width:1"/><text x="53.5" y="663.394" font-family="sans-serif" font-size="13" font-weight="bold" textLength="14">13</text><text x="71.5" y="647.042" font-family="sans-serif" font-size="13" textLength="143">select ShellDescriptor ID</text><text x="71.5" y="663.394" font-family="sans-serif" font-size="13" textLength="143">to get ShellDescriptor for</text><text x="71.5" y="679.745" font-family="sans-serif" font-size="13" textLength="102">IC Part Type Twin</text><path fill="#181818" d="m800 723.953 10 4-10 4 4-4z" style="stroke:#181818;stroke-width:1"/><path d="M46.5 727.953H806" style="stroke:#181818;stroke-width:1"/><text x="53.5" y="723.097" font-family="sans-serif" font-size="13" font-weight="bold" textLength="14">14</text><text x="71.5" y="723.097" font-family="sans-serif" font-size="13" textLength="311">Lookup IC Part Type Twin based on ShellDescriptor Id</text><path fill="#181818" d="m1257 770.656 10 4-10 4 4-4z" style="stroke:#181818;stroke-width:1"/><path d="M822 774.656h441" style="stroke:#181818;stroke-width:1"/><text x="829" y="761.624" font-family="sans-serif" font-size="13" font-weight="bold" textLength="14">15</text><text x="847" y="753.448" font-family="sans-serif" font-size="13" textLength="306">forward request based on Connector asset definitions</text><text x="847" y="769.8" font-family="sans-serif" font-size="13" textLength="101">(consumer proxy)</text><path fill="#181818" d="m833 801.008-10 4 10 4-4-4z" style="stroke:#181818;stroke-width:1"/><path d="M827 805.008h446" style="stroke:#181818;stroke-width:1;stroke-dasharray:2,2"/><text x="839" y="800.151" font-family="sans-serif" font-size="13" font-weight="bold" textLength="14">16</text><text x="857" y="800.151" font-family="sans-serif" font-size="13" textLength="4"> </text><path fill="#181818" d="m57.5 831.36-10 4 10 4-4-4z" style="stroke:#181818;stroke-width:1"/><path d="M51.5 835.359H816" style="stroke:#181818;stroke-width:1;stroke-dasharray:2,2"/><text x="63.5" y="830.503" font-family="sans-serif" font-size="13" font-weight="bold" textLength="14">17</text><text x="81.5" y="830.503" font-family="sans-serif" font-size="13" textLength="88">ShellDescriptor</text><path d="M46.5 865.711h42m0 0v13m-41 0h41" style="stroke:#181818;stroke-width:1"/><path fill="#181818" d="m57.5 874.71-10 4 10 4-4-4z" style="stroke:#181818;stroke-width:1"/><text x="53.5" y="860.855" font-family="sans-serif" font-size="13" font-weight="bold" textLength="14">18</text><text x="71.5" y="860.855" font-family="sans-serif" font-size="13" textLength="350">Extract DSP Endpoint and Connector Asset ID for Submodel</text><path fill="#181818" d="m634 905.063 10 4-10 4 4-4z" style="stroke:#181818;stroke-width:1"/><path d="M46.5 909.063H640" style="stroke:#181818;stroke-width:1"/><text x="53.5" y="904.206" font-family="sans-serif" font-size="13" font-weight="bold" textLength="14">19</text><text x="71.5" y="904.206" font-family="sans-serif" font-size="13" textLength="400">Query Connector Catalog for Submodel based on Connector Asset ID</text><path fill="#181818" d="m667 935.414-10 4 10 4-4-4zm138 0 10 4-10 4 4-4z" style="stroke:#181818;stroke-width:1"/><path d="M661 939.414h150" style="stroke:#181818;stroke-width:1"/><text x="673" y="934.558" font-family="sans-serif" font-size="13" font-weight="bold" textLength="14">20</text><text x="691" y="934.558" font-family="sans-serif" font-size="13" textLength="119">DSP communication</text><path fill="#181818" d="m57.5 965.766-10 4 10 4-4-4z" style="stroke:#181818;stroke-width:1"/><path d="M51.5 969.766H650" style="stroke:#181818;stroke-width:1;stroke-dasharray:2,2"/><text x="63.5" y="964.909" font-family="sans-serif" font-size="13" font-weight="bold" textLength="14">21</text><text x="81.5" y="964.909" font-family="sans-serif" font-size="13" textLength="44">Catalog</text><path fill="#181818" d="m634 996.117 10 4-10 4 4-4z" style="stroke:#181818;stroke-width:1"/><path d="M46.5 1000.117H640" style="stroke:#181818;stroke-width:1"/><text x="53.5" y="995.261" font-family="sans-serif" font-size="13" font-weight="bold" textLength="14">22</text><text x="71.5" y="995.261" font-family="sans-serif" font-size="13" textLength="281">Negotiate Contract for Submodel and init transfer</text><path fill="#181818" d="m667 1026.469-10 4 10 4-4-4zm138 0 10 4-10 4 4-4z" style="stroke:#181818;stroke-width:1"/><path d="M661 1030.469h150" style="stroke:#181818;stroke-width:1"/><text x="673" y="1025.612" font-family="sans-serif" font-size="13" font-weight="bold" textLength="14">23</text><text x="691" y="1025.612" font-family="sans-serif" font-size="13" textLength="119">DSP communication</text><path fill="#181818" d="m57.5 1056.82-10 4 10 4-4-4z" style="stroke:#181818;stroke-width:1"/><path d="M51.5 1060.82H650" style="stroke:#181818;stroke-width:1;stroke-dasharray:2,2"/><text x="63.5" y="1055.964" font-family="sans-serif" font-size="13" font-weight="bold" textLength="14">24</text><text x="81.5" y="1055.964" font-family="sans-serif" font-size="13" textLength="19">OK</text><path fill="#181818" d="m800 1087.172 10 4-10 4 4-4z" style="stroke:#181818;stroke-width:1"/><path d="M46.5 1091.172H806" style="stroke:#181818;stroke-width:1"/><text x="53.5" y="1086.315" font-family="sans-serif" font-size="13" font-weight="bold" textLength="14">25</text><text x="71.5" y="1086.315" font-family="sans-serif" font-size="13" textLength="92">Read Submodel</text><path fill="#181818" d="m1153 1133.875 10 4-10 4 4-4z" style="stroke:#181818;stroke-width:1"/><path d="M822 1137.875h337" style="stroke:#181818;stroke-width:1"/><text x="829" y="1124.843" font-family="sans-serif" font-size="13" font-weight="bold" textLength="14">26</text><text x="847" y="1116.667" font-family="sans-serif" font-size="13" textLength="306">forward request based on Connector asset definitions</text><text x="847" y="1133.019" font-family="sans-serif" font-size="13" textLength="101">(consumer proxy)</text><path fill="#181818" d="m833 1164.227-10 4 10 4-4-4z" style="stroke:#181818;stroke-width:1"/><path d="M827 1168.227h342" style="stroke:#181818;stroke-width:1;stroke-dasharray:2,2"/><text x="839" y="1163.37" font-family="sans-serif" font-size="13" font-weight="bold" textLength="14">27</text><text x="857" y="1163.37" font-family="sans-serif" font-size="13" textLength="4"> </text><path fill="#181818" d="m57.5 1194.578-10 4 10 4-4-4z" style="stroke:#181818;stroke-width:1"/><path d="M51.5 1198.578H816" style="stroke:#181818;stroke-width:1;stroke-dasharray:2,2"/><text x="63.5" y="1193.722" font-family="sans-serif" font-size="13" font-weight="bold" textLength="14">28</text><text x="81.5" y="1193.722" font-family="sans-serif" font-size="13" textLength="58">Submodel</text><path d="M46.5 1228.93h42m0 0v13m-41 0h41" style="stroke:#181818;stroke-width:1"/><path fill="#181818" d="m57.5 1237.93-10 4 10 4-4-4z" style="stroke:#181818;stroke-width:1"/><text x="53.5" y="1224.073" font-family="sans-serif" font-size="13" font-weight="bold" textLength="14">29</text><text x="71.5" y="1224.073" font-family="sans-serif" font-size="13" textLength="85">Use Submodel</text></svg>