<?xml version="1.0" encoding="UTF-8" standalone="no"?><svg xmlns="http://www.w3.org/2000/svg" xmlns:xlink="http://www.w3.org/1999/xlink" contentStyleType="text/css" height="1301px" preserveAspectRatio="none" style="width:1439px;height:1301px;background:#FFFFFF;" version="1.1" viewBox="0 0 1439 1301" width="1439px" zoomAndPan="magnify"><defs/><g><rect fill="none" height="27.6094" id="_title" style="stroke:none;stroke-width:1.0;" width="421" x="505" y="10"/><text fill="#000000" font-family="sans-serif" font-size="14" font-weight="bold" lengthAdjust="spacing" textLength="411" x="510" y="29.5332">Shared Digital Twin Approach - Lookup of IC Part Type Twin</text><rect fill="#ADD8E6" height="1250.9297" style="stroke:#181818;stroke-width:0.5;" width="694" x="1" y="44.6094"/><text fill="#000000" font-family="sans-serif" font-size="13" font-weight="bold" lengthAdjust="spacing" textLength="54" x="321" y="58.1045">Supplier</text><rect fill="#90EE90" height="1250.9297" style="stroke:#181818;stroke-width:0.5;" width="647.5" x="773" y="44.6094"/><text fill="#000000" font-family="sans-serif" font-size="13" font-weight="bold" lengthAdjust="spacing" textLength="60" x="1066.75" y="58.1045">Customer</text><rect fill="#FFFFFF" height="60.7031" style="stroke:#181818;stroke-width:1.0;" width="10" x="646" y="332.0313"/><rect fill="#FFFFFF" height="60.7031" style="stroke:#181818;stroke-width:1.0;" width="10" x="646" y="423.0859"/><rect fill="#FFFFFF" height="60.7031" style="stroke:#181818;stroke-width:1.0;" width="10" x="646" y="909.0625"/><rect fill="#FFFFFF" height="60.7031" style="stroke:#181818;stroke-width:1.0;" width="10" x="646" y="1000.1172"/><rect fill="#FFFFFF" height="107.4063" style="stroke:#181818;stroke-width:1.0;" width="10" x="812" y="514.1406"/><rect fill="#FFFFFF" height="107.4063" style="stroke:#181818;stroke-width:1.0;" width="10" x="812" y="727.9531"/><rect fill="#FFFFFF" height="107.4063" style="stroke:#181818;stroke-width:1.0;" width="10" x="812" y="1091.1719"/><rect fill="#FFFFFF" height="30.3516" style="stroke:#181818;stroke-width:1.0;" width="10" x="1165" y="226.9766"/><rect fill="#FFFFFF" height="30.3516" style="stroke:#181818;stroke-width:1.0;" width="10" x="1165" y="1137.875"/><rect fill="#FFFFFF" height="30.3516" style="stroke:#181818;stroke-width:1.0;" width="10" x="1269" y="560.8438"/><rect fill="#FFFFFF" height="30.3516" style="stroke:#181818;stroke-width:1.0;" width="10" x="1269" y="774.6563"/><line style="stroke:#181818;stroke-width:0.5;stroke-dasharray:5.0,5.0;" x1="46" x2="46" y1="97.5703" y2="1259.9297"/><line style="stroke:#181818;stroke-width:0.5;stroke-dasharray:5.0,5.0;" x1="428" x2="428" y1="97.5703" y2="1259.9297"/><line style="stroke:#181818;stroke-width:0.5;stroke-dasharray:5.0,5.0;" x1="532" x2="532" y1="97.5703" y2="1259.9297"/><line style="stroke:#181818;stroke-width:0.5;stroke-dasharray:5.0,5.0;" x1="651" x2="651" y1="97.5703" y2="1259.9297"/><line style="stroke:#181818;stroke-width:0.5;stroke-dasharray:5.0,5.0;" x1="817" x2="817" y1="97.5703" y2="1259.9297"/><line style="stroke:#181818;stroke-width:0.5;stroke-dasharray:5.0,5.0;" x1="1169.5" x2="1169.5" y1="97.5703" y2="1259.9297"/><line style="stroke:#181818;stroke-width:0.5;stroke-dasharray:5.0,5.0;" x1="1273.5" x2="1273.5" y1="97.5703" y2="1259.9297"/><line style="stroke:#181818;stroke-width:0.5;stroke-dasharray:5.0,5.0;" x1="1374.5" x2="1374.5" y1="97.5703" y2="1259.9297"/><rect fill="#E2E2F0" height="31.6094" rx="2.5" ry="2.5" style="stroke:#181818;stroke-width:0.5;" width="83" x="5" y="64.9609"/><text fill="#000000" font-family="sans-serif" font-size="14" lengthAdjust="spacing" textLength="69" x="12" y="86.4941">Application</text><rect fill="#E2E2F0" height="31.6094" rx="2.5" ry="2.5" style="stroke:#181818;stroke-width:0.5;" width="83" x="5" y="1258.9297"/><text fill="#000000" font-family="sans-serif" font-size="14" lengthAdjust="spacing" textLength="69" x="12" y="1280.4629">Application</text><rect fill="#E2E2F0" height="31.6094" rx="2.5" ry="2.5" style="stroke:#181818;stroke-width:0.5;" width="51" x="403" y="64.9609"/><text fill="#000000" font-family="sans-serif" font-size="14" lengthAdjust="spacing" textLength="37" x="410" y="86.4941">dDTR</text><rect fill="#E2E2F0" height="31.6094" rx="2.5" ry="2.5" style="stroke:#181818;stroke-width:0.5;" width="51" x="403" y="1258.9297"/><text fill="#000000" font-family="sans-serif" font-size="14" lengthAdjust="spacing" textLength="37" x="410" y="1280.4629">dDTR</text><rect fill="#E2E2F0" height="31.6094" rx="2.5" ry="2.5" style="stroke:#181818;stroke-width:0.5;" width="137" x="464" y="64.9609"/><text fill="#000000" font-family="sans-serif" font-size="14" lengthAdjust="spacing" textLength="123" x="471" y="86.4941">Submodel Endpoint</text><rect fill="#E2E2F0" height="31.6094" rx="2.5" ry="2.5" style="stroke:#181818;stroke-width:0.5;" width="137" x="464" y="1258.9297"/><text fill="#000000" font-family="sans-serif" font-size="14" lengthAdjust="spacing" textLength="123" x="471" y="1280.4629">Submodel Endpoint</text><rect fill="#E2E2F0" height="31.6094" rx="2.5" ry="2.5" style="stroke:#181818;stroke-width:0.5;" width="80" x="611" y="64.9609"/><text fill="#000000" font-family="sans-serif" font-size="14" lengthAdjust="spacing" textLength="66" x="618" y="86.4941">Connector</text><rect fill="#E2E2F0" height="31.6094" rx="2.5" ry="2.5" style="stroke:#181818;stroke-width:0.5;" width="80" x="611" y="1258.9297"/><text fill="#000000" font-family="sans-serif" font-size="14" lengthAdjust="spacing" textLength="66" x="618" y="1280.4629">Connector</text><rect fill="#E2E2F0" height="31.6094" rx="2.5" ry="2.5" style="stroke:#181818;stroke-width:0.5;" width="80" x="777" y="64.9609"/><text fill="#000000" font-family="sans-serif" font-size="14" lengthAdjust="spacing" textLength="66" x="784" y="86.4941">Connector</text><rect fill="#E2E2F0" height="31.6094" rx="2.5" ry="2.5" style="stroke:#181818;stroke-width:0.5;" width="80" x="777" y="1258.9297"/><text fill="#000000" font-family="sans-serif" font-size="14" lengthAdjust="spacing" textLength="66" x="784" y="1280.4629">Connector</text><rect fill="#E2E2F0" height="31.6094" rx="2.5" ry="2.5" style="stroke:#181818;stroke-width:0.5;" width="137" x="1101.5" y="64.9609"/><text fill="#000000" font-family="sans-serif" font-size="14" lengthAdjust="spacing" textLength="123" x="1108.5" y="86.4941">Submodel Endpoint</text><rect fill="#E2E2F0" height="31.6094" rx="2.5" ry="2.5" style="stroke:#181818;stroke-width:0.5;" width="137" x="1101.5" y="1258.9297"/><text fill="#000000" font-family="sans-serif" font-size="14" lengthAdjust="spacing" textLength="123" x="1108.5" y="1280.4629">Submodel Endpoint</text><rect fill="#E2E2F0" height="31.6094" rx="2.5" ry="2.5" style="stroke:#181818;stroke-width:0.5;" width="51" x="1248.5" y="64.9609"/><text fill="#000000" font-family="sans-serif" font-size="14" lengthAdjust="spacing" textLength="37" x="1255.5" y="86.4941">dDTR</text><rect fill="#E2E2F0" height="31.6094" rx="2.5" ry="2.5" style="stroke:#181818;stroke-width:0.5;" width="51" x="1248.5" y="1258.9297"/><text fill="#000000" font-family="sans-serif" font-size="14" lengthAdjust="spacing" textLength="37" x="1255.5" y="1280.4629">dDTR</text><rect fill="#E2E2F0" height="31.6094" rx="2.5" ry="2.5" style="stroke:#181818;stroke-width:0.5;" width="83" x="1333.5" y="64.9609"/><text fill="#000000" font-family="sans-serif" font-size="14" lengthAdjust="spacing" textLength="69" x="1340.5" y="86.4941">Application</text><rect fill="#E2E2F0" height="31.6094" rx="2.5" ry="2.5" style="stroke:#181818;stroke-width:0.5;" width="83" x="1333.5" y="1258.9297"/><text fill="#000000" font-family="sans-serif" font-size="14" lengthAdjust="spacing" textLength="69" x="1340.5" y="1280.4629">Application</text><rect fill="#FFFFFF" height="60.7031" style="stroke:#181818;stroke-width:1.0;" width="10" x="646" y="332.0313"/><rect fill="#FFFFFF" height="60.7031" style="stroke:#181818;stroke-width:1.0;" width="10" x="646" y="423.0859"/><rect fill="#FFFFFF" height="60.7031" style="stroke:#181818;stroke-width:1.0;" width="10" x="646" y="909.0625"/><rect fill="#FFFFFF" height="60.7031" style="stroke:#181818;stroke-width:1.0;" width="10" x="646" y="1000.1172"/><rect fill="#FFFFFF" height="107.4063" style="stroke:#181818;stroke-width:1.0;" width="10" x="812" y="514.1406"/><rect fill="#FFFFFF" height="107.4063" style="stroke:#181818;stroke-width:1.0;" width="10" x="812" y="727.9531"/><rect fill="#FFFFFF" height="107.4063" style="stroke:#181818;stroke-width:1.0;" width="10" x="812" y="1091.1719"/><rect fill="#FFFFFF" height="30.3516" style="stroke:#181818;stroke-width:1.0;" width="10" x="1165" y="226.9766"/><rect fill="#FFFFFF" height="30.3516" style="stroke:#181818;stroke-width:1.0;" width="10" x="1165" y="1137.875"/><rect fill="#FFFFFF" height="30.3516" style="stroke:#181818;stroke-width:1.0;" width="10" x="1269" y="560.8438"/><rect fill="#FFFFFF" height="30.3516" style="stroke:#181818;stroke-width:1.0;" width="10" x="1269" y="774.6563"/><rect fill="#EEEEEE" height="3" style="stroke:#EEEEEE;stroke-width:1.0;" width="1432" x="0" y="128.7461"/><line style="stroke:#000000;stroke-width:1.0;" x1="0" x2="1432" y1="128.7461" y2="128.7461"/><line style="stroke:#000000;stroke-width:1.0;" x1="0" x2="1432" y1="131.7461" y2="131.7461"/><rect fill="#EEEEEE" height="24.3516" style="stroke:#000000;stroke-width:2.0;" width="433" x="499.5" y="117.5703"/><text fill="#000000" font-family="sans-serif" font-size="13" font-weight="bold" lengthAdjust="spacing" textLength="415" x="505.5" y="135.0654">Customer updates Submodel information (repository pattern only)</text><path d="M1117,156.9219 L1117,198.9219 L1427,198.9219 L1427,166.9219 L1417,156.9219 L1117,156.9219 " fill="#FEFFDD" style="stroke:#181818;stroke-width:0.5;"/><path d="M1417,156.9219 L1417,166.9219 L1427,166.9219 L1417,156.9219 " fill="#FEFFDD" style="stroke:#181818;stroke-width:0.5;"/><text fill="#000000" font-family="sans-serif" font-size="13" lengthAdjust="spacing" textLength="233" x="1151" y="175.417">Keeping Submodel updated only needed</text><text fill="#000000" font-family="sans-serif" font-size="13" lengthAdjust="spacing" textLength="119" x="1151" y="191.7686">for repository pattern</text><polygon fill="#181818" points="1186,222.9766,1176,226.9766,1186,230.9766,1182,226.9766" style="stroke:#181818;stroke-width:1.0;"/><line style="stroke:#181818;stroke-width:1.0;" x1="1180" x2="1374" y1="226.9766" y2="226.9766"/><text fill="#000000" font-family="sans-serif" font-size="13" font-weight="bold" lengthAdjust="spacing" textLength="7" x="1192" y="222.1201">1</text><text fill="#000000" font-family="sans-serif" font-size="13" lengthAdjust="spacing" textLength="170" x="1203" y="222.1201">Update Submodel information</text><polygon fill="#181818" points="1363,253.3281,1373,257.3281,1363,261.3281,1367,257.3281" style="stroke:#181818;stroke-width:1.0;"/><line style="stroke:#181818;stroke-width:1.0;stroke-dasharray:2.0,2.0;" x1="1170" x2="1369" y1="257.3281" y2="257.3281"/><text fill="#000000" font-family="sans-serif" font-size="13" font-weight="bold" lengthAdjust="spacing" textLength="7" x="1177" y="252.4717">2</text><text fill="#000000" font-family="sans-serif" font-size="13" lengthAdjust="spacing" textLength="19" x="1188" y="252.4717">OK</text><rect fill="#EEEEEE" height="3" style="stroke:#EEEEEE;stroke-width:1.0;" width="1432" x="0" y="286.5039"/><line style="stroke:#000000;stroke-width:1.0;" x1="0" x2="1432" y1="286.5039" y2="286.5039"/><line style="stroke:#000000;stroke-width:1.0;" x1="0" x2="1432" y1="289.5039" y2="289.5039"/><rect fill="#EEEEEE" height="24.3516" style="stroke:#000000;stroke-width:2.0;" width="341" x="545.5" y="275.3281"/><text fill="#000000" font-family="sans-serif" font-size="13" font-weight="bold" lengthAdjust="spacing" textLength="323" x="551.5" y="292.8232">Supplier reads (updated) Submodel from Customer</text><polygon fill="#181818" points="634,328.0313,644,332.0313,634,336.0313,638,332.0313" style="stroke:#181818;stroke-width:1.0;"/><line style="stroke:#181818;stroke-width:1.0;" x1="46.5" x2="640" y1="332.0313" y2="332.0313"/><text fill="#000000" font-family="sans-serif" font-size="13" font-weight="bold" lengthAdjust="spacing" textLength="7" x="53.5" y="327.1748">3</text><text fill="#000000" font-family="sans-serif" font-size="13" lengthAdjust="spacing" textLength="306" x="64.5" y="327.1748">Query Connector Catalog for Customer dDTR access</text><polygon fill="#181818" points="667,358.3828,657,362.3828,667,366.3828,663,362.3828" style="stroke:#181818;stroke-width:1.0;"/><polygon fill="#181818" points="805,358.3828,815,362.3828,805,366.3828,809,362.3828" style="stroke:#181818;stroke-width:1.0;"/><line style="stroke:#181818;stroke-width:1.0;" x1="661" x2="811" y1="362.3828" y2="362.3828"/><text fill="#000000" font-family="sans-serif" font-size="13" font-weight="bold" lengthAdjust="spacing" textLength="7" x="673" y="357.5264">4</text><text fill="#000000" font-family="sans-serif" font-size="13" lengthAdjust="spacing" textLength="119" x="684" y="357.5264">DSP communication</text><polygon fill="#181818" points="57.5,388.7344,47.5,392.7344,57.5,396.7344,53.5,392.7344" style="stroke:#181818;stroke-width:1.0;"/><line style="stroke:#181818;stroke-width:1.0;stroke-dasharray:2.0,2.0;" x1="51.5" x2="650" y1="392.7344" y2="392.7344"/><text fill="#000000" font-family="sans-serif" font-size="13" font-weight="bold" lengthAdjust="spacing" textLength="7" x="63.5" y="387.8779">5</text><text fill="#000000" font-family="sans-serif" font-size="13" lengthAdjust="spacing" textLength="44" x="74.5" y="387.8779">Catalog</text><polygon fill="#181818" points="634,419.0859,644,423.0859,634,427.0859,638,423.0859" style="stroke:#181818;stroke-width:1.0;"/><line style="stroke:#181818;stroke-width:1.0;" x1="46.5" x2="640" y1="423.0859" y2="423.0859"/><text fill="#000000" font-family="sans-serif" font-size="13" font-weight="bold" lengthAdjust="spacing" textLength="7" x="53.5" y="418.2295">6</text><text fill="#000000" font-family="sans-serif" font-size="13" lengthAdjust="spacing" textLength="201" x="64.5" y="418.2295">Negotiate Contract and init transfer</text><polygon fill="#181818" points="667,449.4375,657,453.4375,667,457.4375,663,453.4375" style="stroke:#181818;stroke-width:1.0;"/><polygon fill="#181818" points="805,449.4375,815,453.4375,805,457.4375,809,453.4375" style="stroke:#181818;stroke-width:1.0;"/><line style="stroke:#181818;stroke-width:1.0;" x1="661" x2="811" y1="453.4375" y2="453.4375"/><text fill="#000000" font-family="sans-serif" font-size="13" font-weight="bold" lengthAdjust="spacing" textLength="7" x="673" y="448.5811">7</text><text fill="#000000" font-family="sans-serif" font-size="13" lengthAdjust="spacing" textLength="119" x="684" y="448.5811">DSP communication</text><polygon fill="#181818" points="57.5,479.7891,47.5,483.7891,57.5,487.7891,53.5,483.7891" style="stroke:#181818;stroke-width:1.0;"/><line style="stroke:#181818;stroke-width:1.0;stroke-dasharray:2.0,2.0;" x1="51.5" x2="650" y1="483.7891" y2="483.7891"/><text fill="#000000" font-family="sans-serif" font-size="13" font-weight="bold" lengthAdjust="spacing" textLength="7" x="63.5" y="478.9326">8</text><text fill="#000000" font-family="sans-serif" font-size="13" lengthAdjust="spacing" textLength="19" x="74.5" y="478.9326">OK</text><polygon fill="#181818" points="800,510.1406,810,514.1406,800,518.1406,804,514.1406" style="stroke:#181818;stroke-width:1.0;"/><line style="stroke:#181818;stroke-width:1.0;" x1="46.5" x2="806" y1="514.1406" y2="514.1406"/><text fill="#000000" font-family="sans-serif" font-size="13" font-weight="bold" lengthAdjust="spacing" textLength="7" x="53.5" y="509.2842">9</text><text fill="#000000" font-family="sans-serif" font-size="13" lengthAdjust="spacing" textLength="350" x="64.5" y="509.2842">Query DTR for IC Part Type Twin based on specific asset ids</text><polygon fill="#181818" points="1257,556.8438,1267,560.8438,1257,564.8438,1261,560.8438" style="stroke:#181818;stroke-width:1.0;"/><line style="stroke:#181818;stroke-width:1.0;" x1="822" x2="1263" y1="560.8438" y2="560.8438"/><text fill="#000000" font-family="sans-serif" font-size="13" font-weight="bold" lengthAdjust="spacing" textLength="14" x="829" y="547.8115">10</text><text fill="#000000" font-family="sans-serif" font-size="13" lengthAdjust="spacing" textLength="306" x="847" y="539.6357">forward request based on Connector asset definitions</text><text fill="#000000" font-family="sans-serif" font-size="13" lengthAdjust="spacing" textLength="101" x="847" y="555.9873">(consumer proxy)</text><polygon fill="#181818" points="833,587.1953,823,591.1953,833,595.1953,829,591.1953" style="stroke:#181818;stroke-width:1.0;"/><line style="stroke:#181818;stroke-width:1.0;stroke-dasharray:2.0,2.0;" x1="827" x2="1273" y1="591.1953" y2="591.1953"/><text fill="#000000" font-family="sans-serif" font-size="13" font-weight="bold" lengthAdjust="spacing" textLength="14" x="839" y="586.3389">11</text><text fill="#000000" font-family="sans-serif" font-size="13" lengthAdjust="spacing" textLength="4" x="857" y="586.3389"> </text><polygon fill="#181818" points="57.5,617.5469,47.5,621.5469,57.5,625.5469,53.5,621.5469" style="stroke:#181818;stroke-width:1.0;"/><line style="stroke:#181818;stroke-width:1.0;stroke-dasharray:2.0,2.0;" x1="51.5" x2="816" y1="621.5469" y2="621.5469"/><text fill="#000000" font-family="sans-serif" font-size="13" font-weight="bold" lengthAdjust="spacing" textLength="14" x="63.5" y="616.6904">12</text><text fill="#000000" font-family="sans-serif" font-size="13" lengthAdjust="spacing" textLength="109" x="81.5" y="616.6904">ShellDescriptor Ids</text><line style="stroke:#181818;stroke-width:1.0;" x1="46.5" x2="88.5" y1="684.6016" y2="684.6016"/><line style="stroke:#181818;stroke-width:1.0;" x1="88.5" x2="88.5" y1="684.6016" y2="697.6016"/><line style="stroke:#181818;stroke-width:1.0;" x1="47.5" x2="88.5" y1="697.6016" y2="697.6016"/><polygon fill="#181818" points="57.5,693.6016,47.5,697.6016,57.5,701.6016,53.5,697.6016" style="stroke:#181818;stroke-width:1.0;"/><text fill="#000000" font-family="sans-serif" font-size="13" font-weight="bold" lengthAdjust="spacing" textLength="14" x="53.5" y="663.3936">13</text><text fill="#000000" font-family="sans-serif" font-size="13" lengthAdjust="spacing" textLength="143" x="71.5" y="647.042">select ShellDescriptor ID</text><text fill="#000000" font-family="sans-serif" font-size="13" lengthAdjust="spacing" textLength="143" x="71.5" y="663.3936">to get ShellDescriptor for</text><text fill="#000000" font-family="sans-serif" font-size="13" lengthAdjust="spacing" textLength="102" x="71.5" y="679.7451">IC Part Type Twin</text><polygon fill="#181818" points="800,723.9531,810,727.9531,800,731.9531,804,727.9531" style="stroke:#181818;stroke-width:1.0;"/><line style="stroke:#181818;stroke-width:1.0;" x1="46.5" x2="806" y1="727.9531" y2="727.9531"/><text fill="#000000" font-family="sans-serif" font-size="13" font-weight="bold" lengthAdjust="spacing" textLength="14" x="53.5" y="723.0967">14</text><text fill="#000000" font-family="sans-serif" font-size="13" lengthAdjust="spacing" textLength="311" x="71.5" y="723.0967">Lookup IC Part Type Twin based on ShellDescriptor Id</text><polygon fill="#181818" points="1257,770.6563,1267,774.6563,1257,778.6563,1261,774.6563" style="stroke:#181818;stroke-width:1.0;"/><line style="stroke:#181818;stroke-width:1.0;" x1="822" x2="1263" y1="774.6563" y2="774.6563"/><text fill="#000000" font-family="sans-serif" font-size="13" font-weight="bold" lengthAdjust="spacing" textLength="14" x="829" y="761.624">15</text><text fill="#000000" font-family="sans-serif" font-size="13" lengthAdjust="spacing" textLength="306" x="847" y="753.4482">forward request based on Connector asset definitions</text><text fill="#000000" font-family="sans-serif" font-size="13" lengthAdjust="spacing" textLength="101" x="847" y="769.7998">(consumer proxy)</text><polygon fill="#181818" points="833,801.0078,823,805.0078,833,809.0078,829,805.0078" style="stroke:#181818;stroke-width:1.0;"/><line style="stroke:#181818;stroke-width:1.0;stroke-dasharray:2.0,2.0;" x1="827" x2="1273" y1="805.0078" y2="805.0078"/><text fill="#000000" font-family="sans-serif" font-size="13" font-weight="bold" lengthAdjust="spacing" textLength="14" x="839" y="800.1514">16</text><text fill="#000000" font-family="sans-serif" font-size="13" lengthAdjust="spacing" textLength="4" x="857" y="800.1514"> </text><polygon fill="#181818" points="57.5,831.3594,47.5,835.3594,57.5,839.3594,53.5,835.3594" style="stroke:#181818;stroke-width:1.0;"/><line style="stroke:#181818;stroke-width:1.0;stroke-dasharray:2.0,2.0;" x1="51.5" x2="816" y1="835.3594" y2="835.3594"/><text fill="#000000" font-family="sans-serif" font-size="13" font-weight="bold" lengthAdjust="spacing" textLength="14" x="63.5" y="830.5029">17</text><text fill="#000000" font-family="sans-serif" font-size="13" lengthAdjust="spacing" textLength="88" x="81.5" y="830.5029">ShellDescriptor</text><line style="stroke:#181818;stroke-width:1.0;" x1="46.5" x2="88.5" y1="865.7109" y2="865.7109"/><line style="stroke:#181818;stroke-width:1.0;" x1="88.5" x2="88.5" y1="865.7109" y2="878.7109"/><line style="stroke:#181818;stroke-width:1.0;" x1="47.5" x2="88.5" y1="878.7109" y2="878.7109"/><polygon fill="#181818" points="57.5,874.7109,47.5,878.7109,57.5,882.7109,53.5,878.7109" style="stroke:#181818;stroke-width:1.0;"/><text fill="#000000" font-family="sans-serif" font-size="13" font-weight="bold" lengthAdjust="spacing" textLength="14" x="53.5" y="860.8545">18</text><text fill="#000000" font-family="sans-serif" font-size="13" lengthAdjust="spacing" textLength="350" x="71.5" y="860.8545">Extract DSP Endpoint and Connector Asset ID for Submodel</text><polygon fill="#181818" points="634,905.0625,644,909.0625,634,913.0625,638,909.0625" style="stroke:#181818;stroke-width:1.0;"/><line style="stroke:#181818;stroke-width:1.0;" x1="46.5" x2="640" y1="909.0625" y2="909.0625"/><text fill="#000000" font-family="sans-serif" font-size="13" font-weight="bold" lengthAdjust="spacing" textLength="14" x="53.5" y="904.2061">19</text><text fill="#000000" font-family="sans-serif" font-size="13" lengthAdjust="spacing" textLength="400" x="71.5" y="904.2061">Query Connector Catalog for Submodel based on Connector Asset ID</text><polygon fill="#181818" points="667,935.4141,657,939.4141,667,943.4141,663,939.4141" style="stroke:#181818;stroke-width:1.0;"/><polygon fill="#181818" points="805,935.4141,815,939.4141,805,943.4141,809,939.4141" style="stroke:#181818;stroke-width:1.0;"/><line style="stroke:#181818;stroke-width:1.0;" x1="661" x2="811" y1="939.4141" y2="939.4141"/><text fill="#000000" font-family="sans-serif" font-size="13" font-weight="bold" lengthAdjust="spacing" textLength="14" x="673" y="934.5576">20</text><text fill="#000000" font-family="sans-serif" font-size="13" lengthAdjust="spacing" textLength="119" x="691" y="934.5576">DSP communication</text><polygon fill="#181818" points="57.5,965.7656,47.5,969.7656,57.5,973.7656,53.5,969.7656" style="stroke:#181818;stroke-width:1.0;"/><line style="stroke:#181818;stroke-width:1.0;stroke-dasharray:2.0,2.0;" x1="51.5" x2="650" y1="969.7656" y2="969.7656"/><text fill="#000000" font-family="sans-serif" font-size="13" font-weight="bold" lengthAdjust="spacing" textLength="14" x="63.5" y="964.9092">21</text><text fill="#000000" font-family="sans-serif" font-size="13" lengthAdjust="spacing" textLength="44" x="81.5" y="964.9092">Catalog</text><polygon fill="#181818" points="634,996.1172,644,1000.1172,634,1004.1172,638,1000.1172" style="stroke:#181818;stroke-width:1.0;"/><line style="stroke:#181818;stroke-width:1.0;" x1="46.5" x2="640" y1="1000.1172" y2="1000.1172"/><text fill="#000000" font-family="sans-serif" font-size="13" font-weight="bold" lengthAdjust="spacing" textLength="14" x="53.5" y="995.2607">22</text><text fill="#000000" font-family="sans-serif" font-size="13" lengthAdjust="spacing" textLength="281" x="71.5" y="995.2607">Negotiate Contract for Submodel and init transfer</text><polygon fill="#181818" points="667,1026.4688,657,1030.4688,667,1034.4688,663,1030.4688" style="stroke:#181818;stroke-width:1.0;"/><polygon fill="#181818" points="805,1026.4688,815,1030.4688,805,1034.4688,809,1030.4688" style="stroke:#181818;stroke-width:1.0;"/><line style="stroke:#181818;stroke-width:1.0;" x1="661" x2="811" y1="1030.4688" y2="1030.4688"/><text fill="#000000" font-family="sans-serif" font-size="13" font-weight="bold" lengthAdjust="spacing" textLength="14" x="673" y="1025.6123">23</text><text fill="#000000" font-family="sans-serif" font-size="13" lengthAdjust="spacing" textLength="119" x="691" y="1025.6123">DSP communication</text><polygon fill="#181818" points="57.5,1056.8203,47.5,1060.8203,57.5,1064.8203,53.5,1060.8203" style="stroke:#181818;stroke-width:1.0;"/><line style="stroke:#181818;stroke-width:1.0;stroke-dasharray:2.0,2.0;" x1="51.5" x2="650" y1="1060.8203" y2="1060.8203"/><text fill="#000000" font-family="sans-serif" font-size="13" font-weight="bold" lengthAdjust="spacing" textLength="14" x="63.5" y="1055.9639">24</text><text fill="#000000" font-family="sans-serif" font-size="13" lengthAdjust="spacing" textLength="19" x="81.5" y="1055.9639">OK</text><polygon fill="#181818" points="800,1087.1719,810,1091.1719,800,1095.1719,804,1091.1719" style="stroke:#181818;stroke-width:1.0;"/><line style="stroke:#181818;stroke-width:1.0;" x1="46.5" x2="806" y1="1091.1719" y2="1091.1719"/><text fill="#000000" font-family="sans-serif" font-size="13" font-weight="bold" lengthAdjust="spacing" textLength="14" x="53.5" y="1086.3154">25</text><text fill="#000000" font-family="sans-serif" font-size="13" lengthAdjust="spacing" textLength="92" x="71.5" y="1086.3154">Read Submodel</text><polygon fill="#181818" points="1153,1133.875,1163,1137.875,1153,1141.875,1157,1137.875" style="stroke:#181818;stroke-width:1.0;"/><line style="stroke:#181818;stroke-width:1.0;" x1="822" x2="1159" y1="1137.875" y2="1137.875"/><text fill="#000000" font-family="sans-serif" font-size="13" font-weight="bold" lengthAdjust="spacing" textLength="14" x="829" y="1124.8428">26</text><text fill="#000000" font-family="sans-serif" font-size="13" lengthAdjust="spacing" textLength="306" x="847" y="1116.667">forward request based on Connector asset definitions</text><text fill="#000000" font-family="sans-serif" font-size="13" lengthAdjust="spacing" textLength="101" x="847" y="1133.0186">(consumer proxy)</text><polygon fill="#181818" points="833,1164.2266,823,1168.2266,833,1172.2266,829,1168.2266" style="stroke:#181818;stroke-width:1.0;"/><line style="stroke:#181818;stroke-width:1.0;stroke-dasharray:2.0,2.0;" x1="827" x2="1169" y1="1168.2266" y2="1168.2266"/><text fill="#000000" font-family="sans-serif" font-size="13" font-weight="bold" lengthAdjust="spacing" textLength="14" x="839" y="1163.3701">27</text><text fill="#000000" font-family="sans-serif" font-size="13" lengthAdjust="spacing" textLength="4" x="857" y="1163.3701"> </text><polygon fill="#181818" points="57.5,1194.5781,47.5,1198.5781,57.5,1202.5781,53.5,1198.5781" style="stroke:#181818;stroke-width:1.0;"/><line style="stroke:#181818;stroke-width:1.0;stroke-dasharray:2.0,2.0;" x1="51.5" x2="816" y1="1198.5781" y2="1198.5781"/><text fill="#000000" font-family="sans-serif" font-size="13" font-weight="bold" lengthAdjust="spacing" textLength="14" x="63.5" y="1193.7217">28</text><text fill="#000000" font-family="sans-serif" font-size="13" lengthAdjust="spacing" textLength="58" x="81.5" y="1193.7217">Submodel</text><line style="stroke:#181818;stroke-width:1.0;" x1="46.5" x2="88.5" y1="1228.9297" y2="1228.9297"/><line style="stroke:#181818;stroke-width:1.0;" x1="88.5" x2="88.5" y1="1228.9297" y2="1241.9297"/><line style="stroke:#181818;stroke-width:1.0;" x1="47.5" x2="88.5" y1="1241.9297" y2="1241.9297"/><polygon fill="#181818" points="57.5,1237.9297,47.5,1241.9297,57.5,1245.9297,53.5,1241.9297" style="stroke:#181818;stroke-width:1.0;"/><text fill="#000000" font-family="sans-serif" font-size="13" font-weight="bold" lengthAdjust="spacing" textLength="14" x="53.5" y="1224.0732">29</text><text fill="#000000" font-family="sans-serif" font-size="13" lengthAdjust="spacing" textLength="85" x="71.5" y="1224.0732">Use Submodel</text><!--MD5=[bb7a49845b9106d843076e4ca1f83ef2]
@startuml Figure_4
title Shared Digital Twin Approach - Lookup of IC Part Type Twin

autonumber

box "Supplier" #LightBlue
    participant SupplierApplication as "Application"
    participant SupplierDTR as "dDTR"
    participant SupplierSubmodelEndpoint as "Submodel Endpoint"
    participant SupplierEDC as "Connector"
end box

box "Customer" #LightGreen
    participant CustomerEDC as "Connector"
    participant CustomerSubmodelEndpoint as "Submodel Endpoint"
    participant CustomerDTR as "dDTR"
    participant CustomerApplication as "Application"
end box


== Customer updates Submodel information (repository pattern only) ==
    note over CustomerSubmodelEndpoint, CustomerApplication: Keeping Submodel updated only needed\nfor repository pattern
    CustomerApplication -> CustomerSubmodelEndpoint: Update Submodel information
    activate CustomerSubmodelEndpoint
    return OK


== Supplier reads (updated) Submodel from Customer ==

    SupplierApplication -> SupplierEDC: Query Connector Catalog for Customer dDTR access
    activate SupplierEDC

        SupplierEDC <-> CustomerEDC: DSP communication
        
    return Catalog

    SupplierApplication -> SupplierEDC: Negotiate Contract and init transfer
    activate SupplierEDC
        SupplierEDC <-> CustomerEDC: DSP communication
    return OK

    SupplierApplication -> CustomerEDC: Query DTR for IC Part Type Twin based on specific asset ids
    activate CustomerEDC
      CustomerEDC -> CustomerDTR: forward request based on Connector asset definitions\n(consumer proxy)
      activate CustomerDTR
      CustomerDTR - -> CustomerEDC
      deactivate CustomerDTR
    return ShellDescriptor Ids

    SupplierApplication -> SupplierApplication: select ShellDescriptor ID\nto get ShellDescriptor for\nIC Part Type Twin

    SupplierApplication -> CustomerEDC: Lookup IC Part Type Twin based on ShellDescriptor Id
    activate CustomerEDC
      CustomerEDC -> CustomerDTR: forward request based on Connector asset definitions\n(consumer proxy)
      activate CustomerDTR
      CustomerDTR - -> CustomerEDC
      deactivate CustomerDTR
    return ShellDescriptor

    SupplierApplication -> SupplierApplication: Extract DSP Endpoint and Connector Asset ID for Submodel

    SupplierApplication -> SupplierEDC: Query Connector Catalog for Submodel based on Connector Asset ID
    activate SupplierEDC

        SupplierEDC <-> CustomerEDC: DSP communication

    return Catalog

    SupplierApplication -> SupplierEDC: Negotiate Contract for Submodel and init transfer
    activate SupplierEDC
        SupplierEDC <-> CustomerEDC: DSP communication
    return OK

    SupplierApplication -> CustomerEDC: Read Submodel
    activate CustomerEDC
      CustomerEDC -> CustomerSubmodelEndpoint: forward request based on Connector asset definitions\n(consumer proxy)
      activate CustomerSubmodelEndpoint
      CustomerSubmodelEndpoint - -> CustomerEDC
      deactivate CustomerSubmodelEndpoint
    return Submodel

    SupplierApplication -> SupplierApplication: Use Submodel

@enduml

PlantUML version 1.2022.7(Mon Aug 22 19:01:30 CEST 2022)
(GPL source distribution)
Java Runtime: Java(TM) SE Runtime Environment
JVM: Java HotSpot(TM) 64-Bit Server VM
Default Encoding: Cp1252
Language: en
Country: US
--></g></svg>