<?xml version="1.0" encoding="UTF-8" standalone="no"?><svg xmlns="http://www.w3.org/2000/svg" xmlns:xlink="http://www.w3.org/1999/xlink" contentStyleType="text/css" height="512px" preserveAspectRatio="none" style="width:1083px;height:512px;background:#FFFFFF;" version="1.1" viewBox="0 0 1083 512" width="1083px" zoomAndPan="magnify"><defs/><g><g id="Received"><rect fill="#F1F1F1" height="55.2188" rx="12.5" ry="12.5" style="stroke:#181818;stroke-width:0.5;" width="337" x="525.5" y="104"/><line style="stroke:#181818;stroke-width:0.5;" x1="525.5" x2="862.5" y1="131.6094" y2="131.6094"/><text fill="#000000" font-family="sans-serif" font-size="14" lengthAdjust="spacing" textLength="59" x="664.5" y="123.5332">Received</text><text fill="#000000" font-family="sans-serif" font-size="14" lengthAdjust="spacing" textLength="317" x="530.5" y="151.1426">The provider accepted the request for processing.</text></g><g id="Working"><rect fill="#F1F1F1" height="55.2188" rx="12.5" ry="12.5" style="stroke:#181818;stroke-width:0.5;" width="448" x="323" y="237"/><line style="stroke:#181818;stroke-width:0.5;" x1="323" x2="771" y1="264.6094" y2="264.6094"/><text fill="#000000" font-family="sans-serif" font-size="14" lengthAdjust="spacing" textLength="52" x="521" y="256.5332">Working</text><text fill="#000000" font-family="sans-serif" font-size="14" lengthAdjust="spacing" textLength="428" x="328" y="284.1426">The provider is processing the request and preparing the response.</text></g><g id="Completed"><rect fill="#F1F1F1" height="55.2188" rx="12.5" ry="12.5" style="stroke:#181818;stroke-width:0.5;" width="494" x="7" y="370"/><line style="stroke:#181818;stroke-width:0.5;" x1="7" x2="501" y1="397.6094" y2="397.6094"/><text fill="#000000" font-family="sans-serif" font-size="14" lengthAdjust="spacing" textLength="68" x="220" y="389.5332">Completed</text><text fill="#000000" font-family="sans-serif" font-size="14" lengthAdjust="spacing" textLength="474" x="12" y="417.1426">The provider was able to successfully process AND respond to the request.</text></g><g id="Error"><rect fill="#F1F1F1" height="55.2188" rx="12.5" ry="12.5" style="stroke:#181818;stroke-width:0.5;" width="423" x="536.5" y="370"/><line style="stroke:#181818;stroke-width:0.5;" x1="536.5" x2="959.5" y1="397.6094" y2="397.6094"/><text fill="#000000" font-family="sans-serif" font-size="14" lengthAdjust="spacing" textLength="32" x="732" y="389.5332">Error</text><text fill="#000000" font-family="sans-serif" font-size="14" lengthAdjust="spacing" textLength="403" x="541.5" y="417.1426">The provider was unable to process OR respond to the request.</text></g><ellipse cx="694" cy="16" fill="#222222" rx="10" ry="10" style="stroke:none;stroke-width:1.0;"/><ellipse cx="500" cy="496" fill="none" rx="10" ry="10" style="stroke:#222222;stroke-width:1.0;"/><ellipse cx="500.5" cy="496.5" fill="#222222" rx="6" ry="6" style="stroke:none;stroke-width:1.0;"/><!--MD5=[390cff54141a80396d259b42bdf097fd]
link *start to Received--><g id="link_*start_Received"><path d="M694,26.29 C694,41.91 694,74.13 694,98.63 " fill="none" id="*start-to-Received" style="stroke:#181818;stroke-width:1.0;"/><polygon fill="#181818" points="694,103.73,698,94.73,694,98.73,690,94.73,694,103.73" style="stroke:#181818;stroke-width:1.0;"/><text fill="#000000" font-family="sans-serif" font-size="13" lengthAdjust="spacing" textLength="187" x="695" y="70.4951">Consumer requested Item Stock</text></g><!--MD5=[0f40efcd8fb0364e8234bc7812660e8e]
link Received to Working--><g id="link_Received_Working"><path d="M628.73,159.1 C613.85,167.2 598.92,177.16 587,189 C574.83,201.08 565.44,217.65 558.83,232.09 " fill="none" id="Received-to-Working" style="stroke:#181818;stroke-width:1.0;"/><polygon fill="#181818" points="556.69,236.9,563.9967,230.296,558.718,232.3298,556.6843,227.0511,556.69,236.9" style="stroke:#181818;stroke-width:1.0;"/><text fill="#000000" font-family="sans-serif" font-size="13" lengthAdjust="spacing" textLength="226" x="588" y="203.4951">Provider started processing the request</text></g><!--MD5=[b662d2d64af522493def076be64e25b6]
link Received to Error--><g id="link_Received_Error"><path d="M786.45,159.11 C799.35,166.73 810.93,176.49 819,189 C855.39,245.39 848.15,279.55 819,340 C814.18,350 806.63,358.77 798.22,366.24 " fill="none" id="Received-to-Error" style="stroke:#181818;stroke-width:1.0;"/><polygon fill="#181818" points="794.04,369.8,803.4877,367.0179,797.8493,366.5613,798.3059,360.9229,794.04,369.8" style="stroke:#181818;stroke-width:1.0;"/><text fill="#000000" font-family="sans-serif" font-size="13" lengthAdjust="spacing" textLength="230" x="845" y="269.9951">Provider could NOT process the request</text></g><!--MD5=[c6b47a8ce9e55a23902dadb000af4b3a]
link Working to Completed--><g id="link_Working_Completed"><path d="M340.3,292.07 C308.05,299.84 281.31,309.67 269,322 C258.04,332.98 253.99,349.58 252.8,364.33 " fill="none" id="Working-to-Completed" style="stroke:#181818;stroke-width:1.0;"/><polygon fill="#181818" points="252.49,369.67,256.9969,360.9129,252.7752,364.6781,249.01,360.4565,252.49,369.67" style="stroke:#181818;stroke-width:1.0;"/><text fill="#000000" font-family="sans-serif" font-size="13" lengthAdjust="spacing" textLength="289" x="270" y="336.4951">Provider processed AND responded to the request</text></g><!--MD5=[f3f45d6e370d74d0b662bdaa27d952ee]
link Working to Error--><g id="link_Working_Error"><path d="M553.78,292.15 C559.08,308.01 567.94,327.42 582,340 C594.65,351.31 609.65,360.38 625.39,367.64 " fill="none" id="Working-to-Error" style="stroke:#181818;stroke-width:1.0;"/><polygon fill="#181818" points="630.3,369.83,623.7151,362.5061,625.7351,367.79,620.4512,369.81,630.3,369.83" style="stroke:#181818;stroke-width:1.0;"/><text fill="#000000" font-family="sans-serif" font-size="13" lengthAdjust="spacing" textLength="231" x="583" y="336.4951">Error occured during request processing</text></g><!--MD5=[05709030c28c6d470f115e6ff7e5015d]
link Completed to *end--><g id="link_Completed_*end"><path d="M321.87,425.12 C378.6,447.38 455.07,477.37 486.07,489.54 " fill="none" id="Completed-to-*end" style="stroke:#181818;stroke-width:1.0;"/><polygon fill="#181818" points="490.99,491.46,484.0745,484.4474,486.3359,489.6326,481.1507,491.894,490.99,491.46" style="stroke:#181818;stroke-width:1.0;"/></g><!--MD5=[7748d72ab64101d2b173fcc1f57892c5]
link Error to *end--><g id="link_Error_*end"><path d="M679.58,425.12 C622.38,447.38 545.3,477.37 514.04,489.54 " fill="none" id="Error-to-*end" style="stroke:#181818;stroke-width:1.0;"/><polygon fill="#181818" points="509.09,491.46,518.9281,491.9202,513.7489,489.645,516.0241,484.4659,509.09,491.46" style="stroke:#181818;stroke-width:1.0;"/></g><!--MD5=[9f7982ec0df23a6a58382e6a194d46f3]
@startuml Figure_4

Received : The provider accepted the request for processing.
Working : The provider is processing the request and preparing the response.
Completed : The provider was able to successfully process AND respond to the request.
Error : The provider was unable to process OR respond to the request.

[*] - -> Received : Consumer requested Item Stock 
Received - -> Working : Provider started processing the request
Received - -> Error : Provider could NOT process the request

Working - -> Completed : Provider processed AND responded to the request
Working - -> Error : Error occured during request processing

Completed - -> [*]

Error - -> [*]

@enduml

PlantUML version 1.2022.7(Mon Aug 22 19:01:30 CEST 2022)
(GPL source distribution)
Java Runtime: Java(TM) SE Runtime Environment
JVM: Java HotSpot(TM) 64-Bit Server VM
Default Encoding: Cp1252
Language: en
Country: US
--></g></svg>