<?xml version="1.0" encoding="UTF-8" standalone="no"?><svg xmlns="http://www.w3.org/2000/svg" xmlns:xlink="http://www.w3.org/1999/xlink" contentStyleType="text/css" height="332px" preserveAspectRatio="none" style="width:589px;height:332px;background:#FFFFFF;" version="1.1" viewBox="0 0 589 332" width="589px" zoomAndPan="magnify"><defs/><g><rect fill="#DDDDDD" height="320.5469" style="stroke:#181818;stroke-width:0.5;" width="103" x="92" y="6"/><text fill="#000000" font-family="sans-serif" font-size="13" font-weight="bold" lengthAdjust="spacing" textLength="97" x="95" y="19.4951">Data Consumer</text><rect fill="#DDDDDD" height="320.5469" style="stroke:#181818;stroke-width:0.5;" width="93" x="326" y="6"/><text fill="#000000" font-family="sans-serif" font-size="13" font-weight="bold" lengthAdjust="spacing" textLength="87" x="329" y="19.4951">Data Provider</text><rect fill="#FFFFFF" height="76.7031" style="stroke:#181818;stroke-width:1.0;" width="10" x="367.5" y="145.2734"/><line style="stroke:#181818;stroke-width:0.5;stroke-dasharray:5.0,5.0;" x1="143" x2="143" y1="76.5703" y2="273.3281"/><line style="stroke:#181818;stroke-width:0.5;stroke-dasharray:5.0,5.0;" x1="372" x2="372" y1="76.5703" y2="273.3281"/><rect fill="#E2E2F0" height="49.2188" rx="2.5" ry="2.5" style="stroke:#181818;stroke-width:0.5;" width="83" x="102" y="26.3516"/><text fill="#000000" font-family="sans-serif" font-size="14" lengthAdjust="spacing" textLength="57" x="115" y="47.8848">Business</text><text fill="#000000" font-family="sans-serif" font-size="14" lengthAdjust="spacing" textLength="69" x="109" y="65.4941">Application</text><rect fill="#E2E2F0" height="49.2188" rx="2.5" ry="2.5" style="stroke:#181818;stroke-width:0.5;" width="83" x="102" y="272.3281"/><text fill="#000000" font-family="sans-serif" font-size="14" lengthAdjust="spacing" textLength="57" x="115" y="293.8613">Business</text><text fill="#000000" font-family="sans-serif" font-size="14" lengthAdjust="spacing" textLength="69" x="109" y="311.4707">Application</text><rect fill="#E2E2F0" height="49.2188" rx="2.5" ry="2.5" style="stroke:#181818;stroke-width:0.5;" width="83" x="331" y="26.3516"/><text fill="#000000" font-family="sans-serif" font-size="14" lengthAdjust="spacing" textLength="57" x="344" y="47.8848">Business</text><text fill="#000000" font-family="sans-serif" font-size="14" lengthAdjust="spacing" textLength="69" x="338" y="65.4941">Application</text><rect fill="#E2E2F0" height="49.2188" rx="2.5" ry="2.5" style="stroke:#181818;stroke-width:0.5;" width="83" x="331" y="272.3281"/><text fill="#000000" font-family="sans-serif" font-size="14" lengthAdjust="spacing" textLength="57" x="344" y="293.8613">Business</text><text fill="#000000" font-family="sans-serif" font-size="14" lengthAdjust="spacing" textLength="69" x="338" y="311.4707">Application</text><rect fill="#FFFFFF" height="76.7031" style="stroke:#181818;stroke-width:1.0;" width="10" x="367.5" y="145.2734"/><polygon fill="#181818" points="360.5,107.9219,370.5,111.9219,360.5,115.9219,364.5,111.9219" style="stroke:#181818;stroke-width:1.0;"/><line style="stroke:#181818;stroke-width:1.0;" x1="143.5" x2="366.5" y1="111.9219" y2="111.9219"/><text fill="#000000" font-family="sans-serif" font-size="13" font-weight="bold" lengthAdjust="spacing" textLength="7" x="159" y="107.0654">1</text><text fill="#000000" font-family="sans-serif" font-size="13" lengthAdjust="spacing" textLength="187" x="170" y="107.0654">Request "Item Stock Exchange"</text><path d="M377,91.5703 L377,117.5703 L501,117.5703 L501,101.5703 L491,91.5703 L377,91.5703 " fill="#FEFFDD" style="stroke:#181818;stroke-width:0.5;"/><path d="M491,91.5703 L491,101.5703 L501,101.5703 L491,91.5703 " fill="#FEFFDD" style="stroke:#181818;stroke-width:0.5;"/><text fill="#000000" font-family="sans-serif" font-size="13" lengthAdjust="spacing" textLength="103" x="383" y="110.0654">Request Endpoint</text><polygon fill="#181818" points="154.5,141.2734,144.5,145.2734,154.5,149.2734,150.5,145.2734" style="stroke:#181818;stroke-width:1.0;"/><line style="stroke:#181818;stroke-width:1.0;stroke-dasharray:2.0,2.0;" x1="148.5" x2="366.5" y1="145.2734" y2="145.2734"/><text fill="#000000" font-family="sans-serif" font-size="13" font-weight="bold" lengthAdjust="spacing" textLength="7" x="222.5" y="140.417">2</text><text fill="#000000" font-family="sans-serif" font-size="13" lengthAdjust="spacing" textLength="55" x="233.5" y="140.417">Accepted</text><line style="stroke:#181818;stroke-width:1.0;" x1="377.5" x2="419.5" y1="175.625" y2="175.625"/><line style="stroke:#181818;stroke-width:1.0;" x1="419.5" x2="419.5" y1="175.625" y2="188.625"/><line style="stroke:#181818;stroke-width:1.0;" x1="378.5" x2="419.5" y1="188.625" y2="188.625"/><polygon fill="#181818" points="388.5,184.625,378.5,188.625,388.5,192.625,384.5,188.625" style="stroke:#181818;stroke-width:1.0;"/><text fill="#000000" font-family="sans-serif" font-size="13" font-weight="bold" lengthAdjust="spacing" textLength="7" x="384.5" y="170.7686">3</text><text fill="#000000" font-family="sans-serif" font-size="13" lengthAdjust="spacing" textLength="187" x="395.5" y="170.7686">Determine requested Item Stock</text><polygon fill="#181818" points="154.5,217.9766,144.5,221.9766,154.5,225.9766,150.5,221.9766" style="stroke:#181818;stroke-width:1.0;"/><line style="stroke:#181818;stroke-width:1.0;" x1="148.5" x2="371.5" y1="221.9766" y2="221.9766"/><text fill="#000000" font-family="sans-serif" font-size="13" font-weight="bold" lengthAdjust="spacing" textLength="7" x="173.5" y="217.1201">4</text><text fill="#000000" font-family="sans-serif" font-size="13" lengthAdjust="spacing" textLength="158" x="184.5" y="217.1201">Send requested Item Stock</text><path d="M5,201.625 L5,227.625 L139,227.625 L139,211.625 L129,201.625 L5,201.625 " fill="#FEFFDD" style="stroke:#181818;stroke-width:0.5;"/><path d="M129,201.625 L129,211.625 L139,211.625 L129,201.625 " fill="#FEFFDD" style="stroke:#181818;stroke-width:0.5;"/><text fill="#000000" font-family="sans-serif" font-size="13" lengthAdjust="spacing" textLength="113" x="11" y="220.1201">Response Endpoint</text><polygon fill="#181818" points="360.5,251.3281,370.5,255.3281,360.5,259.3281,364.5,255.3281" style="stroke:#181818;stroke-width:1.0;"/><line style="stroke:#181818;stroke-width:1.0;stroke-dasharray:2.0,2.0;" x1="143.5" x2="366.5" y1="255.3281" y2="255.3281"/><text fill="#000000" font-family="sans-serif" font-size="13" font-weight="bold" lengthAdjust="spacing" textLength="7" x="225" y="250.4717">5</text><text fill="#000000" font-family="sans-serif" font-size="13" lengthAdjust="spacing" textLength="55" x="236" y="250.4717">Accepted</text><!--MD5=[07391be0991926919edd01a939a674c8]
@startuml Figure_2
autonumber
skinparam sequenceMessageAlign center

box "Data Consumer"
participant "Business\nApplication" as app_cons
end box

box "Data Provider"
participant "Business\nApplication" as app_prov
end box


app_cons ->  app_prov: Request "Item Stock Exchange"
note right: Request Endpoint
return Accepted

activate  app_prov
app_prov ->  app_prov: Determine requested Item Stock  
app_prov ->  app_cons: Send requested Item Stock 
note left: Response Endpoint
deactivate app_prov
return Accepted

@enduml

PlantUML version 1.2022.7(Mon Aug 22 19:01:30 CEST 2022)
(GPL source distribution)
Java Runtime: Java(TM) SE Runtime Environment
JVM: Java HotSpot(TM) 64-Bit Server VM
Default Encoding: Cp1252
Language: en
Country: US
--></g></svg>