<svg xmlns="http://www.w3.org/2000/svg" width="589" height="332" preserveAspectRatio="none" style="width:589px;height:332px;background:#fff"><path fill="#DDD" d="M92 6h103v320.547H92z" style="stroke:#181818;stroke-width:.5"/><text x="95" y="19.495" font-family="sans-serif" font-size="13" font-weight="bold" textLength="97">Data Consumer</text><path fill="#DDD" d="M326 6h93v320.547h-93z" style="stroke:#181818;stroke-width:.5"/><text x="329" y="19.495" font-family="sans-serif" font-size="13" font-weight="bold" textLength="87">Data Provider</text><path fill="#FFF" d="M367.5 145.273h10v76.703h-10z" style="stroke:#181818;stroke-width:1"/><path d="M143 76.57v196.758M372 76.57v196.758" style="stroke:#181818;stroke-width:.5;stroke-dasharray:5,5"/><rect width="83" height="49.219" x="102" y="26.352" fill="#E2E2F0" rx="2.5" ry="2.5" style="stroke:#181818;stroke-width:.5"/><text x="115" y="47.885" font-family="sans-serif" font-size="14" textLength="57">Business</text><text x="109" y="65.494" font-family="sans-serif" font-size="14" textLength="69">Application</text><rect width="83" height="49.219" x="102" y="272.328" fill="#E2E2F0" rx="2.5" ry="2.5" style="stroke:#181818;stroke-width:.5"/><text x="115" y="293.861" font-family="sans-serif" font-size="14" textLength="57">Business</text><text x="109" y="311.471" font-family="sans-serif" font-size="14" textLength="69">Application</text><rect width="83" height="49.219" x="331" y="26.352" fill="#E2E2F0" rx="2.5" ry="2.5" style="stroke:#181818;stroke-width:.5"/><text x="344" y="47.885" font-family="sans-serif" font-size="14" textLength="57">Business</text><text x="338" y="65.494" font-family="sans-serif" font-size="14" textLength="69">Application</text><rect width="83" height="49.219" x="331" y="272.328" fill="#E2E2F0" rx="2.5" ry="2.5" style="stroke:#181818;stroke-width:.5"/><text x="344" y="293.861" font-family="sans-serif" font-size="14" textLength="57">Business</text><text x="338" y="311.471" font-family="sans-serif" font-size="14" textLength="69">Application</text><path fill="#FFF" d="M367.5 145.273h10v76.703h-10z" style="stroke:#181818;stroke-width:1"/><path fill="#181818" d="m360.5 107.922 10 4-10 4 4-4z" style="stroke:#181818;stroke-width:1"/><path d="M143.5 111.922h223" style="stroke:#181818;stroke-width:1"/><text x="159" y="107.065" font-family="sans-serif" font-size="13" font-weight="bold" textLength="7">1</text><text x="170" y="107.065" font-family="sans-serif" font-size="13" textLength="187">Request &quot;Item Stock Exchange&quot;</text><path fill="#FEFFDD" d="M377 91.57v26h124v-16l-10-10H377" style="stroke:#181818;stroke-width:.5"/><path fill="#FEFFDD" d="M491 91.57v10h10l-10-10" style="stroke:#181818;stroke-width:.5"/><text x="383" y="110.065" font-family="sans-serif" font-size="13" textLength="103">Request Endpoint</text><path fill="#181818" d="m154.5 141.273-10 4 10 4-4-4z" style="stroke:#181818;stroke-width:1"/><path d="M148.5 145.273h218" style="stroke:#181818;stroke-width:1;stroke-dasharray:2,2"/><text x="222.5" y="140.417" font-family="sans-serif" font-size="13" font-weight="bold" textLength="7">2</text><text x="233.5" y="140.417" font-family="sans-serif" font-size="13" textLength="55">Accepted</text><path d="M377.5 175.625h42m0 0v13m-41 0h41" style="stroke:#181818;stroke-width:1"/><path fill="#181818" d="m388.5 184.625-10 4 10 4-4-4z" style="stroke:#181818;stroke-width:1"/><text x="384.5" y="170.769" font-family="sans-serif" font-size="13" font-weight="bold" textLength="7">3</text><text x="395.5" y="170.769" font-family="sans-serif" font-size="13" textLength="187">Determine requested Item Stock</text><path fill="#181818" d="m154.5 217.977-10 4 10 4-4-4z" style="stroke:#181818;stroke-width:1"/><path d="M148.5 221.977h223" style="stroke:#181818;stroke-width:1"/><text x="173.5" y="217.12" font-family="sans-serif" font-size="13" font-weight="bold" textLength="7">4</text><text x="184.5" y="217.12" font-family="sans-serif" font-size="13" textLength="158">Send requested Item Stock</text><path fill="#FEFFDD" d="M5 201.625v26h134v-16l-10-10H5" style="stroke:#181818;stroke-width:.5"/><path fill="#FEFFDD" d="M129 201.625v10h10l-10-10" style="stroke:#181818;stroke-width:.5"/><text x="11" y="220.12" font-family="sans-serif" font-size="13" textLength="113">Response Endpoint</text><path fill="#181818" d="m360.5 251.328 10 4-10 4 4-4z" style="stroke:#181818;stroke-width:1"/><path d="M143.5 255.328h223" style="stroke:#181818;stroke-width:1;stroke-dasharray:2,2"/><text x="225" y="250.472" font-family="sans-serif" font-size="13" font-weight="bold" textLength="7">5</text><text x="236" y="250.472" font-family="sans-serif" font-size="13" textLength="55">Accepted</text></svg>