<svg width="2698" height="1044" xmlns="http://www.w3.org/2000/svg" xmlns:xlink="http://www.w3.org/1999/xlink" xml:space="preserve" overflow="hidden"><defs><clipPath id="clip0"><rect x="372" y="381" width="2698" height="1044"/></clipPath><clipPath id="clip1"><rect x="374" y="127" width="1600" height="694"/></clipPath><clipPath id="clip2"><rect x="1973" y="127" width="274" height="694"/></clipPath><clipPath id="clip3"><rect x="2246" y="127" width="274" height="694"/></clipPath><clipPath id="clip4"><rect x="2519" y="127" width="273" height="694"/></clipPath><clipPath id="clip5"><rect x="2791" y="127" width="274" height="694"/></clipPath><clipPath id="clip6"><rect x="374" y="309" width="1600" height="694"/></clipPath><clipPath id="clip7"><rect x="374" y="491" width="1600" height="694"/></clipPath><clipPath id="clip8"><rect x="374" y="673" width="1600" height="694"/></clipPath><clipPath id="clip9"><rect x="374" y="855" width="1600" height="694"/></clipPath></defs><g clip-path="url(#clip0)" transform="translate(-372 -381)"><path d="M374.956 383.502 1973.35 383.502 1973.35 565.392 374.956 565.392Z" fill="#F4F2F3" fill-rule="evenodd"/><path d="M1973.35 383.502 2246.19 383.502 2246.19 565.392 1973.35 565.392Z" fill="#F4F2F3" fill-rule="evenodd"/><path d="M2246.19 383.502 2519.02 383.502 2519.02 565.392 2246.19 565.392Z" fill="#F4F2F3" fill-rule="evenodd"/><path d="M2519.02 383.502 2791.86 383.502 2791.86 565.392 2519.02 565.392Z" fill="#F4F2F3" fill-rule="evenodd"/><path d="M2791.86 383.502 3064.69 383.502 3064.69 565.392 2791.86 565.392Z" fill="#F4F2F3" fill-rule="evenodd"/><path d="M374.956 929.171 1973.35 929.171 1973.35 1111.06 374.956 1111.06Z" fill="#FFA602" fill-rule="evenodd"/><path d="M1973.35 929.171 2246.19 929.171 2246.19 1111.06 1973.35 1111.06Z" fill="#FFA602" fill-rule="evenodd"/><path d="M2246.19 929.171 2519.02 929.171 2519.02 1111.06 2246.19 1111.06Z" fill="#FFA602" fill-rule="evenodd"/><path d="M2519.02 929.171 2791.86 929.171 2791.86 1111.06 2519.02 1111.06Z" fill="#FFA602" fill-rule="evenodd"/><path d="M2791.86 929.171 3064.69 929.171 3064.69 1111.06 2791.86 1111.06Z" fill="#FFA602" fill-rule="evenodd"/><path d="M1973.35 381.21 1973.35 1295.24" stroke="#000000" stroke-width="4.58333" stroke-linejoin="round" stroke-miterlimit="10" fill="none" fill-rule="evenodd"/><path d="M2246.19 381.21 2246.19 1295.24" stroke="#000000" stroke-width="4.58333" stroke-linejoin="round" stroke-miterlimit="10" fill="none" fill-rule="evenodd"/><path d="M2519.02 381.21 2519.02 1295.24" stroke="#000000" stroke-width="4.58333" stroke-linejoin="round" stroke-miterlimit="10" fill="none" fill-rule="evenodd"/><path d="M2791.86 381.21 2791.86 1295.24" stroke="#000000" stroke-width="4.58333" stroke-linejoin="round" stroke-miterlimit="10" fill="none" fill-rule="evenodd"/><path d="M372.665 565.392 3066.98 565.392" stroke="#000000" stroke-width="4.58333" stroke-linejoin="round" stroke-miterlimit="10" fill="none" fill-rule="evenodd"/><path d="M372.665 747.281 3066.98 747.281" stroke="#000000" stroke-width="4.58333" stroke-linejoin="round" stroke-miterlimit="10" fill="none" fill-rule="evenodd"/><path d="M372.665 929.171 3066.98 929.171" stroke="#000000" stroke-width="4.58333" stroke-linejoin="round" stroke-miterlimit="10" fill="none" fill-rule="evenodd"/><path d="M372.665 1111.06 3066.98 1111.06" stroke="#000000" stroke-width="4.58333" stroke-linejoin="round" stroke-miterlimit="10" fill="none" fill-rule="evenodd"/><path d="M374.956 381.21 374.956 1295.24" stroke="#000000" stroke-width="4.58333" stroke-linejoin="round" stroke-miterlimit="10" fill="none" fill-rule="evenodd"/><path d="M3064.69 381.21 3064.69 1295.24" stroke="#000000" stroke-width="4.58333" stroke-linejoin="round" stroke-miterlimit="10" fill="none" fill-rule="evenodd"/><path d="M372.665 383.502 3066.98 383.502" stroke="#000000" stroke-width="4.58333" stroke-linejoin="round" stroke-miterlimit="10" fill="none" fill-rule="evenodd"/><path d="M372.665 1292.95 3066.98 1292.95" stroke="#000000" stroke-width="4.58333" stroke-linejoin="round" stroke-miterlimit="10" fill="none" fill-rule="evenodd"/><g clip-path="url(#clip1)"><text font-family="Calibri,Calibri_MSFontService,sans-serif" font-weight="700" font-size="83" transform="matrix(1 0 0 1 407.672 502)">Customer Information</text></g><g clip-path="url(#clip2)"><text font-family="Calibri,Calibri_MSFontService,sans-serif" font-weight="700" font-size="83" transform="matrix(1 0 0 1 2006.07 502)">Day 1</text></g><g clip-path="url(#clip3)"><text font-family="Calibri,Calibri_MSFontService,sans-serif" font-weight="700" font-size="83" transform="matrix(1 0 0 1 2278.9 502)">Day 2</text></g><g clip-path="url(#clip4)"><text font-family="Calibri,Calibri_MSFontService,sans-serif" font-weight="700" font-size="83" transform="matrix(1 0 0 1 2551.74 502)">Day 3</text></g><g clip-path="url(#clip5)"><text font-family="Calibri,Calibri_MSFontService,sans-serif" font-weight="700" font-size="83" transform="matrix(1 0 0 1 2824.57 502)">Day 4</text></g><g clip-path="url(#clip6)"><text font-family="Calibri,Calibri_MSFontService,sans-serif" font-weight="400" font-size="83" transform="matrix(1 0 0 1 407.956 684)">Consumption in </text></g><text font-family="Calibri,Calibri_MSFontService,sans-serif" font-weight="400" font-size="83" transform="matrix(1 0 0 1 957.59 684)">production</text><text font-family="Calibri,Calibri_MSFontService,sans-serif" font-weight="400" font-size="83" transform="matrix(1 0 0 1 2067.95 684)">80</text><text font-family="Calibri,Calibri_MSFontService,sans-serif" font-weight="400" font-size="83" transform="matrix(1 0 0 1 2340.78 684)">80</text><text font-family="Calibri,Calibri_MSFontService,sans-serif" font-weight="400" font-size="83" transform="matrix(1 0 0 1 2592.7 684)">100</text><text font-family="Calibri,Calibri_MSFontService,sans-serif" font-weight="400" font-size="83" transform="matrix(1 0 0 1 2865.54 684)">100</text><g clip-path="url(#clip7)"><text font-family="Calibri,Calibri_MSFontService,sans-serif" font-weight="400" font-size="83" transform="matrix(1 0 0 1 407.956 866)">Call</text></g><text font-family="Calibri,Calibri_MSFontService,sans-serif" font-weight="400" font-size="83" transform="matrix(1 0 0 1 529.415 866)">-</text><text font-family="Calibri,Calibri_MSFontService,sans-serif" font-weight="400" font-size="83" transform="matrix(1 0 0 1 554.623 866)">off / </text><text font-family="Calibri,Calibri_MSFontService,sans-serif" font-weight="400" font-size="83" transform="matrix(1 0 0 1 717.675 866)">order</text><text font-family="Calibri,Calibri_MSFontService,sans-serif" font-weight="400" font-size="83" transform="matrix(1 0 0 1 921.083 866)">amount</text><text font-family="Calibri,Calibri_MSFontService,sans-serif" font-weight="400" font-size="83" transform="matrix(1 0 0 1 2067.95 866)">80</text><text font-family="Calibri,Calibri_MSFontService,sans-serif" font-weight="400" font-size="83" transform="matrix(1 0 0 1 2340.78 866)">80</text><text font-family="Calibri,Calibri_MSFontService,sans-serif" font-weight="400" font-size="83" transform="matrix(1 0 0 1 2592.7 866)">100</text><text font-family="Calibri,Calibri_MSFontService,sans-serif" font-weight="400" font-size="83" transform="matrix(1 0 0 1 2865.54 866)">100</text><g clip-path="url(#clip8)"><text font-family="Calibri,Calibri_MSFontService,sans-serif" font-weight="700" font-size="83" transform="matrix(1 0 0 1 407.956 1048)">Demand </text></g><text font-family="Calibri,Calibri_MSFontService,sans-serif" font-weight="700" font-size="83" transform="matrix(1 0 0 1 716.185 1048)">category</text><text font-family="Calibri,Calibri_MSFontService,sans-serif" font-weight="700" font-size="83" transform="matrix(1 0 0 1 1028.61 1048)">= </text><text font-family="Calibri,Calibri_MSFontService,sans-serif" font-weight="700" font-size="83" transform="matrix(1 0 0 1 1088.76 1048)">Series </text><text font-family="Calibri,Calibri_MSFontService,sans-serif" font-weight="700" font-size="83" transform="matrix(1 0 0 1 1311.06 1048)">/ Default</text><text font-family="Calibri,Calibri_MSFontService,sans-serif" font-weight="700" font-size="83" transform="matrix(1 0 0 1 2067.95 1048)">80</text><text font-family="Calibri,Calibri_MSFontService,sans-serif" font-weight="700" font-size="83" transform="matrix(1 0 0 1 2340.78 1048)">80</text><text font-family="Calibri,Calibri_MSFontService,sans-serif" font-weight="700" font-size="83" transform="matrix(1 0 0 1 2592.7 1048)">100</text><text font-family="Calibri,Calibri_MSFontService,sans-serif" font-weight="700" font-size="83" transform="matrix(1 0 0 1 2865.54 1048)">100</text><g clip-path="url(#clip9)"><text font-family="Calibri,Calibri_MSFontService,sans-serif" font-weight="400" font-size="83" transform="matrix(1 0 0 1 407.956 1230)">End of </text></g><text font-family="Calibri,Calibri_MSFontService,sans-serif" font-weight="400" font-size="83" transform="matrix(1 0 0 1 641.706 1230)">day Item Stock</text><text font-family="Calibri,Calibri_MSFontService,sans-serif" font-weight="400" font-size="83" transform="matrix(1 0 0 1 2088.86 1230)">0</text><text font-family="Calibri,Calibri_MSFontService,sans-serif" font-weight="400" font-size="83" transform="matrix(1 0 0 1 2361.69 1230)">0</text><text font-family="Calibri,Calibri_MSFontService,sans-serif" font-weight="400" font-size="83" transform="matrix(1 0 0 1 2634.53 1230)">0</text><text font-family="Calibri,Calibri_MSFontService,sans-serif" font-weight="400" font-size="83" transform="matrix(1 0 0 1 2907.36 1230)">0</text><rect x="1451.5" y="1312.5" width="122" height="74.9999" stroke="#41719C" stroke-width="4.58333" stroke-miterlimit="8" fill="#FFA602"/><text font-family="Calibri,Calibri_MSFontService,sans-serif" font-weight="400" font-size="64" transform="matrix(1 0 0 1 1606.42 1369)">Transferable </text><text font-family="Calibri,Calibri_MSFontService,sans-serif" font-style="italic" font-weight="400" font-size="64" transform="matrix(1 0 0 1 1941.37 1369)">Short</text><text font-family="Calibri,Calibri_MSFontService,sans-serif" font-style="italic" font-weight="400" font-size="64" transform="matrix(1 0 0 1 2080.02 1369)">-</text><text font-family="Calibri,Calibri_MSFontService,sans-serif" font-style="italic" font-weight="400" font-size="64" transform="matrix(1 0 0 1 2099.5 1369)">Term Material Demand </text><text font-family="Calibri,Calibri_MSFontService,sans-serif" font-weight="400" font-size="64" transform="matrix(1 0 0 1 2716.71 1369)">Information</text></g></svg>