<?xml version="1.0" encoding="UTF-8" standalone="no"?><svg xmlns="http://www.w3.org/2000/svg" xmlns:xlink="http://www.w3.org/1999/xlink" contentStyleType="text/css" height="130.2083px" preserveAspectRatio="none" style="width:170px;height:130px;background:#FFFFFF;" version="1.1" viewBox="0 0 170 130" width="170.8333px" zoomAndPan="magnify"><defs/><g><!--MD5=[d49b6bfe8978e6393e63c349b8b2202b]
cluster Site and References--><g id="cluster_Site and References"><path d="M4.4271,3.125 L79.4271,3.125 A1.9531,1.9531 0 0 1 80.7292,4.4271 L84.375,15.4215 L165.8854,15.4215 A1.3021,1.3021 0 0 1 167.1875,16.7236 L167.1875,125.2604 A1.3021,1.3021 0 0 1 165.8854,126.5625 L4.4271,126.5625 A1.3021,1.3021 0 0 1 3.125,125.2604 L3.125,4.4271 A1.3021,1.3021 0 0 1 4.4271,3.125 " style="stroke:#000000;stroke-width:0.78125;fill:none;"/><line style="stroke:#000000;stroke-width:0.78125;fill:none;" x1="3.125" x2="84.375" y1="15.4215" y2="15.4215"/><text fill="#000000" font-family="sans-serif" font-size="7.2917" font-weight="bold" lengthAdjust="spacing" textLength="74.4792" x="5.2083" y="11.736">Site and References</text></g><!--MD5=[e50f24c143873ab5352ff9f9e3841676]
class LegalEntity--><g id="elem_LegalEntity"><rect codeLine="5" fill="#F1F1F1" height="16.6667" id="LegalEntity" rx="1.3021" ry="1.3021" style="stroke:#181818;stroke-width:0.2604166666666667;" width="53.125" x="11.4583" y="21.875"/><ellipse cx="19.2708" cy="30.2083" fill="#ADD1B2" rx="5.7292" ry="5.7292" style="stroke:#181818;stroke-width:0.5208333333333334;"/><path d="M18.6768,30.6234 L18.6768,31.9255 L20.931,31.9255 L20.931,31.4453 Q20.931,31.1279 21.0531,30.9896 Q21.1833,30.8512 21.3786,30.8512 Q21.5739,30.8512 21.696,30.9896 Q21.818,31.1279 21.818,31.4453 L21.818,32.8125 L17.6514,32.8125 Q17.3258,32.8125 17.1875,32.6904 Q17.0573,32.5684 17.0573,32.3649 Q17.0573,32.1696 17.1956,32.0475 Q17.334,31.9255 17.6514,31.9255 L17.7897,31.9255 L17.7897,28.4587 L17.6514,28.4587 Q17.3258,28.4587 17.1875,28.3366 Q17.0573,28.2145 17.0573,28.0111 Q17.0573,27.8158 17.1875,27.6937 Q17.3258,27.5716 17.6514,27.5716 L21.6227,27.5716 L21.6227,28.9225 Q21.6227,29.2399 21.5007,29.3783 Q21.3867,29.5085 21.1833,29.5085 Q20.988,29.5085 20.8659,29.3783 Q20.7438,29.2399 20.7438,28.9225 L20.7438,28.4587 L18.6768,28.4587 L18.6768,29.7363 L19.4499,29.7363 Q19.4499,29.3945 19.515,29.2969 Q19.6533,29.0853 19.8975,29.0853 Q20.0928,29.0853 20.2148,29.2236 Q20.3369,29.3538 20.3369,29.6712 L20.3369,30.6966 Q20.3369,30.9814 20.2718,31.0791 Q20.1335,31.2826 19.8975,31.2826 Q19.6533,31.2826 19.515,31.071 Q19.4499,30.9733 19.4499,30.6234 L18.6768,30.6234 Z " fill="#000000"/><text fill="#000000" font-family="sans-serif" font-size="7.2917" lengthAdjust="spacing" textLength="36.4583" x="26.5625" y="33.1919">LegalEntity</text></g><!--MD5=[7eeb4b838a05227218a56e467b2beb72]
class Site--><g id="elem_Site"><rect codeLine="7" fill="#F1F1F1" height="39.1764" id="Site" rx="1.3021" ry="1.3021" style="stroke:#181818;stroke-width:0.2604166666666667;" width="29.1667" x="11.4583" y="79.1667"/><ellipse cx="19.2708" cy="87.5" fill="#ADD1B2" rx="5.7292" ry="5.7292" style="stroke:#181818;stroke-width:0.5208333333333334;"/><path d="M18.6768,87.915 L18.6768,89.2171 L20.931,89.2171 L20.931,88.737 Q20.931,88.4196 21.0531,88.2813 Q21.1833,88.1429 21.3786,88.1429 Q21.5739,88.1429 21.696,88.2813 Q21.818,88.4196 21.818,88.737 L21.818,90.1042 L17.6514,90.1042 Q17.3258,90.1042 17.1875,89.9821 Q17.0573,89.86 17.0573,89.6566 Q17.0573,89.4613 17.1956,89.3392 Q17.334,89.2171 17.6514,89.2171 L17.7897,89.2171 L17.7897,85.7503 L17.6514,85.7503 Q17.3258,85.7503 17.1875,85.6283 Q17.0573,85.5062 17.0573,85.3027 Q17.0573,85.1074 17.1875,84.9854 Q17.3258,84.8633 17.6514,84.8633 L21.6227,84.8633 L21.6227,86.2142 Q21.6227,86.5316 21.5007,86.6699 Q21.3867,86.8001 21.1833,86.8001 Q20.988,86.8001 20.8659,86.6699 Q20.7438,86.5316 20.7438,86.2142 L20.7438,85.7503 L18.6768,85.7503 L18.6768,87.028 L19.4499,87.028 Q19.4499,86.6862 19.515,86.5885 Q19.6533,86.377 19.8975,86.377 Q20.0928,86.377 20.2148,86.5153 Q20.3369,86.6455 20.3369,86.9629 L20.3369,87.9883 Q20.3369,88.2731 20.2718,88.3708 Q20.1335,88.5742 19.8975,88.5742 Q19.6533,88.5742 19.515,88.3626 Q19.4499,88.265 19.4499,87.915 L18.6768,87.915 Z " fill="#000000"/><text fill="#000000" font-family="sans-serif" font-size="7.2917" lengthAdjust="spacing" textLength="12.5" x="26.5625" y="90.4836">Site</text><line style="stroke:#181818;stroke-width:0.2604166666666667;" x1="11.9792" x2="40.1042" y1="95.8333" y2="95.8333"/><text fill="#000000" font-family="sans-serif" font-size="7.2917" lengthAdjust="spacing" textLength="18.75" x="14.5833" y="105.486">BPNS</text><text fill="#000000" font-family="sans-serif" font-size="7.2917" lengthAdjust="spacing" textLength="6.25" x="14.5833" y="114.6576">...</text></g><!--MD5=[0f39e4cb6f03951afbf6d14bd2505654]
class Address--><g id="elem_Address"><rect codeLine="12" fill="#F1F1F1" height="16.6667" id="Address" rx="1.3021" ry="1.3021" style="stroke:#181818;stroke-width:0.2604166666666667;" width="43.75" x="95.3125" y="21.875"/><ellipse cx="103.125" cy="30.2083" fill="#ADD1B2" rx="5.7292" ry="5.7292" style="stroke:#181818;stroke-width:0.5208333333333334;"/><path d="M102.5309,30.6234 L102.5309,31.9255 L104.7852,31.9255 L104.7852,31.4453 Q104.7852,31.1279 104.9072,30.9896 Q105.0374,30.8512 105.2327,30.8512 Q105.4281,30.8512 105.5501,30.9896 Q105.6722,31.1279 105.6722,31.4453 L105.6722,32.8125 L101.5055,32.8125 Q101.18,32.8125 101.0417,32.6904 Q100.9115,32.5684 100.9115,32.3649 Q100.9115,32.1696 101.0498,32.0475 Q101.1882,31.9255 101.5055,31.9255 L101.6439,31.9255 L101.6439,28.4587 L101.5055,28.4587 Q101.18,28.4587 101.0417,28.3366 Q100.9115,28.2145 100.9115,28.0111 Q100.9115,27.8158 101.0417,27.6937 Q101.18,27.5716 101.5055,27.5716 L105.4769,27.5716 L105.4769,28.9225 Q105.4769,29.2399 105.3548,29.3783 Q105.2409,29.5085 105.0374,29.5085 Q104.8421,29.5085 104.7201,29.3783 Q104.598,29.2399 104.598,28.9225 L104.598,28.4587 L102.5309,28.4587 L102.5309,29.7363 L103.304,29.7363 Q103.304,29.3945 103.3691,29.2969 Q103.5075,29.0853 103.7516,29.0853 Q103.9469,29.0853 104.069,29.2236 Q104.1911,29.3538 104.1911,29.6712 L104.1911,30.6966 Q104.1911,30.9814 104.126,31.0791 Q103.9876,31.2826 103.7516,31.2826 Q103.5075,31.2826 103.3691,31.071 Q103.304,30.9733 103.304,30.6234 L102.5309,30.6234 Z " fill="#000000"/><text fill="#000000" font-family="sans-serif" font-size="7.2917" lengthAdjust="spacing" textLength="27.0833" x="110.4167" y="33.1919">Address</text></g><!--MD5=[115e4b36702e2bf9d36eea1b60469e9e]
class MainAddress--><g id="elem_MainAddress"><rect codeLine="14" fill="#F1F1F1" height="16.6667" id="MainAddress" rx="1.3021" ry="1.3021" style="stroke:#181818;stroke-width:0.2604166666666667;" width="59.375" x="99.4792" y="90.3646"/><ellipse cx="107.2917" cy="98.6979" fill="#ADD1B2" rx="5.7292" ry="5.7292" style="stroke:#181818;stroke-width:0.5208333333333334;"/><path d="M108.7321,96.5495 Q108.8135,96.4355 108.9111,96.3786 Q109.0088,96.3216 109.1227,96.3216 Q109.318,96.3216 109.4401,96.46 Q109.5622,96.5902 109.5622,96.9076 L109.5622,97.6644 Q109.5622,97.9818 109.4401,98.1201 Q109.318,98.2585 109.1227,98.2585 Q108.9437,98.2585 108.8379,98.1527 Q108.7321,98.055 108.6751,97.7865 Q108.6507,97.5993 108.5531,97.5016 Q108.3822,97.3063 108.0648,97.1924 Q107.7474,97.0785 107.4219,97.0785 Q107.0231,97.0785 106.6895,97.2493 Q106.3639,97.4202 106.1035,97.8109 Q105.8512,98.2015 105.8512,98.7386 L105.8512,99.3083 Q105.8512,99.9512 106.3151,100.3825 Q106.779,100.8057 107.609,100.8057 Q108.0973,100.8057 108.4391,100.6755 Q108.6426,100.5941 108.8623,100.3662 Q109.0007,100.2279 109.0739,100.1872 Q109.1553,100.1465 109.2611,100.1465 Q109.432,100.1465 109.5622,100.2848 Q109.7005,100.415 109.7005,100.5941 Q109.7005,100.7731 109.5215,100.9847 Q109.2611,101.2858 108.846,101.4567 Q108.2845,101.6927 107.609,101.6927 Q106.8197,101.6927 106.193,101.3672 Q105.6803,101.1068 105.3223,100.5534 Q104.9642,99.9919 104.9642,99.3245 L104.9642,98.7223 Q104.9642,98.0306 105.2816,97.4365 Q105.6071,96.8343 106.1768,96.5169 Q106.7464,96.1914 107.3893,96.1914 Q107.7718,96.1914 108.1055,96.2809 Q108.4473,96.3623 108.7321,96.5495 Z " fill="#000000"/><text fill="#000000" font-family="sans-serif" font-size="7.2917" lengthAdjust="spacing" textLength="42.7083" x="114.5833" y="101.6815">MainAddress</text></g><!--MD5=[318f1ebb566a1ff7614b1d57f2577ba2]
reverse link LegalEntity to Site--><g id="link_LegalEntity_Site"><path codeLine="16" d="M31.0104,45.125 C29.8542,48.0573 28.8073,51.1615 28.125,54.1667 C26.2969,62.224 25.6354,71.3125 25.4896,79.1354 " fill="none" id="LegalEntity-backto-Site" style="stroke:#181818;stroke-width:0.5208333333333334;"/><polygon fill="none" points="33.8073,38.7396,30.6458,40.7671,31.3015,44.4653,34.4629,42.4377,33.8073,38.7396" style="stroke:#181818;stroke-width:0.5208333333333334;"/><text fill="#000000" font-family="sans-serif" font-size="6.7708" lengthAdjust="spacing" textLength="47.9167" x="28.6458" y="61.7162">LegalEntityBPN</text><text fill="#000000" font-family="sans-serif" font-size="6.7708" lengthAdjust="spacing" textLength="3.6458" x="28.3128" y="49.6851">1</text><text fill="#000000" font-family="sans-serif" font-size="6.7708" lengthAdjust="spacing" textLength="2.6042" x="22.5436" y="73.4621">*</text></g><!--MD5=[352bd15e62ac49adf2263fec983a3dc5]
link Address to Site--><g id="link_Address_Site"><path codeLine="17" d="M108.7031,38.6302 C101.1771,45.5 89.7604,55.5729 79.1667,63.5417 C68.7708,71.3594 56.6563,79.3385 46.6198,85.6667 " fill="none" id="Address-to-Site" style="stroke:#181818;stroke-width:0.5208333333333334;"/><polygon fill="none" points="40.8281,89.2813,44.5822,89.3934,46.1297,85.9712,42.3755,85.8591,40.8281,89.2813" style="stroke:#181818;stroke-width:0.5208333333333334;"/><text fill="#000000" font-family="sans-serif" font-size="6.7708" lengthAdjust="spacing" textLength="26.0417" x="90.1042" y="61.7162">SiteBPN</text><text fill="#000000" font-family="sans-serif" font-size="6.7708" lengthAdjust="spacing" textLength="10.4167" x="93.9219" y="49.7007">1..*</text><text fill="#000000" font-family="sans-serif" font-size="6.7708" lengthAdjust="spacing" textLength="11.4583" x="44.7389" y="85.3939">0..1</text></g><!--MD5=[7e0a9fcfd0b26f43f0b6dc2edcb43379]
link Site to MainAddress--><g id="link_Site_MainAddress"><path codeLine="19" d="M40.8177,98.6979 C55.3073,98.6979 77.8906,98.6979 96.5938,98.6979 " fill="none" id="Site-to-MainAddress" style="stroke:#181818;stroke-width:0.5208333333333334;"/><polygon fill="#181818" points="99.3229,98.6979,94.6354,96.6146,96.7188,98.6979,94.6354,100.7813,99.3229,98.6979" style="stroke:#181818;stroke-width:0.5208333333333334;"/><text fill="#000000" font-family="sans-serif" font-size="6.7708" lengthAdjust="spacing" textLength="39.5833" x="50.2604" y="95.31">MainAddress</text><text fill="#000000" font-family="sans-serif" font-size="6.7708" lengthAdjust="spacing" textLength="3.6458" x="44.8637" y="96.3861">1</text><text fill="#000000" font-family="sans-serif" font-size="6.7708" lengthAdjust="spacing" textLength="3.6458" x="91.6198" y="96.8712">1</text></g><!--MD5=[a869baed92e5b2b36e9f3d7159b00aa7]
reverse link Address to MainAddress--><g id="link_Address_MainAddress"><path codeLine="20" d="M125.4844,48.6094 C126.1146,50.4583 126.6667,52.3333 127.0833,54.1667 C129.8958,66.5469 129.9375,81.3802 129.6198,90.276 " fill="none" id="Address-backto-MainAddress" style="stroke:#181818;stroke-width:0.5208333333333334;"/><polygon fill="none" points="122.0104,49.7552,121.401,38.7396,128.75,46.9688,122.0104,49.7552" style="stroke:#181818;stroke-width:0.5208333333333334;"/></g><!--MD5=[8c7a8a87379745c01a997620eafe7de2]
@startuml site-simple

skinparam dpi 50

package "Site and References" {
  entity LegalEntity {}
  
  entity Site {
    BPNS
    ...
  }

  entity Address {}

  class MainAddress {}

  Site "*" -u-o "1" LegalEntity : LegalEntityBPN
  Address "1..*" -d-o "0..1" Site: SiteBPN
  
  Site "1" -r-> "1" MainAddress : MainAddress    
  MainAddress -u-|> Address
}

hide methods
hide MainAddress members
hide LegalEntity members
hide Address members
@enduml

PlantUML version 1.2022.5(Sat Apr 30 12:55:52 CEST 2022)
(GPL source distribution)
Java Runtime: OpenJDK Runtime Environment
JVM: OpenJDK 64-Bit Server VM
Default Encoding: Cp1252
Language: en
Country: GB
--></g></svg>