<svg xmlns="http://www.w3.org/2000/svg" xmlns:xlink="http://www.w3.org/1999/xlink" contentStyleType="text/css" data-diagram-type="CLASS" height="131.7708px" preserveAspectRatio="none" style="width:215px;height:131px;background:#FFFFFF;" version="1.1" viewBox="0 0 215 131" width="215.625px" zoomAndPan="magnify"><?plantuml 1.2026.6?><defs/><g><!--cluster Site and References--><g class="cluster" data-qualified-name="Site and References" data-source-line="4" id="ent0001"><path d="M4.4271,3.125 L78.6764,3.125 A1.9531,1.9531 0 0 1 79.9784,4.4271 L83.6243,14.8376 L206.5104,14.8376 A1.3021,1.3021 0 0 1 207.8125,16.1397 L207.8125,123.1667 A1.3021,1.3021 0 0 1 206.5104,124.4688 L4.4271,124.4688 A1.3021,1.3021 0 0 1 3.125,123.1667 L3.125,4.4271 A1.3021,1.3021 0 0 1 4.4271,3.125" fill="none" style="stroke:#000000;stroke-width:0.7813;"/><line style="stroke:#000000;stroke-width:0.7813;" x1="3.125" x2="83.6243" y1="14.8376" y2="14.8376"/><text fill="#000000" font-family="sans-serif" font-size="7.2917" font-weight="700" lengthAdjust="spacing" textLength="73.7284" x="5.2083" y="11.2162">Site and References</text></g><!--class LegalEntity--><g class="entity" data-qualified-name="Site and References.LegalEntity" data-source-line="5" id="ent0002"><rect fill="#F1F1F1" height="16.6667" rx="1.3021" ry="1.3021" style="stroke:#181818;stroke-width:0.2604;" width="55.1473" x="122.9479" y="21.3542"/><ellipse cx="130.7604" cy="29.6875" fill="#ADD1B2" rx="5.7292" ry="5.7292" style="stroke:#181818;stroke-width:0.5208;"/><path d="M132.6428,33.0729 L128.6222,33.0729 L128.6222,26.6182 L132.6428,26.6182 L132.6428,27.7423 L129.8975,27.7423 L129.8975,29.1344 L132.3834,29.1344 L132.3834,30.2584 L129.8975,30.2584 L129.8975,31.9489 L132.6428,31.9489 Z " fill="#000000"/><text fill="#000000" font-family="sans-serif" font-size="7.2917" lengthAdjust="spacing" textLength="38.4806" x="138.0521" y="32.4432">LegalEntity</text></g><!--class Site--><g class="entity" data-qualified-name="Site and References.Site" data-source-line="7" id="ent0003"><rect fill="#F1F1F1" height="38.0086" rx="1.3021" ry="1.3021" style="stroke:#181818;stroke-width:0.2604;" width="29.4912" x="135.2552" y="78.125"/><ellipse cx="143.0677" cy="86.4583" fill="#ADD1B2" rx="5.7292" ry="5.7292" style="stroke:#181818;stroke-width:0.5208;"/><path d="M144.9501,89.8437 L140.9294,89.8437 L140.9294,83.389 L144.9501,83.389 L144.9501,84.5131 L142.2048,84.5131 L142.2048,85.9052 L144.6907,85.9052 L144.6907,87.0293 L142.2048,87.0293 L142.2048,88.7197 L144.9501,88.7197 Z " fill="#000000"/><text fill="#000000" font-family="sans-serif" font-size="7.2917" lengthAdjust="spacing" textLength="12.8245" x="150.3594" y="89.2141">Site</text><line style="stroke:#181818;stroke-width:0.2604;" x1="135.776" x2="164.2255" y1="94.7917" y2="94.7917"/><text fill="#000000" font-family="sans-serif" font-size="7.2917" lengthAdjust="spacing" textLength="17.5385" x="138.3802" y="103.9246">BPNS</text><text fill="#000000" font-family="sans-serif" font-size="7.2917" lengthAdjust="spacing" textLength="6.9214" x="138.3802" y="112.5122">...</text></g><!--class Address--><g class="entity" data-qualified-name="Site and References.Address" data-source-line="12" id="ent0004"><rect fill="#F1F1F1" height="16.6667" rx="1.3021" ry="1.3021" style="stroke:#181818;stroke-width:0.2604;" width="45.3562" x="11.6979" y="21.3542"/><ellipse cx="19.5104" cy="29.6875" fill="#ADD1B2" rx="5.7292" ry="5.7292" style="stroke:#181818;stroke-width:0.5208;"/><path d="M21.3928,33.0729 L17.3722,33.0729 L17.3722,26.6182 L21.3928,26.6182 L21.3928,27.7423 L18.6475,27.7423 L18.6475,29.1344 L21.1334,29.1344 L21.1334,30.2584 L18.6475,30.2584 L18.6475,31.9489 L21.3928,31.9489 Z " fill="#000000"/><text fill="#000000" font-family="sans-serif" font-size="7.2917" lengthAdjust="spacing" textLength="28.6896" x="26.8021" y="32.4432">Address</text></g><!--class MainAddress--><g class="entity" data-qualified-name="Site and References.MainAddress" data-source-line="14" id="ent0005"><rect fill="#F1F1F1" height="16.6667" rx="1.3021" ry="1.3021" style="stroke:#181818;stroke-width:0.2604;" width="62.2965" x="11.5625" y="88.7969"/><ellipse cx="19.375" cy="97.1302" fill="#ADD1B2" rx="5.7292" ry="5.7292" style="stroke:#181818;stroke-width:0.5208;"/><path d="M20.6631,100.3297 Q20.3605,100.4854 20.0276,100.5632 Q19.6947,100.641 19.3272,100.641 Q18.0215,100.641 17.3341,99.7807 Q16.6467,98.9203 16.6467,97.2947 Q16.6467,95.6649 17.3341,94.8045 Q18.0215,93.9442 19.3272,93.9442 Q19.6947,93.9442 20.0319,94.022 Q20.3691,94.0998 20.6631,94.2555 L20.6631,95.6735 Q20.3345,95.3709 20.0254,95.2304 Q19.7163,95.0899 19.3877,95.0899 Q18.6873,95.0899 18.3307,95.6454 Q17.974,96.2009 17.974,97.2947 Q17.974,98.3842 18.3307,98.9398 Q18.6873,99.4953 19.3877,99.4953 Q19.7163,99.4953 20.0254,99.3548 Q20.3345,99.2143 20.6631,98.9117 Z " fill="#000000"/><text fill="#000000" font-family="sans-serif" font-size="7.2917" lengthAdjust="spacing" textLength="45.6299" x="26.6667" y="99.8859">MainAddress</text></g><!--reverse link LegalEntity to Site--><g class="link" data-entity-1="ent0002" data-entity-2="ent0003" data-link-type="aggregation" data-source-line="16" id="lnk7"><path codeLine="16" d="M150.4083,44.4685 C150.3302,54.229 150.25,64.7917 150.1458,77.875" fill="none" id="LegalEntity-backto-Site" style="stroke:#181818;stroke-width:0.5208;"/><polygon fill="none" points="150.4583,38.2188,148.3501,41.327,150.4083,44.4685,152.5166,41.3603,150.4583,38.2188" style="stroke:#181818;stroke-width:0.5208;stroke-linejoin:miter;stroke-miterlimit:10;"/><text fill="#000000" font-family="sans-serif" font-size="6.7708" lengthAdjust="spacing" textLength="48.3711" x="150.8438" y="60.7127">LegalEntityBPN</text><text fill="#000000" font-family="sans-serif" font-size="6.7708" lengthAdjust="spacing" textLength="4.2814" x="145.6257" y="48.755">1</text><text fill="#000000" font-family="sans-serif" font-size="6.7708" lengthAdjust="spacing" textLength="3.2631" x="146.7806" y="72.4975">*</text></g><!--link Address to Site--><g class="link" data-entity-1="ent0004" data-entity-2="ent0003" data-link-type="aggregation" data-source-line="17" id="lnk8"><path codeLine="17" d="M52.7656,38.2135 C62.2083,42.5 73.8125,48.0417 83.8542,53.6458 C102.026,63.7917 116.7919,73.4888 129.9742,82.5774" fill="none" id="Address-to-Site" style="stroke:#181818;stroke-width:0.5208;"/><polygon fill="none" points="135.1198,86.125,133.7295,82.636,129.9742,82.5774,131.3645,86.0664,135.1198,86.125" style="stroke:#181818;stroke-width:0.5208;stroke-linejoin:miter;stroke-miterlimit:10;"/><text fill="#000000" font-family="sans-serif" font-size="6.7708" lengthAdjust="spacing" textLength="24.5476" x="99.2813" y="60.7127">SiteBPN</text><text fill="#000000" font-family="sans-serif" font-size="6.7708" lengthAdjust="spacing" textLength="11.8291" x="45.4019" y="48.7481">1..*</text><text fill="#000000" font-family="sans-serif" font-size="6.7708" lengthAdjust="spacing" textLength="12.8474" x="118.2973" y="81.7999">0..1</text></g><!--link Address to Site--><g class="link" data-entity-1="ent0004" data-entity-2="ent0003" data-link-type="aggregation" data-source-line="18" id="lnk9"><path codeLine="18" d="M30.2292,38.1875 C27.1927,45.2708 24.4271,55.5417 29.6875,62.5 C30.5052,63.5833 97.0893,82.032 129.0997,90.8549" fill="none" id="Address-to-Site-1" style="stroke:#181818;stroke-width:0.5208;"/><polygon fill="none" points="135.125,92.5156,132.6659,89.6768,129.0997,90.8549,131.5588,93.6937,135.125,92.5156" style="stroke:#181818;stroke-width:0.5208;stroke-linejoin:miter;stroke-miterlimit:10;"/><text fill="#000000" font-family="sans-serif" font-size="6.7708" lengthAdjust="spacing" textLength="49.0588" x="30.2083" y="60.7127">AdditionalSites</text><text fill="#000000" font-family="sans-serif" font-size="6.7708" lengthAdjust="spacing" textLength="3.2631" x="25.3063" y="48.7138">*</text><text fill="#000000" font-family="sans-serif" font-size="6.7708" lengthAdjust="spacing" textLength="3.2631" x="127.8054" y="98.9011">*</text></g><!--link Site to MainAddress--><g class="link" data-entity-1="ent0003" data-entity-2="ent0005" data-link-type="dependency" data-source-line="20" id="lnk10"><path codeLine="20" d="M135.0469,97.1302 C119.3229,97.1302 96.7344,97.1302 76.6354,97.1302" fill="none" id="Site-to-MainAddress" style="stroke:#181818;stroke-width:0.5208;"/><polygon fill="#181818" points="74.0313,97.1302,78.7188,99.2135,76.6354,97.1302,78.7188,95.0469,74.0313,97.1302" style="stroke:#181818;stroke-width:0.5208;stroke-linejoin:miter;stroke-miterlimit:10;"/><text fill="#000000" font-family="sans-serif" font-size="6.7708" lengthAdjust="spacing" textLength="42.3706" x="83.4635" y="93.7804">MainAddress</text><text fill="#000000" font-family="sans-serif" font-size="6.7708" lengthAdjust="spacing" textLength="4.2814" x="126.7414" y="94.9315">1</text><text fill="#000000" font-family="sans-serif" font-size="6.7708" lengthAdjust="spacing" textLength="4.2814" x="78.1093" y="95.3975">1</text></g><!--reverse link Address to MainAddress--><g class="link" data-entity-1="ent0004" data-entity-2="ent0005" data-link-type="extension" data-source-line="21" id="lnk12"><path codeLine="21" d="M17.766,44.7625 C11.3233,51.0229 11.3854,53.5885 14.5833,62.5 C18.2917,72.8333 26.6354,82.2656 33.276,88.5781" fill="none" id="Address-backto-MainAddress" style="stroke:#181818;stroke-width:0.5208;"/><polygon fill="none" points="24.4896,38.2292,15.5882,42.5213,19.9438,47.0037,24.4896,38.2292" style="stroke:#181818;stroke-width:0.5208;stroke-linejoin:miter;stroke-miterlimit:10;"/></g><?plantuml-src NK-zZi8m3Dxp55P6f4PqOEc0n4ct7GZ14_WQ7qIqQPM40VNwxkUa1qrPai_-Vcpxcx4zEcn1zmOsQo5wh6zu8P1d4mZGQZZH3pcoDNa9Wm0W6qnum1TTiFcSy31oVwQIDKe1Few7Sm9AAVv7CQjsMZloFfgvMJV8U8_6BlifIwua5FUY0rdAnU0ghtWM6vvsMIeLRJhQragnCsPLwNsJldIhISIvp9bWEejDRFXv5SufNB5D85-toYjMvnpl_hjzZXDyrzLeWfR2jTD-Ad9vI-qtkNyYFtT1lAd_0000?></g></svg>