<svg width="2737" height="1045" xmlns="http://www.w3.org/2000/svg" xmlns:xlink="http://www.w3.org/1999/xlink" xml:space="preserve" overflow="hidden"><defs><clipPath id="clip0"><rect x="355" y="151" width="2737" height="1045"/></clipPath><clipPath id="clip1"><rect x="358" y="-102" width="1599" height="694"/></clipPath><clipPath id="clip2"><rect x="1956" y="-102" width="274" height="694"/></clipPath><clipPath id="clip3"><rect x="2229" y="-102" width="274" height="694"/></clipPath><clipPath id="clip4"><rect x="2502" y="-102" width="274" height="694"/></clipPath><clipPath id="clip5"><rect x="2775" y="-102" width="273" height="694"/></clipPath><clipPath id="clip6"><rect x="358" y="80" width="1599" height="694"/></clipPath><clipPath id="clip7"><rect x="358" y="261" width="1599" height="694"/></clipPath><clipPath id="clip8"><rect x="358" y="443" width="1599" height="694"/></clipPath><clipPath id="clip9"><rect x="358" y="625" width="1599" height="694"/></clipPath></defs><g clip-path="url(#clip0)" transform="translate(-355 -151)"><path d="M358.247 153.755 1956.64 153.755 1956.64 335.645 358.247 335.645Z" fill="#F4F2F3" fill-rule="evenodd"/><path d="M1956.64 153.755 2229.48 153.755 2229.48 335.645 1956.64 335.645Z" fill="#F4F2F3" fill-rule="evenodd"/><path d="M2229.48 153.755 2502.31 153.755 2502.31 335.645 2229.48 335.645Z" fill="#F4F2F3" fill-rule="evenodd"/><path d="M2502.31 153.755 2775.15 153.755 2775.15 335.645 2502.31 335.645Z" fill="#F4F2F3" fill-rule="evenodd"/><path d="M2775.15 153.755 3047.98 153.755 3047.98 335.645 2775.15 335.645Z" fill="#F4F2F3" fill-rule="evenodd"/><path d="M358.247 699.425 1956.64 699.425 1956.64 881.314 358.247 881.314Z" fill="#FFA602" fill-rule="evenodd"/><path d="M1956.64 699.425 2229.48 699.425 2229.48 881.314 1956.64 881.314Z" fill="#FFA602" fill-rule="evenodd"/><path d="M2229.48 699.425 2502.31 699.425 2502.31 881.314 2229.48 881.314Z" fill="#FFA602" fill-rule="evenodd"/><path d="M2502.31 699.425 2775.15 699.425 2775.15 881.314 2502.31 881.314Z" fill="#FFA602" fill-rule="evenodd"/><path d="M2775.15 699.425 3047.98 699.425 3047.98 881.314 2775.15 881.314Z" fill="#FFA602" fill-rule="evenodd"/><path d="M1956.64 151.464 1956.64 1065.5" stroke="#000000" stroke-width="4.58333" stroke-linejoin="round" stroke-miterlimit="10" fill="none" fill-rule="evenodd"/><path d="M2229.48 151.464 2229.48 1065.5" stroke="#000000" stroke-width="4.58333" stroke-linejoin="round" stroke-miterlimit="10" fill="none" fill-rule="evenodd"/><path d="M2502.31 151.464 2502.31 1065.5" stroke="#000000" stroke-width="4.58333" stroke-linejoin="round" stroke-miterlimit="10" fill="none" fill-rule="evenodd"/><path d="M2775.15 151.464 2775.15 1065.5" stroke="#000000" stroke-width="4.58333" stroke-linejoin="round" stroke-miterlimit="10" fill="none" fill-rule="evenodd"/><path d="M355.956 335.645 3050.27 335.645" stroke="#000000" stroke-width="4.58333" stroke-linejoin="round" stroke-miterlimit="10" fill="none" fill-rule="evenodd"/><path d="M355.956 517.535 3050.27 517.535" stroke="#000000" stroke-width="4.58333" stroke-linejoin="round" stroke-miterlimit="10" fill="none" fill-rule="evenodd"/><path d="M355.956 699.425 3050.27 699.425" stroke="#000000" stroke-width="4.58333" stroke-linejoin="round" stroke-miterlimit="10" fill="none" fill-rule="evenodd"/><path d="M355.956 881.314 3050.27 881.314" stroke="#000000" stroke-width="4.58333" stroke-linejoin="round" stroke-miterlimit="10" fill="none" fill-rule="evenodd"/><path d="M358.247 151.464 358.247 1065.5" stroke="#000000" stroke-width="4.58333" stroke-linejoin="round" stroke-miterlimit="10" fill="none" fill-rule="evenodd"/><path d="M3047.98 151.464 3047.98 1065.5" stroke="#000000" stroke-width="4.58333" stroke-linejoin="round" stroke-miterlimit="10" fill="none" fill-rule="evenodd"/><path d="M355.956 153.755 3050.27 153.755" stroke="#000000" stroke-width="4.58333" stroke-linejoin="round" stroke-miterlimit="10" fill="none" fill-rule="evenodd"/><path d="M355.956 1063.2 3050.27 1063.2" stroke="#000000" stroke-width="4.58333" stroke-linejoin="round" stroke-miterlimit="10" fill="none" fill-rule="evenodd"/><g clip-path="url(#clip1)"><text font-family="Calibri,Calibri_MSFontService,sans-serif" font-weight="700" font-size="83" transform="matrix(1 0 0 1 391.247 272)">Customer Information</text></g><g clip-path="url(#clip2)"><text font-family="Calibri,Calibri_MSFontService,sans-serif" font-weight="700" font-size="83" transform="matrix(1 0 0 1 1989.64 272)">Day 1</text></g><g clip-path="url(#clip3)"><text font-family="Calibri,Calibri_MSFontService,sans-serif" font-weight="700" font-size="83" transform="matrix(1 0 0 1 2262.48 272)">Day 2</text></g><g clip-path="url(#clip4)"><text font-family="Calibri,Calibri_MSFontService,sans-serif" font-weight="700" font-size="83" transform="matrix(1 0 0 1 2535.31 272)">Day 3</text></g><g clip-path="url(#clip5)"><text font-family="Calibri,Calibri_MSFontService,sans-serif" font-weight="700" font-size="83" transform="matrix(1 0 0 1 2808.15 272)">Day 4</text></g><g clip-path="url(#clip6)"><text font-family="Calibri,Calibri_MSFontService,sans-serif" font-weight="400" font-size="83" transform="matrix(1 0 0 1 391.247 454)">Consumption in </text></g><text font-family="Calibri,Calibri_MSFontService,sans-serif" font-weight="400" font-size="83" transform="matrix(1 0 0 1 940.881 454)">production</text><text font-family="Calibri,Calibri_MSFontService,sans-serif" font-weight="400" font-size="83" transform="matrix(1 0 0 1 2051.24 454)">80</text><text font-family="Calibri,Calibri_MSFontService,sans-serif" font-weight="400" font-size="83" transform="matrix(1 0 0 1 2324.07 454)">80</text><text font-family="Calibri,Calibri_MSFontService,sans-serif" font-weight="400" font-size="83" transform="matrix(1 0 0 1 2575.99 454)">100</text><text font-family="Calibri,Calibri_MSFontService,sans-serif" font-weight="400" font-size="83" transform="matrix(1 0 0 1 2848.83 454)">100</text><g clip-path="url(#clip7)"><text font-family="Calibri,Calibri_MSFontService,sans-serif" font-weight="400" font-size="83" transform="matrix(1 0 0 1 391.247 636)">Call</text></g><text font-family="Calibri,Calibri_MSFontService,sans-serif" font-weight="400" font-size="83" transform="matrix(1 0 0 1 512.706 636)">-</text><text font-family="Calibri,Calibri_MSFontService,sans-serif" font-weight="400" font-size="83" transform="matrix(1 0 0 1 537.914 636)">off / order amount</text><text font-family="Calibri,Calibri_MSFontService,sans-serif" font-weight="400" font-size="83" transform="matrix(1 0 0 1 2030.33 636)">360</text><text font-family="Calibri,Calibri_MSFontService,sans-serif" font-weight="400" font-size="83" transform="matrix(1 0 0 1 2344.98 636)">0</text><text font-family="Calibri,Calibri_MSFontService,sans-serif" font-weight="400" font-size="83" transform="matrix(1 0 0 1 2617.82 636)">0</text><text font-family="Calibri,Calibri_MSFontService,sans-serif" font-weight="400" font-size="83" transform="matrix(1 0 0 1 2890.65 636)">0</text><g clip-path="url(#clip8)"><text font-family="Calibri,Calibri_MSFontService,sans-serif" font-weight="700" font-size="83" transform="matrix(1 0 0 1 391.247 818)">Demand </text></g><text font-family="Calibri,Calibri_MSFontService,sans-serif" font-weight="700" font-size="83" transform="matrix(1 0 0 1 699.477 818)">category</text><text font-family="Calibri,Calibri_MSFontService,sans-serif" font-weight="700" font-size="83" transform="matrix(1 0 0 1 1011.9 818)">= </text><text font-family="Calibri,Calibri_MSFontService,sans-serif" font-weight="700" font-size="83" transform="matrix(1 0 0 1 1072.06 818)">Series </text><text font-family="Calibri,Calibri_MSFontService,sans-serif" font-weight="700" font-size="83" transform="matrix(1 0 0 1 1294.35 818)">/ Default</text><text font-family="Calibri,Calibri_MSFontService,sans-serif" font-weight="700" font-size="83" transform="matrix(1 0 0 1 2051.24 818)">80</text><text font-family="Calibri,Calibri_MSFontService,sans-serif" font-weight="700" font-size="83" transform="matrix(1 0 0 1 2324.07 818)">80</text><text font-family="Calibri,Calibri_MSFontService,sans-serif" font-weight="700" font-size="83" transform="matrix(1 0 0 1 2575.99 818)">100</text><text font-family="Calibri,Calibri_MSFontService,sans-serif" font-weight="700" font-size="83" transform="matrix(1 0 0 1 2848.83 818)">100</text><g clip-path="url(#clip9)"><text font-family="Calibri,Calibri_MSFontService,sans-serif" font-weight="400" font-size="83" transform="matrix(1 0 0 1 391.247 1000)">End of </text></g><text font-family="Calibri,Calibri_MSFontService,sans-serif" font-weight="400" font-size="83" transform="matrix(1 0 0 1 624.997 1000)">day Item Stock</text><text font-family="Calibri,Calibri_MSFontService,sans-serif" font-weight="400" font-size="83" transform="matrix(1 0 0 1 2030.33 1000)">280</text><text font-family="Calibri,Calibri_MSFontService,sans-serif" font-weight="400" font-size="83" transform="matrix(1 0 0 1 2303.16 1000)">200</text><text font-family="Calibri,Calibri_MSFontService,sans-serif" font-weight="400" font-size="83" transform="matrix(1 0 0 1 2575.99 1000)">100</text><text font-family="Calibri,Calibri_MSFontService,sans-serif" font-weight="400" font-size="83" transform="matrix(1 0 0 1 2890.65 1000)">0</text><rect x="1478.5" y="1082.5" width="122" height="76" stroke="#41719C" stroke-width="4.58333" stroke-miterlimit="8" fill="#FFA602"/><text font-family="Calibri,Calibri_MSFontService,sans-serif" font-weight="400" font-size="64" transform="matrix(1 0 0 1 1632.87 1140)">Transferable </text><text font-family="Calibri,Calibri_MSFontService,sans-serif" font-style="italic" font-weight="400" font-size="64" transform="matrix(1 0 0 1 1967.82 1140)">Short</text><text font-family="Calibri,Calibri_MSFontService,sans-serif" font-style="italic" font-weight="400" font-size="64" transform="matrix(1 0 0 1 2106.47 1140)">-</text><text font-family="Calibri,Calibri_MSFontService,sans-serif" font-style="italic" font-weight="400" font-size="64" transform="matrix(1 0 0 1 2125.95 1140)">Term Material Demand </text><text font-family="Calibri,Calibri_MSFontService,sans-serif" font-weight="400" font-size="64" transform="matrix(1 0 0 1 2743.16 1140)">Information</text></g></svg>