<svg xmlns="http://www.w3.org/2000/svg" xmlns:xlink="http://www.w3.org/1999/xlink" contentStyleType="text/css" data-diagram-type="CLASS" height="538.5417px" preserveAspectRatio="none" style="width:456px;height:538px;background:#FFFFFF;" version="1.1" viewBox="0 0 456 538" width="456.25px" zoomAndPan="magnify"><?plantuml 1.2026.6?><defs/><g><!--cluster Example 'Porsche AG' with Its Legal Entity, Two of Its Sites and Four Addresses--><g class="cluster" data-qualified-name="Example .Porsche AG. with Its Legal Entity. Two of Its Sites and Four Addresses" data-source-line="4" id="ent0001"><path d="M4.4271,46.4896 L302.1688,46.4896 A1.9531,1.9531 0 0 1 303.4709,47.7917 L307.1167,58.2022 L447.1354,58.2022 A1.3021,1.3021 0 0 1 448.4375,59.5043 L448.4375,529.6354 A1.3021,1.3021 0 0 1 447.1354,530.9375 L4.4271,530.9375 A1.3021,1.3021 0 0 1 3.125,529.6354 L3.125,47.7917 A1.3021,1.3021 0 0 1 4.4271,46.4896" fill="none" style="stroke:#000000;stroke-width:0.7813;"/><line style="stroke:#000000;stroke-width:0.7813;" x1="3.125" x2="307.1167" y1="58.2022" y2="58.2022"/><text fill="#000000" font-family="sans-serif" font-size="7.2917" font-weight="700" lengthAdjust="spacing" textLength="297.2209" x="5.2083" y="54.5808">Example 'Porsche AG' with Its Legal Entity, Two of Its Sites and Four Addresses</text></g><g class="entity" data-qualified-name="Example .Porsche AG. with Its Legal Entity. Two of Its Sites and Four Addresses.LegalEntity" data-source-line="5" id="ent0002"><rect fill="#F1F1F1" height="40.6006" rx="1.3021" ry="1.3021" style="stroke:#181818;stroke-width:0.2604;" width="208.1451" x="224.5729" y="64.7188"/><text fill="#000000" font-family="sans-serif" font-size="7.2917" lengthAdjust="spacing" textLength="38.4806" x="309.4052" y="72.81">LegalEntity</text><line style="stroke:#181818;stroke-width:0.2604;" x1="225.0938" x2="432.1972" y1="75.3897" y2="75.3897"/><text fill="#000000" font-family="sans-serif" font-size="7.2917" lengthAdjust="spacing" textLength="201.8951" x="227.6979" y="84.5226">LegalName = "Dr. Ing. h.c. F. Porsche Aktiengesellschaft"</text><text fill="#000000" font-family="sans-serif" font-size="7.2917" lengthAdjust="spacing" textLength="94.9234" x="227.6979" y="93.1103">ShortName = "Porsche AG"</text><text fill="#000000" font-family="sans-serif" font-size="7.2917" lengthAdjust="spacing" textLength="105.4835" x="227.6979" y="101.6979">BPNL = "BPNL000000001F61"</text></g><g class="entity" data-qualified-name="Example .Porsche AG. with Its Legal Entity. Two of Its Sites and Four Addresses.Address1" data-source-line="11" id="ent0003"><rect fill="#F1F1F1" height="74.9512" rx="1.3021" ry="1.3021" style="stroke:#181818;stroke-width:0.2604;" width="114.4536" x="233.3958" y="145.4271"/><text fill="#000000" font-family="sans-serif" font-size="7.2917" lengthAdjust="spacing" textLength="33.3003" x="273.9725" y="153.5183">Address1</text><line style="stroke:#181818;stroke-width:0.2604;" x1="233.9167" x2="347.3286" y1="156.0981" y2="156.0981"/><text fill="#000000" font-family="sans-serif" font-size="7.2917" lengthAdjust="spacing" textLength="36.1415" x="236.5208" y="165.231">Name = ""</text><text fill="#000000" font-family="sans-serif" font-size="7.2917" lengthAdjust="spacing" textLength="108.2036" x="236.5208" y="173.8186">BPNA = "BPNA000000001K6B"</text><text fill="#000000" font-family="sans-serif" font-size="7.2917" lengthAdjust="spacing" textLength="53.3666" x="236.5208" y="182.4063">Country = "DE"</text><text fill="#000000" font-family="sans-serif" font-size="7.2917" lengthAdjust="spacing" textLength="60.466" x="236.5208" y="190.9939">City = "Stuttgart"</text><text fill="#000000" font-family="sans-serif" font-size="7.2917" lengthAdjust="spacing" textLength="78.1754" x="236.5208" y="199.5815">PostalCode = "70435"</text><text fill="#000000" font-family="sans-serif" font-size="7.2917" lengthAdjust="spacing" textLength="81.5114" x="236.5208" y="208.1692">Street = "Porscheplatz"</text><text fill="#000000" font-family="sans-serif" font-size="7.2917" lengthAdjust="spacing" textLength="70.9656" x="236.5208" y="216.7568">HouseNumber = "1"</text></g><g class="entity" data-qualified-name="Example .Porsche AG. with Its Legal Entity. Two of Its Sites and Four Addresses.Address2" data-source-line="21" id="ent0004"><rect fill="#F1F1F1" height="74.9512" rx="1.3021" ry="1.3021" style="stroke:#181818;stroke-width:0.2604;" width="115.2761" x="251.7344" y="260.4792"/><text fill="#000000" font-family="sans-serif" font-size="7.2917" lengthAdjust="spacing" textLength="33.3003" x="292.7223" y="268.5704">Address2</text><line style="stroke:#181818;stroke-width:0.2604;" x1="252.2552" x2="366.4896" y1="271.1501" y2="271.1501"/><text fill="#000000" font-family="sans-serif" font-size="7.2917" lengthAdjust="spacing" textLength="103.8066" x="254.8594" y="280.283">Name = "Pforte (Lieferanten)"</text><text fill="#000000" font-family="sans-serif" font-size="7.2917" lengthAdjust="spacing" textLength="106.1279" x="254.8594" y="288.8707">BPNA = "BPNA000000001J39"</text><text fill="#000000" font-family="sans-serif" font-size="7.2917" lengthAdjust="spacing" textLength="53.3666" x="254.8594" y="297.4583">Country = "DE"</text><text fill="#000000" font-family="sans-serif" font-size="7.2917" lengthAdjust="spacing" textLength="60.466" x="254.8594" y="306.046">City = "Stuttgart"</text><text fill="#000000" font-family="sans-serif" font-size="7.2917" lengthAdjust="spacing" textLength="78.1754" x="254.8594" y="314.6336">PostalCode = "70435"</text><text fill="#000000" font-family="sans-serif" font-size="7.2917" lengthAdjust="spacing" textLength="109.0261" x="254.8594" y="323.2213">Street = "Schwieberdinger Str."</text><text fill="#000000" font-family="sans-serif" font-size="7.2917" lengthAdjust="spacing" textLength="80.187" x="254.8594" y="331.8089">HouseNumber = "130"</text></g><g class="entity" data-qualified-name="Example .Porsche AG. with Its Legal Entity. Two of Its Sites and Four Addresses.Address3" data-source-line="31" id="ent0005"><rect fill="#F1F1F1" height="74.9512" rx="1.3021" ry="1.3021" style="stroke:#181818;stroke-width:0.2604;" width="115.6677" x="81.75" y="260.4792"/><text fill="#000000" font-family="sans-serif" font-size="7.2917" lengthAdjust="spacing" textLength="33.3003" x="122.9337" y="268.5704">Address3</text><line style="stroke:#181818;stroke-width:0.2604;" x1="82.2708" x2="196.8969" y1="271.1501" y2="271.1501"/><text fill="#000000" font-family="sans-serif" font-size="7.2917" lengthAdjust="spacing" textLength="78.891" x="84.875" y="280.283">Name = "Hauptpforte"</text><text fill="#000000" font-family="sans-serif" font-size="7.2917" lengthAdjust="spacing" textLength="109.4177" x="84.875" y="288.8707">BPNA = "BPNA000000001L5M"</text><text fill="#000000" font-family="sans-serif" font-size="7.2917" lengthAdjust="spacing" textLength="53.3666" x="84.875" y="297.4583">Country = "DE"</text><text fill="#000000" font-family="sans-serif" font-size="7.2917" lengthAdjust="spacing" textLength="60.466" x="84.875" y="306.046">City = "Stuttgart"</text><text fill="#000000" font-family="sans-serif" font-size="7.2917" lengthAdjust="spacing" textLength="78.1754" x="84.875" y="314.6336">PostalCode = "70435"</text><text fill="#000000" font-family="sans-serif" font-size="7.2917" lengthAdjust="spacing" textLength="85.759" x="84.875" y="323.2213">Street = "Porschestra&#223;e"</text><text fill="#000000" font-family="sans-serif" font-size="7.2917" lengthAdjust="spacing" textLength="75.5763" x="84.875" y="331.8089">HouseNumber = "42"</text></g><g class="entity" data-qualified-name="Example .Porsche AG. with Its Legal Entity. Two of Its Sites and Four Addresses.Address4" data-source-line="41" id="ent0006"><rect fill="#F1F1F1" height="74.9512" rx="1.3021" ry="1.3021" style="stroke:#181818;stroke-width:0.2604;" width="116.8248" x="306.1719" y="447.651"/><text fill="#000000" font-family="sans-serif" font-size="7.2917" lengthAdjust="spacing" textLength="33.3003" x="347.9342" y="455.7423">Address4</text><line style="stroke:#181818;stroke-width:0.2604;" x1="306.6927" x2="422.4759" y1="458.322" y2="458.322"/><text fill="#000000" font-family="sans-serif" font-size="7.2917" lengthAdjust="spacing" textLength="85.0433" x="309.2969" y="467.4549">Name = "Werkseinfahrt"</text><text fill="#000000" font-family="sans-serif" font-size="7.2917" lengthAdjust="spacing" textLength="110.5748" x="309.2969" y="476.0426">BPNA = "BPNA000000001M4C"</text><text fill="#000000" font-family="sans-serif" font-size="7.2917" lengthAdjust="spacing" textLength="53.3666" x="309.2969" y="484.6302">Country = "DE"</text><text fill="#000000" font-family="sans-serif" font-size="7.2917" lengthAdjust="spacing" textLength="60.466" x="309.2969" y="493.2179">City = "Stuttgart"</text><text fill="#000000" font-family="sans-serif" font-size="7.2917" lengthAdjust="spacing" textLength="78.1754" x="309.2969" y="501.8055">PostalCode = "70435"</text><text fill="#000000" font-family="sans-serif" font-size="7.2917" lengthAdjust="spacing" textLength="109.0261" x="309.2969" y="510.3931">Street = "Schwieberdinger Str."</text><text fill="#000000" font-family="sans-serif" font-size="7.2917" lengthAdjust="spacing" textLength="80.187" x="309.2969" y="518.9808">HouseNumber = "100"</text></g><g class="entity" data-qualified-name="Example .Porsche AG. with Its Legal Entity. Two of Its Sites and Four Addresses.Site1" data-source-line="51" id="ent0007"><rect fill="#F1F1F1" height="32.0129" rx="1.3021" ry="1.3021" style="stroke:#181818;stroke-width:0.2604;" width="149.5733" x="11.6719" y="166.8958"/><text fill="#000000" font-family="sans-serif" font-size="7.2917" lengthAdjust="spacing" textLength="17.4352" x="77.7409" y="174.9871">Site1</text><line style="stroke:#181818;stroke-width:0.2604;" x1="12.1927" x2="160.7243" y1="177.5668" y2="177.5668"/><text fill="#000000" font-family="sans-serif" font-size="7.2917" lengthAdjust="spacing" textLength="143.3233" x="14.7969" y="186.6997">Name = "Porsche Zuffenhausen, Werk 2"</text><text fill="#000000" font-family="sans-serif" font-size="7.2917" lengthAdjust="spacing" textLength="107.5948" x="14.7969" y="195.2874">BPNS = "BPNS00000003CRHK"</text></g><g class="entity" data-qualified-name="Example .Porsche AG. with Its Legal Entity. Two of Its Sites and Four Addresses.Site2" data-source-line="56" id="ent0008"><rect fill="#F1F1F1" height="32.0129" rx="1.3021" ry="1.3021" style="stroke:#181818;stroke-width:0.2604;" width="149.5733" x="252.8177" y="375.5365"/><text fill="#000000" font-family="sans-serif" font-size="7.2917" lengthAdjust="spacing" textLength="17.4352" x="318.8867" y="383.6277">Site2</text><line style="stroke:#181818;stroke-width:0.2604;" x1="253.3385" x2="401.8701" y1="386.2074" y2="386.2074"/><text fill="#000000" font-family="sans-serif" font-size="7.2917" lengthAdjust="spacing" textLength="143.3233" x="255.9427" y="395.3403">Name = "Porsche Zuffenhausen, Werk 5"</text><text fill="#000000" font-family="sans-serif" font-size="7.2917" lengthAdjust="spacing" textLength="104.0487" x="255.9427" y="403.928">BPNS = "BPNS00000003DTJL"</text></g><!--link LegalEntity to Address1--><g class="link" data-entity-1="ent0002" data-entity-2="ent0003" data-link-type="dependency" data-source-line="78" id="lnk9"><path codeLine="78" d="M320.8594,105.3698 C316.3385,116.8802 311.4568,129.3259 306.1183,142.9249" fill="none" id="LegalEntity-to-Address1" style="stroke:#181818;stroke-width:0.5208;stroke-dasharray:3.6458,3.6458;"/><polygon fill="#181818" points="305.1667,145.349,308.8188,141.7469,306.1183,142.9249,304.9403,140.2243,305.1667,145.349" style="stroke:#181818;stroke-width:0.5208;stroke-linejoin:miter;stroke-miterlimit:10;"/><text fill="#000000" font-family="sans-serif" font-size="6.7708" lengthAdjust="spacing" textLength="43.941" x="314.6823" y="128.0148">LegalAddress</text></g><!--reverse link LegalEntity to Address1--><g class="link" data-entity-1="ent0002" data-entity-2="ent0003" data-link-type="dependency" data-source-line="81" id="lnk13"><path codeLine="81" d="M299.5902,107.3609 C295.21,111.913 293.1094,115.2396 290.625,120.9479 C287.349,128.474 286.0417,137.0365 285.8177,145.3229" fill="none" id="LegalEntity-backto-Address1" style="stroke:#181818;stroke-width:0.5208;"/><polygon fill="#181818" points="301.3958,105.4844,296.6444,107.4176,299.5902,107.3609,299.6469,110.3066,301.3958,105.4844" style="stroke:#181818;stroke-width:0.5208;stroke-linejoin:miter;stroke-miterlimit:10;"/><text fill="#000000" font-family="sans-serif" font-size="6.7708" lengthAdjust="spacing" textLength="16.2493" x="291.1458" y="128.0148">BPNL</text></g><!--link Site1 to Address3--><g class="link" data-entity-1="ent0007" data-entity-2="ent0005" data-link-type="dependency" data-source-line="79" id="lnk10"><path codeLine="79" d="M72.8125,198.9844 C63.4427,211.6563 54.0156,229.8438 61.9792,244.8542 C66.7083,253.7708 71.6921,259.787 79.5671,266.3079" fill="none" id="Site1-to-Address3" style="stroke:#181818;stroke-width:0.5208;stroke-dasharray:3.6458,3.6458;"/><polygon fill="#181818" points="81.5729,267.9688,79.2912,263.3745,79.5671,266.3079,76.6338,266.5838,81.5729,267.9688" style="stroke:#181818;stroke-width:0.5208;stroke-linejoin:miter;stroke-miterlimit:10;"/><text fill="#000000" font-family="sans-serif" font-size="6.7708" lengthAdjust="spacing" textLength="54.2791" x="62.5" y="243.0669">SiteMainAddress</text></g><!--reverse link Site1 to Address3--><g class="link" data-entity-1="ent0007" data-entity-2="ent0005" data-link-type="dependency" data-source-line="85" id="lnk20"><path codeLine="85" d="M99.0027,201.1245 C105.9037,211.3067 113.1458,222.9479 119.2708,236 C122.875,243.6823 126.1146,252.1719 128.901,260.3333" fill="none" id="Site1-backto-Address3" style="stroke:#181818;stroke-width:0.5208;"/><polygon fill="#181818" points="97.5417,198.9688,98.447,204.0178,99.0027,201.1245,101.8961,201.6802,97.5417,198.9688" style="stroke:#181818;stroke-width:0.5208;stroke-linejoin:miter;stroke-miterlimit:10;"/><text fill="#000000" font-family="sans-serif" font-size="6.7708" lengthAdjust="spacing" textLength="16.2857" x="123.3281" y="243.0669">BPNS</text></g><!--link Site2 to Address4--><g class="link" data-entity-1="ent0008" data-entity-2="ent0006" data-link-type="dependency" data-source-line="80" id="lnk11"><path codeLine="80" d="M336.7083,407.7917 C339.3281,412.6406 342.0729,418.0521 344.2708,423.1719 C347.5938,430.9167 349.8777,436.9295 352.6277,445.044" fill="none" id="Site2-to-Address4" style="stroke:#181818;stroke-width:0.5208;stroke-dasharray:3.6458,3.6458;"/><polygon fill="#181818" points="353.4635,447.5104,353.9321,442.4023,352.6277,445.044,349.9859,443.7396,353.4635,447.5104" style="stroke:#181818;stroke-width:0.5208;stroke-linejoin:miter;stroke-miterlimit:10;"/><text fill="#000000" font-family="sans-serif" font-size="6.7708" lengthAdjust="spacing" textLength="54.2791" x="348.1198" y="430.2387">SiteMainAddress</text></g><!--reverse link Site2 to Address4--><g class="link" data-entity-1="ent0008" data-entity-2="ent0006" data-link-type="dependency" data-source-line="87" id="lnk24"><path codeLine="87" d="M322.0394,410.3332 C320.4352,417.8436 320.2292,424.3073 322.9167,432.026 C324.776,437.3646 327.4219,442.5625 330.5,447.4896" fill="none" id="Site2-backto-Address4" style="stroke:#181818;stroke-width:0.5208;"/><polygon fill="#181818" points="322.5833,407.7865,319.5668,411.9354,322.0394,410.3332,323.6416,412.8057,322.5833,407.7865" style="stroke:#181818;stroke-width:0.5208;stroke-linejoin:miter;stroke-miterlimit:10;"/><text fill="#000000" font-family="sans-serif" font-size="6.7708" lengthAdjust="spacing" textLength="16.2857" x="323.4375" y="430.2387">BPNS</text></g><!--reverse link Site1 to Address2--><g class="link" data-entity-1="ent0007" data-entity-2="ent0004" data-link-type="dependency" data-source-line="82" id="lnk15"><path codeLine="82" d="M119.5373,200.3419 C154.1155,218.0242 208.7083,245.9479 251.6406,267.9063" fill="none" id="Site1-backto-Address2" style="stroke:#181818;stroke-width:0.5208;"/><polygon fill="#181818" points="117.2188,199.1563,120.4437,203.1453,119.5373,200.3419,122.3408,199.4356,117.2188,199.1563" style="stroke:#181818;stroke-width:0.5208;stroke-linejoin:miter;stroke-miterlimit:10;"/><text fill="#000000" font-family="sans-serif" font-size="6.7708" lengthAdjust="spacing" textLength="16.2857" x="205.1198" y="243.0669">BPNS</text></g><!--reverse link LegalEntity to Address2--><g class="link" data-entity-1="ent0002" data-entity-2="ent0004" data-link-type="dependency" data-source-line="83" id="lnk17"><path codeLine="83" d="M354.7023,107.4063 C358.8013,112.0261 360.7344,115.3073 363.0208,120.9479 C370.651,139.7552 426.401,3.125 356.7708,220.375 C352.3125,234.2865 344.8385,248.2604 337.1302,260.4167" fill="none" id="LegalEntity-backto-Address2" style="stroke:#181818;stroke-width:0.5208;"/><polygon fill="#181818" points="352.974,105.4583,354.5266,110.3473,354.7023,107.4063,357.6433,107.582,352.974,105.4583" style="stroke:#181818;stroke-width:0.5208;stroke-linejoin:miter;stroke-miterlimit:10;"/><text fill="#000000" font-family="sans-serif" font-size="6.7708" lengthAdjust="spacing" textLength="16.2493" x="380.1406" y="185.5408">BPNL</text></g><!--link Address2 to Site2--><g class="link" data-entity-1="ent0004" data-entity-2="ent0008" data-link-type="dependency" data-source-line="84" id="lnk18"><path codeLine="84" d="M316.6823,335.5833 C319.4167,349.4635 321.8772,361.9345 324.0231,372.8355" fill="none" id="Address2-to-Site2" style="stroke:#181818;stroke-width:0.5208;stroke-dasharray:3.6458,3.6458;"/><polygon fill="#181818" points="324.526,375.3906,325.6648,370.389,324.0231,372.8355,321.5766,371.1938,324.526,375.3906" style="stroke:#181818;stroke-width:0.5208;stroke-linejoin:miter;stroke-miterlimit:10;"/><text fill="#000000" font-family="sans-serif" font-size="6.7708" lengthAdjust="spacing" textLength="49.0588" x="321.7083" y="358.1241">AdditionalSites</text></g><!--reverse link LegalEntity to Address3--><g class="link" data-entity-1="ent0002" data-entity-2="ent0005" data-link-type="dependency" data-source-line="86" id="lnk22"><path codeLine="86" d="M257.1676,106.6339 C237.3343,115.6912 220.0208,127.4479 207.2917,145.4271 C181.5677,181.75 215.3594,205.1146 195.3125,244.8542 C192.5573,250.3177 188.9896,255.5156 185,260.3646" fill="none" id="LegalEntity-backto-Address3" style="stroke:#181818;stroke-width:0.5208;"/><polygon fill="#181818" points="259.5365,105.5521,254.4071,105.6042,257.1676,106.6339,256.138,109.3944,259.5365,105.5521" style="stroke:#181818;stroke-width:0.5208;stroke-linejoin:miter;stroke-miterlimit:10;"/><text fill="#000000" font-family="sans-serif" font-size="6.7708" lengthAdjust="spacing" textLength="16.2493" x="207.8125" y="185.5408">BPNL</text></g><!--reverse link LegalEntity to Address4--><g class="link" data-entity-1="ent0002" data-entity-2="ent0006" data-link-type="dependency" data-source-line="88" id="lnk26"><path codeLine="88" d="M374.6106,106.9171 C382.0169,111.3807 387.0677,115.1823 393.2292,120.9479 C431.6719,156.9063 417.75,183.4844 421.3542,236 C427.3385,323.1615 443.401,352.7135 406.7708,432.026 C404.3438,437.2865 401.276,442.4792 397.9063,447.4323" fill="none" id="LegalEntity-backto-Address4" style="stroke:#181818;stroke-width:0.5208;"/><polygon fill="#181818" points="372.3802,105.5729,375.3196,109.7768,374.6106,106.9171,377.4703,106.2082,372.3802,105.5729" style="stroke:#181818;stroke-width:0.5208;stroke-linejoin:miter;stroke-miterlimit:10;"/><text fill="#000000" font-family="sans-serif" font-size="6.7708" lengthAdjust="spacing" textLength="16.2493" x="430.5417" y="300.5981">BPNL</text></g><!--reverse link LegalEntity to Site1--><g class="link" data-entity-1="ent0002" data-entity-2="ent0007" data-link-type="dependency" data-source-line="89" id="lnk28"><path codeLine="89" d="M221.8265,104.9315 C205.3265,109.4419 191.2292,114.2656 176.0417,120.9479 C149.2865,132.7188 122.0885,152.7552 104.7969,166.7344" fill="none" id="LegalEntity-backto-Site1" style="stroke:#181818;stroke-width:0.5208;"/><polygon fill="#181818" points="224.3385,104.2448,219.2676,103.4712,221.8265,104.9315,220.3663,107.4904,224.3385,104.2448" style="stroke:#181818;stroke-width:0.5208;stroke-linejoin:miter;stroke-miterlimit:10;"/><text fill="#000000" font-family="sans-serif" font-size="6.7708" lengthAdjust="spacing" textLength="16.2493" x="176.5625" y="128.0148">BPNL</text></g><!--reverse link LegalEntity to Site2--><g class="link" data-entity-1="ent0002" data-entity-2="ent0008" data-link-type="dependency" data-source-line="90" id="lnk30"><path codeLine="90" d="M368.6176,106.9862 C382.7582,116.8144 394.7708,128.7031 401.0417,145.4271 C412.7344,176.6146 404.0521,187.2031 401.0417,220.375 C395.349,283.1615 410.4896,307.4531 375.5208,359.9115 C371.5052,365.9375 365.8854,371.0521 359.8958,375.2917" fill="none" id="LegalEntity-backto-Site2" style="stroke:#181818;stroke-width:0.5208;"/><polygon fill="#181818" points="366.4792,105.5,369.1393,109.886,368.6176,106.9862,371.5173,106.4645,366.4792,105.5" style="stroke:#181818;stroke-width:0.5208;stroke-linejoin:miter;stroke-miterlimit:10;"/><text fill="#000000" font-family="sans-serif" font-size="6.7708" lengthAdjust="spacing" textLength="16.2493" x="400.4635" y="243.0669">BPNL</text></g><?plantuml-src nLNDRjf04Bxp52CkRYMm23Qf6gcHW93c1n2gaIgrwc63ntYBMLkxQoLfb6Vfm_J5kbwlRI0spIKg5xGptynytyxiM6meImWdM_0J2eDUgvMGrOQi4TgJ1x9D8WHh4NEn2X66dosufpA4QobWYciImOH9AXyxiBoF8GwqmwCI1H3cmsMSSXZwFaSXKBJXgGKGt_t4bSoZys1jXjmo9rk4Jz2-u3PSixKDeRsouTA6ai96KcHh51X5oa02sTRHNXXpMKHNV7FdQ36VPlRilsT-9vUd9vdtkLMHCbHF3ACYNPbaQ98CooItfwFSEuvJ9lcZvZunfaoREdiobN9Dk66wY8KaqJZsTUuFFTSP60cI8yeT_ab4vA_STnMd0kVfzWvv1cXYtZzWlWZKhI2ycr8Ca1CcaRq_ekR6-VW6QhnLU4zHCVUfQXpFF7QzAgVNeCivq7L5qaGcMjmHETF1xEsQ8oGdVtvZhH2ttw33FT3n5Vb686K12Gi6jKfcxlY_DgRteZ7P8pzy9yMp-vO60RAGg1oi0vb6w9VYF2FECzgSyPUhsxhi_TTd7pHdlrZUJCliLf5_b0hAL3yMwhgOqlYadL2qQVcOw9BgI2MD6OcCesrm6QSiLYZKTsE3vgtLxbIOcWMsuwqLkGl8RxC3jI_xXy6zc1AhQKwivacnNZKhLkCpjeexFxpiBk-Ux-t_CxsWcx7vh6cKrumgLw063bkmLyFsxVDglv_bFdDMqBp4BiXHeCmw8vJju_fxEBSMLrRgfarYIxuQSg1nttaythRF3Qypg2PMVuKhc7EiZFFlCcuLttyHxnw9poiUzpVBV6xz1G00?></g></svg>