<svg width="2651" height="1226" xmlns="http://www.w3.org/2000/svg" xmlns:xlink="http://www.w3.org/1999/xlink" xml:space="preserve" overflow="hidden"><defs><clipPath id="clip0"><rect x="372" y="381" width="2651" height="1226"/></clipPath><clipPath id="clip1"><rect x="374" y="127" width="1553" height="694"/></clipPath><clipPath id="clip2"><rect x="1926" y="127" width="274" height="694"/></clipPath><clipPath id="clip3"><rect x="2199" y="127" width="274" height="694"/></clipPath><clipPath id="clip4"><rect x="2472" y="127" width="273" height="694"/></clipPath><clipPath id="clip5"><rect x="2744" y="127" width="274" height="694"/></clipPath><clipPath id="clip6"><rect x="374" y="309" width="1553" height="694"/></clipPath><clipPath id="clip7"><rect x="374" y="491" width="1553" height="694"/></clipPath><clipPath id="clip8"><rect x="374" y="673" width="1553" height="694"/></clipPath><clipPath id="clip9"><rect x="374" y="855" width="1553" height="694"/></clipPath><clipPath id="clip10"><rect x="374" y="1037" width="1553" height="694"/></clipPath></defs><g clip-path="url(#clip0)" transform="translate(-372 -381)"><path d="M374.956 383.502 1926.47 383.502 1926.47 565.392 374.956 565.392Z" fill="#F4F2F3" fill-rule="evenodd"/><path d="M1926.47 383.502 2199.3 383.502 2199.3 565.392 1926.47 565.392Z" fill="#F4F2F3" fill-rule="evenodd"/><path d="M2199.3 383.502 2472.13 383.502 2472.13 565.392 2199.3 565.392Z" fill="#F4F2F3" fill-rule="evenodd"/><path d="M2472.13 383.502 2744.97 383.502 2744.97 565.392 2472.13 565.392Z" fill="#F4F2F3" fill-rule="evenodd"/><path d="M2744.97 383.502 3017.8 383.502 3017.8 565.392 2744.97 565.392Z" fill="#F4F2F3" fill-rule="evenodd"/><path d="M374.956 929.171 1926.47 929.171 1926.47 1111.06 374.956 1111.06Z" fill="#FFA602" fill-rule="evenodd"/><path d="M1926.47 929.171 2199.3 929.171 2199.3 1111.06 1926.47 1111.06Z" fill="#FFA602" fill-rule="evenodd"/><path d="M2199.3 929.171 2472.13 929.171 2472.13 1111.06 2199.3 1111.06Z" fill="#FFA602" fill-rule="evenodd"/><path d="M2472.13 929.171 2744.97 929.171 2744.97 1111.06 2472.13 1111.06Z" fill="#FFA602" fill-rule="evenodd"/><path d="M2744.97 929.171 3017.8 929.171 3017.8 1111.06 2744.97 1111.06Z" fill="#FFA602" fill-rule="evenodd"/><path d="M374.956 1111.06 1926.47 1111.06 1926.47 1292.95 374.956 1292.95Z" fill="#FFA602" fill-rule="evenodd"/><path d="M1926.47 1111.06 2199.3 1111.06 2199.3 1292.95 1926.47 1292.95Z" fill="#FFA602" fill-rule="evenodd"/><path d="M2199.3 1111.06 2472.13 1111.06 2472.13 1292.95 2199.3 1292.95Z" fill="#FFA602" fill-rule="evenodd"/><path d="M2472.13 1111.06 2744.97 1111.06 2744.97 1292.95 2472.13 1292.95Z" fill="#FFA602" fill-rule="evenodd"/><path d="M2744.97 1111.06 3017.8 1111.06 3017.8 1292.95 2744.97 1292.95Z" fill="#FFA602" fill-rule="evenodd"/><path d="M1926.47 381.21 1926.47 1477.13" stroke="#000000" stroke-width="4.58333" stroke-linejoin="round" stroke-miterlimit="10" fill="none" fill-rule="evenodd"/><path d="M2199.3 381.21 2199.3 1477.13" stroke="#000000" stroke-width="4.58333" stroke-linejoin="round" stroke-miterlimit="10" fill="none" fill-rule="evenodd"/><path d="M2472.13 381.21 2472.13 1477.13" stroke="#000000" stroke-width="4.58333" stroke-linejoin="round" stroke-miterlimit="10" fill="none" fill-rule="evenodd"/><path d="M2744.97 381.21 2744.97 1477.13" stroke="#000000" stroke-width="4.58333" stroke-linejoin="round" stroke-miterlimit="10" fill="none" fill-rule="evenodd"/><path d="M372.665 565.392 3020.1 565.392" stroke="#000000" stroke-width="4.58333" stroke-linejoin="round" stroke-miterlimit="10" fill="none" fill-rule="evenodd"/><path d="M372.665 747.281 3020.1 747.281" stroke="#000000" stroke-width="4.58333" stroke-linejoin="round" stroke-miterlimit="10" fill="none" fill-rule="evenodd"/><path d="M372.665 929.171 3020.1 929.171" stroke="#000000" stroke-width="4.58333" stroke-linejoin="round" stroke-miterlimit="10" fill="none" fill-rule="evenodd"/><path d="M372.665 1111.06 3020.1 1111.06" stroke="#000000" stroke-width="4.58333" stroke-linejoin="round" stroke-miterlimit="10" fill="none" fill-rule="evenodd"/><path d="M372.665 1292.95 3020.1 1292.95" stroke="#000000" stroke-width="4.58333" stroke-linejoin="round" stroke-miterlimit="10" fill="none" fill-rule="evenodd"/><path d="M374.956 381.21 374.956 1477.13" stroke="#000000" stroke-width="4.58333" stroke-linejoin="round" stroke-miterlimit="10" fill="none" fill-rule="evenodd"/><path d="M3017.8 381.21 3017.8 1477.13" stroke="#000000" stroke-width="4.58333" stroke-linejoin="round" stroke-miterlimit="10" fill="none" fill-rule="evenodd"/><path d="M372.665 383.502 3020.1 383.502" stroke="#000000" stroke-width="4.58333" stroke-linejoin="round" stroke-miterlimit="10" fill="none" fill-rule="evenodd"/><path d="M372.665 1474.84 3020.1 1474.84" stroke="#000000" stroke-width="4.58333" stroke-linejoin="round" stroke-miterlimit="10" fill="none" fill-rule="evenodd"/><g clip-path="url(#clip1)"><text font-family="Calibri,Calibri_MSFontService,sans-serif" font-weight="700" font-size="83" transform="matrix(1 0 0 1 407.672 502)">Customer Information</text></g><g clip-path="url(#clip2)"><text font-family="Calibri,Calibri_MSFontService,sans-serif" font-weight="700" font-size="83" transform="matrix(1 0 0 1 1959.18 502)">Day 1</text></g><g clip-path="url(#clip3)"><text font-family="Calibri,Calibri_MSFontService,sans-serif" font-weight="700" font-size="83" transform="matrix(1 0 0 1 2232.02 502)">Day 2</text></g><g clip-path="url(#clip4)"><text font-family="Calibri,Calibri_MSFontService,sans-serif" font-weight="700" font-size="83" transform="matrix(1 0 0 1 2504.85 502)">Day 3</text></g><g clip-path="url(#clip5)"><text font-family="Calibri,Calibri_MSFontService,sans-serif" font-weight="700" font-size="83" transform="matrix(1 0 0 1 2777.69 502)">Day 4</text></g><g clip-path="url(#clip6)"><text font-family="Calibri,Calibri_MSFontService,sans-serif" font-weight="400" font-size="83" transform="matrix(1 0 0 1 407.672 684)">Consumption in production</text></g><text font-family="Calibri,Calibri_MSFontService,sans-serif" font-weight="400" font-size="83" transform="matrix(1 0 0 1 2021.06 684)">80</text><text font-family="Calibri,Calibri_MSFontService,sans-serif" font-weight="400" font-size="83" transform="matrix(1 0 0 1 2293.89 684)">80</text><text font-family="Calibri,Calibri_MSFontService,sans-serif" font-weight="400" font-size="83" transform="matrix(1 0 0 1 2545.82 684)">100</text><text font-family="Calibri,Calibri_MSFontService,sans-serif" font-weight="400" font-size="83" transform="matrix(1 0 0 1 2818.65 684)">100</text><g clip-path="url(#clip7)"><text font-family="Calibri,Calibri_MSFontService,sans-serif" font-weight="400" font-size="83" transform="matrix(1 0 0 1 407.672 866)">Call</text></g><text font-family="Calibri,Calibri_MSFontService,sans-serif" font-weight="400" font-size="83" transform="matrix(1 0 0 1 529.131 866)">-</text><text font-family="Calibri,Calibri_MSFontService,sans-serif" font-weight="400" font-size="83" transform="matrix(1 0 0 1 554.339 866)">off / </text><text font-family="Calibri,Calibri_MSFontService,sans-serif" font-weight="400" font-size="83" transform="matrix(1 0 0 1 717.391 866)">order</text><text font-family="Calibri,Calibri_MSFontService,sans-serif" font-weight="400" font-size="83" transform="matrix(1 0 0 1 920.799 866)">amount</text><text font-family="Calibri,Calibri_MSFontService,sans-serif" font-weight="400" font-size="83" transform="matrix(1 0 0 1 2021.06 866)">90</text><text font-family="Calibri,Calibri_MSFontService,sans-serif" font-weight="400" font-size="83" transform="matrix(1 0 0 1 2293.89 866)">75</text><text font-family="Calibri,Calibri_MSFontService,sans-serif" font-weight="400" font-size="83" transform="matrix(1 0 0 1 2545.82 866)">105</text><text font-family="Calibri,Calibri_MSFontService,sans-serif" font-weight="400" font-size="83" transform="matrix(1 0 0 1 2818.65 866)">105</text><g clip-path="url(#clip8)"><text font-family="Calibri,Calibri_MSFontService,sans-serif" font-weight="700" font-size="83" transform="matrix(1 0 0 1 407.672 1048)">Demand </text></g><text font-family="Calibri,Calibri_MSFontService,sans-serif" font-weight="700" font-size="83" transform="matrix(1 0 0 1 715.901 1048)">category</text><text font-family="Calibri,Calibri_MSFontService,sans-serif" font-weight="700" font-size="83" transform="matrix(1 0 0 1 1028.32 1048)">= Series / Default</text><text font-family="Calibri,Calibri_MSFontService,sans-serif" font-weight="700" font-size="83" transform="matrix(1 0 0 1 2021.06 1048)">80</text><text font-family="Calibri,Calibri_MSFontService,sans-serif" font-weight="700" font-size="83" transform="matrix(1 0 0 1 2293.89 1048)">80</text><text font-family="Calibri,Calibri_MSFontService,sans-serif" font-weight="700" font-size="83" transform="matrix(1 0 0 1 2545.82 1048)">100</text><text font-family="Calibri,Calibri_MSFontService,sans-serif" font-weight="700" font-size="83" transform="matrix(1 0 0 1 2818.65 1048)">100</text><g clip-path="url(#clip9)"><text font-family="Calibri,Calibri_MSFontService,sans-serif" font-weight="700" font-size="83" transform="matrix(1 0 0 1 407.672 1230)">Demand </text></g><text font-family="Calibri,Calibri_MSFontService,sans-serif" font-weight="700" font-size="83" transform="matrix(1 0 0 1 715.901 1230)">category</text><text font-family="Calibri,Calibri_MSFontService,sans-serif" font-weight="700" font-size="83" transform="matrix(1 0 0 1 1028.32 1230)">= </text><text font-family="Calibri,Calibri_MSFontService,sans-serif" font-weight="700" font-size="83" transform="matrix(1 0 0 1 1088.48 1230)">Extraordinary</text><text font-family="Calibri,Calibri_MSFontService,sans-serif" font-weight="700" font-size="83" transform="matrix(1 0 0 1 1571.86 1230)">Demand</text><text font-family="Calibri,Calibri_MSFontService,sans-serif" font-weight="700" font-size="83" transform="matrix(1 0 0 1 2021.06 1230)">10</text><text font-family="Calibri,Calibri_MSFontService,sans-serif" font-weight="700" font-size="83" transform="matrix(1 0 0 1 2314.81 1230)">0</text><text font-family="Calibri,Calibri_MSFontService,sans-serif" font-weight="700" font-size="83" transform="matrix(1 0 0 1 2587.64 1230)">5</text><text font-family="Calibri,Calibri_MSFontService,sans-serif" font-weight="700" font-size="83" transform="matrix(1 0 0 1 2860.48 1230)">5</text><g clip-path="url(#clip10)"><text font-family="Calibri,Calibri_MSFontService,sans-serif" font-weight="400" font-size="83" transform="matrix(1 0 0 1 407.672 1411)">End of day Item Stock</text></g><text font-family="Calibri,Calibri_MSFontService,sans-serif" font-weight="400" font-size="83" transform="matrix(1 0 0 1 2021.06 1411)">10</text><text font-family="Calibri,Calibri_MSFontService,sans-serif" font-weight="400" font-size="83" transform="matrix(1 0 0 1 2314.81 1411)">0</text><text font-family="Calibri,Calibri_MSFontService,sans-serif" font-weight="400" font-size="83" transform="matrix(1 0 0 1 2587.64 1411)">5</text><text font-family="Calibri,Calibri_MSFontService,sans-serif" font-weight="400" font-size="83" transform="matrix(1 0 0 1 2839.56 1411)">10</text><rect x="1404.5" y="1494.5" width="123" height="74.9999" stroke="#41719C" stroke-width="4.58333" stroke-miterlimit="8" fill="#FFA602"/><text font-family="Calibri,Calibri_MSFontService,sans-serif" font-weight="400" font-size="64" transform="matrix(1 0 0 1 1559.54 1551)">Transferable </text><text font-family="Calibri,Calibri_MSFontService,sans-serif" font-style="italic" font-weight="400" font-size="64" transform="matrix(1 0 0 1 1894.49 1551)">Short</text><text font-family="Calibri,Calibri_MSFontService,sans-serif" font-style="italic" font-weight="400" font-size="64" transform="matrix(1 0 0 1 2033.13 1551)">-</text><text font-family="Calibri,Calibri_MSFontService,sans-serif" font-style="italic" font-weight="400" font-size="64" transform="matrix(1 0 0 1 2052.61 1551)">Term Material Demand </text><text font-family="Calibri,Calibri_MSFontService,sans-serif" font-weight="400" font-size="64" transform="matrix(1 0 0 1 2669.83 1551)">Information</text></g></svg>