<svg width="1280" height="416" xmlns="http://www.w3.org/2000/svg" xmlns:xlink="http://www.w3.org/1999/xlink" overflow="hidden"><defs><clipPath id="clip0"><rect x="0" y="0" width="1280" height="416"/></clipPath></defs><g clip-path="url(#clip0)"><rect x="0" y="0" width="1280" height="416.334" fill="#FFFFFF"/><path d="M198.609 174.55 267.809 174.55 267.809 213.515 198.609 213.515Z" fill="#FFCA21" fill-rule="evenodd"/><path d="M267.809 174.55 355.333 174.55 355.333 213.515 267.809 213.515Z" fill="#FFCA21" fill-rule="evenodd"/><path d="M355.333 174.55 417.7 174.55 417.7 213.515 355.333 213.515Z" fill="#FFCA21" fill-rule="evenodd"/><path d="M417.7 174.55 476.067 174.55 476.067 213.515 417.7 213.515Z" fill="#FFCA21" fill-rule="evenodd"/><path d="M476.067 174.55 536.1 174.55 536.1 213.515 476.067 213.515Z" fill="#FFCA21" fill-rule="evenodd"/><path d="M536.1 174.55 595.967 174.55 595.967 213.515 536.1 213.515Z" fill="#FFCA21" fill-rule="evenodd"/><path d="M595.967 174.55 656.167 174.55 656.167 213.515 595.967 213.515Z" fill="#FFCA21" fill-rule="evenodd"/><path d="M656.167 174.55 716.2 174.55 716.2 213.515 656.167 213.515Z" fill="#FFCA21" fill-rule="evenodd"/><path d="M716.2 174.55 776.567 174.55 776.567 213.515 716.2 213.515Z" fill="#FFCA21" fill-rule="evenodd"/><path d="M776.567 174.55 835.934 174.55 835.934 213.515 776.567 213.515Z" fill="#FFCA21" fill-rule="evenodd"/><path d="M835.934 174.55 896.134 174.55 896.134 213.515 835.934 213.515Z" fill="#FFCA21" fill-rule="evenodd"/><path d="M896.134 174.55 956.5 174.55 956.5 213.515 896.134 213.515Z" fill="#FFCA21" fill-rule="evenodd"/><path d="M956.5 174.55 1018.87 174.55 1018.87 213.515 956.5 213.515Z" fill="#FFCA21" fill-rule="evenodd"/><path d="M1018.87 174.55 1078.9 174.55 1078.9 213.515 1018.87 213.515Z" fill="#FFCA21" fill-rule="evenodd"/><path d="M1078.9 174.55 1141.66 174.55 1141.66 213.515 1078.9 213.515Z" fill="#FFCA21" fill-rule="evenodd"/><path d="M31.5752 239.135 198.609 239.135 198.609 278.1 31.5752 278.1Z" fill="#FFA600" fill-rule="evenodd"/><path d="M31.5752 303.72 198.609 303.72 198.609 342.685 31.5752 342.685Z" fill="#FFA600" fill-rule="evenodd"/><path d="M31.5752 368.306 198.609 368.306 198.609 407.27 31.5752 407.27Z" fill="#FFA600" fill-rule="evenodd"/><path d="M198.609 173.883 198.609 213.515" stroke="#FFFFFF" stroke-width="1.33333" stroke-linejoin="round" stroke-miterlimit="10" fill="none" fill-rule="evenodd"/><path d="M198.609 238.468 198.609 278.767" stroke="#FFA600" stroke-width="1.33333" stroke-linejoin="round" stroke-miterlimit="10" fill="none" fill-rule="evenodd"/><path d="M198.609 303.053 198.609 343.352" stroke="#FFA600" stroke-width="1.33333" stroke-linejoin="round" stroke-miterlimit="10" fill="none" fill-rule="evenodd"/><path d="M198.609 367.638 198.609 407.937" stroke="#FFA600" stroke-width="1.33333" stroke-linejoin="round" stroke-miterlimit="10" fill="none" fill-rule="evenodd"/><path d="M267.809 173.883 267.809 213.515" stroke="#FFFFFF" stroke-width="1.33333" stroke-linejoin="round" stroke-miterlimit="10" fill="none" fill-rule="evenodd"/><path d="M355.333 173.883 355.333 213.515" stroke="#FFFFFF" stroke-width="1.33333" stroke-linejoin="round" stroke-miterlimit="10" fill="none" fill-rule="evenodd"/><path d="M355.333 238.468 355.333 278.767" stroke="#EAEAEA" stroke-width="1.33333" stroke-linejoin="round" stroke-miterlimit="10" fill="none" fill-rule="evenodd"/><path d="M355.333 303.053 355.333 343.352" stroke="#EAEAEA" stroke-width="1.33333" stroke-linejoin="round" stroke-miterlimit="10" fill="none" fill-rule="evenodd"/><path d="M417.7 173.883 417.7 213.515" stroke="#FFFFFF" stroke-width="1.33333" stroke-linejoin="round" stroke-miterlimit="10" fill="none" fill-rule="evenodd"/><path d="M417.7 238.468 417.7 278.767" stroke="#EAEAEA" stroke-width="1.33333" stroke-linejoin="round" stroke-miterlimit="10" fill="none" fill-rule="evenodd"/><path d="M417.7 303.053 417.7 343.352" stroke="#EAEAEA" stroke-width="1.33333" stroke-linejoin="round" stroke-miterlimit="10" fill="none" fill-rule="evenodd"/><path d="M476.067 173.883 476.067 213.515" stroke="#FFFFFF" stroke-width="1.33333" stroke-linejoin="round" stroke-miterlimit="10" fill="none" fill-rule="evenodd"/><path d="M476.067 238.468 476.067 278.767" stroke="#EAEAEA" stroke-width="1.33333" stroke-linejoin="round" stroke-miterlimit="10" fill="none" fill-rule="evenodd"/><path d="M476.067 303.053 476.067 343.352" stroke="#EAEAEA" stroke-width="1.33333" stroke-linejoin="round" stroke-miterlimit="10" fill="none" fill-rule="evenodd"/><path d="M536.1 173.883 536.1 213.515" stroke="#FFFFFF" stroke-width="1.33333" stroke-linejoin="round" stroke-miterlimit="10" fill="none" fill-rule="evenodd"/><path d="M536.1 238.468 536.1 278.767" stroke="#EAEAEA" stroke-width="1.33333" stroke-linejoin="round" stroke-miterlimit="10" fill="none" fill-rule="evenodd"/><path d="M536.1 303.053 536.1 343.352" stroke="#EAEAEA" stroke-width="1.33333" stroke-linejoin="round" stroke-miterlimit="10" fill="none" fill-rule="evenodd"/><path d="M595.967 173.883 595.967 213.515" stroke="#FFFFFF" stroke-width="1.33333" stroke-linejoin="round" stroke-miterlimit="10" fill="none" fill-rule="evenodd"/><path d="M595.967 238.468 595.967 278.767" stroke="#EAEAEA" stroke-width="1.33333" stroke-linejoin="round" stroke-miterlimit="10" fill="none" fill-rule="evenodd"/><path d="M595.967 303.053 595.967 343.352" stroke="#EAEAEA" stroke-width="1.33333" stroke-linejoin="round" stroke-miterlimit="10" fill="none" fill-rule="evenodd"/><path d="M656.167 173.883 656.167 213.515" stroke="#FFFFFF" stroke-width="1.33333" stroke-linejoin="round" stroke-miterlimit="10" fill="none" fill-rule="evenodd"/><path d="M656.167 238.468 656.167 278.767" stroke="#EAEAEA" stroke-width="1.33333" stroke-linejoin="round" stroke-miterlimit="10" fill="none" fill-rule="evenodd"/><path d="M656.167 303.053 656.167 343.352" stroke="#EAEAEA" stroke-width="1.33333" stroke-linejoin="round" stroke-miterlimit="10" fill="none" fill-rule="evenodd"/><path d="M716.2 173.883 716.2 213.515" stroke="#FFFFFF" stroke-width="1.33333" stroke-linejoin="round" stroke-miterlimit="10" fill="none" fill-rule="evenodd"/><path d="M716.2 238.468 716.2 278.767" stroke="#EAEAEA" stroke-width="1.33333" stroke-linejoin="round" stroke-miterlimit="10" fill="none" fill-rule="evenodd"/><path d="M716.2 303.053 716.2 343.352" stroke="#EAEAEA" stroke-width="1.33333" stroke-linejoin="round" stroke-miterlimit="10" fill="none" fill-rule="evenodd"/><path d="M776.567 173.883 776.567 213.515" stroke="#FFFFFF" stroke-width="1.33333" stroke-linejoin="round" stroke-miterlimit="10" fill="none" fill-rule="evenodd"/><path d="M776.567 238.468 776.567 278.767" stroke="#EAEAEA" stroke-width="1.33333" stroke-linejoin="round" stroke-miterlimit="10" fill="none" fill-rule="evenodd"/><path d="M776.567 303.053 776.567 343.352" stroke="#EAEAEA" stroke-width="1.33333" stroke-linejoin="round" stroke-miterlimit="10" fill="none" fill-rule="evenodd"/><path d="M835.934 173.883 835.934 213.515" stroke="#FFFFFF" stroke-width="1.33333" stroke-linejoin="round" stroke-miterlimit="10" fill="none" fill-rule="evenodd"/><path d="M835.934 238.468 835.934 278.767" stroke="#EAEAEA" stroke-width="1.33333" stroke-linejoin="round" stroke-miterlimit="10" fill="none" fill-rule="evenodd"/><path d="M835.934 303.053 835.934 343.352" stroke="#EAEAEA" stroke-width="1.33333" stroke-linejoin="round" stroke-miterlimit="10" fill="none" fill-rule="evenodd"/><path d="M896.134 173.883 896.134 213.515" stroke="#FFFFFF" stroke-width="1.33333" stroke-linejoin="round" stroke-miterlimit="10" fill="none" fill-rule="evenodd"/><path d="M896.134 238.468 896.134 278.767" stroke="#EAEAEA" stroke-width="1.33333" stroke-linejoin="round" stroke-miterlimit="10" fill="none" fill-rule="evenodd"/><path d="M896.134 303.053 896.134 343.352" stroke="#EAEAEA" stroke-width="1.33333" stroke-linejoin="round" stroke-miterlimit="10" fill="none" fill-rule="evenodd"/><path d="M956.5 173.883 956.5 213.515" stroke="#FFFFFF" stroke-width="1.33333" stroke-linejoin="round" stroke-miterlimit="10" fill="none" fill-rule="evenodd"/><path d="M956.5 238.468 956.5 278.767" stroke="#EAEAEA" stroke-width="1.33333" stroke-linejoin="round" stroke-miterlimit="10" fill="none" fill-rule="evenodd"/><path d="M956.5 303.053 956.5 343.352" stroke="#EAEAEA" stroke-width="1.33333" stroke-linejoin="round" stroke-miterlimit="10" fill="none" fill-rule="evenodd"/><path d="M1018.87 173.883 1018.87 213.515" stroke="#FFFFFF" stroke-width="1.33333" stroke-linejoin="round" stroke-miterlimit="10" fill="none" fill-rule="evenodd"/><path d="M1018.87 238.468 1018.87 278.767" stroke="#EAEAEA" stroke-width="1.33333" stroke-linejoin="round" stroke-miterlimit="10" fill="none" fill-rule="evenodd"/><path d="M1018.87 303.053 1018.87 343.352" stroke="#EAEAEA" stroke-width="1.33333" stroke-linejoin="round" stroke-miterlimit="10" fill="none" fill-rule="evenodd"/><path d="M1078.9 173.883 1078.9 213.515" stroke="#FFFFFF" stroke-width="1.33333" stroke-linejoin="round" stroke-miterlimit="10" fill="none" fill-rule="evenodd"/><path d="M1078.9 238.468 1078.9 278.767" stroke="#EAEAEA" stroke-width="1.33333" stroke-linejoin="round" stroke-miterlimit="10" fill="none" fill-rule="evenodd"/><path d="M1078.9 303.053 1078.9 343.352" stroke="#EAEAEA" stroke-width="1.33333" stroke-linejoin="round" stroke-miterlimit="10" fill="none" fill-rule="evenodd"/><path d="M30.9086 239.135 1142.32 239.135" stroke="#FFA600" stroke-width="1.33333" stroke-linejoin="round" stroke-miterlimit="10" fill="none" fill-rule="evenodd"/><path d="M30.9086 278.1 1142.32 278.1" stroke="#FFA600" stroke-width="1.33333" stroke-linejoin="round" stroke-miterlimit="10" fill="none" fill-rule="evenodd"/><path d="M30.9086 303.72 1142.32 303.72" stroke="#FFA600" stroke-width="1.33333" stroke-linejoin="round" stroke-miterlimit="10" fill="none" fill-rule="evenodd"/><path d="M30.9086 342.685 1142.32 342.685" stroke="#FFA600" stroke-width="1.33333" stroke-linejoin="round" stroke-miterlimit="10" fill="none" fill-rule="evenodd"/><path d="M30.9086 368.306 1142.32 368.306" stroke="#FFA600" stroke-width="1.33333" stroke-linejoin="round" stroke-miterlimit="10" fill="none" fill-rule="evenodd"/><path d="M31.5752 173.883 31.5752 213.515" stroke="#FFFFFF" stroke-width="1.33333" stroke-linejoin="round" stroke-miterlimit="10" fill="none" fill-rule="evenodd"/><path d="M31.5752 238.468 31.5752 278.767" stroke="#FFA600" stroke-width="1.33333" stroke-linejoin="round" stroke-miterlimit="10" fill="none" fill-rule="evenodd"/><path d="M31.5752 303.053 31.5752 343.352" stroke="#FFA600" stroke-width="1.33333" stroke-linejoin="round" stroke-miterlimit="10" fill="none" fill-rule="evenodd"/><path d="M31.5752 367.638 31.5752 407.937" stroke="#FFA600" stroke-width="1.33333" stroke-linejoin="round" stroke-miterlimit="10" fill="none" fill-rule="evenodd"/><path d="M1141.66 173.883 1141.66 213.515" stroke="#FFFFFF" stroke-width="1.33333" stroke-linejoin="round" stroke-miterlimit="10" fill="none" fill-rule="evenodd"/><path d="M1141.66 238.468 1141.66 278.767" stroke="#FFA600" stroke-width="1.33333" stroke-linejoin="round" stroke-miterlimit="10" fill="none" fill-rule="evenodd"/><path d="M1141.66 303.053 1141.66 343.352" stroke="#FFA600" stroke-width="1.33333" stroke-linejoin="round" stroke-miterlimit="10" fill="none" fill-rule="evenodd"/><path d="M1141.66 367.638 1141.66 407.937" stroke="#FFA600" stroke-width="1.33333" stroke-linejoin="round" stroke-miterlimit="10" fill="none" fill-rule="evenodd"/><path d="M30.9086 174.55 1142.32 174.55" stroke="#FFFFFF" stroke-width="1.33333" stroke-linejoin="round" stroke-miterlimit="10" fill="none" fill-rule="evenodd"/><path d="M30.9086 407.27 1142.32 407.27" stroke="#FFA600" stroke-width="1.33333" stroke-linejoin="round" stroke-miterlimit="10" fill="none" fill-rule="evenodd"/><text fill="#FFFFFF" font-family="Manrope,Manrope_MSFontService,sans-serif" font-weight="700" font-size="11" transform="matrix(1 0 0 1.0008 1088.5 198)">W22/22</text><text fill="#FFFFFF" font-family="Manrope,Manrope_MSFontService,sans-serif" font-weight="700" font-size="11" transform="matrix(1 0 0 1.0008 1028.47 198)">W21/22</text><text fill="#FFFFFF" font-family="Manrope,Manrope_MSFontService,sans-serif" font-weight="700" font-size="11" transform="matrix(1 0 0 1.0008 966.1 198)">W20/22</text><text fill="#FFFFFF" font-family="Manrope,Manrope_MSFontService,sans-serif" font-weight="700" font-size="11" transform="matrix(1 0 0 1.0008 905.734 198)">W19/22</text><text fill="#FFFFFF" font-family="Manrope,Manrope_MSFontService,sans-serif" font-weight="700" font-size="11" transform="matrix(1 0 0 1.0008 845.534 198)">W18/22</text><text fill="#FFFFFF" font-family="Manrope,Manrope_MSFontService,sans-serif" font-weight="700" font-size="11" transform="matrix(1 0 0 1.0008 786.167 198)">W17/22</text><text fill="#FFFFFF" font-family="Manrope,Manrope_MSFontService,sans-serif" font-weight="700" font-size="11" transform="matrix(1 0 0 1.0008 725.8 198)">W16/22</text><text fill="#FFFFFF" font-family="Manrope,Manrope_MSFontService,sans-serif" font-weight="700" font-size="11" transform="matrix(1 0 0 1.0008 665.767 198)">W15/22</text><text fill="#FFFFFF" font-family="Manrope,Manrope_MSFontService,sans-serif" font-weight="700" font-size="11" transform="matrix(1 0 0 1.0008 605.567 198)">W14/22</text><text fill="#FFFFFF" font-family="Manrope,Manrope_MSFontService,sans-serif" font-weight="700" font-size="11" transform="matrix(1 0 0 1.0008 545.7 198)">W13/22</text><text fill="#FFFFFF" font-family="Manrope,Manrope_MSFontService,sans-serif" font-weight="700" font-size="11" transform="matrix(1 0 0 1.0008 485.667 198)">W12/22</text><text fill="#FFFFFF" font-family="Manrope,Manrope_MSFontService,sans-serif" font-weight="700" font-size="11" transform="matrix(1 0 0 1.0008 427.3 198)">W11/22</text><text fill="#FFFFFF" font-family="Manrope,Manrope_MSFontService,sans-serif" font-weight="700" font-size="11" transform="matrix(1 0 0 1.0008 364.933 198)">W10/22</text><text fill="#FFFFFF" font-family="Manrope,Manrope_MSFontService,sans-serif" font-weight="700" font-size="11" transform="matrix(1 0 0 1.0008 277.409 190)">Demand</text><text fill="#FFFFFF" font-family="Manrope,Manrope_MSFontService,sans-serif" font-weight="700" font-size="11" transform="matrix(1 0 0 1.0008 277.409 203)">Category</text><text fill="#FFFFFF" font-family="Manrope,Manrope_MSFontService,sans-serif" font-weight="700" font-size="11" transform="matrix(1 0 0 1.0008 208.209 190)">Demand</text><text fill="#FFFFFF" font-family="Manrope,Manrope_MSFontService,sans-serif" font-weight="700" font-size="11" transform="matrix(1 0 0 1.0008 208.209 203)">Location</text><path d="M0-12 26-12 26 3 0 3Z" fill="#F4F2F3" fill-rule="evenodd" transform="matrix(1 0 0 1.0008 1088.67 262.431)"/><path d="M0-12 17.3333-12 17.3333 3 6.35783e-07 3Z" fill="#F4F2F3" fill-rule="evenodd" transform="matrix(1 0 0 1.0008 1114.67 262.431)"/><text font-family="Manrope,Manrope_MSFontService,sans-serif" font-weight="400" font-size="11" transform="matrix(1 0 0 1.0008 1088.67 262)"></text><text font-family="Manrope,Manrope_MSFontService,sans-serif" font-weight="400" font-size="11" transform="matrix(1 0 0 1.0008 1114.67 262)">190</text><path d="M0-12 23.8333-12 23.8333 3 6.35783e-07 3Z" fill="#F4F2F3" fill-rule="evenodd" transform="matrix(1 0 0 1.0008 1029.8 262.431)"/><path d="M0-12 15.6667-12 15.6667 3 3.17891e-07 3Z" fill="#F4F2F3" fill-rule="evenodd" transform="matrix(1 0 0 1.0008 1053.63 262.431)"/><text font-family="Manrope,Manrope_MSFontService,sans-serif" font-weight="400" font-size="11" transform="matrix(1 0 0 1.0008 1029.8 262)"></text><text font-family="Manrope,Manrope_MSFontService,sans-serif" font-weight="400" font-size="11" transform="matrix(1 0 0 1.0008 1053.63 262)">175</text><path d="M0-12 23.8333-12 23.8333 3 6.35783e-07 3Z" fill="#F4F2F3" fill-rule="evenodd" transform="matrix(1 0 0 1.0008 966.6 262.431)"/><path d="M0-12 18.8333-12 18.8333 3 6.35783e-07 3Z" fill="#F4F2F3" fill-rule="evenodd" transform="matrix(1 0 0 1.0008 990.434 262.431)"/><text font-family="Manrope,Manrope_MSFontService,sans-serif" font-weight="400" font-size="11" transform="matrix(1 0 0 1.0008 966.6 262)"></text><text font-family="Manrope,Manrope_MSFontService,sans-serif" font-weight="400" font-size="11" transform="matrix(1 0 0 1.0008 990.434 262)">300</text><path d="M0-12 23.8333-12 23.8333 3 6.35783e-07 3Z" fill="#F4F2F3" fill-rule="evenodd" transform="matrix(1 0 0 1.0008 906.067 262.431)"/><path d="M0-12 17-12 17 3 0 3Z" fill="#F4F2F3" fill-rule="evenodd" transform="matrix(1 0 0 1.0008 929.9 262.431)"/><text font-family="Manrope,Manrope_MSFontService,sans-serif" font-weight="400" font-size="11" transform="matrix(1 0 0 1.0008 906.067 262)"></text><text font-family="Manrope,Manrope_MSFontService,sans-serif" font-weight="400" font-size="11" transform="matrix(1 0 0 1.0008 929.9 262)">410</text><path d="M0-12 21.6667-12 21.6667 3-6.35783e-07 3Z" fill="#F4F2F3" fill-rule="evenodd" transform="matrix(1 0 0 1.0008 846.2 262.431)"/><path d="M0-12 18.6667-12 18.6667 3-6.35783e-07 3Z" fill="#F4F2F3" fill-rule="evenodd" transform="matrix(1 0 0 1.0008 867.867 262.431)"/><text font-family="Manrope,Manrope_MSFontService,sans-serif" font-weight="400" font-size="11" transform="matrix(1 0 0 1.0008 846.2 262)"></text><text font-family="Manrope,Manrope_MSFontService,sans-serif" font-weight="400" font-size="11" transform="matrix(1 0 0 1.0008 867.867 262)">280</text><path d="M0-12 21.6667-12 21.6667 3-6.35783e-07 3Z" fill="#F4F2F3" fill-rule="evenodd" transform="matrix(1 0 0 1.0008 787.5 262.431)"/><path d="M0-12 17.1667-12 17.1667 3-6.35783e-07 3Z" fill="#F4F2F3" fill-rule="evenodd" transform="matrix(1 0 0 1.0008 809.167 262.431)"/><text font-family="Manrope,Manrope_MSFontService,sans-serif" font-weight="400" font-size="11" transform="matrix(1 0 0 1.0008 787.5 262)"></text><text font-family="Manrope,Manrope_MSFontService,sans-serif" font-weight="400" font-size="11" transform="matrix(1 0 0 1.0008 809.167 262)">100</text><path d="M0-12 21.6667-12 21.6667 3-6.35783e-07 3Z" fill="#F4F2F3" fill-rule="evenodd" transform="matrix(1 0 0 1.0008 726.634 262.431)"/><path d="M0-12 18.6667-12 18.6667 3-6.35783e-07 3Z" fill="#F4F2F3" fill-rule="evenodd" transform="matrix(1 0 0 1.0008 748.3 262.431)"/><text font-family="Manrope,Manrope_MSFontService,sans-serif" font-weight="400" font-size="11" transform="matrix(1 0 0 1.0008 726.634 262)"></text><text font-family="Manrope,Manrope_MSFontService,sans-serif" font-weight="400" font-size="11" transform="matrix(1 0 0 1.0008 748.3 262)">340</text><path d="M0-12 21.6667-12 21.6667 3-6.35783e-07 3Z" fill="#F4F2F3" fill-rule="evenodd" transform="matrix(1 0 0 1.0008 667.1 262.431)"/><path d="M0-12 17.8333-12 17.8333 3 6.35783e-07 3Z" fill="#F4F2F3" fill-rule="evenodd" transform="matrix(1 0 0 1.0008 688.767 262.431)"/><text font-family="Manrope,Manrope_MSFontService,sans-serif" font-weight="400" font-size="11" transform="matrix(1 0 0 1.0008 667.1 262)"></text><text font-family="Manrope,Manrope_MSFontService,sans-serif" font-weight="400" font-size="11" transform="matrix(1 0 0 1.0008 688.767 262)">207</text><path d="M0-12 21.6667-12 21.6667 3-6.35783e-07 3Z" fill="#F4F2F3" fill-rule="evenodd" transform="matrix(1 0 0 1.0008 606.234 262.431)"/><path d="M0-12 18.6667-12 18.6667 3-6.35783e-07 3Z" fill="#F4F2F3" fill-rule="evenodd" transform="matrix(1 0 0 1.0008 627.9 262.431)"/><text font-family="Manrope,Manrope_MSFontService,sans-serif" font-weight="400" font-size="11" transform="matrix(1 0 0 1.0008 606.234 262)"></text><text font-family="Manrope,Manrope_MSFontService,sans-serif" font-weight="400" font-size="11" transform="matrix(1 0 0 1.0008 627.9 262)">205</text><path d="M0-12 23.8333-12 23.8333 3 6.35783e-07 3Z" fill="#F4F2F3" fill-rule="evenodd" transform="matrix(1 0 0 1.0008 546.867 262.431)"/><path d="M0-12 15.6667-12 15.6667 3 3.17891e-07 3Z" fill="#F4F2F3" fill-rule="evenodd" transform="matrix(1 0 0 1.0008 570.7 262.431)"/><text font-family="Manrope,Manrope_MSFontService,sans-serif" font-weight="400" font-size="11" transform="matrix(1 0 0 1.0008 546.867 262)"></text><text font-family="Manrope,Manrope_MSFontService,sans-serif" font-weight="400" font-size="11" transform="matrix(1 0 0 1.0008 570.7 262)">175</text><path d="M0-12 23.8333-12 23.8333 3 6.35783e-07 3Z" fill="#F4F2F3" fill-rule="evenodd" transform="matrix(1 0 0 1.0008 485.833 262.431)"/><path d="M0-12 16.8333-12 16.8333 3 6.35783e-07 3Z" fill="#F4F2F3" fill-rule="evenodd" transform="matrix(1 0 0 1.0008 509.667 262.431)"/><text font-family="Manrope,Manrope_MSFontService,sans-serif" font-weight="400" font-size="11" transform="matrix(1 0 0 1.0008 485.833 262)"></text><text font-family="Manrope,Manrope_MSFontService,sans-serif" font-weight="400" font-size="11" transform="matrix(1 0 0 1.0008 509.667 262)">180</text><path d="M0-12 21.6667-12 21.6667 3-6.35783e-07 3Z" fill="#F4F2F3" fill-rule="evenodd" transform="matrix(1 0 0 1.0008 428.133 262.431)"/><path d="M0-12 16.6667-12 16.6667 3-6.35783e-07 3Z" fill="#F4F2F3" fill-rule="evenodd" transform="matrix(1 0 0 1.0008 449.8 262.431)"/><text font-family="Manrope,Manrope_MSFontService,sans-serif" font-weight="400" font-size="11" transform="matrix(1 0 0 1.0008 428.133 262)"></text><text font-family="Manrope,Manrope_MSFontService,sans-serif" font-weight="400" font-size="11" transform="matrix(1 0 0 1.0008 449.8 262)">210</text><path d="M0-12 23.8333-12 23.8333 3 6.35783e-07 3Z" fill="#F4F2F3" fill-rule="evenodd" transform="matrix(1 0 0 1.0008 367.433 262.431)"/><path d="M0-12 16.8333-12 16.8333 3 6.35783e-07 3Z" fill="#F4F2F3" fill-rule="evenodd" transform="matrix(1 0 0 1.0008 391.267 262.431)"/><text font-family="Manrope,Manrope_MSFontService,sans-serif" font-weight="400" font-size="11" transform="matrix(1 0 0 1.0008 367.433 262)"></text><text font-family="Manrope,Manrope_MSFontService,sans-serif" font-weight="400" font-size="11" transform="matrix(1 0 0 1.0008 391.267 262)">180</text><path d="M0-12 30.8333-12 30.8333 3 6.35783e-07 3Z" fill="#F4F2F3" fill-rule="evenodd" transform="matrix(1 0 0 1.0008 277.409 262.431)"/><path d="M0-12 26-12 26 3 0 3Z" fill="#F4F2F3" fill-rule="evenodd" transform="matrix(1 0 0 1.0008 308.242 262.431)"/><path d="M0-12 10.6667-12 10.6667 3 3.17891e-07 3Z" fill="#F4F2F3" fill-rule="evenodd" transform="matrix(1 0 0 1.0008 334.242 262.431)"/><text font-family="Manrope,Manrope_MSFontService,sans-serif" font-weight="400" font-size="11" transform="matrix(1 0 0 1.0008 277.409 262)">Series</text><text fill="#F4F2F3" font-family="Manrope,Manrope_MSFontService,sans-serif" font-weight="400" font-size="11" transform="matrix(1 0 0 1.0008 308.242 262)"></text><text fill="#219DD4" font-family="Segoe MDL2 Assets,Segoe MDL2 Assets_MSFontService,sans-serif" font-weight="400" font-size="11" transform="matrix(1 0 0 1.0008 334.242 262)"></text><path d="M0-12 34-12 34 3 0 3Z" fill="#F4F2F3" fill-rule="evenodd" transform="matrix(1 0 0 1.0008 208.209 262.431)"/><path d="M0-12 13.3333-12 13.3333 3-3.17891e-07 3Z" fill="#F4F2F3" fill-rule="evenodd" transform="matrix(1 0 0 1.0008 242.209 262.431)"/><text font-family="Manrope,Manrope_MSFontService,sans-serif" font-weight="400" font-size="11" transform="matrix(1 0 0 1.0008 208.209 262)">Madrid</text><text fill="#F4F2F3" font-family="Manrope,Manrope_MSFontService,sans-serif" font-weight="400" font-size="11" transform="matrix(1 0 0 1.0008 242.209 262)">……</text><text fill="#FFFFFF" font-family="Manrope ExtraBold,Manrope ExtraBold_MSFontService,sans-serif" font-weight="800" font-size="13" transform="matrix(1 0 0 1.0008 41.1752 263)">Demand Time Series 1</text><path d="M0-12 26-12 26 3 0 3Z" fill="#F4F2F3" fill-rule="evenodd" transform="matrix(1 0 0 1.0008 1089.33 327.068)"/><path d="M0-12 16.6667-12 16.6667 3-6.35783e-07 3Z" fill="#F4F2F3" fill-rule="evenodd" transform="matrix(1 0 0 1.0008 1115.33 327.068)"/><text font-family="Manrope,Manrope_MSFontService,sans-serif" font-weight="400" font-size="11" transform="matrix(1 0 0 1.0008 1089.33 327)"></text><text font-family="Manrope,Manrope_MSFontService,sans-serif" font-weight="400" font-size="11" transform="matrix(1 0 0 1.0008 1115.33 327)">210</text><path d="M0-12 21.6667-12 21.6667 3-6.35783e-07 3Z" fill="#F4F2F3" fill-rule="evenodd" transform="matrix(1 0 0 1.0008 1029.3 327.068)"/><path d="M0-12 18.3333-12 18.3333 3 6.35783e-07 3Z" fill="#F4F2F3" fill-rule="evenodd" transform="matrix(1 0 0 1.0008 1050.97 327.068)"/><text font-family="Manrope,Manrope_MSFontService,sans-serif" font-weight="400" font-size="11" transform="matrix(1 0 0 1.0008 1029.3 327)"></text><text font-family="Manrope,Manrope_MSFontService,sans-serif" font-weight="400" font-size="11" transform="matrix(1 0 0 1.0008 1050.97 327)">230</text><path d="M0-12 23.8333-12 23.8333 3 6.35783e-07 3Z" fill="#F4F2F3" fill-rule="evenodd" transform="matrix(1 0 0 1.0008 968.1 327.068)"/><path d="M0-12 17.3333-12 17.3333 3 6.35783e-07 3Z" fill="#F4F2F3" fill-rule="evenodd" transform="matrix(1 0 0 1.0008 991.934 327.068)"/><text font-family="Manrope,Manrope_MSFontService,sans-serif" font-weight="400" font-size="11" transform="matrix(1 0 0 1.0008 968.1 327)"></text><text font-family="Manrope,Manrope_MSFontService,sans-serif" font-weight="400" font-size="11" transform="matrix(1 0 0 1.0008 991.934 327)">190</text><path d="M0-12 21.6667-12 21.6667 3-6.35783e-07 3Z" fill="#F4F2F3" fill-rule="evenodd" transform="matrix(1 0 0 1.0008 906.234 327.068)"/><path d="M0-12 19-12 19 3 0 3Z" fill="#F4F2F3" fill-rule="evenodd" transform="matrix(1 0 0 1.0008 927.9 327.068)"/><text font-family="Manrope,Manrope_MSFontService,sans-serif" font-weight="400" font-size="11" transform="matrix(1 0 0 1.0008 906.234 327)"></text><text font-family="Manrope,Manrope_MSFontService,sans-serif" font-weight="400" font-size="11" transform="matrix(1 0 0 1.0008 927.9 327)">200</text><path d="M0-12 21.6667-12 21.6667 3-6.35783e-07 3Z" fill="#F4F2F3" fill-rule="evenodd" transform="matrix(1 0 0 1.0008 847.534 327.068)"/><path d="M0-12 17.3333-12 17.3333 3 6.35783e-07 3Z" fill="#F4F2F3" fill-rule="evenodd" transform="matrix(1 0 0 1.0008 869.2 327.068)"/><text font-family="Manrope,Manrope_MSFontService,sans-serif" font-weight="400" font-size="11" transform="matrix(1 0 0 1.0008 847.534 327)"></text><text font-family="Manrope,Manrope_MSFontService,sans-serif" font-weight="400" font-size="11" transform="matrix(1 0 0 1.0008 869.2 327)">190</text><path d="M0-12 21.6667-12 21.6667 3-6.35783e-07 3Z" fill="#F4F2F3" fill-rule="evenodd" transform="matrix(1 0 0 1.0008 787.334 327.068)"/><path d="M0-12 17.3333-12 17.3333 3 6.35783e-07 3Z" fill="#F4F2F3" fill-rule="evenodd" transform="matrix(1 0 0 1.0008 809 327.068)"/><text font-family="Manrope,Manrope_MSFontService,sans-serif" font-weight="400" font-size="11" transform="matrix(1 0 0 1.0008 787.334 327)"></text><text font-family="Manrope,Manrope_MSFontService,sans-serif" font-weight="400" font-size="11" transform="matrix(1 0 0 1.0008 809 327)">190</text><path d="M0-12 21.6667-12 21.6667 3-6.35783e-07 3Z" fill="#F4F2F3" fill-rule="evenodd" transform="matrix(1 0 0 1.0008 727.8 327.068)"/><path d="M0-12 17.5-12 17.5 3 0 3Z" fill="#F4F2F3" fill-rule="evenodd" transform="matrix(1 0 0 1.0008 749.467 327.068)"/><text font-family="Manrope,Manrope_MSFontService,sans-serif" font-weight="400" font-size="11" transform="matrix(1 0 0 1.0008 727.8 327)"></text><text font-family="Manrope,Manrope_MSFontService,sans-serif" font-weight="400" font-size="11" transform="matrix(1 0 0 1.0008 749.467 327)">275</text><path d="M0-12 21.6667-12 21.6667 3-6.35783e-07 3Z" fill="#F4F2F3" fill-rule="evenodd" transform="matrix(1 0 0 1.0008 666.267 327.068)"/><path d="M0-12 18.6667-12 18.6667 3-6.35783e-07 3Z" fill="#F4F2F3" fill-rule="evenodd" transform="matrix(1 0 0 1.0008 687.933 327.068)"/><text font-family="Manrope,Manrope_MSFontService,sans-serif" font-weight="400" font-size="11" transform="matrix(1 0 0 1.0008 666.267 327)"></text><text font-family="Manrope,Manrope_MSFontService,sans-serif" font-weight="400" font-size="11" transform="matrix(1 0 0 1.0008 687.933 327)">250</text><path d="M0-12 21.6667-12 21.6667 3-6.35783e-07 3Z" fill="#F4F2F3" fill-rule="evenodd" transform="matrix(1 0 0 1.0008 606.067 327.068)"/><path d="M0-12 18.8333-12 18.8333 3 6.35783e-07 3Z" fill="#F4F2F3" fill-rule="evenodd" transform="matrix(1 0 0 1.0008 627.734 327.068)"/><text font-family="Manrope,Manrope_MSFontService,sans-serif" font-weight="400" font-size="11" transform="matrix(1 0 0 1.0008 606.067 327)"></text><text font-family="Manrope,Manrope_MSFontService,sans-serif" font-weight="400" font-size="11" transform="matrix(1 0 0 1.0008 627.734 327)">420</text><path d="M0-12 21.6667-12 21.6667 3-6.35783e-07 3Z" fill="#F4F2F3" fill-rule="evenodd" transform="matrix(1 0 0 1.0008 545.7 327.068)"/><path d="M0-12 19-12 19 3 0 3Z" fill="#F4F2F3" fill-rule="evenodd" transform="matrix(1 0 0 1.0008 567.367 327.068)"/><text font-family="Manrope,Manrope_MSFontService,sans-serif" font-weight="400" font-size="11" transform="matrix(1 0 0 1.0008 545.7 327)"></text><text font-family="Manrope,Manrope_MSFontService,sans-serif" font-weight="400" font-size="11" transform="matrix(1 0 0 1.0008 567.367 327)">390</text><path d="M0-12 19.5-12 19.5 3 0 3Z" fill="#F4F2F3" fill-rule="evenodd" transform="matrix(1 0 0 1.0008 487.667 327.068)"/><path d="M0-12 19.3333-12 19.3333 3 6.35783e-07 3Z" fill="#F4F2F3" fill-rule="evenodd" transform="matrix(1 0 0 1.0008 507.167 327.068)"/><text font-family="Manrope,Manrope_MSFontService,sans-serif" font-weight="400" font-size="11" transform="matrix(1 0 0 1.0008 487.667 327)"></text><text font-family="Manrope,Manrope_MSFontService,sans-serif" font-weight="400" font-size="11" transform="matrix(1 0 0 1.0008 507.167 327)">400</text><path d="M0-12 19.5-12 19.5 3 0 3Z" fill="#F4F2F3" fill-rule="evenodd" transform="matrix(1 0 0 1.0008 428.133 327.068)"/><path d="M0-12 18.8333-12 18.8333 3 6.35783e-07 3Z" fill="#F4F2F3" fill-rule="evenodd" transform="matrix(1 0 0 1.0008 447.633 327.068)"/><text font-family="Manrope,Manrope_MSFontService,sans-serif" font-weight="400" font-size="11" transform="matrix(1 0 0 1.0008 428.133 327)"></text><text font-family="Manrope,Manrope_MSFontService,sans-serif" font-weight="400" font-size="11" transform="matrix(1 0 0 1.0008 447.633 327)">300</text><path d="M0-12 23.8333-12 23.8333 3 6.35783e-07 3Z" fill="#F4F2F3" fill-rule="evenodd" transform="matrix(1 0 0 1.0008 367.1 327.068)"/><path d="M0-12 17.1667-12 17.1667 3-6.35783e-07 3Z" fill="#F4F2F3" fill-rule="evenodd" transform="matrix(1 0 0 1.0008 390.933 327.068)"/><text font-family="Manrope,Manrope_MSFontService,sans-serif" font-weight="400" font-size="11" transform="matrix(1 0 0 1.0008 367.1 327)"></text><text font-family="Manrope,Manrope_MSFontService,sans-serif" font-weight="400" font-size="11" transform="matrix(1 0 0 1.0008 390.933 327)">100</text><path d="M0-12 51.8333-12 51.8333 3-1.27157e-06 3Z" fill="#F4F2F3" fill-rule="evenodd" transform="matrix(1 0 0 1.0008 277.409 327.068)"/><path d="M0-12 4.33333-12 4.33333 3 1.58946e-07 3Z" fill="#F4F2F3" fill-rule="evenodd" transform="matrix(1 0 0 1.0008 329.242 327.068)"/><path d="M0-12 10.6667-12 10.6667 3 3.17891e-07 3Z" fill="#F4F2F3" fill-rule="evenodd" transform="matrix(1 0 0 1.0008 333.575 327.068)"/><text font-family="Manrope,Manrope_MSFontService,sans-serif" font-weight="400" font-size="11" transform="matrix(1 0 0 1.0008 277.409 327)">AfterSales</text><text font-family="Manrope,Manrope_MSFontService,sans-serif" font-weight="400" font-size="11" transform="matrix(1 0 0 1.0008 329.242 327)"></text><text fill="#219DD4" font-family="Segoe MDL2 Assets,Segoe MDL2 Assets_MSFontService,sans-serif" font-weight="400" font-size="11" transform="matrix(1 0 0 1.0008 333.575 327)"></text><path d="M0-12 27.8333-12 27.8333 3 6.35783e-07 3Z" fill="#F4F2F3" fill-rule="evenodd" transform="matrix(1 0 0 1.0008 208.209 327.068)"/><path d="M0-12 20-12 20 3 0 3Z" fill="#F4F2F3" fill-rule="evenodd" transform="matrix(1 0 0 1.0008 236.042 327.068)"/><text font-family="Manrope,Manrope_MSFontService,sans-serif" font-weight="400" font-size="11" transform="matrix(1 0 0 1.0008 208.209 327)">Berlin</text><text fill="#F4F2F3" font-family="Manrope,Manrope_MSFontService,sans-serif" font-weight="400" font-size="11" transform="matrix(1 0 0 1.0008 236.042 327)">………</text><text fill="#FFFFFF" font-family="Manrope ExtraBold,Manrope ExtraBold_MSFontService,sans-serif" font-weight="800" font-size="13" transform="matrix(1 0 0 1.0008 41.1752 327)">Demand Time Series 2</text><text fill="#FFFFFF" font-family="Manrope ExtraBold,Manrope ExtraBold_MSFontService,sans-serif" font-weight="800" font-size="13" transform="matrix(1 0 0 1.0008 41.1752 399)">…</text><path d="M0 0 31.5753 0 31.5753 364.422" stroke="#FFA600" stroke-width="2.66667" stroke-miterlimit="8" fill="none" fill-rule="evenodd" transform="matrix(-1 1.22563e-16 1.22465e-16 1.0008 32.0754 21.5173)"/><path d="M-0.500053 385.809 33.0752 385.809" stroke="#FFA600" stroke-width="2.66667" stroke-miterlimit="8" fill="none" fill-rule="evenodd"/><path d="M0.500053 321.758 31.7414 321.758" stroke="#FFA600" stroke-width="2.66667" stroke-miterlimit="8" fill="none" fill-rule="evenodd"/><path d="M0.500053 256.706 33.0752 256.706" stroke="#FFA600" stroke-width="2.66667" stroke-miterlimit="8" fill="none" fill-rule="evenodd"/><path d="M31.5752 0 390.942 0 390.942 38.9646 31.5752 38.9646Z" fill="#FFA600" fill-rule="evenodd"/><path d="M31.5752-0.667201 31.5752 156.525" stroke="#FFA600" stroke-width="1.33333" stroke-linejoin="round" stroke-miterlimit="10" fill="none" fill-rule="evenodd"/><path d="M390.942-0.667201 390.942 156.525" stroke="#FFA600" stroke-width="1.33333" stroke-linejoin="round" stroke-miterlimit="10" fill="none" fill-rule="evenodd"/><path d="M30.9086 0 391.609 0" stroke="#FFA600" stroke-width="1.33333" stroke-linejoin="round" stroke-miterlimit="10" fill="none" fill-rule="evenodd"/><path d="M30.9086 155.858 391.609 155.858" stroke="#FFA600" stroke-width="1.33333" stroke-linejoin="round" stroke-miterlimit="10" fill="none" fill-rule="evenodd"/><g><text fill="#FFFFFF" font-family="Manrope ExtraBold,Manrope ExtraBold_MSFontService,sans-serif" font-weight="800" font-size="24" transform="matrix(1 0 0 1.0008 41.1752 27)">Material Demand Header</text></g><text font-family="Manrope,Manrope_MSFontService,sans-serif" font-weight="400" font-size="11" transform="matrix(1 0 0 1.0008 348.842 54)">Jologa</text><text font-family="Manrope,Manrope_MSFontService,sans-serif" font-weight="400" font-size="11" transform="matrix(1 0 0 1.0008 226.742 54)">Supplier:</text><text font-family="Manrope,Manrope_MSFontService,sans-serif" font-weight="400" font-size="11" transform="matrix(1 0 0 1.0008 149.375 54)">500009086</text><text font-family="Manrope,Manrope_MSFontService,sans-serif" font-weight="400" font-size="11" transform="matrix(1 0 0 1.0008 41.1752 54)">Material</text><text font-family="Manrope,Manrope_MSFontService,sans-serif" font-weight="400" font-size="11" transform="matrix(1 0 0 1.0008 83.6752 54)">Number</text><text font-family="Manrope,Manrope_MSFontService,sans-serif" font-weight="400" font-size="11" transform="matrix(1 0 0 1.0008 122.675 54)">:</text><text font-family="Manrope,Manrope_MSFontService,sans-serif" font-weight="400" font-size="11" transform="matrix(1 0 0 1.0008 343.009 93)">Helsinki</text><text font-family="Manrope,Manrope_MSFontService,sans-serif" font-weight="400" font-size="11" transform="matrix(1 0 0 1.0008 226.742 93)">Expected</text><text font-family="Manrope,Manrope_MSFontService,sans-serif" font-weight="400" font-size="11" transform="matrix(1 0 0 1.0008 275.742 93)">Supplier</text><text font-family="Manrope,Manrope_MSFontService,sans-serif" font-weight="400" font-size="11" transform="matrix(1 0 0 1.0008 226.742 106)">Location:</text><text font-family="Manrope,Manrope_MSFontService,sans-serif" font-weight="400" font-size="11" transform="matrix(1 0 0 1.0008 149.709 93)">Jun, 15 2021</text><text font-family="Manrope,Manrope_MSFontService,sans-serif" font-weight="400" font-size="11" transform="matrix(1 0 0 1.0008 41.1752 93)">Last</text><text font-family="Manrope,Manrope_MSFontService,sans-serif" font-weight="400" font-size="11" transform="matrix(1 0 0 1.0008 64.8419 93)">updated</text><text font-family="Manrope,Manrope_MSFontService,sans-serif" font-weight="400" font-size="11" transform="matrix(1 0 0 1.0008 106.675 93)">:</text><text font-family="Manrope,Manrope_MSFontService,sans-serif" font-weight="400" font-size="11" transform="matrix(1 0 0 1.0008 193.375 132)">PC</text><text font-family="Manrope,Manrope_MSFontService,sans-serif" font-weight="400" font-size="11" transform="matrix(1 0 0 1.0008 41.1752 132)">Unit</text><text font-family="Manrope,Manrope_MSFontService,sans-serif" font-weight="400" font-size="11" transform="matrix(1 0 0 1.0008 64.0086 132)">of</text><text font-family="Manrope,Manrope_MSFontService,sans-serif" font-weight="400" font-size="11" transform="matrix(1 0 0 1.0008 76.3419 132)">Measure</text><text font-family="Manrope,Manrope_MSFontService,sans-serif" font-weight="400" font-size="11" transform="matrix(1 0 0 1.0008 119.509 132)">:</text></g></svg>