<svg width="1280" height="277" xmlns="http://www.w3.org/2000/svg" xmlns:xlink="http://www.w3.org/1999/xlink" overflow="hidden"><defs><clipPath id="clip0"><rect x="0" y="0" width="1280" height="277"/></clipPath></defs><g clip-path="url(#clip0)"><rect x="0" y="0" width="1280" height="277.334" fill="#FFFFFF"/><path d="M116.271 37.1996 227.102 37.1996 227.102 62.7742 116.271 62.7742Z" fill="#D91E18" fill-rule="evenodd" fill-opacity="0.501961"/><path d="M227.102 37.1996 781.259 37.1996 781.259 62.7742 227.102 62.7742Z" fill="#D91E18" fill-rule="evenodd" fill-opacity="0.25098"/><path d="M781.259 37.1996 1113.75 37.1996 1113.75 62.7742 781.259 62.7742Z" fill="#219DD4" fill-rule="evenodd" fill-opacity="0.501961"/><path d="M1113.75 37.1996 1280 37.1996 1280 62.7742 1113.75 62.7742Z" fill="#219DD4" fill-rule="evenodd" fill-opacity="0.25098"/><path d="M116.271 62.7742 1002.92 62.7742 1002.92 88.3488 116.271 88.3488Z" fill="#CECECE" fill-rule="evenodd"/><path d="M1058.34 62.7742 1280 62.7742 1280 88.3488 1058.34 88.3488Z" fill="#979797" fill-rule="evenodd"/><path d="M116.271 88.3488 171.687 88.3488 171.687 113.923 116.271 113.923Z" fill="#CECECE" fill-rule="evenodd"/><path d="M171.687 88.3488 227.102 88.3488 227.102 113.923 171.687 113.923Z" fill="#CECECE" fill-rule="evenodd"/><path d="M227.102 88.3488 282.518 88.3488 282.518 113.923 227.102 113.923Z" fill="#CECECE" fill-rule="evenodd"/><path d="M282.518 88.3488 337.933 88.3488 337.933 113.923 282.518 113.923Z" fill="#CECECE" fill-rule="evenodd"/><path d="M337.933 88.3488 393.349 88.3488 393.349 113.923 337.933 113.923Z" fill="#CECECE" fill-rule="evenodd"/><path d="M393.349 88.3488 448.765 88.3488 448.765 113.923 393.349 113.923Z" fill="#CECECE" fill-rule="evenodd"/><path d="M448.765 88.3488 504.18 88.3488 504.18 113.923 448.765 113.923Z" fill="#CECECE" fill-rule="evenodd"/><path d="M504.18 88.3488 559.596 88.3488 559.596 113.923 504.18 113.923Z" fill="#CECECE" fill-rule="evenodd"/><path d="M559.596 88.3488 615.012 88.3488 615.012 113.923 559.596 113.923Z" fill="#CECECE" fill-rule="evenodd"/><path d="M615.012 88.3488 670.427 88.3488 670.427 113.923 615.012 113.923Z" fill="#CECECE" fill-rule="evenodd"/><path d="M670.427 88.3488 725.843 88.3488 725.843 113.923 670.427 113.923Z" fill="#CECECE" fill-rule="evenodd"/><path d="M725.843 88.3488 781.259 88.3488 781.259 113.923 725.843 113.923Z" fill="#CECECE" fill-rule="evenodd"/><path d="M781.259 88.3488 836.674 88.3488 836.674 113.923 781.259 113.923Z" fill="#CECECE" fill-rule="evenodd"/><path d="M836.674 88.3488 892.09 88.3488 892.09 113.923 836.674 113.923Z" fill="#CECECE" fill-rule="evenodd"/><path d="M892.09 88.3488 947.505 88.3488 947.505 113.923 892.09 113.923Z" fill="#CECECE" fill-rule="evenodd"/><path d="M947.505 88.3488 1002.92 88.3488 1002.92 113.923 947.505 113.923Z" fill="#CECECE" fill-rule="evenodd"/><path d="M1058.34 88.3488 1113.75 88.3488 1113.75 113.923 1058.34 113.923Z" fill="#979797" fill-rule="evenodd"/><path d="M1113.75 88.3488 1169.17 88.3488 1169.17 113.923 1113.75 113.923Z" fill="#979797" fill-rule="evenodd"/><path d="M1169.17 88.3488 1224.58 88.3488 1224.58 113.923 1169.17 113.923Z" fill="#979797" fill-rule="evenodd"/><path d="M1224.58 88.3488 1280 88.3488 1280 113.923 1224.58 113.923Z" fill="#979797" fill-rule="evenodd"/><path d="M116.271-0.66747 116.271 138.831" stroke="#FFFFFF" stroke-width="1.33333" stroke-linejoin="round" stroke-miterlimit="10" fill="none" fill-rule="evenodd"/><path d="M116.271 138.831 116.271 277.758" stroke="#000000" stroke-width="2" stroke-linejoin="round" stroke-miterlimit="10" fill="none" fill-rule="evenodd"/><path d="M171.687-0.66747 171.687 37.8671" stroke="#FFFFFF" stroke-width="1.33333" stroke-linejoin="round" stroke-miterlimit="10" fill="none" fill-rule="evenodd"/><path d="M171.687 87.6814 171.687 140.166" stroke="#FFFFFF" stroke-width="1.33333" stroke-linejoin="round" stroke-miterlimit="10" fill="none" fill-rule="evenodd"/><path d="M227.102-0.66747 227.102 63.4417" stroke="#FFFFFF" stroke-width="1.33333" stroke-linejoin="round" stroke-miterlimit="10" fill="none" fill-rule="evenodd"/><path d="M227.102 87.6814 227.102 138.831" stroke="#FFFFFF" stroke-width="1.33333" stroke-linejoin="round" stroke-miterlimit="10" fill="none" fill-rule="evenodd"/><path d="M227.102 138.831 227.102 277.09" stroke="#000000" stroke-width="2" stroke-linejoin="round" stroke-miterlimit="10" fill="none" fill-rule="evenodd"/><path d="M282.518-0.66747 282.518 37.8671" stroke="#FFFFFF" stroke-width="1.33333" stroke-linejoin="round" stroke-miterlimit="10" fill="none" fill-rule="evenodd"/><path d="M282.518 87.6814 282.518 191.315" stroke="#FFFFFF" stroke-width="1.33333" stroke-linejoin="round" stroke-miterlimit="10" fill="none" fill-rule="evenodd"/><path d="M337.933-0.66747 337.933 37.8671" stroke="#FFFFFF" stroke-width="1.33333" stroke-linejoin="round" stroke-miterlimit="10" fill="none" fill-rule="evenodd"/><path d="M337.933 87.6814 337.933 191.315" stroke="#FFFFFF" stroke-width="1.33333" stroke-linejoin="round" stroke-miterlimit="10" fill="none" fill-rule="evenodd"/><path d="M393.349-0.66747 393.349 37.8671" stroke="#FFFFFF" stroke-width="1.33333" stroke-linejoin="round" stroke-miterlimit="10" fill="none" fill-rule="evenodd"/><path d="M393.349 87.6814 393.349 191.315" stroke="#FFFFFF" stroke-width="1.33333" stroke-linejoin="round" stroke-miterlimit="10" fill="none" fill-rule="evenodd"/><path d="M448.765-0.66747 448.765 37.8671" stroke="#FFFFFF" stroke-width="1.33333" stroke-linejoin="round" stroke-miterlimit="10" fill="none" fill-rule="evenodd"/><path d="M448.765 87.6814 448.765 138.831" stroke="#FFFFFF" stroke-width="1.33333" stroke-linejoin="round" stroke-miterlimit="10" fill="none" fill-rule="evenodd"/><path d="M448.765 138.831 448.765 277.758" stroke="#000000" stroke-width="2" stroke-linejoin="round" stroke-miterlimit="10" fill="none" fill-rule="evenodd"/><path d="M504.18-0.66747 504.18 37.8671" stroke="#FFFFFF" stroke-width="1.33333" stroke-linejoin="round" stroke-miterlimit="10" fill="none" fill-rule="evenodd"/><path d="M504.18 87.6814 504.18 191.315" stroke="#FFFFFF" stroke-width="1.33333" stroke-linejoin="round" stroke-miterlimit="10" fill="none" fill-rule="evenodd"/><path d="M559.596-0.66747 559.596 37.8671" stroke="#FFFFFF" stroke-width="1.33333" stroke-linejoin="round" stroke-miterlimit="10" fill="none" fill-rule="evenodd"/><path d="M559.596 87.6814 559.596 191.315" stroke="#FFFFFF" stroke-width="1.33333" stroke-linejoin="round" stroke-miterlimit="10" fill="none" fill-rule="evenodd"/><path d="M615.012-0.66747 615.012 37.8671" stroke="#FFFFFF" stroke-width="1.33333" stroke-linejoin="round" stroke-miterlimit="10" fill="none" fill-rule="evenodd"/><path d="M615.012 87.6814 615.012 191.315" stroke="#FFFFFF" stroke-width="1.33333" stroke-linejoin="round" stroke-miterlimit="10" fill="none" fill-rule="evenodd"/><path d="M670.427-0.66747 670.427 37.8671" stroke="#FFFFFF" stroke-width="1.33333" stroke-linejoin="round" stroke-miterlimit="10" fill="none" fill-rule="evenodd"/><path d="M670.427 87.6814 670.427 191.315" stroke="#FFFFFF" stroke-width="1.33333" stroke-linejoin="round" stroke-miterlimit="10" fill="none" fill-rule="evenodd"/><path d="M725.843-0.66747 725.843 37.8671" stroke="#FFFFFF" stroke-width="1.33333" stroke-linejoin="round" stroke-miterlimit="10" fill="none" fill-rule="evenodd"/><path d="M725.843 87.6814 725.843 191.315" stroke="#FFFFFF" stroke-width="1.33333" stroke-linejoin="round" stroke-miterlimit="10" fill="none" fill-rule="evenodd"/><path d="M781.259-0.66747 781.259 63.4417" stroke="#FFFFFF" stroke-width="1.33333" stroke-linejoin="round" stroke-miterlimit="10" fill="none" fill-rule="evenodd"/><path d="M781.259 87.6814 781.259 138.831" stroke="#FFFFFF" stroke-width="1.33333" stroke-linejoin="round" stroke-miterlimit="10" fill="none" fill-rule="evenodd"/><path d="M781.259 138.831 781.259 277.758" stroke="#000000" stroke-width="2" stroke-linejoin="round" stroke-miterlimit="10" fill="none" fill-rule="evenodd"/><path d="M836.674-0.66747 836.674 37.8671" stroke="#FFFFFF" stroke-width="1.33333" stroke-linejoin="round" stroke-miterlimit="10" fill="none" fill-rule="evenodd"/><path d="M836.674 87.6814 836.674 191.315" stroke="#FFFFFF" stroke-width="1.33333" stroke-linejoin="round" stroke-miterlimit="10" fill="none" fill-rule="evenodd"/><path d="M892.09-0.66747 892.09 37.8671" stroke="#FFFFFF" stroke-width="1.33333" stroke-linejoin="round" stroke-miterlimit="10" fill="none" fill-rule="evenodd"/><path d="M892.09 87.6814 892.09 191.315" stroke="#FFFFFF" stroke-width="1.33333" stroke-linejoin="round" stroke-miterlimit="10" fill="none" fill-rule="evenodd"/><path d="M947.505-0.66747 947.505 37.8671" stroke="#FFFFFF" stroke-width="1.33333" stroke-linejoin="round" stroke-miterlimit="10" fill="none" fill-rule="evenodd"/><path d="M947.505 87.6814 947.505 138.831" stroke="#FFFFFF" stroke-width="1.33333" stroke-linejoin="round" stroke-miterlimit="10" fill="none" fill-rule="evenodd"/><path d="M947.505 138.831 947.505 277.758" stroke="#000000" stroke-width="2" stroke-linejoin="round" stroke-miterlimit="10" fill="none" fill-rule="evenodd"/><path d="M1002.92-0.66747 1002.92 37.8671" stroke="#FFFFFF" stroke-width="1.33333" stroke-linejoin="round" stroke-miterlimit="10" fill="none" fill-rule="evenodd"/><path d="M1002.92 62.1068 1002.92 165.74" stroke="#FFFFFF" stroke-width="1.33333" stroke-linejoin="round" stroke-miterlimit="10" fill="none" fill-rule="evenodd"/><path d="M1058.34-0.66747 1058.34 37.8671" stroke="#FFFFFF" stroke-width="1.33333" stroke-linejoin="round" stroke-miterlimit="10" fill="none" fill-rule="evenodd"/><path d="M1058.34 62.1068 1058.34 165.74" stroke="#FFFFFF" stroke-width="1.33333" stroke-linejoin="round" stroke-miterlimit="10" fill="none" fill-rule="evenodd"/><path d="M1113.75-0.66747 1113.75 63.4417" stroke="#FFFFFF" stroke-width="1.33333" stroke-linejoin="round" stroke-miterlimit="10" fill="none" fill-rule="evenodd"/><path d="M1113.75 87.6814 1113.75 138.831" stroke="#FFFFFF" stroke-width="1.33333" stroke-linejoin="round" stroke-miterlimit="10" fill="none" fill-rule="evenodd"/><path d="M1113.75 138.831 1113.75 277.758" stroke="#000000" stroke-width="2" stroke-linejoin="round" stroke-miterlimit="10" fill="none" fill-rule="evenodd"/><path d="M1169.17-0.66747 1169.17 37.8671" stroke="#FFFFFF" stroke-width="1.33333" stroke-linejoin="round" stroke-miterlimit="10" fill="none" fill-rule="evenodd"/><path d="M1169.17 87.6814 1169.17 140.166" stroke="#FFFFFF" stroke-width="1.33333" stroke-linejoin="round" stroke-miterlimit="10" fill="none" fill-rule="evenodd"/><path d="M1224.58-0.66747 1224.58 37.8671" stroke="#FFFFFF" stroke-width="1.33333" stroke-linejoin="round" stroke-miterlimit="10" fill="none" fill-rule="evenodd"/><path d="M1224.58 87.6814 1224.58 140.166" stroke="#FFFFFF" stroke-width="1.33333" stroke-linejoin="round" stroke-miterlimit="10" fill="none" fill-rule="evenodd"/><path d="M-0.666562 37.1996 1280.67 37.1996" stroke="#FFFFFF" stroke-width="1.33333" stroke-linejoin="round" stroke-miterlimit="10" fill="none" fill-rule="evenodd"/><path d="M-0.666562 62.7742 1280.67 62.7742" stroke="#FFFFFF" stroke-width="1.33333" stroke-linejoin="round" stroke-miterlimit="10" fill="none" fill-rule="evenodd"/><path d="M-0.666562 88.3488 1280.67 88.3488" stroke="#FFFFFF" stroke-width="1.33333" stroke-linejoin="round" stroke-miterlimit="10" fill="none" fill-rule="evenodd"/><path d="M-0.666562 113.923 1280.67 113.923" stroke="#FFFFFF" stroke-width="1.33333" stroke-linejoin="round" stroke-miterlimit="10" fill="none" fill-rule="evenodd"/><path d="M-0.666562 139.498 116.271 139.498" stroke="#FFFFFF" stroke-width="1.33333" stroke-linejoin="round" stroke-miterlimit="10" fill="none" fill-rule="evenodd"/><path d="M116.271 139.498 1281 139.498" stroke="#000000" stroke-width="1.33333" stroke-linejoin="round" stroke-miterlimit="10" fill="none" fill-rule="evenodd"/><path d="M-0.666562 165.073 116.271 165.073" stroke="#FFFFFF" stroke-width="1.33333" stroke-linejoin="round" stroke-miterlimit="10" fill="none" fill-rule="evenodd"/><path d="M116.271 165.073 1281 165.073" stroke="#000000" stroke-width="1.33333" stroke-linejoin="round" stroke-miterlimit="10" fill="none" fill-rule="evenodd"/><path d="M-0.666562 190.647 1281 190.647" stroke="#000000" stroke-width="1.33333" stroke-linejoin="round" stroke-miterlimit="10" fill="none" fill-rule="evenodd"/><path d="M-0.666562 216.222 116.271 216.222" stroke="#FFFFFF" stroke-width="1.33333" stroke-linejoin="round" stroke-miterlimit="10" fill="none" fill-rule="evenodd"/><path d="M116.271 216.222 1281 216.222" stroke="#000000" stroke-width="1.33333" stroke-linejoin="round" stroke-miterlimit="10" fill="none" fill-rule="evenodd"/><path d="M-0.666562 241.796 116.271 241.796" stroke="#FFFFFF" stroke-width="1.33333" stroke-linejoin="round" stroke-miterlimit="10" fill="none" fill-rule="evenodd"/><path d="M116.271 241.796 1281 241.796" stroke="#000000" stroke-width="1.33333" stroke-linejoin="round" stroke-miterlimit="10" fill="none" fill-rule="evenodd"/><path d="M0.000104987-0.66747 0.000104987 277.758" stroke="#FFFFFF" stroke-width="1.33333" stroke-linejoin="round" stroke-miterlimit="10" fill="none" fill-rule="evenodd"/><path d="M1280-0.66747 1280 138.831" stroke="#FFFFFF" stroke-width="1.33333" stroke-linejoin="round" stroke-miterlimit="10" fill="none" fill-rule="evenodd"/><path d="M1280 138.831 1280 277.758" stroke="#000000" stroke-width="2" stroke-linejoin="round" stroke-miterlimit="10" fill="none" fill-rule="evenodd"/><path d="M-0.666562 0 1280.67 0" stroke="#FFFFFF" stroke-width="1.33333" stroke-linejoin="round" stroke-miterlimit="10" fill="none" fill-rule="evenodd"/><path d="M-0.666562 277.09 117.271 277.09" stroke="#FFFFFF" stroke-width="1.33333" stroke-linejoin="round" stroke-miterlimit="10" fill="none" fill-rule="evenodd"/><path d="M447.765 277.09 1281 277.09" stroke="#FFFFFF" stroke-width="1.33333" stroke-linejoin="round" stroke-miterlimit="10" fill="none" fill-rule="evenodd"/><g><text font-family="Manrope ExtraBold,Manrope ExtraBold_MSFontService,sans-serif" font-weight="800" font-size="13" transform="matrix(1 0 0 1.0012 0.695958 33)">Rolling Horizon</text></g><text font-family="Manrope ExtraBold,Manrope ExtraBold_MSFontService,sans-serif" font-weight="800" font-size="11" transform="matrix(1 0 0 1.0012 1149.54 54)">Longterm</text><text font-family="Manrope ExtraBold,Manrope ExtraBold_MSFontService,sans-serif" font-weight="800" font-size="11" transform="matrix(1 0 0 1.0012 1203.04 54)">Horizon</text><text font-family="Manrope ExtraBold,Manrope ExtraBold_MSFontService,sans-serif" font-weight="800" font-size="11" transform="matrix(1 0 0 1.0012 871.839 54)">DCM Volatility Focus</text><text font-family="Manrope ExtraBold,Manrope ExtraBold_MSFontService,sans-serif" font-weight="800" font-size="11" transform="matrix(1 0 0 1.0012 982.005 54)">Horizon</text><text font-family="Manrope ExtraBold,Manrope ExtraBold_MSFontService,sans-serif" font-weight="800" font-size="11" transform="matrix(1 0 0 1.0012 451.264 54)">Operational Horizon</text><text font-family="Manrope ExtraBold,Manrope ExtraBold_MSFontService,sans-serif" font-weight="800" font-size="11" transform="matrix(1 0 0 1.0012 132.186 54)">Frozen</text><text font-family="Manrope ExtraBold,Manrope ExtraBold_MSFontService,sans-serif" font-weight="800" font-size="11" transform="matrix(1 0 0 1.0012 170.02 54)">Horizon</text><text font-family="Manrope,Manrope_MSFontService,sans-serif" font-weight="400" font-size="11" transform="matrix(1 0 0 1.0012 1156.83 85)">2025</text><text font-family="Manrope,Manrope_MSFontService,sans-serif" font-weight="400" font-size="11" transform="matrix(1 0 0 1.0012 547.179 85)">2024</text><text font-family="Manrope,Manrope_MSFontService,sans-serif" font-weight="400" font-size="11" transform="matrix(1 0 0 1.0012 1238.12 110)">CW10</text><text font-family="Manrope,Manrope_MSFontService,sans-serif" font-weight="400" font-size="11" transform="matrix(1 0 0 1.0012 1184.71 110)">CW9</text><text font-family="Manrope,Manrope_MSFontService,sans-serif" font-weight="400" font-size="11" transform="matrix(1 0 0 1.0012 1129.54 110)">CW8</text><text font-family="Manrope,Manrope_MSFontService,sans-serif" font-weight="400" font-size="11" transform="matrix(1 0 0 1.0012 1074.54 110)">CW7</text><text font-family="Manrope,Manrope_MSFontService,sans-serif" font-weight="400" font-size="11" transform="matrix(1 0 0 1.0012 1027.3 110)">…</text><text font-family="Manrope,Manrope_MSFontService,sans-serif" font-weight="400" font-size="11" transform="matrix(1 0 0 1.0012 960.463 110)">CW23</text><text font-family="Manrope,Manrope_MSFontService,sans-serif" font-weight="400" font-size="11" transform="matrix(1 0 0 1.0012 904.964 110)">CW22</text><text font-family="Manrope,Manrope_MSFontService,sans-serif" font-weight="400" font-size="11" transform="matrix(1 0 0 1.0012 850.465 110)">CW21</text><text font-family="Manrope,Manrope_MSFontService,sans-serif" font-weight="400" font-size="11" transform="matrix(1 0 0 1.0012 793.883 110)">CW20</text><text font-family="Manrope,Manrope_MSFontService,sans-serif" font-weight="400" font-size="11" transform="matrix(1 0 0 1.0012 739.301 110)">CW19</text><text font-family="Manrope,Manrope_MSFontService,sans-serif" font-weight="400" font-size="11" transform="matrix(1 0 0 1.0012 684.135 110)">CW18</text><text font-family="Manrope,Manrope_MSFontService,sans-serif" font-weight="400" font-size="11" transform="matrix(1 0 0 1.0012 629.136 110)">CW17</text><text font-family="Manrope,Manrope_MSFontService,sans-serif" font-weight="400" font-size="11" transform="matrix(1 0 0 1.0012 573.054 110)">CW16</text><text font-family="Manrope,Manrope_MSFontService,sans-serif" font-weight="400" font-size="11" transform="matrix(1 0 0 1.0012 517.888 110)">CW15</text><text font-family="Manrope,Manrope_MSFontService,sans-serif" font-weight="400" font-size="11" transform="matrix(1 0 0 1.0012 462.389 110)">CW14</text><text font-family="Manrope,Manrope_MSFontService,sans-serif" font-weight="400" font-size="11" transform="matrix(1 0 0 1.0012 407.224 110)">CW13</text><text font-family="Manrope,Manrope_MSFontService,sans-serif" font-weight="400" font-size="11" transform="matrix(1 0 0 1.0012 351.725 110)">CW12</text><text font-family="Manrope,Manrope_MSFontService,sans-serif" font-weight="400" font-size="11" transform="matrix(1 0 0 1.0012 297.226 110)">CW11</text><text font-family="Manrope,Manrope_MSFontService,sans-serif" font-weight="400" font-size="11" transform="matrix(1 0 0 1.0012 240.643 110)">CW10</text><text font-family="Manrope,Manrope_MSFontService,sans-serif" font-weight="400" font-size="11" transform="matrix(1 0 0 1.0012 187.228 110)">CW9</text><text font-family="Manrope,Manrope_MSFontService,sans-serif" font-weight="400" font-size="11" transform="matrix(1 0 0 1.0012 132.062 110)">CW8</text><g><text font-family="Manrope,Manrope_MSFontService,sans-serif" font-weight="400" font-size="11" transform="matrix(1 0 0 1.0012 1228.87 136)">Week 104</text></g><text font-family="Manrope,Manrope_MSFontService,sans-serif" font-weight="400" font-size="11" transform="matrix(1 0 0 1.0012 1193.54 136)">…</text><text font-family="Manrope,Manrope_MSFontService,sans-serif" font-weight="400" font-size="11" transform="matrix(1 0 0 1.0012 1120.54 136)">Week 53</text><text font-family="Manrope,Manrope_MSFontService,sans-serif" font-weight="400" font-size="11" transform="matrix(1 0 0 1.0012 1065.04 136)">Week 52</text><text font-family="Manrope,Manrope_MSFontService,sans-serif" font-weight="400" font-size="11" transform="matrix(1 0 0 1.0012 1026.63 136)">...</text><text font-family="Manrope,Manrope_MSFontService,sans-serif" font-weight="400" font-size="11" transform="matrix(1 0 0 1.0012 955.13 136)">Week 15</text><text font-family="Manrope,Manrope_MSFontService,sans-serif" font-weight="400" font-size="11" transform="matrix(1 0 0 1.0012 899.631 136)">Week 14</text><text font-family="Manrope,Manrope_MSFontService,sans-serif" font-weight="400" font-size="11" transform="matrix(1 0 0 1.0012 844.465 136)">Week 13</text><text font-family="Manrope,Manrope_MSFontService,sans-serif" font-weight="400" font-size="11" transform="matrix(1 0 0 1.0012 788.966 136)">Week 12</text><text font-family="Manrope,Manrope_MSFontService,sans-serif" font-weight="400" font-size="11" transform="matrix(1 0 0 1.0012 734.467 136)">Week 11</text><text font-family="Manrope,Manrope_MSFontService,sans-serif" font-weight="400" font-size="11" transform="matrix(1 0 0 1.0012 677.885 136)">Week 10</text><text font-family="Manrope,Manrope_MSFontService,sans-serif" font-weight="400" font-size="11" transform="matrix(1 0 0 1.0012 624.469 136)">Week 9</text><text font-family="Manrope,Manrope_MSFontService,sans-serif" font-weight="400" font-size="11" transform="matrix(1 0 0 1.0012 569.304 136)">Week 8</text><text font-family="Manrope,Manrope_MSFontService,sans-serif" font-weight="400" font-size="11" transform="matrix(1 0 0 1.0012 514.305 136)">Week 7</text><text font-family="Manrope,Manrope_MSFontService,sans-serif" font-weight="400" font-size="11" transform="matrix(1 0 0 1.0012 458.223 136)">Week 6</text><text font-family="Manrope,Manrope_MSFontService,sans-serif" font-weight="400" font-size="11" transform="matrix(1 0 0 1.0012 403.057 136)">Week 5</text><text font-family="Manrope,Manrope_MSFontService,sans-serif" font-weight="400" font-size="11" transform="matrix(1 0 0 1.0012 347.558 136)">Week 4</text><text font-family="Manrope,Manrope_MSFontService,sans-serif" font-weight="400" font-size="11" transform="matrix(1 0 0 1.0012 292.392 136)">Week 3</text><text font-family="Manrope,Manrope_MSFontService,sans-serif" font-weight="400" font-size="11" transform="matrix(1 0 0 1.0012 236.893 136)">Week 2</text><text font-family="Manrope,Manrope_MSFontService,sans-serif" font-weight="400" font-size="11" transform="matrix(1 0 0 1.0012 182.394 136)">Week 1</text><text font-family="Manrope,Manrope_MSFontService,sans-serif" font-weight="400" font-size="11" transform="matrix(1 0 0 1.0012 125.812 136)">Week 0</text><text font-family="Manrope,Manrope_MSFontService,sans-serif" font-style="oblique" font-weight="400" font-size="11" transform="matrix(1 0 0 1.0012 1165.54 155)">no</text><text font-family="Manrope,Manrope_MSFontService,sans-serif" font-style="oblique" font-weight="400" font-size="11" transform="matrix(1 0 0 1.0012 1180.38 155)">threshold</text><text font-family="Manrope,Manrope_MSFontService,sans-serif" font-weight="400" font-size="11" transform="matrix(1 0 0 1.0012 1075.21 155)">35%</text><text font-family="Manrope,Manrope_MSFontService,sans-serif" font-weight="400" font-size="11" transform="matrix(1 0 0 1.0012 1019.8 155)">35%</text><text font-family="Manrope,Manrope_MSFontService,sans-serif" font-weight="400" font-size="11" transform="matrix(1 0 0 1.0012 964.38 155)">35%</text><text font-family="Manrope,Manrope_MSFontService,sans-serif" font-weight="400" font-size="11" transform="matrix(1 0 0 1.0012 908.714 156)">20%</text><text font-family="Manrope,Manrope_MSFontService,sans-serif" font-weight="400" font-size="11" transform="matrix(1 0 0 1.0012 853.299 156)">20%</text><text font-family="Manrope,Manrope_MSFontService,sans-serif" font-weight="400" font-size="11" transform="matrix(1 0 0 1.0012 797.883 156)">20%</text><text font-family="Manrope,Manrope_MSFontService,sans-serif" font-weight="400" font-size="11" transform="matrix(1 0 0 1.0012 743.384 155)">10%</text><text font-family="Manrope,Manrope_MSFontService,sans-serif" font-weight="400" font-size="11" transform="matrix(1 0 0 1.0012 687.968 155)">10%</text><text font-family="Manrope,Manrope_MSFontService,sans-serif" font-weight="400" font-size="11" transform="matrix(1 0 0 1.0012 632.553 155)">10%</text><text font-family="Manrope,Manrope_MSFontService,sans-serif" font-weight="400" font-size="11" transform="matrix(1 0 0 1.0012 577.137 155)">10%</text><text font-family="Manrope,Manrope_MSFontService,sans-serif" font-weight="400" font-size="11" transform="matrix(1 0 0 1.0012 521.721 155)">10%</text><text font-family="Manrope,Manrope_MSFontService,sans-serif" font-weight="400" font-size="11" transform="matrix(1 0 0 1.0012 466.306 155)">10%</text><text font-family="Manrope,Manrope_MSFontService,sans-serif" font-weight="400" font-size="11" transform="matrix(1 0 0 1.0012 413.14 155)">5%</text><text font-family="Manrope,Manrope_MSFontService,sans-serif" font-weight="400" font-size="11" transform="matrix(1 0 0 1.0012 357.725 155)">5%</text><text font-family="Manrope,Manrope_MSFontService,sans-serif" font-weight="400" font-size="11" transform="matrix(1 0 0 1.0012 302.309 155)">5%</text><text font-family="Manrope,Manrope_MSFontService,sans-serif" font-weight="400" font-size="11" transform="matrix(1 0 0 1.0012 246.893 155)">5%</text><text font-family="Manrope,Manrope_MSFontService,sans-serif" font-weight="400" font-size="11" transform="matrix(1 0 0 1.0012 163.603 155)">0%</text><text font-family="Manrope ExtraBold,Manrope ExtraBold_MSFontService,sans-serif" font-weight="800" font-size="11" transform="matrix(1 0 0 1.0012 25.196 155)">Threshold</text><text font-family="Times New Roman,Times New Roman_MSFontService,sans-serif" font-weight="400" font-size="11" transform="matrix(1 0 0 1.0012 80.696 156)">∆</text><text font-family="Manrope ExtraBold,Manrope ExtraBold_MSFontService,sans-serif" font-weight="800" font-size="7" transform="matrix(1 0 0 1.0012 87.196 158)">rel</text><g><text font-family="Manrope ExtraBold,Manrope ExtraBold_MSFontService,sans-serif" font-weight="800" font-size="7" transform="matrix(1 0 0 1.0012 96.696 158)">, pos.</text></g><text font-family="Manrope,Manrope_MSFontService,sans-serif" font-style="oblique" font-weight="400" font-size="11" transform="matrix(1 0 0 1.0012 1165.54 181)">no</text><text font-family="Manrope,Manrope_MSFontService,sans-serif" font-style="oblique" font-weight="400" font-size="11" transform="matrix(1 0 0 1.0012 1180.38 181)">threshold</text><text font-family="Manrope,Manrope_MSFontService,sans-serif" font-style="oblique" font-weight="400" font-size="11" transform="matrix(1 0 0 1.0012 999.296 181)">no</text><text font-family="Manrope,Manrope_MSFontService,sans-serif" font-style="oblique" font-weight="400" font-size="11" transform="matrix(1 0 0 1.0012 1014.13 181)">threshold</text><text font-family="Manrope,Manrope_MSFontService,sans-serif" font-weight="400" font-size="11" transform="matrix(1 0 0 1.0012 906.298 182)">-</text><text font-family="Manrope,Manrope_MSFontService,sans-serif" font-weight="400" font-size="11" transform="matrix(1 0 0 1.0012 910.798 182)">40%</text><text font-family="Manrope,Manrope_MSFontService,sans-serif" font-weight="400" font-size="11" transform="matrix(1 0 0 1.0012 850.882 182)">-</text><text font-family="Manrope,Manrope_MSFontService,sans-serif" font-weight="400" font-size="11" transform="matrix(1 0 0 1.0012 855.382 182)">40%</text><text font-family="Manrope,Manrope_MSFontService,sans-serif" font-weight="400" font-size="11" transform="matrix(1 0 0 1.0012 795.466 182)">-</text><text font-family="Manrope,Manrope_MSFontService,sans-serif" font-weight="400" font-size="11" transform="matrix(1 0 0 1.0012 799.966 182)">40%</text><text font-family="Manrope,Manrope_MSFontService,sans-serif" font-weight="400" font-size="11" transform="matrix(1 0 0 1.0012 740.217 181)">-</text><text font-family="Manrope,Manrope_MSFontService,sans-serif" font-weight="400" font-size="11" transform="matrix(1 0 0 1.0012 744.717 181)">20%</text><text font-family="Manrope,Manrope_MSFontService,sans-serif" font-weight="400" font-size="11" transform="matrix(1 0 0 1.0012 684.802 181)">-</text><text font-family="Manrope,Manrope_MSFontService,sans-serif" font-weight="400" font-size="11" transform="matrix(1 0 0 1.0012 689.302 181)">20%</text><text font-family="Manrope,Manrope_MSFontService,sans-serif" font-weight="400" font-size="11" transform="matrix(1 0 0 1.0012 629.386 181)">-</text><text font-family="Manrope,Manrope_MSFontService,sans-serif" font-weight="400" font-size="11" transform="matrix(1 0 0 1.0012 633.886 181)">20%</text><text font-family="Manrope,Manrope_MSFontService,sans-serif" font-weight="400" font-size="11" transform="matrix(1 0 0 1.0012 573.971 181)">-</text><text font-family="Manrope,Manrope_MSFontService,sans-serif" font-weight="400" font-size="11" transform="matrix(1 0 0 1.0012 578.471 181)">20%</text><text font-family="Manrope,Manrope_MSFontService,sans-serif" font-weight="400" font-size="11" transform="matrix(1 0 0 1.0012 518.555 181)">-</text><text font-family="Manrope,Manrope_MSFontService,sans-serif" font-weight="400" font-size="11" transform="matrix(1 0 0 1.0012 523.055 181)">20%</text><text font-family="Manrope,Manrope_MSFontService,sans-serif" font-weight="400" font-size="11" transform="matrix(1 0 0 1.0012 463.139 181)">-</text><text font-family="Manrope,Manrope_MSFontService,sans-serif" font-weight="400" font-size="11" transform="matrix(1 0 0 1.0012 467.639 181)">20%</text><text font-family="Manrope,Manrope_MSFontService,sans-serif" font-weight="400" font-size="11" transform="matrix(1 0 0 1.0012 408.64 181)">-</text><text font-family="Manrope,Manrope_MSFontService,sans-serif" font-weight="400" font-size="11" transform="matrix(1 0 0 1.0012 413.14 181)">10%</text><text font-family="Manrope,Manrope_MSFontService,sans-serif" font-weight="400" font-size="11" transform="matrix(1 0 0 1.0012 353.225 181)">-</text><text font-family="Manrope,Manrope_MSFontService,sans-serif" font-weight="400" font-size="11" transform="matrix(1 0 0 1.0012 357.725 181)">10%</text><text font-family="Manrope,Manrope_MSFontService,sans-serif" font-weight="400" font-size="11" transform="matrix(1 0 0 1.0012 297.809 181)">-</text><text font-family="Manrope,Manrope_MSFontService,sans-serif" font-weight="400" font-size="11" transform="matrix(1 0 0 1.0012 302.309 181)">10%</text><text font-family="Manrope,Manrope_MSFontService,sans-serif" font-weight="400" font-size="11" transform="matrix(1 0 0 1.0012 242.393 181)">-</text><text font-family="Manrope,Manrope_MSFontService,sans-serif" font-weight="400" font-size="11" transform="matrix(1 0 0 1.0012 246.893 181)">10%</text><text font-family="Manrope,Manrope_MSFontService,sans-serif" font-weight="400" font-size="11" transform="matrix(1 0 0 1.0012 163.603 181)">0%</text><text font-family="Manrope ExtraBold,Manrope ExtraBold_MSFontService,sans-serif" font-weight="800" font-size="11" transform="matrix(1 0 0 1.0012 24.696 181)">Threshold</text><text font-family="Times New Roman,Times New Roman_MSFontService,sans-serif" font-weight="400" font-size="11" transform="matrix(1 0 0 1.0012 80.196 182)">∆</text><text font-family="Manrope ExtraBold,Manrope ExtraBold_MSFontService,sans-serif" font-weight="800" font-size="7" transform="matrix(1 0 0 1.0012 86.696 184)">rel</text><g><text font-family="Manrope ExtraBold,Manrope ExtraBold_MSFontService,sans-serif" font-weight="800" font-size="7" transform="matrix(1 0 0 1.0012 96.196 184)">, neg.</text></g><text font-family="Manrope,Manrope_MSFontService,sans-serif" font-style="oblique" font-weight="400" font-size="11" transform="matrix(1 0 0 1.0012 1165.54 206)">no</text><text font-family="Manrope,Manrope_MSFontService,sans-serif" font-style="oblique" font-weight="400" font-size="11" transform="matrix(1 0 0 1.0012 1180.38 206)">threshold</text><text font-family="Manrope,Manrope_MSFontService,sans-serif" font-style="oblique" font-weight="400" font-size="11" transform="matrix(1 0 0 1.0012 999.296 206)">no</text><text font-family="Manrope,Manrope_MSFontService,sans-serif" font-style="oblique" font-weight="400" font-size="11" transform="matrix(1 0 0 1.0012 1014.13 206)">threshold</text><text font-family="Manrope,Manrope_MSFontService,sans-serif" font-style="oblique" font-weight="400" font-size="11" transform="matrix(1 0 0 1.0012 833.049 208)">no</text><text font-family="Manrope,Manrope_MSFontService,sans-serif" font-style="oblique" font-weight="400" font-size="11" transform="matrix(1 0 0 1.0012 847.882 208)">threshold</text><text font-family="Manrope,Manrope_MSFontService,sans-serif" font-style="oblique" font-weight="400" font-size="11" transform="matrix(1 0 0 1.0012 583.678 207)">no</text><text font-family="Manrope,Manrope_MSFontService,sans-serif" font-style="oblique" font-weight="400" font-size="11" transform="matrix(1 0 0 1.0012 598.512 207)">threshold</text><text font-family="Manrope,Manrope_MSFontService,sans-serif" font-style="oblique" font-weight="400" font-size="11" transform="matrix(1 0 0 1.0012 306.6 207)">no</text><text font-family="Manrope,Manrope_MSFontService,sans-serif" font-style="oblique" font-weight="400" font-size="11" transform="matrix(1 0 0 1.0012 321.433 207)">threshold</text><text font-family="Manrope,Manrope_MSFontService,sans-serif" font-style="oblique" font-weight="400" font-size="11" transform="matrix(1 0 0 1.0012 140.353 206)">no</text><text font-family="Manrope,Manrope_MSFontService,sans-serif" font-style="oblique" font-weight="400" font-size="11" transform="matrix(1 0 0 1.0012 155.187 206)">threshold</text><text font-family="Manrope ExtraBold,Manrope ExtraBold_MSFontService,sans-serif" font-weight="800" font-size="11" transform="matrix(1 0 0 1.0012 22.196 207)">Threshold</text><text font-family="Times New Roman,Times New Roman_MSFontService,sans-serif" font-weight="400" font-size="11" transform="matrix(1 0 0 1.0012 77.696 208)">∆</text><text font-family="Manrope ExtraBold,Manrope ExtraBold_MSFontService,sans-serif" font-weight="800" font-size="7" transform="matrix(1 0 0 1.0012 84.196 210)">abs</text><g><text font-family="Manrope ExtraBold,Manrope ExtraBold_MSFontService,sans-serif" font-weight="800" font-size="7" transform="matrix(1 0 0 1.0012 96.696 210)">, pos.</text></g><text font-family="Manrope,Manrope_MSFontService,sans-serif" font-style="oblique" font-weight="400" font-size="11" transform="matrix(1 0 0 1.0012 1165.54 232)">no</text><text font-family="Manrope,Manrope_MSFontService,sans-serif" font-style="oblique" font-weight="400" font-size="11" transform="matrix(1 0 0 1.0012 1180.38 232)">threshold</text><text font-family="Manrope,Manrope_MSFontService,sans-serif" font-style="oblique" font-weight="400" font-size="11" transform="matrix(1 0 0 1.0012 999.296 232)">no</text><text font-family="Manrope,Manrope_MSFontService,sans-serif" font-style="oblique" font-weight="400" font-size="11" transform="matrix(1 0 0 1.0012 1014.13 232)">threshold</text><text font-family="Manrope,Manrope_MSFontService,sans-serif" font-style="oblique" font-weight="400" font-size="11" transform="matrix(1 0 0 1.0012 833.049 233)">no</text><text font-family="Manrope,Manrope_MSFontService,sans-serif" font-style="oblique" font-weight="400" font-size="11" transform="matrix(1 0 0 1.0012 847.882 233)">threshold</text><text font-family="Manrope,Manrope_MSFontService,sans-serif" font-style="oblique" font-weight="400" font-size="11" transform="matrix(1 0 0 1.0012 583.678 232)">no</text><text font-family="Manrope,Manrope_MSFontService,sans-serif" font-style="oblique" font-weight="400" font-size="11" transform="matrix(1 0 0 1.0012 598.512 232)">threshold</text><text font-family="Manrope,Manrope_MSFontService,sans-serif" font-style="oblique" font-weight="400" font-size="11" transform="matrix(1 0 0 1.0012 306.6 232)">no</text><text font-family="Manrope,Manrope_MSFontService,sans-serif" font-style="oblique" font-weight="400" font-size="11" transform="matrix(1 0 0 1.0012 321.433 232)">threshold</text><text font-family="Manrope,Manrope_MSFontService,sans-serif" font-style="oblique" font-weight="400" font-size="11" transform="matrix(1 0 0 1.0012 140.353 232)">no</text><text font-family="Manrope,Manrope_MSFontService,sans-serif" font-style="oblique" font-weight="400" font-size="11" transform="matrix(1 0 0 1.0012 155.187 232)">threshold</text><text font-family="Manrope ExtraBold,Manrope ExtraBold_MSFontService,sans-serif" font-weight="800" font-size="11" transform="matrix(1 0 0 1.0012 21.696 232)">Threshold</text><text font-family="Times New Roman,Times New Roman_MSFontService,sans-serif" font-weight="400" font-size="11" transform="matrix(1 0 0 1.0012 77.196 233)">∆</text><text font-family="Manrope ExtraBold,Manrope ExtraBold_MSFontService,sans-serif" font-weight="800" font-size="7" transform="matrix(1 0 0 1.0012 83.696 235)">abs</text><g><text font-family="Manrope ExtraBold,Manrope ExtraBold_MSFontService,sans-serif" font-weight="800" font-size="7" transform="matrix(1 0 0 1.0012 96.196 235)">, neg.</text></g><text font-family="Manrope ExtraBold,Manrope ExtraBold_MSFontService,sans-serif" font-weight="800" font-size="11" transform="matrix(1 0 0 1.0012 1158.79 262)">No</text><text font-family="Manrope ExtraBold,Manrope ExtraBold_MSFontService,sans-serif" font-weight="800" font-size="11" transform="matrix(1 0 0 1.0012 1175.46 262)">subhorizon</text><text font-family="Manrope ExtraBold,Manrope ExtraBold_MSFontService,sans-serif" font-weight="800" font-size="11" transform="matrix(1 0 0 1.0012 995.962 256)">Subhorizon</text><text font-family="Manrope ExtraBold,Manrope ExtraBold_MSFontService,sans-serif" font-weight="800" font-size="11" transform="matrix(1 0 0 1.0012 1058.96 256)">5</text><text font-family="Manrope ExtraBold,Manrope ExtraBold_MSFontService,sans-serif" font-weight="800" font-size="11" transform="matrix(1 0 0 1.0012 1013.96 269)">(</text><text font-family="Manrope ExtraBold,Manrope ExtraBold_MSFontService,sans-serif" font-weight="800" font-size="11" transform="matrix(1 0 0 1.0012 1018.96 269)">l=37)</text><text font-family="Manrope ExtraBold,Manrope ExtraBold_MSFontService,sans-serif" font-weight="800" font-size="11" transform="matrix(1 0 0 1.0012 829.632 256)">Subhorizon</text><text font-family="Manrope ExtraBold,Manrope ExtraBold_MSFontService,sans-serif" font-weight="800" font-size="11" transform="matrix(1 0 0 1.0012 892.632 256)">4</text><text font-family="Manrope ExtraBold,Manrope ExtraBold_MSFontService,sans-serif" font-weight="800" font-size="11" transform="matrix(1 0 0 1.0012 850.632 269)">(</text><text font-family="Manrope ExtraBold,Manrope ExtraBold_MSFontService,sans-serif" font-weight="800" font-size="11" transform="matrix(1 0 0 1.0012 855.632 269)">l=3)</text><text font-family="Manrope ExtraBold,Manrope ExtraBold_MSFontService,sans-serif" font-weight="800" font-size="11" transform="matrix(1 0 0 1.0012 580.345 256)">Subhorizon</text><text font-family="Manrope ExtraBold,Manrope ExtraBold_MSFontService,sans-serif" font-weight="800" font-size="11" transform="matrix(1 0 0 1.0012 643.345 256)">3</text><text font-family="Manrope ExtraBold,Manrope ExtraBold_MSFontService,sans-serif" font-weight="800" font-size="11" transform="matrix(1 0 0 1.0012 601.098 269)">(</text><text font-family="Manrope ExtraBold,Manrope ExtraBold_MSFontService,sans-serif" font-weight="800" font-size="11" transform="matrix(1 0 0 1.0012 606.098 269)">l=6)</text><text font-family="Manrope ExtraBold,Manrope ExtraBold_MSFontService,sans-serif" font-weight="800" font-size="11" transform="matrix(1 0 0 1.0012 303.183 256)">Subhorizon</text><text font-family="Manrope ExtraBold,Manrope ExtraBold_MSFontService,sans-serif" font-weight="800" font-size="11" transform="matrix(1 0 0 1.0012 366.183 256)">2</text><text font-family="Manrope ExtraBold,Manrope ExtraBold_MSFontService,sans-serif" font-weight="800" font-size="11" transform="matrix(1 0 0 1.0012 324.103 269)">(</text><text font-family="Manrope ExtraBold,Manrope ExtraBold_MSFontService,sans-serif" font-weight="800" font-size="11" transform="matrix(1 0 0 1.0012 329.103 269)">l=4)</text><text font-family="Manrope ExtraBold,Manrope ExtraBold_MSFontService,sans-serif" font-weight="800" font-size="11" transform="matrix(1 0 0 1.0012 137.77 256)">Subhorizon</text><text font-family="Manrope ExtraBold,Manrope ExtraBold_MSFontService,sans-serif" font-weight="800" font-size="11" transform="matrix(1 0 0 1.0012 200.77 256)">1</text><text font-family="Manrope ExtraBold,Manrope ExtraBold_MSFontService,sans-serif" font-weight="800" font-size="11" transform="matrix(1 0 0 1.0012 157.85 269)">(l=2)</text></g></svg>