<?xml version="1.0" encoding="UTF-8" standalone="no"?><svg xmlns="http://www.w3.org/2000/svg" xmlns:xlink="http://www.w3.org/1999/xlink" contentStyleType="text/css" height="98.4375px" preserveAspectRatio="none" style="width:185px;height:98px;background:#FFFFFF;" version="1.1" viewBox="0 0 185 98" width="185.9375px" zoomAndPan="magnify"><defs/><g><!--MD5=[bb7c7d13247eb19341728f5cf428f38a]
cluster Business Partner--><g id="cluster_Business Partner"><path d="M4.4271,3.125 L67.9688,3.125 A1.9531,1.9531 0 0 1 69.2708,4.4271 L72.9167,15.4215 L180.9896,15.4215 A1.3021,1.3021 0 0 1 182.2917,16.7236 L182.2917,93.4896 A1.3021,1.3021 0 0 1 180.9896,94.7917 L4.4271,94.7917 A1.3021,1.3021 0 0 1 3.125,93.4896 L3.125,4.4271 A1.3021,1.3021 0 0 1 4.4271,3.125 " style="stroke:#000000;stroke-width:0.78125;fill:none;"/><line style="stroke:#000000;stroke-width:0.78125;fill:none;" x1="3.125" x2="72.9167" y1="15.4215" y2="15.4215"/><text fill="#000000" font-family="sans-serif" font-size="7.2917" font-weight="bold" lengthAdjust="spacing" textLength="63.0208" x="5.2083" y="11.736">Business Partner</text></g><!--MD5=[e50f24c143873ab5352ff9f9e3841676]
class LegalEntity--><g id="elem_LegalEntity"><rect codeLine="5" fill="#F1F1F1" height="16.6667" id="LegalEntity" rx="1.3021" ry="1.3021" style="stroke:#181818;stroke-width:0.2604166666666667;" width="53.125" x="11.4583" y="69.7917"/><ellipse cx="19.2708" cy="78.125" fill="#ADD1B2" rx="5.7292" ry="5.7292" style="stroke:#181818;stroke-width:0.5208333333333334;"/><path d="M18.6768,78.54 L18.6768,79.8421 L20.931,79.8421 L20.931,79.362 Q20.931,79.0446 21.0531,78.9063 Q21.1833,78.7679 21.3786,78.7679 Q21.5739,78.7679 21.696,78.9063 Q21.818,79.0446 21.818,79.362 L21.818,80.7292 L17.6514,80.7292 Q17.3258,80.7292 17.1875,80.6071 Q17.0573,80.485 17.0573,80.2816 Q17.0573,80.0863 17.1956,79.9642 Q17.334,79.8421 17.6514,79.8421 L17.7897,79.8421 L17.7897,76.3753 L17.6514,76.3753 Q17.3258,76.3753 17.1875,76.2533 Q17.0573,76.1312 17.0573,75.9277 Q17.0573,75.7324 17.1875,75.6104 Q17.3258,75.4883 17.6514,75.4883 L21.6227,75.4883 L21.6227,76.8392 Q21.6227,77.1566 21.5007,77.2949 Q21.3867,77.4251 21.1833,77.4251 Q20.988,77.4251 20.8659,77.2949 Q20.7438,77.1566 20.7438,76.8392 L20.7438,76.3753 L18.6768,76.3753 L18.6768,77.653 L19.4499,77.653 Q19.4499,77.3112 19.515,77.2135 Q19.6533,77.002 19.8975,77.002 Q20.0928,77.002 20.2148,77.1403 Q20.3369,77.2705 20.3369,77.5879 L20.3369,78.6133 Q20.3369,78.8981 20.2718,78.9958 Q20.1335,79.1992 19.8975,79.1992 Q19.6533,79.1992 19.515,78.9876 Q19.4499,78.89 19.4499,78.54 L18.6768,78.54 Z " fill="#000000"/><text fill="#000000" font-family="sans-serif" font-size="7.2917" lengthAdjust="spacing" textLength="36.4583" x="26.5625" y="81.1086">LegalEntity</text></g><!--MD5=[7eeb4b838a05227218a56e467b2beb72]
class Site--><g id="elem_Site"><rect codeLine="7" fill="#F1F1F1" height="16.6667" id="Site" rx="1.3021" ry="1.3021" style="stroke:#181818;stroke-width:0.2604166666666667;" width="29.1667" x="82.8125" y="69.7917"/><ellipse cx="90.625" cy="78.125" fill="#ADD1B2" rx="5.7292" ry="5.7292" style="stroke:#181818;stroke-width:0.5208333333333334;"/><path d="M90.0309,78.54 L90.0309,79.8421 L92.2852,79.8421 L92.2852,79.362 Q92.2852,79.0446 92.4072,78.9063 Q92.5374,78.7679 92.7327,78.7679 Q92.9281,78.7679 93.0501,78.9063 Q93.1722,79.0446 93.1722,79.362 L93.1722,80.7292 L89.0055,80.7292 Q88.68,80.7292 88.5417,80.6071 Q88.4115,80.485 88.4115,80.2816 Q88.4115,80.0863 88.5498,79.9642 Q88.6882,79.8421 89.0055,79.8421 L89.1439,79.8421 L89.1439,76.3753 L89.0055,76.3753 Q88.68,76.3753 88.5417,76.2533 Q88.4115,76.1312 88.4115,75.9277 Q88.4115,75.7324 88.5417,75.6104 Q88.68,75.4883 89.0055,75.4883 L92.9769,75.4883 L92.9769,76.8392 Q92.9769,77.1566 92.8548,77.2949 Q92.7409,77.4251 92.5374,77.4251 Q92.3421,77.4251 92.2201,77.2949 Q92.098,77.1566 92.098,76.8392 L92.098,76.3753 L90.0309,76.3753 L90.0309,77.653 L90.804,77.653 Q90.804,77.3112 90.8691,77.2135 Q91.0075,77.002 91.2516,77.002 Q91.4469,77.002 91.569,77.1403 Q91.6911,77.2705 91.6911,77.5879 L91.6911,78.6133 Q91.6911,78.8981 91.626,78.9958 Q91.4876,79.1992 91.2516,79.1992 Q91.0075,79.1992 90.8691,78.9876 Q90.804,78.89 90.804,78.54 L90.0309,78.54 Z " fill="#000000"/><text fill="#000000" font-family="sans-serif" font-size="7.2917" lengthAdjust="spacing" textLength="12.5" x="97.9167" y="81.1086">Site</text></g><!--MD5=[0f39e4cb6f03951afbf6d14bd2505654]
class Address--><g id="elem_Address"><rect codeLine="9" fill="#F1F1F1" height="16.6667" id="Address" rx="1.3021" ry="1.3021" style="stroke:#181818;stroke-width:0.2604166666666667;" width="43.75" x="130.2083" y="69.7917"/><ellipse cx="138.0208" cy="78.125" fill="#ADD1B2" rx="5.7292" ry="5.7292" style="stroke:#181818;stroke-width:0.5208333333333334;"/><path d="M137.4268,78.54 L137.4268,79.8421 L139.681,79.8421 L139.681,79.362 Q139.681,79.0446 139.8031,78.9063 Q139.9333,78.7679 140.1286,78.7679 Q140.3239,78.7679 140.446,78.9063 Q140.568,79.0446 140.568,79.362 L140.568,80.7292 L136.4014,80.7292 Q136.0758,80.7292 135.9375,80.6071 Q135.8073,80.485 135.8073,80.2816 Q135.8073,80.0863 135.9456,79.9642 Q136.084,79.8421 136.4014,79.8421 L136.5397,79.8421 L136.5397,76.3753 L136.4014,76.3753 Q136.0758,76.3753 135.9375,76.2533 Q135.8073,76.1312 135.8073,75.9277 Q135.8073,75.7324 135.9375,75.6104 Q136.0758,75.4883 136.4014,75.4883 L140.3727,75.4883 L140.3727,76.8392 Q140.3727,77.1566 140.2507,77.2949 Q140.1367,77.4251 139.9333,77.4251 Q139.738,77.4251 139.6159,77.2949 Q139.4938,77.1566 139.4938,76.8392 L139.4938,76.3753 L137.4268,76.3753 L137.4268,77.653 L138.1999,77.653 Q138.1999,77.3112 138.265,77.2135 Q138.4033,77.002 138.6475,77.002 Q138.8428,77.002 138.9648,77.1403 Q139.0869,77.2705 139.0869,77.5879 L139.0869,78.6133 Q139.0869,78.8981 139.0218,78.9958 Q138.8835,79.1992 138.6475,79.1992 Q138.4033,79.1992 138.265,78.9876 Q138.1999,78.89 138.1999,78.54 L137.4268,78.54 Z " fill="#000000"/><text fill="#000000" font-family="sans-serif" font-size="7.2917" lengthAdjust="spacing" textLength="27.0833" x="145.3125" y="81.1086">Address</text></g><!--MD5=[c637aa948e80933875c54e7f5e23ee1d]
class BusinessPartner--><g id="elem_BusinessPartner"><rect codeLine="11" fill="#F1F1F1" height="16.6667" id="BusinessPartner" rx="1.3021" ry="1.3021" style="stroke:#181818;stroke-width:0.2604166666666667;" width="70.8333" x="61.9792" y="21.875"/><ellipse cx="69.7917" cy="30.2083" fill="#A9DCDF" rx="5.7292" ry="5.7292" style="stroke:#181818;stroke-width:0.5208333333333334;"/><path d="M70.931,31.1279 L68.7744,31.1279 L68.5547,31.665 L68.7744,31.665 Q69.0918,31.665 69.2301,31.7871 Q69.3685,31.9092 69.3685,32.1126 Q69.3685,32.3079 69.2301,32.43 Q69.0918,32.5521 68.7744,32.5521 L67.5781,32.5521 Q67.2607,32.5521 67.1305,32.43 Q66.9922,32.3079 66.9922,32.1045 Q66.9922,31.9092 67.1387,31.7871 Q67.277,31.6569 67.6025,31.665 L68.9941,28.1982 L68.4163,28.1982 Q68.099,28.1982 67.9606,28.0762 Q67.8223,27.9541 67.8223,27.7507 Q67.8223,27.5553 67.9606,27.4333 Q68.099,27.3112 68.4163,27.3112 L70.3288,27.3112 L72.0947,31.665 Q72.404,31.665 72.5016,31.7383 Q72.7051,31.8766 72.7051,32.1126 Q72.7051,32.3079 72.5667,32.43 Q72.4365,32.5521 72.1191,32.5521 L70.9229,32.5521 Q70.6055,32.5521 70.4671,32.43 Q70.3288,32.3079 70.3288,32.1045 Q70.3288,31.9092 70.4671,31.7871 Q70.6055,31.665 70.9229,31.665 L71.1426,31.665 L70.931,31.1279 Z M70.5566,30.2409 L69.8486,28.4831 L69.1325,30.2409 L70.5566,30.2409 Z " fill="#000000"/><text fill="#000000" font-family="sans-serif" font-size="7.2917" font-style="italic" lengthAdjust="spacing" textLength="54.1667" x="77.0833" y="33.1919">BusinessPartner</text></g><!--MD5=[25f5d681f6bf26c72d4cddf5738e47e0]
reverse link BusinessPartner to LegalEntity--><g id="link_BusinessPartner_LegalEntity"><path codeLine="13" d="M79.151,45.1354 C68.8906,53.2344 56.4792,63.0312 47.9896,69.7344 " fill="none" id="BusinessPartner-backto-LegalEntity" style="stroke:#181818;stroke-width:0.5208333333333334;"/><polygon fill="none" points="77.0208,42.1667,87.4583,38.5729,81.5417,47.8906,77.0208,42.1667" style="stroke:#181818;stroke-width:0.5208333333333334;"/></g><!--MD5=[4c242ca7c64dee565339c2f3e5ba1587]
reverse link BusinessPartner to Site--><g id="link_BusinessPartner_Site"><path codeLine="14" d="M97.3958,49.276 C97.3958,56.4115 97.3958,64.1771 97.3958,69.7708 " fill="none" id="BusinessPartner-backto-Site" style="stroke:#181818;stroke-width:0.5208333333333334;"/><polygon fill="none" points="93.75,49.099,97.3958,38.6823,101.0417,49.099,93.75,49.099" style="stroke:#181818;stroke-width:0.5208333333333334;"/></g><!--MD5=[7a1735f8eb2eb4ab8befb9d09be7002f]
reverse link BusinessPartner to Address--><g id="link_BusinessPartner_Address"><path codeLine="15" d="M114.6146,45.4896 C124,53.5365 135.2396,63.1667 142.9427,69.7708 " fill="none" id="BusinessPartner-backto-Address" style="stroke:#181818;stroke-width:0.5208333333333334;"/><polygon fill="none" points="112.2083,48.2292,106.6719,38.6823,116.9531,42.6927,112.2083,48.2292" style="stroke:#181818;stroke-width:0.5208333333333334;"/></g><!--MD5=[73b258249b066b3c2b7cdd1e0d6aa22f]
@startuml business-partner-simple

skinparam dpi 50

package "Business Partner" {
  entity LegalEntity {}
  
  entity Site {}

  entity Address {}
  
  abstract class BusinessPartner {}

  LegalEntity -u-|> BusinessPartner
  Site -u-|> BusinessPartner
  Address -u-|> BusinessPartner
}

hide members
@enduml

PlantUML version 1.2022.5(Sat Apr 30 12:55:52 CEST 2022)
(GPL source distribution)
Java Runtime: OpenJDK Runtime Environment
JVM: OpenJDK 64-Bit Server VM
Default Encoding: Cp1252
Language: en
Country: GB
--></g></svg>