<svg xmlns="http://www.w3.org/2000/svg" xml:space="preserve" width="2349" height="1776" overflow="hidden"><text font-family="Calibri,Calibri_MSFontService,sans-serif" font-size="83" font-weight="400" transform="translate(117.942 102)">OEM</text><text font-family="Calibri,Calibri_MSFontService,sans-serif" font-size="83" font-weight="400" transform="translate(607.942 102)">Tier1</text><text font-family="Calibri,Calibri_MSFontService,sans-serif" font-size="83" font-weight="400" transform="translate(1097.94 102)">Tier2</text><text font-family="Calibri,Calibri_MSFontService,sans-serif" font-size="83" font-weight="400" transform="translate(1587.94 102)">Tier3</text><text font-family="Calibri,Calibri_MSFontService,sans-serif" font-size="83" font-weight="400" transform="translate(2076.51 102)">Tier4</text><path fill="none" stroke="#000" stroke-linejoin="round" stroke-miterlimit="10" stroke-width="3.438" d="M25.5 681.5h362v219h-362zm490-172h362v219h-362zm0 348h362v218h-362zm980 43h362v218h-362z"/><path fill="none" stroke="red" stroke-linejoin="round" stroke-miterlimit="10" stroke-width="10.313" d="M1005 673h362v218h-362z"/><path fill="none" stroke="#000" stroke-linejoin="round" stroke-miterlimit="10" stroke-width="3.438" d="M1985.5 897.5h362v218h-362zm-980 227h362v219h-362zm-490 0h362v219h-362z"/><path d="m1857.577 1012.797 104.946-2.345-.154-6.874-104.946 2.345Zm100.594 8.067 27.186-14.36-27.8-13.133ZM1370.5 780.814l116.61 207.176-5.99 3.37-116.62-207.174Zm123.35 198.116 1.51 30.71-25.47-17.22Zm-491.2-194.741L888.9 638.672l5.42-4.234 113.75 145.517ZM883.6 648.634l-6.1-30.134 27.77 13.199Z"/><path d="M1002.537 780.538 887.761 945.65l5.645 3.924 114.777-165.112ZM881.91 936l-4.406 30.428 26.986-14.732Z"/><path fill="none" stroke="#000" stroke-linejoin="round" stroke-miterlimit="10" stroke-width="3.438" d="M25.5 1003.5h362v219h-362z"/><path d="M512.58 967.88 398.224 811.042l5.555-4.05L518.135 963.83ZM392.591 820.821 387.5 790.5l27.312 14.12Z"/><path d="M512.597 616.45 398.404 770.196l5.52 4.1L518.117 620.55ZM392.86 760.368l-5.359 30.275 27.435-13.878Zm119.905 203.874L399.96 1093.75l5.184 4.515 112.805-129.506ZM395.194 1083.52l-7.694 29.768 28.43-11.705Z"/><g fill="red"><path d="M1908.81 919.48h22.209v3.457h-22.208Zm0 6.916h22.209v3.458h-22.208Zm0 6.916h22.209v3.459h-22.208Z"/><path d="m1949.896 969.279-17.083-16.427 17.083-16.427zm-55.35 2.075 16.912-16.168 1.196-1.124a11.926 11.926 0 0 1 16.486 0l1.195 1.124 16.828 16.168zm-2.734-35.016 17.084 16.427-17.083 16.428zm11.959-22.046h34.167v28.79l-7.688 7.436a15.236 15.236 0 0 0-18.792 0l-7.687-7.436zm39.292 2.334v-7.522h-11.959l-10.25-8.646-10.25 8.646h-11.958v7.608l-11.958 11.5v48.33h68.333v-48.33z"/></g><g fill="red"><path d="M1461.174 764.48h22.479v3.457h-22.48Zm0 6.916h22.479v3.458h-22.48Zm0 6.916h22.479v3.459h-22.48Z"/><path d="m1502.76 814.279-17.291-16.427 17.291-16.427zm-56.025 2.075 17.12-16.168 1.21-1.124c4.668-4.409 12.017-4.409 16.686 0l1.21 1.124 17.033 16.168zm-2.766-35.016 17.291 16.428-17.291 16.427zm12.104-22.046h34.583v28.79l-7.781 7.436a15.57 15.57 0 0 0-19.02 0l-7.782-7.436zm39.77 2.334v-7.522h-12.104l-10.375-8.646-10.375 8.646h-12.104v7.608l-12.104 11.5v48.33h69.167v-48.33z"/></g><g fill="red"><path d="M943.174 598.48h22.479v3.457h-22.48Zm0 6.916h22.479v3.458h-22.48Zm0 6.916h22.479v3.459h-22.48Z"/><path d="m984.76 648.279-17.291-16.427 17.291-16.427zm-56.025 2.075 17.12-16.168 1.21-1.124c4.668-4.409 12.017-4.409 16.686 0l1.21 1.124 17.033 16.168zm-2.766-35.016 17.291 16.428-17.291 16.427zm12.104-22.046h34.583v28.79l-7.781 7.436a15.57 15.57 0 0 0-19.02 0l-7.782-7.436zm39.77 2.334v-7.522H965.74l-10.375-8.646-10.375 8.646h-12.105v7.608l-12.104 11.5v48.33h69.167v-48.33z"/></g><g fill="red"><path d="M428.81 599.48h22.209v3.458H428.81Zm0 6.916h22.209v3.458H428.81Zm0 6.917h22.209v3.458H428.81Z"/><path d="m469.896 649.28-17.084-16.428 17.084-16.427zm-55.35 2.074 16.912-16.167 1.196-1.124a11.926 11.926 0 0 1 16.486 0l1.195 1.124 16.827 16.167zm-2.733-35.015 17.083 16.427-17.084 16.427zm11.958-22.047h34.166v28.79l-7.687 7.436a15.236 15.236 0 0 0-18.792 0l-7.687-7.436zm39.291 2.334v-7.522h-11.958l-10.25-8.646-10.25 8.646h-11.958v7.609l-11.959 11.498v48.33h68.334v-48.33z"/></g><g fill="red"><path d="M951.174 944.48h22.479v3.457h-22.48Zm0 6.916h22.479v3.458h-22.48Zm0 6.916h22.479v3.459h-22.48Z"/><path d="m992.76 994.279-17.291-16.427 17.291-16.427zm-56.025 2.075 17.12-16.168 1.21-1.124c4.668-4.409 12.017-4.409 16.686 0l1.21 1.124 17.033 16.168zm-2.766-35.016 17.291 16.428-17.291 16.427zm12.104-22.046h34.583v28.79l-7.781 7.436a15.57 15.57 0 0 0-19.02 0l-7.782-7.436zm39.77 2.334v-7.522H973.74l-10.375-8.646-10.375 8.646h-12.105v7.608l-12.104 11.5v48.33h69.167v-48.33z"/></g><g fill="red"><path d="M421.174 925.48h22.479v3.46h-22.479Zm0 6.92h22.479v3.45h-22.479Zm0 6.91h22.479v3.46h-22.479Z"/><path d="m462.76 975.28-17.291-16.43 17.291-16.43zm-56.025 2.07 17.119-16.16 1.21-1.13c4.669-4.41 12.018-4.41 16.687 0l1.21 1.13 17.033 16.16zm-2.766-35.01 17.291 16.43-17.291 16.42zm12.104-22.05h34.583v28.79l-7.781 7.44a15.55 15.55 0 0 0-19.021 0l-7.781-7.44zm39.771 2.34v-7.526H443.74l-10.375-8.646-10.375 8.646h-12.105v7.606l-12.104 11.5v48.33h69.167v-48.33z"/></g><path fill="#FFF" fill-rule="evenodd" stroke="#172C51" stroke-miterlimit="8" stroke-width="4.583" d="M305.5 165.5h462v317H498l-57.748 39.625L382.5 482.5h-77V350.416Z"/><text font-family="Calibri,Calibri_MSFontService,sans-serif" font-size="32" font-weight="400" transform="translate(317.726 215)">Message ID: 3</text><text font-family="Calibri,Calibri_MSFontService,sans-serif" font-size="32" font-weight="400" transform="translate(317.726 254)">Notification</text><text font-family="Calibri,Calibri_MSFontService,sans-serif" font-size="32" font-weight="400" transform="translate(479.861 254)">ID: 30</text><text font-family="Calibri,Calibri_MSFontService,sans-serif" font-size="32" font-weight="400" transform="translate(317.726 292)">Recipient</text><text font-family="Calibri,Calibri_MSFontService,sans-serif" font-size="32" font-weight="400" transform="translate(439.757 292)">: BPNL4</text><text font-family="Calibri,Calibri_MSFontService,sans-serif" font-size="32" font-weight="400" transform="translate(317.726 331)">Sender: BPNL2</text><text font-family="Calibri,Calibri_MSFontService,sans-serif" font-size="32" font-weight="400" transform="translate(317.726 369)">Related</text><text font-family="Calibri,Calibri_MSFontService,sans-serif" font-size="32" font-weight="400" transform="translate(424.861 369)">Notification</text><text font-family="Calibri,Calibri_MSFontService,sans-serif" font-size="32" font-weight="400" transform="translate(586.996 369)">ID: 10</text><text font-family="Calibri,Calibri_MSFontService,sans-serif" font-size="32" font-weight="400" transform="translate(317.726 408)">Root </text><text font-family="Calibri,Calibri_MSFontService,sans-serif" font-size="32" font-weight="400" transform="translate(387.622 408)">Cause</text><text font-family="Calibri,Calibri_MSFontService,sans-serif" font-size="32" font-weight="400" transform="translate(465.538 408)">: </text><text font-family="Calibri,Calibri_MSFontService,sans-serif" font-size="32" font-weight="400" transform="translate(481.58 408)">production</text><text font-family="Calibri,Calibri_MSFontService,sans-serif" font-size="32" font-weight="400" transform="translate(633.403 408)">incident</text><text font-family="Calibri,Calibri_MSFontService,sans-serif" font-size="32" font-weight="400" transform="translate(317.726 446)">Effect</text><text font-family="Calibri,Calibri_MSFontService,sans-serif" font-size="32" font-weight="400" transform="translate(393.351 446)">: </text><text font-family="Calibri,Calibri_MSFontService,sans-serif" font-size="32" font-weight="400" transform="translate(409.392 446)">Capacity</text><text font-family="Calibri,Calibri_MSFontService,sans-serif" font-size="32" font-weight="400" transform="translate(527.986 446)">decrease</text><path fill="#FFF" fill-rule="evenodd" stroke="#172C51" stroke-miterlimit="8" stroke-width="4.583" d="M816.5 165.5h463v317h-270.08l-57.88 39.625-57.87-39.625H816.5V350.417Z"/><text font-family="Calibri,Calibri_MSFontService,sans-serif" font-size="32" font-weight="400" transform="translate(829.363 215)">Message ID: 1</text><text font-family="Calibri,Calibri_MSFontService,sans-serif" font-size="32" font-weight="400" transform="translate(829.363 254)">Notification</text><text font-family="Calibri,Calibri_MSFontService,sans-serif" font-size="32" font-weight="400" transform="translate(991.5 254)">ID: 10</text><text font-family="Calibri,Calibri_MSFontService,sans-serif" font-size="32" font-weight="400" transform="translate(829.363 292)">Recipient</text><text font-family="Calibri,Calibri_MSFontService,sans-serif" font-size="32" font-weight="400" transform="translate(951.39 292)">: BPNL2</text><text font-family="Calibri,Calibri_MSFontService,sans-serif" font-size="32" font-weight="400" transform="translate(829.363 331)">Sender: BPNL1</text><text font-family="Calibri,Calibri_MSFontService,sans-serif" font-size="32" font-weight="400" transform="translate(829.363 369)">Root </text><text font-family="Calibri,Calibri_MSFontService,sans-serif" font-size="32" font-weight="400" transform="translate(899.26 369)">Cause</text><text font-family="Calibri,Calibri_MSFontService,sans-serif" font-size="32" font-weight="400" transform="translate(977.18 369)">: </text><text font-family="Calibri,Calibri_MSFontService,sans-serif" font-size="32" font-weight="400" transform="translate(993.22 369)">production</text><text font-family="Calibri,Calibri_MSFontService,sans-serif" font-size="32" font-weight="400" transform="translate(1145.04 369)">incident</text><text font-family="Calibri,Calibri_MSFontService,sans-serif" font-size="32" font-weight="400" transform="translate(829.363 408)">Effect</text><text font-family="Calibri,Calibri_MSFontService,sans-serif" font-size="32" font-weight="400" transform="translate(904.99 408)">: </text><text font-family="Calibri,Calibri_MSFontService,sans-serif" font-size="32" font-weight="400" transform="translate(921.03 408)">Capacity</text><text font-family="Calibri,Calibri_MSFontService,sans-serif" font-size="32" font-weight="400" transform="translate(1039.62 408)">decrease</text><text font-family="Calibri,Calibri_MSFontService,sans-serif" font-size="32" font-weight="400" transform="translate(829.363 446)">Text: </text><text font-family="Calibri,Calibri_MSFontService,sans-serif" font-size="32" font-weight="400" transform="translate(901.55 446)">Machine</text><text font-family="Calibri,Calibri_MSFontService,sans-serif" font-size="32" font-weight="400" transform="translate(1022.44 446)">A </text><text font-family="Calibri,Calibri_MSFontService,sans-serif" font-size="32" font-weight="400" transform="translate(1048.22 446)">breakdówn</text><path fill="#FFF" fill-rule="evenodd" stroke="#172C51" stroke-miterlimit="8" stroke-width="4.583" d="M1305.5 286.5h462v317H1498l-57.75 39.625-57.75-39.625h-77V471.416Z"/><text font-family="Calibri,Calibri_MSFontService,sans-serif" font-size="32" font-weight="400" transform="translate(1317.66 336)">Message ID: 2</text><text font-family="Calibri,Calibri_MSFontService,sans-serif" font-size="32" font-weight="400" transform="translate(1317.66 375)">Notification</text><text font-family="Calibri,Calibri_MSFontService,sans-serif" font-size="32" font-weight="400" transform="translate(1479.79 375)">ID: 20</text><text font-family="Calibri,Calibri_MSFontService,sans-serif" font-size="32" font-weight="400" transform="translate(1317.66 413)">Recipient</text><text font-family="Calibri,Calibri_MSFontService,sans-serif" font-size="32" font-weight="400" transform="translate(1439.69 413)">: BPNL3</text><text font-family="Calibri,Calibri_MSFontService,sans-serif" font-size="32" font-weight="400" transform="translate(1317.66 452)">Sender: BPNL1</text><text font-family="Calibri,Calibri_MSFontService,sans-serif" font-size="32" font-weight="400" transform="translate(1317.66 490)">Root </text><text font-family="Calibri,Calibri_MSFontService,sans-serif" font-size="32" font-weight="400" transform="translate(1387.56 490)">Cause</text><text font-family="Calibri,Calibri_MSFontService,sans-serif" font-size="32" font-weight="400" transform="translate(1465.47 490)">: </text><text font-family="Calibri,Calibri_MSFontService,sans-serif" font-size="32" font-weight="400" transform="translate(1481.51 490)">production</text><text font-family="Calibri,Calibri_MSFontService,sans-serif" font-size="32" font-weight="400" transform="translate(1633.34 490)">incident</text><text font-family="Calibri,Calibri_MSFontService,sans-serif" font-size="32" font-weight="400" transform="translate(1317.66 529)">Effect</text><text font-family="Calibri,Calibri_MSFontService,sans-serif" font-size="32" font-weight="400" transform="translate(1393.28 529)">: Demand </text><text font-family="Calibri,Calibri_MSFontService,sans-serif" font-size="32" font-weight="400" transform="translate(1526.77 529)">decrease</text><text font-family="Calibri,Calibri_MSFontService,sans-serif" font-size="32" font-weight="400" transform="translate(1317.66 567)">Text: </text><text font-family="Calibri,Calibri_MSFontService,sans-serif" font-size="32" font-weight="400" transform="translate(1389.85 567)">Machine</text><text font-family="Calibri,Calibri_MSFontService,sans-serif" font-size="32" font-weight="400" transform="translate(1510.73 567)">A breakdown</text><path fill="#FFF" fill-rule="evenodd" stroke="#172C51" stroke-miterlimit="8" stroke-width="4.583" d="M1788.5 531.5h462v317H1981l-57.75 39.625-57.75-39.625h-77V716.417Z"/><text font-family="Calibri,Calibri_MSFontService,sans-serif" font-size="32" font-weight="400" transform="translate(1800.61 580)">Message ID: 4</text><text font-family="Calibri,Calibri_MSFontService,sans-serif" font-size="32" font-weight="400" transform="translate(1800.61 619)">Notification</text><text font-family="Calibri,Calibri_MSFontService,sans-serif" font-size="32" font-weight="400" transform="translate(1962.75 619)">ID: 40</text><text font-family="Calibri,Calibri_MSFontService,sans-serif" font-size="32" font-weight="400" transform="translate(1800.61 657)">Recipient</text><text font-family="Calibri,Calibri_MSFontService,sans-serif" font-size="32" font-weight="400" transform="translate(1922.64 657)">: BPNL5</text><text font-family="Calibri,Calibri_MSFontService,sans-serif" font-size="32" font-weight="400" transform="translate(1800.61 696)">Sender: BPNL3</text><text font-family="Calibri,Calibri_MSFontService,sans-serif" font-size="32" font-weight="400" transform="translate(1800.61 734)">Related</text><text font-family="Calibri,Calibri_MSFontService,sans-serif" font-size="32" font-weight="400" transform="translate(1907.75 734)">Notification</text><text font-family="Calibri,Calibri_MSFontService,sans-serif" font-size="32" font-weight="400" transform="translate(2069.88 734)">ID</text><text font-family="Calibri,Calibri_MSFontService,sans-serif" font-size="32" font-weight="400" transform="translate(2097.38 734)">: 20</text><text font-family="Calibri,Calibri_MSFontService,sans-serif" font-size="32" font-weight="400" transform="translate(1800.61 773)">Root </text><text font-family="Calibri,Calibri_MSFontService,sans-serif" font-size="32" font-weight="400" transform="translate(1870.51 773)">Cause</text><text font-family="Calibri,Calibri_MSFontService,sans-serif" font-size="32" font-weight="400" transform="translate(1948.42 773)">: Other</text><text font-family="Calibri,Calibri_MSFontService,sans-serif" font-size="32" font-weight="400" transform="translate(1800.61 811)">Effect</text><text font-family="Calibri,Calibri_MSFontService,sans-serif" font-size="32" font-weight="400" transform="translate(1876.23 811)">: Demand </text><text font-family="Calibri,Calibri_MSFontService,sans-serif" font-size="32" font-weight="400" transform="translate(2009.72 811)">decrease</text><g fill="red"><path d="M57.174 1452.48h22.479v3.46H57.174Zm0 6.92h22.479v3.45H57.174Zm0 6.91h22.479v3.46H57.174Z"/><path d="m98.76 1502.28-17.291-16.43 17.291-16.42zm-56.024 2.07 17.118-16.16 1.211-1.13c4.668-4.41 12.017-4.41 16.686 0l1.211 1.13 17.032 16.16zm-2.767-35.01 17.292 16.43-17.292 16.42zm12.104-22.05h34.583v28.79l-7.781 7.44a15.55 15.55 0 0 0-19.021 0l-7.781-7.44zm39.771 2.34v-7.53H79.74l-10.375-8.64-10.375 8.64H46.886v7.61l-12.105 11.5v48.33h69.167v-48.33z"/></g><text font-family="Calibri,Calibri_MSFontService,sans-serif" font-size="46" font-weight="400" transform="translate(145.008 1483)">Notification</text><path fill="none" stroke="red" stroke-linejoin="round" stroke-miterlimit="10" stroke-width="10.313" d="M25 1679h75v81H25z"/><text font-family="Calibri,Calibri_MSFontService,sans-serif" font-size="46" font-weight="400" transform="translate(140.457 1736)">Notification</text><text font-family="Calibri,Calibri_MSFontService,sans-serif" font-size="46" font-weight="400" transform="translate(369.624 1736)">Source </text><path d="M97.695 1608.063H51.417v6.875h46.278ZM56 1597.75l-27.5 13.75 27.5 13.75Z"/><text font-family="Calibri,Calibri_MSFontService,sans-serif" font-size="46" font-weight="400" transform="translate(143.657 1614)">Notification</text><text font-family="Calibri,Calibri_MSFontService,sans-serif" font-size="46" font-weight="400" transform="translate(372.824 1614)">direction</text></svg>