<svg xmlns="http://www.w3.org/2000/svg" width="367" height="216" preserveAspectRatio="none" style="width:367px;height:216px;background:#fff"><path fill="#DDD" d="M1 6h103v204.492H1z" style="stroke:#181818;stroke-width:.5"/><text x="4" y="19.495" font-family="sans-serif" font-size="13" font-weight="bold" textLength="97">Data Consumer</text><path fill="#DDD" d="M268 6h93v204.492h-93z" style="stroke:#181818;stroke-width:.5"/><text x="271" y="19.495" font-family="sans-serif" font-size="13" font-weight="bold" textLength="87">Data Provider</text><path d="M52 76.57v80.703M314 76.57v80.703" style="stroke:#181818;stroke-width:.5;stroke-dasharray:5,5"/><rect width="83" height="49.219" x="11" y="26.352" fill="#E2E2F0" rx="2.5" ry="2.5" style="stroke:#181818;stroke-width:.5"/><text x="24" y="47.885" font-family="sans-serif" font-size="14" textLength="57">Business</text><text x="18" y="65.494" font-family="sans-serif" font-size="14" textLength="69">Application</text><rect width="83" height="49.219" x="11" y="156.273" fill="#E2E2F0" rx="2.5" ry="2.5" style="stroke:#181818;stroke-width:.5"/><text x="24" y="177.807" font-family="sans-serif" font-size="14" textLength="57">Business</text><text x="18" y="195.416" font-family="sans-serif" font-size="14" textLength="69">Application</text><rect width="83" height="49.219" x="273" y="26.352" fill="#E2E2F0" rx="2.5" ry="2.5" style="stroke:#181818;stroke-width:.5"/><text x="286" y="47.885" font-family="sans-serif" font-size="14" textLength="57">Business</text><text x="280" y="65.494" font-family="sans-serif" font-size="14" textLength="69">Application</text><rect width="83" height="49.219" x="273" y="156.273" fill="#E2E2F0" rx="2.5" ry="2.5" style="stroke:#181818;stroke-width:.5"/><text x="286" y="177.807" font-family="sans-serif" font-size="14" textLength="57">Business</text><text x="280" y="195.416" font-family="sans-serif" font-size="14" textLength="69">Application</text><path fill="#181818" d="m63.5 104.922-10 4 10 4-4-4z" style="stroke:#181818;stroke-width:1"/><path d="M57.5 108.922h256" style="stroke:#181818;stroke-width:1"/><text x="68" y="104.065" font-family="sans-serif" font-size="13" font-weight="bold" textLength="7">1</text><text x="79" y="104.065" font-family="sans-serif" font-size="13" textLength="220">Send DemandAndCapacityNotification</text><path fill="#181818" d="m302.5 135.273 10 4-10 4 4-4z" style="stroke:#181818;stroke-width:1"/><path d="M52.5 139.273h256" style="stroke:#181818;stroke-width:1;stroke-dasharray:2,2"/><text x="150.5" y="134.417" font-family="sans-serif" font-size="13" font-weight="bold" textLength="7">2</text><text x="161.5" y="134.417" font-family="sans-serif" font-size="13" textLength="55">Accepted</text></svg>