<?xml version="1.0" encoding="iso-8859-1"?>
<!-- Generator: Adobe Illustrator 19.0.0, SVG Export Plug-In . SVG Version: 6.00 Build 0)  -->
<svg version="1.1" id="Layer_1" xmlns="http://www.w3.org/2000/svg" xmlns:xlink="http://www.w3.org/1999/xlink" x="0px" y="0px"
	 viewBox="0 0 512 512" style="enable-background:new 0 0 512 512;" xml:space="preserve">
<path style="fill:#D7EBFF;" d="M20.25,314.137c-7.956,0-15.01-5.718-16.424-13.832C1.282,285.773,0,270.881,0,256.056
	C0,114.899,114.837,0.057,255.999,0.057c13.653,0,27.359,1.092,40.749,3.245c9.098,1.461,15.293,10.033,13.837,19.135
	c-1.467,9.104-10,15.31-19.141,13.832c-11.641-1.87-23.565-2.82-35.446-2.82c-122.749,0-222.608,99.864-222.608,222.608
	c0,12.908,1.12,25.864,3.326,38.511c1.587,9.081-4.489,17.728-13.576,19.316C22.174,314.049,21.207,314.137,20.25,314.137z"/>
<g>
	<path style="fill:#C4E2FF;" d="M3.827,300.306c1.414,8.114,8.467,13.832,16.424,13.832c0.956,0,1.924-0.087,2.892-0.255
		c9.087-1.587,15.163-10.233,13.576-19.316c-2.207-12.647-3.327-25.603-3.327-38.511c0-61.373,24.964-117.025,65.274-157.334
		L75.064,75.121C28.709,121.477,0,185.477,0,256.056C0,270.881,1.282,285.773,3.827,300.306z"/>
	<path style="fill:#C4E2FF;" d="M211.7,294.567l-11.799-11.576l-11.687-11.576c-19.7-19.367-51.421-19.033-70.788,0.668
		l-93.607,95.165c-9.35,9.572-14.468,22.149-14.468,35.506c0.11,13.468,5.454,26.045,15.025,35.395l10.24,10.129l12.021,11.798
		c0.111,0.111,0.111,0.111,0.223,0.111c3.228,3.228,7.346,4.675,11.464,4.675c4.23,0,8.57-1.67,11.799-4.897l141.69-141.69
		c3.117-3.116,4.896-7.457,4.896-11.91C216.709,301.913,214.929,297.683,211.7,294.567z"/>
</g>
<path style="fill:#D7EBFF;" d="M463.358,42.909l-27.382-26.936c-19.811-19.256-51.533-19.033-70.899,0.668l-93.607,95.276
	c-9.35,9.461-14.468,22.149-14.358,35.506c0.111,13.356,5.455,25.934,15.026,35.283l14.136,13.913l10.24,10.017
	c2.894,3.896,7.346,6.233,12.132,6.678h1.225c4.451,0,8.681-1.781,11.797-4.897L463.469,66.616c3.115-3.117,4.898-7.457,4.898-11.91
	C468.368,50.255,466.585,46.025,463.358,42.909z"/>
<path style="fill:#3ABBE6;" d="M507.768,101.121c-4.452-14.136-12.577-26.936-24.153-38.287l-32.04-31.513l-165.302,165.3
	l10.24,10.017c6.121,6.678,5.898,16.696-0.667,23.374l-60.329,64.779c-3.115,3.116-7.234,4.897-11.686,4.897
	c-4.452-0.111-9.014-1.781-12.132-5.12l-11.799-11.576c-5.899,5.899-11.687,11.687-11.687,11.687L34.616,448.277l12.021,11.798
	c0.111,0.111,0.111,0.111,0.223,0.111l25.155,24.709c18.254,18.031,39.848,27.047,64.222,27.047h1.003
	c101.118-0.91,375.617-279.447,374.759-383.776C511.886,118.707,510.551,109.58,507.768,101.121z"/>
<path style="fill:#33A6CC;" d="M360.819,360.876l-96.746-96.748l-28.554,30.66c-3.115,3.116-7.234,4.897-11.686,4.897
	c-4.452-0.111-9.014-1.781-12.132-5.12l-11.799-11.576c-5.899,5.899-11.687,11.687-11.687,11.687L34.617,448.276l12.021,11.798
	c0.111,0.111,0.111,0.111,0.223,0.111l25.155,24.709c18.254,18.031,39.848,27.047,64.222,27.047h1.003
	C187.377,511.491,280.13,442.762,360.819,360.876z"/>
<g>
</g>
<g>
</g>
<g>
</g>
<g>
</g>
<g>
</g>
<g>
</g>
<g>
</g>
<g>
</g>
<g>
</g>
<g>
</g>
<g>
</g>
<g>
</g>
<g>
</g>
<g>
</g>
<g>
</g>
</svg>
