<?xml version="1.0" encoding="iso-8859-1"?>
<!-- Generator: Adobe Illustrator 19.0.0, SVG Export Plug-In . SVG Version: 6.00 Build 0)  -->
<svg version="1.1" id="Layer_1" xmlns="http://www.w3.org/2000/svg" xmlns:xlink="http://www.w3.org/1999/xlink" x="0px" y="0px"
	 viewBox="0 0 512 512" style="enable-background:new 0 0 512 512;" xml:space="preserve">
<g>
	<rect x="73.143" y="460.278" style="fill:#4B92B9;" width="365.714" height="25.078"/>
	<rect x="243.461" y="112.327" style="fill:#4B92B9;" width="25.078" height="373.029"/>
	<rect x="224.653" y="441.469" style="fill:#4B92B9;" width="62.694" height="62.694"/>
</g>
<rect x="73.143" y="151.113" style="fill:#79CAE8;" width="365.714" height="104.49"/>
<circle style="fill:#FF503D;" cx="392.882" cy="203.358" r="15.673"/>
<rect x="73.143" y="294.4" style="fill:#79CAE8;" width="365.714" height="104.49"/>
<circle style="fill:#FFD85C;" cx="392.882" cy="346.645" r="15.673"/>
<rect x="243.461" y="320.522" style="fill:#4B92B9;" width="104.49" height="52.245"/>
<rect x="73.143" y="7.837" style="fill:#79CAE8;" width="365.714" height="104.49"/>
<g>
	<rect x="243.461" y="33.959" style="fill:#4B92B9;" width="104.49" height="52.245"/>
	<rect x="243.461" y="177.236" style="fill:#4B92B9;" width="104.49" height="52.245"/>
</g>
<circle style="fill:#8EC766;" cx="392.882" cy="62.224" r="15.673"/>
<path d="M392.882,226.873c12.964,0,23.51-10.547,23.51-23.51c0-12.963-10.546-23.51-23.51-23.51c-12.964,0-23.51,10.547-23.51,23.51
	C369.371,216.326,379.918,226.873,392.882,226.873z M392.882,195.527c4.322,0,7.837,3.515,7.837,7.837s-3.515,7.837-7.837,7.837
	s-7.837-3.515-7.837-7.837S388.56,195.527,392.882,195.527z"/>
<path d="M392.882,370.155c12.964,0,23.51-10.547,23.51-23.51c0-12.963-10.546-23.51-23.51-23.51c-12.964,0-23.51,10.547-23.51,23.51
	C369.371,359.608,379.918,370.155,392.882,370.155z M392.882,338.808c4.322,0,7.837,3.515,7.837,7.837
	c0,4.322-3.515,7.837-7.837,7.837s-7.837-3.515-7.837-7.837C385.045,342.323,388.56,338.808,392.882,338.808z"/>
<path d="M355.788,312.686H235.624v67.918h120.163V312.686z M340.114,364.931h-88.816v-36.571h88.816V364.931z"/>
<rect x="264.359" y="338.808" width="62.694" height="15.673"/>
<path d="M235.624,94.041h120.163V26.122H235.624V94.041z M251.298,41.796h88.816v36.571h-88.816V41.796z"/>
<rect x="264.359" y="52.245" width="62.694" height="15.673"/>
<path d="M446.694,120.163V0H65.306v120.163h170.318v23.118H65.306v120.163h170.318v23.118H65.306v120.163h170.318v26.906h-18.808
	v18.808H65.306v40.751h151.51V512h78.367v-18.808h151.51v-40.751h-151.51v-18.808h-18.808v-26.906h170.318V286.563H276.375v-23.118
	h170.318V143.282H276.375v-23.118H446.694z M80.98,15.673H431.02v88.816H80.98V15.673z M80.98,477.518v-9.404h135.837v9.404H80.98z
	 M431.02,468.114v9.404H295.184v-9.404H431.02z M279.51,496.327h-47.02v-47.02h47.02V496.327z M260.702,433.633h-9.404v-26.906
	h9.404V433.633z M431.02,391.053H80.98v-88.816H431.02V391.053z M260.702,286.563h-9.404v-23.118h9.404V286.563z M431.02,247.771
	H80.98v-88.816H431.02V247.771z M260.702,143.282h-9.404v-23.118h9.404V143.282z"/>
<rect x="96.653" y="33.959" width="15.673" height="52.245"/>
<rect x="124.447" y="33.959" width="15.673" height="52.245"/>
<rect x="152.242" y="33.959" width="15.673" height="52.245"/>
<rect x="180.036" y="33.959" width="15.673" height="52.245"/>
<rect x="96.653" y="177.236" width="15.673" height="52.245"/>
<rect x="124.447" y="177.236" width="15.673" height="52.245"/>
<rect x="152.242" y="177.236" width="15.673" height="52.245"/>
<rect x="180.036" y="177.236" width="15.673" height="52.245"/>
<rect x="96.653" y="320.522" width="15.673" height="52.245"/>
<rect x="124.447" y="320.522" width="15.673" height="52.245"/>
<rect x="152.242" y="320.522" width="15.673" height="52.245"/>
<rect x="180.036" y="320.522" width="15.673" height="52.245"/>
<path d="M355.788,169.404H235.624v67.918h120.163V169.404z M340.114,221.649h-88.816v-36.571h88.816V221.649z"/>
<rect x="264.359" y="195.521" width="62.694" height="15.673"/>
<path d="M392.882,38.717c-12.964,0-23.51,10.547-23.51,23.51s10.546,23.51,23.51,23.51c12.964,0,23.51-10.547,23.51-23.51
	C416.392,49.263,405.846,38.717,392.882,38.717z M392.882,70.064c-4.322,0-7.837-3.515-7.837-7.837s3.515-7.837,7.837-7.837
	s7.837,3.515,7.837,7.837C400.718,66.547,397.203,70.064,392.882,70.064z"/>
<g>
</g>
<g>
</g>
<g>
</g>
<g>
</g>
<g>
</g>
<g>
</g>
<g>
</g>
<g>
</g>
<g>
</g>
<g>
</g>
<g>
</g>
<g>
</g>
<g>
</g>
<g>
</g>
<g>
</g>
</svg>
